<?xml version="1.0" encoding="utf-8"?>
<!-- Generator: Adobe Illustrator 19.2.1, SVG Export Plug-In . SVG Version: 6.00 Build 0)  -->
<svg version="1.1" id="Pattern" xmlns="http://www.w3.org/2000/svg" xmlns:xlink="http://www.w3.org/1999/xlink" x="0px" y="0px"
	 viewBox="0 0 800 800" style="enable-background:new 0 0 800 800;" xml:space="preserve">
<style type="text/css">
	.st0{fill:none;}
	.st1{fill:#F6F6F6;}
	.st2{fill:#B2B2B2;}
	.st3{opacity:0.1;fill:url(#SVGID_1_);}
</style>
<pattern  width="200" height="200" patternUnits="userSpaceOnUse" id="Nueva_muestra_de_motivo_1" viewBox="0 -200 200 200" style="overflow:visible;">
	<g>
		<rect y="-200" class="st0" width="200" height="200"/>
		<polygon class="st1" points="0,0 28.8,0 0,-28.8 		"/>
		<polygon class="st1" points="0,-200 0,-171.2 28.8,-200 		"/>
		<polygon class="st1" points="135.2,-200 200,-135.2 200,-154.2 154.2,-200 		"/>
		<polygon class="st1" points="100,-200 200,-100 200,-118.2 118.2,-200 		"/>
		<polygon class="st1" points="171.2,-200 200,-171.2 200,-200 		"/>
		<polygon class="st1" points="45.8,-200 0,-154.2 0,-135.2 64.8,-200 		"/>
		<polygon class="st1" points="0,-81.8 81.8,0 100,0 0,-100 		"/>
		<polygon class="st1" points="81.8,-200 0,-118.2 0,-100 100,-200 		"/>
		<polygon class="st1" points="0,-45.8 45.8,0 64.8,0 0,-64.8 		"/>
		<polygon class="st1" points="154.2,0 200,-45.8 200,-64.8 135.2,0 		"/>
		<polygon class="st1" points="200,0 200,-28.8 171.2,0 		"/>
		<polygon class="st1" points="118.2,0 200,-81.8 200,-100 100,0 		"/>
		<polygon class="st1" points="61.5,-146.2 92.3,-115.4 115.4,-138.5 100,-153.8 92.3,-146.2 100,-138.5 92.3,-130.8 76.9,-146.2 
			100,-169.2 130.8,-138.5 101.2,-108.9 91.1,-98.8 61.5,-69.2 30.8,-100 53.8,-123.1 69.2,-107.7 61.5,-100 53.8,-107.7 46.2,-100 
			61.5,-84.6 84.6,-107.7 53.8,-138.5 15.4,-100 53.8,-61.6 53.8,-61.6 100,-15.4 138.5,-53.8 107.7,-84.6 84.6,-61.5 100,-46.2 
			107.7,-53.8 100,-61.5 107.7,-69.2 123.1,-53.8 107.7,-38.5 100,-30.8 69.2,-61.5 97.7,-90 110,-102.3 138.5,-130.8 169.2,-100 
			146.2,-76.9 130.8,-92.3 138.5,-100 146.2,-92.3 153.8,-100 138.5,-115.4 115.4,-92.3 146.2,-61.5 184.6,-100 135.1,-149.5 
			100,-184.6 		"/>
		<path class="st2" d="M100-200l100,100L100,0L0-100L100-200z M135.1-149.5L100-184.6l-38.5,38.5l30.8,30.8l23.1-23.1L100-153.8
			l-7.7,7.7l7.7,7.7l-7.7,7.7l-15.4-15.4l23.1-23.1l30.8,30.8l-29.5,29.5L91.1-98.8L61.5-69.2L30.8-100l23.1-23.1l15.4,15.4
			l-7.7,7.7l-7.7-7.7l-7.7,7.7l15.4,15.4l23.1-23.1l-30.8-30.8L15.4-100l38.4,38.4h0L100-15.4l38.5-38.5l-30.8-30.8L84.6-61.5
			L100-46.2l7.7-7.7l-7.7-7.7l7.7-7.7l15.4,15.4l-15.4,15.4l-7.7,7.7L69.2-61.5L97.7-90l12.3-12.3l28.5-28.5l30.8,30.8l-23.1,23.1
			l-15.4-15.4l7.7-7.7l7.7,7.7l7.7-7.7l-15.4-15.4l-23.1,23.1l30.8,30.8l38.5-38.5L135.1-149.5z"/>
		<polygon class="st2" points="118.2,-200 200,-118.2 200,-135.2 135.2,-200 		"/>
		<polygon class="st2" points="154.2,-200 200,-154.2 200,-171.2 171.2,-200 		"/>
		<polygon class="st2" points="135.2,0 200,-64.8 200,-81.8 118.2,0 		"/>
		<polygon class="st2" points="171.2,0 200,-28.8 200,-45.8 154.2,0 		"/>
		<polygon class="st2" points="64.8,-200 0,-135.2 0,-118.2 81.8,-200 		"/>
		<polygon class="st2" points="28.8,-200 0,-171.2 0,-154.2 45.8,-200 		"/>
		<polygon class="st2" points="0,-64.8 64.8,0 81.8,0 0,-81.8 		"/>
		<polygon class="st2" points="0,-28.8 28.8,0 45.8,0 0,-45.8 		"/>
	</g>
</pattern>
<pattern  id="SVGID_1_" xlink:href="#Nueva_muestra_de_motivo_1" patternTransform="matrix(1 0 0 1 -112.6406 -38.3345)">
</pattern>
<rect class="st3" width="800" height="800"/>
</svg>
