<?xml version="1.0" encoding="utf-8"?>
<!-- Generator: Adobe Illustrator 19.2.1, SVG Export Plug-In . SVG Version: 6.00 Build 0)  -->
<svg version="1.1" id="bd" xmlns="http://www.w3.org/2000/svg" xmlns:xlink="http://www.w3.org/1999/xlink" x="0px" y="0px"
	 viewBox="0 0 2048 1536" style="enable-background:new 0 0 2048 1536;" xml:space="preserve">
<style type="text/css">
	.st0{fill:#2860AD;}
	.st1{fill:#2957A6;}
</style>
<rect id="blue" class="st0" width="2048" height="1536"/>
<path id="dots" class="st1" d="M813.6,1490.7c-7.9-43.7,67.7-45.9,92.9-44.6c43.6,3.9,107.1,23.3,124.9,68.5
	c3.3,8.6,3.5,15.6,1.5,21.4h59c-3.7-5-6.8-10.2-9.2-15.8c-19.3-46.4,49.6-54,78.2-52.7c47.8,4.3,106,27,134.6,68.6h50.2
	c-10.3-36.3,37.3-48.6,69.4-47.2c40.2,3.1,84.6,20.4,118.6,47.2h74.9c0.9-3.1,2.2-6.1,4.3-9.1c12.1-17.7,37.6-17.5,56.5-16.8
	c28.6,2.2,58.4,11.6,86,25.9h131c11.3-5,25.7-4.9,37.2-4.5c9.5,0.7,19.2,2.3,28.8,4.5h95.8v-53.8c-34.2-17.4-65.6-41.4-88.6-67.5
	c-25-30.2-44-82.9,16.2-81c24.2,0.8,48.8,7.4,72.4,17.8v-90.8c-22.5-13.9-42.8-30.5-59-47.4c-21.1-23.4-54.4-80.7,3-82.2
	c18.5-0.6,37.4,3.1,56,9.6v-85.6c-22.6-13.2-43.2-29.3-59.4-44.8c-18.1-18.7-60.4-76.8-6.8-81.7c21.7-1.9,44.4,3.1,66.2,12.1v-78.5
	c-31-12.4-60.2-33-82-52.7c-15.7-15.4-63.3-72.3-14.1-80c31.7-5.4,66,8,96.1,26.3v-85.7c-43.4-0.5-90.6-31.4-121.1-56.5
	c-14.3-13.2-64.2-67.4-19.5-77.5c45.4-10.9,100.4,25.7,133.5,51.9c1.8,1.5,4.2,3.9,7.1,6.8v-32.7c-19.1-21.7-38.9-52.9-6.5-60.1
	c2.1-0.5,4.3-0.9,6.5-1.2v-83.2c-17.9-9.6-34.4-20.9-47.4-30.6c-12.4-10.4-70.6-64.2-29.2-76.5c23.5-7.3,51.2,0.6,76.6,13v-79.8
	c-39.9,9.9-91.1-21.7-121.2-43.1c-11.5-9.1-68.9-59.6-31.3-72.9c38.6-14.5,91.4,18.6,121.4,39.2c5.1,3.9,19.4,15.7,31.1,28.9v-30.2
	c-3.5-2.3-6.8-4.5-9.9-6.7c-10.8-8.2-74.4-61-36.3-74.4c14-5.3,30-4.3,46.3,0.1v-66c-20.6,0.2-43.4-8.3-63.6-18.7h-39.6
	c20.2,18,47.1,47.8,20,58.7c-36.8,14.4-87.3-15.8-116.3-35.3c-4.4-3.4-15.7-12.6-25.7-23.4H1767c23.2,6.7,46.2,21,62.5,32
	c11.9,9.2,67,55.3,31.3,70.5c-35.7,13.9-83.7-14.6-111.6-34c-12.3-9.8-61-52.8-28.2-68.1c0.3-0.1,0.5-0.2,0.8-0.3h-115.2
	c3.3,9.4,1.8,18.4-9.5,24.4c-28.6,13.4-69.9-6.7-93.3-24.4H1474c3.7,2.4,7.2,4.8,10.4,7.1c14,12,49.8,48.2,20,64
	c-29.1,14.7-69.2-8.6-91.8-25.4c-10.2-9.2-29-29.2-28.4-45.7h-87c-1.2,4.9-4.3,9.3-9.8,12.9c-20.9,12.6-50.5,0.8-70.3-12.9h-27.6
	c1.3,0.9,2.5,1.9,3.7,2.8c13.4,13.3,36.9,44.3,11.2,59c-23.5,14.2-57.7-2.8-75.4-18.8c-10.3-9.4-22.5-28-19.7-43h-72.7
	c-0.2,7.2-3.2,13.9-10.6,18.8c-20.6,13.4-49.4,1.2-65-14.3c-1.4-1.4-2.7-2.9-4-4.5h-30.4c8,3.5,15.3,8.7,20.9,14.2
	c13.9,13.9,24.5,41.5,4.3,55.2c-19.9,12.9-47.2,1.9-61.8-13.8c-13.1-14-21.2-40.3-3.1-54.1c0.8-0.5,1.5-1,2.3-1.5h-76.3
	c5.3,13.1,4.7,28.4-7.4,38c-16.9,12.8-40.9,4.4-53.4-10.4c-6.5-7.6-10.7-17.7-11-27.7h-53.5c-1.5,5.4-4.3,10.3-8.8,14.4
	c-13.9,12.1-36.1,6.8-46.2-7.7c-1.6-2-3-4.3-4.2-6.6h-62.3c-8.3,6.2-18.9,5.1-27.4,0h-20.1c0.3,0.5,0.7,1,1,1.6
	c9.1,14.2,8.8,36.5-4,48.6c-11.2,12.6-29.6,7.4-37.7-5.4c-8.1-13-6.9-32.2,1.9-44.8h-45.1c3.3,13,0.7,28.4-8.4,38.1
	c-9.4,12.2-25.9,8.7-32.7-3.8c-5.3-10-5.4-23.1-1.5-34.3h-34c0.5,10.7-2.7,21.9-9.2,29.7c-7.9,10.8-23.2,10.9-28.3-2.5
	c-3.1-8.2-3.8-18-2.1-27.2h-28c-0.9,8.8-4.1,17.5-8.6,24.3c-6.4,10.2-20.6,11.7-24.5-1.5c-2.2-7-2.8-15-1.8-22.9h-24
	c-1.2,7.7-4,15.2-7.7,21.3c-5.1,9.6-18.5,12.4-21.2-0.7C201,14.2,200.6,7,201.4,0h-20.7c-1.3,7.2-3.8,14.2-7,20.1
	c-7.1,11.8-15.2,11.8-18.4-0.1c-1.3-6.3-1.6-13.2-0.8-20h-17.8c-1.2,7.2-3.6,14.2-6.6,20.3c-6.3,11.7-13.4,11.9-15.9,0.4
	C113.1,14.1,113.1,7,114,0H98.5c-1.1,7.6-3.4,15-6.3,21.6c-5.7,11.6-11.8,11.9-13.7,0.8C77.6,15.2,77.8,7.5,79,0H65.9
	c-0.9,8.2-3.1,16.4-6.1,23.7c-5.1,11.5-10.3,11.9-11.8,1c-0.8-8-0.4-16.5,1.2-24.7H37.6C37,9,35,18,31.8,26.4
	c-4.5,11.4-9,11.9-10.2,1.2C21,18.5,21.8,9.1,23.7,0H13.3C13,10,11,20.1,7.8,29.5C4.6,38.4,1.6,40.6,0,36v96.4
	c0.2,1.2,0.4,2.7,0.4,4.6c0.1,3.2-0.1,6.5-0.4,9.8v33.7c0.7,1.3,1.1,3.8,1.1,7.3c0,4.2-0.4,8.5-1.1,12.7V234
	c0.4,1.5,0.5,3.5,0.5,6.1c-0.1,2.1-0.2,4.1-0.5,6.2v130.8c3-9,7.1-17.6,12.2-25.2c8-11.9,14.1-11.1,13.3,1.7
	c-1,15.9-8.4,32.3-17.4,45.2c-3.2,4.4-6,7-8.1,8v14.1c2.1-3.8,4.5-7.5,7-10.9c8.9-11.9,15.3-10.9,14.1,2.3
	c-1.7,16.4-10.2,33.1-20.1,46c-0.3,0.4-0.6,0.8-1,1.1v9.5c9.5-11,15.9-9.4,14.1,3.9C12.2,484.7,7,497,0,507.7v16.7
	c4.4-0.4,7.5,2.4,4.3,10.6c-1,4.6-2.4,9.2-4.3,13.8v76.9c5.2-7.3,11.3-14,17.5-19.5c6.7-7.4,26-11.6,19.9,5.6
	c-4.1,18.5-17.6,36.7-32.5,48.1c-1.1,0.7-2.9,1.6-4.9,2.5v11.5c0.5-0.4,1-0.8,1.5-1.2c8.2-6.5,27.3-11.5,21,6.6
	C18.8,692.4,10.2,704.9,0,715v20.3c4.1,1,6.2,4.7,2.7,12.7c-0.8,2-1.7,4.2-2.7,6.3V797c9.5-15,24.2-28.1,38.7-36.6
	c7.9-3.6,36.2-11.3,27.1,9.5c-6.3,21-26.9,38.6-45.8,48.3c-4.6,1.8-13.4,4.7-20,4.5v17.9c4.9-3.3,10-6.3,15-8.8
	c7.7-2.9,40.2-10.4,28.7,10.9c-7.1,18.8-25.5,33.5-43.6,43v14.9c11.4-1.1,22.6,1,14.5,15.5C11,923.2,6,929.5,0,935.2v48.1
	c0.2-0.3,0.4-0.6,0.6-0.9c12.8-22.1,40.1-37.9,63.6-45.8c10.8-3.8,47.6-8.3,37.6,15.7c-10.3,24.7-40.9,39.1-65.1,45.8
	c-6,1.2-28.7,4.7-36.7-1.4v26.1c9.7-4.4,19.8-7.9,29.3-10.2c9.5-1.8,53.9-7.3,40,17.7c-13.2,23.8-43.7,35-69.3,41.5v14.9
	c17.1,0,39.4,3.3,26.4,20.7c-6.6,9.2-15.9,16.2-26.4,21.6v95.9c15.7-3.2,31.5-4.8,45.6-5.5c12-0.1,76.8,1.8,57.9,29.2
	C83.3,1275.9,33.1,1279,0,1279.7v16.3c24.6,3.8,58,12.5,39.8,30.1c-10.1,9.8-24.1,15.7-39.8,19.3v107.3c23.5,1,46.7,3.9,67.2,6.6
	c9.9,1.6,116.5,23.2,87.5,49.9c-15.9,13.9-43.3,14.2-63.1,14.8c-30.7,0.8-61.3-2.6-91.5-7.6v17.5c2.5,0.7,5,1.4,7.5,2.1h204.8
	c-3.6-5.3-3.7-10.9,1.5-16.6c13.5-13.7,36.9-16.6,54.9-18.8c30.3-3.8,60.9-2.3,91.2,1.6c15.7,2.6,72.5,12.4,95.9,33.8H855
	C834.5,1525.5,818.1,1510.9,813.6,1490.7z M246.4,1193.4c-15.1,0.3-72.7,0.1-61.2-29.8c13.8-28,55.3-38.1,83.1-42.3
	c19.1-1.3,67.6-1,62.9,29.9C324.2,1183.6,272.4,1191.1,246.4,1193.4z M308.6,1244.6c-11.2,33.9-72,36.4-99.9,37
	c-11.8-0.5-84.5-4.6-66.1-33.9c19.3-28.2,66.9-34.9,97.7-37.3C258,1210.2,317,1212.2,308.6,1244.6z M47.2,231.8
	c-7.1,11.8-12.8,11.5-13-0.7c0.3-14.5,4.3-30.3,11.3-43.1c6.5-11.8,12.4-11.6,13.2,0.4C59.5,203.1,54.3,219.1,47.2,231.8z
	 M61.5,243.3c0.5,15.2-5.6,31.6-13.5,44.3c-7.9,11.9-13.9,11.3-13.8-1.3c0.8-14.9,5.4-31.2,13.2-44C54.7,230.4,61,230.9,61.5,243.3z
	 M48,298.4c8-11.9,14.8-11.2,14.9,1.6c0.1,15.7-7,32.4-15.7,45.2c-8.7,11.9-15.2,11.1-14.6-1.9C33.9,327.9,39.4,311.3,48,298.4z
	 M46.9,356.4c8.9-11.9,16.1-10.9,15.8,2.3c-0.4,16.3-8.6,33.3-18.3,46c-9.7,12-16.5,10.8-15.5-2.6C30.9,386.2,37.3,369.3,46.9,356.4
	z M84.4,488c6.8-8.3,24.1-11.7,21.3,4.9c-1.3,17.7-12.3,36.5-25.7,48c-6.7,7.4-25.6,11.9-20.8-5.2C61.5,518.4,72.2,500.2,84.4,488z
	 M87.9,351.1c-5,8.1-20,12.5-17.3-2.6c0.8-15.7,6.7-32.9,16.1-45.6c4.9-8.7,19-12.3,17.6,2.3C105.1,321.2,97.4,338.6,87.9,351.1z
	 M106.8,365.7c0,16.4-8.1,34.7-19.1,46.7c-5.6,7.9-21.6,12.3-18.4-3.4c1.4-16.2,8.3-33.8,18.8-46.4
	C93.5,354,108.5,350.6,106.8,365.7z M86.3,291.7c-8.7,11.9-15.9,11.1-16.3-1.9c0.3-15.2,5.3-32.1,13.8-44.8
	c8-11.9,15.5-11.3,16.5,1.5C101.5,262.2,94.9,279.2,86.3,291.7z M83.2,234.3c-7.9,11.9-14.6,11.4-15.3-1.2
	c-0.1-14.7,4.1-31.2,11.8-43.9c7.2-11.8,14.2-11.5,15.5,0.9C96.6,205.2,90.9,221.8,83.2,234.3z M87.4,424.3
	c6.2-8.6,22.2-11.9,20,3.9c-0.6,17.1-10,35.6-22.2,47.4c-6.1,7.7-23.5,12.2-19.6-4.3C67,454.7,76.3,436.7,87.4,424.3z M1683.1,292
	c14.2,12.6,56.9,57.6,18.8,70.7c-35.8,11.5-82.9-14.3-108.9-37c-14.4-13.6-50.2-54.2-16.1-68.4
	C1612.8,244.4,1656.1,271.1,1683.1,292z M1683.2,214.1c37.1-13.1,82.9,15.4,111.2,36.2c13.2,11.2,63.3,59,24.2,72.4
	c-37.5,12.1-86.5-16.1-114.2-38.7C1691,272.3,1647.4,227.8,1683.2,214.1z M800.3,866.3c-11.4-25.9,8-52.2,33.9-58
	c28.9-6.8,65.4,5.1,80.1,32.4c17,27.6-6.2,53.7-33.4,59.2C852.7,905.3,812.9,895.1,800.3,866.3z M774.4,1041.3
	c-28.7,3.6-70.6-5.3-81.2-36.4c-8.1-29,22.3-51.2,47.7-55.1c29.3-5.8,68.4,6.1,81.1,35.4C837.5,1017.5,799.7,1036.5,774.4,1041.3z
	 M139.8,501.1c9.3-8.2,25.8-11,25.3,6.2c-0.3,18.4-12.4,37.9-26.8,48.9c-9.2,8.8-26.5,10.3-24.9-6.6
	C114.7,531.7,126.7,512.7,139.8,501.1z M116.6,482.8c0.6-17.2,10.8-36,22.7-47.9c7.6-9,24.5-11.3,23.7,5.1
	c0.3,17.6-9.9,36.9-23.1,48.3C132.3,493.3,113.7,502.2,116.6,482.8z M137.7,569.3c10-7.8,28.2-10.7,27.1,7.5
	c-1.1,19.2-15.3,38.8-31.1,49.2c-9.9,8.2-29,10.1-26.5-7.8C109.5,599.6,123.3,580.6,137.7,569.3z M204.5,739.4
	c12.9-7.3,39-8.3,37.5,13.2c-1.6,22.9-24.1,41.7-43.6,50c-12.5,4.1-40.7,9.7-36.7-13.5C165.8,767.8,185.9,748.7,204.5,739.4z
	 M235.9,525.7c1,19.1-12.2,39.5-27.8,49.8c-10.8,8.8-29.9,9.4-29.7-8.4c0.2-18.5,13.4-38.4,27.4-49.4
	C215.6,510.2,236.4,507,235.9,525.7z M249.1,328.7c8.9-8.7,26.6-11.1,28.5,5.5c3.4,17.1-4.9,37.6-18,48.8c-9.7,10.2-26,9.5-28.4-6
	C228.6,360.2,237.5,340.3,249.1,328.7z M240.8,598.8c0.4,20.5-15.7,40.2-32.3,50.1c-11.9,5.3-32.9,11.3-31.9-9.9
	c1.5-19.5,16.1-39.1,31.8-49.8C219,582.2,241.9,579.2,240.8,598.8z M205,504.3c-9.9,9.3-27.3,9.8-27.7-7
	c-0.5-17.8,10.8-37.4,23.6-48.8c9-7.8,28.1-11.2,28.1,6.6C230.4,473.3,219.3,493.5,205,504.3z M199.8,435.6
	c-9.1,9.7-25,10.1-25.8-5.7c-1.1-17,8.6-36.4,20.3-48.1c9.2-9,24.3-10.9,26.1,5.3C222.2,404.5,212.9,424.4,199.8,435.6z
	 M192.8,369.3c-7.4,8.8-24.2,11.6-24.1-4.5c-1.5-16.4,6.7-35.3,17.4-47.3c7.4-9.7,23.2-11.2,24.3,4.2
	C212.6,338.2,204.7,357.8,192.8,369.3z M205.5,724.7c-12.2,6.5-36.6,9.2-34.3-11.6c2.6-20.4,19.8-39.8,36.9-49.9
	c12.2-8,35.4-8.9,34.9,11.3C242.6,696.1,223.6,715.5,205.5,724.7z M241.1,445.2c-2.3-17.5,8.2-37.8,20.9-49.2
	c9.9-8.5,28.9-10.6,30.8,6.9c3.2,17.9-6.8,38.8-21.1,49.6C261,462.4,243.3,461.6,241.1,445.2z M273.8,466.1
	c10.9-8.2,31.5-10,33.2,8.5c3,18.9-9,40.1-24.6,50.3c-11.7,9.5-30.9,8.6-33-8.9C247.6,497.6,259.9,477,273.8,466.1z M298.3,678.1
	c-12.3,6.5-39.5,8.8-38.4-12.6c-0.1-20.5,16.1-40.8,33-50.7c13.6-8.9,36.5-7.6,38.8,12.1C334.1,648.5,316.3,668.9,298.3,678.1z
	 M341.3,707.6c1.7,23-19.5,43-38.9,51.3c-12.8,4-43.7,9.1-41.4-14.8c0.9-21.6,20.1-41.7,38.4-50.8C314,685,339.4,686.3,341.3,707.6z
	 M320.6,464.8c-3.9-18.1,7.4-39.4,21.3-50.3c12.2-10.5,31.8-8,36.3,8.9c4.9,18.5-5.7,40.6-21.4,50.9
	C343.7,483.5,324.4,482.8,320.6,464.8z M338.4,400.7c-11.4,10.5-29.5,8.4-33.4-7.7c-4-17.3,5.5-38.2,18.2-49.5
	c10.8-9.1,29.9-9.9,33.5,7.2C361.5,368.3,352.8,389.9,338.4,400.7z M284.3,539c12.4-9.4,33.3-8.3,35.9,10.2
	c2.8,20.4-12,40.9-28.7,50.9c-13,8.1-34.2,8.8-35.5-10.7C255,569.9,268.7,549.5,284.3,539z M258.1,825c2-22.9,24.7-42.3,44.6-50.5
	c16-6.7,44.2-6.6,45.4,16.8c1,24.7-24.4,43.7-45.3,50.9C288.3,847.3,256.1,849.3,258.1,825z M335.3,539.7
	c-3.1-19.3,9.3-40.5,24.9-51.1c13.5-10.2,34.7-7.2,39.3,10.9c5.1,20.1-8.2,41.5-25.1,51.6C361.5,559.1,337.4,559.6,335.3,539.7z
	 M391.7,413.7c-5.7-17.8,4.2-39.8,18.3-50.8c13.1-11.2,33.2-7.1,39.3,9.4c6.9,18.6-2.4,40.5-18.2,51.4
	C418.2,432.8,396.1,432,391.7,413.7z M436.1,438.3c14.6-10.9,36.3-6.1,42.8,11.5c7.1,19.7-4.2,42.1-21.5,52.3
	c-14.3,8.7-38.4,7.5-42.8-12.1C409.5,471,420.3,449,436.1,438.3z M462.5,517.6c16.7-9.7,39.5-5.8,46.6,13.9
	c7.4,21.1-6.5,43.7-25.2,53.2c-16.5,8.4-41,6.3-46.6-14.6C432.1,549.9,445.3,527.6,462.5,517.6z M597.7,483.8
	c9.5,20.6-1.7,44.3-21.1,54.2c-18,9.1-42.8,5-50.7-15.6c-7.3-19.9,3.6-43.1,21.3-53.4C565.2,458.7,588.7,464.6,597.7,483.8z
	 M588,337.7c17.1-11.4,39.7-4.7,49.7,12.8c10.5,18.6,4.3,42.9-14.2,53.8c-17.4,10.3-40.9,5.1-50.1-13.6
	C564.6,372.5,571.3,348.9,588,337.7z M430.1,892.7c-18.4,5-53.4,4.2-54.5-22c-0.6-24.7,25-44.5,46.2-51.6c19.7-6.6,50.5-3.6,55,21.4
	C481,867.4,452.4,886.8,430.1,892.7z M491.8,935.4c2.8,29.1-30.6,46.2-54.6,51.1c-20.1,4.4-58.2,2-59.4-25.6
	c0.8-27.5,31.5-43.3,53.9-50.6C453.4,905,487,908.4,491.8,935.4z M459.4,653.9c-5-21.6,10.9-43.9,29.5-53.1
	c18.4-9.1,43.4-4.5,50.8,16.6c7.7,22.7-9.3,45.3-29.5,53.8C492.1,679,465,676.4,459.4,653.9z M540.4,453.3
	c-16.3,9.7-39,6.2-46.4-12.9c-7.1-18.7,1.9-41.5,18-52.4c15.6-11.5,38.1-5,46.2,12.2C567.2,419.4,558.2,442.7,540.4,453.3z
	 M459.4,749.7c4.7,24.7-18.9,45.3-40,52.5c-17.3,4.4-48,6.8-50.1-18.8c-1.6-23.2,19.8-43.8,39.6-52
	C427.1,723.8,454.7,726.5,459.4,749.7z M438.1,1004.8c23.1-4,61.5-0.1,65.7,29.2c4,31.9-40.9,45.3-64,49.4
	c-20.9,1.5-65.1,1.2-64.8-29.6C378.8,1024.6,413.4,1010.7,438.1,1004.8z M480.6,741.7c-5-23.1,14.4-45.2,34.5-53.5
	c20.3-8.3,47.8-3.1,55.5,19.8c8,24.5-12.9,46.8-34.6,54.2C516.4,769.1,486.2,766,480.6,741.7z M558.6,608.9
	c-7.6-21.2,5.9-44.8,25.1-54.3c20-9.7,45.6-3,55.3,17.8c10.1,22.1-3.7,46.2-24.9,55.1C594.2,635.9,566.9,631.1,558.6,608.9z
	 M614.6,474.7c-9.3-19.3-0.9-43.6,17.4-54.3c19.2-10.9,43.6-3.2,54.4,15.7c11.3,19.9,3.3,44.9-17,55.1
	C650,500.9,624.5,494.9,614.6,474.7z M1375.6,573.1c-14.6-17.2-35.7-57.3-0.2-66.9c35.3-10.4,77,12.8,101.4,36.8
	c16.9,18.5,40.9,58.4,2.4,69C1443.4,621.1,1399.4,598.8,1375.6,573.1z M1472.5,784.4c-38.8,7.2-83.9-16-108.9-44.4
	c-15.6-20.2-30.5-60.2,7.2-67.7c37.8-9.2,81.7,15.6,106.8,42.2C1495.9,736.3,1513.8,776,1472.5,784.4z M1348,647.1
	c-33.9,8.7-75.7-11.2-97.5-36.8c-14.4-19-27.8-56,5.6-65c32.8-11.3,73.8,11.7,95.6,34.9C1368.8,600.6,1384.6,637,1348,647.1z
	 M1216.9,682.2c-32,8.2-71.7-8.9-91.3-34.7c-15.4-20-18.8-54.7,11.4-63.1c31.3-10.8,69.8,9.7,89.8,32.9
	C1243.1,639.5,1251.4,672.7,1216.9,682.2z M1119,562.5c-28.8,10.3-64-6.4-82.2-28.8c-15.2-19.2-17.2-50.5,9.2-60.9
	c28.2-10.4,62.7,5.2,80.9,27.3C1144.5,519.4,1147.8,552.3,1119,562.5z M1002.4,602.4c-27.2,9.8-60.6-4.5-76.8-27.1
	c-14.1-20.4-10.5-49.6,14.3-59.5c26.5-10,59.5,3.5,75.8,25.8C1032.6,562.3,1029.3,592.9,1002.4,602.4z M1017.8,623.6
	c29.9-9,65.8,6.5,84,31c18.5,22.5,13.9,54.4-16,62.7c-30,7.8-68-6.7-85.2-32.6C986.2,663.3,989.8,631.5,1017.8,623.6z M1102.5,740.3
	c33.5-9,73.2,11.2,93.5,37.3c20.6,25,14.1,57.7-19.2,64.6c-33.7,6.4-75.6-10.4-94.8-39C1066.2,779.8,1071.6,746.7,1102.5,740.3z
	 M1195,867.2c38-6.7,81.2,15,104.3,44.7c19.3,28.8,16.8,61.2-23,66.5c-38.3,4.6-83.7-14.9-105.8-46.7
	C1153,905.7,1160.7,872,1195,867.2z M1222.7,771.6c-14.9-22.2-21.1-58.3,13.9-65.3c35.4-9.5,77.6,13.7,100.1,39.7
	c18.2,24.1,26.5,59.4-12.1,67.3C1288.5,820,1244.8,800.2,1222.7,771.6z M1346.4,839.7c40.5-7.1,86.3,18.1,112,47.8
	c19.1,24.8,29.6,66.3-14.8,69.9c-41.1,4.9-88.7-18.3-114-50.1C1312.9,883.1,1307.2,844.9,1346.4,839.7z M1497.7,812.2
	c42.8-7.4,91.5,21.1,119.7,50.9c18.6,21.6,41.5,69.8-6.5,73.3c-43.7,5.2-94.1-21.6-122.3-53.5
	C1470.8,860.2,1455.9,819.1,1497.7,812.2z M1504.4,708.4c-15.4-18-39.7-62.4,0.5-70.2c39.6-9.6,86.4,18,113.5,44.6
	c16.3,17.5,47.2,66.5,2,72.7C1579.6,763.1,1531.7,736.9,1504.4,708.4z M1610.3,577c-37.9,9.6-83.5-15.6-109.7-41
	c-14.2-15.3-43.4-59-6-68.8c37.8-11,80,15.3,107.2,38.7C1618,522.1,1650.8,566.1,1610.3,577z M1468.8,442.6
	c-33,10.7-75.3-10.9-98.2-33.7c-13.7-15.1-38.8-54.3-6-65.4c32.6-11.8,72.8,10.3,96.1,31.7C1476.4,391.3,1504.1,430,1468.8,442.6z
	 M1349.4,416.8c15.7,17.6,36.7,53.8,2.8,65.8c-31.6,10.3-71.7-9.1-92.9-32.1c-13.8-16.5-32.2-53.2-0.9-63.9
	C1289.7,375.1,1327.6,395.2,1349.4,416.8z M1235.6,522.5c-30,9.9-68.1-7.3-87.5-30.4c-14.8-17.4-24.6-52.3,4.1-62.4
	c29.6-10.9,66,6.8,85.9,28.8C1253.7,477.5,1268,511.1,1235.6,522.5z M1133.5,408.8c-26.8,11.7-61-5-78.9-25.1
	c-14.8-16.9-22-48,2.9-60c26.1-11.7,59.6,3.7,77.4,23.6C1151.7,364.2,1160.6,396.9,1133.5,408.8z M1029.6,452.5
	c-25.5,11.2-57.9-3.5-74.2-23.8c-14.2-18-16.2-47.5,7.3-58.9c24.9-11.3,56.7,2.3,73,22.4C1051.3,410.4,1056.2,441.7,1029.6,452.5z
	 M925.8,496.3c-24.2,10.7-54.9-1.9-69.5-22.5c-13.1-19-10.5-46.9,11.8-57.7c23.6-10.8,53.8,0.9,68.6,21.3
	C951.4,456.6,950.8,486,925.8,496.3z M885.8,642.4c-25.5,9.3-57.5-2.6-71.5-25.5c-12.6-21.4-3.9-48.6,19.3-58
	c25-9.5,56.4,1.8,70.7,24.3C919.3,605.2,911.9,633.8,885.8,642.4z M855,397.9c-21.9,10.7-49.6,1-63-18.5
	c-12.2-17.9-10.5-44.4,9.6-56c21.4-12,48.4-0.8,62.2,17.4C877.5,358.9,877.4,386.7,855,397.9z M837.4,482.4
	c13.7,20.4,8.1,47.9-15.5,57.7c-23.1,9.5-52,0.4-64.8-21.2c-11.7-19.9-4.9-46.2,16.2-56.6C796,451.4,823.8,462.2,837.4,482.4z
	 M762.2,444.6c-20.7,10.2-47.2,2.3-58.9-17.5c-10.9-18.7-5.6-44.1,13.5-55.1c20.3-11.5,45.9-2,58.3,16.5
	C787.8,407.5,783.5,433.9,762.2,444.6z M706.4,355.4c-18.5,10.8-42.9,4-53.7-14.4c-10.3-17.6-6.2-42.1,11.1-53.7
	c18.1-11.9,41.8-3.6,53.1,13.5C728.9,318.7,725.7,344,706.4,355.4z M678.5,508.4c21.4-10.3,48-1.5,59.7,19
	c12.1,21.3,2.1,47.1-20.2,56.4c-21.5,9-49.5,2-60.1-19.9C648,543.2,658.4,518.3,678.5,508.4z M727.5,602.1
	c23.3-9,53.5,0.1,65.7,22.8c13.2,23.1,0.4,49.4-23.9,57.5c-23.7,8.7-54.5-0.7-66.1-23.8C692.6,636.3,705.7,610.9,727.5,602.1z
	 M779.4,701.8c25.9-8,59.1,2.4,72.4,27.2c15.3,25-2.9,51.4-28.3,58.5c-26.4,7.6-60.2-2.9-72.9-28.3
	C739.3,735.1,755.7,709.5,779.4,701.8z M875.6,721.9c-13.7-23.1-2.4-51.1,23-59.2c28-8.5,62.3,4.4,78.2,29.1
	c17.3,23.9,5.4,52.9-22.1,60.6C926.1,760.5,891.1,747.1,875.6,721.9z M968.3,774.3c31.3-8.5,69,8.6,86.8,34.8
	c19.2,26.3,3.8,55.8-26.3,61.9c-31,5.9-71.6-7.6-87.7-36.3C927.1,809.9,940.1,780.3,968.3,774.3z M1043.6,894.7
	c35.2-6.9,76.8,12.4,96.6,41.6c21.6,29.6,1.6,58.6-31.2,63c-34.6,4.2-79.8-11.4-97.6-43.3C995.9,928.7,1013.1,899.1,1043.6,894.7z
	 M1125,1025c39.7-4.3,85.4,16.5,107.9,49.6c22.7,32.9,0.1,63-36.9,63.9c-39.2,2.1-88.4-16.2-109.1-51.5
	C1069.7,1056.2,1092,1027.6,1125,1025z M1213.4,1166.4c44.5-1.9,95.7,22.1,121,59.2c27.2,39.5-5.4,62.8-43.7,64.5
	c-43.9-0.5-99.3-21.7-122.4-61.4C1145.5,1192.3,1181.4,1169.7,1213.4,1166.4z M1267.3,1071.6c-19.6-28.9-8.4-63.2,29.1-65.9
	c42.8-4.6,90.9,20.3,116.9,53.5c21.1,30.9,17.4,67.4-27.4,68.3C1343,1129.8,1292.1,1107.2,1267.3,1071.6z M1408.1,1157.6
	c48.6-2,101.9,26.5,131.5,64.2c26.4,37.9,14.8,67.7-32.5,70c-48.6,0-105.3-27-133.6-66.9C1347.4,1190,1370.4,1161.7,1408.1,1157.6z
	 M1447.6,1056.3c-19.4-27.6-23-65.7,20.1-69.9c45.8-4.9,96.7,24,125.9,57.5c21.7,27.6,31.6,71.7-17.8,72.6
	C1529.2,1119,1476.4,1092.3,1447.6,1056.3z M1602.7,1148.8c51.9-1.8,108.9,30.6,142,69.2c11,13.8,27.2,34.2,21.2,53.5
	c-5.6,17.9-25.7,22.3-42.3,21.9c-52.6,0-112.1-32-144.9-72.4C1556.6,1190.2,1554.9,1150.3,1602.7,1148.8z M1627.9,1041
	c-19.6-24.6-36.1-69.4,11.1-73.8c48.8-5.2,102.6,27.5,134.8,61.4c20.9,24,45.7,76.2-8.2,76.9C1716,1108.8,1660.1,1076.9,1627.9,1041
	z M1647.8,858.4c-17.6-20.1-43.5-66.6,1.3-73.8c45-7.8,97,24.1,127.5,54c17.9,19,52.5,73,1.7,76.7
	C1732,920.8,1678.7,890.5,1647.8,858.4z M1768.3,726.7c-42.9,7.8-93.6-21.2-123.1-49.8c-15.9-16.9-47.8-63-6.2-72.6
	c41.4-10,91.4,20.6,120.2,47.1C1774.2,666.3,1815.8,720.5,1768.3,726.7z M1625.6,498.7c-15.2-15.2-49.4-58.2-11.8-70.7
	c37.9-11.8,85.8,17,113,40.6c15.2,14.3,56.8,62.1,14.7,73.3C1701.9,551.8,1653.6,524.2,1625.6,498.7z M1571.9,333.6
	c15.3,14.6,50.1,56.1,13.5,69.1c-34.4,11.2-79.1-12.6-103.5-35.4c-14.9-14.9-44-53.1-11.1-66.9
	C1504.2,286.5,1547.4,313.8,1571.9,333.6z M1445.2,277.5c-30.4,12.1-71.1-8.5-92.9-28.9c-14.6-14.9-39.1-48.8-10.4-63.5
	c30.7-13.3,67.5,8.5,90.8,27C1447.6,226.4,1477.4,263.3,1445.2,277.5z M1333.4,257.2c15,15.6,39,50.5,7.9,64.1
	c-29.2,12.6-67.6-7.9-88.2-27.6c-15.5-15.4-33-48.5-6-62.3C1275.7,218.8,1312.9,237.5,1333.4,257.2z M1234.2,302.2
	c16.8,15.8,31.8,50.3,3.2,62.8c-28,12.2-64.2-6.5-83.5-26.3c-15.3-16.5-27.3-48-1.5-61.2C1179.8,265.4,1215,282.5,1234.2,302.2z
	 M1133.3,257.8c-24.8,12.8-58-3.4-75.4-21.4c-14.4-15.2-25.3-45.5-2.1-58.6c24.1-12.8,56.6,2.1,73.9,20.1
	C1143.4,213.6,1160.4,244.5,1133.3,257.8z M1040.5,304.5c-23.7,12.4-55.2-2.2-71.2-20.5c-14-16.1-20.3-45.1,1.8-57.8
	c23.4-12.9,53.6,1.4,70,19.2C1056.1,261.5,1065.3,292.3,1040.5,304.5z M947.7,351.2c-23.1,11.2-52.2-0.2-67.1-19.5
	c-13.3-17-15.4-44.8,5.7-56.9c22.4-12.4,50.9,0.3,66.1,18.3C966.9,310.2,971.4,339.5,947.7,351.2z M872.4,257.5
	c-20.5,11.8-47.3,1.8-60.9-15.8c-12.5-16.1-14.6-42.4,4.2-55c19.9-12.8,46.2-1.7,60,14.8C889.4,217.7,893.5,245.2,872.4,257.5z
	 M789.4,306.5c-19.5,11.3-45,2.9-57.3-15.1c-11.5-16.9-10.3-42.3,7.7-54.3c19-12.4,44-2.6,56.6,14.1
	C809.3,268.2,809.5,294.6,789.4,306.5z M728.5,221.2c-17.4,11.7-40.9,4.5-52.2-12.2c-10.8-16.1-10.1-40.2,6-52.7
	c16.9-12.7,40-4.3,51.6,11.3C746,183.8,746.5,208.9,728.5,221.2z M654.2,271.8c-16.6,11.2-39,5.4-49-11.6
	c-9.7-16.7-6.5-40.2,9.1-52.2c15.5-12.8,38.5-4.4,48.5,10.8C673.9,235.7,671.5,260,654.2,271.8z M605.1,193.4
	c-14.2,11.1-36.3,6.9-44.8-9.3c-9.7-15.5-6.3-38.7,7.3-50.8c13.6-13,35.1-5.7,44.4,8.5C622.5,157.9,620.7,181.2,605.1,193.4z
	 M591.6,270c9.9,17.5,4.9,41-11.8,52.5c-15,10.3-38,6.6-45.8-11.1c-8.4-17.2-3-40,12.1-51.8C560.9,247.3,582.8,254.3,591.6,270z
	 M538.4,245.2c-13.4,10.6-34.8,7.7-42-8.9c-8.5-16-3.2-38.7,10-50.5c13-12.5,33.4-6.4,41.7,8.2C557.2,210.2,553.9,234,538.4,245.2z
	 M520.5,321.1c8.5,18.1,1.2,40.8-15,51.9c-14,9.7-36.4,7.5-42.6-10.5c-7.4-17.3,0.9-40.1,15.2-51.3
	C492,299.4,512.9,305.1,520.5,321.1z M471.8,297.1c-12.6,10-33.3,8.4-39.1-8.5c-7.1-16.5-0.2-38.6,12.7-50.1
	c12.3-12,31.8-7.2,38.9,7.9C492.1,263,486.8,286,471.8,297.1z M439.3,225c-11.5,11.7-29.5,7.7-36-6.7c-6.9-15.7-1.2-37.1,10.6-48.9
	c11.1-10.3,29.5-9.4,35.8,6.1C457.1,191.3,452.9,213.5,439.3,225z M420.5,298.5c6.4,17.2-0.7,39.5-15.4,50.4
	c-12.2,11-30.8,7.6-36.3-8.1c-5.6-16.9,2.7-38.4,15.5-49.8C395.9,281.3,415.2,281.7,420.5,298.5z M379.4,277.6
	c-10.9,11.2-28.2,8.3-33.5-6.5c-5.6-16.1,1.4-37.1,13-48.7c10.4-9.8,28.4-10,33.4,5.9C398.6,244.7,392.8,266.3,379.4,277.6z
	 M354.2,209.8c-9.7,11.3-25.9,9-30.9-5c-5.5-15.5,0.3-35.8,10.9-47.7c9.2-9.8,26.1-10.7,30.8,4.5C371,177.2,366.3,198.2,354.2,209.8
	z M335,281.3c4.9,16.7-2.3,37.8-15.5,49c-10.3,10.7-27,8.9-30.9-6.2c-4.1-16.5,3.8-36.9,15.5-48.5C313.7,266.3,331.5,265,335,281.3z
	 M300.4,263c-9.2,10.9-24.8,9.5-28.6-4.8c-4.2-15.8,2.5-35.7,13.1-47.6c8.6-9.3,25.2-11.2,28.7,4.4
	C318.3,230.9,312.4,251.4,300.4,263z M281.1,198.5c-7.8,10-23.5,11.1-26.6-3.6c-4.3-15.2,1.4-34.5,11-46.5
	c7.6-10.7,22.7-10.8,26.5,3.2C296.9,166.9,292,186.8,281.1,198.5z M261.9,268.3c3.6,16.3-3.4,36.3-15.3,47.9
	c-8.7,10.4-23.8,10-26.4-4.7c-2.9-16.1,4.6-35.5,15.2-47.4C243.5,253.8,259.3,253.3,261.9,268.3z M232.7,252
	c-7.2,9.5-22.9,11.5-24.5-3.6c-2.2-15.6,2.7-34.3,12.9-46.5c7.1-10.2,22-11.2,24.6,3.2C249.4,220.8,243.6,240.2,232.7,252z
	 M218.4,190.4c-6.3,9.5-21.1,11.9-22.8-2.6c-2.4-15,1.6-33.2,10.9-45.5c6.1-10.1,20.3-11.6,22.8,2.1
	C233.5,159.8,227.5,178.2,218.4,190.4z M199.4,258.6c2.5,16-4.1,35-15,46.9c-6.6,9-22.3,11.9-22.5-3.5c-1-15.8,4.6-34.2,14.9-46.5
	C183.3,245.8,198.2,244,199.4,258.6z M174.9,244c-5.8,9-20.6,12.2-21-2.6c-1.4-15.3,3.4-33.1,12.6-45.5c5.7-9.6,19.8-11.9,21.1,2.2
	C190.8,213.7,184.1,231.7,174.9,244z M158.9,375c0.8,16.9-7.9,35.9-19.9,47.6c-6.8,8.2-23.8,12-21.8-4.4
	c-0.1-16.6,8.7-35.1,19.6-47.2C143.5,361.8,159.3,359.3,158.9,375z M136,359c-6.1,8.4-21.9,12.2-20.4-3.5c0.2-16,6.5-34,16.8-46.4
	c6-9.2,20.9-11.8,20.7,3.1C154.3,328.4,147,347.1,136,359z M131.4,297.5c-5.4,8.5-20.2,12.4-19.1-2.6c-0.3-15.5,5-33.1,14.4-45.6
	c5.2-9.1,19.3-12.2,19.3,2.2C148,267.5,140.8,285.2,131.4,297.5z M125.4,238.3c-8.7,11.9-16.7,11.1-17.9-1.8
	c-0.7-15,3.8-32.1,12.2-44.7c8-11.9,16.2-11.3,18.1,1.4C140,208.5,133.9,225.8,125.4,238.3z M78.7,553.6c7.4-4.8,26.7-13.7,22.6,5.9
	C99.1,578,86.2,596.8,71.6,608c-8.7,8.3-25.7,10.6-22-6.2C52.8,583.8,65.3,565.4,78.7,553.6z M97.2,688.7
	c3.9-19.3,19.3-38.3,35.3-49.1c9.3-6.3,32.9-10.8,29,8.9c-2,20.4-19.1,39.3-35.9,49.4C115.1,702.7,93.1,709.7,97.2,688.7z
	 M123.4,711.8c9.6-4.2,36.4-11.2,31,10.4c-3.3,21.4-23.3,39.9-41.6,49.2c-10.6,4.1-35.8,11.3-30.1-10.7
	C88,740.7,105.9,722.1,123.4,711.8z M146.9,866.6c5.9-22.4,29.3-40.5,49.7-49c13.6-5.8,43.1-8.1,40.4,15.3
	c-2.9,24.3-29.5,41.9-50.6,49.2C174.3,886.4,140.3,890.5,146.9,866.6z M183.3,897.4c13.7-3.5,48.1-8.1,43.4,17.6
	c-5.1,26.6-36.2,40.5-58.9,47.9c-11.3,2.3-51.8,7.9-42.2-17.8C133.9,921.8,161,904.9,183.3,897.4z M272.4,1104.3
	c-16.1,1.3-64.2,2.9-56.6-26.2c10.3-27.3,45-39.8,70.8-45.8c19-3.4,59.9-2.5,57.9,26.1C339.8,1089.1,297.8,1100.1,272.4,1104.3z
	 M289.3,1015.4c-15.2,2.1-58.6,5.1-52.3-22.9c6.7-25.1,36.9-42.5,60.6-48.2c17.7-4.7,54.4-4.2,53.4,22.6
	C348.4,995.4,313.4,1010.5,289.3,1015.4z M298.9,927.8c-14.7,2.9-52.3,6.9-48.4-19.9c3.8-24.2,30.5-42.5,52-49.6
	c16.9-4.1,48.9-6.7,49.2,19.5C351.5,905.2,321,920.5,298.9,927.8z M348.6,617.8c-2.7-20.4,12.2-41.7,29.1-51.6
	c15-9.7,38-6.4,42.7,13c5,21.4-11.1,42.9-29.3,52.2C377.1,638.6,350.4,639,348.6,617.8z M394.1,647c16.7-8.4,41.5-6.1,46.4,15.5
	c4.8,23-14.6,44.2-34.2,52.5c-16.1,7-43.5,6.7-46.1-16.1C358,677.3,375.8,656.1,394.1,647z M365.5,1148.3
	c5.9-30.6,48.4-42.2,74.1-46.3c24.1-1.6,68.9,1.4,71.9,33.8c0.2,34.8-49.6,44-75.2,46.6C415.9,1182.8,362.2,1181,365.5,1148.3z
	 M500.6,833.5c-4.7-24.9,18.9-46.4,40.4-53.5c22.2-7.4,52.7-1.5,60.8,23.4c8.3,26.6-17.5,48.1-40.5,54.2
	C539.4,864.1,507,859.1,500.6,833.5z M591.9,700.1c-8-22.8,8.6-46.5,29.4-55c22.1-9,50.2-1.3,60.6,21.3
	c10.9,23.9-6.4,48.1-29.3,55.8C630.8,729.8,600.6,724.2,591.9,700.1z M660.1,740.9c23.8-7.5,56.2,0.3,66.6,25.3
	c11.7,26.1-9.9,50-34.4,56.3c-24,7-57.3-0.7-66.8-26.2C617.3,771.7,637.8,748.2,660.1,740.9z M700,842.3
	c26.3-6.2,62.1,2.5,73.4,29.9c13.8,28.4-15.6,51.4-40.4,56.5c-26.3,5.6-63.5-2.9-73.6-31C651.5,871.4,675.9,847.8,700,842.3z
	 M691.9,1120.5c10.5,35.7-41.8,48.4-65.6,50.9c-26,0.4-75.9-4.2-80.3-38.5c-1.6-32.5,40-46.1,65.1-50.2
	C639,1079.1,683.5,1088.4,691.9,1120.5z M629.5,1192.8c30.1-1.8,81.3,8.9,89.4,44.2c8.6,39.5-52.3,47.2-77.4,48
	c-27.2-1.2-85.8-7.8-88.6-44.9C553.1,1205.2,603.8,1195,629.5,1192.8z M643.8,1307c32,0.6,91.6,12.6,99.1,51.7
	c7.7,43-66.8,44.4-91.7,43.4c-26.8-2.7-98.1-12.4-98-52.2C556.1,1312.6,617.1,1307.4,643.8,1307z M726.2,1117.6
	c-8.4-33.5,30.1-49.7,56.1-54.1c32.3-4.1,76.2,9.3,89.9,41.7c17,36.2-30.1,52.3-56.1,55.2C785,1162.2,737.2,1152,726.2,1117.6z
	 M852.3,980.5c-12.3-28.5,12.4-54.1,40-58.2c32.4-6.4,72.3,9.2,88.9,38.5c19,31-10.4,55.7-39.4,59.6
	C909.3,1024.3,867.4,1011.9,852.3,980.5z M953.7,1044.2c36.3-4,80.4,12.7,98.9,45.7c22,35.9-16.8,56.1-46.5,59.6
	c-35.2,2-83.7-12.2-99.5-47.2C893.2,1070.4,924.5,1046.7,953.7,1044.2z M1018.8,1175.2c40.4-1.7,90,17.4,110.5,54.2
	c23.2,40.9-22.8,57.6-55,59c-38.5-0.4-94.1-17-111.2-55.9C945.4,1195.6,991.5,1177.9,1018.8,1175.2z M1146.5,1437.7
	c-42.8-3.1-106-22.6-124.6-66.2c-19.5-41.2,38.6-54.8,65.8-55.6c45.1,1,101,23,123.9,64.3
	C1237.6,1426.4,1179.5,1438.7,1146.5,1437.7z M1394.1,1455.5c-49.5-3.2-111.4-29-137.9-73.2c-25.6-40.9,19.7-60.9,53.4-61.9
	c49.9,1.4,108.1,28.3,136.3,70.7C1477.1,1436.1,1435,1456.7,1394.1,1455.5z M1694.6,1455.3c-9.9,18.5-34.8,18.4-52.8,18
	c-55-3.6-118.8-34.9-151.2-80.2c-29.4-39.3,0-66.8,41-68.3c54.8,1.6,115.3,33.8,148.7,77C1690.7,1416.5,1704.4,1437,1694.6,1455.3z
	 M1938.5,1471.1c-6.6,19.4-31.8,21.4-49,20c-59.6-4.5-127.3-40.3-164.4-87.2c-10.6-14.5-24.4-34.5-16.7-53.4
	c7.2-17.6,28.2-21.7,45.3-21.2c59.2,0.8,123.1,40.1,161.1,83.4C1926.7,1427.4,1945.6,1450.2,1938.5,1471.1z M1939.9,1295.1
	c-56.7-0.1-119.1-36.9-156.1-77.9c-22-27.2-39.5-75.7,13.5-77.2c55.4-1.9,115.9,35.2,152.5,74.2
	C1974.1,1241.5,2000.3,1296.6,1939.9,1295.1z M1955.7,1094.5c-52.8,3.4-112-32.4-147.4-68.8c-19.2-21.6-48.4-73.1,2.2-77.8
	c51.6-4.6,108.6,30.4,143.8,65.3C1974.5,1034.5,2012.7,1092.3,1955.7,1094.5z M1935.7,814.3c16.3,16.1,63.4,76.6,9.9,80.1
	c-49,5.7-105-27.8-138.7-60.4c-16.9-17.7-53.5-69.4-6.4-76.9C1847.8,749,1902.8,783.9,1935.7,814.3z M1900,619.7
	c16,14.9,64,69,16.2,78.1c-44.7,8.2-98.8-23.9-130.2-52.5c-15.1-14.9-56.3-65.2-12.8-75.1C1817.1,559.7,1868.4,593.6,1900,619.7z
	 M1872.6,506.8c-41,10.3-92.4-19.9-122-45.3c-14-13-57.1-60.7-17.6-72.6c40-12.4,89.1,19.4,118.8,42.5
	C1866.4,444.4,1915.8,495.4,1872.6,506.8z M1976.8,394.2c13.6,11.4,71.3,65.9,26.9,77.5c-43.3,10.8-96-22.4-128.1-47.4
	c-13.1-11.5-64.1-62.5-23.4-74.6C1893.5,337,1946.1,371.1,1976.8,394.2z M1789.3,171c37.5-14.2,87.5,17.2,116.3,37.7
	c12.9,10.4,69.3,60.5,29.5,74c-39.5,12.6-89.5-18.2-119.6-40.3C1803,231.9,1752.8,184.9,1789.3,171z M1626.3,46.5
	c33.6-14.4,77.7,12,104,30.5c12.8,10.3,61.7,54.2,26.6,69.2c-34.7,13.6-80.2-13.3-106.9-32.8C1636.6,102.1,1594.7,62.5,1626.3,46.5z
	 M1531.5,92.7c32.7-13.9,74.3,10.9,99.6,29.3c13.9,11.9,56,53,21.9,67.9c-33.7,13.2-76.6-12.1-102.3-31.5
	C1536.9,146.1,1500.7,108.3,1531.5,92.7z M1436.7,138.9c31.6-13.6,71,9.7,95.2,28.2c14.5,13.1,50.4,52.1,17.3,66.7
	c-31.5,12.4-74.5-9.8-97.6-30.2C1437.1,189.7,1407,154,1436.7,138.9z M1310.1,32.1c27-13.9,65,5.2,85.6,22.7
	c14.6,13.3,44.6,47.2,15.9,63c-28.8,12.7-65.8-6-87.7-24.4C1309.8,79.7,1284,47.8,1310.1,32.1z M1225.3,80.6
	c27.1-14.2,60.7,5.3,81.7,21.8c14.7,14.4,39.7,46.7,11.8,62c-27.8,12.4-62.9-4.9-83.6-23.4C1220.3,127.1,1200.7,95.5,1225.3,80.6z
	 M1140.6,129.2c25-13.2,59.3,3.1,77.8,20.9c16.3,14.4,33.5,46.8,7.7,61c-25.7,13.2-60.9-4.6-79.5-22.4
	C1133.3,173.6,1115.4,143.4,1140.6,129.2z M1043.4,35.7c23.2-14.7,52.2,1.9,70.4,16.8c14.6,13.5,31.5,44.5,7.5,58.3
	c-23.3,13-54.6-1.1-71.8-18.1C1035.5,78.9,1022.1,49.8,1043.4,35.7z M967.5,86c21.5-13.7,50.9,0.1,66.9,16.1
	c14.5,14.4,26.9,44.2,3.9,57.5c-22.4,12.6-52.1-0.1-68.2-17.3C956.5,127.8,947,99.6,967.5,86z M891.6,136.4
	c20.7-13.3,48.5-0.8,63.5,15.5c14.2,15.3,22.3,44,0.3,56.8c-21.5,12.2-49.7,0.8-64.5-16.6C877.7,176.7,872,149.5,891.6,136.4z
	 M818.5,53.1c18.3-13.5,44.1-2.7,57.7,12.2c13.5,14.6,20.5,41.4,1,54.6c-19.1,12.5-45.1,2.7-58.6-13.2
	C806.1,92.1,801.1,66.5,818.5,53.1z M805,116.5c12.9,15.4,16.5,41.3-2.2,54.1c-18.3,12.1-43,3.6-55.4-12.7
	c-11.8-15.4-13.8-40.3,3-53.2C768,91.7,792.4,101.3,805,116.5z M689.8,28.3c14.9-13.8,38.7-4.4,49.8,9.2
	c12.2,14.7,15.5,39.2-1.1,52.3c-15.7,12-39.6,5.5-50.5-10C676.8,65,674.9,41.4,689.8,28.3z M675.8,89.7c11.4,15.4,12.1,39.3-4,51.9
	c-15,11.5-37.9,6.2-47.7-9.6c-10.3-15.3-9.9-38.4,4.6-51.1C643,67.5,665.6,75.8,675.8,89.7z M578.6,10c12.5-13.4,33.6-6.3,43.1,6.7
	c10.4,14.2,11.9,38.1-2.8,50.3c-13.3,11.7-34.6,7.4-43.6-7.5C565,45.3,566.1,22.5,578.6,10z M523.7,63.1c12-13,32-6.9,40.7,6.5
	c9.6,14.8,9,38.1-5.3,50c-12.6,11.2-33.1,8-41.1-7.2C508.7,97.7,511.4,75.3,523.7,63.1z M507,122.5c8.6,15.3,6.1,38.1-7.9,49.8
	c-12.2,12.1-30.9,7.1-38.6-7c-8.1-15.3-3.8-37.2,8.2-49.2C480.5,105.4,499.5,107.4,507,122.5z M432.8,50.2
	c10.4-10.8,28.2-9.7,35.2,4.7c8.2,14.7,6.3,36.5-6.3,48.4c-10.7,12.2-28.3,8-35.5-5.3C418.5,83.5,422.1,62.4,432.8,50.2z
	 M416.5,108.3c7.2,15.2,3.8,36.6-8.5,48.3c-10.2,11.8-27.1,8.4-33.2-5.1c-6.7-15.1-1.9-35.8,8.7-47.8
	C393.3,93.4,410.6,93.5,416.5,108.3z M354.3,41.3c8.7-10.2,24.8-10.9,30.4,3.2c6.9,14.5,4.3,35.2-6.9,47.1
	c-9,11.8-24.8,9.1-30.6-3.7C340.7,73.4,344.6,53.4,354.3,41.3z M338.4,98c5.9,14.9,2.1,35.2-8.9,47c-8.5,11.4-23.8,9.5-28.6-3.7
	c-5.4-14.8-0.6-34.5,9-46.5C318,83.7,333.4,84.4,338.4,98z M286.2,35.4c7.1-11,21.7-11,26.4,2.1c5.8,14.4,2.7,33.9-7.3,45.9
	c-7.4,10.4-22.4,11.2-26.5-2.5C274.5,66.3,277,47.6,286.2,35.4z M270.9,91c5.3,15,0,33.6-9.1,45.9c-6.8,9.9-21.7,11.6-24.6-2.5
	c-3.4-14.8-0.1-33.2,9.1-45.5C252.9,78.3,267.3,77.6,270.9,91z M227.3,31.9c5.7-10.3,19.3-11.8,22.8,1.1c5.2,14.4,0.8,32.5-7.5,44.8
	c-5.9,9.8-20,12-22.9-1.6C216.3,62,219,44.2,227.3,31.9z M212.7,86.4c4.3,14.7-0.8,32.6-9.1,44.9c-5.5,9.3-19.5,12.3-21.2-1.6
	c-2.6-14.5,0.7-32.1,9.1-44.5C196.8,75.3,210.2,73.2,212.7,86.4z M176.3,30.3c4.5-9.6,17.3-12.4,19.8,0.5
	c4.3,14.2-0.1,31.5-7.5,43.8c-4.7,9.1-18,12.7-19.7-0.8C166.1,59.7,168.8,42.6,176.3,30.3z M175.3,139.8c3.3,15-2.4,32.6-10.8,44.9
	c-5.1,8.9-19.1,12.5-19.6-1.7c-1.6-14.8,2.3-32.1,10.7-44.6C160.5,129.1,173.9,126.2,175.3,139.8z M162.4,83.9
	c3.4,14.5-1.5,31.6-9,43.9c-7.9,11.9-16,11.5-18.3-0.9c-1.9-14.3,1.3-31.2,8.9-43.6C151.3,71.4,159.6,71.7,162.4,83.9z M132.2,30.2
	c6.5-11.8,14.1-11.8,17.1-0.1c3.5,14-0.7,30.6-7.4,43c-7.1,11.8-14.6,11.7-17-0.2C122.8,58.9,125.4,42.6,132.2,30.2z M128.8,137
	c2.4,14.8-2.9,31.6-10.5,44.1c-7.9,11.9-15.3,11.4-16.8-1c-1-14.5,2.7-31.2,10.3-43.7C119.1,124.4,126.7,124.8,128.8,137z
	 M119.1,82.8c2.6,14.3-1.9,30.7-8.8,43.1c-7.1,11.8-14,11.6-15.7-0.4c-1.3-14.1,1.8-30.3,8.7-42.8C109.8,71,116.9,71,119.1,82.8z
	 M94.1,31.2c5.8-11.6,12.4-11.9,14.8-0.5c2.7,13.8-1.1,29.8-7.3,42.1C95.3,84.5,88.7,84.6,86.9,73C85.4,59.3,87.9,43.6,94.1,31.2z
	 M88.9,135.6c1.7,14.5-3.2,30.7-10.1,43.3c-7.1,11.8-13.4,11.6-14.3-0.6c-0.5-14.3,3-30.3,10-43C80.9,123.6,87.4,123.7,88.9,135.6z
	 M81.8,83c1.9,14.1-2.2,29.9-8.5,42.3C67,137,61,137,59.8,125.3c-0.8-13.9,2.1-29.5,8.3-42C74,71.7,80.1,71.5,81.8,83z M61.2,33.1
	c5.2-11.5,10.9-11.9,12.7-0.9c2.1,13.6-1.4,29-7,41.4c-5.7,11.6-11.3,11.9-12.6,0.5C53.2,60.6,55.6,45.5,61.2,33.1z M54.7,135.3
	c1.1,14.3-3.4,29.9-9.7,42.5c-6.3,11.7-11.7,11.6-12.2-0.2c0-14.1,3.2-29.5,9.5-42.2C48,123.8,53.6,123.7,54.7,135.3z M49.6,84
	c1.4,13.9-2.5,29.1-8.1,41.6c-5.7,11.6-10.8,11.8-11.5,0.3c-0.4-13.7,2.4-28.7,8-41.3C43.2,73.1,48.4,72.8,49.6,84z M32.9,35.6
	c4.6-11.4,9.6-11.9,10.9-1.1c1.6,13.5-1.7,28.3-6.7,40.7C32,86.7,27.2,87,26.3,76C25.5,62.3,28,48.3,32.9,35.6z M16.6,240.6
	c6.5-11.8,11.9-11.5,11.9,0.6c0,14.9-5.6,30.7-12.8,43.6C8.6,296.6,3.5,296.2,4,283.9C5.2,269.2,9.5,253.5,16.6,240.6z M5.6,230
	c0.7-14.3,4.3-29.6,10.7-42.4c5.8-11.6,10.9-11.6,11.2,0.1c0.3,14.5-4.5,29.9-10.9,42.7C10.3,242.1,5.5,241.9,5.6,230z M25.4,135.8
	c0.7,14.1-3.5,29.2-9.2,41.8c-5.7,11.6-10.3,11.7-10.4,0.1c0.3-13.9,3.4-28.8,9.1-41.5C20,124.7,24.8,124.5,25.4,135.8z M22.1,85.7
	c1,13.7-2.6,28.4-7.8,40.9c-5.1,11.5-9.4,11.7-9.8,0.6c-0.1-13.8,2.7-27.8,7.6-40.7C16.8,75.2,21.3,74.8,22.1,85.7z M8.6,38.5
	c4.1-11.3,8.4-11.8,9.4-1.2c0.9,13.5-1.7,27.4-6.4,40c-4.5,11.4-8.6,11.8-9.2,1C1.9,64.9,4.2,51.2,8.6,38.5z M12.9,340.9
	C5,352.8-0.4,352.2,0.6,339.5c1.7-15.1,6.8-31.1,14.6-44.2c7.2-11.8,12.9-11.3,12.6,1.1C27.4,311.8,20.9,328,12.9,340.9z
	 M22.9,462.6c2.7-16.3,10.2-33.6,20.7-46.4c5.1-8.3,20.2-12.1,16.8,3c-1.3,16.6-9.9,34.4-21.1,46.7C34.1,473.6,18,478.1,22.9,462.6z
	 M14.1,524.8c2.9-16.9,12.6-34.4,23.9-47c5.7-8.1,21.9-11.9,17.8,3.8c-2.1,17.2-12.1,35.2-24.4,47.3C25.7,536.3,8.1,541,14.1,524.8z
	 M20.1,593.6c-6.1,6.9-25.3,11.9-18.2-5c3.9-17.4,15.1-35.1,27.6-47.5c6.2-7.8,23.9-11.8,18.8,4.7C45.3,563.6,33.7,581.8,20.1,593.6
	z M36,669.4c4.4-18.6,18.8-36.9,33.6-48.4c9-7.1,27.7-11.2,24,7c-3.3,19.2-18.3,38.1-34.3,48.7C50.2,684.3,31.1,687.2,36,669.4z
	 M42.5,746.8c-9.2,4.3-31.8,12-24.7-8.4c6.3-19.1,22.3-37.3,38.7-48.5c9.5-6.5,30.4-10.9,25.5,8.2C77.5,718.4,59.7,736.5,42.5,746.8
	z M62.5,834.1c7.3-20.8,28.1-38.9,47.2-48.5c11.1-6.3,38.3-9.4,33.1,12c-5,22.4-28.4,40.2-48.3,48.7
	C84.2,849.8,54.3,856.6,62.5,834.1z M69.7,922.1c-9.8,2.6-45.1,9.4-34.1-13.9c9.7-21.6,33.5-38.7,54.8-47.5
	c11-3.5,42.9-10,35.3,13.8C118.7,898.1,91.5,914.5,69.7,922.1z M96.2,1024.1c11.9-23.6,42.5-39.7,67.3-45.7
	c13.4-2.5,53.9-6.8,46.7,20.2c-8.5,27.7-43.6,39.7-68.8,45.7C131.1,1045.7,83,1050.3,96.2,1024.1z M56.7,1102.5
	c15.5-24.2,51.6-38.1,78.6-42.7c13.4-1.7,60.6-4.7,50.2,23c-11.9,28.7-53.4,38.2-80.4,42.5C95,1126.1,39.4,1128.4,56.7,1102.5z
	 M56.5,1204.4c-8.9,0.2-73.5-0.5-51.6-25.5c20.9-24.1,61.8-34.9,92-38.4c13.6-1,67.4-2,53.9,26
	C135.3,1196.1,85.4,1201.9,56.5,1204.4z M224.4,1426.3c-26.7,34.4-105.2,23.3-140.8,19.1c-6.5-1-109.6-20.9-77-42.9
	c34.5-25.7,97.1-23,137.1-20.4C156,1383.4,246.1,1395.6,224.4,1426.3z M155.8,1366.4c-8.2-0.8-96.5-10.8-71.4-38.2
	c25.4-27.8,81.1-30.1,115.5-30.2c15,0.7,89.1,6.7,74.3,39C256.8,1372,186.8,1368,155.8,1366.4z M493.4,1455.7
	c-10.5,41.3-96.8,31.2-125,28c-13.6-2.1-112.2-17.7-92.8-51.8c21.9-33.1,89.3-30.5,122.4-28.5
	C421.6,1405.9,499.3,1416.5,493.4,1455.7z M508.5,1347.8c-4.2,39.6-78.7,37.7-105,36.4c-18.4-1.8-96.5-10.1-84.7-45.2
	c14.8-33.1,73.2-36.2,103.1-36.6C445.9,1303.7,511.2,1310.6,508.5,1347.8z M425,1283.2c-19.3-0.8-84.5-5.1-77.4-39.4
	c9.7-32,59.9-40,87.2-42.3c23.9-0.2,78.8,4.3,78.9,39.2C512.7,1277.9,450.4,1282.5,425,1283.2z M518.6,929.4
	c-4.4-28.1,24.9-45.6,47.3-53.1c23.4-5.7,59.3,0.1,66.7,27.5c9.7,28.8-24.4,49.1-47.5,53.8C561.5,962.8,524.9,957.2,518.6,929.4z
	 M534.1,1029.3c-3.1-30.1,31.5-46.2,55.4-52c25.3-4.3,65.9,2.3,73.4,32.3c10.3,32.4-32.2,48.4-55.8,52.8
	C582.4,1065.9,539.3,1059.8,534.1,1029.3z M653.2,1522c-26.3-4.1-112.4-18.6-108.6-60.7c5.7-39.3,81-38,107.6-36.6
	c33.4,3.7,103.8,17.1,110.1,60.4C768.5,1531.8,676.9,1524.6,653.2,1522z M758,1236.2c-8.1-36.7,39.5-49.6,66.1-52.3
	c35.7-1.6,85,12.9,99.9,49.2c16.8,40.8-38.6,52.5-66.2,53.5C824.9,1286.3,768.1,1274.2,758,1236.2z M787.5,1360.7
	c-7.7-40.2,51.8-48.6,78.2-49.2c38.9,0.8,95.6,17.7,111.5,58c18,45.4-51.1,51.4-78.4,50.4C864,1417.3,797.3,1402.5,787.5,1360.7z"/>
</svg>
