<?xml version="1.0" encoding="utf-8"?>
<!-- Generator: Adobe Illustrator 19.2.1, SVG Export Plug-In . SVG Version: 6.00 Build 0)  -->
<svg version="1.1" id="dots" xmlns="http://www.w3.org/2000/svg" xmlns:xlink="http://www.w3.org/1999/xlink" x="0px" y="0px"
	 viewBox="0 0 2048 1536" style="enable-background:new 0 0 2048 1536;" xml:space="preserve">
<style type="text/css">
	.st0{fill:#2957A6;}
	.st1{fill:#2860AD;}
</style>
<rect id="blue" class="st0" width="2048" height="1536"/>
<path id="cut" class="st1" d="M91.6,26.2c-15,14-64.7,55-91.6,41.5v135.2c3.6,2.5,6.7,6.1,9.2,11.1c9.2,20.3,2.9,44.2-9.2,66.6v56.2
	c25.9-16.4,56.7-27.8,69.5-1.5c19,42.4-27.7,99.9-55.9,126.4c-3.2,2.9-7.9,6.9-13.6,11.5V512c9.1-11,18.3-20.5,25.5-27.5
	c18-16.2,83.7-70,104.3-27.8c18.8,41.7-25.6,97.9-53.6,124.2C63.3,592.5,28.1,621,0,625v249.4c23.6-11.7,48.5-16.5,60.7,4.9
	c22.5,40.4-29.2,96.6-55.3,120.9c-1.5,1.3-3.4,2.8-5.4,4.4v35.5c6.9-7.3,13.4-13.6,18.6-18.4c20-16.8,85.6-66.9,108.5-26.8
	c21.9,39.2-26.1,94.9-52.6,118.3c-13.6,11.3-46.3,35.6-74.5,40.9v145.7c0.6,4,0.6,8.1,0,12.2v76.9c25.5-11.6,53.1-16.8,67.5,4.3
	c24.8,37.6-29,90.2-53.8,110.5c-3.7,2.7-8.4,5.9-13.7,9.3v23h14.1c5.4-5,10.4-9.1,14.3-12.3c22.9-16.7,87.5-58.8,112.6-21.8
	c7,10.6,7.8,22.3,4.9,34.1h102.5c9.8-24.8,32-48.7,46.6-62.3c22-17.8,75.3-53.3,97.6-16.3c13.6,24.3,1.7,54.6-15.4,78.6h108.6
	c-10.2-34.2,18.7-76.6,41.3-98.3c19-16.6,68.7-48.9,85.7-10.4c17.2,35.7-9.6,82.6-34.9,106.9c-0.7,0.6-1.4,1.2-2.1,1.8h46.6
	c14.7-6.4,30.4-8.9,41.5,0h47.2c-4.5-3-8.4-7.5-11.4-13.8c-16.6-34.9,7.4-80.9,31.7-105.9c20.5-18.9,59.4-40.8,75.9-4.6
	c15.5,34.3-5.8,80.4-29.7,105.2c-6.8,7.4-16.8,14.6-27.6,19.2h43.7c20.8-16.9,52.8-30.5,68,0H966c18.6-20.6,50.1-27.9,63.7,0h38.9
	c-7.3-2.9-13.4-9.3-16.8-20c-12.2-32.8,0.6-76.5,23.5-101.9c18.6-22.9,50.2-25.3,61.2,5.5c11.8,32.4-0.3,75.6-22.2,101
	c-6.3,7.2-14.6,12.7-23.1,15.5h42.4c12.9-9.2,28.3-9.7,39.1,0h30.9c-0.8-1.7-1.4-3.6-2-5.6c-10.7-31.8-1.3-74.4,20.6-99.7
	c18.4-23.8,46.3-18.5,55.4,9.6c10,30.2,2.1,70.1-17.1,95.7h73c-2.7-27.5,4.9-58.6,21.8-78.8c18.4-23.6,43.4-13.4,50.6,13.1
	c6,19.9,5.3,44.2-1.5,65.7h54.2c2.9-16.2,9.1-31.8,18.4-44c18.1-24.2,40.4-7.5,46.3,16.2c2.1,8.6,3.4,18.1,3.6,27.8h60.2
	c0.5-0.7,1-1.4,1.5-2.1c12.9-17.8,26.9-11,35.5,2.1h20.4c0-0.2-0.1-0.4-0.1-0.5c-7.4-28.9-3.7-67.1,14.3-91.7
	c17.6-24.6,36.3,1.7,40.3,20.7c4.6,21.5,4.9,49-3.4,71.5h45.4c2.2-14.6,7-28.5,14.9-39.7c17.7-26.2,33.1,7.9,37.3,22.5
	c1.1,5.4,1.9,11.2,2.5,17.1h32c-11.2-0.9-20.2-23-22.9-32.6c-6.1-27.5-4.1-64.4,12.8-88c17.4-25.6,32,11.2,35.5,24.2
	c5.1,26.9,4.8,64.2-12.4,87.3c-4,6.2-7.9,8.8-11.6,9.1h59.6c-0.5-21.2,3.5-43.7,14.8-59.9c16.4-25.4,30.3,14.5,33.1,25.4
	c1.9,10.4,3,22.3,2.7,34.4h46.9c5.4-6.2,10.5-4.7,14.8,0h21c-1.7-22.7,1.2-48.1,13.1-66.2c4.7-7.4,9.1-8.4,13-6v-213.9
	c-10.2-2.9-17.5-29.2-18.8-35c-3.1-25.3-4.5-58.5,12.1-80c2.3-3.2,4.6-5.1,6.7-5.8v-42.9c-2.2,8.4-5.6,16.3-10.8,23.1
	c-16.3,22.3-28.5-21-30.3-29.2c-4.4-24.9-3.4-58.8,12.7-79.6c14-18.4,24.5,9.8,28.5,23.9V912c-5.3-9.4-8.7-22.8-9.6-26.7
	c-2.5-22.5-3.9-52.5,9.6-72.6v-30.5c-0.2,0.2-0.3,0.4-0.4,0.5c-17,20.2-28.3-23.2-30.1-31.2c-4-23.8-3-57.4,13.6-76.6
	c6.7-7.6,12.4-5.8,16.9-0.2V467.5c-9.6-6.4-15.3-30.2-16.5-36c-2.3-22.8-3.8-55.9,14.3-73.6c0.7-0.7,1.5-1.3,2.2-1.9v-30.4
	c-1.7,2.6-3.6,5-5.8,7.1c-18.2,17.5-28.5-25.2-30.3-33.8c-2.3-22.7-3.7-55.9,14.8-73.1c9.2-8.5,16.3-1.9,21.3,7.8V116
	c-1-9.5-1.4-21,0-32V26.9c-7.7-3.6-12.6-16.6-15.4-26.9h-12.9c2.6,21.7,1.7,53.5-15.8,68.8c-19.1,16.3-29.3-25.4-31.3-34.9
	c-1.6-9.9-2.2-22-0.8-33.9h-92.1c-2.4,13.1-7.5,25.3-16.7,33.9c-20.3,18.2-32.2-20.8-35-32.7c-0.1-0.4-0.1-0.8-0.2-1.2h-15.8
	c1.6,4.5,2.8,8.7,3.5,11.6c3.9,25,1.9,59-17.5,77.7c-20.7,19.5-33.5-18-36.8-31.1c-3.3-17.6-2.7-40,4.7-58.2h-50.4
	c-2.8,5-6.1,9.6-10.3,13.5c-15.3,14.4-26.8,0.9-33.6-13.5h-19.3c3.8,26.5-0.4,59.5-20,78.8c-21.7,21.3-36.9-10.7-41.6-27.4
	c-3.3-15.6-3-34.4,1.9-51.4h-55c-2.9,4.7-6.3,9-10.3,12.7c-17.7,17.4-31.9,3.4-39.9-12.7h-21.4c0.2,0.8,0.4,1.5,0.5,2.3
	c6.5,28.6-0.5,67.1-22,88.2c-20.9,21.1-42.7,0.7-47.5-22.3c-4.6-20.7-2.5-47.2,7.6-68.2h-58.5c-4.4,14.5-11.7,27.9-21.7,37.8
	c-20.9,21.1-45.7,7-51.5-19c-1.4-5.9-2.2-12.3-2.4-18.8h-84.2c-12.2,7.9-25.6,7.6-35.5,0h-32.5c8.3,32.7-5.3,73.4-28.4,96.9
	c-21.2,18-51.2,23.1-60-10.6c-7.8-28,0.8-61.8,17.8-86.3h-76.2c-1.9,27.6-15.6,55.9-33.9,74.5c-19.6,17.3-56.7,31.1-65.8-5.2
	c-6.7-22-2.2-47.3,8.2-69.3h-73.8c-5.3,25.1-19.7,49.6-36,66.2c-18.6,16.7-61.9,39.9-72.6,1.2c-7.1-21.3-2.4-45.6,7.7-67.4h-78.8
	c-5.5,28.2-23.5,56.3-41.3,74.3c-17.4,16-67.7,49.5-80.6,8.6c-9.7-26.1,0.8-57.3,16.6-82.9h-93.1c2.6,36.8-25.5,78.2-48.7,101.6
	c-17.9,16.5-73.1,58.2-90.1,17C273.2,79.3,308.5,27.4,335,0h-44.9c-18.6,9.9-38.7,14.7-50.2,0H115.2C107.2,10.2,99,19.1,91.6,26.2z
	 M33.4,727.5C12,687,61.9,628.9,88.2,603.6c19.3-17.2,80.5-66.7,102-25.6c19.6,40.6-24.4,96.4-51.3,122.1
	C119.7,717.2,55.5,767.5,33.4,727.5z M98.5,844.3c-21.4-39.4,26.6-96.9,52.4-121.5c19.5-17.4,78.5-64,99.7-23.4
	c19.3,39.9-22.3,94.4-48.9,119.9C182.2,836.5,120.4,883.8,98.5,844.3z M1460,863.5c7.7,29.9,1.2,69.8-19.2,93.6
	c-19,23.1-42.5,7.9-48.5-16.7c-7.7-30.1-1.4-71.1,20-94.7C1431.7,822.6,1454.4,839.1,1460,863.5z M1461.8,615.9
	c19.9-22.7,41.1-2.3,45.9,20.5c6.2,29.2,1.7,68.4-19.4,91.2c-19.5,22.7-41.5,3.6-46.6-19.4C1434.7,678.9,1440.4,638.6,1461.8,615.9z
	 M1447.5,983.4c19.1-23.5,41.3-5.8,46.7,18c6.8,29.8,2.5,69.5-18.2,93.4c-18.7,23.4-41.6,7-47.5-16.9
	C1420.9,1048,1426.5,1007.2,1447.5,983.4z M1475.5,846.1c-7-29.1-1.9-69.4,19.1-92.2c19.5-23,40.3-1.6,45,20.5
	c6.2,29,2.2,68.2-18.4,91.1C1502,888.6,1480.5,868.5,1475.5,846.1z M1527.4,891.9c19.2-23.3,39.5-1,44,20.6
	c6.1,28.8,2.7,67.9-17.5,91.1c-18.8,23.3-39.8,2.2-44.7-19.6C1501.7,954.4,1507.6,915.7,1527.4,891.9z M1560.2,1029.8
	c18.8-23.6,38.7-0.4,43.1,20.6c6.1,28.7,3.2,67.7-16.6,91.1c-18.4,23.7-39,1.4-43.7-19.7C1535.5,1092.4,1540.8,1053.8,1560.2,1029.8
	z M1585.7,896.2c-6.8-28.6-2-66.6,17.5-89.7c19.2-23,37.8,3.6,41.6,23c5.5,27.9,2.9,66.3-16.9,88.7
	C1609.1,941.3,1589.8,915.8,1585.7,896.2z M1633.7,944.5c18.8-23.3,37,4,40.7,22.9c5.5,27.8,3.3,66.2-16,88.8
	c-18.4,23.4-37.3-3-41.3-22C1610.3,1005.7,1614.7,967.8,1633.7,944.5z M1658.3,814.4c-6.2-27.7-2.2-65,16.9-87.2
	c19.9-23.9,35,9.4,39.4,25.1c5.2,27.8,2.5,63.7-16.3,86.3C1678.7,862.8,1663,830.3,1658.3,814.4z M1703.7,864.8
	c19.4-24.3,34.4,9.7,38.6,24.9c5.2,27.8,2.9,63.6-15.6,86.5c-19.1,24.5-34.7-8.7-39.1-24.1C1681.5,924.6,1685,887.3,1703.7,864.8z
	 M1732.2,1002.5c18.9-24.6,33.8,10.1,37.8,24.7c5.1,26.9,3.8,64.5-14.8,86.7c-18.6,24.8-34.1-9.1-38.3-23.9
	C1710.8,1062.4,1713.9,1025.3,1732.2,1002.5z M1754.9,875.6c-5.6-26.7-2.8-63.5,15.6-85c19.1-23.4,33.2,13.3,36.6,26.8
	c4.6,26.1,3.6,63.1-15.1,84.2C1773.2,925.3,1758.6,889.2,1754.9,875.6z M1797.1,927.7c18.6-23.8,32.6,13.6,35.9,26.5
	c4.6,26.1,3.8,63-14.4,84.5c-18.3,24.1-32.9-12.6-36.4-25.7C1776.6,986.2,1779.1,949.5,1797.1,927.7z M1819.2,804.1
	c-5.1-25.8-2.9-62,15.2-82.7c18.8-22.5,32,16.5,34.9,28.4c4.4,26.2,3,60.5-14.8,82C1835.9,854.6,1822.3,816.2,1819.2,804.1z
	 M1859.2,857.8c18.3-22.9,31.4,16.6,34.2,28.1c4.4,26.2,3.2,60.5-14.1,82.3c-18,23.3-31.7-15.8-34.6-27.4
	C1839.6,914.9,1841.5,878.9,1859.2,857.8z M1895.6,657c18.5-21.4,30.8,19.3,33.2,29.9c4,25.3,3,59.1-14.4,79.8
	c-18.2,21.8-31-18.4-33.6-29.2C1876,712.1,1878,677.4,1895.6,657z M1884.1,994.2c17.8-23.3,30.9,16.8,33.5,27.7
	c4.4,26.3,3.4,60.5-13.4,82.6c-17.5,23.7-31.1-15.9-33.9-27C1865.2,1051.6,1866.8,1015.6,1884.1,994.2z M1904.6,873.4
	c-4.7-25.4-2.9-60.1,14.2-80.8c17.9-21.9,30.3,19.4,32.6,29.5c4,25.4,3.2,59.1-13.8,80.2C1919.9,924.5,1907.1,883.6,1904.6,873.4z
	 M1942,928c17.5-22.3,29.8,19.4,32,29.1c4,25.5,3.4,59.1-13.2,80.6c-17.2,22.7-30-18.6-32.3-28.4
	C1923.8,983.7,1925.3,949.2,1942,928z M1965.3,1063.4c16.9-22.8,29.3,19.5,31.4,28.7c4,25.6,3.6,59.2-12.6,81
	c-16.6,23.2-29.5-18.7-31.7-28C1947.6,1119.5,1949,1085,1965.3,1063.4z M1962.2,810.3c-4.3-24.6-3-58.7,13.9-78.7
	c17.6-20.8,29.2,21.8,31.1,30.7c3.6,24.6,3.2,57.8-13.5,78.1C1976.2,861.7,1964.2,819.5,1962.2,810.3z M1971.9,706
	c-17.9,20.8-29.9-21-32.1-30.5c-4.3-24.5-2.8-58.7,14.4-78.3c18.1-20.3,29.6,21.7,31.7,31.2C1989.6,652.9,1989,686.1,1971.9,706z
	 M1950.1,571.6c-18.4,20.3-30.4-20.9-32.6-31c-4.3-24.4-2.6-58.7,15-77.9c18.6-19.8,30.1,21.8,32.2,31.7
	C1968.4,518.8,1967.6,552.1,1950.1,571.6z M1928.4,437.1c-18.9,19.8-30.8-20.9-33.2-31.4c-4.3-24.3-2.4-58.6,15.6-77.4
	c19.1-19.3,30.5,21.7,32.8,32.1C1947.1,384.7,1946.3,418.1,1928.4,437.1z M1906.1,551.9c4,25.2,2.8,59-15,79.3
	c-18.7,21.4-31.5-18.3-34.2-29.5c-4.7-25.3-2.5-60.1,15.4-80.1C1891.3,500.6,1903.6,540.8,1906.1,551.9z M1867.9,495.7
	c-19.2,20.9-32-18.3-34.9-30c-4.7-25.2-2.2-60,16.1-79.7c19.5-20.4,31.8,19.2,34.4,30.7C1887.5,442,1886.1,475.9,1867.9,495.7z
	 M1845.1,613.8c4.3,26.1,2.7,60.5-15.4,81.6c-19,22.4-32.7-15.4-36-28c-5.1-25.8-2.6-62,15.9-82.4
	C1828.8,563,1842,601.4,1845.1,613.8z M1804.8,559c-19.5,22-33.3-15.2-36.7-28.3c-5.1-25.8-2.3-62,16.5-82.1
	c19.8-21.6,33,16.2,36.2,29.1C1825,502.8,1824,539.5,1804.8,559z M1781.3,680.5c4.6,26,3.2,63.2-15.9,83.9
	c-19.3,23.3-34-12-37.9-26.2c-5.6-26.7-2.4-63.4,16.4-84.8C1763.6,630.4,1777.7,666.5,1781.3,680.5z M1738.9,627.3
	c-19.8,22.9-34.6-11.7-38.6-26.4c-5.6-26.8-2.1-63.5,17.1-84.5c20.1-22.6,34.3,12.9,38.1,27.3
	C1760.1,570.6,1757.8,605.8,1738.9,627.3z M1712.3,490.2c-20.3,22.5-35.2-11.5-39.4-26.7c-5.6-26.8-1.7-63.5,17.9-84.3
	c20.6-22.2,34.9,12.6,38.8,27.6C1734.3,433.7,1731.6,469,1712.3,490.2z M1686.9,614.8c5.2,27.9,2.2,63.8-17.1,86.1
	c-20.1,23.8-35.9-7.9-40.7-24.4c-6.2-27.7-1.8-65.1,17.7-87C1667.2,566,1682.4,598.6,1686.9,614.8z M1641.3,563.3
	c-20.5,23.4-36.6-7.5-41.6-24.5c-6.2-27.8-1.4-65.2,18.5-86.9c20.8-23.2,36.3,8.7,41,25.5C1664.3,504.4,1661.6,542.4,1641.3,563.3z
	 M1615.1,691.7c5.6,28,2.5,66.5-17.8,88.6c-19.2,22.7-38.8-1.8-43.1-22.1c-6.8-28.7-1.5-66.8,18.4-89.6
	C1592.2,645.9,1611.1,671.7,1615.1,691.7z M1566.8,642.3c-19.6,22.4-39.6-1.3-44-22.1c-6.9-28.9-1-67,19.2-89.6
	c19.9-22.3,39.2,2.6,43.3,23.2C1591,581.9,1587.5,620.4,1566.8,642.3z M1536.3,504.4c-19.9,22.1-40.4-0.8-44.8-22.2
	c-6.5-29.2-0.8-67,20.1-89.5c20.3-22,40,2.2,44.2,23.2C1561.3,444.1,1557.4,482.7,1536.3,504.4z M1505.8,366.4
	c-20.3,21.7-41.1-0.3-45.7-22.2c-6.3-28.5-0.8-68.2,21-89.5c20.6-21.7,40.7,1.7,45,23.3C1531.7,306.4,1527.3,345,1505.8,366.4z
	 M1475.9,498.4c7.1,29.3,0.5,68.5-20.3,91.2c-19.8,22.4-42.3,4.3-47.6-19.3c-7.1-29.5-0.8-69.9,21.1-92.4
	C1449.3,455.5,1471,475,1475.9,498.4z M1425.8,725.7c7.8,30.1,0.6,70.1-20.2,93.8c-19.3,22.8-43.4,8.8-49.6-16.5
	c-7.8-30.4-0.7-71.4,21.1-95C1396.7,685.2,1420,700.6,1425.8,725.7z M931,1019.7c20.2-19.3,53.2-33.1,65.9,2.2
	c12.4,34.1-3.8,78.6-26.9,104.2c-18,19.5-56,33.9-67.4-1C889.5,1090.3,907.2,1045.8,931,1019.7z M852.8,994.9
	c-13.2-35.4,6-80.5,30.1-106.6c20.3-19.5,54.4-34.8,67.5,1.2c12,35-4.6,79.1-28.5,105.3C903.3,1012.5,864.7,1031.5,852.8,994.9z
	 M979.1,1151.2c20.2-19.5,51.9-31.3,64.3,3.3c12.2,33.5-2.6,77.5-25.4,103.1c-18.7,18.1-54.5,32.9-65.7-2.2
	C939.7,1221.5,955.5,1176.7,979.1,1151.2z M1018.2,998.4c-11.3-33.7,2.9-77.9,26.4-103.3c20.6-19.7,50.1-27.4,61,6.4
	c11,33.3-2.5,76.5-25.1,102C1061.5,1021.9,1028,1032.8,1018.2,998.4z M1089,1029c18.9-22.9,49.7-23.4,59.6,7.2
	c10.8,32.8-1.5,75.8-23.7,101.2c-18.2,20.4-51.6,26.4-60.9-6C1052.9,1098.1,1065.8,1054.4,1089,1029z M1125.6,879.5
	c-10-32.8,1.7-75.8,24.8-100.8c19.3-23.2,48.1-18.9,56.8,10.4c9.8,32.4-1.5,74.5-23.7,99.5C1164.8,909.2,1133.6,910.8,1125.6,879.5z
	 M1191.3,914.5c19.1-23.4,47.1-17.6,55.6,10.9c9.6,32-0.7,73.9-22.4,98.9c-18.6,20.9-48.7,20.8-56.6-9.7
	C1158,982.2,1168.6,939.4,1191.3,914.5z M1232.3,1050.2c18.9-23.7,46.1-16.3,54.3,11.5c9.5,31.7,0.1,73.3-21.2,98.3
	c-18.4,21.2-47.6,19.4-55.3-10.4C1200.4,1117.6,1210,1075.1,1232.3,1050.2z M1264.9,905.1c-8.8-31.4-0.1-73.3,22.2-97.6
	c19.5-22.8,45.2-13.1,52,14.4c8.6,31.1,0,72-21.2,96.4C1298.8,940.9,1272.1,932.7,1264.9,905.1z M1325,944.4
	c19.3-23,44.2-12,50.8,14.8c8.5,30.8,0.7,71.5-20.1,96.1c-18.8,22.9-44.7,13.2-51.7-13.6C1295.4,1010.5,1303.2,968.8,1325,944.4z
	 M1370.3,681.9c-19.5,22.4-44.4,9.7-50.7-16.2c-7.8-30.6-0.1-71.8,22.1-95.2c20-22.6,43.9-8.3,49.8,17.4
	C1399.4,618.3,1391.5,658.3,1370.3,681.9z M1335,544.3c-19.8,22.1-45.3,10.6-51.7-16c-7.9-30.9,0.6-72.2,23.2-95.5
	c20.3-22.3,44.8-9.1,50.8,17.3C1365.2,480.7,1356.6,520.8,1335,544.3z M1302.2,684.7c8.7,31.4-0.8,72.4-22.4,96.8
	c-19.2,22.3-46.7,15.5-54.1-12.8c-8.9-31.8,0.7-73.8,23.4-98.1C1268.8,648.1,1295.3,656.5,1302.2,684.7z M1241.9,644.5
	c-19.4,22-47.7,16.6-55.3-12.3c-9-32.1,1.5-74.3,24.6-98.5c19.9-22.2,47.1-15.1,54.2,13.7C1274.2,579.2,1263.9,620.3,1241.9,644.5z
	 M1203.9,507.6c-20.9,18.6-48,20.2-56.5-11.9c-9-32.4,2.3-74.8,25.7-98.9c21.5-18.8,47.5-18.6,55.4,13.4
	C1237.4,442.2,1226.3,483.5,1203.9,507.6z M1167.4,652.9c9.9,32.8-2.4,75.1-24.9,100c-18.7,20.3-51,23.5-59.3-8.4
	c-10.1-33.2,2.6-76.5,26.1-101.4C1128.8,620.2,1158.5,623,1167.4,652.9z M1101.5,617.3c-18.8,20-52.2,24.8-60.6-7.8
	c-10.2-33.6,3.5-77.2,27.4-102.1c19.6-22.7,50.2-21.4,59.4,9.3C1137.7,549.8,1124.4,592.3,1101.5,617.3z M1062.8,766.9
	c11.1,33.7-3.6,77.3-26.6,102.8c-19,18.1-53.8,30.9-63.8-4.2c-11.4-34.2,4-78.7,27.9-104.2C1020.9,741.7,1051.6,732.4,1062.8,766.9z
	 M991.9,735.7c-18.9,17.8-55.2,32.5-65.3-3.3c-11.8-35.1,5.3-79.2,29.4-105.1c20.7-19.3,52.5-30.2,63.9,4.9
	C1031.1,666.3,1015.2,710.2,991.9,735.7z M947.5,601.8c-18.9,17.6-56.5,34-66.7-2.4c-11.9-35.5,6.4-80,30.8-106
	c20.7-19.1,53.6-31.7,65.2,4.1C987.8,532.5,971.6,575.9,947.5,601.8z M903.8,756.9c12.1,35.5-5.8,80.1-30.1,106.3
	c-18.4,17.6-58.6,38.8-70.7,1.4c-13.4-36,7.3-81.7,31.7-107.9C855.1,737.5,890.5,720.3,903.8,756.9z M755.7,1024
	c20.1-19,58.2-40.5,73.2-3.5c13.5,35.7-6.4,81.2-30.9,107.3c-18.2,17.3-61.3,42.4-75.1,4.8C707.9,1096.6,731.2,1050,755.7,1024z
	 M668.7,1005.9c-15.2-36.5,9.9-84.2,34.6-110.2c20-18.8,59.7-42.6,75-4.9c13.7,36.3-7.8,82.4-32.6,108.7
	C727.7,1016.6,682.7,1044.2,668.7,1005.9z M825.6,731.7c-18.2,17.3-60.1,40.6-72.3,2.6c-13.5-36.5,8.6-82.8,33.4-109
	c20.2-19.1,57.1-38.2,70.6-1C869.6,660.4,850.3,705.4,825.6,731.7z M777.5,600.2c-18.1,17-61.6,42.5-74,3.8
	c-13.7-36.9,10-84,35.1-110.2c20.2-18.9,58.4-39.9,72.2-2C823.3,528.3,802.4,574,777.5,600.2z M727.8,761.2
	c14,36.9-9.4,83.8-34.4,110.1c-17.8,16.7-64.6,46.8-78.8,7.8C599.1,842,626,793.5,651,767.4C670.8,748.8,712.2,722.8,727.8,761.2z
	 M276.3,961.1c19.9-17.7,74.4-58.6,95-19.1c18.6,38.5-18.3,90.7-44.3,115.6c-19.7,17.5-76.9,58.8-98.2,20.4
	C208.1,1039.8,251.2,985,276.3,961.1z M163.7,961.1c-21.1-38.8,24.3-94.7,49.9-119.2c19.7-17.6,76.4-61.4,97.3-21.3
	c18.9,39.2-20.4,92.7-46.6,117.7C244.8,955.7,185.3,1000.1,163.7,961.1z M338.9,1080.2c20.1-17.9,72.5-55.9,92.7-16.9
	c18.3,37.9-16.1,88.7-41.9,113.4c-19.9,17.6-74.8,55.9-95.7,18C273.6,1157.3,314,1104.1,338.9,1080.2z M403.1,910.7
	c-18-38.1,17.1-90.1,42.4-115.5c17.4-16.1,70.6-54.6,86.1-13.4c16.2,38.2-14.1,88-39.8,114C472.9,913.1,421.5,949.7,403.1,910.7z
	 M502.6,919.4c17.7-16.4,68.7-52.2,84-11.7c15.9,37.5-12.3,86.4-37.8,112.2c-19,17.6-68.4,51.4-86.5,13
	C444.7,995.5,477.4,944.9,502.6,919.4z M559.7,1043.6c18-16.7,66.9-49.8,82-9.9c15.7,36.9-10.5,84.8-35.8,110.5
	c-19.2,17.8-66.5,48.8-84.3,11.1C504.3,1118.4,534.8,1068.9,559.7,1043.6z M641,743c-18.7,17.7-64.8,48-80.7,9.4
	c-15.6-37.7,13-87,38.3-113.2c19.7-18.4,62.7-46.6,78.6-7.7C691.4,669,666.3,716.6,641,743z M588.7,614.7
	c-18.5,17.4-66.4,50.1-82.6,10.9c-15.9-38.2,14.8-88.6,40.2-114.8c19.6-18.2,64.2-48.6,80.4-9C641,539.9,614.3,588.3,588.7,614.7z
	 M536.3,486.4c-18.4,17.2-68.1,52.2-84.5,12.4c-16.1-38.7,16.4-90.1,42.1-116.3c19.5-18,65.8-50.5,82.1-10.4
	C590.7,410.7,562.2,459.9,536.3,486.4z M476.4,655.8c16.5,38.7-15.9,89.7-41.8,115.7c-18.6,17.2-72.1,56.4-90.8,16.9
	c-18.2-38.7,19-91.9,44.5-117.4C405.4,655.2,460.7,614,476.4,655.8z M377.4,647.3c-18.5,17.1-74,58.8-92.9,18.8
	c-18.6-39.4,20.7-93.4,46.6-119.4c16.8-15.5,74.3-59.3,90.1-16.9C438,569.2,403.6,621.1,377.4,647.3z M320.3,523.1
	c-18.3,16.9-75.9,61.2-95.1,20.7c-18.8-39.9,22.6-95.2,48.8-121.3c16.5-15.2,76.2-61.6,92.2-18.7
	C383.2,443.9,346.9,496.5,320.3,523.1z M34,1251c-24.3-37.9,29.4-93.7,53.7-116.3c20.3-16.9,83.3-63.7,105.8-24.2
	c21.8,39-24.4,92-49.9,115.7C121.9,1244.1,58.6,1288.5,34,1251z M106,1361.2c-23.8-37.3,27-91.4,50.8-113.5
	c20.6-17,80.9-60.5,103.1-21.6c21.1,37.7-21.3,90.4-47.1,113.1C190.7,1357.1,130.2,1398.1,106,1361.2z M281.8,1452.2
	c-22.1,18-80,55.4-103.8,19.2c-23.5-36.7,24-88.4,47.9-110.7c20.9-17.1,78.6-57.2,100.4-18.9
	C347.2,1379.5,306.9,1428.7,281.8,1452.2z M359.2,1311.5c-20-36.8,17.5-88.2,42.5-112.1c20.3-18,70.5-53.1,90.4-14.7
	c18,37.1-14,86.7-39.6,111.2C432.2,1313.6,379.7,1348.7,359.2,1311.5z M515,1415c-20.4,17.9-70.6,49.9-90.7,13.3
	c-19.7-36.1,15.3-86,40-109.7c20.5-18.2,68.5-50.3,88-12.6C569.9,1342.4,540.6,1390.5,515,1415z M581,1277.6
	c-17.1-36.3,11.1-84.5,35.9-109.8c18.3-16.9,65.1-47.3,80-8.1c15.4,36.2-8.7,83.1-33.7,108.7C643.7,1286.4,598.4,1314.6,581,1277.6z
	 M720.3,1392.6c-19.7,18.2-62.9,43.6-80.1,7.3c-16.8-35.7,9.3-82.7,33.8-107.8c18.6-17.2,63.3-44.8,78-6.4
	C767.1,1321.2,745.1,1367.2,720.3,1392.6z M777.1,1259.4c-14.8-35.4,6.7-81.2,30.8-107.1c20.2-19.2,56.8-38.4,71.5-2.1
	c13.3,35.1-4.9,79.9-29.1,105.9C831.9,1273.7,790.7,1296.2,777.1,1259.4z M831.3,1386.1c-14.3-34.4,4.9-80.2,29-105.5
	c20.3-19.4,55.3-36.3,69.7-0.7c13.7,34-4,79.2-27.3,104.6C884.1,1402.3,844.7,1422.2,831.3,1386.1z M955,1512.7
	c-18.1,19.4-56.7,34.4-69.5,0.2c-14.1-33.8,3.4-78.9,27.1-104c19.1-21.9,54.6-32.4,67.9,0.7C994,1442.9,978,1487.4,955,1512.7z
	 M1066.1,1389.1c-18.8,18.4-53.1,30.9-64.1-3.3c-12.4-33.4,1.9-77.6,25.1-103.1c20.2-19.7,50.6-29.5,62.7,4.4
	C1101.9,1320,1088.5,1363.6,1066.1,1389.1z M1109.8,1264.4c-11-32.8,0.8-76.1,23.5-101.5c18.8-23.2,48.6-21.8,58.2,8
	c10.7,32.4-0.6,75-22.4,100.4C1151.1,1292,1118.9,1295.9,1109.8,1264.4z M1213.6,1405.2c-18.1,21-49.1,22.9-57.9-7.8
	c-10.8-32.3-0.3-75.3,22-100.6c18.6-23.5,47.5-20.2,56.8,8.8C1245,1337.6,1234.9,1379.9,1213.6,1405.2z M1252.5,1284.6
	c-9.6-31.6-1-73.9,20.8-98.8c18.9-23.1,45.5-16.2,53.1,12.1c9.4,31.3,1,72.7-19.9,97.8C1288.1,1317.1,1260,1313.6,1252.5,1284.6z
	 M1347.4,1431.3c-18.2,21.8-45.3,16.4-52.7-11.7c-9.5-31.2-1.9-73.2,19.5-98.1c18.6-23.3,44.4-14.9,51.8,12.6
	C1375.4,1365,1367.8,1406.2,1347.4,1431.3z M1343.2,1178.1c-8.6-30.8-1.6-72.3,19.8-96.8c19-23.4,43.3-10.9,49.7,15.1
	c8.4,30.5,1.4,71.1-19,95.7C1375.2,1215.3,1350.1,1204.1,1343.2,1178.1z M1382.3,1314.5c-8.5-30.5-2.3-71.8,18.6-96.3
	c18.7-23.7,42.3-9.8,48.6,15.5c8.4,30.2,2.1,70.7-17.8,95.4C1413.4,1352.6,1389,1339.8,1382.3,1314.5z M1469.7,1465.9
	c-18,23.8-41.7,9.6-48.2-14.9c-9.1-30.7-2.2-70.6,17.4-95.9c18.4-23.9,41.4-8.7,47.4,15.8C1493.8,1401,1489.8,1441.1,1469.7,1465.9z
	 M1464.9,1215.2c-8.3-30.2-1.9-69.5,17.9-94.2c18.8-23.7,40.4-4.9,45.7,18.2c6.8,29.5,3.1,69.2-17.1,93.3
	C1492.9,1256.1,1470.5,1238.4,1464.9,1215.2z M1501.2,1352.6c-8.2-30-2.5-69.1,16.8-94c18.5-24,39.5-4,44.7,18.4
	c6.7,29.3,3.6,68.9-16.1,93.1C1528.5,1394.1,1506.7,1375,1501.2,1352.6z M1581.8,1507.7c-17.7,24.3-38.9,4-44.2-17.7
	c-8.1-29.8-3.1-68.8,15.7-93.7c18.1-24.3,38.7-3.1,43.6,18.5C1603.6,1443.9,1601,1483.3,1581.8,1507.7z M1576.7,1259.7
	c-7.5-29.2-2.7-67.7,16.2-91.9c18.4-24,37.9,0.3,42.2,20.6c6.1,28.5,3.7,67.5-15.6,91C1601.4,1303.4,1581.3,1280.1,1576.7,1259.7z
	 M1652.2,1417.4c-17.6,24.3-37.3-0.1-41.8-19.9c-7.4-29.1-3.2-67.4,15.2-91.8c18-24.2,37.1,1,41.2,20.7
	C1673,1354.8,1671.1,1393.7,1652.2,1417.4z M1648.5,1172.2c-6.7-28.4-2.9-66.2,15.7-89.7c19.2-25.3,35.1,6.4,39.9,22.8
	c5.5,27.7,3.7,66-15.2,88.9C1670.9,1217.9,1652.4,1190.7,1648.5,1172.2z M1679.9,1310.2c-6.7-28.3-3.3-66,14.8-89.8
	c18.7-25.6,34.4,6.9,39,22.7c5.5,27.6,4.1,65.9-14.3,89C1701.9,1356.2,1683.7,1328,1679.9,1310.2z M1750,1470.1
	c-17.8,26.1-34-6.6-38.6-21.9c-6.7-28.2-3.7-65.8,13.9-89.8c18.2-25.9,33.8,7.4,38.2,22.6C1769,1408.7,1768,1446.6,1750,1470.1z
	 M1746.2,1227.8c-6.1-27.6-3.4-64.7,14.5-87.7c18.4-24.9,33.2,10.4,37,24.5c5.1,26.9,4.2,64.4-14,86.9
	C1765.6,1276.8,1750.2,1242,1746.2,1227.8z M1812.1,1389.3c-17.5,25.6-32.8-10-36.7-23.6c-6.1-27.5-3.7-64.6,13.6-87.8
	c17.9-25.3,32.6,10.9,36.3,24.4C1830.5,1329.1,1829.8,1366.5,1812.1,1389.3z M1809.5,1150.3c-5.6-26.8-3.4-63.3,14.1-85.5
	c18.1-24.2,32,13.8,35.2,26.2c4.6,26.1,4.1,63-13.7,84.7C1827.4,1200.3,1812.9,1162.9,1809.5,1150.3z M1836.9,1287.7
	c-5.6-26.8-3.8-63.3,13.4-85.8c17.6-24.6,31.5,14.1,34.5,26c4.7,26.2,4.4,62.9-13,85C1854.5,1337.8,1840.1,1299.8,1836.9,1287.7z
	 M1898.3,1450c-16.7,25.3-31.1-13.4-34.2-25c-5.6-26.8-4-63.2,12.6-86c17-24.9,30.9,14.3,33.8,25.7
	C1915.3,1390.9,1915.2,1427.6,1898.3,1450z M1895.8,1214.2c-5.1-26-3.7-61.9,13.1-83.7c17.2-23.8,30.4,16.9,32.9,27.4
	c4.4,26.4,3.6,60.5-12.8,83C1912.1,1265,1898.4,1224.8,1895.8,1214.2z M1921.3,1350.9c-5.1-26.1-4-61.9,12.4-84
	c16.7-24.2,29.8,17,32.2,27c4.4,26.5,3.9,60.5-12.1,83.4C1937.5,1401.8,1923.8,1361,1921.3,1350.9z M1978.7,1513.7
	c-15.8,24.9-29.5-16.5-31.9-26.1c-5.1-26.1-4.2-61.8,11.7-84.3c16.1-24.6,29.3,17.1,31.5,26.7
	C1994.6,1456.5,1994.2,1490.4,1978.7,1513.7z M2041.9,1362.2c4.1,25.9,4,59.2-11.3,81.8c-15.5,24-28.5-18.8-30.4-27.3
	c-4.8-25.8-3.8-60.1,11.6-82.4C2027.5,1310.7,2040,1353.9,2041.9,1362.2z M2019.3,1227.2c4.1,25.7,3.8,59.2-11.9,81.4
	c-16.1,23.7-29-18.8-31.1-27.6c-4.7-25.7-3.6-60.1,12.3-82C2004.9,1175.7,2017.3,1218.4,2019.3,1227.2z M2028.3,896.3
	c3.7,24.7,3.4,57.8-12.9,78.5c-16.9,21.8-28.9-20.9-30.9-29.6c-4.3-24.7-3.2-58.8,13.3-79.2C2014.9,844.8,2026.5,887.8,2028.3,896.3
	z M2040.9,573.9c2.5,23.7,3.7,56.4-13.7,75.5c-17.6,19.7-28.8-23.2-30.6-31.7c-3.9-23.7-2.9-57.3,14.1-76.1
	C2028.5,522.4,2039.2,565.5,2040.9,573.9z M2021.1,441.2c3.3,23.5,3,56.4-14.3,75c-18.1,19.2-29.2-23.2-31.1-32.2
	c-3.9-23.5-2.7-57.3,14.6-75.7C2008.6,389.7,2019.2,432.3,2021.1,441.2z M2007.6,93.9c18.9-16.3,28.6,25.9,30.4,34.9
	c3,21.9,2.9,55.5-14.9,71.9c-18.7,16.9-28.9-25.3-30.8-34.3C1988.7,144.1,1989.8,110.5,2007.6,93.9z M2001.2,308.4
	c3.3,23.4,2.8,56.3-14.8,74.5c-18.6,18.6-29.6-23.2-31.7-32.7c-3.9-23.4-2.5-57.2,15.2-75.2C1988.6,257,1999.2,299,2001.2,308.4z
	 M1981.3,175.7c3.2,23.2,2.7,56.3-15.3,74c-19,18.1-30.1-23.3-32.2-33.2c-3.9-23.3-2.4-57.2,15.7-74.7
	C1968.7,124.3,1979.3,165.8,1981.3,175.7z M1929.1,8.5c19.7-17,30.2,24,32.4,34.4c3.2,23.1,2.5,56.2-15.9,73.5
	c-19.5,17.5-30.5-23.3-32.8-33.7C1909,59.6,1910.7,25.6,1929.1,8.5z M1922.4,226.5c3.6,24.1,2.5,57.6-15.8,76.2
	c-19.4,19.2-31.3-20.9-33.8-31.8c-4.3-24.2-2.2-58.6,16.2-77C1908.6,175.1,1920,215.7,1922.4,226.5z M1867.2,59.5
	c20-18.3,31.4,21.7,33.9,33c3.6,24.1,2.4,57.6-16.3,75.8c-19.9,18.8-31.8-20.9-34.4-32.3C1846.2,111.9,1848.5,77.5,1867.2,59.5z
	 M1860.9,281.8c3.9,25.1,2.4,59-16.2,78.5c-19.7,20.4-32.5-18.2-35.5-30.3c-4.7-25.2-2-60,16.7-79.3
	C1845.8,230.7,1858.1,269.7,1860.9,281.8z M1802.6,115.1c20.4-19.5,32.7,19.1,35.7,31.6c3.9,25,2.2,59-16.9,78.1
	c-20.2,19.9-33-18.1-36.1-30.7C1780.6,168.9,1783.5,134.1,1802.6,115.1z M1796.7,341.7c4.2,25,2.8,61.8-16.8,80.9
	c-20,21.5-33.8-15.1-37.3-28.6c-5.1-25.7-2-61.9,17.2-81.7C1780.1,291.1,1793.4,328.3,1796.7,341.7z M1772.5,205.7
	c4.1,25,2.5,61.8-17.4,80.6c-20.5,21.1-34.4-14.9-38-29c-5.1-25.7-1.7-62,17.9-81.4C1755.7,155.2,1769.1,191.8,1772.5,205.7z
	 M1710.2,39.5c21.2-20.3,34.6,15.8,38.2,30.2c4.2,25.9,1.7,60.7-18.1,80.2c-21,20.6-34.9-14.7-38.7-29.3
	C1686.5,94.9,1690.1,58.6,1710.2,39.5z M1703.7,270c4.7,26.9,1.7,62.3-18,83.1c-20.8,22.1-35.8-11.2-40.1-27
	c-5.6-26.8-1.4-63.6,18.6-84.1C1685.2,220.2,1699.6,254.5,1703.7,270z M1637.6,105c21.5-21.4,36,12.2,40.2,28.2
	c4.7,27,1.4,62.3-18.7,82.8c-21.2,21.7-36.3-11-40.9-27.2C1612.6,161.9,1617.2,125.1,1637.6,105z M1631.6,339.9
	c5,27.1,2,65.1-18.7,85.7c-21,23.1-37.2-7.1-42.4-24.7c-6.2-27.9-1-65.3,19.3-86.7C1611.1,291.3,1626.7,322.6,1631.6,339.9z
	 M1603.9,202.4c5,27.1,1.6,65.2-19.5,85.5c-21.4,22.7-37.8-6.8-43.2-24.8c-6.3-28-0.6-65.5,20.1-86.6
	C1583.1,154,1598.9,184.6,1603.9,202.4z M1532.9,38.9c22.2-22.2,38.1,7.8,43.3,26.1c5,27.2,1.2,65.3-20.3,85.3
	c-21.9,22.3-38.4-6.4-44-25C1505.7,97.2,1511.8,59.7,1532.9,38.9z M1450.5,116.8c21-21.4,41.5,1.3,45.9,23.4
	c6.4,28.5,0,66.9-21.2,88.3c-20.6,21.4-41.9,0.2-46.6-22.3C1422.3,177.6,1428.3,137.8,1450.5,116.8z M1444.1,360.4
	c7.1,29.5-0.1,68.7-21.2,91.3c-20.1,22.1-43.1,5-48.6-19.3c-7.1-29.7-0.2-70.2,22-92.4C1416.8,317.9,1439,336.5,1444.1,360.4z
	 M1412.2,222.4c7.2,29.6-0.6,68.9-22.2,91.3c-20.4,21.7-44,5.7-49.5-19.2c-7.1-29.9,0.4-70.5,23-92.5
	C1384.3,180.1,1407.1,197.9,1412.2,222.4z M1330.7,64.1c21.1-21.6,44.4-4.7,49.7,20.4c7.2,29.8-1.2,69.2-23.1,91.3
	c-20.6,21.5-44.8,6.3-50.5-19.1C1299.6,126.6,1307.8,86,1330.7,64.1z M1323.1,312.3c8,30.8-1.4,71-23.3,94.3
	c-20,21.8-46.2,11.5-52.8-15.7c-8-31.2,1.2-72.6,24.3-95.7C1291.8,273.1,1317,285.3,1323.1,312.3z M1288.9,174.5
	c8,31.1-2,71.4-24.3,94.5c-20.2,21.5-47.1,12.3-53.9-15.5c-8.1-31.4,1.9-72.9,25.3-95.9C1256.8,135.8,1282.6,146.9,1288.9,174.5z
	 M1200.8,19.9c21-21.5,47.5-11.4,53.9,16.7c8.1,31.4-2.6,71.7-25.4,94.7c-20.4,21.3-48,13.2-54.9-15.2
	C1166.3,84.4,1177,42.8,1200.8,19.9z M1191.7,272.9c9,32.3-3,73.7-25.8,97.8c-21,18.4-49.1,21.2-57.7-11.5
	c-9.1-32.7,3.1-75.3,26.9-99.3C1156.8,241.3,1183.7,240.3,1191.7,272.9z M1097.2,123c21.7-18.4,49.5-20.5,57.6,12.7
	c9.1,32.6-3.7,74.2-26.9,98.2c-21.1,18.2-50.1,22.2-58.8-11C1059.9,189.7,1073,146.9,1097.2,123z M1088,380.4
	c10.1,33.5-4.2,76.3-27.5,101.1c-19.6,18-53.1,27.5-61.9-7.1c-10.5-34.4,4.7-77.4,28.7-102.7C1048.7,352.5,1077.9,346.6,1088,380.4z
	 M1048.3,244.2c9.7,34.3-4.7,76.5-28.7,101.7c-19.6,17.7-54.3,28.7-63.2-6.5c-10.6-34.8,5.7-78.1,30-103.3
	C1007.8,217,1038,209.8,1048.3,244.2z M945.4,100.4c21.4-18.9,52.7-27.3,63.1,7.6c9.8,34.6-5.6,77.1-30,102.2
	c-19.6,17.5-55.5,29.9-64.5-5.9C903.4,169.2,920.7,125.6,945.4,100.4z M934,362.8c11,35.4-6.3,79.2-30.8,105.1
	c-18.8,17.4-57.8,35.5-68.2-1.5c-12-36,7.6-80.9,32.3-106.9C888,340.6,922.1,326.5,934,362.8z M891,228.1
	c11.1,35.9-7.4,80-32.2,105.9c-18.8,17.1-59.2,37-69.7-0.6C777,297.1,798,251.5,823,225.6C843.7,206.8,879,191.2,891,228.1z
	 M778.6,91.7c20.7-18.6,57.2-35.7,69.5,1.7c11.3,36.3-8.5,80.9-33.6,106.7c-18.7,16.9-60.5,38.5-71.1,0.3
	C731.1,163.6,753.3,117.6,778.6,91.7z M764.3,359.2c12.6,37-9.6,83.2-34.8,109.6c-17.9,16.7-63.1,44.3-75.6,5
	c-13.9-37.4,11.4-85.1,36.7-111.4C710.6,343.6,750.3,320.8,764.3,359.2z M717.7,226.7c12.8,37.5-10.9,84.2-36.4,110.6
	c-17.8,16.5-64.6,46-77.3,6.2c-14-37.9,12.7-86.3,38.4-112.6C662.5,212.4,703.5,187.7,717.7,226.7z M594.3,99.4
	c20-18.3,62.5-44.7,76.9-5.3c12.9,38-12.2,85.2-38,111.7c-17.6,16.2-66.2,47.8-78.9,7.4C540.1,174.9,568.5,125.7,594.3,99.4z
	 M525.6,242.5c14.8,39.1-15.4,89.1-41.5,115.7c-18.2,17-69.8,54.2-86.3,14c-16.3-39.2,18-91.5,44-117.8
	C458.8,238.4,511.7,200.2,525.6,242.5z M389.3,126c16.9-15.7,71.7-56,85.7-13.2c15,39.6-17,90.3-43.3,117.1
	c-18,16.7-71.4,56.3-88.2,15.5C326.9,205.5,362.9,152.7,389.3,126z M311,277.9c17.2,40.6-21,94.3-47.9,121
	c-18.1,16.7-77.8,63.6-97.2,22.6c-19.1-40.5,24.5-97,50.9-123.2C235.5,281.1,292.1,236.2,311,277.9z M255.9,151.9
	c17.5,41.2-22.8,95.9-49.9,122.8c-17.9,16.5-79.7,65.9-99.4,24.6c-18.7-41.8,25.9-98.1,53.1-125.1
	C178.2,157,236.7,109.8,255.9,151.9z M102.5,49.9c18.4-16.9,78.8-66.5,98.2-24c16.7,42.2-23.7,97.1-52,124.5
	c-17.8,16.4-81.7,68.2-101.5,26.5C28.4,134.6,75.1,77.1,102.5,49.9z"/>
</svg>
