<?xml version="1.0" encoding="utf-8"?>
<!-- Generator: Adobe Illustrator 19.2.1, SVG Export Plug-In . SVG Version: 6.00 Build 0)  -->
<svg version="1.1" id="Layer_1" xmlns="http://www.w3.org/2000/svg" xmlns:xlink="http://www.w3.org/1999/xlink" x="0px" y="0px"
	 viewBox="0 0 800 800" style="enable-background:new 0 0 800 800;" xml:space="preserve">
<style type="text/css">
	.st0{fill:#F1F0F0;}
</style>
<g>
	<circle class="st0" cx="700" cy="602.4" r="25.4"/>
	<circle class="st0" cx="700" cy="560" r="22.2"/>
	<circle class="st0" cx="700" cy="521" r="19"/>
	<circle class="st0" cx="700" cy="484.3" r="15.9"/>
	<circle class="st0" cx="700" cy="452.1" r="12.7"/>
	<circle class="st0" cx="700" cy="424.5" r="9.5"/>
	<circle class="st0" cx="700" cy="400" r="6.3"/>
	<circle class="st0" cx="700" cy="760" r="40"/>
	<circle class="st0" cx="700" cy="702.3" r="35"/>
	<circle class="st0" cx="700" cy="649.4" r="30"/>
	<circle class="st0" cx="700" cy="197.6" r="25.4"/>
	<circle class="st0" cx="700" cy="240" r="22.2"/>
	<circle class="st0" cx="700" cy="279" r="19"/>
	<circle class="st0" cx="700" cy="315.7" r="15.9"/>
	<circle class="st0" cx="700" cy="347.9" r="12.7"/>
	<circle class="st0" cx="700" cy="375.5" r="9.5"/>
	<circle class="st0" cx="700" cy="40" r="40"/>
	<circle class="st0" cx="700" cy="97.7" r="35"/>
	<circle class="st0" cx="700" cy="150.6" r="30"/>
</g>
<g>
	<circle class="st0" cx="640" cy="602.4" r="25.4"/>
	<circle class="st0" cx="640" cy="560" r="22.2"/>
	<circle class="st0" cx="640" cy="521" r="19"/>
	<circle class="st0" cx="640" cy="484.3" r="15.9"/>
	<circle class="st0" cx="640" cy="452.1" r="12.7"/>
	<circle class="st0" cx="640" cy="424.5" r="9.5"/>
	<circle class="st0" cx="640" cy="400" r="6.3"/>
	<circle class="st0" cx="640" cy="760" r="40"/>
	<circle class="st0" cx="640" cy="702.3" r="35"/>
	<circle class="st0" cx="640" cy="649.4" r="30"/>
	<circle class="st0" cx="640" cy="197.6" r="25.4"/>
	<circle class="st0" cx="640" cy="240" r="22.2"/>
	<circle class="st0" cx="640" cy="279" r="19"/>
	<circle class="st0" cx="640" cy="315.7" r="15.9"/>
	<circle class="st0" cx="640" cy="347.9" r="12.7"/>
	<circle class="st0" cx="640" cy="375.5" r="9.5"/>
	<circle class="st0" cx="640" cy="40" r="40"/>
	<circle class="st0" cx="640" cy="97.7" r="35"/>
	<circle class="st0" cx="640" cy="150.6" r="30"/>
</g>
<g>
	<circle class="st0" cx="580" cy="602.4" r="25.4"/>
	<circle class="st0" cx="580" cy="560" r="22.2"/>
	<circle class="st0" cx="580" cy="521" r="19"/>
	<circle class="st0" cx="580" cy="484.3" r="15.9"/>
	<circle class="st0" cx="580" cy="452.1" r="12.7"/>
	<circle class="st0" cx="580" cy="424.5" r="9.5"/>
	<circle class="st0" cx="580" cy="400" r="6.3"/>
	<circle class="st0" cx="580" cy="760" r="40"/>
	<circle class="st0" cx="580" cy="702.3" r="35"/>
	<circle class="st0" cx="580" cy="649.4" r="30"/>
	<circle class="st0" cx="580" cy="197.6" r="25.4"/>
	<circle class="st0" cx="580" cy="240" r="22.2"/>
	<circle class="st0" cx="580" cy="279" r="19"/>
	<circle class="st0" cx="580" cy="315.7" r="15.9"/>
	<circle class="st0" cx="580" cy="347.9" r="12.7"/>
	<circle class="st0" cx="580" cy="375.5" r="9.5"/>
	<circle class="st0" cx="580" cy="40" r="40"/>
	<circle class="st0" cx="580" cy="97.7" r="35"/>
	<circle class="st0" cx="580" cy="150.6" r="30"/>
</g>
<g>
	<circle class="st0" cx="520" cy="602.4" r="25.4"/>
	<circle class="st0" cx="520" cy="560" r="22.2"/>
	<circle class="st0" cx="520" cy="521" r="19"/>
	<circle class="st0" cx="520" cy="484.3" r="15.9"/>
	<circle class="st0" cx="520" cy="452.1" r="12.7"/>
	<circle class="st0" cx="520" cy="424.5" r="9.5"/>
	<circle class="st0" cx="520" cy="400" r="6.3"/>
	<circle class="st0" cx="520" cy="760" r="40"/>
	<circle class="st0" cx="520" cy="702.3" r="35"/>
	<circle class="st0" cx="520" cy="649.4" r="30"/>
	<circle class="st0" cx="520" cy="197.6" r="25.4"/>
	<circle class="st0" cx="520" cy="240" r="22.2"/>
	<circle class="st0" cx="520" cy="279" r="19"/>
	<circle class="st0" cx="520" cy="315.7" r="15.9"/>
	<circle class="st0" cx="520" cy="347.9" r="12.7"/>
	<circle class="st0" cx="520" cy="375.5" r="9.5"/>
	<circle class="st0" cx="520" cy="40" r="40"/>
	<circle class="st0" cx="520" cy="97.7" r="35"/>
	<circle class="st0" cx="520" cy="150.6" r="30"/>
</g>
<g>
	<circle class="st0" cx="460" cy="602.4" r="25.4"/>
	<circle class="st0" cx="460" cy="560" r="22.2"/>
	<circle class="st0" cx="460" cy="521" r="19"/>
	<circle class="st0" cx="460" cy="484.3" r="15.9"/>
	<circle class="st0" cx="460" cy="452.1" r="12.7"/>
	<circle class="st0" cx="460" cy="424.5" r="9.5"/>
	<circle class="st0" cx="460" cy="400" r="6.3"/>
	<circle class="st0" cx="460" cy="760" r="40"/>
	<circle class="st0" cx="460" cy="702.3" r="35"/>
	<circle class="st0" cx="460" cy="649.4" r="30"/>
	<circle class="st0" cx="460" cy="197.6" r="25.4"/>
	<circle class="st0" cx="460" cy="240" r="22.2"/>
	<circle class="st0" cx="460" cy="279" r="19"/>
	<circle class="st0" cx="460" cy="315.7" r="15.9"/>
	<circle class="st0" cx="460" cy="347.9" r="12.7"/>
	<circle class="st0" cx="460" cy="375.5" r="9.5"/>
	<circle class="st0" cx="460" cy="40" r="40"/>
	<circle class="st0" cx="460" cy="97.7" r="35"/>
	<circle class="st0" cx="460" cy="150.6" r="30"/>
</g>
<g>
	<circle class="st0" cx="400" cy="602.4" r="25.4"/>
	<circle class="st0" cx="400" cy="560" r="22.2"/>
	<circle class="st0" cx="400" cy="521" r="19"/>
	<circle class="st0" cx="400" cy="484.3" r="15.9"/>
	<circle class="st0" cx="400" cy="452.1" r="12.7"/>
	<circle class="st0" cx="400" cy="424.5" r="9.5"/>
	<circle class="st0" cx="400" cy="400" r="6.3"/>
	<circle class="st0" cx="400" cy="760" r="40"/>
	<circle class="st0" cx="400" cy="702.3" r="35"/>
	<circle class="st0" cx="400" cy="649.4" r="30"/>
	<circle class="st0" cx="400" cy="197.6" r="25.4"/>
	<circle class="st0" cx="400" cy="240" r="22.2"/>
	<circle class="st0" cx="400" cy="279" r="19"/>
	<circle class="st0" cx="400" cy="315.7" r="15.9"/>
	<circle class="st0" cx="400" cy="347.9" r="12.7"/>
	<circle class="st0" cx="400" cy="375.5" r="9.5"/>
	<circle class="st0" cx="400" cy="40" r="40"/>
	<circle class="st0" cx="400" cy="97.7" r="35"/>
	<circle class="st0" cx="400" cy="150.6" r="30"/>
</g>
<g>
	<circle class="st0" cx="340" cy="602.4" r="25.4"/>
	<circle class="st0" cx="340" cy="560" r="22.2"/>
	<circle class="st0" cx="340" cy="521" r="19"/>
	<circle class="st0" cx="340" cy="484.3" r="15.9"/>
	<circle class="st0" cx="340" cy="452.1" r="12.7"/>
	<circle class="st0" cx="340" cy="424.5" r="9.5"/>
	<circle class="st0" cx="340" cy="400" r="6.3"/>
	<circle class="st0" cx="340" cy="760" r="40"/>
	<circle class="st0" cx="340" cy="702.3" r="35"/>
	<circle class="st0" cx="340" cy="649.4" r="30"/>
	<circle class="st0" cx="340" cy="197.6" r="25.4"/>
	<circle class="st0" cx="340" cy="240" r="22.2"/>
	<circle class="st0" cx="340" cy="279" r="19"/>
	<circle class="st0" cx="340" cy="315.7" r="15.9"/>
	<circle class="st0" cx="340" cy="347.9" r="12.7"/>
	<circle class="st0" cx="340" cy="375.5" r="9.5"/>
	<circle class="st0" cx="340" cy="40" r="40"/>
	<circle class="st0" cx="340" cy="97.7" r="35"/>
	<circle class="st0" cx="340" cy="150.6" r="30"/>
</g>
<g>
	<circle class="st0" cx="280" cy="602.4" r="25.4"/>
	<circle class="st0" cx="280" cy="560" r="22.2"/>
	<circle class="st0" cx="280" cy="521" r="19"/>
	<circle class="st0" cx="280" cy="484.3" r="15.9"/>
	<circle class="st0" cx="280" cy="452.1" r="12.7"/>
	<circle class="st0" cx="280" cy="424.5" r="9.5"/>
	<circle class="st0" cx="280" cy="400" r="6.3"/>
	<circle class="st0" cx="280" cy="760" r="40"/>
	<circle class="st0" cx="280" cy="702.3" r="35"/>
	<circle class="st0" cx="280" cy="649.4" r="30"/>
	<circle class="st0" cx="280" cy="197.6" r="25.4"/>
	<circle class="st0" cx="280" cy="240" r="22.2"/>
	<circle class="st0" cx="280" cy="279" r="19"/>
	<circle class="st0" cx="280" cy="315.7" r="15.9"/>
	<circle class="st0" cx="280" cy="347.9" r="12.7"/>
	<circle class="st0" cx="280" cy="375.5" r="9.5"/>
	<circle class="st0" cx="280" cy="40" r="40"/>
	<circle class="st0" cx="280" cy="97.7" r="35"/>
	<circle class="st0" cx="280" cy="150.6" r="30"/>
</g>
<g>
	<circle class="st0" cx="220" cy="602.4" r="25.4"/>
	<circle class="st0" cx="220" cy="560" r="22.2"/>
	<circle class="st0" cx="220" cy="521" r="19"/>
	<circle class="st0" cx="220" cy="484.3" r="15.9"/>
	<circle class="st0" cx="220" cy="452.1" r="12.7"/>
	<circle class="st0" cx="220" cy="424.5" r="9.5"/>
	<circle class="st0" cx="220" cy="400" r="6.3"/>
	<circle class="st0" cx="220" cy="760" r="40"/>
	<circle class="st0" cx="220" cy="702.3" r="35"/>
	<circle class="st0" cx="220" cy="649.4" r="30"/>
	<circle class="st0" cx="220" cy="197.6" r="25.4"/>
	<circle class="st0" cx="220" cy="240" r="22.2"/>
	<circle class="st0" cx="220" cy="279" r="19"/>
	<circle class="st0" cx="220" cy="315.7" r="15.9"/>
	<circle class="st0" cx="220" cy="347.9" r="12.7"/>
	<circle class="st0" cx="220" cy="375.5" r="9.5"/>
	<circle class="st0" cx="220" cy="40" r="40"/>
	<circle class="st0" cx="220" cy="97.7" r="35"/>
	<circle class="st0" cx="220" cy="150.6" r="30"/>
</g>
<g>
	<circle class="st0" cx="160" cy="602.4" r="25.4"/>
	<circle class="st0" cx="160" cy="560" r="22.2"/>
	<circle class="st0" cx="160" cy="521" r="19"/>
	<circle class="st0" cx="160" cy="484.3" r="15.9"/>
	<circle class="st0" cx="160" cy="452.1" r="12.7"/>
	<circle class="st0" cx="160" cy="424.5" r="9.5"/>
	<circle class="st0" cx="160" cy="400" r="6.3"/>
	<circle class="st0" cx="160" cy="760" r="40"/>
	<circle class="st0" cx="160" cy="702.3" r="35"/>
	<circle class="st0" cx="160" cy="649.4" r="30"/>
	<circle class="st0" cx="160" cy="197.6" r="25.4"/>
	<circle class="st0" cx="160" cy="240" r="22.2"/>
	<circle class="st0" cx="160" cy="279" r="19"/>
	<circle class="st0" cx="160" cy="315.7" r="15.9"/>
	<circle class="st0" cx="160" cy="347.9" r="12.7"/>
	<circle class="st0" cx="160" cy="375.5" r="9.5"/>
	<circle class="st0" cx="160" cy="40" r="40"/>
	<circle class="st0" cx="160" cy="97.7" r="35"/>
	<circle class="st0" cx="160" cy="150.6" r="30"/>
</g>
<g>
	<circle class="st0" cx="100" cy="602.4" r="25.4"/>
	<circle class="st0" cx="100" cy="560" r="22.2"/>
	<circle class="st0" cx="100" cy="521" r="19"/>
	<circle class="st0" cx="100" cy="484.3" r="15.9"/>
	<circle class="st0" cx="100" cy="452.1" r="12.7"/>
	<circle class="st0" cx="100" cy="424.5" r="9.5"/>
	<circle class="st0" cx="100" cy="400" r="6.3"/>
	<circle class="st0" cx="100" cy="760" r="40"/>
	<circle class="st0" cx="100" cy="702.3" r="35"/>
	<circle class="st0" cx="100" cy="649.4" r="30"/>
	<circle class="st0" cx="100" cy="197.6" r="25.4"/>
	<circle class="st0" cx="100" cy="240" r="22.2"/>
	<circle class="st0" cx="100" cy="279" r="19"/>
	<circle class="st0" cx="100" cy="315.7" r="15.9"/>
	<circle class="st0" cx="100" cy="347.9" r="12.7"/>
	<circle class="st0" cx="100" cy="375.5" r="9.5"/>
	<circle class="st0" cx="100" cy="40" r="40"/>
	<circle class="st0" cx="100" cy="97.7" r="35"/>
	<circle class="st0" cx="100" cy="150.6" r="30"/>
</g>
<g>
	<circle class="st0" cx="760" cy="602.4" r="25.4"/>
	<circle class="st0" cx="760" cy="560" r="22.2"/>
	<circle class="st0" cx="760" cy="521" r="19"/>
	<circle class="st0" cx="760" cy="484.3" r="15.9"/>
	<circle class="st0" cx="760" cy="452.1" r="12.7"/>
	<circle class="st0" cx="760" cy="424.5" r="9.5"/>
	<circle class="st0" cx="760" cy="400" r="6.3"/>
	<circle class="st0" cx="760" cy="760" r="40"/>
	<circle class="st0" cx="760" cy="702.3" r="35"/>
	<circle class="st0" cx="760" cy="649.4" r="30"/>
	<circle class="st0" cx="760" cy="197.6" r="25.4"/>
	<circle class="st0" cx="760" cy="240" r="22.2"/>
	<circle class="st0" cx="760" cy="279" r="19"/>
	<circle class="st0" cx="760" cy="315.7" r="15.9"/>
	<circle class="st0" cx="760" cy="347.9" r="12.7"/>
	<circle class="st0" cx="760" cy="375.5" r="9.5"/>
	<circle class="st0" cx="760" cy="40" r="40"/>
	<circle class="st0" cx="760" cy="97.7" r="35"/>
	<circle class="st0" cx="760" cy="150.6" r="30"/>
</g>
<g>
	<circle class="st0" cx="40" cy="602.4" r="25.4"/>
	<circle class="st0" cx="40" cy="560" r="22.2"/>
	<circle class="st0" cx="40" cy="521" r="19"/>
	<circle class="st0" cx="40" cy="484.3" r="15.9"/>
	<circle class="st0" cx="40" cy="452.1" r="12.7"/>
	<circle class="st0" cx="40" cy="424.5" r="9.5"/>
	<circle class="st0" cx="40" cy="400" r="6.3"/>
	<circle class="st0" cx="40" cy="760" r="40"/>
	<circle class="st0" cx="40" cy="702.3" r="35"/>
	<circle class="st0" cx="40" cy="649.4" r="30"/>
	<circle class="st0" cx="40" cy="197.6" r="25.4"/>
	<circle class="st0" cx="40" cy="240" r="22.2"/>
	<circle class="st0" cx="40" cy="279" r="19"/>
	<circle class="st0" cx="40" cy="315.7" r="15.9"/>
	<circle class="st0" cx="40" cy="347.9" r="12.7"/>
	<circle class="st0" cx="40" cy="375.5" r="9.5"/>
	<circle class="st0" cx="40" cy="40" r="40"/>
	<circle class="st0" cx="40" cy="97.7" r="35"/>
	<circle class="st0" cx="40" cy="150.6" r="30"/>
</g>
</svg>
