<?xml version="1.0" encoding="utf-8"?>
<!-- Generator: Adobe Illustrator 19.2.1, SVG Export Plug-In . SVG Version: 6.00 Build 0)  -->
<svg version="1.1" id="Layer_2" xmlns="http://www.w3.org/2000/svg" xmlns:xlink="http://www.w3.org/1999/xlink" x="0px" y="0px"
	 viewBox="0 0 1280 800" style="enable-background:new 0 0 1280 800;" xml:space="preserve">
<style type="text/css">
	.st0{fill:#2860AD;}
	.st1{fill:#2957A6;}
</style>
<rect class="st0" width="1280" height="800"/>
<path class="st1" d="M706,778.1c-0.3-15.2,10.5-27.2,24.2-27.2c13.7,0,25.4,12.1,26.2,27.2c0.4,8.8-2.9,16.8-8.5,21.9h31.3
	c-6.2-5.2-10.4-13.1-10.9-21.9c-0.8-15.2,9.6-27.2,23.3-27.2c13.7,0,25.9,12.1,27.2,27.2c0.8,8.8-2.3,16.8-7.7,21.9h31.3
	c-6.3-5.2-10.8-13.1-11.7-21.9c-1.4-15.2,8.6-27.2,22.3-27.2c13.7,0,26.3,12.1,28.1,27.2c1.1,8.8-1.7,16.8-7,21.9h31.3
	c-6.5-5.2-11.3-13.1-12.5-21.9c-1.9-15.2,7.6-27.2,21.3-27.2c13.7,0,26.7,12.1,29.1,27.2c1.4,8.8-1.1,16.8-6.2,21.9h31.3
	c-6.7-5.2-11.8-13.1-13.2-21.9c-2.5-15.2,6.6-27.2,20.3-27.2c13.7,0,27.2,12.1,30.1,27.2c1.7,8.8-0.5,16.8-5.4,21.9h31.3
	c-6.9-5.2-12.3-13.1-14-21.9c-3-15.2,5.7-27.2,19.4-27.2c13.7,0,27.6,12.1,31.1,27.2c2,8.8,0.1,16.8-4.6,21.9h31.3
	c-7.1-5.2-12.7-13.1-14.8-21.9c-3.6-15.2,4.7-27.2,18.4-27.2c13.7,0,28,12.1,32.1,27.2c2.3,8.8,0.7,16.8-3.8,21.9h31.3
	c-7.3-5.2-13.2-13.1-15.6-21.9c-4.1-15.2,3.7-27.2,17.4-27.2c13.7,0,28.5,12.1,33,27.2c2.7,8.8,1.3,16.8-3,21.9h31.3
	c-7.5-5.2-13.7-13.1-16.4-21.9c-4.6-15.2,2.7-27.2,16.4-27.2c13.7,0,28.9,12.1,34,27.2c3,8.8,1.9,16.8-2.2,21.9h27.3v-3.1
	c-5.9-5-10.7-11.6-13.2-18.9c-4.9-14.3,1-25.8,13.2-27.1v-12.8c-0.7,0.1-1.4,0.1-2.2,0.1c-13.6,0-28.7-11.8-33.6-26
	c-4.8-14,2-25.2,15.2-25.2c6.9,0,14.3,3.1,20.6,8.1v-47.2c-0.9-3.6-0.8-7,0-9.9v-23.3c-9-3.7-17.1-11.4-20.5-20.2
	c-4.6-12.2,1.7-21.8,14-21.8c2.1,0,4.3,0.3,6.5,0.9v-14.2c-2.6,2.1-6.1,3.3-10.5,3.3c-12.2,0-25.7-9.5-30.1-21
	c-4.3-11.3,1.9-20.4,13.8-20.4c9.9,0,20.8,6.3,26.8,15v-33.9c-3.2-2.9-5.7-6.4-7.2-10c-3.6-8.7-0.4-15.9,7.2-18.3v-9.7
	c-10.9-0.8-22.5-8.7-26.5-18.3c-4.1-10,1.6-17.9,12.7-17.9c4.6,0,9.4,1.4,13.7,3.6v-56.8c-6.2-3-11.6-7.7-14-13.1
	c-3.9-8.8,1.4-15.8,11.8-15.8c0.7,0,1.5,0,2.2,0.1v-8.2c-1.6,0.5-3.5,0.8-5.6,0.8c-10.4,0-22-6.9-25.7-15.3
	c-3.8-8.3,1.5-14.9,11.7-14.9c6.9,0,14.3,3.1,19.7,7.6v-24.6c-1.2-1.4-2.3-2.8-3-4.4c-2.6-5.2-1.2-9.8,3-12.2V266
	c-8.4-1.5-16.6-6.9-19.7-13.2c-3.6-7.4,1.3-13.3,10.9-13.3c2.9,0,5.9,0.5,8.8,1.5v-15.5c-0.3,4.6-4.7,7.8-11.9,7.8
	c-9.6,0-20.2-5.8-23.6-12.9c-3.4-7,1.4-12.6,10.8-12.6c9.4,0,19.9,5.6,23.5,12.6c0.8,1.6,1.2,3.1,1.2,4.5v-26.7
	c-4.1-2.2-7.5-5.2-9.2-8.5c-3.3-6.4,0.8-11.6,9.2-12V172c-0.6,0.1-1.3,0.1-2,0.1c-9.1,0-19.2-5.2-22.5-11.6
	c-3.3-6.3,1.2-11.4,10.1-11.4c4.9,0,10.1,1.5,14.4,3.9v-20.7c-1.3-2.5-1.2-4.8,0-6.6v-9.8c-6.3-1.7-12.2-5.3-14.6-9.6
	c-3.2-5.7,1.1-10.3,9.6-10.3c1.6,0,3.3,0.2,5,0.5v-7.2c-1.8,1.2-4.4,1.9-7.7,1.9c-8.4,0-17.8-4.5-20.9-10c-3-5.5,1.2-9.8,9.5-9.8
	c7.2,0,15.1,3.3,19.1,7.7V62.4c-2.4-1.5-4.4-3.3-5.5-5.2c-2.6-4.4-0.1-8,5.5-9.1v-4.7c-7.8-0.3-16.3-4.3-19.2-9.1c-3-5,1.1-9,9-9
	c3.4,0,7,0.7,10.2,2V0H0v6.4c3.7-1.7,8-2.7,12-2.7c7.7,0,11.4,3.8,8.3,8.6C17.1,17.1,8.1,21,0.2,21c-0.1,0-0.1,0-0.2,0v4.4
	c6.1,0.8,8.6,4.4,5.7,8.8c-1.2,1.8-3.2,3.5-5.7,5v15c4.4-3.8,11.7-6.5,18.2-6.5c8.1,0,12,4.2,8.7,9.4c-3.3,5.3-12.7,9.6-20.9,9.6
	c-2.4,0-4.4-0.4-6-1v5.8c1-0.1,2-0.2,3-0.2c8.3,0,12.2,4.4,8.8,9.8C9.6,84.6,5.1,87.6,0,89.4v34.1c3-1,6.2-1.6,9.2-1.6
	c8.7,0,12.8,4.8,9.3,10.8c-3,5.2-10.8,9.5-18.5,10.7v7.3c3.5,2,4.4,5.6,2,9.8c-0.5,0.9-1.2,1.8-2,2.6v19.4c4.7-2.9,10.6-4.8,16-4.8
	c9.1,0,13.5,5.3,9.8,12c-3.8,6.7-14.4,12.2-23.7,12.3c-0.8,0-1.5,0-2.1-0.1v6c8.5,0.5,12.4,5.9,8.7,12.6c-1.8,3.1-4.9,6-8.7,8.3
	v22.4c4.8-6.5,14.8-11.6,23.6-11.6c9.6,0,14.3,5.9,10.4,13.3c-3.9,7.5-15.1,13.6-24.9,13.6c-4,0-7.1-1-9.1-2.7v9.9
	c1.9-0.4,3.8-0.6,5.6-0.6c9.9,0,14.6,6.3,10.5,14.1C13.3,292.6,7,297.3,0,299.8v49.5c4.3-2,8.9-3.3,13.2-3.3
	c10.5,0,15.5,7,11.2,15.8c-4,8.1-14.5,14.9-24.5,16v9.2c5.9,2.5,8.1,8.5,4.6,15.6c-1.1,2.3-2.7,4.5-4.6,6.4v28.1
	c6.1-5.4,14.3-9,21.8-9c11.1,0,16.6,8,12.1,17.9c-4.6,10.1-17.5,18.4-29,18.4c-1.8,0-3.5-0.2-4.9-0.6v9.4c0.3,0,0.6,0,0.8,0
	c11.5,0,17,8.5,12.2,19.1c-2.5,5.5-7.3,10.6-13,14.1v37.9c0.3-0.9,0.6-1.8,1-2.7c5.1-11.3,18.7-20.4,30.6-20.4
	c11.9,0,17.7,9.1,13,20.4c-4.8,11.5-18.6,21-30.8,21c-7,0-11.9-3.2-13.8-8v19.8c3.2-1.1,6.4-1.7,9.5-1.7c12.3,0,18.2,9.7,13.2,21.8
	c-3.9,9.3-13,17.3-22.6,20.7v21c1.4,3.4,1.5,7.7,0,12.4V694c6.1-4.3,13-7,19.4-7c13.2,0,19.6,11.2,14.3,25.2
	c-5.3,14-20.3,25.5-33.7,26v13.4c9.6,3,13.6,13.6,8.7,26.4c-1.9,5.1-5,9.8-8.7,14v8h22c-3.9-5.2-4.7-13.1-1.5-21.9
	c5.7-15.2,21.3-27.2,35-27.2c13.7,0,20.6,12.1,15.5,27.2c-3.1,8.8-9.5,16.8-17.2,21.9h31.3c-4.1-5.2-5.2-13.1-2.2-21.9
	c5.1-15.2,20.3-27.2,34-27.2c13.7,0,21.1,12.1,16.4,27.2c-2.7,8.8-8.9,16.8-16.4,21.9h31.3c-4.3-5.2-5.7-13.1-3-21.9
	c4.6-15.2,19.3-27.2,33-27.2c13.7,0,21.5,12.1,17.4,27.2c-2.4,8.8-8.3,16.8-15.6,21.9h31.3c-4.5-5.2-6.1-13.1-3.8-21.9
	c4-15.2,18.3-27.2,32.1-27.2c13.7,0,21.9,12.1,18.4,27.2c-2.1,8.8-7.7,16.8-14.8,21.9h31.3c-4.7-5.2-6.6-13.1-4.6-21.9
	c3.5-15.2,17.4-27.2,31.1-27.2c13.7,0,22.4,12.1,19.4,27.2c-1.8,8.8-7.1,16.8-14,21.9h31.3c-4.9-5.2-7.1-13.1-5.4-21.9
	c2.9-15.2,16.4-27.2,30.1-27.2c13.7,0,22.8,12.1,20.3,27.2c-1.5,8.8-6.5,16.8-13.2,21.9h31.3c-5-5.2-7.6-13.1-6.2-21.9
	c2.4-15.2,15.4-27.2,29.1-27.2c13.7,0,23.3,12.1,21.3,27.2c-1.1,8.8-5.9,16.8-12.5,21.9h31.3c-5.2-5.2-8-13.1-7-21.9
	c1.9-15.2,14.4-27.2,28.2-27.2c13.7,0,23.7,12.1,22.3,27.2c-0.8,8.8-5.3,16.8-11.7,21.9h31.3c-5.4-5.2-8.5-13.1-7.7-21.9
	c1.3-15.2,13.5-27.2,27.2-27.2c13.7,0,24.1,12.1,23.3,27.2c-0.5,8.8-4.7,16.8-10.9,21.9h31.3c-5.6-5.2-9-13.1-8.5-21.9
	c0.8-15.2,12.5-27.2,26.2-27.2c13.7,0,24.6,12.1,24.2,27.2c-0.2,8.8-4.1,16.8-10.1,21.9H653c-5.8-5.2-9.4-13.1-9.3-21.9
	c0.2-15.2,11.5-27.2,25.2-27.2c13.7,0,25,12.1,25.2,27.2c0.1,8.8-3.5,16.8-9.3,21.9h31.3C710.1,794.8,706.2,786.9,706,778.1z
	 M754.8,541.7c-0.6-11.3,8.5-20.4,20.3-20.4c11.9,0,22.3,9.1,23.3,20.4c1,11.5-8.1,21-20.3,21C765.9,562.6,755.5,553.2,754.8,541.7z
	 M746.5,121.9c8.7,0,16.1,4.8,16.6,10.8c0.5,6.1-6.2,11.1-15.1,11.1c-8.8,0-16.3-5-16.7-11.1C731.1,126.7,737.9,121.9,746.5,121.9z
	 M730,106.3c-0.3-5.7,6.3-10.3,14.7-10.3c8.5,0,15.7,4.6,16.2,10.3c0.5,5.8-6.1,10.5-14.7,10.5C737.6,116.8,730.3,112.1,730,106.3z
	 M748.5,149.1c8.9,0,16.5,5.1,17.1,11.4c0.5,6.4-6.4,11.6-15.4,11.6c-9.1,0-16.7-5.2-17.1-11.6C732.7,154.1,739.6,149.1,748.5,149.1
	z M750.5,177.7c9.1,0,17,5.3,17.5,12c0.6,6.7-6.5,12.2-15.8,12.3c-9.3,0-17.2-5.5-17.6-12.3C734.3,183,741.4,177.7,750.5,177.7z
	 M752.7,207.8c9.4,0,17.4,5.6,18,12.6c0.6,7.1-6.6,12.9-16.2,12.9c-9.6,0-17.6-5.8-18.1-12.9C736.1,213.4,743.3,207.8,752.7,207.8z
	 M1231,57.1c2.9,5.3-1.4,9.6-9.6,9.6c-8.2,0-17.2-4.3-19.9-9.6c-2.7-5.2,1.6-9.4,9.7-9.4C1219.3,47.7,1228.2,51.9,1231,57.1z
	 M1234.5,25.2c7.9,0,16.6,4,19.6,9c3,5-1.1,9.2-9.2,9.2c-8,0-16.9-4.1-19.7-9.2C1222.4,29.2,1226.6,25.2,1234.5,25.2z M794.6,207.8
	c9.4,0,17.6,5.6,18.5,12.6c0.9,7.1-6.2,12.9-15.7,12.9c-9.6,0-17.9-5.8-18.5-12.9C778.2,213.4,785.2,207.8,794.6,207.8z
	 M775.9,189.7c-0.6-6.7,6.3-12,15.4-12c9.1,0,17.2,5.3,18,12c0.8,6.7-6.1,12.2-15.4,12.3C784.6,201.9,776.6,196.4,775.9,189.7z
	 M798,239.5c9.6,0,18.1,5.9,19,13.3c0.9,7.5-6.3,13.6-16.1,13.6c-9.8,0-18.4-6.2-19.1-13.6C781.1,245.5,788.4,239.5,798,239.5z
	 M1181.7,106.3c2.8,5.8-1.9,10.5-10.6,10.5c-8.6,0-17.8-4.7-20.4-10.5c-2.6-5.7,2.2-10.3,10.7-10.3
	C1169.8,96,1178.9,100.6,1181.7,106.3z M1186.9,71.3c8.3,0,17.2,4.4,20.1,9.8c2.8,5.5-1.6,10-10.1,10c-8.4,0-17.5-4.5-20.2-10
	C1174,75.7,1178.6,71.3,1186.9,71.3z M841,239.5c9.6,0,18.3,5.9,19.5,13.3c1.2,7.5-5.8,13.6-15.6,13.6c-9.8,0-18.6-6.2-19.6-13.6
	C824.4,245.5,831.4,239.5,841,239.5z M821.1,220.4c-0.9-7,6-12.6,15.3-12.6c9.4,0,17.8,5.6,18.9,12.6c1.1,7.1-5.7,12.9-15.3,12.9
	C830.6,233.3,822.1,227.5,821.1,220.4z M845.8,273c9.9,0,18.9,6.3,20.1,14.1c1.2,7.9-5.9,14.4-16,14.4c-10.1,0-19.1-6.5-20.2-14.4
	C828.7,279.3,835.9,273,845.8,273z M1100.8,378c-10.7,0-21.6-7.3-24.4-16.2c-2.7-8.8,3.6-15.8,14.1-15.8c10.5,0,21.3,7,24.3,15.8
	C1117.7,370.7,1111.5,378,1100.8,378z M1128.5,402.6c3.2,9.5-3.2,17.2-14.2,17.2c-11.1,0-22.4-7.8-25.3-17.2
	c-2.9-9.3,3.6-16.8,14.4-16.8C1114.1,385.8,1125.3,393.3,1128.5,402.6z M934.3,273c9.9,0,19.3,6.3,21.1,14.1
	c1.8,7.9-4.9,14.4-15,14.4c-10.1,0-19.6-6.5-21.2-14.4C917.6,279.3,924.4,273,934.3,273z M912.3,252.8c-1.5-7.4,5.1-13.3,14.7-13.3
	c9.6,0,18.8,5.9,20.5,13.3c1.7,7.5-4.8,13.6-14.7,13.6C923,266.5,913.8,260.3,912.3,252.8z M1076.1,301.5
	c-10.1,0-20.3-6.5-22.8-14.4c-2.4-7.8,3.7-14.1,13.6-14.1c9.9,0,20,6.3,22.7,14.1C1092.2,295.1,1086.2,301.5,1076.1,301.5z
	 M1101.8,323.4c2.8,8.4-3.3,15.3-13.7,15.3c-10.4,0-21-6.9-23.6-15.3c-2.5-8.3,3.6-14.9,13.8-14.9
	C1088.5,308.5,1099,315.1,1101.8,323.4z M1022.7,273c9.9,0,19.8,6.3,22.1,14.1c2.4,7.9-3.9,14.4-14,14.4c-10.1,0-20.1-6.5-22.2-14.4
	C1006.5,279.3,1012.8,273,1022.7,273z M999.3,252.8c-2-7.4,4.2-13.3,13.8-13.3c9.6,0,19.2,6,21.4,13.3c2.2,7.5-3.9,13.6-13.7,13.6
	C1011,266.5,1001.4,260.3,999.3,252.8z M1042.8,252.8c-2.3-7.4,3.7-13.3,13.3-13.3c9.6,0,19.4,6,21.9,13.3
	c2.5,7.5-3.4,13.6-13.2,13.6C1055,266.5,1045.1,260.3,1042.8,252.8z M1075.2,220.4c-2.4-7,3.3-12.6,12.6-12.6
	c9.4,0,19,5.6,21.7,12.6c2.6,7.1-2.9,12.9-12.5,12.9C1087.4,233.3,1077.6,227.5,1075.2,220.4z M1085.7,201.9
	c-9.3,0-18.8-5.5-21.1-12.3c-2.3-6.7,3.3-12,12.4-12c9.1,0,18.5,5.3,21,12C1100.5,196.4,1095,201.9,1085.7,201.9z M1067.1,220.4
	c2.4,7.1-3.4,12.9-13,12.9c-9.6,0-19.1-5.8-21.3-12.9c-2.2-7,3.7-12.6,13.1-12.6C1055.3,207.8,1064.7,213.4,1067.1,220.4z
	 M1044,201.9c-9.3,0-18.6-5.5-20.6-12.3c-2.1-6.7,3.7-12,12.8-12c9.1,0,18.3,5.3,20.6,12C1059,196.4,1053.3,201.9,1044,201.9z
	 M1024.8,220.4c2.1,7.1-3.9,12.9-13.4,12.9c-9.6,0-18.9-5.8-20.8-12.9c-1.9-7,4.1-12.6,13.5-12.6
	C1013.4,207.8,1022.6,213.4,1024.8,220.4z M1002.3,201.9c-9.3,0-18.4-5.5-20.2-12.3c-1.8-6.7,4.1-12,13.3-12c9.1,0,18.1,5.3,20.1,12
	C1017.5,196.4,1011.6,201.9,1002.3,201.9z M982.4,220.4c1.9,7.1-4.3,12.9-13.9,12.9c-9.6,0-18.7-5.8-20.4-12.9
	c-1.7-7,4.6-12.6,14-12.6C971.5,207.8,980.6,213.4,982.4,220.4z M970.1,239.5c9.6,0,19,5.9,21,13.3c2,7.5-4.4,13.6-14.2,13.6
	c-9.8,0-19.2-6.2-21-13.6C954.1,245.5,960.5,239.5,970.1,239.5z M978.5,273c9.9,0,19.5,6.3,21.6,14.1c2.1,7.9-4.4,14.4-14.5,14.4
	c-10.1,0-19.8-6.5-21.7-14.4C962.1,279.3,968.6,273,978.5,273z M987.4,308.5c10.2,0,20.1,6.6,22.4,14.9c2.2,8.4-4.4,15.3-14.8,15.3
	c-10.4,0-20.5-6.9-22.5-15.3C970.5,315.1,977.2,308.5,987.4,308.5z M996.8,346c10.5,0,20.8,7,23.2,15.8c2.4,8.9-4.4,16.2-15.1,16.2
	c-10.7,0-21.1-7.3-23.3-16.2C979.5,353,986.3,346,996.8,346z M1018.5,323.4c-2.3-8.3,4.2-14.9,14.4-14.9c10.2,0,20.4,6.6,22.9,14.9
	c2.5,8.4-3.8,15.3-14.2,15.3C1031.1,338.7,1020.8,331.8,1018.5,323.4z M1043.6,346c10.5,0,21.1,7,23.7,15.8
	c2.7,8.9-3.8,16.2-14.5,16.2c-10.7,0-21.4-7.3-23.8-16.2C1026.6,353,1033.1,346,1043.6,346z M1055,385.8c10.8,0,21.8,7.5,24.6,16.8
	c2.8,9.5-3.8,17.2-14.8,17.2c-11.1,0-22.1-7.8-24.7-17.2C1037.5,393.3,1044.2,385.8,1055,385.8z M1110.6,323.4
	c-2.9-8.3,3.1-14.9,13.3-14.9c10.2,0,20.9,6.6,24,14.9c3.1,8.4-2.8,15.3-13.2,15.3C1124.3,338.7,1113.4,331.8,1110.6,323.4z
	 M1121.4,301.5c-10.1,0-20.5-6.5-23.3-14.4c-2.7-7.8,3.2-14.1,13-14.1c9.9,0,20.2,6.3,23.2,14.1
	C1137.3,295.1,1131.5,301.5,1121.4,301.5z M1108.8,266.5c-9.8,0-19.9-6.2-22.5-13.6c-2.5-7.4,3.2-13.3,12.8-13.3
	c9.6,0,19.6,6,22.4,13.3C1124.3,260.4,1118.6,266.5,1108.8,266.5z M1117.5,220.4c-2.7-7,2.8-12.6,12.2-12.6
	c9.4,0,19.2,5.6,22.1,12.6c2.9,7.1-2.5,12.9-12,12.9C1130.2,233.3,1120.2,227.5,1117.5,220.4z M1127.4,201.9
	c-9.3,0-19-5.5-21.5-12.3c-2.5-6.7,2.9-12,12-12c9.1,0,18.7,5.3,21.4,12C1142,196.4,1136.7,201.9,1127.4,201.9z M1134.9,160.5
	c-2.6-6.3,2.5-11.4,11.4-11.4c8.9,0,18.3,5.1,21.2,11.4c2.8,6.4-2.2,11.6-11.3,11.6C1147.1,172.1,1137.6,166.9,1134.9,160.5z
	 M1144,143.8c-8.9,0-18.1-5-20.6-11.1c-2.5-6,2.5-10.8,11.2-10.8c8.7,0,17.8,4.8,20.5,10.8C1157.8,138.8,1152.9,143.8,1144,143.8z
	 M1127.3,160.5c2.6,6.4-2.6,11.6-11.7,11.6c-9.1,0-18.4-5.2-20.9-11.6c-2.4-6.3,2.9-11.4,11.8-11.4
	C1115.4,149.1,1124.7,154.1,1127.3,160.5z M1104.4,143.8c-8.9,0-17.9-5-20.2-11.1c-2.3-6,2.9-10.8,11.6-10.8
	c8.7,0,17.7,4.8,20.1,10.8C1118.4,138.8,1113.3,143.8,1104.4,143.8z M1087.1,160.5c2.4,6.4-3,11.6-12.1,11.6
	c-9.1,0-18.2-5.2-20.4-11.6c-2.2-6.3,3.3-11.4,12.2-11.4C1075.6,149.1,1084.7,154.1,1087.1,160.5z M1064.9,143.8
	c-8.9,0-17.7-5-19.8-11.1c-2.1-6,3.3-10.8,12-10.8c8.7,0,17.5,4.8,19.8,10.8C1079,138.8,1073.7,143.8,1064.9,143.8z M1046.9,160.5
	c2.2,6.4-3.4,11.6-12.5,11.6c-9.1,0-18-5.2-20-11.6c-1.9-6.3,3.7-11.4,12.6-11.4C1035.9,149.1,1044.8,154.1,1046.9,160.5z
	 M1025.3,143.8c-8.9,0-17.6-5-19.4-11.1c-1.8-6,3.7-10.8,12.4-10.8c8.7,0,17.3,4.8,19.4,10.8
	C1039.6,138.8,1034.1,143.8,1025.3,143.8z M1006.7,160.5c1.9,6.4-3.9,11.6-12.9,11.6c-9.1,0-17.9-5.2-19.6-11.6
	c-1.7-6.3,4.1-11.4,13-11.4C996.1,149.1,1004.8,154.1,1006.7,160.5z M974.3,189.7c1.8,6.7-4.3,12.2-13.6,12.3
	c-9.3,0-18.2-5.5-19.8-12.3c-1.6-6.7,4.6-12,13.7-12C963.7,177.7,972.5,183,974.3,189.7z M953.2,172.1c-9.1,0-17.7-5.2-19.2-11.6
	c-1.5-6.3,4.5-11.4,13.4-11.4c8.9,0,17.4,5.1,19.1,11.4C968.2,166.9,962.3,172.1,953.2,172.1z M940.1,220.4
	c1.6,7.1-4.8,12.9-14.4,12.9s-18.5-5.8-19.9-12.9c-1.4-7,5.1-12.6,14.4-12.6C929.6,207.8,938.5,213.4,940.1,220.4z M910.7,287.1
	c1.5,7.9-5.4,14.4-15.5,14.4c-10.1,0-19.4-6.5-20.7-14.4c-1.3-7.8,5.7-14.1,15.6-14.1C899.9,273,909.1,279.3,910.7,287.1z
	 M888.9,266.5c-9.8,0-18.8-6.2-20-13.6c-1.2-7.4,5.6-13.3,15.2-13.3c9.6,0,18.6,5.9,20,13.3C905.5,260.3,898.7,266.5,888.9,266.5z
	 M882.9,233.3c-9.6,0-18.3-5.8-19.4-12.9c-1.2-7,5.5-12.6,14.9-12.6c9.4,0,18,5.6,19.4,12.6C899.1,227.5,892.5,233.3,882.9,233.3z
	 M850.9,308.5c10.2,0,19.4,6.6,20.8,14.9c1.3,8.4-6,15.3-16.4,15.3c-10.4,0-19.7-6.9-20.8-15.3C833.3,315.1,840.7,308.5,850.9,308.5
	z M856.3,346c10.5,0,20.1,7,21.5,15.8c1.4,8.9-6.1,16.2-16.9,16.2c-10.7,0-20.4-7.3-21.5-16.2C838.2,353,845.8,346,856.3,346z
	 M862,385.8c10.8,0,20.7,7.5,22.2,16.8c1.5,9.5-6.2,17.2-17.3,17.2c-11.1,0-21-7.8-22.3-17.2C843.4,393.3,851.2,385.8,862,385.8z
	 M880.4,323.4c-1.4-8.3,5.8-14.9,15.9-14.9c10.2,0,19.7,6.6,21.3,14.9c1.6,8.4-5.5,15.3-15.9,15.3
	C891.4,338.7,881.8,331.8,880.4,323.4z M903.1,346c10.5,0,20.3,7,22,15.8c1.7,8.9-5.6,16.2-16.3,16.2c-10.7,0-20.6-7.3-22.1-16.2
	C885.3,353,892.6,346,903.1,346z M910.2,385.8c10.8,0,21,7.5,22.8,16.8c1.8,9.5-5.6,17.2-16.7,17.2c-11.1,0-21.3-7.8-22.9-17.2
	C891.9,393.3,899.5,385.8,910.2,385.8z M926.5,323.4c-1.7-8.3,5.3-14.9,15.4-14.9c10.2,0,19.9,6.6,21.8,14.9
	c1.9,8.4-4.9,15.3-15.3,15.3C938,338.7,928.1,331.8,926.5,323.4z M949.9,346c10.5,0,20.6,7,22.6,15.8c2,8.9-5,16.2-15.7,16.2
	c-10.7,0-20.9-7.3-22.7-16.2C932.4,353,939.5,346,949.9,346z M958.5,385.8c10.8,0,21.2,7.5,23.4,16.8c2.2,9.5-5,17.2-16.1,17.2
	c-11.1,0-21.6-7.8-23.5-17.2C940.5,393.3,947.7,385.8,958.5,385.8z M967.6,428.1c11.1,0,22,8,24.3,17.9c2.3,10.1-5,18.4-16.5,18.4
	c-11.4,0-22.3-8.3-24.4-18.4C949.1,436.1,956.5,428.1,967.6,428.1z M991.2,402.6c-2.2-9.3,4.8-16.8,15.6-16.8
	c10.8,0,21.5,7.5,24,16.8c2.5,9.5-4.4,17.2-15.5,17.2C1004.2,419.8,993.5,412.1,991.2,402.6z M1017.4,428.1c11.1,0,22.2,8,24.9,17.9
	c2.7,10.1-4.4,18.4-15.8,18.4c-11.4,0-22.6-8.3-25-18.4C999.1,436.1,1006.3,428.1,1017.4,428.1z M1028.7,473.2
	c11.5,0,23,8.5,25.9,19.1c2.8,10.7-4.4,19.6-16.2,19.6c-11.8,0-23.4-8.9-26-19.6C1009.9,481.7,1017.2,473.2,1028.7,473.2z
	 M1051.9,446c-2.7-9.9,4.1-17.9,15.3-17.9c11.1,0,22.5,8,25.5,17.9c3,10.1-3.7,18.4-15.1,18.4C1066.1,464.4,1054.6,456.1,1051.9,446
	z M1080.1,473.2c11.5,0,23.3,8.5,26.5,19.1c3.2,10.7-3.7,19.6-15.5,19.6c-11.8,0-23.7-8.9-26.7-19.6
	C1061.6,481.6,1068.6,473.2,1080.1,473.2z M1102.3,446c-3-9.9,3.5-17.9,14.6-17.9c11.1,0,22.8,8,26.2,17.9
	c3.4,10.1-3.1,18.4-14.5,18.4C1117.2,464.4,1105.4,456.1,1102.3,446z M1131.5,473.2c11.5,0,23.6,8.5,27.2,19.1
	c3.6,10.7-3,19.6-14.8,19.6c-11.8,0-24.1-8.9-27.4-19.6C1113.3,481.6,1120,473.2,1131.5,473.2z M1152.7,446
	c-3.4-9.9,2.9-17.9,14-17.9c11.1,0,23.1,8,26.8,17.9c3.7,10.1-2.4,18.4-13.8,18.4C1168.3,464.4,1156.2,456.1,1152.7,446z
	 M1163.7,419.9c-11.1,0-22.7-7.8-25.9-17.2c-3.2-9.3,3-16.8,13.8-16.8c10.8,0,22.3,7.5,25.8,16.8
	C1180.9,412.1,1174.8,419.8,1163.7,419.9z M1148.8,378c-10.7,0-21.9-7.3-25-16.2c-3-8.8,3.1-15.8,13.5-15.8c10.5,0,21.6,7,24.9,15.8
	C1165.5,370.7,1159.5,378,1148.8,378z M1156.6,323.4c-3.2-8.3,2.6-14.9,12.8-14.9c10.2,0,21.1,6.6,24.5,14.9
	c3.4,8.4-2.2,15.3-12.6,15.3C1170.8,338.7,1159.8,331.8,1156.6,323.4z M1166.6,301.5c-10.1,0-20.8-6.5-23.8-14.4
	c-3-7.8,2.7-14.1,12.6-14.1c9.9,0,20.4,6.3,23.7,14.1C1182.3,295.1,1176.7,301.5,1166.6,301.5z M1152.8,266.5
	c-9.8,0-20.1-6.2-23-13.6c-2.8-7.4,2.7-13.3,12.4-13.3c9.6,0,19.8,5.9,22.9,13.3C1168.1,260.3,1162.6,266.5,1152.8,266.5z
	 M1159.8,220.4c-2.9-7,2.3-12.6,11.7-12.6c9.4,0,19.4,5.6,22.6,12.6c3.2,7.1-2,12.9-11.6,12.9C1173,233.3,1162.8,227.5,1159.8,220.4
	z M1169,201.9c-9.3,0-19.2-5.5-22-12.3c-2.8-6.7,2.4-12,11.5-12c9.1,0,18.9,5.3,21.8,12C1183.4,196.4,1178.3,201.9,1169,201.9z
	 M1175.1,160.5c-2.9-6.3,2.1-11.4,11-11.4c8.9,0,18.5,5.1,21.6,11.4c3.1,6.4-1.8,11.6-10.8,11.6
	C1187.7,172.1,1178,166.9,1175.1,160.5z M1183.6,143.8c-8.9,0-18.3-5-21-11.1c-2.7-6,2.1-10.8,10.8-10.8c8.7,0,18,4.8,20.9,10.8
	C1197.2,138.8,1192.5,143.8,1183.6,143.8z M1159.1,91.2c-8.4,0-17.3-4.5-19.8-10c-2.5-5.5,2.3-9.8,10.5-9.8c8.3,0,17.1,4.4,19.7,9.8
	C1172.2,86.7,1167.6,91.2,1159.1,91.2z M1143.4,106.3c2.6,5.8-2.3,10.5-11,10.5c-8.6,0-17.6-4.7-20-10.5c-2.4-5.7,2.6-10.3,11-10.3
	C1132,96,1140.8,100.6,1143.4,106.3z M1121.4,91.2c-8.4,0-17.1-4.5-19.4-10c-2.3-5.5,2.6-9.8,10.9-9.8c8.3,0,16.9,4.4,19.3,9.8
	C1134.7,86.7,1129.9,91.2,1121.4,91.2z M1105.2,106.3c2.4,5.8-2.7,10.5-11.3,10.5c-8.6,0-17.4-4.7-19.6-10.5
	c-2.2-5.7,2.9-10.3,11.4-10.3C1094.1,96,1102.8,100.6,1105.2,106.3z M1083.7,91.2c-8.4,0-17-4.5-19.1-10c-2.1-5.5,3-9.8,11.2-9.8
	c8.3,0,16.8,4.4,19,9.8C1097.1,86.7,1092.1,91.2,1083.7,91.2z M1066.9,106.3c2.2,5.8-3.1,10.5-11.7,10.5c-8.6,0-17.3-4.7-19.3-10.5
	c-2-5.7,3.3-10.3,11.8-10.3C1056.2,96,1064.8,100.6,1066.9,106.3z M1046,91.2c-8.4,0-16.8-4.5-18.7-10c-1.9-5.5,3.3-9.8,11.6-9.8
	c8.3,0,16.6,4.4,18.6,9.8C1059.6,86.7,1054.4,91.2,1046,91.2z M1028.7,106.3c1.9,5.8-3.5,10.5-12.1,10.5c-8.6,0-17.1-4.7-18.9-10.5
	c-1.8-5.7,3.7-10.3,12.1-10.3C1018.3,96,1026.7,100.6,1028.7,106.3z M998.4,132.7c1.8,6.1-3.8,11.1-12.7,11.1c-8.9,0-17.4-5-19-11.1
	c-1.6-6,4.1-10.8,12.8-10.8C988.1,121.9,996.5,126.7,998.4,132.7z M978,116.8c-8.6,0-16.9-4.7-18.5-10.5c-1.6-5.7,4-10.3,12.5-10.3
	c8.5,0,16.7,4.6,18.4,10.3C992.2,112.1,986.6,116.8,978,116.8z M946.1,143.8c-8.9,0-17.2-5-18.6-11.1c-1.4-6,4.5-10.8,13.1-10.8
	c8.7,0,17,4.8,18.6,10.8C960.8,138.8,954.9,143.8,946.1,143.8z M933,189.7c1.5,6.7-4.7,12.2-14.1,12.3c-9.3,0-18-5.5-19.3-12.3
	c-1.3-6.7,5-12,14.1-12C922.9,177.7,931.5,183,933,189.7z M912.6,172.1c-9.1,0-17.5-5.2-18.8-11.6c-1.3-6.3,4.9-11.4,13.8-11.4
	c8.9,0,17.3,5.1,18.7,11.4C927.8,166.9,921.7,172.1,912.6,172.1z M906.5,143.8c-8.8,0-17-5-18.2-11.1c-1.2-6,4.9-10.8,13.5-10.8
	c8.7,0,16.8,4.8,18.2,10.8C921.3,138.8,915.3,143.8,906.5,143.8z M891.8,189.7c1.3,6.7-5.2,12.2-14.5,12.3
	c-9.3,0-17.8-5.5-18.9-12.3c-1.1-6.7,5.4-12,14.5-12C882.1,177.7,890.5,183,891.8,189.7z M872,172.1c-9.1,0-17.3-5.2-18.3-11.6
	c-1-6.3,5.3-11.4,14.2-11.4c8.9,0,17.1,5.1,18.3,11.4C887.4,166.9,881,172.1,872,172.1z M866.9,143.8c-8.9,0-16.8-5-17.8-11.1
	c-1-6,5.2-10.8,13.9-10.8c8.7,0,16.6,4.8,17.8,10.8C881.9,138.8,875.7,143.8,866.9,143.8z M850.6,189.7c1.1,6.7-5.6,12.2-14.9,12.3
	c-9.3,0-17.6-5.5-18.5-12.3c-0.9-6.7,5.8-12,15-12C841.3,177.7,849.5,183,850.6,189.7z M831.4,172.1c-9.1,0-17.1-5.2-17.9-11.6
	c-0.8-6.3,5.7-11.4,14.6-11.4c8.9,0,16.9,5.1,17.9,11.4C847,166.9,840.4,172.1,831.4,172.1z M801.6,273c9.9,0,18.7,6.3,19.6,14.1
	c1,7.9-6.4,14.4-16.6,14.4c-10.1,0-18.9-6.5-19.7-14.4C784.3,279.3,791.7,273,801.6,273z M805.4,308.5c10.2,0,19.2,6.6,20.2,14.9
	c1,8.4-6.6,15.3-17,15.3c-10.4,0-19.5-6.9-20.3-15.3C787.6,315.1,795.2,308.5,805.4,308.5z M809.4,346c10.5,0,19.8,7,20.9,15.8
	c1.1,8.9-6.7,16.2-17.4,16.2c-10.7,0-20.1-7.3-20.9-16.2C791.2,353,799,346,809.4,346z M813.7,385.8c10.8,0,20.4,7.5,21.6,16.8
	c1.1,9.5-6.9,17.2-17.9,17.2c-11.1,0-20.7-7.8-21.6-17.2C794.9,393.3,802.9,385.8,813.7,385.8z M818.3,428.1
	c11.1,0,21.1,8,22.3,17.9c1.2,10.1-7,18.4-18.4,18.4c-11.4,0-21.4-8.3-22.4-18.4C798.9,436.1,807.1,428.1,818.3,428.1z M823.1,473.2
	c11.5,0,21.8,8.5,23.1,19.1c1.3,10.7-7.2,19.6-19,19.6c-11.8,0-22.2-8.9-23.2-19.6C803.1,481.7,811.6,473.2,823.1,473.2z
	 M828.3,521.3c11.9,0,22.6,9.1,24,20.4c1.4,11.5-7.3,21-19.5,21c-12.2,0-23-9.5-24-21C807.6,530.3,816.4,521.3,828.3,521.3z
	 M850.2,446c-1.3-9.9,6.7-17.9,17.8-17.9c11.1,0,21.4,8,23,17.9c1.6,10.1-6.4,18.4-17.8,18.4C861.8,464.4,851.5,456.1,850.2,446z
	 M874.5,473.2c11.5,0,22.1,8.5,23.8,19.1c1.7,10.7-6.5,19.6-18.3,19.6c-11.8,0-22.5-8.9-23.9-19.6
	C854.8,481.7,863,473.2,874.5,473.2z M881.4,521.3c11.9,0,22.9,9.1,24.7,20.4c1.8,11.5-6.6,21-18.8,21c-12.2,0-23.3-9.5-24.8-21
	C861.1,530.3,869.5,521.3,881.4,521.3z M900.6,446c-1.6-9.9,6.1-17.9,17.2-17.9c11.1,0,21.7,8,23.6,17.9
	c1.9,10.1-5.7,18.4-17.1,18.4C912.9,464.4,902.3,456.1,900.6,446z M925.9,473.2c11.5,0,22.4,8.5,24.5,19.1
	c2.1,10.7-5.8,19.6-17.6,19.6c-11.8,0-22.8-8.9-24.6-19.6C906.5,481.7,914.4,473.2,925.9,473.2z M934.5,521.3
	c11.9,0,23.3,9.1,25.5,20.4c2.2,11.5-5.8,21-18,21c-12.2,0-23.6-9.5-25.5-21C914.5,530.3,922.6,521.3,934.5,521.3z M960.3,492.3
	c-2.1-10.6,5.5-19.1,17-19.1c11.5,0,22.7,8.5,25.2,19.1c2.5,10.7-5.1,19.6-16.9,19.6C973.8,511.8,962.5,503,960.3,492.3z
	 M987.6,521.3c11.9,0,23.6,9.1,26.2,20.4c2.6,11.5-5.1,21-17.3,21c-12.2,0-24-9.5-26.3-21C967.9,530.3,975.7,521.3,987.6,521.3z
	 M998.7,572.7c12.3,0,24.5,9.7,27.3,21.8c2.8,12.3-5.1,22.5-17.7,22.5c-12.6,0-24.9-10.1-27.4-22.5
	C978.4,582.4,986.4,572.7,998.7,572.7z M1024.1,541.7c-2.7-11.3,4.8-20.4,16.7-20.4c11.9,0,23.9,9.1,26.9,20.4
	c3,11.5-4.3,21-16.5,21C1038.9,562.6,1026.8,553.1,1024.1,541.7z M1053.6,572.7c12.3,0,24.8,9.7,28,21.8
	c3.3,12.3-4.3,22.5-16.9,22.5c-12.6,0-25.3-10.2-28.2-22.5C1033.7,582.4,1041.3,572.7,1053.6,572.7z M1077.9,541.7
	c-3.1-11.3,4.1-20.4,16-20.4c11.9,0,24.2,9.1,27.6,20.4c3.4,11.5-3.6,21-15.8,21C1093.5,562.6,1081,553.1,1077.9,541.7z
	 M1108.6,572.7c12.3,0,25.1,9.7,28.8,21.8c3.7,12.3-3.5,22.5-16.1,22.5c-12.7,0-25.6-10.2-29-22.5
	C1089,582.4,1096.3,572.7,1108.6,572.7z M1131.7,541.7c-3.5-11.3,3.3-20.4,15.2-20.4c11.9,0,24.5,9.1,28.4,20.4
	c3.9,11.5-2.8,21-15,21C1148.1,562.6,1135.3,553.1,1131.7,541.7z M1163.5,572.7c12.3,0,25.5,9.7,29.6,21.8
	c4.1,12.3-2.7,22.5-15.3,22.5s-26-10.2-29.8-22.5C1144.3,582.4,1151.3,572.7,1163.5,572.7z M1185.6,541.7
	c-3.9-11.3,2.6-20.4,14.5-20.4c11.9,0,24.9,9.1,29.1,20.4c4.3,11.5-2.1,21-14.3,21C1202.7,562.6,1189.6,553.1,1185.6,541.7z
	 M1196.7,511.9c-11.8,0-24.4-8.9-28.1-19.6c-3.6-10.6,2.8-19.1,14.2-19.1c11.5,0,24,8.5,27.9,19.1
	C1214.8,503,1208.5,511.8,1196.7,511.9z M1203.1,446c-3.8-9.9,2.2-17.9,13.4-17.9c11.1,0,23.4,8,27.5,17.9
	c4.1,10.1-1.8,18.4-13.2,18.4C1219.4,464.4,1207,456.1,1203.1,446z M1213.2,419.9c-11.1,0-23-7.8-26.6-17.2
	c-3.5-9.3,2.4-16.8,13.2-16.8c10.8,0,22.6,7.5,26.4,16.8C1230.1,412.1,1224.3,419.8,1213.2,419.9z M1196.7,378
	c-10.7,0-22.2-7.3-25.6-16.2c-3.3-8.8,2.5-15.8,13-15.8c10.5,0,21.8,7,25.4,15.8C1213.2,370.7,1207.5,378,1196.7,378z M1202.6,323.4
	c-3.4-8.3,2-14.9,12.2-14.9c10.2,0,21.3,6.6,25,14.9c3.7,8.4-1.7,15.3-12.1,15.3C1217.4,338.7,1206.1,331.8,1202.6,323.4z
	 M1211.9,301.5c-10.1,0-21-6.5-24.3-14.4c-3.3-7.8,2.2-14.1,12.1-14.1c9.9,0,20.7,6.3,24.2,14.1
	C1227.3,295.1,1222,301.5,1211.9,301.5z M1196.8,266.5c-9.8,0-20.4-6.2-23.5-13.6c-3.1-7.4,2.3-13.3,11.9-13.3c9.6,0,20,6,23.3,13.3
	C1211.8,260.4,1206.6,266.5,1196.8,266.5z M1202.2,220.4c-3.2-7,1.9-12.6,11.2-12.6c9.4,0,19.7,5.6,23,12.6
	c3.4,7.1-1.6,12.9-11.1,12.9C1215.8,233.3,1205.4,227.5,1202.2,220.4z M1210.7,201.9c-9.3,0-19.3-5.5-22.4-12.3c-3-6.7,2-12,11.1-12
	c9.1,0,19.1,5.3,22.3,12C1224.9,196.4,1220,201.9,1210.7,201.9z M1215.3,160.5c-3.1-6.3,1.7-11.4,10.5-11.4c8.9,0,18.7,5.1,22,11.4
	c3.3,6.4-1.4,11.6-10.4,11.6C1228.3,172.1,1218.4,166.9,1215.3,160.5z M1223.2,143.8c-8.8,0-18.5-5-21.4-11.1
	c-2.9-6,1.8-10.8,10.4-10.8c8.7,0,18.2,4.8,21.3,10.8C1236.7,138.8,1232.1,143.8,1223.2,143.8z M1209.7,116.8
	c-8.6,0-17.9-4.7-20.8-10.5c-2.8-5.7,1.8-10.3,10.3-10.3c8.5,0,17.7,4.6,20.7,10.3C1222.9,112.1,1218.3,116.8,1209.7,116.8z
	 M1214,81.1c-2.9-5.5,1.6-9.8,9.8-9.8c8.3,0,17.4,4.4,20.4,9.8c3,5.5-1.3,10-9.7,10C1226.1,91.2,1216.9,86.7,1214,81.1z
	 M1208.9,43.4c-8,0-16.7-4.1-19.4-9.2c-2.6-5,1.7-9,9.6-9c7.9,0,16.5,4,19.3,9C1221.1,39.2,1216.9,43.4,1208.9,43.4z M1194.5,57.1
	c2.7,5.3-1.7,9.6-10,9.6c-8.2,0-17-4.3-19.6-9.6c-2.5-5.2,2-9.4,10-9.4C1183.1,47.7,1191.9,51.9,1194.5,57.1z M1172.9,43.4
	c-8,0-16.6-4.1-19-9.2c-2.4-5,2-9,9.9-9c7.9,0,16.4,4,18.9,9C1185.3,39.3,1180.9,43.4,1172.9,43.4z M1158.1,57.1
	c2.5,5.3-2.1,9.6-10.3,9.6c-8.2,0-16.9-4.3-19.2-9.6c-2.4-5.2,2.3-9.4,10.4-9.4C1147,47.7,1155.6,51.9,1158.1,57.1z M1136.9,43.4
	c-8,0-16.4-4.1-18.7-9.2c-2.3-5,2.4-9,10.2-9c7.9,0,16.2,4,18.6,9C1149.5,39.2,1144.9,43.4,1136.9,43.4z M1121.6,57.1
	c2.3,5.3-2.4,9.6-10.6,9.6c-8.2,0-16.7-4.3-18.9-9.6c-2.2-5.2,2.6-9.4,10.7-9.4C1110.8,47.7,1119.2,51.9,1121.6,57.1z M1100.9,43.4
	c-8,0-16.3-4.1-18.4-9.2c-2.1-5,2.7-9,10.6-9c7.9,0,16.1,4,18.3,9C1113.6,39.3,1108.9,43.4,1100.9,43.4z M1085.1,57.1
	c2.1,5.3-2.8,9.6-11,9.6c-8.2,0-16.5-4.3-18.5-9.6c-2-5.2,3-9.4,11.1-9.4C1074.7,47.7,1082.9,51.9,1085.1,57.1z M1064.9,43.4
	c-8,0-16.1-4.1-18-9.2c-1.9-5,3-9,10.9-9c7.9,0,15.9,4,18,9C1077.8,39.3,1072.9,43.4,1064.9,43.4z M1048.6,57.1
	c2,5.3-3.1,9.6-11.3,9.6c-8.2,0-16.4-4.3-18.2-9.6c-1.8-5.2,3.3-9.4,11.4-9.4C1038.5,47.7,1046.6,51.9,1048.6,57.1z M1020.2,81.1
	c1.9,5.5-3.5,10-11.9,10c-8.4,0-16.6-4.5-18.4-10c-1.7-5.5,3.7-9.8,11.9-9.8C1010.2,71.3,1018.3,75.7,1020.2,81.1z M1000.4,66.7
	c-8.2,0-16.2-4.3-17.9-9.6c-1.6-5.2,3.7-9.4,11.7-9.4c8.1,0,16,4.2,17.8,9.4C1013.9,62.4,1008.7,66.7,1000.4,66.7z M982.8,81.1
	c1.7,5.5-3.8,10-12.2,10c-8.4,0-16.5-4.5-18-10c-1.5-5.5,4-9.8,12.3-9.8C973.2,71.3,981.2,75.7,982.8,81.1z M963.6,66.7
	c-8.2,0-16.1-4.3-17.5-9.6c-1.4-5.2,4-9.4,12.1-9.4c8.1,0,15.9,4.2,17.5,9.4C977.2,62.4,971.8,66.7,963.6,66.7z M952.2,106.3
	c1.5,5.8-4.2,10.5-12.8,10.5c-8.6,0-16.7-4.7-18.1-10.5c-1.4-5.7,4.4-10.3,12.9-10.3C942.6,96,950.6,100.6,952.2,106.3z M932.9,91.2
	c-8.4,0-16.3-4.5-17.6-10c-1.3-5.5,4.4-9.8,12.7-9.8c8.3,0,16.1,4.4,17.6,9.8C946.9,86.7,941.3,91.2,932.9,91.2z M926.8,66.7
	c-8.2,0-15.9-4.3-17.2-9.6c-1.2-5.2,4.3-9.4,12.4-9.4c8.1,0,15.7,4.2,17.1,9.4C940.5,62.4,935,66.7,926.8,66.7z M913.9,106.3
	c1.3,5.8-4.6,10.5-13.2,10.5c-8.6,0-16.6-4.7-17.8-10.5c-1.1-5.7,4.8-10.3,13.3-10.3C904.7,96,912.6,100.6,913.9,106.3z M895.2,91.2
	c-8.4,0-16.2-4.5-17.3-10c-1.1-5.5,4.7-9.8,13-9.8c8.3,0,16,4.4,17.2,9.8C909.4,86.7,903.6,91.2,895.2,91.2z M889.9,66.7
	c-8.2,0-15.8-4.3-16.8-9.6c-1-5.2,4.7-9.4,12.7-9.4c8.1,0,15.6,4.2,16.8,9.4C903.8,62.4,898.2,66.7,889.9,66.7z M875.7,106.3
	c1.1,5.8-5,10.5-13.6,10.5c-8.6,0-16.4-4.7-17.4-10.5c-0.9-5.7,5.2-10.3,13.6-10.3C866.8,96,874.6,100.6,875.7,106.3z M857.5,91.2
	c-8.4,0-16-4.5-16.9-10c-0.9-5.5,5.1-9.8,13.3-9.8c8.3,0,15.8,4.4,16.9,9.8C871.9,86.7,865.9,91.2,857.5,91.2z M841.6,132.7
	c1,6.1-5.4,11.1-14.3,11.1c-8.9,0-16.7-5-17.4-11.1c-0.8-6,5.6-10.8,14.3-10.8C832.8,121.9,840.6,126.7,841.6,132.7z M823.4,116.8
	c-8.6,0-16.2-4.7-17-10.5c-0.7-5.7,5.5-10.3,14-10.3c8.5,0,16.1,4.6,17,10.3C838.3,112.1,832.1,116.8,823.4,116.8z M819.8,91.2
	c-8.4,0-15.8-4.5-16.6-10c-0.7-5.5,5.4-9.8,13.7-9.8c8.3,0,15.7,4.4,16.5,9.8C834.3,86.7,828.2,91.2,819.8,91.2z M805.8,160.5
	c0.8,6.4-5.9,11.6-15,11.6c-9.1,0-16.9-5.2-17.5-11.6c-0.6-6.3,6.2-11.4,15-11.4C797.2,149.1,805,154.1,805.8,160.5z M787.7,143.8
	c-8.8,0-16.5-5-17-11.1c-0.6-6,6-10.8,14.7-10.8c8.7,0,16.3,4.8,17,10.8C803.1,138.8,796.6,143.8,787.7,143.8z M784.8,116.8
	c-8.6,0-16.1-4.7-16.6-10.5c-0.5-5.7,5.9-10.3,14.4-10.3c8.5,0,15.9,4.6,16.6,10.3C799.9,112.1,793.4,116.8,784.8,116.8z M755,239.5
	c9.6,0,17.9,5.9,18.6,13.3c0.6,7.5-6.8,13.6-16.6,13.6c-9.8,0-18.1-6.2-18.6-13.6C737.9,245.5,745.4,239.5,755,239.5z M757.4,273
	c9.9,0,18.4,6.3,19.1,14.1c0.7,7.9-7,14.4-17.1,14.4c-10.1,0-18.7-6.5-19.1-14.4C739.8,279.3,747.5,273,757.4,273z M759.9,308.5
	c10.2,0,19,6.6,19.7,14.9c0.7,8.4-7.1,15.3-17.5,15.3c-10.4,0-19.2-6.9-19.7-15.3C741.9,315.1,749.7,308.5,759.9,308.5z M762.6,346
	c10.5,0,19.6,7,20.3,15.8c0.8,8.9-7.3,16.2-18,16.2c-10.7,0-19.8-7.3-20.3-16.2C744.1,353,752.1,346,762.6,346z M765.5,385.8
	c10.8,0,20.2,7.5,21,16.8c0.8,9.5-7.5,17.2-18.5,17.2c-11.1,0-20.5-7.8-21-17.2C746.4,393.3,754.7,385.8,765.5,385.8z M768.5,428.1
	c11.1,0,20.8,8,21.7,17.9c0.9,10.1-7.7,18.4-19.1,18.4c-11.4,0-21.1-8.3-21.7-18.4C748.8,436.1,757.4,428.1,768.5,428.1z
	 M771.7,473.2c11.5,0,21.5,8.5,22.4,19.1c0.9,10.7-7.9,19.6-19.7,19.6c-11.8,0-21.9-8.9-22.5-19.6
	C751.4,481.7,760.2,473.2,771.7,473.2z M778.8,572.7c12.3,0,23.1,9.7,24.1,21.8c1,12.3-8.3,22.5-20.9,22.5
	c-12.6,0-23.5-10.1-24.2-22.5C757.2,582.4,766.6,572.7,778.8,572.7z M782.8,627.8c12.7,0,23.9,10.4,25.1,23.4
	c1.1,13.3-8.5,24.2-21.6,24.2s-24.3-10.9-25.1-24.2C760.4,638.2,770.1,627.8,782.8,627.8z M790.7,738.3c-13.6,0-25.3-11.8-26.1-26
	c-0.8-14,9.3-25.2,22.5-25.2c13.2,0,24.9,11.2,26.1,25.2C814.3,726.5,804.3,738.3,790.7,738.3z M833.8,572.7
	c12.3,0,23.4,9.7,24.9,21.8c1.5,12.3-7.5,22.5-20.1,22.5c-12.6,0-23.8-10.1-25-22.5C812.5,582.4,821.5,572.7,833.8,572.7z
	 M818.9,651.2c-1.2-13,8.1-23.4,20.9-23.4c12.7,0,24.3,10.4,25.9,23.4c1.6,13.3-7.7,24.2-20.8,24.2
	C831.7,675.4,820.1,664.5,818.9,651.2z M851.6,738.3c-13.6,0-25.7-11.8-27.1-26c-1.3-14,8.4-25.2,21.6-25.2
	c13.2,0,25.3,11.2,27,25.2C874.8,726.5,865.2,738.3,851.6,738.3z M869.3,594.5c-1.6-12.2,7.1-21.8,19.4-21.8
	c12.3,0,23.8,9.7,25.7,21.8c1.9,12.3-6.7,22.5-19.3,22.5C882.5,617,870.9,606.8,869.3,594.5z M876.6,651.2c-1.7-13,7.3-23.4,20-23.4
	c12.7,0,24.7,10.4,26.7,23.4c2.1,13.3-6.8,24.2-19.9,24.2C890.4,675.4,878.3,664.5,876.6,651.2z M912.5,738.3
	c-13.6,0-26.1-11.8-28-26c-1.8-14,7.4-25.2,20.7-25.2c13.2,0,25.7,11.2,27.9,25.2C935.3,726.5,926.1,738.3,912.5,738.3z
	 M925.1,594.5c-2-12.2,6.4-21.8,18.6-21.8c12.3,0,24.1,9.7,26.5,21.8c2.4,12.3-5.9,22.5-18.5,22.5C939,617,927.1,606.8,925.1,594.5z
	 M934.4,651.2c-2.1-13,6.5-23.4,19.2-23.4c12.7,0,25.1,10.4,27.6,23.4c2.6,13.3-5.9,24.2-19.1,24.2
	C949,675.4,936.6,664.5,934.4,651.2z M973.4,738.3c-13.6,0-26.6-11.8-28.9-26c-2.3-14,6.5-25.2,19.7-25.2
	c13.2,0,26.1,11.2,28.8,25.2C995.7,726.5,987,738.3,973.4,738.3z M992.2,651.2c-2.6-13,5.6-23.4,18.4-23.4
	c12.7,0,25.4,10.4,28.4,23.4c3,13.3-5.1,24.2-18.2,24.2C1007.6,675.4,994.8,664.5,992.2,651.2z M1034.3,738.3
	c-13.6,0-27-11.8-29.9-26c-2.8-14,5.6-25.2,18.8-25.2c13.2,0,26.5,11.2,29.7,25.2C1056.2,726.5,1047.9,738.3,1034.3,738.3z
	 M1049.9,651.2c-3.1-13,4.8-23.4,17.5-23.4c12.7,0,25.8,10.4,29.3,23.4c3.5,13.3-4.2,24.2-17.3,24.2
	C1066.3,675.4,1053.1,664.5,1049.9,651.2z M1095.1,738.3c-13.6,0-27.4-11.8-30.8-26c-3.3-14,4.7-25.2,17.9-25.2
	c13.2,0,26.9,11.2,30.6,25.2C1116.7,726.5,1108.8,738.3,1095.1,738.3z M1107.7,651.2c-3.5-13,3.9-23.4,16.7-23.4
	c12.7,0,26.2,10.4,30.1,23.4c4,13.3-3.3,24.2-16.5,24.2C1124.9,675.4,1111.3,664.5,1107.7,651.2z M1156,738.3
	c-13.6,0-27.8-11.8-31.7-26c-3.8-14,3.8-25.2,17-25.2c13.2,0,27.2,11.2,31.5,25.2C1177.1,726.5,1169.7,738.3,1156,738.3z
	 M1165.5,651.2c-4-13,3.1-23.4,15.8-23.4c12.7,0,26.6,10.4,30.9,23.4c4.5,13.3-2.5,24.2-15.6,24.2
	C1183.5,675.4,1169.6,664.5,1165.5,651.2z M1216.9,738.3c-13.6,0-28.2-11.8-32.7-26c-4.3-14,2.9-25.2,16.1-25.2
	c13.2,0,27.7,11.2,32.4,25.2C1237.6,726.5,1230.5,738.3,1216.9,738.3z M1270,651.2c4.9,13.3-1.6,24.2-14.7,24.2
	c-13.1,0-27.5-10.9-32-24.2c-4.5-13,2.3-23.4,15-23.4C1251,627.8,1265.2,638.2,1270,651.2z M1248.9,594.5
	c4.6,12.3-1.9,22.5-14.5,22.5c-12.6,0-26.4-10.2-30.6-22.5c-4.2-12.2,2.4-21.8,14.7-21.8C1230.8,572.7,1244.4,582.4,1248.9,594.5z
	 M1262.8,492.3c4.4,10.7-1.6,19.6-13.4,19.6c-11.8,0-24.7-8.9-28.8-19.6c-4-10.6,2.1-19.1,13.6-19.1
	C1245.7,473.2,1258.5,481.7,1262.8,492.3z M1275.1,402.6c4.2,9.5-1.3,17.2-12.4,17.2c-11.1,0-23.2-7.8-27.2-17.2
	c-3.9-9.3,1.8-16.8,12.6-16.8C1258.9,385.8,1270.9,393.3,1275.1,402.6z M1257,361.8c4,8.9-1.5,16.2-12.2,16.2
	c-10.7,0-22.4-7.3-26.2-16.2c-3.6-8.8,1.9-15.8,12.4-15.8C1241.4,346,1253,353,1257,361.8z M1268.5,287.1
	c3.8,7.9-1.3,14.4-11.4,14.4c-10.1,0-21.2-6.5-24.8-14.4c-3.6-7.8,1.7-14.1,11.5-14.1C1253.7,273,1264.7,279.3,1268.5,287.1z
	 M1252,252.8c3.6,7.5-1.4,13.6-11.3,13.6c-9.8,0-20.6-6.1-24-13.6c-3.3-7.4,1.8-13.3,11.4-13.3
	C1237.8,239.5,1248.5,245.5,1252,252.8z M1262.9,189.7c3.5,6.7-1.2,12.2-10.5,12.3c-9.3,0-19.6-5.5-22.8-12.3
	c-3.2-6.7,1.6-12,10.7-12C1249.3,177.7,1259.5,183,1262.9,189.7z M1272.7,132.7c3.3,6.1-1.1,11.1-9.9,11.1c-8.9,0-18.6-5-21.8-11.1
	c-3.1-6,1.4-10.8,10-10.8C1259.7,121.9,1269.4,126.7,1272.7,132.7z M1258.2,106.3c3.2,5.8-1.2,10.5-9.8,10.5
	c-8.6,0-18.1-4.7-21.1-10.5c-3-5.7,1.5-10.3,9.9-10.3C1245.6,96,1255,100.6,1258.2,106.3z M1267.5,57.1c3.1,5.3-1,9.6-9.3,9.6
	c-8.2,0-17.3-4.3-20.3-9.6c-2.9-5.2,1.3-9.4,9.4-9.4C1255.4,47.7,1264.5,51.9,1267.5,57.1z M1256.7,3.7c7.7,0,16.4,3.8,19.4,8.6
	c3,4.8-0.9,8.7-8.8,8.8c-7.9,0-16.6-3.9-19.4-8.8C1245,7.5,1249,3.7,1256.7,3.7z M1222.1,3.7c7.7,0,16.3,3.8,19.1,8.6
	c2.8,4.8-1.2,8.7-9.1,8.8c-7.9,0-16.4-3.9-19.1-8.8C1210.3,7.5,1214.4,3.7,1222.1,3.7z M1187.5,3.7c7.7,0,16.1,3.8,18.7,8.6
	c2.6,4.8-1.5,8.7-9.4,8.8c-7.9,0-16.3-3.9-18.8-8.8C1175.5,7.5,1179.8,3.7,1187.5,3.7z M1153,3.7c7.7,0,16,3.8,18.4,8.6
	c2.5,4.8-1.9,8.7-9.7,8.8c-7.9,0-16.2-3.9-18.5-8.8C1140.8,7.5,1145.2,3.7,1153,3.7z M1118.4,3.7c7.7,0,15.8,3.8,18.1,8.6
	c2.3,4.8-2.2,8.7-10,8.8c-7.9,0-16-3.9-18.2-8.8C1106.1,7.5,1110.7,3.7,1118.4,3.7z M1083.8,3.7c7.7,0,15.7,3.8,17.8,8.6
	c2.1,4.8-2.5,8.7-10.3,8.8c-7.9,0-15.9-3.9-17.9-8.8C1071.4,7.5,1076.1,3.7,1083.8,3.7z M1049.2,3.7c7.7,0,15.6,3.8,17.5,8.6
	c2,4.8-2.8,8.7-10.7,8.8c-7.9,0-15.7-3.9-17.6-8.8C1036.7,7.5,1041.5,3.7,1049.2,3.7z M1040,34.2c1.9,5-3.1,9.2-11.2,9.2
	c-8,0-16-4.1-17.7-9.2c-1.7-5,3.3-9,11.2-9C1030.3,25.2,1038.2,29.2,1040,34.2z M1014.7,3.7c7.7,0,15.4,3.8,17.2,8.6
	c1.8,4.8-3.1,8.7-11,8.8c-7.9,0-15.6-3.9-17.3-8.8C1002,7.5,1006.9,3.7,1014.7,3.7z M1004.4,34.2c1.7,5-3.4,9.2-11.5,9.2
	c-8,0-15.8-4.1-17.4-9.2c-1.5-5,3.6-9,11.5-9C994.9,25.2,1002.7,29.2,1004.4,34.2z M980.1,3.7c7.7,0,15.3,3.8,16.9,8.6
	c1.6,4.8-3.4,8.7-11.3,8.8c-7.9,0-15.5-3.9-16.9-8.8C967.3,7.5,972.4,3.7,980.1,3.7z M968.7,34.2c1.5,5-3.8,9.2-11.8,9.2
	c-8.1,0-15.7-4.1-17.1-9.2c-1.3-5,4-9,11.9-9C959.6,25.2,967.2,29.2,968.7,34.2z M945.5,3.7c7.7,0,15.1,3.8,16.6,8.6
	c1.4,4.8-3.7,8.7-11.6,8.8c-7.9,0-15.3-3.9-16.6-8.8C932.6,7.5,937.8,3.7,945.5,3.7z M933,34.2c1.3,5-4.1,9.2-12.1,9.2
	c-8.1,0-15.5-4.1-16.7-9.2c-1.2-5,4.3-9,12.2-9C924.3,25.2,931.7,29.2,933,34.2z M911,3.7c7.7,0,15,3.8,16.3,8.6
	c1.3,4.8-4.1,8.7-11.9,8.8c-7.9,0-15.2-3.9-16.3-8.8C897.9,7.5,903.2,3.7,911,3.7z M897.4,34.2c1.1,5-4.4,9.2-12.5,9.2
	c-8,0-15.4-4.1-16.4-9.2c-1-5,4.6-9,12.5-9C888.9,25.2,896.2,29.2,897.4,34.2z M876.4,3.7c7.7,0,14.9,3.8,16,8.6
	c1.1,4.8-4.4,8.7-12.2,8.8c-7.9,0-15-3.9-16-8.8C863.1,7.5,868.7,3.7,876.4,3.7z M866.1,57.1c1,5.3-4.8,9.6-13.1,9.6
	c-8.2,0-15.6-4.3-16.5-9.6c-0.9-5.2,5-9.4,13.1-9.4C857.8,47.7,865.1,51.9,866.1,57.1z M861.7,34.2c1,5-4.8,9.2-12.8,9.2
	c-8,0-15.2-4.1-16.1-9.2c-0.8-5,4.9-9,12.8-9C853.6,25.2,860.7,29.2,861.7,34.2z M841.8,3.7c7.7,0,14.7,3.8,15.7,8.6
	c0.9,4.8-4.7,8.7-12.6,8.8c-7.9,0-14.9-3.9-15.7-8.8C828.4,7.5,834.1,3.7,841.8,3.7z M829.7,57.1c0.8,5.3-5.2,9.6-13.4,9.6
	c-8.2,0-15.5-4.3-16.1-9.6c-0.7-5.2,5.3-9.4,13.4-9.4C821.6,47.7,828.8,51.9,829.7,57.1z M826,34.2c0.8,5-5.1,9.2-13.1,9.2
	c-8.1,0-15.1-4.1-15.8-9.2c-0.6-5,5.2-9,13.2-9C818.2,25.2,825.2,29.2,826,34.2z M807.2,3.7c7.7,0,14.6,3.8,15.3,8.6
	c0.8,4.8-5,8.7-12.9,8.8c-7.9,0-14.8-3.9-15.4-8.8C793.7,7.5,799.5,3.7,807.2,3.7z M796.1,81.1c0.7,5.5-5.6,10-14,10
	c-8.4,0-15.7-4.5-16.2-10c-0.5-5.5,5.8-9.8,14.1-9.8C788.2,71.3,795.4,75.7,796.1,81.1z M793.2,57.1c0.6,5.3-5.5,9.6-13.7,9.6
	c-8.2,0-15.3-4.3-15.8-9.6c-0.5-5.2,5.7-9.4,13.8-9.4C785.5,47.7,792.5,51.9,793.2,57.1z M790.4,34.2c0.6,5-5.4,9.2-13.4,9.2
	c-8,0-14.9-4.1-15.4-9.2c-0.5-5,5.6-9,13.5-9C782.9,25.2,789.8,29.2,790.4,34.2z M772.7,3.7c7.7,0,14.5,3.8,15,8.6
	c0.6,4.8-5.3,8.7-13.2,8.8c-7.9,0-14.6-3.9-15.1-8.8C759,7.5,764.9,3.7,772.7,3.7z M744.3,91.2c-8.4,0-15.5-4.5-15.8-10
	c-0.3-5.5,6.1-9.8,14.4-9.8c8.3,0,15.3,4.4,15.8,9.8C759.2,86.7,752.8,91.2,744.3,91.2z M742.6,66.7c-8.2,0-15.1-4.3-15.4-9.6
	c-0.3-5.2,6-9.4,14.1-9.4c8.1,0,15,4.2,15.4,9.4C757.1,62.4,750.8,66.7,742.6,66.7z M740.9,43.4c-8,0-14.8-4.1-15.1-9.2
	c-0.3-5,5.9-9,13.8-9c7.9,0,14.6,4,15.1,9C755.1,39.2,749,43.4,740.9,43.4z M738.1,3.7c7.7,0,14.3,3.8,14.7,8.6
	c0.4,4.8-5.6,8.7-13.5,8.8c-7.9,0-14.5-3.9-14.7-8.8C724.3,7.5,730.4,3.7,738.1,3.7z M725.4,160.5c0.3,6.4-6.8,11.6-15.9,11.6
	c-9.1,0-16.5-5.2-16.7-11.6c-0.1-6.3,7-11.4,15.9-11.4C717.6,149.1,725.1,154.1,725.4,160.5z M708.5,143.8c-8.9,0-16.1-5-16.3-11.1
	c-0.1-6,6.8-10.8,15.5-10.8c8.7,0,15.9,4.8,16.3,10.8C724.3,138.8,717.4,143.8,708.5,143.8z M668.9,521.3c11.9,0,21.6,9.1,21.8,20.4
	c0.2,11.5-9.6,21-21.8,21c-12.2,0-21.9-9.5-21.8-21C647.3,530.3,657.1,521.3,668.9,521.3z M647.9,492.3c0.2-10.6,9.6-19.1,21.1-19.1
	c11.5,0,20.9,8.5,21.1,19.1c0.1,10.7-9.3,19.6-21.1,19.6C657.1,511.8,647.7,503,647.9,492.3z M668.9,572.7
	c12.3,0,22.4,9.7,22.6,21.8c0.2,12.3-9.9,22.5-22.6,22.5c-12.6,0-22.7-10.1-22.6-22.5C646.6,582.4,656.7,572.7,668.9,572.7z
	 M668.9,627.8c12.7,0,23.2,10.4,23.4,23.4c0.2,13.3-10.3,24.2-23.4,24.2c-13.1,0-23.6-10.9-23.4-24.2
	C645.8,638.2,656.2,627.8,668.9,627.8z M707.6,116.8c-8.6,0-15.7-4.7-15.9-10.5c-0.1-5.7,6.7-10.3,15.1-10.3
	c8.5,0,15.6,4.6,15.9,10.3C723,112.1,716.2,116.8,707.6,116.8z M706.6,91.2c-8.4,0-15.4-4.5-15.5-10c-0.1-5.5,6.5-9.8,14.8-9.8
	c8.3,0,15.2,4.4,15.5,9.8C721.7,86.7,715.1,91.2,706.6,91.2z M705.8,66.7c-8.2,0-15-4.3-15.1-9.6c-0.1-5.2,6.4-9.4,14.4-9.4
	c8.1,0,14.8,4.2,15.1,9.4C720.5,62.4,714,66.7,705.8,66.7z M704.9,43.4c-8,0-14.6-4.1-14.8-9.2c-0.1-5,6.2-9,14.1-9
	c7.9,0,14.5,4,14.8,9C719.3,39.2,713,43.4,704.9,43.4z M703.5,3.7c7.7,0,14.2,3.8,14.4,8.6c0.2,4.8-5.9,8.7-13.8,8.8
	c-7.9,0-14.3-3.9-14.4-8.8C689.6,7.5,695.8,3.7,703.5,3.7z M668.9,3.7c7.7,0,14,3.8,14.1,8.6c0.1,4.8-6.3,8.7-14.1,8.8
	c-7.9,0-14.2-3.9-14.1-8.8C654.9,7.5,661.2,3.7,668.9,3.7z M668.9,25.2c7.9,0,14.4,4,14.4,9c0.1,5-6.4,9.2-14.4,9.2
	c-8,0-14.5-4.1-14.4-9.2C654.6,29.2,661,25.2,668.9,25.2z M668.9,47.7c8.1,0,14.7,4.2,14.8,9.4c0.1,5.3-6.5,9.6-14.8,9.6
	c-8.2,0-14.8-4.3-14.8-9.6C654.2,51.9,660.9,47.7,668.9,47.7z M668.9,71.3c8.3,0,15,4.4,15.1,9.8c0.1,5.5-6.7,10-15.1,10
	c-8.4,0-15.2-4.5-15.1-10C653.9,75.7,660.7,71.3,668.9,71.3z M668.9,96c8.5,0,15.4,4.6,15.5,10.3c0.1,5.8-6.8,10.5-15.5,10.5
	c-8.6,0-15.6-4.7-15.5-10.5C653.5,100.6,660.5,96,668.9,96z M668.9,121.9c8.7,0,15.8,4.8,15.9,10.8c0.1,6.1-7,11.1-15.9,11.1
	c-8.9,0-15.9-5-15.9-11.1C653.2,126.7,660.3,121.9,668.9,121.9z M668.9,149.1c8.9,0,16.2,5.1,16.3,11.4c0.1,6.4-7.2,11.6-16.3,11.6
	c-9.1,0-16.4-5.2-16.3-11.6C652.8,154.1,660,149.1,668.9,149.1z M668.9,177.7c9.1,0,16.6,5.3,16.7,12c0.1,6.7-7.4,12.2-16.7,12.3
	c-9.3,0-16.8-5.5-16.7-12.3C652.3,183,659.8,177.7,668.9,177.7z M668.9,207.8c9.4,0,17,5.6,17.1,12.6c0.1,7.1-7.6,12.9-17.1,12.9
	c-9.6,0-17.2-5.8-17.1-12.9C651.9,213.4,659.6,207.8,668.9,207.8z M668.9,239.5c9.6,0,17.5,5.9,17.6,13.3
	c0.1,7.5-7.8,13.6-17.6,13.6c-9.8,0-17.7-6.2-17.6-13.6C651.4,245.5,659.3,239.5,668.9,239.5z M668.9,273c9.9,0,18,6.3,18.1,14.1
	c0.1,7.9-8,14.4-18.1,14.4c-10.1,0-18.2-6.5-18.1-14.4C651,279.3,659.1,273,668.9,273z M668.9,308.5c10.2,0,18.5,6.6,18.6,14.9
	c0.1,8.4-8.2,15.3-18.6,15.3c-10.4,0-18.7-6.9-18.6-15.3C650.4,315.1,658.8,308.5,668.9,308.5z M668.9,346c10.5,0,19.1,7,19.2,15.8
	c0.1,8.9-8.5,16.2-19.2,16.2c-10.7,0-19.3-7.3-19.2-16.2C649.9,353,658.5,346,668.9,346z M668.9,385.8c10.8,0,19.6,7.5,19.8,16.8
	c0.1,9.5-8.7,17.2-19.8,17.2c-11.1,0-19.9-7.8-19.8-17.2C649.3,393.3,658.1,385.8,668.9,385.8z M668.9,428.1
	c11.1,0,20.3,8,20.4,17.9c0.1,10.1-9,18.4-20.4,18.4c-11.4,0-20.5-8.3-20.4-18.4C648.7,436.1,657.8,428.1,668.9,428.1z M634.4,3.7
	c7.7,0,13.9,3.8,13.8,8.6c-0.1,4.8-6.6,8.7-14.4,8.8c-7.9,0-14-3.9-13.8-8.8C620.2,7.5,626.6,3.7,634.4,3.7z M633.6,25.2
	c7.9,0,14.2,4,14.1,9c-0.1,5-6.7,9.2-14.8,9.2c-8,0-14.4-4.1-14.1-9.2C619.1,29.2,625.7,25.2,633.6,25.2z M632.8,47.7
	c8.1,0,14.5,4.2,14.4,9.4c-0.1,5.3-6.9,9.6-15.1,9.6c-8.2,0-14.7-4.3-14.4-9.6C617.9,51.9,624.7,47.7,632.8,47.7z M631.9,71.3
	c8.3,0,14.9,4.4,14.8,9.8c-0.1,5.5-7,10-15.5,10c-8.4,0-15-4.5-14.8-10C616.7,75.7,623.7,71.3,631.9,71.3z M631.1,96
	c8.5,0,15.2,4.6,15.1,10.3c-0.1,5.8-7.2,10.5-15.9,10.5c-8.6,0-15.4-4.7-15.1-10.5C615.5,100.6,622.6,96,631.1,96z M630.1,121.9
	c8.7,0,15.6,4.8,15.5,10.8c-0.1,6.1-7.4,11.1-16.3,11.1c-8.9,0-15.8-5-15.5-11.1C614.2,126.7,621.5,121.9,630.1,121.9z M645,160.5
	c-0.1,6.4-7.6,11.6-16.7,11.6c-9.1,0-16.2-5.2-15.9-11.6c0.3-6.3,7.8-11.4,16.7-11.4C638,149.1,645.1,154.1,645,160.5z M585.1,12.3
	c0.4-4.8,7-8.6,14.7-8.6s13.8,3.8,13.5,8.6c-0.3,4.8-6.9,8.7-14.7,8.8C590.7,21,584.6,17.1,585.1,12.3z M583.2,34.2
	c0.4-5,7.2-9,15.1-9c7.9,0,14.1,4,13.8,9c-0.3,5-7,9.2-15.1,9.2C588.9,43.4,582.7,39.2,583.2,34.2z M581.2,57.1
	c0.5-5.2,7.4-9.4,15.4-9.4c8.1,0,14.4,4.2,14.1,9.4c-0.3,5.3-7.2,9.6-15.5,9.6C587,66.7,580.7,62.4,581.2,57.1z M579.1,81.1
	c0.5-5.5,7.6-9.8,15.8-9.8c8.3,0,14.7,4.4,14.4,9.8c-0.3,5.5-7.4,10-15.8,10C585.1,91.2,578.7,86.7,579.1,81.1z M103.5,617
	c-12.6,0-19.1-10.1-14.5-22.5c4.5-12.1,18.1-21.8,30.4-21.8c12.3,0,18.9,9.7,14.7,21.8C129.9,606.8,116.1,617,103.5,617z
	 M114.6,651.2c-4.6,13.2-18.9,24.2-32,24.2c-13.1,0-19.6-10.9-14.7-24.2c4.9-13,19.1-23.4,31.8-23.4S119.1,638.2,114.6,651.2z
	 M552.5,121.9c8.7,0,15.3,4.8,14.7,10.8c-0.6,6.1-8.2,11.1-17.1,11.1c-8.9,0-15.4-5-14.7-11.1C536.2,126.7,543.8,121.9,552.5,121.9z
	 M538.7,106.3c0.7-5.7,8.1-10.3,16.6-10.3c8.5,0,14.9,4.6,14.4,10.3c-0.5,5.8-8,10.5-16.6,10.5C544.4,116.8,538,112.1,538.7,106.3z
	 M549.6,149.1c8.9,0,15.6,5.1,15,11.4c-0.6,6.4-8.4,11.6-17.5,11.6c-9.1,0-15.8-5.2-15-11.6C532.9,154.1,540.7,149.1,549.6,149.1z
	 M505.7,177.7c9.1,0,15.8,5.3,15,12c-0.9,6.7-9.1,12.2-18.4,12.3c-9.3,0-16-5.5-14.9-12.3C488.4,183,496.6,177.7,505.7,177.7z
	 M491.9,160.5c1-6.3,9-11.4,17.9-11.4c8.9,0,15.4,5.1,14.6,11.4c-0.8,6.4-8.9,11.6-17.9,11.6C497.4,172.1,490.9,166.9,491.9,160.5z
	 M516.7,220.4c-0.9,7.1-9.4,12.9-19,12.9c-9.6,0-16.4-5.8-15.3-12.9c1.1-7,9.6-12.6,18.9-12.6C510.8,207.8,517.6,213.4,516.7,220.4z
	 M488.8,132.7c-1,6.1-9,11.1-17.8,11.1c-8.9,0-15-5-13.9-11.1c1.2-6,9.1-10.8,17.8-10.8C483.6,121.9,489.8,126.7,488.8,132.7z
	 M470,149.1c8.9,0,15.3,5.1,14.2,11.4c-1.1,6.4-9.3,11.6-18.3,11.6c-9.1,0-15.4-5.2-14.2-11.6C453,154.1,461.1,149.1,470,149.1z
	 M464.9,177.7c9.1,0,15.6,5.3,14.5,12c-1.1,6.7-9.6,12.2-18.9,12.3c-9.3,0-15.8-5.5-14.5-12.3C447.4,183,455.8,177.7,464.9,177.7z
	 M130.2,160.5c3-6.3,12.7-11.4,21.6-11.4c8.9,0,13.8,5.1,11,11.4c-2.9,6.4-12.6,11.6-21.7,11.6C132,172.1,127.1,166.9,130.2,160.5z
	 M114.6,143.8c-8.9,0-13.4-5-10.3-11.1c3.1-6,12.6-10.8,21.3-10.8c8.7,0,13.4,4.8,10.4,10.8C133.1,138.8,123.5,143.8,114.6,143.8z
	 M383.3,177.7c9.1,0,15.2,5.3,13.7,12c-1.6,6.7-10.4,12.2-19.8,12.3c-9.3,0-15.4-5.5-13.6-12.3C365.4,183,374.2,177.7,383.3,177.7z
	 M371.3,160.5c1.7-6.3,10.2-11.4,19.1-11.4c8.9,0,14.9,5.1,13.4,11.4c-1.5,6.4-10.1,11.6-19.2,11.6
	C375.6,172.1,369.6,166.9,371.3,160.5z M216.5,301.5c-10.1,0-15.9-6.5-12.9-14.4c2.9-7.8,13.3-14.1,23.2-14.1
	c9.9,0,15.7,6.3,13.1,14.1C237,295,226.6,301.5,216.5,301.5z M227.3,323.4c-2.9,8.4-13.7,15.3-24.1,15.3c-10.4,0-16.3-6.9-13.2-15.3
	c3.1-8.3,13.8-14.9,24-14.9C224.2,308.5,230.2,315.1,227.3,323.4z M186.1,220.4c2.9-7,12.8-12.6,22.1-12.6c9.4,0,14.8,5.6,12.2,12.6
	c-2.7,7.1-12.7,12.9-22.2,12.9C188.6,233.3,183.2,227.5,186.1,220.4z M168.8,201.9c-9.3,0-14.4-5.5-11.4-12.3c3-6.6,12.7-12,21.8-12
	c9.1,0,14.3,5.3,11.5,12C188,196.4,178.2,201.9,168.8,201.9z M292,207.8c9.4,0,15.2,5.6,13.1,12.6c-2.2,7.1-11.7,12.9-21.3,12.9
	c-9.6,0-15.4-5.8-13-12.9C273.1,213.4,282.6,207.8,292,207.8z M281.1,189.7c2.3-6.7,11.4-12,20.6-12c9.1,0,14.9,5.3,12.8,12
	c-2.1,6.7-11.3,12.2-20.6,12.3C284.5,201.9,278.9,196.4,281.1,189.7z M273.3,189.7c-2.3,6.7-11.8,12.2-21.1,12.3
	c-9.3,0-14.8-5.5-12.3-12.3c2.5-6.7,11.9-12,21-12C270,177.7,275.5,183,273.3,189.7z M250.1,207.8c9.4,0,15,5.6,12.6,12.6
	c-2.5,7.1-12.2,12.9-21.8,12.9c-9.6,0-15.1-5.8-12.5-12.9C231.1,213.4,240.7,207.8,250.1,207.8z M251.6,252.8
	c-2.6,7.5-12.7,13.6-22.5,13.6c-9.8,0-15.5-6.1-12.7-13.6c2.8-7.4,12.8-13.3,22.4-13.3C248.3,239.5,254.1,245.5,251.6,252.8z
	 M232,189.7c-2.6,6.7-12.2,12.2-21.5,12.3c-9.3,0-14.6-5.5-11.9-12.3c2.7-6.7,12.3-12,21.4-12C229.2,177.7,234.6,183,232,189.7z
	 M195.7,239.5c9.6,0,15.2,5.9,12.3,13.3c-2.9,7.5-13.2,13.6-23,13.6c-9.8,0-15.3-6.2-12.2-13.6C175.9,245.5,186.1,239.5,195.7,239.5
	z M236.1,323.4c2.8-8.3,13.3-14.9,23.4-14.9c10.2,0,16.4,6.6,13.8,14.9c-2.6,8.4-13.1,15.3-23.6,15.3
	C239.4,338.7,233.3,331.8,236.1,323.4z M261.7,301.5c-10.1,0-16.1-6.5-13.5-14.4c2.7-7.8,12.8-14.1,22.6-14.1
	c9.9,0,16,6.3,13.6,14.1C282,295,271.9,301.5,261.7,301.5z M273,266.5c-9.8,0-15.7-6.1-13.2-13.6c2.5-7.4,12.3-13.3,21.9-13.3
	c9.6,0,15.6,5.9,13.3,13.3C292.7,260.3,282.9,266.5,273,266.5z M293,287.1c2.4-7.8,12.3-14.1,22.1-14.1c9.9,0,16.2,6.3,14.1,14.1
	c-2.2,7.9-12.1,14.4-22.2,14.4C296.9,301.5,290.6,295.1,293,287.1z M317,266.5c-9.8,0-15.9-6.2-13.7-13.6
	c2.2-7.4,11.8-13.3,21.4-13.3c9.6,0,15.8,5.9,13.8,13.3C336.5,260.3,326.9,266.5,317,266.5z M326.5,233.3c-9.6,0-15.6-5.8-13.4-12.9
	c2.1-7,11.4-12.6,20.8-12.6c9.4,0,15.4,5.6,13.5,12.6C345.4,227.5,336.1,233.3,326.5,233.3z M335.5,201.9c-9.3,0-15.2-5.5-13.2-12.3
	c2-6.7,11-12,20.1-12c9.1,0,15.1,5.3,13.3,12C353.9,196.4,344.9,201.9,335.5,201.9z M355.4,220.4c1.9-7,10.9-12.6,20.3-12.6
	c9.4,0,15.6,5.6,14,12.6c-1.7,7.1-10.8,12.9-20.4,12.9C359.8,233.3,353.6,227.5,355.4,220.4z M363.7,160.5
	c-1.7,6.4-10.5,11.6-19.6,11.6c-9.1,0-14.9-5.2-12.9-11.6c1.9-6.3,10.6-11.4,19.5-11.4C359.6,149.1,365.4,154.1,363.7,160.5z
	 M332,132.7c-1.9,6.1-10.6,11.1-19.4,11.1c-8.8,0-14.3-5-12.3-11.1c2-6,10.7-10.8,19.4-10.8C328.3,121.9,333.9,126.7,332,132.7z
	 M310.9,149.1c8.9,0,14.5,5.1,12.6,11.4c-2,6.4-10.9,11.6-20,11.6c-9.1,0-14.7-5.2-12.5-11.6C293.1,154.1,302,149.1,310.9,149.1z
	 M292.8,132.7c-2.1,6.1-11,11.1-19.8,11.1c-8.9,0-14.2-5-11.9-11.1c2.3-6,11.1-10.8,19.8-10.8C289.5,121.9,294.9,126.7,292.8,132.7z
	 M271.1,149.1c8.9,0,14.3,5.1,12.2,11.4c-2.2,6.4-11.4,11.6-20.4,11.6c-9.1,0-14.5-5.2-12.1-11.6
	C253.1,154.1,262.2,149.1,271.1,149.1z M253.6,132.7c-2.3,6.1-11.4,11.1-20.2,11.1c-8.9,0-14-5-11.5-11.1c2.5-6,11.5-10.8,20.1-10.8
	C250.7,121.9,255.9,126.7,253.6,132.7z M231.3,149.1c8.9,0,14.2,5.1,11.8,11.4c-2.4,6.4-11.8,11.6-20.9,11.6
	c-9.1,0-14.3-5.2-11.7-11.6C213.2,154.1,222.4,149.1,231.3,149.1z M214.4,132.7c-2.5,6.1-11.8,11.1-20.6,11.1
	c-8.9,0-13.8-5-11.1-11.1c2.7-6,11.9-10.8,20.5-10.8C211.9,121.9,216.9,126.7,214.4,132.7z M191.6,149.1c8.9,0,14,5.1,11.4,11.4
	c-2.7,6.4-12.2,11.6-21.3,11.6c-9.1,0-14.1-5.2-11.3-11.6C173.2,154.1,182.7,149.1,191.6,149.1z M175.3,132.7
	c-2.7,6.1-12.2,11.1-21,11.1c-8.8,0-13.6-5-10.7-11.1c2.9-6,12.2-10.8,20.9-10.8C173.1,121.9,178,126.7,175.3,132.7z M138.5,177.7
	c9.1,0,14.1,5.3,11.1,12c-3.1,6.7-13.1,12.2-22.4,12.3c-9.3,0-14.2-5.5-11-12.3C119.4,183,129.3,177.7,138.5,177.7z M143.8,220.4
	c3.1-7,13.2-12.6,22.6-12.6c9.4,0,14.6,5.6,11.7,12.6c-3,7.1-13.1,12.9-22.7,12.9C145.8,233.3,140.6,227.5,143.8,220.4z
	 M152.7,239.5c9.6,0,14.9,5.9,11.9,13.3c-3.1,7.5-13.6,13.6-23.5,13.6c-9.8,0-15.1-6.1-11.7-13.6
	C132.7,245.5,143.1,239.5,152.7,239.5z M158.8,287.1c3.2-7.8,13.8-14.1,23.7-14.1c9.9,0,15.5,6.3,12.5,14.1
	c-3,7.9-13.7,14.4-23.8,14.4C161.1,301.5,155.6,295.1,158.8,287.1z M168.5,308.5c10.2,0,15.9,6.6,12.7,14.9
	c-3.2,8.4-14.2,15.3-24.7,15.3c-10.4,0-16-6.9-12.6-15.3C147.4,315.1,158.4,308.5,168.5,308.5z M153.7,346c10.5,0,16.3,7,12.9,15.8
	c-3.4,8.9-14.9,16.2-25.6,16.2c-10.7,0-16.4-7.3-12.8-16.2C131.9,353,143.3,346,153.7,346z M160.5,402.6c3.5-9.3,15-16.8,25.8-16.8
	c10.8,0,17,7.5,13.8,16.8c-3.3,9.5-14.9,17.2-26,17.2C163.1,419.8,157,412.1,160.5,402.6z M189.1,378c-10.7,0-16.7-7.3-13.4-16.2
	c3.3-8.8,14.4-15.8,24.9-15.8c10.5,0,16.5,7,13.5,15.8C211,370.7,199.8,378,189.1,378z M209.4,402.6c3.2-9.3,14.4-16.8,25.2-16.8
	c10.8,0,17.2,7.5,14.4,16.8c-2.9,9.5-14.3,17.2-25.3,17.2C212.5,419.8,206.2,412.1,209.4,402.6z M237.1,378c-10.7,0-17-7.3-14-16.2
	c3-8.8,13.8-15.8,24.3-15.8c10.5,0,16.8,7,14.1,15.8C258.7,370.7,247.8,378,237.1,378z M258.2,402.6c2.8-9.3,13.8-16.8,24.6-16.8
	c10.8,0,17.5,7.5,15,16.8c-2.6,9.5-13.7,17.2-24.7,17.2C262,419.8,255.4,412.1,258.2,402.6z M285.1,378c-10.7,0-17.2-7.3-14.5-16.2
	c2.6-8.8,13.3-15.8,23.7-15.8c10.5,0,17,7,14.7,15.8C306.5,370.7,295.8,378,285.1,378z M296.3,338.7c-10.4,0-16.8-6.9-14.2-15.3
	c2.5-8.3,12.7-14.9,22.9-14.9c10.2,0,16.6,6.6,14.4,14.9C317.1,331.8,306.8,338.7,296.3,338.7z M317.9,361.8
	c2.3-8.8,12.7-15.8,23.2-15.8c10.5,0,17.3,7,15.2,15.8c-2.1,8.9-12.5,16.2-23.3,16.2C322.3,378,315.6,370.7,317.9,361.8z
	 M342.9,338.7c-10.4,0-17-6.9-14.8-15.3c2.2-8.3,12.2-14.9,22.4-14.9c10.2,0,16.8,6.6,14.9,14.9
	C363.4,331.8,353.3,338.7,342.9,338.7z M352.2,301.5c-10.1,0-16.6-6.5-14.5-14.4c2.1-7.8,11.8-14.1,21.6-14.1
	c9.9,0,16.4,6.3,14.6,14.1C372.1,295,362.3,301.5,352.2,301.5z M361,266.5c-9.8,0-16.2-6.1-14.2-13.6c2-7.4,11.3-13.3,21-13.3
	c9.6,0,16,5.9,14.3,13.3C380.3,260.3,370.9,266.5,361,266.5z M382.5,287.1c1.8-7.8,11.2-14.1,21.1-14.1c9.9,0,16.6,6.3,15.1,14.1
	c-1.6,7.9-11.1,14.4-21.2,14.4C387.4,301.5,380.7,295.1,382.5,287.1z M405,266.5c-9.8,0-16.4-6.2-14.7-13.6
	c1.7-7.4,10.9-13.3,20.5-13.3c9.6,0,16.2,5.9,14.7,13.3C424,260.3,414.8,266.5,405,266.5z M412.1,233.3c-9.6,0-16-5.8-14.4-12.9
	c1.6-7,10.5-12.6,19.9-12.6c9.4,0,15.8,5.6,14.4,12.6C430.6,227.5,421.7,233.3,412.1,233.3z M427.2,287.1
	c1.5-7.8,10.7-14.1,20.6-14.1c9.9,0,16.9,6.3,15.6,14.1c-1.3,7.9-10.6,14.4-20.7,14.4C432.6,301.5,425.7,295.1,427.2,287.1z
	 M449,266.5c-9.8,0-16.6-6.2-15.2-13.6c1.4-7.4,10.4-13.3,20-13.3c9.6,0,16.4,5.9,15.2,13.3C467.8,260.3,458.8,266.5,449,266.5z
	 M454.9,233.3c-9.6,0-16.2-5.8-14.8-12.9c1.4-7,10-12.6,19.4-12.6c9.4,0,16,5.6,14.9,12.6C473.2,227.5,464.5,233.3,454.9,233.3z
	 M449.6,132.7c-1.2,6.1-9.4,11.1-18.2,11.1c-8.8,0-14.9-5-13.5-11.1c1.4-6,9.5-10.8,18.2-10.8C444.8,121.9,450.8,126.7,449.6,132.7z
	 M430.2,149.1c8.9,0,15.1,5.1,13.8,11.4c-1.3,6.4-9.7,11.6-18.8,11.6c-9.1,0-15.2-5.2-13.8-11.6C413,154.1,421.4,149.1,430.2,149.1z
	 M424.1,177.7c9.1,0,15.4,5.3,14.1,12c-1.4,6.7-10,12.2-19.3,12.3c-9.3,0-15.6-5.5-14.1-12.3C406.4,183,415,177.7,424.1,177.7z
	 M410.4,132.7c-1.4,6.1-9.8,11.1-18.6,11.1c-8.9,0-14.7-5-13.1-11.1c1.6-6,9.9-10.8,18.6-10.8C406,121.9,411.8,126.7,410.4,132.7z
	 M378.4,106.3c-1.6,5.8-9.9,10.5-18.5,10.5c-8.6,0-14.2-4.7-12.5-10.5c1.7-5.7,10-10.3,18.4-10.3C374.4,96,380,100.6,378.4,106.3z
	 M358.5,121.9c8.7,0,14.4,4.8,12.8,10.8c-1.7,6.1-10.2,11.1-19,11.1c-8.9,0-14.5-5-12.7-11.1C341.3,126.7,349.8,121.9,358.5,121.9z
	 M340.2,106.3c-1.8,5.8-10.2,10.5-18.9,10.5c-8.6,0-14-4.7-12.1-10.5c2-5.7,10.3-10.3,18.8-10.3C336.5,96,341.9,100.6,340.2,106.3z
	 M310.6,81.1c-1.9,5.5-10.3,10-18.7,10c-8.4,0-13.6-4.5-11.5-10c2-5.5,10.4-9.8,18.6-9.8C307.3,71.3,312.4,75.7,310.6,81.1z
	 M290.1,96c8.5,0,13.7,4.6,11.8,10.3c-2,5.8-10.6,10.5-19.3,10.5c-8.6,0-13.9-4.7-11.7-10.5C273.1,100.6,281.7,96,290.1,96z
	 M273.2,81.1c-2.1,5.5-10.6,10-19.1,10c-8.4,0-13.4-4.5-11.2-10c2.2-5.5,10.7-9.8,19-9.8C270.3,71.3,275.3,75.7,273.2,81.1z
	 M252.3,96c8.5,0,13.6,4.6,11.4,10.3c-2.2,5.8-11,10.5-19.6,10.5c-8.6,0-13.7-4.7-11.3-10.5C235.1,100.6,243.8,96,252.3,96z
	 M235.9,81.1c-2.3,5.5-11,10-19.4,10c-8.4,0-13.3-4.5-10.8-10c2.4-5.5,11.1-9.8,19.4-9.8C233.3,71.3,238.1,75.7,235.9,81.1z
	 M214.4,96c8.5,0,13.4,4.6,11,10.3c-2.4,5.8-11.4,10.5-20,10.5c-8.6,0-13.5-4.7-11-10.5C197,100.6,205.9,96,214.4,96z M198.5,81.1
	c-2.5,5.5-11.4,10-19.8,10c-8.4,0-13.1-4.5-10.4-10c2.6-5.5,11.4-9.8,19.7-9.8C196.3,71.3,201,75.7,198.5,81.1z M176.5,96
	c8.5,0,13.3,4.6,10.7,10.3c-2.6,5.8-11.8,10.5-20.4,10.5c-8.6,0-13.4-4.7-10.6-10.5C159,100.6,168,96,176.5,96z M161.2,81.1
	c-2.7,5.5-11.7,10-20.2,10c-8.4,0-12.9-4.5-10.1-10c2.8-5.5,11.8-9.8,20.1-9.8C159.3,71.3,163.8,75.7,161.2,81.1z M138.6,96
	c8.5,0,13.1,4.6,10.3,10.3c-2.8,5.8-12.1,10.5-20.8,10.5c-8.6,0-13.2-4.7-10.2-10.5C120.9,100.6,130.2,96,138.6,96z M123.8,81.1
	c-2.9,5.5-12.1,10-20.5,10c-8.4,0-12.8-4.5-9.7-10c3-5.5,12.1-9.8,20.4-9.8C122.3,71.3,126.7,75.7,123.8,81.1z M100.7,96
	c8.5,0,12.9,4.6,9.9,10.3c-3,5.8-12.5,10.5-21.1,10.5c-8.6,0-13-4.7-9.8-10.5C82.9,100.6,92.3,96,100.7,96z M86.8,121.9
	c8.7,0,13.2,4.8,10,10.8c-3.2,6.1-13,11.1-21.8,11.1c-8.8,0-13.2-5-9.9-11.1C68.5,126.7,78.2,121.9,86.8,121.9z M90,160.5
	c3.3-6.3,13.1-11.4,22-11.4c8.9,0,13.6,5.1,10.5,11.4c-3.1,6.4-13,11.6-22.1,11.6C91.4,172.1,86.7,166.9,90,160.5z M97.7,177.7
	c9.1,0,13.9,5.3,10.7,12c-3.3,6.7-13.5,12.2-22.8,12.3c-9.3,0-14-5.5-10.5-12.3C78.4,183,88.5,177.7,97.7,177.7z M101.4,220.4
	c3.4-7,13.7-12.6,23-12.6c9.4,0,14.4,5.6,11.2,12.6c-3.2,7.1-13.6,12.9-23.2,12.9C103,233.3,98,227.5,101.4,220.4z M109.7,239.5
	c9.6,0,14.7,6,11.4,13.3c-3.4,7.5-14.1,13.6-24,13.6c-9.8,0-14.8-6.2-11.2-13.6C89.4,245.5,100,239.5,109.7,239.5z M114.1,287.1
	c3.5-7.8,14.3-14.1,24.2-14.1c9.9,0,15.3,6.3,12,14.1c-3.3,7.9-14.2,14.4-24.3,14.4C115.9,301.5,110.6,295.1,114.1,287.1z
	 M123,308.5c10.2,0,15.7,6.6,12.2,14.9c-3.5,8.4-14.8,15.3-25.2,15.3c-10.4,0-15.8-6.9-12.1-15.3C101.7,315.1,112.9,308.5,123,308.5
	z M106.9,346c10.5,0,16,7,12.4,15.8c-3.7,8.9-15.4,16.2-26.2,16.2c-10.7,0-16.2-7.3-12.2-16.2C84.8,353,96.4,346,106.9,346z
	 M111.7,402.6c3.8-9.3,15.6-16.8,26.4-16.8c10.8,0,16.7,7.5,13.2,16.8c-3.6,9.5-15.5,17.2-26.6,17.2
	C113.6,419.8,107.8,412.1,111.7,402.6z M121.4,428.1c11.1,0,17.1,8,13.4,17.9c-3.8,10.1-16.2,18.4-27.6,18.4
	c-11.4,0-17.3-8.3-13.2-18.4C98,436.1,110.3,428.1,121.4,428.1z M127.1,492.3c4-10.6,16.4-19.1,27.9-19.1c11.5,0,17.9,8.5,14.2,19.1
	c-3.7,10.7-16.3,19.6-28.1,19.6C129.4,511.8,123.1,503,127.1,492.3z M158.2,464.4c-11.4,0-17.6-8.3-13.8-18.4
	c3.7-9.9,15.7-17.9,26.8-17.9c11.1,0,17.4,8,14,17.9C181.7,456.1,169.6,464.4,158.2,464.4z M179.2,492.3
	c3.6-10.6,15.7-19.1,27.2-19.1c11.5,0,18.2,8.5,14.9,19.1c-3.3,10.7-15.6,19.6-27.4,19.6C182.1,511.8,175.5,503,179.2,492.3z
	 M209.2,464.4c-11.4,0-17.9-8.3-14.5-18.4c3.4-9.9,15.1-17.9,26.2-17.9c11.1,0,17.7,8,14.6,17.9
	C232.5,456.1,220.7,464.4,209.2,464.4z M231.3,492.3c3.2-10.6,15.1-19.1,26.5-19.1c11.5,0,18.5,8.5,15.6,19.1
	c-3,10.7-14.9,19.6-26.7,19.6C234.9,511.8,228,503,231.3,492.3z M260.3,464.4c-11.4,0-18.2-8.3-15.1-18.4c3-9.9,14.4-17.9,25.5-17.9
	c11.1,0,18,8,15.3,17.9C283.2,456.1,271.7,464.4,260.3,464.4z M283.3,492.3c2.8-10.6,14.4-19.1,25.9-19.1c11.5,0,18.8,8.5,16.3,19.1
	c-2.6,10.7-14.2,19.6-26,19.6C287.7,511.8,280.5,503,283.3,492.3z M311.4,464.4c-11.4,0-18.5-8.3-15.8-18.4
	c2.6-9.9,13.8-17.9,24.9-17.9c11.1,0,18.2,8,15.9,17.9C334,456.1,322.8,464.4,311.4,464.4z M322.6,419.9c-11.1,0-18-7.8-15.5-17.2
	c2.5-9.3,13.2-16.8,24-16.8c10.8,0,17.8,7.5,15.6,16.8C344.4,412.1,333.6,419.8,322.6,419.9z M346,446c2.3-9.9,13.1-17.9,24.3-17.9
	c11.1,0,18.5,8,16.6,17.9c-2,10.1-12.9,18.4-24.4,18.4C351.1,464.4,343.7,456.1,346,446z M372,419.9c-11.1,0-18.2-7.8-16.1-17.2
	c2.2-9.3,12.6-16.8,23.4-16.8c10.8,0,18,7.5,16.2,16.8C393.6,412.1,383.1,419.8,372,419.9z M381,378c-10.7,0-17.7-7.3-15.7-16.2
	c2-8.8,12.1-15.8,22.6-15.8c10.5,0,17.5,7,15.8,15.8C401.9,370.7,391.8,378,381,378z M389.5,338.7c-10.4,0-17.3-6.9-15.3-15.3
	c1.9-8.3,11.7-14.9,21.8-14.9s17.1,6.6,15.4,14.9C409.7,331.8,399.9,338.7,389.5,338.7z M404.8,402.6c1.8-9.3,12-16.8,22.8-16.8
	c10.8,0,18.3,7.5,16.8,16.8c-1.6,9.5-11.8,17.2-22.9,17.2C410.5,419.8,403,412.1,404.8,402.6z M429,378c-10.7,0-18-7.3-16.3-16.2
	c1.7-8.8,11.5-15.8,22-15.8c10.5,0,17.8,7,16.3,15.8C449.6,370.7,439.7,378,429,378z M436.1,338.7c-10.4,0-17.5-6.9-15.9-15.3
	c1.6-8.3,11.1-14.9,21.3-14.9c10.2,0,17.3,6.6,16,14.9C456,331.8,446.5,338.7,436.1,338.7z M453.7,402.6
	c1.5-9.3,11.4-16.8,22.2-16.8c10.8,0,18.6,7.5,17.4,16.8c-1.2,9.5-11.2,17.2-22.2,17.2C459.9,419.8,452.2,412.1,453.7,402.6z
	 M477,378c-10.7,0-18.3-7.3-16.9-16.2c1.4-8.8,11-15.8,21.5-15.8c10.5,0,18,7,16.9,15.8C497.4,370.7,487.7,378,477,378z
	 M482.6,338.7c-10.4,0-17.8-6.9-16.4-15.3c1.3-8.3,10.6-14.9,20.8-14.9c10.2,0,17.6,6.6,16.5,14.9
	C502.4,331.8,493.1,338.7,482.6,338.7z M488,301.5c-10.1,0-17.3-6.5-16-14.4c1.2-7.8,10.2-14.1,20.1-14.1c9.9,0,17.1,6.3,16.1,14.1
	C507.1,295.1,498.1,301.5,488,301.5z M493,266.5c-9.8,0-16.8-6.2-15.7-13.6c1.2-7.4,9.9-13.3,19.5-13.3c9.6,0,16.6,5.9,15.7,13.3
	C511.6,260.3,502.8,266.5,493,266.5z M512.2,323.4c1-8.3,10.1-14.9,20.2-14.9c10.2,0,17.8,6.6,17,14.9c-0.8,8.4-9.9,15.3-20.3,15.3
	C518.8,338.7,511.2,331.8,512.2,323.4z M533.2,301.5c-10.1,0-17.5-6.5-16.6-14.4c1-7.8,9.7-14.1,19.6-14.1c9.9,0,17.3,6.3,16.6,14.1
	C552.1,295.1,543.3,301.5,533.2,301.5z M537,266.5c-9.8,0-17-6.2-16.1-13.6c0.9-7.4,9.4-13.3,19-13.3c9.6,0,16.9,5.9,16.2,13.3
	C555.3,260.3,546.8,266.5,537,266.5z M540.5,233.3c-9.6,0-16.6-5.8-15.7-12.9c0.9-7,9.1-12.6,18.5-12.6c9.4,0,16.4,5.6,15.8,12.6
	C558.4,227.5,550.1,233.3,540.5,233.3z M543.9,201.9c-9.3,0-16.2-5.5-15.4-12.3c0.8-6.7,8.9-12,18-12c9.1,0,16,5.3,15.4,12
	C561.3,196.4,553.2,201.9,543.9,201.9z M534.7,81.1c-0.7,5.5-8.1,10-16.6,10c-8.4,0-14.5-4.5-13.7-10c0.9-5.5,8.3-9.8,16.5-9.8
	C529.2,71.3,535.4,75.7,534.7,81.1z M517.4,96c8.5,0,14.7,4.6,14,10.3c-0.8,5.8-8.4,10.5-17,10.5c-8.6,0-14.9-4.7-14-10.5
	C501.4,100.6,508.9,96,517.4,96z M513.7,121.9c8.7,0,15.1,4.8,14.3,10.8c-0.8,6.1-8.6,11.1-17.5,11.1c-8.9,0-15.2-5-14.3-11.1
	C497.2,126.7,505,121.9,513.7,121.9z M497.3,81.1c-0.9,5.5-8.5,10-16.9,10c-8.4,0-14.4-4.5-13.3-10c1.1-5.5,8.6-9.8,16.9-9.8
	C492.2,71.3,498.2,75.7,497.3,81.1z M479.5,96c8.5,0,14.6,4.6,13.6,10.3c-1,5.8-8.7,10.5-17.4,10.5c-8.6,0-14.7-4.7-13.6-10.5
	C463.3,100.6,471.1,96,479.5,96z M464.8,57.1c-1.1,5.3-8.6,9.6-16.8,9.6c-8.2,0-13.9-4.3-12.7-9.6c1.2-5.2,8.7-9.4,16.8-9.4
	C460.1,47.7,465.8,51.9,464.8,57.1z M447,71.3c8.3,0,14.1,4.4,13,9.8c-1.1,5.5-8.8,10-17.3,10c-8.4,0-14.2-4.5-13-10
	C431,75.7,438.7,71.3,447,71.3z M441.7,96c8.5,0,14.4,4.6,13.3,10.3c-1.2,5.8-9.1,10.5-17.7,10.5c-8.6,0-14.5-4.7-13.2-10.5
	C425.3,100.6,433.2,96,441.7,96z M428.3,57.1c-1.2,5.3-8.9,9.6-17.2,9.6c-8.2,0-13.7-4.3-12.4-9.6c1.4-5.2,9-9.4,17.1-9.4
	C424,47.7,429.5,51.9,428.3,57.1z M410,71.3c8.3,0,13.9,4.4,12.6,9.8c-1.3,5.5-9.2,10-17.6,10c-8.4,0-14-4.5-12.6-10
	C393.8,75.7,401.7,71.3,410,71.3z M403.8,96c8.5,0,14.2,4.6,12.9,10.3c-1.4,5.8-9.5,10.5-18.1,10.5c-8.6,0-14.4-4.7-12.8-10.5
	C387.2,100.6,395.3,96,403.8,96z M391.8,57.1c-1.4,5.3-9.3,9.6-17.5,9.6c-8.2,0-13.6-4.3-12-9.6c1.6-5.2,9.4-9.4,17.5-9.4
	C387.8,47.7,393.2,51.9,391.8,57.1z M373,71.3c8.3,0,13.8,4.4,12.3,9.8c-1.5,5.5-9.6,10-18,10c-8.4,0-13.9-4.5-12.2-10
	C356.7,75.7,364.7,71.3,373,71.3z M355.3,57.1c-1.6,5.3-9.6,9.6-17.9,9.6c-8.2,0-13.4-4.3-11.7-9.6c1.8-5.2,9.7-9.4,17.8-9.4
	C351.7,47.7,356.9,51.9,355.3,57.1z M336,71.3c8.3,0,13.6,4.4,11.9,9.8c-1.7,5.5-9.9,10-18.4,10c-8.4,0-13.7-4.5-11.9-10
	C319.5,75.7,327.7,71.3,336,71.3z M318.8,57.1c-1.8,5.3-10,9.6-18.2,9.6c-8.2,0-13.3-4.3-11.3-9.6c2-5.2,10.1-9.4,18.1-9.4
	C315.5,47.7,320.6,51.9,318.8,57.1z M291,34.2c-1.9,5-10,9.2-18,9.2c-8,0-12.9-4.1-10.8-9.2c2-5,10.1-9,18-9
	C288,25.2,292.9,29.2,291,34.2z M271.3,47.7c8.1,0,13,4.2,11.1,9.4c-2,5.3-10.3,9.6-18.5,9.6c-8.2,0-13.1-4.3-11-9.6
	C254.9,51.9,263.2,47.7,271.3,47.7z M255.4,34.2c-2.1,5-10.3,9.2-18.4,9.2c-8,0-12.7-4.1-10.5-9.2c2.2-5,10.4-9,18.3-9
	C252.7,25.2,257.4,29.2,255.4,34.2z M235.1,47.7c8.1,0,12.9,4.2,10.7,9.4c-2.2,5.3-10.7,9.6-18.9,9.6c-8.2,0-13-4.3-10.7-9.6
	C218.6,51.9,227,47.7,235.1,47.7z M219.7,34.2c-2.3,5-10.6,9.2-18.7,9.2c-8,0-12.6-4.1-10.2-9.2c2.4-5,10.7-9,18.6-9
	C217.4,25.2,222,29.2,219.7,34.2z M199,47.7c8.1,0,12.7,4.2,10.4,9.4c-2.4,5.3-11,9.6-19.2,9.6c-8.2,0-12.8-4.3-10.3-9.6
	C182.3,51.9,190.9,47.7,199,47.7z M184,34.2c-2.4,5-11,9.2-19,9.2c-8,0-12.5-4.1-9.8-9.2c2.6-5,11-9,18.9-9
	C182,25.2,186.5,29.2,184,34.2z M162.8,47.7c8.1,0,12.6,4.2,10,9.4c-2.6,5.3-11.3,9.6-19.6,9.6c-8.2,0-12.7-4.3-10-9.6
	C146,51.9,154.7,47.7,162.8,47.7z M148.4,34.2c-2.6,5-11.3,9.2-19.4,9.2c-8,0-12.3-4.1-9.5-9.2c2.8-5,11.4-9,19.3-9
	C146.7,25.2,151,29.2,148.4,34.2z M126.7,47.7c8.1,0,12.4,4.2,9.7,9.4c-2.8,5.3-11.7,9.6-19.9,9.6c-8.2,0-12.5-4.3-9.6-9.6
	C109.7,51.9,118.6,47.7,126.7,47.7z M112.7,34.2c-2.8,5-11.6,9.2-19.7,9.2c-8,0-12.2-4.1-9.2-9.2c2.9-5,11.7-9,19.6-9
	C111.3,25.2,115.5,29.2,112.7,34.2z M90.5,47.7c8.1,0,12.3,4.2,9.4,9.4c-2.9,5.3-12,9.6-20.3,9.6c-8.2,0-12.4-4.3-9.3-9.6
	C73.4,51.9,82.4,47.7,90.5,47.7z M77,34.2c-3,5-12,9.2-20,9.2c-8,0-12-4.1-8.9-9.2c3.1-5,12-9,19.9-9C76,25.2,80,29.2,77,34.2z
	 M54.4,47.7c8.1,0,12.1,4.2,9,9.4c-3.1,5.3-12.4,9.6-20.6,9.6c-8.2,0-12.2-4.3-8.9-9.6C37.1,51.9,46.3,47.7,54.4,47.7z M56.2,81.1
	c3.2-5.5,12.5-9.8,20.8-9.8c8.3,0,12.5,4.4,9.5,9.8c-3.1,5.5-12.4,10-20.9,10C57.2,91.2,53,86.7,56.2,81.1z M62.9,96
	c8.5,0,12.8,4.6,9.6,10.3c-3.2,5.8-12.9,10.5-21.5,10.5c-8.6,0-12.8-4.7-9.4-10.5C44.8,100.6,54.4,96,62.9,96z M48,121.9
	c8.7,0,13,4.8,9.6,10.8c-3.4,6.1-13.4,11.1-22.2,11.1c-8.9,0-13.1-5-9.5-11.1C29.5,126.7,39.3,121.9,48,121.9z M49.8,160.5
	c3.5-6.3,13.5-11.4,22.4-11.4c8.9,0,13.4,5.1,10.1,11.4c-3.3,6.4-13.4,11.6-22.5,11.6C50.8,172.1,46.3,166.9,49.8,160.5z
	 M56.8,177.7c9.1,0,13.7,5.3,10.2,12c-3.5,6.7-14,12.2-23.3,12.3c-9.3,0-13.8-5.5-10.1-12.3C37.4,183,47.7,177.7,56.8,177.7z
	 M59.1,220.4c3.6-7,14.1-12.6,23.5-12.6c9.4,0,14.2,5.6,10.8,12.6c-3.4,7.1-14.1,12.9-23.6,12.9C60.2,233.3,55.4,227.5,59.1,220.4z
	 M66.6,239.5c9.6,0,14.5,5.9,10.9,13.3c-3.6,7.5-14.6,13.6-24.4,13.6c-9.8,0-14.6-6.2-10.8-13.6C46.2,245.5,57,239.5,66.6,239.5z
	 M69.4,287.1c3.8-7.8,14.8-14.1,24.7-14.1c9.9,0,15.1,6.3,11.5,14.1c-3.6,7.9-14.7,14.4-24.8,14.4C70.7,301.5,65.6,295.1,69.4,287.1
	z M77.5,308.5c10.2,0,15.4,6.6,11.7,14.9c-3.8,8.4-15.3,15.3-25.7,15.3c-10.4,0-15.5-6.9-11.5-15.3C56,315.1,67.4,308.5,77.5,308.5z
	 M60.1,346c10.5,0,15.8,7,11.8,15.8c-4,8.9-16,16.2-26.7,16.2c-10.7,0-15.9-7.3-11.6-16.2C37.7,353,49.6,346,60.1,346z M62.8,402.6
	c4.2-9.3,16.2-16.8,27-16.8c10.8,0,16.4,7.5,12.5,16.8c-4,9.5-16.1,17.2-27.2,17.2C64.1,419.8,58.6,412.1,62.8,402.6z M71.6,428.1
	c11.1,0,16.8,8,12.7,17.9c-4.2,10.1-16.9,18.4-28.3,18.4c-11.4,0-17-8.3-12.5-18.4C47.9,436.1,60.5,428.1,71.6,428.1z M75,492.3
	c4.3-10.6,17.1-19.1,28.6-19.1c11.5,0,17.6,8.5,13.6,19.1c-4.1,10.7-17,19.6-28.8,19.6C76.6,511.8,70.6,503,75,492.3z M84.7,521.3
	c11.9,0,18.1,9.1,13.8,20.4c-4.4,11.5-17.9,21-30.1,21c-12.2,0-18.2-9.5-13.5-21C59.5,530.3,72.8,521.3,84.7,521.3z M123,562.6
	c-12.2,0-18.6-9.5-14.3-21c4.2-11.3,17.2-20.4,29.1-20.4c11.9,0,18.4,9.1,14.5,20.4C148.3,553.1,135.2,562.6,123,562.6z
	 M144.7,594.5c4.1-12.1,17.3-21.8,29.6-21.8c12.3,0,19.3,9.7,15.5,21.8C186,606.8,172.7,617,160,617S140.6,606.9,144.7,594.5z
	 M177.6,562.6c-12.2,0-18.9-9.5-15-21c3.8-11.3,16.5-20.4,28.4-20.4c11.9,0,18.7,9.1,15.2,20.4C202.6,553.1,189.8,562.6,177.6,562.6
	z M200.5,594.5c3.7-12.1,16.5-21.8,28.8-21.8c12.3,0,19.6,9.7,16.3,21.8c-3.4,12.3-16.4,22.5-29,22.5
	C203.9,617,196.8,606.9,200.5,594.5z M232.2,562.6c-12.2,0-19.2-9.5-15.8-21c3.4-11.3,15.8-20.4,27.6-20.4c11.9,0,19,9.1,16,20.4
	C256.8,553.1,244.4,562.6,232.2,562.6z M256.2,594.5c3.2-12.1,15.8-21.8,28-21.8c12.3,0,19.9,9.7,17.1,21.8
	c-2.9,12.3-15.6,22.5-28.2,22.5C260.5,617,253,606.9,256.2,594.5z M286.8,562.6c-12.2,0-19.6-9.5-16.5-21c3-11.3,15-20.4,26.9-20.4
	c11.9,0,19.3,9.1,16.7,20.4C311.1,553.1,299,562.6,286.8,562.6z M311.9,594.5c2.8-12.1,15-21.8,27.3-21.8c12.3,0,20.3,9.7,17.9,21.8
	c-2.5,12.3-14.8,22.5-27.4,22.5C317,617,309.1,606.9,311.9,594.5z M341.4,562.6c-12.2,0-19.9-9.5-17.3-21
	c2.6-11.3,14.3-20.4,26.2-20.4c11.9,0,19.7,9.1,17.4,20.4C365.3,553.1,353.6,562.6,341.4,562.6z M352.3,511.9
	c-11.8,0-19.3-8.9-16.9-19.6c2.4-10.6,13.7-19.1,25.2-19.1c11.5,0,19.1,8.5,17,19.1C375.4,503,364.1,511.8,352.3,511.9z
	 M377.9,541.7c2.2-11.3,13.6-20.4,25.4-20.4c11.9,0,20,9.1,18.1,20.4c-1.9,11.5-13.3,21-25.5,21
	C383.8,562.6,375.7,553.2,377.9,541.7z M405,511.9c-11.8,0-19.6-8.9-17.6-19.6c2.1-10.6,13-19.1,24.5-19.1
	c11.5,0,19.4,8.5,17.7,19.1C427.9,503,416.8,511.8,405,511.9z M413.6,464.4c-11.4,0-19.1-8.3-17.1-18.4c1.9-9.9,12.5-17.9,23.6-17.9
	c11.1,0,18.8,8,17.2,17.9C435.6,456.1,425,464.4,413.6,464.4z M431.8,541.7c1.8-11.3,12.8-20.4,24.7-20.4c11.9,0,20.3,9.1,18.9,20.4
	c-1.5,11.5-12.6,21-24.8,21C438.3,562.6,429.9,553.2,431.8,541.7z M457.8,511.9c-11.8,0-20-8.9-18.3-19.6
	c1.7-10.6,12.3-19.1,23.8-19.1c11.5,0,19.7,8.5,18.3,19.1C480.3,503,469.6,511.8,457.8,511.9z M464.6,464.4
	c-11.4,0-19.4-8.3-17.8-18.4c1.6-9.9,11.8-17.9,23-17.9c11.1,0,19.1,8,17.8,17.9C486.4,456.1,476,464.4,464.6,464.4z M485.6,541.7
	c1.4-11.3,12.1-20.4,24-20.4c11.9,0,20.6,9.1,19.6,20.4c-1.1,11.5-11.8,21-24,21C492.9,562.6,484.2,553.2,485.6,541.7z M510.6,511.9
	c-11.8,0-20.3-8.9-19-19.6c1.3-10.6,11.6-19.1,23.1-19.1c11.5,0,20,8.5,19,19.1C532.8,503,522.4,511.8,510.6,511.9z M515.7,464.4
	c-11.4,0-19.7-8.3-18.4-18.4c1.2-9.9,11.2-17.9,22.3-17.9c11.1,0,19.4,8,18.5,17.9C537.1,456.1,527.1,464.4,515.7,464.4z
	 M520.5,419.9c-11.1,0-19.1-7.8-17.9-17.2c1.1-9.3,10.8-16.8,21.6-16.8c10.8,0,18.8,7.5,18,16.8
	C541.2,412.1,531.5,419.8,520.5,419.9z M525,378c-10.7,0-18.5-7.3-17.4-16.2c1.1-8.8,10.4-15.8,20.9-15.8c10.5,0,18.3,7,17.5,15.8
	C545.1,370.7,535.7,378,525,378z M543.7,492.3c0.9-10.6,11-19.1,22.4-19.1c11.5,0,20.3,8.5,19.7,19.1c-0.6,10.7-10.7,19.6-22.5,19.6
	C551.6,511.8,542.8,503,543.7,492.3z M566.8,464.4c-11.4,0-19.9-8.3-19.1-18.4c0.9-9.9,10.6-17.9,21.7-17.9c11.1,0,19.7,8,19.1,17.9
	C587.9,456.1,578.2,464.4,566.8,464.4z M570,419.9c-11.1,0-19.3-7.8-18.5-17.2c0.8-9.3,10.2-16.8,21-16.8c10.8,0,19.1,7.5,18.6,16.8
	C590.4,412.1,581,419.8,570,419.9z M573,378c-10.7,0-18.8-7.3-18-16.2c0.8-8.8,9.8-15.8,20.3-15.8c10.5,0,18.5,7,18.1,15.8
	C592.8,370.7,583.7,378,573,378z M575.8,338.7c-10.4,0-18.2-6.9-17.5-15.3c0.7-8.3,9.5-14.9,19.7-14.9c10.2,0,18,6.6,17.6,14.9
	C595,331.8,586.2,338.7,575.8,338.7z M578.4,301.5c-10.1,0-17.7-6.5-17.1-14.4c0.7-7.8,9.2-14.1,19.1-14.1c9.9,0,17.5,6.3,17.1,14.1
	C597.1,295.1,588.6,301.5,578.4,301.5z M581,266.5c-9.8,0-17.3-6.2-16.6-13.6c0.6-7.4,8.9-13.3,18.6-13.3c9.6,0,17.1,5.9,16.7,13.3
	C599.1,260.3,590.8,266.5,581,266.5z M583.3,233.3c-9.6,0-16.8-5.8-16.2-12.9c0.6-7,8.7-12.6,18-12.6c9.4,0,16.6,5.6,16.2,12.6
	C601,227.5,592.9,233.3,583.3,233.3z M585.6,201.9c-9.3,0-16.4-5.5-15.8-12.3c0.6-6.7,8.4-12,17.5-12c9.1,0,16.2,5.3,15.8,12
	C602.8,196.4,594.9,201.9,585.6,201.9z M587.7,172.1c-9.1,0-16-5.2-15.4-11.6c0.6-6.3,8.2-11.4,17.1-11.4c8.9,0,15.8,5.1,15.5,11.4
	C604.4,166.9,596.8,172.1,587.7,172.1z M589.8,143.8c-8.9,0-15.6-5-15.1-11.1c0.5-6,8-10.8,16.6-10.8c8.7,0,15.4,4.8,15.1,10.8
	C606.1,138.8,598.6,143.8,589.8,143.8z M591.7,116.8c-8.6,0-15.2-4.7-14.7-10.5c0.5-5.7,7.8-10.3,16.2-10.3
	c8.5,0,15.1,4.6,14.7,10.3C607.6,112.1,600.3,116.8,591.7,116.8z M550.2,12.3c0.6-4.8,7.3-8.6,15-8.6c7.7,0,13.6,3.8,13.2,8.6
	c-0.5,4.8-7.2,8.7-15.1,8.8C555.5,21,549.6,17.1,550.2,12.3z M547.5,34.2c0.6-5,7.5-9,15.4-9c7.9,0,13.9,4,13.5,9
	c-0.5,5-7.4,9.2-15.4,9.2C552.9,43.4,546.9,39.2,547.5,34.2z M544.7,57.1c0.6-5.2,7.7-9.4,15.8-9.4c8.1,0,14.2,4.2,13.8,9.4
	c-0.5,5.3-7.6,9.6-15.8,9.6C550.2,66.7,544.1,62.4,544.7,57.1z M557.9,71.3c8.3,0,14.6,4.4,14.1,9.8c-0.5,5.5-7.8,10-16.2,10
	c-8.4,0-14.7-4.5-14-10C542.4,75.7,549.7,71.3,557.9,71.3z M515.3,12.3c0.8-4.8,7.6-8.6,15.4-8.6s13.5,3.8,12.9,8.6
	c-0.6,4.8-7.5,8.7-15.4,8.8C520.3,21,514.5,17.1,515.3,12.3z M511.8,34.2c0.8-5,7.8-9,15.7-9c7.9,0,13.8,4,13.1,9
	c-0.6,5-7.7,9.2-15.7,9.2C516.9,43.4,511,39.2,511.8,34.2z M524.3,47.7c8.1,0,14.1,4.2,13.4,9.4c-0.7,5.3-7.9,9.6-16.1,9.6
	c-8.2,0-14.2-4.3-13.4-9.6C509,51.9,516.2,47.7,524.3,47.7z M480.4,12.3c0.9-4.8,7.9-8.6,15.7-8.6c7.7,0,13.4,3.8,12.6,8.6
	c-0.8,4.8-7.8,8.7-15.7,8.8C485.1,21,479.5,17.1,480.4,12.3z M476.2,34.2c1-5,8.1-9,16-9c7.9,0,13.6,4,12.8,9c-0.8,5-8,9.2-16.1,9.2
	C480.9,43.4,475.2,39.2,476.2,34.2z M488.2,47.7c8.1,0,13.9,4.2,13.1,9.4c-0.9,5.3-8.3,9.6-16.5,9.6c-8.2,0-14.1-4.3-13.1-9.6
	C472.7,51.9,480.1,47.7,488.2,47.7z M445.5,12.3c1.1-4.8,8.2-8.6,16-8.6c7.7,0,13.2,3.8,12.3,8.6c-1,4.8-8.1,8.7-16,8.8
	C449.9,21,444.4,17.1,445.5,12.3z M440.5,34.2c1.2-5,8.5-9,16.4-9c7.9,0,13.5,4,12.5,9c-1,5-8.4,9.2-16.4,9.2
	C444.9,43.4,439.3,39.3,440.5,34.2z M410.6,12.3c1.3-4.8,8.5-8.6,16.3-8.6s13.1,3.8,12,8.6c-1.1,4.8-8.4,8.7-16.3,8.8
	C414.7,21,409.4,17.1,410.6,12.3z M404.8,34.2c1.3-5,8.8-9,16.7-9c7.9,0,13.4,4,12.2,9c-1.2,5-8.7,9.2-16.7,9.2
	C408.9,43.4,403.5,39.3,404.8,34.2z M375.8,12.3c1.4-4.8,8.9-8.6,16.6-8.6c7.7,0,12.9,3.8,11.7,8.6c-1.3,4.8-8.8,8.7-16.6,8.8
	C379.5,21,374.3,17.1,375.8,12.3z M386.2,25.2c7.9,0,13.2,4,11.9,9c-1.4,5-9,9.2-17.1,9.2c-8,0-13.3-4.1-11.8-9.2
	C370.7,29.2,378.3,25.2,386.2,25.2z M340.9,12.3c1.6-4.8,9.2-8.6,16.9-8.6c7.7,0,12.8,3.8,11.3,8.6c-1.5,4.8-9.1,8.7-16.9,8.8
	C344.3,21,339.3,17.1,340.9,12.3z M350.8,25.2c7.9,0,13.1,4,11.5,9c-1.6,5-9.3,9.2-17.4,9.2c-8,0-13.2-4.1-11.5-9.2
	C335.2,29.2,342.9,25.2,350.8,25.2z M306,12.3c1.8-4.8,9.5-8.6,17.2-8.6c7.7,0,12.7,3.8,11,8.6c-1.7,4.8-9.4,8.7-17.3,8.8
	C309.1,21,304.2,17.1,306,12.3z M315.5,25.2c7.9,0,12.9,4,11.2,9c-1.7,5-9.7,9.2-17.7,9.2c-8,0-13-4.1-11.2-9.2
	C299.7,29.2,307.6,25.2,315.5,25.2z M271.1,12.3c2-4.8,9.8-8.6,17.5-8.6c7.7,0,12.5,3.8,10.7,8.6c-1.8,4.8-9.7,8.7-17.6,8.8
	C273.9,21,269.2,17.1,271.1,12.3z M236.2,12.3c2.1-4.8,10.1-8.6,17.8-8.6c7.7,0,12.4,3.8,10.4,8.6c-2,4.8-10,8.7-17.9,8.8
	C238.7,21,234.1,17.1,236.2,12.3z M201.3,12.3c2.3-4.8,10.4-8.6,18.1-8.6c7.7,0,12.3,3.8,10.1,8.6c-2.2,4.8-10.3,8.7-18.2,8.8
	C203.5,21,199,17.1,201.3,12.3z M166.5,12.3c2.5-4.8,10.7-8.6,18.4-8.6c7.7,0,12.1,3.8,9.8,8.6c-2.3,4.8-10.6,8.7-18.5,8.8
	C168.3,21,164,17.1,166.5,12.3z M131.6,12.3c2.6-4.8,11-8.6,18.7-8.6c7.7,0,12,3.8,9.5,8.6c-2.5,4.8-11,8.7-18.8,8.8
	C133.1,21,128.9,17.1,131.6,12.3z M96.7,12.3c2.8-4.8,11.3-8.6,19-8.6c7.7,0,11.8,3.8,9.2,8.6c-2.7,4.8-11.3,8.7-19.1,8.8
	C97.9,21,93.9,17.1,96.7,12.3z M61.8,12.3c3-4.8,11.6-8.6,19.4-8.6c7.7,0,11.7,3.8,8.9,8.6C87.2,17.1,78.5,21,70.6,21
	C62.7,21,58.8,17.1,61.8,12.3z M26.9,12.3c3.1-4.8,11.9-8.6,19.7-8.6c7.7,0,11.6,3.8,8.6,8.6c-3,4.8-11.9,8.7-19.8,8.8
	C27.5,21,23.8,17.1,26.9,12.3z M21,43.4c-8,0-11.9-4.1-8.5-9.2c3.3-5,12.3-9,20.2-9c7.9,0,11.8,4,8.6,9C38.2,39.3,29.1,43.4,21,43.4
	z M18.9,81.1c3.4-5.5,12.8-9.8,21.1-9.8c8.3,0,12.4,4.4,9.1,9.8c-3.3,5.5-12.8,10-21.2,10C19.5,91.2,15.4,86.7,18.9,81.1z
	 M12.3,116.8c-8.6,0-12.7-4.7-9.1-10.5C6.8,100.6,16.5,96,25,96c8.5,0,12.6,4.6,9.2,10.3C30.7,112.1,20.9,116.8,12.3,116.8z
	 M19.2,172.1c-9.1,0-13.4-5.2-9.6-11.6c3.7-6.3,13.9-11.4,22.8-11.4c8.9,0,13.3,5.1,9.7,11.4C38.6,166.9,28.3,172.1,19.2,172.1z
	 M26.9,233.3c-9.6,0-14.1-5.8-10.2-12.9c3.9-7,14.6-12.6,23.9-12.6c9.4,0,14,5.6,10.3,12.6C47.3,227.5,36.5,233.3,26.9,233.3z
	 M24.7,287.1c4.1-7.8,15.3-14.1,25.2-14.1c9.9,0,14.9,6.3,11,14.1c-3.9,7.9-15.2,14.4-25.3,14.4C25.4,301.5,20.6,295,24.7,287.1z
	 M16.9,338.7c-10.4,0-15.3-6.9-11-15.3c4.3-8.3,15.9-14.9,26.1-14.9c10.2,0,15.2,6.6,11.1,14.9C39.1,331.8,27.3,338.7,16.9,338.7z
	 M25.7,419.9c-11.1,0-16.3-7.8-11.7-17.2c4.5-9.3,16.8-16.8,27.6-16.8c10.8,0,16.2,7.5,11.9,16.8C49.2,412.1,36.7,419.8,25.7,419.9z
	 M35.6,511.9c-11.8,0-17.4-8.9-12.7-19.6c4.7-10.6,17.8-19.1,29.3-19.1c11.5,0,17.3,8.5,12.9,19.1C60.6,503,47.4,511.8,35.6,511.9z
	 M33.3,594.5c5-12.1,18.9-21.8,31.2-21.8c12.3,0,18.5,9.7,14,21.8C73.7,606.8,59.6,617,47,617C34.3,617,28.2,606.9,33.3,594.5z
	 M23.9,675.4c-13.1,0-19.3-10.9-13.9-24.2c5.3-13,19.9-23.4,32.6-23.4c12.7,0,19.1,10.4,14.1,23.4C51.8,664.5,37.1,675.4,23.9,675.4
	z M93.6,712.3c-4.9,14.3-20,26-33.6,26c-13.6,0-20.3-11.8-14.9-26c5.2-14,20.1-25.2,33.3-25.2C91.6,687,98.5,698.2,93.6,712.3z
	 M153.6,712.3c-4.4,14.3-19.1,26-32.7,26c-13.6,0-20.7-11.8-15.9-26c4.7-14,19.2-25.2,32.4-25.2C150.7,687,157.9,698.2,153.6,712.3z
	 M141.2,675.4c-13.1,0-20-10.9-15.6-24.2c4.4-13,18.2-23.4,30.9-23.4c12.7,0,19.8,10.4,15.8,23.4
	C168.3,664.5,154.3,675.4,141.2,675.4z M213.6,712.3c-3.9,14.3-18.1,26-31.7,26c-13.6,0-21.1-11.7-16.8-26
	c4.2-14,18.3-25.2,31.5-25.2C209.7,687,217.4,698.2,213.6,712.3z M199.9,675.4c-13.1,0-20.4-10.9-16.5-24.2
	c3.9-13,17.4-23.4,30.1-23.4c12.7,0,20.2,10.4,16.7,23.4C226.5,664.5,213,675.4,199.9,675.4z M273.5,712.3
	c-3.4,14.3-17.2,26-30.8,26c-13.6,0-21.5-11.8-17.7-26c3.7-14,17.4-25.2,30.6-25.2C268.8,687,276.8,698.2,273.5,712.3z M258.5,675.4
	c-13.1,0-20.8-10.9-17.3-24.2c3.5-13,16.5-23.4,29.3-23.4c12.7,0,20.6,10.4,17.5,23.4C284.8,664.5,271.6,675.4,258.5,675.4z
	 M333.5,712.3c-2.9,14.3-16.3,26-29.9,26c-13.6,0-21.9-11.8-18.7-26c3.2-14,16.5-25.2,29.7-25.2C327.8,687,336.3,698.2,333.5,712.3z
	 M317.1,675.4c-13.1,0-21.2-10.9-18.2-24.2c3-13,15.7-23.4,28.4-23.4c12.7,0,20.9,10.4,18.3,23.4C343,664.5,330.2,675.4,317.1,675.4
	z M393.4,712.3c-2.4,14.3-15.3,26-28.9,26c-13.6,0-22.4-11.8-19.6-26c2.7-14,15.6-25.2,28.8-25.2C386.9,687,395.7,698.2,393.4,712.3
	z M403.5,651.2c-2.2,13.3-14.6,24.2-27.7,24.2c-13.1,0-21.6-10.9-19.1-24.2c2.5-13,14.9-23.4,27.6-23.4
	C397,627.8,405.6,638.2,403.5,651.2z M386.2,617c-12.6,0-20.9-10.1-18.5-22.5c2.4-12.2,14.2-21.8,26.5-21.8
	c12.3,0,20.6,9.7,18.6,21.8C410.8,606.8,398.9,617,386.2,617z M453.4,712.3c-1.9,14.3-14.4,26-28,26c-13.6,0-22.8-11.8-20.5-26
	c2.2-14,14.7-25.2,27.9-25.2C445.9,687,455.2,698.2,453.4,712.3z M461.2,651.2c-1.7,13.3-13.7,24.2-26.8,24.2
	c-13.1,0-22-10.9-19.9-24.2c2.1-13,14-23.4,26.7-23.4C453.9,627.8,462.9,638.2,461.2,651.2z M442.8,617c-12.6,0-21.3-10.1-19.3-22.5
	c1.9-12.1,13.4-21.8,25.7-21.8c12.3,0,21,9.7,19.4,21.8C467,606.8,455.4,617,442.8,617z M513.3,712.3c-1.3,14.3-13.5,26-27.1,26
	c-13.6,0-23.2-11.8-21.5-26c1.7-14,13.8-25.2,27-25.2C505,687,514.6,698.2,513.3,712.3z M519,651.2c-1.2,13.3-12.9,24.2-26,24.2
	c-13.1,0-22.4-10.9-20.8-24.2c1.6-13,13.2-23.4,25.9-23.4C510.9,627.8,520.2,638.2,519,651.2z M524.3,594.5
	c-1.2,12.3-12.3,22.5-25,22.5c-12.6,0-21.6-10.1-20.1-22.5c1.5-12.1,12.6-21.8,24.9-21.8C516.3,572.7,525.4,582.4,524.3,594.5z
	 M573.3,712.3c-0.8,14.3-12.5,26-26.1,26c-13.6,0-23.6-11.8-22.4-26c1.2-14,12.9-25.2,26.1-25.2C564,687,574.1,698.2,573.3,712.3z
	 M576.8,651.2c-0.8,13.3-12,24.2-25.1,24.2c-13.1,0-22.8-10.9-21.7-24.2c1.1-13,12.3-23.4,25.1-23.4
	C567.8,627.8,577.5,638.2,576.8,651.2z M580,594.5c-0.7,12.3-11.5,22.5-24.2,22.5c-12.6,0-22-10.1-21-22.5
	c1.1-12.1,11.8-21.8,24.1-21.8C571.3,572.7,580.7,582.4,580,594.5z M583,541.7c-0.7,11.5-11.1,21-23.3,21c-12.2,0-21.3-9.5-20.3-21
	c1-11.3,11.4-20.4,23.3-20.4C574.6,521.3,583.7,530.3,583,541.7z M608.1,738.3c-13.6,0-24.1-11.8-23.3-26c0.7-14,12-25.2,25.2-25.2
	c13.2,0,23.6,11.2,23.4,25.2C632.9,726.5,621.7,738.3,608.1,738.3z M610.3,675.4c-13.1,0-23.2-10.9-22.5-24.2
	c0.7-13,11.5-23.4,24.2-23.4c12.7,0,22.8,10.4,22.5,23.4C634.3,664.5,623.4,675.4,610.3,675.4z M612.4,617
	c-12.6,0-22.4-10.1-21.8-22.5c0.6-12.1,11.1-21.8,23.3-21.8c12.3,0,22,9.7,21.8,21.8C635.5,606.8,625,617,612.4,617z M614.3,562.6
	c-12.2,0-21.6-9.5-21-21c0.6-11.3,10.7-20.4,22.5-20.4c11.9,0,21.3,9.1,21.1,20.4C636.6,553.2,626.5,562.6,614.3,562.6z
	 M616.2,511.9c-11.8,0-20.9-8.9-20.4-19.6c0.5-10.6,10.3-19.1,21.8-19.1c11.5,0,20.6,8.5,20.4,19.1C637.7,503,628,511.8,616.2,511.9
	z M617.9,464.4c-11.4,0-20.3-8.3-19.8-18.4c0.5-9.9,9.9-17.9,21.1-17.9c11.1,0,20,8,19.8,17.9C638.7,456.1,629.3,464.4,617.9,464.4z
	 M619.5,419.9c-11.1,0-19.6-7.8-19.2-17.2c0.5-9.3,9.6-16.8,20.4-16.8c10.8,0,19.4,7.5,19.2,16.8
	C639.6,412.1,630.5,419.8,619.5,419.9z M621,378c-10.7,0-19.1-7.3-18.6-16.2c0.4-8.8,9.3-15.8,19.8-15.8c10.5,0,18.8,7,18.6,15.8
	C640.5,370.7,631.7,378,621,378z M622.4,338.7c-10.4,0-18.5-6.9-18.1-15.3c0.4-8.3,9-14.9,19.2-14.9c10.2,0,18.3,6.6,18.1,14.9
	C641.4,331.8,632.8,338.7,622.4,338.7z M623.7,301.5c-10.1,0-18-6.5-17.6-14.4c0.4-7.8,8.7-14.1,18.6-14.1c9.9,0,17.8,6.3,17.6,14.1
	C642.1,295.1,633.8,301.5,623.7,301.5z M625,266.5c-9.8,0-17.5-6.2-17.1-13.6c0.4-7.4,8.5-13.3,18.1-13.3c9.6,0,17.3,5.9,17.1,13.3
	C642.9,260.3,634.8,266.5,625,266.5z M626.1,233.3c-9.6,0-17-5.8-16.7-12.9c0.4-7,8.2-12.6,17.6-12.6c9.4,0,16.8,5.6,16.7,12.6
	C643.6,227.5,635.7,233.3,626.1,233.3z M627.3,201.9c-9.3,0-16.6-5.5-16.3-12.3c0.3-6.7,8-12,17.1-12c9.1,0,16.4,5.3,16.3,12
	C644.2,196.4,636.6,201.9,627.3,201.9z M668.9,738.3c-13.6,0-24.5-11.8-24.3-26c0.2-14,11.1-25.2,24.3-25.2
	c13.2,0,24.1,11.2,24.3,25.2C693.4,726.5,682.5,738.3,668.9,738.3z M709.7,177.7c9.1,0,16.8,5.3,17.1,12c0.3,6.7-6.9,12.2-16.3,12.3
	c-9.3,0-17-5.5-17.1-12.3C693.3,183,700.6,177.7,709.7,177.7z M694.1,220.4c-0.1-7,7.3-12.6,16.7-12.6c9.4,0,17.2,5.6,17.6,12.6
	c0.4,7.1-7.1,12.9-16.7,12.9C702.2,233.3,694.3,227.5,694.1,220.4z M712,239.5c9.6,0,17.7,5.9,18.1,13.3c0.4,7.5-7.3,13.6-17.1,13.6
	c-9.8,0-17.9-6.2-18.1-13.6C694.7,245.5,702.3,239.5,712,239.5z M713.2,273c9.9,0,18.2,6.3,18.6,14.1c0.4,7.9-7.5,14.4-17.6,14.4
	c-10.1,0-18.4-6.5-18.6-14.4C695.4,279.3,703.3,273,713.2,273z M714.4,308.5c10.2,0,18.7,6.6,19.2,14.9c0.4,8.4-7.7,15.3-18.1,15.3
	c-10.4,0-19-6.9-19.2-15.3C696.2,315.1,704.3,308.5,714.4,308.5z M715.8,346c10.5,0,19.3,7,19.8,15.8c0.4,8.9-7.9,16.2-18.6,16.2
	c-10.7,0-19.6-7.3-19.8-16.2C697,353,705.3,346,715.8,346z M717.2,385.8c10.8,0,19.9,7.5,20.4,16.8c0.5,9.5-8.1,17.2-19.2,17.2
	c-11.1,0-20.2-7.8-20.4-17.2C697.8,393.3,706.4,385.8,717.2,385.8z M718.7,428.1c11.1,0,20.5,8,21.1,17.9
	c0.5,10.1-8.3,18.4-19.8,18.4s-20.8-8.3-21.1-18.4C698.7,436.1,707.6,428.1,718.7,428.1z M720.3,473.2c11.5,0,21.2,8.5,21.8,19.1
	c0.5,10.7-8.6,19.6-20.4,19.6c-11.8,0-21.5-8.9-21.8-19.6C699.7,481.7,708.8,473.2,720.3,473.2z M722,521.3c11.9,0,22,9.1,22.5,20.4
	c0.6,11.5-8.8,21-21,21c-12.2,0-22.3-9.5-22.5-21C700.8,530.3,710.2,521.3,722,521.3z M723.9,572.7c12.3,0,22.7,9.7,23.3,21.8
	c0.6,12.3-9.1,22.5-21.8,22.5c-12.6,0-23.1-10.1-23.4-22.5C701.9,582.4,711.6,572.7,723.9,572.7z M725.9,627.8
	c12.7,0,23.6,10.4,24.2,23.4c0.7,13.3-9.4,24.2-22.5,24.2c-13.1,0-24-10.9-24.2-24.2C703.1,638.2,713.1,627.8,725.9,627.8z M728,687
	c13.2,0,24.5,11.2,25.2,25.2c0.7,14.3-9.7,26-23.3,26c-13.6,0-24.9-11.8-25.2-26C704.3,698.2,714.8,687,728,687z"/>
</svg>
