<?xml version="1.0" encoding="utf-8"?>
<!-- Generator: Adobe Illustrator 19.2.1, SVG Export Plug-In . SVG Version: 6.00 Build 0)  -->
<svg version="1.1" id="Layer_2" xmlns="http://www.w3.org/2000/svg" xmlns:xlink="http://www.w3.org/1999/xlink" x="0px" y="0px"
	 viewBox="0 0 1280 800" style="enable-background:new 0 0 1280 800;" xml:space="preserve">
<style type="text/css">
	.st0{fill:#2860AD;}
	.st1{fill:#2957A6;}
</style>
<rect class="st0" width="1280" height="800"/>
<path class="st1" d="M5.5,49.6c24.2,26.3,32.1,52.8,17.7,60.1c-5.6,2.8-14.3,2.3-23.3-1v87.9c17,0.6,40.9,13.6,60.4,33.4
	c24.3,24.8,33.1,51.6,19.3,60.2C65.9,299.2,34,286.3,8.3,261c-3-3-5.3-5.9-8.3-8.9v48.2c11,17.6,12.3,33.2,2,40
	c-0.6,0.4-1,0.8-2,1.1v98.2c14,4.2,30.8,13.5,45.1,26.3c26.2,23.8,36.1,51.3,22.2,62.4C54.6,538.3,26,531.3,0,512.1v188.4
	c12,3.8,25.6,10.6,37.5,20c28.2,21.8,39.4,50.2,25.3,63.7C51.1,795.5,25,793.3,0,780v20h195.6c-17.3-18.1-23.2-38.8-12.6-49.6
	c12.2-12.6,41.9-6.5,66,13.1c14,11.2,23.2,24.7,26.1,36.5h90.7c-0.3-5.2,1-9.8,3.9-13.4c9.8-11.9,34.6-7.1,55.3,10.1
	c1.3,1.1,2.5,2.1,3.6,3.2h156c-15.8-15.1-22.7-35-15.5-45.2c7.5-10.6,27.4-6.6,44.3,8.8c12.4,11.2,19.9,25.4,20.1,36.3h62.4
	c-3.1-8-3.4-15.6-0.3-20.7c6.2-10.1,23.4-6.9,38.3,6.9c4.6,4.2,8.4,8.8,11.4,13.8h59.4c0.2-1,0.4-1.1,0.7-1.6
	c4.6-8.6,16.9-7.4,28.9,1.6h103.1c-11.2-11-17-27.4-12.9-36.1c4.1-8.8,16.7-6.6,28.2,4.8c9.4,9.4,15.1,22.3,14.5,31.3h42.7
	c-4.6-8-6.5-17.2-4.1-22.9c3.5-8.5,14.7-6.7,25.1,3.7c5.5,5.6,9.7,12.3,11.9,19.3h35.9c-1.4-5-1.7-9.4-0.4-12.9
	c3-8.2,13.1-6.9,22.5,2.7c3,3,5.5,6.2,7.5,10.2h34.5c-0.1-2,0.1-3.9,0.6-5.6c2.5-7.9,11.6-6.9,20.3,1.9c1.1,1.1,2.1,2.6,3.1,3.6
	h35.3c0,0,0.1-0.3,0.1-0.5c2.1-7.4,9.9-6.5,17.6,0.5h36.9c2.3-4,6.9-4,11.9,0h11.5v-6.1c-1-0.9-3-2.2-4.6-3.8
	c-7.3-7.6-11.7-19.7-9.9-26.9c1.7-6.5,7.4-6.6,14.4-0.7v-17.7c-4-6.8-6-14.7-4.7-19.8c0.8-2.9,2.7-4.5,4.7-4.7v-79.4
	c-3,2.6-8.4,0.6-13.8-5.8c-7-8.1-11.1-20.1-9.3-26.6c1.8-6.5,8.9-5,15.8,3.1c3.1,3.7,5.4,8.2,7.4,12.6V604c-1-1.1-2.8-2.4-4.2-4.1
	c-6.8-8.1-10.8-19.9-9-26.2c1.6-5.6,7.2-4.9,13.2,1v-17.1c-3-6.5-4.7-13.3-3.5-17.5c0.6-2.2,1.5-3.4,3.5-3.6v-72.1
	c-3,0.2-7.1-2.5-11.1-7.8c-6.5-8.4-10.2-19.8-8.4-25.5c1.8-5.6,8.4-3.4,14.8,4.9c1.8,2.4,3.7,5,4.7,7.7v-15.9c-1-0.6-1.1-1.3-1.6-2
	c-6.3-8.3-10-19.5-8.2-25c1.3-4.1,4.8-3.8,9.8,0v-20.7c-1-3.4-1-6.5-0.3-8.7c0.1-0.3,0.3-0.5,0.3-0.8v-69.2c-2-1.4-4.3-3.7-6.5-6.8
	c-5.9-8.4-9.4-19.2-7.6-24.1c1.8-4.9,8-2.1,13.8,6.2c0.1,0.1,0.2,0.2,0.2,0.3v-13.8c-4-7.2-6-15.1-4.5-19c0.8-2.1,2.5-2.7,4.5-2
	v-60.8c-3-0.7-6.1-3.7-9.5-8.7c-5.7-8.3-8.8-18.6-7-23c1.8-4.3,7.7-1.1,13.3,7.1c1.2,1.8,2.2,3.7,3.2,5.6v-13.2
	c0-0.1-0.1-0.1-0.1-0.2c-5.5-8.2-8.5-18.2-6.8-22.4c1.1-2.6,4-2.3,7,0.2V69.7c-3,0.5-6.8-2.9-10.8-9.1c-5.4-8.1-8.2-17.9-6.4-21.7
	c1.7-3.8,7.4-0.3,12.7,7.7c1.8,2.8,3.5,5.9,4.5,8.8V41.9c0-0.7-1-1.4-1.5-2.1c-5.2-8-8-17.5-6.3-21.2c1.2-2.6,4.7-1.7,7.7,1.8V0
	h-16.6c0.2,2,0,3.2-0.5,4.2c-1.5,3-5.5,0.8-9.8-4.2h-8c0.6,1,1.2,1.7,1.8,2.6c5.3,8.2,8.1,17.9,6.3,21.6c-1.8,3.8-7.7,0.1-13.1-8.3
	c-3.5-5.4-5.9-10.9-6.7-15.9h-35.7c4,8,5.8,15.4,4.1,18.5c-2.1,3.8-8.6-0.4-14.5-9.5c-1.9-3-3.5-6-4.7-9h-38.3c1.1,4,1.2,7.5,0,9.3
	c-2.3,3.6-8.9-0.3-15-9.3h-9.6c1.3,2,2.7,3.4,4,5.4c6.4,10,9.7,21.1,7.1,25.1c-2.5,4-10-0.9-16.6-11c-4.5-6.8-7.4-14.5-8-19.5h-44.8
	c3.4,8,4.5,14.6,2.4,17.5c-3,4-11.3-1.6-18.6-12.6c-1.1-1.6-2-2.9-2.9-4.9h-13.7c3.4,2,7.3,6.6,11,12.1c7.3,11.2,10.9,23.5,7.8,27.6
	c-3.1,4.2-11.8-1.5-19.3-12.8c-7-10.5-10.5-21.8-8.5-26.8H987c-1.3,1-3.1,1-5.3,0h-17.4c4.9,10,6.6,18.6,3.7,21.9
	c-3.7,4.3-13.5-2.3-21.9-14.8c-1.6-2.4-3-5.2-4.3-7.2h-17c4.4,3,9.6,7.9,14.2,14.8c8.6,12.5,12.4,26.2,8.5,30.6
	c-3.8,4.4-14.1-2.2-22.9-15C916.3,18.1,912.4,5,915.5,0h-65.8c4.7,10,5.9,18.6,2.5,21.8c-4.7,4.4-16.4-3.3-26.3-17.5
	c-1-1.4-2-3.4-2.8-4.4h-16.7c3.6,3,7.3,7.4,10.7,12.4c10.1,14.3,14.3,29.5,9.5,34.2c-4.9,4.7-17.2-3.2-27.6-17.8
	C791.5,18.2,787.1,7,787.3,0h-76.6c2.2,7,2,13.1-1.1,15.6c-5.3,4.1-17.3-2.6-28.2-15.6h-17.9c0.8,1,1.7,2.1,2.5,3.2
	C678,19.8,682.8,37,676.6,42c-6.3,5-21.6-4.4-34.1-21.3C637.2,13.6,633.3,6.3,631,0L530.3,0c-0.4,0.4-0.8,0.8-1.3,1.1
	c-3.1,2-7.8,1.5-13.2-1.1l-32.8,0c7.1,13.6,8.4,25.3,2.4,29.2c-8.4,5.3-27.8-6.1-43.4-26c-0.8-1.1-1.6-2.1-2.4-3.2L414,0
	c4.1,3.8,8.1,8,11.8,12.8c16,20.1,21.7,40.7,13,46.4c-8.9,5.7-29.6-6-46.3-26.6C383.1,20.9,377.1,9.1,375.3,0L237.5,0
	c-0.9,2-2.4,3.6-4.4,4.6c-5.6,2.7-14.5,0.8-24.4-4.6L166,0c10.2,17.4,11.8,32.2,2.6,36.9c-12.5,6.1-40.1-8.6-62-33.4
	c-1-1.2-2-2.4-3-3.5L67.6,0c5.1,4.4,10.1,9.3,14.8,14.6c22.4,25.2,29.8,50.6,16.5,57.2c-13.4,6.8-43.5-8.3-67-34.2
	C19.7,24.2,11.8,10.8,8.8,0L0,0l0,43.9C1.9,45.7,3.7,47.6,5.5,49.6z M70.7,446.8c-26-23.9-35.5-51.8-21.2-61.7
	c14.1-9.7,45.5,1.9,70.3,25.2c24.3,23,33.5,49.6,20.6,59.7C127.3,480.3,96.2,470.2,70.7,446.8z M267.6,511.4
	c-22.1-21-31-46.3-19.5-56c11.3-9.7,37.8-0.4,58.9,20.3c21,20.2,29.3,44.4,19,54.3C315.4,540,289.6,532,267.6,511.4z M267.5,586.5
	c-11.2,10.9-39.1,3-62.7-18c-23.8-21.4-33.3-47.8-20.9-58.3c12.2-10.4,40.7-1.3,63.3,19.8C269.6,550.7,278.6,575.8,267.5,586.5z
	 M326,458.4c-20.6-20.4-28.9-44.8-18.2-53.9c10.5-9,35.2,0.4,54.9,20.6c19.6,19.8,27.4,43,17.8,52.3
	C370.7,486.9,346.4,478.6,326,458.4z M363.4,565.5c9.8-10.1,33.9-2.8,53.4,15.9c19.3,18.3,27.6,41.2,18.6,51.5
	c-9.1,10.5-32.7,4.2-52.9-14.3C362.1,599.6,353.4,575.7,363.4,565.5z M433.4,563.4c-19.2-18.6-27.3-41.6-17.9-51.2
	c9.2-9.5,31.6-1.8,50,16.4c18.1,18,25.9,40.1,17.5,49.8C474.4,588,452.4,581.6,433.4,563.4z M481,511.7
	c-18-18.2-25.6-40.4-16.9-49.4c8.7-8.8,29.7-1.2,46.9,16.8c17,17.7,24.4,39,16.5,48.1C519.5,536.2,498.8,529.6,481,511.7z
	 M525.6,463.3c-16.9-17.8-24.1-39.3-15.9-47.7c8-8.3,27.9-0.5,44.2,17.1c16.1,17.3,22.9,37.9,15.6,46.5
	C561.9,487.7,542.4,480.8,525.6,463.3z M567.5,417.9c-15.9-17.4-22.7-38.2-15.1-46c7.6-7.8,26.3,0.1,41.6,17.2
	c15.2,16.9,21.7,36.8,14.7,44.9C601.7,442.1,583.3,435,567.5,417.9z M592.7,330.6c7.1-7.4,24.8,0.6,39.3,17.3
	c14.4,16.5,20.6,35.9,14,43.4c-6.7,7.7-24.1,0.5-39-16.3C591.9,358.1,585.4,338,592.7,330.6z M598.4,509.6
	c7.1-8.6,25.3-2.3,40.6,13.8c15,15.9,22,35.7,15.4,44.5c-6.6,8.9-24.7,3.4-40.3-12.7C598.3,538.9,591.2,518.3,598.4,509.6z
	 M651.1,508c-15.1-16-21.8-36-14.9-44.2c6.7-8.2,23.9-1.6,38.4,14.2c14.3,15.6,20.8,34.8,14.6,43.1
	C682.9,529.5,665.9,523.8,651.1,508z M686,463.4c-14.3-15.7-20.6-35-14.2-42.8c6.4-7.7,22.6-1.1,36.4,14.4
	c13.5,15.3,19.8,33.9,13.9,41.8C716.2,484.8,700,478.9,686,463.4z M1021.4,445.1c-9.3-11.5-14-26.1-10.6-32.5
	c3.4-6.4,13.5-2.2,22.5,9.1c9,11.2,13.6,25.5,10.5,32C1040.6,460.2,1030.6,456.4,1021.4,445.1z M1026.2,489.8
	c-3.3,6.8-13.7,3.2-23.3-8.3c-9.6-11.6-14.5-26.6-11-33.4c3.6-6.6,14.1-2.6,23.5,8.9C1024.6,468.5,1029.5,483.1,1026.2,489.8z
	 M1039.2,410.2c-8.9-11.3-13.5-25.6-10.2-31.8c3.3-6.1,13-1.9,21.7,9.2c8.6,11.1,13.1,24.9,10.1,31.2
	C1057.7,425.1,1048.1,421.3,1039.2,410.2z M1060,473.5c3-6.6,12.6-3.1,21.2,7.5c8.6,10.5,13.2,24.3,10.3,31
	c-2.9,6.7-12.3,3.7-21.1-7C1061.6,494.3,1056.9,480.1,1060,473.5z M1086.5,469.3c-8.5-10.6-13.1-24.5-10.1-30.8
	c2.9-6.3,12.1-2.7,20.5,7.7c8.3,10.4,12.7,23.9,10,30.3C1104,482.9,1094.9,479.8,1086.5,469.3z M1101.9,434.9
	c-8.2-10.5-12.7-24-9.8-30.1c2.8-6.1,11.6-2.4,19.7,7.9c7.9,10.3,12.3,23.5,9.7,29.6C1118.8,448.4,1110,445.2,1101.9,434.9z
	 M1126.3,380.3c7.7,10.1,11.9,23,9.3,29c-2.6,6-11.1,2.7-18.9-7.5c-8-10.3-12.2-23.5-9.5-29.4C1110,366.4,1118.4,370.1,1126.3,380.3
	z M1121.8,341c2.6-5.7,10.8-1.9,18.4,8.1c7.4,10,11.5,22.6,9,28.3c-2.5,5.7-10.7,2.4-18.3-7.6C1123.2,359.6,1119.1,346.6,1121.8,341
	z M1121.7,494.9c2.6-6.5,11.3-3.5,19.3,6.4c7.9,9.8,12.3,22.9,9.9,29.4c-2.5,6.6-11.1,4-19.2-5.8
	C1123.5,514.8,1119,501.4,1121.7,494.9z M1145.6,489.7c-7.9-9.8-12.3-23-9.7-29.3c2.5-6.2,10.9-3.2,18.7,6.5
	c7.6,9.7,12,22.5,9.6,28.8C1161.7,502,1153.4,499.4,1145.6,489.7z M1158.9,455.8c-7.7-9.7-11.8-22.6-9.4-28.6c2.5-6,10.5-2.9,18,6.7
	c7.4,9.5,11.6,22.1,9.3,28.2C1174.5,468.1,1166.5,465.4,1158.9,455.8z M1171.8,423.1c-7.4-9.6-11.5-22.2-9.1-28
	c2.4-5.8,10.2-2.7,17.5,6.8c7.1,9.4,11.2,21.7,9,27.6C1186.9,435.4,1179.1,432.6,1171.8,423.1z M1175.5,364.1
	c2.3-5.6,9.9-2.4,16.9,7c6.9,9.3,10.9,21.3,8.7,27c-2.2,5.7-9.7,2.8-16.8-6.5C1177.1,382,1173.1,369.7,1175.5,364.1z M1190.2,479
	c2.2-6.1,9.9-3.6,17.1,5.5c7.2,9,11.2,21.2,9.2,27.4c-2.1,6.2-9.7,4-16.9-5C1192.2,497.6,1188,485.1,1190.2,479z M1211.1,473.5
	c-7.1-9.1-11.2-21.3-9-27.3c2.1-5.9,9.6-3.3,16.5,5.7c6.9,8.9,10.9,20.9,8.9,26.8C1225.5,484.7,1218.2,482.4,1211.1,473.5z
	 M1196.3,361c-7-9.3-10.8-21.4-8.6-26.8c2.2-5.4,9.5-2.2,16.4,7c6.7,9.2,10.5,20.9,8.4,26.4C1210.5,373.2,1203.2,370.3,1196.3,361z
	 M1208,331.5c-6.8-9.2-10.5-21-8.3-26.2c2.1-5.2,9.2-2,15.9,7.1c6.5,9,10.2,20.5,8.2,25.9C1221.7,343.5,1214.6,340.6,1208,331.5z
	 M1219.2,302.9c-6.5-9.1-10.2-20.6-8.1-25.7c2.1-5,9-1.8,15.4,7.1c6.3,8.9,9.9,20.1,8,25.3C1232.6,314.9,1225.7,311.9,1219.2,302.9z
	 M1210.8,233.8c-2.1,4.9-9,1.4-15.5-7.8c-6.5-9.3-10-20.8-7.8-25.6c2.3-4.7,9.2-1,15.6,8.2C1209.4,217.7,1212.9,229,1210.8,233.8z
	 M1191.3,234.8c6.5,9.3,10.2,20.8,8,25.8c-2.2,5-9.3,1.6-16-7.9c-6.7-9.5-10.4-21.3-8.1-26.2
	C1177.5,221.7,1184.7,225.4,1191.3,234.8z M1179.2,261.9c6.7,9.5,10.5,21.2,8.2,26.4c-2.2,5.2-9.7,1.7-16.5-7.8
	c-7-9.6-10.8-21.8-8.3-26.8C1164.9,248.6,1172.4,252.4,1179.2,261.9z M1166.7,290c6.9,9.6,10.8,21.7,8.5,27c-2.3,5.4-10,2-17.1-7.8
	c-7.3-9.8-11.1-22.2-8.6-27.5C1151.9,276.5,1159.6,280.3,1166.7,290z M1153.7,319c7.2,9.8,11.2,22.1,8.8,27.7
	c-2.4,5.6-10.3,2.2-17.7-7.7c-7.5-10-11.4-22.6-8.9-28.1C1138.5,305.4,1146.4,309.1,1153.7,319z M1136.4,263.7
	c-2.6,5.2-10.6,1.2-18-9c-7.4-10.4-11.3-23-8.6-28.1c2.7-5.1,10.8-0.8,18.1,9.4C1135.1,246.2,1138.9,258.5,1136.4,263.7z
	 M1113.6,264.1c7.4,10.3,11.4,23,8.8,28.3c-2.6,5.4-11,1.4-18.6-9c-7.7-10.5-11.7-23.5-8.9-28.8
	C1097.7,249.4,1106.1,253.7,1113.6,264.1z M1098.8,293.3c7.7,10.5,11.8,23.4,9.1,29c-2.7,5.6-11.4,1.7-19.3-9
	c-8-10.7-12.1-24-9.2-29.5C1082.3,278.4,1090.9,282.7,1098.8,293.3z M1083.4,323.5c8,10.7,12.2,23.9,9.4,29.7
	c-2.8,5.8-11.8,1.9-20-8.9c-8.3-10.9-12.6-24.5-9.5-30.2C1066.3,308.5,1075.2,312.8,1083.4,323.5z M1067.3,355
	c8.3,10.9,12.7,24.4,9.7,30.4c-2.9,6.1-12.2,2.2-20.8-8.8c-8.6-11.1-13-25.1-9.9-31C1049.6,339.7,1058.9,344,1067.3,355z
	 M1048.2,294c-3.1,5.7-12.6,1-21.1-10.4c-8.6-11.6-12.9-25.5-9.5-31c3.3-5.5,12.9-0.5,21.2,10.9
	C1047.1,274.8,1051.4,288.4,1048.2,294z M1021.1,293.9c8.7,11.5,13,25.4,9.8,31.3c-3.3,5.9-13.1,1.3-22-10.3
	c-9-11.8-13.4-26.1-9.9-31.8C1002.5,277.3,1012.4,282.2,1021.1,293.9z M1002.6,325.5c9,11.7,13.5,26,10.1,32.1
	c-3.4,6.1-13.6,1.6-22.9-10.3c-9.3-12-13.9-26.7-10.3-32.7C983.3,308.7,993.6,313.6,1002.6,325.5z M983.4,358.4
	c9.4,11.9,14,26.6,10.5,32.9c-3.6,6.4-14.2,1.9-23.8-10.2c-9.7-12.2-14.5-27.3-10.7-33.6C963.2,341.4,974,346.3,983.4,358.4z
	 M963.4,392.8c9.7,12.2,14.6,27.2,10.9,33.8c-3.7,6.7-14.8,2.2-24.8-10c-10.1-12.5-15.1-27.9-11.1-34.5
	C942.4,375.7,953.5,380.5,963.4,392.8z M953.8,463.4c-3.9,7-15.4,2.6-25.9-9.8c-10.5-12.7-15.7-28.5-11.6-35.4
	c4.2-6.7,15.8-2,26.1,10.6C952.6,441.1,957.6,456.5,953.8,463.4z M941.8,325.1c-4,6.1-15.3,0.9-25.3-12
	c-10.1-13-14.9-28.6-10.7-34.5c4.2-5.9,15.6-0.2,25.5,12.6C941,303.9,945.7,319,941.8,325.1z M909,324.3c10.1,13,15.1,28.5,11,34.9
	c-4.1,6.5-16,1.2-26.4-11.9c-10.6-13.3-15.6-29.2-11.2-35.5C886.8,305.5,898.7,311.2,909,324.3z M885.7,358.9
	c10.6,13.2,15.7,29.1,11.5,35.8c-4.4,6.7-16.7,1.6-27.6-11.8c-11.1-13.5-16.3-30-11.7-36.6C862.5,339.9,874.9,345.6,885.7,358.9z
	 M861.2,395.3c11.1,13.5,16.5,29.9,12,36.9c-4.5,7.1-17.5,2-28.9-11.6c-11.6-13.8-17.1-30.7-12.2-37.7
	C836.9,376,850,381.7,861.2,395.3z M835.6,433.4c11.6,13.7,17.2,30.5,12.5,37.9c-4.7,7.5-18.3,2.4-30.3-11.4
	c-12.1-14.1-17.9-31.5-12.7-38.8C810.1,413.9,823.8,419.5,835.6,433.4z M811,357.3c-5.1,6.8-19,0.7-31-13.9
	c-12.2-14.8-17.7-32.3-12.2-38.9c5.3-6.6,19.3,0.2,31.2,14.7C810.6,333.6,816,350.6,811,357.3z M770.3,355.8
	c12.2,14.7,17.9,32.2,12.6,39.3c-5.4,7.2-19.9,1.1-32.6-13.8c-12.8-15.1-18.6-33.2-12.8-40.2C743.2,334.2,757.8,340.9,770.3,355.8z
	 M740.1,394.3c12.8,15.1,18.8,33,13.2,40.5c-5.7,7.5-21,1.6-34.3-13.6c-13.5-15.4-19.5-34.1-13.5-41.5
	C711.5,372.5,727,379.2,740.1,394.3z M714.9,548.5c6-8.4,21.9-3.2,35.5,11.4c13.4,14.4,19.9,32.7,14.4,41.3
	c-5.5,8.6-21.2,4.1-35.2-10.4C715.6,576.1,708.9,557,714.9,548.5z M760.6,544.9c-13.4-14.5-19.7-33-14-41.1
	c5.6-8,20.8-2.6,33.7,11.8c12.8,14.2,18.9,32,13.7,40.1C788.7,563.8,773.8,559.2,760.6,544.9z M789.9,501.3
	c-12.7-14.3-18.7-32.2-13.4-39.9c5.4-7.5,19.7-2.1,32.1,12.1c12.2,14,18,31.2,13.1,39C816.7,520.2,802.5,515.4,789.9,501.3z
	 M817,580.6c5-8.2,19-3.9,31.3,9.4c12.1,13.1,18.1,30.2,13.5,38.5c-4.6,8.4-18.5,4.7-31-8.5C818.2,606.6,812,588.9,817,580.6z
	 M856.9,575.4c-12-13.2-18-30.5-13.2-38.3c4.7-7.8,18.1-3.3,29.8,9.8c11.6,12.9,17.3,29.6,12.9,37.5
	C881.9,592.2,868.8,588.3,856.9,575.4z M881.7,532.8c-11.5-13.1-17.2-29.8-12.6-37.3c4.6-7.4,17.3-2.8,28.5,10.1
	c11.1,12.7,16.5,29,12.4,36.5C905.6,549.7,893.1,545.7,881.7,532.8z M905.3,492.3c-11-12.8-16.5-29.2-12.1-36.3
	c4.4-7.1,16.6-2.4,27.2,10.4c10.6,12.5,15.9,28.4,11.9,35.6C928.4,509.2,916.2,505,905.3,492.3z M929.9,564.6
	c4.1-7.6,16-3.9,26.6,8.1c10.5,11.8,15.9,27.5,12.2,35.2c-3.8,7.8-15.6,4.6-26.4-7.4C931.3,588.5,925.8,572.3,929.9,564.6z
	 M963.4,559.1c-10.5-11.9-15.9-27.7-11.9-35c3.9-7.3,15.3-3.4,25.5,8.4c10.1,11.7,15.3,27,11.7,34.3
	C985,574.3,973.7,570.9,963.4,559.1z M983.5,519.5c-10-11.8-15.2-27.2-11.5-34.2c3.7-7,14.6-2.9,24.4,8.7
	c9.7,11.6,14.7,26.5,11.3,33.5C1004.3,534.7,993.5,531.1,983.5,519.5z M1006.8,587.5c3.4-7.4,14.1-4.3,23.8,6.7
	c9.6,10.9,14.8,25.6,11.5,33.1c-3.2,7.5-13.8,4.9-23.6-6C1008.5,610.2,1003.3,595,1006.8,587.5z M1036.5,581
	c-9.6-11-14.6-25.8-11.3-33c3.3-7.1,13.6-3.8,22.9,7c9.2,10.8,14.2,25.2,11.1,32.4C1056.2,594.6,1046,591.8,1036.5,581z
	 M1053.8,542.2c-9.2-10.8-14-25.4-10.9-32.3c3.2-6.8,13.1-3.4,22.1,7.3c8.9,10.7,13.7,24.8,10.7,31.7
	C1072.8,555.9,1062.9,553,1053.8,542.2z M1075.9,606.4c2.9-7.2,12.6-4.7,21.5,5.5c8.8,10.1,13.7,24,10.9,31.2
	c-2.8,7.3-12.3,5.2-21.3-4.9C1077.9,628,1072.8,613.6,1075.9,606.4z M1102.5,599c-8.8-10.2-13.6-24.2-10.7-31.2
	c2.9-6.9,12.2-4.3,20.7,5.8c8.5,10,13.2,23.6,10.6,30.6C1120.3,611.3,1111.1,609,1102.5,599z M1117.4,561.2
	c-8.5-10.1-13.1-23.8-10.4-30.5c2.7-6.7,11.7-3.9,20,6.1c8.2,9.9,12.8,23.2,10.2,30C1134.6,573.5,1125.7,571.1,1117.4,561.2z
	 M1138.3,621.8c2.6-7,11.3-5,19.5,4.5c8.1,9.3,12.7,22.5,10.4,29.5c-2.3,7.1-11,5.4-19.3-3.9
	C1140.4,642.4,1135.7,628.9,1138.3,621.8z M1162.2,613.7c-8.1-9.4-12.7-22.7-10.2-29.5c2.4-6.8,10.9-4.6,18.8,4.8
	c7.8,9.2,12.3,22.2,10,29C1178.5,624.8,1170.2,623,1162.2,613.7z M1175,576.8c-7.8-9.3-12.3-22.4-9.9-29c2.4-6.5,10.5-4.2,18.2,5.1
	c7.6,9.2,11.9,21.8,9.7,28.4C1190.8,588,1182.8,586,1175,576.8z M1187.5,541.2c-7.6-9.2-11.9-22-9.6-28.4c2.3-6.3,10.2-3.9,17.6,5.3
	c7.4,9.1,11.6,21.5,9.4,27.9C1202.8,552.5,1195,550.4,1187.5,541.2z M1194.9,634.3c2.2-6.8,10.2-5.2,17.8,3.6
	c7.5,8.7,11.9,21.1,9.8,28c-2.1,6.9-9.9,5.6-17.6-3.1C1197.2,654,1192.7,641.2,1194.9,634.3z M1216.5,625.6
	c-7.5-8.8-11.9-21.3-9.7-28c2.1-6.6,9.9-4.8,17.2,3.9c7.3,8.6,11.5,20.9,9.6,27.5C1231.5,635.7,1223.9,634.3,1216.5,625.6z
	 M1227.7,589.6c-7.3-8.7-11.5-21.1-9.4-27.5c2.1-6.4,9.6-4.5,16.7,4.2c7.1,8.5,11.2,20.6,9.3,27
	C1242.2,599.8,1234.9,598.2,1227.7,589.6z M1238.4,554.8c-7.1-8.6-11.2-20.8-9.2-27c2-6.2,9.2-4.2,16.2,4.4
	c6.8,8.5,10.9,20.3,9,26.6C1252.6,565,1245.4,563.3,1238.4,554.8z M1238.3,446.7c-1.9,5.8-9.1,3.5-15.9-5.4c-6.9-9-10.8-21-8.7-26.7
	c2.1-5.7,9.3-3.1,16,5.8C1236.4,429.2,1240.2,440.9,1238.3,446.7z M1233.2,410.1c-6.7-8.9-10.6-20.6-8.5-26.2c2-5.5,9-2.8,15.6,5.9
	c6.5,8.7,10.3,20.2,8.4,25.8C1246.8,421.3,1239.9,418.8,1233.2,410.1z M1243.8,379.9c-6.5-8.7-10.2-20.2-8.2-25.6
	c2-5.4,8.7-2.6,15.1,6c6.4,8.5,10,19.8,8.2,25.3C1257,391,1250.3,388.5,1243.8,379.9z M1245,282.1c-1.9,5-8.6,2-14.8-6.8
	c-6.3-8.9-9.9-20.2-7.8-25.1c2-4.9,8.7-1.6,14.9,7.2C1243.4,266,1246.9,277.1,1245,282.1z M1240.7,248.5c-6.2-8.8-9.6-19.8-7.6-24.6
	c1.9-4.8,8.4-1.5,14.5,7.2c6,8.6,9.4,19.4,7.5,24.2C1253.2,260.2,1246.8,257.1,1240.7,248.5z M1250.9,222.5c-6-8.6-9.3-19.4-7.4-24
	c1.9-4.6,8.2-1.3,14.1,7.2c5.8,8.4,9.1,19,7.3,23.7C1263.1,234.1,1256.9,231,1250.9,222.5z M1239.5,127.1c-5.8-8.6-9-19.1-7-23.3
	c1.9-4.2,8.1-0.5,13.8,8c5.6,8.5,8.7,18.7,6.9,23C1251.4,139.1,1245.2,135.7,1239.5,127.1z M1236,134.9c5.8,8.6,9,19.1,7.1,23.5
	c-1.9,4.4-8.2,1-14.2-7.8c-6-8.8-9.2-19.6-7.2-23.8C1223.8,122.5,1230.2,126.2,1236,134.9z M1225.4,158.6c6,8.8,9.3,19.6,7.3,24.1
	c-2,4.6-8.5,1.1-14.6-7.8c-6.2-9-9.5-20-7.4-24.4C1212.8,146.1,1219.4,149.8,1225.4,158.6z M1214.4,183.2c6.1,9,9.5,20,7.5,24.7
	c-2,4.7-8.8,1.2-15.1-7.8c-6.3-9.2-9.8-20.4-7.6-25C1201.4,170.5,1208.2,174.2,1214.4,183.2z M1199.6,134.1c-2.1,4.4-9,0.5-15.2-8.8
	c-6.3-9.4-9.6-20.5-7.3-24.8c2.3-4.2,9.1-0.1,15.3,9.1C1198.4,118.8,1201.7,129.7,1199.6,134.1z M1180.3,133.2
	c6.3,9.4,9.7,20.5,7.5,25.1c-2.2,4.5-9.3,0.6-15.7-8.9c-6.5-9.6-10-21-7.6-25.4C1166.8,119.6,1173.9,123.8,1180.3,133.2z
	 M1167.9,157.6c6.5,9.6,10,21,7.7,25.7c-2.3,4.7-9.6,0.7-16.3-9c-6.8-9.7-10.2-21.5-7.8-26C1153.9,143.7,1161.3,148,1167.9,157.6z
	 M1155,182.8c6.8,9.8,10.4,21.5,8,26.3c-2.3,4.9-9.9,0.9-16.8-9c-7-10-10.6-22-8.1-26.7C1140.6,168.7,1148.2,173,1155,182.8z
	 M1141.7,209c7,10,10.7,22,8.2,27c-2.4,5-10.2,1-17.4-9c-7.2-10.1-10.9-22.5-8.3-27.4C1126.9,194.7,1134.6,199,1141.7,209z
	 M1125.5,155.2c-2.6,4.7-10.5,0.1-17.6-10.2c-7.2-10.4-10.8-22.7-8-27.2c2.7-4.5,10.7,0.3,17.7,10.6
	C1124.6,138.6,1128.1,150.6,1125.5,155.2z M1103,153.4c7.2,10.4,10.9,22.7,8.2,27.5c-2.7,4.8-10.8,0.3-18.2-10.3
	c-7.4-10.7-11.1-23.2-8.3-27.9C1087.5,138.1,1095.8,142.9,1103,153.4z M1087.8,179.4c7.5,10.6,11.2,23.2,8.5,28.2
	c-2.8,5-11.3,0.5-18.9-10.3c-7.7-10.9-11.5-23.7-8.6-28.6C1071.8,163.8,1080.3,168.7,1087.8,179.4z M1072.1,206.4
	c7.8,10.8,11.7,23.8,8.8,28.9c-2.9,5.2-11.7,0.6-19.6-10.4c-8-11.1-12-24.3-8.9-29.4C1055.5,190.5,1064.4,195.4,1072.1,206.4z
	 M1055.8,234.4c8,11.1,12.1,24.3,9.1,29.7c-3,5.4-12.1,0.8-20.3-10.4c-8.3-11.3-12.4-24.9-9.2-30.2
	C1038.6,218.3,1047.7,223.2,1055.8,234.4z M1037.9,175.1c-3.2,5-12.5-0.2-20.6-11.8c-8.3-11.7-12.2-25.2-8.8-30
	c3.4-4.7,12.7,0.8,20.7,12.3C1037.2,157,1041.1,170.2,1037.9,175.1z M1011.2,172.3c8.3,11.7,12.3,25.2,9,30.4
	c-3.4,5.2-12.9-0.1-21.5-11.9c-8.6-12-12.7-25.8-9.2-30.8C993.2,154.9,1002.8,160.5,1011.2,172.3z M992.5,200.1
	c8.6,11.9,12.8,25.8,9.4,31.2c-3.5,5.4-13.5,0.1-22.3-12c-8.9-12.2-13.2-26.5-9.5-31.7C973.8,182.5,983.8,188.1,992.5,200.1z
	 M973,229.2c8.9,12.2,13.3,26.5,9.8,32.1c-3.7,5.6-14,0.3-23.3-12c-9.3-12.5-13.8-27.2-9.9-32.6C953.4,211.2,963.9,216.9,973,229.2z
	 M952.6,259.5c9.3,12.5,13.9,27.1,10.1,33c-3.8,5.9-14.6,0.6-24.3-12c-9.7-12.8-14.3-27.8-10.3-33.6
	C932.2,241.2,943.1,246.9,952.6,259.5z M932.7,193.6c-4,5.4-15-0.7-24.6-13.8c-9.7-13.2-14.1-28.3-9.8-33.4
	c4.3-5.1,15.3,1.4,24.7,14.4C932.2,173.7,936.7,188.3,932.7,193.6z M900.4,189.6c9.7,13.2,14.3,28.3,10.1,33.8
	c-4.1,5.7-15.7-0.5-25.7-13.9c-10.1-13.5-14.7-29-10.2-34.5C879,169.7,890.6,176.3,900.4,189.6z M876.8,219.7
	c10.1,13.5,14.9,29,10.6,34.8c-4.4,5.9-16.5-0.2-26.9-14c-10.6-13.8-15.4-29.8-10.7-35.5C854.4,199.4,866.5,206.1,876.8,219.7z
	 M852.1,251.3c10.6,13.8,15.6,29.8,11,35.9c-4.6,6.2-17.3,0-28.2-14c-11.1-14.1-16.1-30.6-11.2-36.6
	C828.7,230.7,841.3,237.4,852.1,251.3z M826.2,284.4c11.1,14.1,16.3,30.6,11.5,37c-4.9,6.4-18,0.3-29.5-14
	c-11.6-14.5-16.9-31.5-11.7-37.7C801.6,263.4,814.8,270.2,826.2,284.4z M803.7,210.4c-5.2,5.8-18.5-1.3-30-16.2
	c-11.6-15.1-16.6-32.1-11.1-37.6c5.4-5.6,19,2.1,30.2,17C803.8,188.2,808.6,204.6,803.7,210.4z M763.9,204.8
	c11.7,15,16.8,32,11.5,38.1c-5.4,6.2-19.4-1.1-31.5-16.3c-12.1-15.5-17.4-32.9-11.6-38.9C738,181.9,752.1,189.6,763.9,204.8z
	 M733.5,237.7c12.3,15.4,17.6,32.8,12,39.3c-5.7,6.5-20.5-0.8-33.2-16.4c-12.8-15.9-18.3-34-12.2-40.2
	C706.2,214.3,721.1,222.1,733.5,237.7z M701.5,272.5c12.9,15.8,18.5,33.8,12.6,40.6c-6,6.8-21.6-0.4-35-16.4
	c-13.4-16.3-19.3-35-12.8-41.6C672.7,248.6,688.5,256.4,701.5,272.5z M667.7,309.1c13.6,16.1,19.6,34.9,13.3,42
	c-6.2,7.3-22.7,0-36.9-16.4c-14.2-16.7-20.3-36-13.5-43C637.3,284.8,654,292.8,667.7,309.1z M641.8,225.1
	c-6.7,6.4-23.4-2.1-37.6-19.3c-14.2-17.5-20-36.9-12.8-43c7.1-6.1,24.1,3.1,37.8,20.3C642.8,200,648.4,218.7,641.8,225.1z
	 M591.4,217.4c14.4,17.4,20.3,36.7,13.3,43.5c-7.1,6.9-24.8-1.7-39.8-19.5c-15-18-21.1-38-13.5-44.5
	C558.9,190.5,576.8,199.8,591.4,217.4z M551.2,253.9c15.3,17.9,21.5,38,14,45.1c-7.5,7.3-26.3-1.4-42.2-19.5
	c-15.9-18.5-22.4-39.3-14.3-46.2C516.8,226.4,535.9,235.8,551.2,253.9z M508.5,292.6c16.2,18.4,22.7,39.1,14.8,46.8
	c-8.1,7.6-28-0.9-44.8-19.5c-16.9-19-23.8-40.6-15.1-48C472.1,264.7,492.3,274,508.5,292.6z M463.1,333.9
	c17.2,18.8,24.1,40.3,15.7,48.5c-8.6,8.2-29.8-0.3-47.7-19.5c-18.1-19.4-25.3-41.8-16.1-49.8C424.2,305.4,445.8,314.8,463.1,333.9z
	 M414.6,378c18.2,19.4,25.7,41.7,16.7,50.4c-9.1,8.8-31.8,0.3-50.9-19.3c-19.3-19.9-27.1-43.4-17.1-51.8
	C373,348.9,396,358.5,414.6,378z M382.1,277c-9.6,7.7-32.9-2.6-52-23.6c-19.4-21.2-26.5-44.5-16.1-52c10.4-7.2,33.8,4.2,52.3,24.9
	C384.6,247,391.6,269.3,382.1,277z M311.3,267.4c19.5,21.2,27,44.5,16.8,52.7c-10.3,8.3-35.3-2.1-55.7-23.6
	c-20.7-21.9-28.5-46.4-17.2-54.2C266.4,234.6,291.4,246.1,311.3,267.4z M252.2,311.5c20.9,21.8,29,46.2,17.9,54.9
	c-11.1,9-38-1.4-59.9-23.6c-22.4-22.4-30.5-48-18.4-56.5C204,277.9,230.9,289.5,252.2,311.5z M188.5,359
	c22.5,22.4,31.1,47.9,19.2,57.2c-12,9.6-40.8-0.6-64.5-23.5c-24-23.2-32.9-50-19.7-59.1C136.4,324.5,165.6,336.3,188.5,359z
	 M136.4,713c-13.2,12.7-45.6,5.7-73.1-16c-27.7-22.3-38.8-51-24.2-63.4c14.4-12.2,47.6-3.7,73.9,18.3
	C139,673.5,149.3,700.5,136.4,713z M204.5,647.3c-12.1,11.7-42.2,4.3-67.6-17.1c-25.7-21.9-36-49.5-22.5-60.8
	c13.1-11.4,43.9-2.4,68.3,19.2C206.9,609.7,216.4,635.7,204.5,647.3z M330.1,753.7c-10.5,12-37.5,6.7-60.7-12.4
	c-23.5-19.5-33.4-45.3-21.8-57.1c11.4-11.7,39-5.1,61.4,14.3C331.1,717.3,340.3,741.8,330.1,753.7z M384.6,691.2
	c-9.8,11.2-35,5.4-56.6-13.5c-21.8-19.3-31.1-44-20.4-55.1c10.6-10.8,36.2-3.8,57.2,15.1C385.4,656.5,394.2,680.1,384.6,691.2z
	 M492.7,785.4c-8.5,11.4-31.4,7.3-51.2-9.7c-20.3-17.2-29.1-40.6-19.9-52c9.2-11.1,32.3-5.8,51.8,11.2
	C492.4,751.8,500.9,774.1,492.7,785.4z M536.9,725.9c-7.9,10.7-29.4,6.1-48.1-10.7c-19-17-27.4-39.8-18.7-50.3
	c8.6-10.4,30.4-4.8,48.6,12.1C536.6,693.6,544.8,715.4,536.9,725.9z M578.5,670c-7.4,10.1-27.8,5.2-45.2-11.5
	c-17.9-16.8-25.8-38.8-17.6-48.7c8-9.8,28.5-3.8,45.7,12.8C578.1,639.1,586,660.2,578.5,670z M574.9,605.3
	c-16.9-16.5-24.3-37.8-16.6-47.1c7.6-9.2,26.8-2.9,43.1,13.4c15.9,16.2,23.2,36.6,16.2,45.9C610.6,626.9,591.4,621.7,574.9,605.3z
	 M667.3,753.3c-6.6,10.2-25.1,6.7-41.3-8.4c-16.6-15.3-24.3-36.1-17.2-46.2c7.1-10,25.8-5.5,41.8,9.7
	C666.3,723.2,673.7,743.2,667.3,753.3z M701.6,699.8c-6.2,9.6-23.7,5.7-39.1-9.2c-15.7-15.1-23.1-35.4-16.3-44.9
	c6.6-9.4,24.4-4.7,39.5,10.4C700.6,670.8,707.7,690.2,701.6,699.8z M697,639.3c-14.9-14.9-21.8-34.5-15.5-43.5
	c6.3-8.9,23.1-3.9,37.4,10.9c14.1,14.6,20.8,33.4,15.1,42.5C728.2,658.2,711.6,654,697,639.3z M780.2,774.9
	c-5.5,9.7-21.4,6.9-35.9-6.6c-14.7-13.8-21.8-33-15.9-42.7c5.9-9.5,22.1-6,36.3,7.7C778.7,746.8,785.6,765.2,780.2,774.9z
	 M808.8,723.6c-5.1,9.3-20.3,6-34.1-7.4c-13.9-13.7-20.8-32.4-15.2-41.5c5.6-9.1,21-5.2,34.5,8.4
	C807.3,696.4,813.9,714.4,808.8,723.6z M803.5,666.9c-13.2-13.6-19.8-31.8-14.4-40.4c5.2-8.7,20-4.5,32.8,8.9
	c12.7,13.2,18.9,30.8,14.1,39.5C831,683.6,816.6,680.2,803.5,666.9z M879,791.8c-4.5,9.3-18.6,7.1-31.5-5.2
	c-13-12.5-19.7-30.3-14.8-39.6c4.9-9.2,19.1-6.3,31.8,6.1C877,765.4,883.5,782.5,879,791.8z M903,742.6c-4.3,8.9-17.8,6.4-30.1-5.9
	c-12.5-12.4-18.8-29.8-14.1-38.6c4.7-8.8,18.3-5.6,30.4,6.7C901.1,717,907.3,733.8,903,742.6z M925.8,695.7
	c-4.1,8.5-17,5.7-28.8-6.4c-11.9-12.3-18-29.3-13.5-37.7c4.4-8.4,17.5-5,29,7.2C924,670.8,929.9,687.2,925.8,695.7z M920.2,643.9
	c-11.4-12.2-17.2-28.8-12.9-36.8c4.2-8,16.7-4.4,27.8,7.7c10.9,12,16.6,28,12.7,36C943.7,658.9,931.4,655.9,920.2,643.9z
	 M986.3,757.6c-3.7,8.5-15.6,6.6-26.7-4.6c-11.2-11.3-17.2-27.6-13.2-36.1c3.9-8.4,16-5.9,27,5.4C984.1,733.4,990,749.1,986.3,757.6
	z M1005.7,712.3c-3.5,8.2-15,6-25.6-5.1c-10.8-11.3-16.5-27.2-12.7-35.3c3.8-8.1,15.4-5.3,25.9,5.9
	C1003.6,688.8,1009.2,704.2,1005.7,712.3z M999.7,663.3c-10.4-11.2-15.8-26.7-12.2-34.6c3.6-7.7,14.7-4.8,24.8,6.3
	c9.9,11,15.3,26,12,33.8C1020.9,676.8,1009.9,674.4,999.7,663.3z M1060.6,769.2c-3.1,8.2-13.8,6.7-23.9-3.5
	c-10.2-10.4-15.8-25.7-12.4-33.9c3.4-8.1,14.2-6.2,24.1,4.2C1058.2,746.3,1063.7,761,1060.6,769.2z M1077.1,725.5
	c-3,7.9-13.3,6.2-23-4c-9.8-10.4-15.2-25.3-12-33.2c3.2-7.8,13.6-5.6,23.2,4.7C1074.8,703.2,1080.1,717.6,1077.1,725.5z M1070.9,679
	c-9.4-10.3-14.7-25-11.5-32.5c3.1-7.5,13.1-5.1,22.3,5.1c9.1,10.2,14.2,24.3,11.3,31.9C1090.1,691.1,1080.2,689.2,1070.9,679z
	 M1127.2,777.9c-2.7,8-12.2,6.8-21.4-2.6c-9.3-9.6-14.6-23.9-11.7-31.9c2.9-7.9,12.6-6.3,21.7,3.3
	C1124.7,756.1,1129.9,770,1127.2,777.9z M1141.3,735.7c-2.6,7.7-11.8,6.3-20.7-3.1c-9-9.6-14.1-23.7-11.3-31.3
	c2.7-7.6,12.2-5.8,20.9,3.7C1139,714.5,1143.9,728.1,1141.3,735.7z M1155,695.1c-2.5,7.4-11.4,5.8-20-3.5
	c-8.7-9.5-13.6-23.3-10.9-30.7c2.6-7.3,11.7-5.4,20.2,4.1C1152.6,674.3,1157.4,687.7,1155,695.1z M1187.3,784.2
	c-2.3,7.7-10.9,6.9-19.4-1.8c-8.5-8.9-13.5-22.4-11-30.1c2.4-7.6,11.2-6.4,19.6,2.4C1184.8,763.4,1189.6,776.5,1187.3,784.2z
	 M1199.5,743.4c-2.2,7.4-10.6,6.4-18.7-2.3c-8.2-8.9-13.1-22.2-10.7-29.5c2.4-7.3,10.9-6,18.9,2.9
	C1197,723.1,1201.7,736.1,1199.5,743.4z M1211.2,704c-2.1,7.2-10.2,6-18.1-2.7c-8-8.8-12.7-21.9-10.3-29c2.3-7.1,10.5-5.6,18.3,3.2
	C1208.8,684.2,1213.4,696.9,1211.2,704z M1241.8,788.3c-2,7.4-9.8,7-17.6-1.2c-7.9-8.2-12.5-21-10.4-28.4c2.1-7.3,10.1-6.5,17.8,1.7
	C1239.2,768.6,1243.8,781,1241.8,788.3z M1252.3,748.9c-1.9,7.2-9.5,6.5-17.1-1.6c-7.6-8.2-12.2-20.8-10.1-28
	c2-7.1,9.8-6.1,17.2,2.1C1249.7,729.5,1254.2,741.8,1252.3,748.9z M1262.4,710.7c-1.9,7-9.3,6.1-16.6-2c-7.4-8.2-11.8-20.6-9.8-27.5
	c2-6.9,9.5-5.7,16.7,2.5C1259.9,691.7,1264.2,703.7,1262.4,710.7z M1262.9,647c7,8.1,11.2,19.9,9.4,26.6c-1.8,6.7-9,5.8-16.1-2.3
	c-7.2-8.2-11.5-20.4-9.5-27.1C1248.5,637.5,1255.8,638.8,1262.9,647z M1264.5,525.2c-1.8,6.1-8.8,4.3-15.6-4.2
	c-6.9-8.5-10.8-20.4-8.9-26.5c2-6,9-3.9,15.7,4.6C1262.3,507.5,1266.3,519.1,1264.5,525.2z M1265.6,467.1
	c6.5,8.3,10.3,19.7,8.5,25.6c-1.8,5.9-8.5,4-15.1-4.4c-6.7-8.4-10.6-20.2-8.6-26C1252.2,456.5,1259.1,458.7,1265.6,467.1z
	 M1268.6,356.4c-1.8,5.3-8.3,2.8-14.6-5.7c-6.3-8.6-9.9-19.9-8-25.1c1.9-5.2,8.5-2.4,14.7,6.1C1266.8,340,1270.4,351.1,1268.6,356.4
	z M1270.3,303.8c6,8.3,9.5,19.2,7.7,24.3c-1.7,5.1-8,2.6-14.2-5.8c-6.1-8.5-9.6-19.5-7.8-24.6C1258,292.6,1264.3,295.4,1270.3,303.8
	z M1267.3,181c5.6,8.3,8.9,18.6,7.1,23.2c-1.7,4.6-7.8,1.6-13.6-6.8c-5.8-8.5-9.1-19-7.2-23.5C1255.5,169.4,1261.6,172.6,1267.3,181
	z M1253,59.9c1.8-3.9,7.6-0.4,13,7.8c5.3,8.1,8.3,17.9,6.6,21.9c-1.7,4-7.6,0.7-13-7.6C1254.1,73.8,1251.2,63.9,1253,59.9z
	 M1256.4,89.4c5.4,8.3,8.5,18.3,6.7,22.5c-1.8,4.2-7.8,0.8-13.4-7.6c-5.6-8.5-8.7-18.7-6.8-22.7
	C1244.8,77.5,1250.8,81.1,1256.4,89.4z M1223.1,14c2-3.7,8,0.2,13.5,8.7c5.4,8.4,8.4,18.3,6.5,22.2c-1.9,3.9-7.9,0.1-13.5-8.4
	C1224,27.8,1221.1,17.7,1223.1,14z M1212.1,34.6c2.1-3.8,8.3,0.1,13.9,8.8c5.6,8.6,8.6,18.7,6.7,22.7c-2,4-8.2,0.2-13.9-8.5
	C1213.1,48.8,1210.1,38.4,1212.1,34.6z M1200.8,55.8c2.1-4,8.5,0.1,14.4,8.9c5.8,8.8,8.9,19.2,6.9,23.3c-2,4.1-8.4,0.3-14.3-8.6
	C1201.8,70.4,1198.7,59.8,1200.8,55.8z M1203.9,86.8c5.9,9,9.1,19.6,7.1,23.9c-2.1,4.2-8.7,0.4-14.8-8.7c-6.1-9.2-9.3-20-7.1-24.2
	C1191.3,73.7,1197.9,77.8,1203.9,86.8z M1168.3,6c2.3-3.7,9,0.7,14.9,9.9c6,9.1,9,19.6,6.8,23.5c-2.2,3.9-8.9-0.4-14.9-9.6
	C1169.1,20.4,1166,9.8,1168.3,6z M1155.6,26.8c2.3-3.9,9.3,0.6,15.4,10.1c6.1,9.3,9.2,20.1,7,24.1c-2.2,4.1-9.2-0.3-15.4-9.8
	C1156.3,41.7,1153.1,30.7,1155.6,26.8z M1142.4,48.4c2.4-4,9.6,0.6,16,10.2c6.3,9.6,9.6,20.6,7.2,24.8c-2.3,4.2-9.4-0.2-15.9-9.9
	C1143.2,63.7,1139.9,52.4,1142.4,48.4z M1128.7,70.7c2.6-4.2,9.9,0.5,16.5,10.3c6.5,9.8,9.8,21.1,7.5,25.4c-2.5,4.3-9.8-0.1-16.4-10
	C1129.6,86.4,1126.2,74.9,1128.7,70.7z M1131.7,104.3c6.7,10,10.2,21.6,7.7,26.1c-2.5,4.5-10.1,0-17-10.1
	c-6.9-10.2-10.4-22.1-7.7-26.5C1117.3,89.5,1124.9,94.2,1131.7,104.3z M1092,15.1c2.8-3.9,10.5,1.3,17.2,11.5
	c6.7,10.2,10,21.7,7.4,25.7c-2.6,4.1-10.3-0.8-17.2-11.2C1092.5,30.8,1089.2,19.1,1092,15.1z M1076.6,37c2.9-4.1,10.8,1.2,17.9,11.7
	c6.9,10.4,10.4,22.2,7.6,26.5c-2.8,4.3-10.7-0.7-17.8-11.3C1077.1,53.1,1073.7,41.1,1076.6,37z M1060.5,59.6
	c3-4.3,11.3,1.1,18.5,11.9c7.1,10.7,10.7,22.8,7.9,27.2c-2.8,4.4-11.1-0.6-18.4-11.5C1061.1,76.3,1057.5,63.9,1060.5,59.6z
	 M1043.9,83.2c3.1-4.4,11.7,1,19.2,12c7.4,10.9,11.1,23.4,8.1,27.9c-2.9,4.6-11.5-0.5-19.1-11.6
	C1044.4,100.4,1040.7,87.6,1043.9,83.2z M1046.5,119.9c7.7,11.2,11.4,23.9,8.4,28.7c-3.1,4.8-12-0.4-19.9-11.7
	c-7.9-11.5-11.7-24.5-8.5-29.2C1029.8,103.2,1038.7,108.7,1046.5,119.9z M1001.8,20.9c3.4-4.1,12.4,2,20.1,13.5
	c7.6,11.4,11.3,24.1,8.1,28.4c-3.3,4.3-12.2-1.4-20.1-13C1002,38,998.4,25.1,1001.8,20.9z M982.8,43.9c3.6-4.3,12.9,1.9,20.9,13.7
	c7.9,11.7,11.7,24.7,8.3,29.2c-3.4,4.5-12.7-1.3-20.9-13.2C983,61.6,979.3,48.3,982.8,43.9z M963,67.9c3.8-4.4,13.4,1.8,21.8,13.9
	c8.2,12,12.2,25.4,8.7,30.1c-3.5,4.7-13.3-1.2-21.7-13.4C963.2,86.2,959.4,72.5,963,67.9z M942.4,92.9c3.9-4.7,14,1.7,22.7,14.1
	c8.6,12.3,12.6,26,9,31c-3.7,4.9-13.8-1.1-22.6-13.6C942.5,111.8,938.5,97.6,942.4,92.9z M944.5,133.3c8.9,12.6,13.2,26.8,9.3,31.9
	c-3.8,5.2-14.4-0.9-23.6-13.7c-9.4-12.9-13.6-27.5-9.4-32.4C924.8,114.1,935.4,120.6,944.5,133.3z M893.4,22.5
	c4.2-4.4,15,2.8,23.9,15.8c8.9,12.9,12.8,26.9,8.9,31.5c-4,4.6-14.7-2.2-23.9-15.3C893.2,41.3,889.2,26.9,893.4,22.5z M869.7,46.8
	c4.4-4.6,15.7,2.7,25,16.1c9.3,13.2,13.4,27.7,9.2,32.5c-4.2,4.8-15.3-2.1-24.9-15.5C869.4,66.2,865.3,51.4,869.7,46.8z M844.9,72.3
	c4.7-4.7,16.4,2.6,26.2,16.3c9.7,13.6,14,28.5,9.6,33.6c-4.4,5.1-16.1-1.9-26.1-15.7C844.5,92.4,840.2,77.1,844.9,72.3z M818.8,99
	c4.9-5,17.2,2.4,27.4,16.5c10.2,13.9,14.6,29.3,10,34.6c-4.7,5.3-16.8-1.7-27.3-15.9C818.4,119.9,813.8,104,818.8,99z M820.1,143.8
	c10.6,14.3,15.2,30.2,10.5,35.7c-5,5.5-17.6-1.6-28.6-16.1c-11-14.7-15.9-31.1-10.6-36.4C796.4,121.7,809.4,129.3,820.1,143.8z
	 M760.7,18.5c5.4-4.6,18.4,3.9,29,18.8c10.6,14.7,15,30.6,9.9,35.4c-5,5-18-3.1-29-18.1C759.8,39.4,755.2,23.1,760.7,18.5z
	 M730.4,44.3c5.7-4.8,19.4,3.8,30.5,19.1c11.1,15.2,15.7,31.4,10.4,36.6c-5.4,5.1-19-2.9-30.4-18.4C729.4,66,724.8,49.3,730.4,44.3z
	 M698.5,71.5c6-5.2,20.4,3.7,32.1,19.4c11.7,15.6,16.4,32.4,10.9,37.9c-5.7,5.5-19.9-2.8-32-18.7C697.4,94.1,692.4,76.7,698.5,71.5z
	 M664.8,100.2c6.4-5.4,21.5,3.6,33.8,19.7c12.3,16,17.4,33.5,11.4,39.2c-6,5.8-21-2.6-33.7-18.9
	C663.7,123.7,658.4,105.7,664.8,100.2z M664.9,150.6c13,16.5,18.2,34.5,12,40.6c-6.4,6.1-22.1-2.4-35.6-19.1
	c-13.4-17-18.9-35.6-12.1-41.4C635.9,124.9,651.9,134,664.9,150.6z M594.3,7.1c7-4.9,23.2,5.3,36.1,22.6
	c12.8,17.1,17.9,35.1,11.2,40.2c-6.7,5.3-22.8-4.3-36-21.7C592.3,30.5,587.1,11.9,594.3,7.1z M554.7,34.6c7.4-5.3,24.6,5.3,38.2,23
	c13.5,17.6,18.8,36.1,11.8,41.7c-7.1,5.6-24.1-4.1-38.1-22.1C552.5,59,547.1,39.8,554.7,34.6z M512.6,63.8
	c7.9-5.5,26.1,5.2,40.5,23.5c14.2,18.2,19.9,37.5,12.5,43.3c-7.5,5.9-25.5-4-40.4-22.5C510.2,89.3,504.5,69.3,512.6,63.8z
	 M467.7,94.9c8.5-5.9,27.8,5,43.1,23.9c15.1,18.7,21,38.7,13.2,45c-8,6.3-27.1-3.7-42.9-22.8C465.1,121.6,459.1,100.8,467.7,94.9z
	 M419.9,128c9-6.3,29.6,4.7,45.9,24.3c16.1,19.3,22.3,40.1,14,46.7c-8.5,6.7-28.9-3.4-45.6-23.1C417.1,156,410.8,134.4,419.9,128z
	 M417.7,188.1c17.1,19.9,23.8,41.5,14.8,48.6c-9,7.2-30.7-3.1-48.7-23.4c-18.1-20.6-25-43.2-15.1-49.9
	C378.4,156.7,400.3,168,417.7,188.1z M325.7,14.4c10.2-5.4,32.4,7.3,49.6,28.3c17,20.8,23.2,42.3,13.8,48.4
	c-9.5,6.1-31.6-5.9-49.4-27.2C321.7,42.4,315.4,20.1,325.7,14.4z M268.1,45.9c10.9-6,34.7,7.3,53.1,29
	c18.1,21.7,24.7,43.9,14.7,50.4c-10.2,6.5-33.8-5.7-52.9-27.7C263.8,75.3,257,51.9,268.1,45.9z M206.2,79.8
	c11.8-6.4,37.2,7.1,57,29.6c19.5,22.4,26.4,45.6,15.7,52.6c-11,7-36.4-5.3-56.8-28.2C201.4,110.8,194.2,86.3,206.2,79.8z
	 M139.3,116.4c12.7-7,40.1,6.9,61.4,30.2c21,23.1,28.5,47.6,16.7,55c-11.8,7.6-39.2-4.9-61.1-28.6
	C134.1,149,126.4,123.3,139.3,116.4z M67,155.9c13.7-7.6,43.4,6.6,66.3,30.7c22.5,24,30.6,49.5,18,57.5c-12.7,8.3-42.3-4.5-66-29
	C61.3,190.4,53,163.5,67,155.9z"/>
</svg>
