<?xml version="1.0" encoding="utf-8"?>
<!-- Generator: Adobe Illustrator 19.2.1, SVG Export Plug-In . SVG Version: 6.00 Build 0)  -->
<svg version="1.1" xmlns="http://www.w3.org/2000/svg" xmlns:xlink="http://www.w3.org/1999/xlink" x="0px" y="0px"
	 viewBox="0 0 1280 800" style="enable-background:new 0 0 1280 800;" xml:space="preserve">
<style type="text/css">
	.st0{fill:#2860AD;}
	.st1{fill:#2957A6;}
</style>
<g id="Layer_2">
	<rect class="st0" width="1280" height="800"/>
</g>
<g id="Blue">
	<path class="st1" d="M1280,777.8c-2.2-2.7-4.4-6.7-6.3-12c-10.2-27-13-77.8-5.8-114.7c3-15.3,7.3-26.1,12.1-31.8V470.2
		c-7.2,11.7-15.6,12.1-22.6-1.2c-10.4-20.1-13.7-64-7-99c6.2-31.9,18.9-46.8,29.6-35.7V33.9c-2.7,0-5.3-1.2-7.7-3.7
		c-5.3-5.6-8.9-16.6-10.5-30.1h-100.1c1.6,13.1,1.3,28.9-1.4,44.1c-5.3,30.1-17.4,45.6-27.3,35.1c-9.6-10.2-13.8-41.4-8.9-70.2
		c0.5-3.2,1.2-6.2,1.9-9h-17.4c-5.1,25.4-15.6,38.7-24.7,30.4c-5.3-5-9-16.4-10.3-30.4h-80.8c4.3,11.8,5.9,30.4,3.5,48.5
		c-3.3,25.3-12.8,39.1-21.5,31.2c-8.6-7.7-13.2-33.5-10.2-57.9c1.1-8.7,3-16.2,5.4-21.9h-16.3c-0.1,4.2-0.3,8.4-0.8,12.7
		c-2.9,24-11.9,37.7-20.4,30.9c-7.1-5.7-11.7-24-11.2-43.6h-14.5c-3.9,11.3-9.8,16.6-15.6,12.6c-3.1-2.2-5.7-6.7-7.7-12.6h-67.2
		c3.6,9.1,5.4,22.7,4.4,36.3c-1.5,20.9-9,33.2-17,28c-7.8-5.3-13.2-25.6-11.9-45.8c0.5-7.2,1.8-13.6,3.6-18.5h-13.2
		c0.3,4.2,0.4,8.6,0.1,13c-1.3,20-8.5,32.2-16.3,27.6c-7.4-4.3-12.8-22.1-12.2-40.6h-10c-2.1,15-8.3,23.7-15,20.3
		C724,17.9,720,10,717.9,0h-17.5c-2.5,3.1-5.4,4.2-8.5,2.9c-1.3-0.6-2.6-1.6-3.7-2.9h-62.7c4.4,6.7,7.3,18.4,7.2,30.4
		c-0.2,17.1-6.2,28.2-13.8,25.1c-7.5-3.1-13.6-18.9-13.7-35.6c0-8.3,1.6-15.4,4.1-20H595c1.4,5.2,2.2,11.1,2.3,17.2
		c0,16.5-5.9,27.5-13.4,24.8c-7.4-2.7-13.7-17.6-13.8-33.7c0-3,0.2-5.8,0.5-8.4h-8.8c0.2,2,0.3,4,0.3,6c0.2,15.9-5.6,26.7-13,24.5
		C542,28.2,535.8,14.9,535.2,0h-8c-0.6,13.4-5.9,22.4-12.7,20.7c-5.7-1.5-10.8-10-13-20.7h-9.9c-1.9,8.5-6.2,13.6-11.5,12.4
		c-4.3-0.9-8.3-5.7-10.9-12.4h-14.5c-2.2,4.1-5.3,6.2-8.9,5.6c-2.7-0.5-5.3-2.5-7.6-5.6h-24.8c-0.5,0.1-1,0.1-1.6,0H278.4
		c6.8,1.7,13,11.8,14.2,23.5c1.3,12.7-3.5,22.3-10.9,21.6c-7.4-0.6-14.6-11.1-16-23.5c-1.2-11,2.6-20,8.7-21.6H248
		c5.4,3.5,9.8,11.7,10.9,21.2c1.4,12.3-3.4,21.8-10.8,21.4c-7.4-0.5-14.7-10.6-16.2-22.7c-1.1-9,1.4-16.6,5.7-19.9h-22.2
		c4.8,3.7,8.6,11.1,9.6,19.6c1.5,12-3.3,21.4-10.7,21.1c-7.4-0.3-14.8-10.1-16.3-21.9c-1-8.1,0.9-15.2,4.7-18.8H182
		c4.5,3.7,8.2,10.7,9.2,18.6c1.5,11.8-3.1,21.1-10.6,20.9c-7.4-0.2-14.9-9.7-16.5-21.3c-1.1-7.8,0.8-14.6,4.4-18.2h-20.6
		c4.6,3.6,8.3,10.4,9.4,18.2c1.6,11.5-3.1,20.7-10.5,20.6c-7.5-0.1-15-9.3-16.6-20.6C129,10.4,131,3.6,134.7,0h-21.6
		c5,3.3,9,10.2,10.2,18.2c1.7,11.3-3,20.4-10.4,20.4c-7.5,0-15-8.9-16.8-20.1c-1.2-8.2,1-15.3,5.2-18.6H77.2
		c5.7,2.6,10.6,9.9,12,18.7c1.7,11.1-2.9,20.1-10.4,20.2c-7.5,0.1-15.2-8.6-16.9-19.6C60.4,10.4,63.4,2.7,68.6,0H0v2.7
		c1.1-0.5,2.3-0.8,3.5-0.9c7.6-0.4,15.2,8.1,17,18.8s-2.7,19.5-10.3,19.8C6.6,40.6,3,38.8,0,35.7v68.8c2.7,3.3,4.7,7.4,5.8,11.9
		c2,8.7-0.5,16-5.8,18.3v9.6c7,1.1,14.2,8.9,16.6,18.2c2.6,10-1.3,18-8.7,17.9c-2.6-0.1-5.3-1.1-7.9-2.8v60.6
		c3.5,3,6.5,7.4,8.1,12.1c3,8.9-0.2,15.8-7.2,15.5c-0.3,0-0.6-0.1-0.9-0.1V278c1.3-0.9,2.9-1.3,4.8-1.3c6.8,0.3,14.7,7.5,17.9,15.9
		c3.1,8.4,0.2,14.8-6.5,14.4c-5.6-0.3-12.2-5.2-16.1-11.7v29c1.9,2.2,3.6,4.7,4.7,7.3c3,7.3,1,12.9-4.7,13.3v12.7
		c1.1-0.6,2.4-0.9,4-0.8c6.4,0.4,14.2,6.8,17.6,14.2c3.3,7.4,1,12.9-5.3,12.4C10.8,383,4,378.2,0.1,372.1V399
		c2.5,2.2,4.6,4.8,6.1,7.6c3.5,6.8,1.4,11.9-4.8,11.5c-0.4,0-0.8-0.1-1.3-0.2v47.3c4.6,2,9.4,5.9,12,10.2c3.6,5.9,2,10.2-3.8,9.8
		C5.7,485,2.8,484,0,482.3v24.2c2.4,3.8,2.3,6.8,0,8.1v42.9c4.4,1.6,9.1,4.7,12,8.2c3.8,4.7,2.6,8.1-2.7,7.6
		c-2.8-0.2-6.1-1.4-9.3-3.2v19.4c1,0.8,1.8,1.6,2.6,2.4c3.9,4.3,2.8,7.4-2.4,7.1c-0.1,0-0.1,0-0.2,0v60c4.5,0.9,10.1,3.4,13.4,6.2
		c3.9,3.3,3.2,5.7-1.6,5.5c-3.4-0.2-8-1.7-11.8-3.8v15.7c2.7,1.1,5.3,2.4,7.2,3.9c3.9,3,3.3,5.2-1.3,5.1c-1.7-0.1-3.8-0.5-5.8-1.1
		v15.2c0.6,0.3,1.2,0.7,1.7,1.1c3.9,2.8,3.4,4.8-1.2,4.7c-0.2,0-0.3,0-0.5,0V800h182c-2.5-0.7-4.9-1.5-6.7-2.3
		c-3.7-1.7-3.5-2.9,0.3-2.6c3.8,0.3,9.8,1.9,13.5,3.6c1.1,0.5,1.8,1,2.2,1.3h17c-2.9-1.5-2.6-2.6,0.9-2.2c2.6,0.2,6.2,1.1,9.4,2.2
		h68.7c-3.6-0.9-7.9-2.5-10.8-4.1c-3.7-2-3.5-3.2,0.3-2.6c3.8,0.6,9.9,2.8,13.6,4.7c1.4,0.8,2.3,1.4,2.6,1.9h14.5
		c-1.4-1.2-0.6-1.7,2.3-1.1c1.3,0.2,2.8,0.6,4.4,1.1h37.4c-2.9-1.1-6-2.6-8.2-3.9c-3.7-2.3-3.5-3.5,0.4-2.6s10,3.5,13.7,5.8
		c0.4,0.3,0.8,0.5,1.1,0.7h49.2c-1.6-1.5-0.8-2,2.3-1.1c0.9,0.3,1.8,0.6,2.8,1.1h29.6c-2.6-2.3-2.1-3.2,1.6-1.8
		c1.2,0.4,2.6,1.1,4,1.8h27.5c-1.4-1.7-0.4-2.1,2.7-0.8c0.5,0.2,1,0.5,1.5,0.8h15c-4.3-2.1-10.5-6.6-14.2-10.2
		c-3.8-3.7-3.4-5.2,0.9-3.1c4.3,2,10.7,6.8,14.5,10.5c1.2,1.2,2,2.1,2.3,2.8h24.9c-2.9-2.3-5.7-4.8-7.7-7c-3.8-4.2-3.3-5.7,1.1-3.3
		c3.7,2.1,9.1,6.4,12.9,10.3h22.6c-0.4-0.5-0.8-1-1.2-1.4c-3.8-4.7-3.1-6.3,1.3-3.4c1.8,1.2,3.9,2.9,6,4.8h12.6
		c-4.6-3.2-11.3-9.9-14.9-15c-3.7-5.2-3-7,1.6-3.8s11.2,10.1,15,15.4c1,1.4,1.7,2.6,2.1,3.5h22.9c-1.9-2.3-3.6-4.6-4.9-6.7
		c-3.7-5.9-2.8-7.7,1.9-4c3,2.4,6.7,6.5,10,10.7H628c-0.3-1.9,0.8-2.1,3.3,0h12.6c-2.3-3.4-4.4-7-5.9-10.1c-3.5-7.3-2.2-9.5,2.7-4.7
		c3.4,3.3,7.5,9.1,11,14.8h13.8c-0.8-0.5-1.8-1.3-3-2.6c-5-5.4-11.9-16.1-15.3-24.2c-3.4-8.1-1.9-10.5,3.2-5.3
		c5.1,5.3,11.8,16.4,15.2,24.6c1.6,4,2.1,6.5,1.7,7.5h8.5c-0.4-3,1-3.2,4.1,0h13c-1.9-3.8-3.6-7.7-4.8-11.1
		c-3.2-9.2-1.4-11.7,3.7-5.5c3.2,3.8,6.9,10.1,10.1,16.6h12.8c-5.2-7.2-11.6-20-14.4-29.7c-3-10.1-0.9-13.1,4.4-6.3
		c5.4,6.8,12,21,15,31.3c0.5,1.8,0.9,3.4,1.1,4.7h8.9c0.3-0.2,0.6-0.2,1,0h16.2c-1-3.1-1.9-6.1-2.6-8.8c-2.7-11.6-0.3-14.6,5.2-6.5
		c2.6,3.8,5.3,9.3,7.8,15.3h12.9c-4.1-9.1-8.1-20.6-9.8-29.6c-2.4-12.8,0.4-16.3,6.1-7.5c5.4,8.3,11.3,24.4,14,37.2h29.1
		c-0.1-0.7-0.2-1.5-0.3-2.2c-1.9-14.7,1.5-18.3,7.4-7.7c1.5,2.7,3.1,6.1,4.5,9.9h14.5c-2.4-8.7-4.2-17.9-4.9-25.6
		c-1.5-16.3,2.5-20.5,8.7-9.1c4.3,8,8.5,21.6,11.1,34.7h16.7c-5.8-13.6-11.1-35.7-12-52.1c-1-18.1,3.7-23.1,10.3-10.6
		c6.6,12.7,12.4,38.5,13.2,57.1c0.1,2.1,0.1,3.9,0.1,5.6h8c1.2-8.7,4.9-9.2,9.6,0h20.2c-0.6-5.5-0.9-10.9-1-15.8
		c-0.1-21,5.7-26.2,12.6-10.9c3.1,6.7,5.8,16.3,7.9,26.7h17.6c-3-15.3-4.9-32.4-4.4-46.2c0.7-23.5,7.6-29.6,15-13
		c6,13.5,10.4,37.7,11.5,59.3h23.7c-7.7-19.2-13-55.2-11.3-81.3c1.7-26.4,9.9-33.7,17.9-15.6c8.3,18.6,12.9,56.6,10.9,84.1
		c-0.4,5-0.9,9.3-1.6,12.9h8.1c2.5-25.2,10.8-30.5,18.6-10.5c1.2,3.1,2.3,6.6,3.4,10.5h20.4c0.1-5.8,0.4-11.4,1-16.6
		c3.1-30.1,13.1-37.1,21.7-14.8c3.1,8.2,5.6,19.2,7.4,31.3h26c-1.5-18.2-1.4-37.3,0.8-53.1c4.4-32.1,15.7-40.2,24.8-17
		c6.4,16.4,9.9,43.7,9.9,70.1h35c-6.7-26.8-8.6-66.8-3.6-96.6c5.7-34.5,18.7-43.8,28.7-19.6c10.2,24.9,12.9,75.4,6.5,111.5
		c-0.3,1.6-0.6,3.2-0.9,4.7h18.7c6-11.5,13.4-12,19.9,0h18.3v-22.4H1280z M1229.6,120.7c6.4-33,20.7-49.9,31.9-37.2
		c11.3,13.2,14.9,52.3,7.9,87c-7,34.5-21,49.8-31.9,35.1C1227.1,191.1,1223.4,153.5,1229.6,120.7z M1175.6,60
		c5.6-30.8,18.8-47.7,29.4-37c10.9,10.9,14.5,46.4,8.4,78.8c-6.1,32.2-19.2,47.7-29.4,35.3C1173.9,125,1170.1,90.7,1175.6,60z
		 M1148,215c5.2-31,17.8-46,28-32.9c10.4,13.4,14,51.1,8.3,83.6c-5.7,32.2-18,45.7-27.9,30.8C1146.8,281.9,1142.8,245.8,1148,215z
		 M1099.9,154.6c4.6-29.1,16.3-44.2,26.1-33.1c10,11.3,13.8,45.7,8.8,76.1c-5,30.2-16.4,44-26,31.3
		C1099.5,216.5,1095.4,183.5,1099.9,154.6z M1103,266.8c9.7,13.5,13.5,49.8,8.9,80.3c-4.6,30.3-15.3,42.1-24.6,27.3
		c-8.9-14.5-13.1-49.2-9.1-78.2C1082.4,267.1,1093.7,253.5,1103,266.8z M1053.4,103.1c4-27.4,15-42.4,24.4-33
		c9.6,9.6,13.7,41,9.3,69.7c-4.3,28.4-15.1,42.3-24.3,31.5C1053.8,160.6,1049.5,130.4,1053.4,103.1z M1057.7,207
		c9.3,11.6,13.5,44.8,9.5,73.6c-3.9,28.6-14.1,40.8-23.1,28c-8.7-12.6-13.3-44.4-9.6-71.8C1038,209.2,1048.6,195.6,1057.7,207z
		 M1049.9,417.4c-3.5,28.5-13.1,39.1-21.8,24.3c-8.4-14.5-13.1-47.8-10-75.1c3.2-27.5,13.2-39.7,22-26.4
		C1049.2,353.9,1053.4,388.7,1049.9,417.4z M1008.3,59.3c3.5-25.9,13.8-40.8,22.9-32.7c9.3,8.1,13.5,37,9.7,64
		c-3.8,26.8-13.9,40.7-22.8,31.5C1009.5,112.8,1004.9,85,1008.3,59.3z M991.9,185.6c3-26.1,13-39.7,21.9-29.9
		c9.1,9.9,13.4,40.5,10,67.6c-3.4,27-13,39.5-21.7,28.4C993.5,240.9,988.8,211.5,991.9,185.6z M998.6,281.7
		c8.9,11.7,13.4,43.8,10.3,71.1c-3,27-12.1,38-20.6,25.2c-8.3-12.6-13.2-43.3-10.6-69.3C980.5,282.6,989.9,270.2,998.6,281.7z
		 M950.3,141.6c2.7-24.7,12-38.2,20.7-29.9c8.8,8.5,13.3,36.7,10.4,62.4c-3,25.6-12,38.1-20.6,28.6
		C952.6,193.2,947.6,166.1,950.3,141.6z M957.9,231.1c8.7,10.2,13.4,39.8,10.8,65.6c-2.6,25.7-11.2,37-19.6,25.8
		c-8.2-11-13.2-39.4-11-64.1C940.5,233.6,949.4,221.1,957.9,231.1z M909.6,103.6c2.3-23.4,11.2-36.9,19.7-29.7
		c8.6,7.3,13.4,33.4,10.8,57.7c-2.5,24.2-11.2,36.9-19.5,28.6C912.3,152,907.3,126.9,909.6,103.6z M918,187.2
		c8.5,8.8,13.4,36.2,11.3,60.8c-2.2,24.4-10.4,35.9-18.6,26.1c-8.1-9.6-13.4-36-11.5-59.5C901.1,191.1,909.6,178.6,918,187.2z
		 M869.6,70.8c1.9-22.3,10.4-35.6,18.8-29.5c8.4,6.3,13.4,30.4,11.1,53.6c-2.2,23-10.3,35.6-18.6,28.5
		C872.9,116.4,867.7,93,869.6,70.8z M860.8,176.6c1.6-22.5,9.7-34.9,18-27.5c8.3,7.7,13.5,33.1,11.6,56.4
		c-1.8,23.2-9.6,34.8-17.8,26.3C864.8,223.5,859.3,199,860.8,176.6z M830.4,42.7c1.6-21.2,9.7-34.4,17.9-29.1
		c8.3,5.4,13.3,27.9,11.5,49.9c-1.8,21.9-9.7,34.4-17.8,28.3C834.1,85.6,828.8,63.8,830.4,42.7z M823.1,143.6
		c1.3-21.5,9-33.8,17.2-27.4c8.2,6.7,13.4,30.3,12,52.6c-1.5,22.1-8.9,33.7-17,26.4C827.4,187.8,821.8,164.9,823.1,143.6z
		 M817.6,242.2c0.9-21.6,8.4-33.2,16.5-25.5c8.2,7.8,13.7,32.7,12.6,55.2c-1.1,22.3-8.2,32.9-16.2,24.3
		C822.6,287.7,816.8,263.7,817.6,242.2z M30.2,666.3c-3.9-3.3-3.1-5.8,1.6-5.5s11.7,3.3,15.5,6.7c3.9,3.3,3.2,5.7-1.5,5.4
		C41,672.5,34,669.6,30.2,666.3z M39.9,693.3c-4.6-0.3-11.5-2.9-15.4-5.9s-3.2-5.3,1.4-5.1c4.6,0.3,11.4,3,15.3,6
		C45.1,691.4,44.5,693.6,39.9,693.3z M44.4,191c7.2,0.3,15.2,8.4,17.9,18.1c2.7,9.7-0.8,17.1-8,16.8c-7.2-0.4-15.4-8.3-18.1-17.9
		C33.5,198.4,37.2,190.7,44.4,191z M23.5,162.6c-2.6-10.1,1.5-18.3,9-18.2s15.5,8.5,18.1,18.8c2.6,10.2-1.3,18.2-8.7,18
		C34.3,181,26.1,172.7,23.5,162.6z M677,361.6c1.1,16.8-3.7,25.1-11,18.9c-7.2-6.2-14.1-24.2-15.3-40.6c-1.2-16.5,4-25.5,11.2-19.7
		C669.3,325.9,675.9,344.6,677,361.6z M689.2,190.6c7.9,5.4,14.3,25.5,14.5,44.5c0.2,18.9-5.7,29.1-13.4,23.1s-14.4-25.3-14.8-43.7
		C675.2,196.1,681.4,185.2,689.2,190.6z M764.2,481.8c-7.2-8.8-13.8-30.3-14.5-48.6c-0.7-18.4,4.8-27,12.2-18.9
		c7.4,8.3,13.7,30.7,14.2,49.7C776.7,482.9,771.5,490.7,764.2,481.8z M779.3,548c1,17.7-3.6,24.2-10.5,15
		c-6.8-9.1-13.4-30.1-14.5-47.3c-1.1-17.3,3.9-24.7,10.8-16C772,508.4,778.3,530.2,779.3,548z M743.7,598.1
		c-6.5-8.5-13.2-27.7-14.8-43.2c-1.6-15.7,2.7-22.1,9.3-14.1c6.6,8.2,13,28.1,14.5,44.2C754.2,601,750.3,606.7,743.7,598.1z
		 M761.5,398c-7.6-8.3-14.2-30.4-14.6-49.8c-0.3-19.5,5.9-29.5,13.7-21.9c7.9,7.7,14.1,30.7,14.3,50.9
		C775,397.3,769.2,406.4,761.5,398z M746.9,506.7c1.1,17.1-3.3,23.8-10.2,15.6c-6.8-8.2-13.5-27.9-14.8-44.5
		c-1.2-16.7,3.6-24.3,10.5-16.6C739.4,469,745.8,489.6,746.9,506.7z M729.2,618.3c1.9,14.5-1.4,19.4-7.8,11.5
		c-6.2-7.9-13-25.4-15-39.5c-2-14.2,1.7-19.8,8-12.3C720.8,585.5,727.3,603.7,729.2,618.3z M712.2,559c-6.5-7.6-13.3-25.7-15-40.7
		c-1.7-15.1,2.5-21.8,9.1-14.6c6.7,7.3,13.2,26.1,14.8,41.7C722.6,560.8,718.8,566.7,712.2,559z M51.3,596c-3.8-4.4-2.7-7.6,2.4-7
		c5.1,0.5,12.3,4.5,16.1,8.9s2.8,7.4-2.3,6.9C62.4,604.2,55.1,600.4,51.3,596z M59.5,628.6c-5-0.5-12.2-4-16-8s-2.9-6.9,2.1-6.5
		s12.1,4.1,15.9,8.1C65.3,626.3,64.4,629.1,59.5,628.6z M59.9,570.1c-3.8-4.8-2.6-8.2,2.7-7.6c5.3,0.6,12.5,5,16.3,9.8
		c3.8,4.8,2.6,8.1-2.6,7.5C71,579,63.7,574.8,59.9,570.1z M71.9,280.8c6.7,0.5,14.5,8.1,17.5,16.8c3,8.7,0.2,15.1-6.5,14.5
		s-14.7-8-17.7-16.5C62.2,286.9,65.2,280.3,71.9,280.8z M50.2,252.3c-2.9-9.1,0.4-16.2,7.4-15.8s14.8,8.3,17.7,17.5
		c2.9,9.2-0.3,16.1-7.2,15.6C61.2,269,53.1,261.3,50.2,252.3z M612.4,494.8c-2.3-12.9,1.2-19.1,7.6-13.6
		c6.4,5.5,13.1,20.9,15.3,34.1c2.2,13.1-1,18.8-7.4,12.9C621.7,522.4,614.6,507.6,612.4,494.8z M609,561.1c-6-5.4-13.1-19-15.6-30.7
		s0.5-17.3,6.6-12.1s12.9,19.3,15.4,31.3C617.9,561.5,615.1,566.5,609,561.1z M617.3,464.1c-6.5-5.5-13.6-20.8-15.6-34.4
		c-2-13.7,1.9-20.8,8.5-15.6c6.7,5.3,13.4,21.1,15.4,35.1C627.6,463.1,623.9,469.7,617.3,464.1z M603.8,487.6
		c2.2,12.7-0.9,18.5-7.2,13.3s-13.4-19.3-15.7-31.7c-2.3-12.5,1.1-18.8,7.4-13.9C594.8,460.3,601.6,474.8,603.8,487.6z M79.7,514
		c-3.7-5.6-2.1-9.7,3.4-9s12.9,5.9,16.6,11.6c3.7,5.7,2.2,9.6-3.3,8.8C90.9,524.6,83.4,519.6,79.7,514z M85.9,553.2
		c-5.4-0.7-12.8-5.3-16.6-10.5c-3.7-5.2-2.3-8.9,3-8.3c5.4,0.6,12.7,5.5,16.5,10.6C92.6,550.3,91.3,553.8,85.9,553.2z M502.2,434.3
		c-6.3-3.8-13.6-15.8-16.1-27.2c-2.5-11.4,0.8-18,7.2-14.5c6.4,3.6,13.5,16.1,15.9,27.7S508.6,438.1,502.2,434.3z M521.7,477.1
		c2.6,10.9-0.1,16.4-6.2,12.4c-6.1-4-13.3-15.6-16-26.3c-2.7-10.8,0.2-16.6,6.4-12.9C512,454,519,466.1,521.7,477.1z M490.3,457.6
		c2.7,10.6,0,16.2-6.1,12.6s-13.4-14.7-16.1-25.1c-2.7-10.5,0.2-16.4,6.3-13.1C480.5,435.4,487.6,447,490.3,457.6z M467.8,503.6
		c-5.9-3.3-13.2-13.6-16.1-23.2s-0.4-14.9,5.5-11.8c6,3.2,13,13.8,15.9,23.6C476.1,502,473.7,507,467.8,503.6z M470.6,416.5
		c-6.3-3.4-13.7-14.9-16.2-26c-2.6-11.1,0.7-17.7,7.1-14.6c6.4,3.2,13.5,15.1,16,26.4C479.9,413.7,477,419.9,470.6,416.5z
		 M458.8,440.2c2.7,10.3,0.1,15.9-6.1,12.8c-6.1-3.2-13.5-13.8-16.2-24c-2.8-10.2,0.1-16.2,6.2-13.2
		C448.9,418.8,456,429.8,458.8,440.2z M103.5,451.8c-3.5-6.6-1.5-11.4,4.3-10.6c5.9,0.8,13.4,6.9,16.9,13.6
		c3.5,6.7,1.6,11.3-4.2,10.4C114.6,464.3,107,458.4,103.5,451.8z M108,496.1c-5.7-0.8-13.3-6.3-16.9-12.4s-1.8-10.5,3.8-9.8
		c5.7,0.7,13.2,6.4,16.7,12.6C115.3,492.6,113.6,496.8,108,496.1z M116.9,418.2c-3.4-7.2-1.2-12.4,4.8-11.6s13.6,7.5,17,14.7
		c3.4,7.2,1.3,12.2-4.7,11.3C128,431.8,120.3,425.3,116.9,418.2z M140.6,446c5.8,0.9,13.3,7.3,16.7,14.1c3.5,6.8,1.6,11.3-4.2,10.3
		s-13.4-7.1-16.9-13.8C132.8,449.8,134.8,445.1,140.6,446z M149.7,423.1c-3.4-7.3-1.2-12.5,4.8-11.5s13.5,7.8,16.8,15.2
		c3.4,7.3,1.3,12.3-4.7,11.3C160.7,437,153,430.4,149.7,423.1z M169.6,375.3c6.2,1,13.7,8.4,16.9,16.4c3.2,7.9,0.9,13.4-5.2,12.3
		c-6.2-1.1-13.8-8.3-17.1-16.2C161,380,163.5,374.3,169.6,375.3z M173.2,451.6c5.8,1.1,13.2,7.6,16.6,14.5
		c3.4,6.9,1.6,11.4-4.2,10.3s-13.3-7.5-16.8-14.3C165.4,455.3,167.4,450.6,173.2,451.6z M182.2,428.9c-3.3-7.4-1.2-12.6,4.8-11.5
		c5.9,1.1,13.4,8.2,16.7,15.7s1.3,12.4-4.7,11.2C193.2,443.1,185.6,436.2,182.2,428.9z M202.2,381.2c6.1,1.2,13.6,8.9,16.8,17
		s0.9,13.5-5.2,12.2c-6.1-1.3-13.7-8.7-17-16.7C193.6,385.7,196,380,202.2,381.2z M205.6,458.1c5.7,1.2,13.1,8,16.5,15
		s1.6,11.5-4.1,10.2c-5.7-1.3-13.2-7.9-16.7-14.8C197.9,461.6,199.8,456.9,205.6,458.1z M214.6,435.5c-3.3-7.5-1.1-12.7,4.8-11.4
		c5.9,1.3,13.3,8.7,16.6,16.3c3.3,7.6,1.2,12.5-4.7,11.1C225.5,450.1,217.9,443,214.6,435.5z M234.5,388c6.1,1.4,13.5,9.3,16.7,17.6
		c3.1,8.3,0.9,13.6-5.2,12.2c-6.1-1.5-13.7-9.2-16.8-17.3C226,392.2,228.4,386.6,234.5,388z M237.8,465.5c5.7,1.4,13,8.5,16.4,15.6
		c3.4,7.1,1.6,11.6-4.1,10.1c-5.7-1.5-13.2-8.3-16.6-15.3C230.1,468.8,232.1,464.1,237.8,465.5z M246.8,443
		c-3.3-7.7-1.1-12.8,4.8-11.3c5.9,1.5,13.2,9.1,16.5,16.9s1.2,12.6-4.7,11.1C257.6,458,250.1,450.6,246.8,443z M261.3,408.1
		c-3.1-8.3-0.7-13.9,5.4-12.4c6.1,1.6,13.5,9.8,16.6,18.3c3.1,8.4,0.8,13.8-5.2,12.1C272,424.5,264.5,416.5,261.3,408.1z
		 M283.2,357.6c6.3,1.6,13.7,10.5,16.6,19.7s0.4,15-5.9,13.2c-6.2-1.8-13.8-10.4-16.8-19.4C274.2,362.1,277,356,283.2,357.6z
		 M283.6,440.3c5.9,1.7,13.2,9.6,16.4,17.6c3.2,7.9,1.2,12.7-4.6,11c-5.8-1.8-13.3-9.5-16.6-17.3
		C275.6,443.7,277.8,438.6,283.6,440.3z M293.4,416.9c-3.1-8.5-0.6-14.1,5.4-12.3c6.1,1.8,13.4,10.4,16.5,19s0.8,13.9-5.2,12
		C304,433.7,296.5,425.4,293.4,416.9z M315.5,450.1c5.8,1.9,13.1,10.2,16.3,18.3c3.2,8.1,1.2,12.9-4.7,10.9c-5.8-2-13.2-10-16.5-18
		C307.5,453.2,309.7,448.2,315.5,450.1z M325.3,426.9c-3.1-8.7-0.6-14.3,5.4-12.2c6,2,13.3,10.9,16.4,19.8c3,8.8,0.7,14.1-5.3,11.9
		C335.8,444.2,328.4,435.5,325.3,426.9z M347.3,461.1c5.8,2.1,13,10.7,16.2,19s1.2,13-4.7,10.7c-5.8-2.3-13.2-10.6-16.4-18.7
		C339.3,464,341.5,459,347.3,461.1z M357.1,438.1c-3.1-8.9-0.6-14.4,5.4-12.2c6,2.3,13.2,11.6,16.3,20.6c3,9,0.7,14.2-5.3,11.8
		C367.5,455.9,360.1,446.9,357.1,438.1z M378.9,473.5c5.8,2.4,13,11.4,16.1,19.9s1.1,13.1-4.7,10.6c-5.8-2.5-13.1-11.2-16.3-19.5
		C370.9,476,373.1,471.1,378.9,473.5z M388.7,450.6c-3-9.1-0.5-14.6,5.5-12.1c6,2.6,13.2,12.3,16.2,21.5s0.7,14.4-5.3,11.7
		C399.1,469.1,391.7,459.7,388.7,450.6z M410.4,487.3c5.8,2.7,12.9,12,16,20.7s1.1,13.2-4.7,10.4c-5.7-2.8-13-11.9-16.2-20.4
		C402.4,489.5,404.6,484.6,410.4,487.3z M420.3,464.7c-3-9.4-0.5-14.8,5.5-11.9c6,2.8,13.1,13,16.1,22.5c2.9,9.5,0.6,14.5-5.3,11.5
		C430.5,483.9,423.2,474,420.3,464.7z M438.9,400.7c-6.4-3-13.7-14-16.3-24.8c-2.6-10.8,0.6-17.5,7-14.7s13.6,14.2,16.2,25.2
		C448.3,397.4,445.3,403.7,438.9,400.7z M427.2,424.6c2.8,10.1,0.2,15.7-6,12.9c-6.1-2.9-13.5-13-16.3-22.9s0-16,6.2-13.3
		C417.2,403.9,424.4,414.4,427.2,424.6z M407.1,386.5c-6.4-2.7-13.8-13.2-16.5-23.7c-2.6-10.5,0.5-17.2,6.9-14.8
		c6.4,2.5,13.7,13.4,16.3,24.1C416.5,382.9,413.5,389.2,407.1,386.5z M395.5,410.6c2.8,9.8,0.2,15.6-6,13
		c-6.2-2.5-13.6-12.3-16.5-21.9c-2.9-9.7-0.1-15.8,6.2-13.4C385.4,390.7,392.7,400.7,395.5,410.6z M375.3,373.9
		c-6.4-2.4-13.9-12.5-16.6-22.7c-2.7-10.3,0.4-17,6.9-14.8s13.7,12.6,16.4,23.1C384.6,369.9,381.7,376.3,375.3,373.9z M363.8,398.2
		c2.8,9.6,0.3,15.4-6,13.1c-6.2-2.3-13.7-11.6-16.6-21c-2.9-9.5-0.1-15.6,6.1-13.5C353.6,378.9,360.9,388.5,363.8,398.2z
		 M343.3,362.8c-6.4-2.1-14-11.8-16.7-21.8s0.4-16.7,6.8-14.8c6.5,1.9,13.8,11.9,16.5,22.2C352.7,358.5,349.8,364.9,343.3,362.8z
		 M331.9,387.1c2.9,9.4,0.3,15.2-5.9,13.2c-6.2-2-13.7-11-16.7-20.2c-2.9-9.3-0.2-15.4,6.1-13.5
		C321.6,368.5,328.9,377.7,331.9,387.1z M311.3,352.9c-6.5-1.9-14-11.2-16.8-20.9c-2.8-9.8,0.3-16.5,6.8-14.8s13.9,11.3,16.7,21.3
		C320.6,348.3,317.7,354.8,311.3,352.9z M297.8,304.1c-6.7-1.7-14.3-11.3-17-21.6c-2.6-10.4,0.8-17.7,7.6-16.2
		c6.7,1.5,14.2,11.4,16.8,22C307.8,298.8,304.5,305.8,297.8,304.1z M285.7,329.7c2.8,9.7-0.1,16.1-6.6,14.5s-14.1-10.6-16.9-20.1
		c-2.8-9.6,0.2-16.3,6.7-14.8C275.4,310.7,282.9,320,285.7,329.7z M267.7,368.8c3,9,0.4,14.8-5.9,13.3c-6.3-1.6-13.9-9.9-16.9-18.7
		c-3-8.9-0.3-15,6-13.6C257.3,351.2,264.7,359.8,267.7,368.8z M246.8,336.7c-6.5-1.4-14.2-10-17.1-19.4c-2.9-9.4,0.2-16.1,6.7-14.8
		c6.5,1.3,14,10.2,16.9,19.7C256.2,331.7,253.3,338.1,246.8,336.7z M235.5,361.3c3,8.8,0.5,14.7-5.9,13.3c-6.3-1.4-14-9.4-17-18
		c-3.1-8.7-0.3-14.8,6-13.6C224.9,344.2,232.4,352.4,235.5,361.3z M214.4,330.1c-6.5-1.2-14.3-9.6-17.2-18.7
		c-2.9-9.2,0.1-15.9,6.7-14.8c6.6,1.1,14.1,9.7,17,19C223.8,324.9,220.9,331.3,214.4,330.1z M203,354.7c3,8.6,0.5,14.5-5.9,13.3
		c-6.3-1.2-14-8.9-17.1-17.4s-0.4-14.7,6-13.6S200,346.1,203,354.7z M181.8,324.4c-6.6-1.1-14.4-9.1-17.3-18.1
		c-3-9,0.1-15.7,6.7-14.8c6.6,0.9,14.2,9.2,17.1,18.4C191.2,319,188.3,325.5,181.8,324.4z M170.5,349.1c3.1,8.5,0.5,14.4-5.9,13.3
		c-6.4-1-14.1-8.5-17.3-16.9c-3.1-8.4-0.4-14.5,6-13.6C159.8,332.9,167.4,340.6,170.5,349.1z M154,386.2c3.2,7.8,0.9,13.2-5.2,12.3
		c-6.2-1-13.9-7.9-17.2-15.6c-3.3-7.8-0.8-13.4,5.4-12.5C143.1,371.2,150.7,378.3,154,386.2z M131.9,357.6
		c-6.4-0.9-14.2-8.1-17.4-16.3c-3.2-8.2-0.4-14.4,6-13.6s14.1,8.2,17.2,16.6C140.8,352.5,138.3,358.4,131.9,357.6z M121.2,381.4
		c3.3,7.7,1,13.1-5.3,12.3c-6.2-0.9-14-7.6-17.3-15.2s-0.8-13.3,5.4-12.5C110.3,366.7,117.9,373.7,121.2,381.4z M105.9,416.7
		c3.4,7.1,1.3,12.1-4.7,11.3c-6-0.8-13.8-7-17.2-14.1s-1.2-12.3,4.9-11.6C94.9,403.1,102.5,409.6,105.9,416.7z M91.8,450.3
		c3.5,6.5,1.7,11.2-4.2,10.5c-5.9-0.7-13.6-6.5-17.1-13s-1.6-11.3,4.3-10.7C80.7,437.7,88.2,443.7,91.8,450.3z M105.5,538.6
		c5.4,0.7,12.6,5.7,16.4,11c3.7,5.3,2.4,8.8-2.9,8s-12.7-5.6-16.5-10.8S100.1,537.9,105.5,538.6z M112.7,518.3
		c-3.7-5.7-2.1-9.7,3.4-8.9c5.5,0.8,12.9,6.2,16.5,11.9s2.2,9.6-3.3,8.8C123.9,529.2,116.4,524,112.7,518.3z M124,488.3
		c-3.6-6.2-1.8-10.6,3.8-9.7c5.7,0.9,13.1,6.7,16.6,13c3.6,6.2,1.9,10.5-3.7,9.5C135.1,500.1,127.6,494.4,124,488.3z M148.9,514.6
		c5.5,0.9,12.8,6.5,16.4,12.3c3.6,5.8,2.2,9.6-3.3,8.7c-5.5-1-12.9-6.4-16.5-12.1C141.9,517.7,143.4,513.6,148.9,514.6z
		 M156.7,493.6c-3.6-6.3-1.8-10.6,3.8-9.6s13,7.1,16.5,13.4s1.9,10.5-3.7,9.4C167.7,505.8,160.2,499.9,156.7,493.6z M181.4,520.6
		c5.4,1.1,12.7,6.8,16.3,12.8c3.6,5.9,2.2,9.7-3.2,8.6c-5.4-1.1-12.8-6.7-16.4-12.6C174.4,523.5,176,519.5,181.4,520.6z
		 M189.1,499.8c-3.5-6.4-1.8-10.7,3.8-9.6c5.6,1.2,12.9,7.4,16.4,13.9c3.5,6.4,1.9,10.6-3.7,9.3
		C200.1,512.2,192.7,506.2,189.1,499.8z M213.7,527.4c5.4,1.2,12.6,7.2,16.2,13.2c3.6,6,2.2,9.7-3.2,8.5c-5.4-1.3-12.7-7.1-16.3-13
		C206.8,530.1,208.3,526.2,213.7,527.4z M221.4,506.8c-3.5-6.5-1.8-10.8,3.8-9.5c5.5,1.3,12.8,7.8,16.3,14.4
		c3.5,6.5,1.9,10.6-3.6,9.2C232.3,519.6,224.9,513.3,221.4,506.8z M245.9,535.2c5.4,1.4,12.5,7.6,16.1,13.7c3.6,6.1,2.2,9.8-3.2,8.3
		c-5.4-1.5-12.7-7.4-16.2-13.5C239,537.7,240.5,533.8,245.9,535.2z M253.5,514.9c-3.5-6.6-1.8-10.9,3.7-9.4
		c5.5,1.5,12.8,8.2,16.2,14.9c3.5,6.7,1.9,10.7-3.6,9.1C264.4,528,257,521.5,253.5,514.9z M265.6,484.2c-3.4-7.2-1.5-11.8,4.2-10.3
		c5.7,1.6,13,8.9,16.3,16.2c3.4,7.3,1.6,11.7-4.1,10C276.4,498.4,269,491.3,265.6,484.2z M289.2,514.7c5.5,1.7,12.7,8.7,16.2,15.5
		c3.4,6.8,1.9,10.8-3.6,9s-12.8-8.5-16.3-15.2C282,517.2,283.7,513,289.2,514.7z M297.5,493.6c-3.4-7.3-1.4-12,4.2-10.2
		c5.7,1.8,12.9,9.4,16.3,16.8c3.3,7.4,1.6,11.8-4.1,9.9C308.2,508.2,300.8,500.9,297.5,493.6z M320.9,525
		c5.5,1.9,12.6,9.2,16.1,16.1c3.4,6.9,1.9,10.8-3.6,8.9c-5.4-2-12.8-9-16.2-15.9C313.8,527.2,315.5,523.1,320.9,525z M329.2,504.2
		c-3.4-7.5-1.4-12.1,4.2-10.1s12.8,9.9,16.2,17.5c3.3,7.6,1.5,11.9-4.1,9.8C339.9,519.3,332.6,511.6,329.2,504.2z M352.5,536.5
		c5.5,2.1,12.6,9.7,16,16.8s1.8,10.9-3.6,8.7s-12.7-9.5-16.1-16.5S347.1,534.4,352.5,536.5z M360.8,516c-3.3-7.6-1.4-12.2,4.2-9.9
		c5.6,2.3,12.8,10.5,16.1,18.3c3.3,7.7,1.5,11.9-4.1,9.6C371.4,531.6,364.1,523.6,360.8,516z M384,549.4
		c5.4,2.4,12.5,10.3,15.9,17.5s1.8,11-3.6,8.5c-5.4-2.4-12.6-10.1-16-17.2S378.6,547.1,384,549.4z M392.3,529.2
		c-3.3-7.8-1.4-12.3,4.2-9.8s12.7,11.1,16,19.1c3.3,7.9,1.5,12.1-4.1,9.4C402.8,545.4,395.6,537,392.3,529.2z M415.3,563.8
		c5.4,2.6,12.4,10.9,15.8,18.3c3.4,7.4,1.8,11.1-3.6,8.3c-5.4-2.7-12.6-10.7-16-18C408.3,565.2,410,561.2,415.3,563.8z M423.6,544
		c-3.3-8-1.3-12.4,4.2-9.6c5.6,2.8,12.6,11.8,15.9,19.9c3.2,8.1,1.5,12.2-4.1,9.2C434.1,560.6,426.9,551.9,423.6,544z M436.9,513.3
		c-3.1-8.8-0.9-13.6,4.8-10.6c5.8,3,12.8,12.8,15.9,21.7c3.1,8.9,1.1,13.3-4.7,10.2C447.3,531.5,440,522.1,436.9,513.3z M459.1,551
		c5.6,3.1,12.6,12.5,15.8,20.9c3.2,8.3,1.4,12.2-4.1,9s-12.7-12.3-15.9-20.5C451.6,552.1,453.5,547.9,459.1,551z M468.2,530.3
		c-3.1-9-0.9-13.7,4.9-10.4c5.7,3.3,12.8,13.6,15.8,22.7c3,9.1,1,13.5-4.7,10C478.5,549.2,471.3,539.3,468.2,530.3z M483,498
		c-2.9-9.8-0.3-15.1,5.6-11.6s13,14.7,15.9,24.7c2.9,9.9,0.5,14.9-5.4,11.1C493.2,518.5,485.9,507.8,483,498z M504.2,539
		c5.7,3.7,12.7,14.5,15.7,23.8s1,13.6-4.7,9.8s-12.8-14.2-15.9-23.4C496.3,539.9,498.5,535.3,504.2,539z M514.3,517.5
		c-2.9-10.1-0.3-15.3,5.6-11.4c5.9,3.9,12.9,15.6,15.7,25.9c2.8,10.2,0.5,15-5.4,10.9C524.3,538.8,517.1,527.5,514.3,517.5z
		 M537.3,470.6c6.1,4.2,13.1,16.9,15.7,28.2c2.6,11.2-0.1,16.5-6.2,12.1c-6.1-4.4-13.3-16.7-15.9-27.7
		C528.3,472.2,531.2,466.4,537.3,470.6z M535.3,560.1c5.7,4.1,12.7,15.4,15.6,25c3,9.6,0.9,13.7-4.8,9.5
		c-5.6-4.2-12.8-15.1-15.8-24.6S529.6,556,535.3,560.1z M545.4,539.1c-2.8-10.4-0.2-15.4,5.7-11.1c5.9,4.4,12.9,16.7,15.6,27.2
		c2.8,10.5,0.4,15.1-5.5,10.6S548.2,549.4,545.4,539.1z M562.2,505.6c-2.6-11.4,0.4-17,6.5-12.4c6.1,4.7,13,18.1,15.6,29.7
		c2.5,11.6-0.2,16.7-6.3,11.8S564.8,516.9,562.2,505.6z M585.6,438.7c-6.5-4.9-13.7-19.4-15.7-32.6c-2.1-13.3,1.8-20.5,8.4-15.8
		c6.7,4.7,13.5,19.7,15.5,33.3C595.8,437.1,592.2,443.7,585.6,438.7z M572.3,462.7c2.3,12.3-0.8,18.3-7.1,13.6
		c-6.3-4.7-13.5-18-15.8-30.1c-2.4-12.1,1-18.5,7.4-14.1C563.1,436.5,570,450.3,572.3,462.7z M553.9,416c-6.6-4.5-13.8-18.2-15.9-31
		c-2.1-12.8,1.6-20.1,8.3-16c6.7,4.2,13.6,18.4,15.7,31.6C564,413.7,560.5,420.4,553.9,416z M540.8,440.4c2.4,11.9-0.7,18-7.1,13.8
		c-6.3-4.2-13.6-16.9-16-28.6c-2.4-11.8,0.9-18.3,7.3-14.3C531.4,415.2,538.4,428.3,540.8,440.4z M522.1,395.6
		c-6.6-4-13.8-17.1-16-29.5c-2.2-12.5,1.5-19.8,8.1-16.1c6.7,3.7,13.7,17.3,15.8,30C532.2,392.8,528.7,399.6,522.1,395.6z
		 M511.8,335.4c-6.9-3.7-14.1-17.2-16.1-30.3c-2-13.2,2.2-21.3,9.1-17.9c7,3.4,14,17.3,15.9,30.9
		C522.6,331.5,518.7,339.2,511.8,335.4z M498.1,361.8c2.2,12.3-1.2,19.2-7.8,15.7c-6.6-3.6-13.9-16-16.2-28.1
		c-2.3-12.1,1.4-19.5,8-16.2C488.7,336.5,495.8,349.4,498.1,361.8z M479.7,319c-6.9-3.3-14.2-16.1-16.3-28.9c-2-12.8,2-20.9,9-17.9
		c6.9,3,14.1,16.3,16.1,29.4C490.4,314.6,486.6,322.3,479.7,319z M466.1,345.5c2.3,12-1.1,18.9-7.7,15.8c-6.6-3.2-14-15.1-16.3-26.8
		c-2.4-11.8,1.3-19.1,7.9-16.3C456.6,321.2,463.8,333.5,466.1,345.5z M447.4,304.4c-6.9-2.9-14.3-15.2-16.4-27.6
		c-2.1-12.5,1.9-20.6,8.8-17.9s14.1,15.3,16.2,28C458.1,299.7,454.4,307.4,447.4,304.4z M434,331c2.3,11.7-1,18.7-7.6,15.8
		c-6.6-2.8-14.1-14.2-16.5-25.6c-2.4-11.5,1.2-18.8,7.8-16.3C424.5,307.6,431.7,319.3,434,331z M415.2,291.6
		c-6.9-2.6-14.4-14.3-16.6-26.4s1.8-20.2,8.7-17.9c7,2.3,14.2,14.4,16.3,26.8C425.8,286.4,422.1,294.1,415.2,291.6z M401.9,318.2
		c2.4,11.3-0.9,18.3-7.6,15.9c-6.6-2.5-14.1-13.4-16.6-24.5c-2.5-11.2,1.1-18.5,7.8-16.3C392.2,295.6,399.5,306.8,401.9,318.2z
		 M382.9,280.2c-6.9-2.3-14.4-13.5-16.7-25.2c-2.3-11.8,1.7-19.9,8.6-17.9c7,2,14.3,13.6,16.5,25.6
		C393.5,274.8,389.8,282.5,382.9,280.2z M369.8,306.9c2.5,11.1-0.8,18.1-7.5,15.9s-14.2-12.6-16.7-23.5s1-18.2,7.7-16.3
		C359.9,285,367.3,295.8,369.8,306.9z M350.5,270.3c-6.9-2-14.5-12.7-16.8-24.2c-2.3-11.5,1.6-19.5,8.5-17.8
		c7,1.8,14.3,12.8,16.6,24.6C361.1,264.6,357.5,272.3,350.5,270.3z M337.5,297c2.5,10.8-0.7,17.8-7.4,15.9
		c-6.7-1.9-14.3-11.9-16.8-22.5c-2.6-10.6,0.9-18,7.6-16.3C327.6,275.8,335,286.1,337.5,297z M318.1,261.6c-6.9-1.7-14.6-12-17-23.2
		s1.5-19.2,8.4-17.7c7,1.5,14.4,12.2,16.8,23.6C328.7,255.7,325,263.3,318.1,261.6z M307.3,209.2c-7.2-1.5-14.9-12.1-17.1-23.9
		c-2.2-11.8,2.1-20.5,9.3-19.3c7.3,1.3,14.8,12.2,16.9,24.3C318.6,202.3,314.6,210.7,307.3,209.2z M293.7,236.8
		c2.4,11.1-1.2,18.8-8.2,17.3s-14.7-11.4-17.1-22.4s1.4-18.9,8.4-17.6S291.4,225.6,293.7,236.8z M272.8,280.7
		c2.6,10.3-0.6,17.3-7.3,15.9c-6.7-1.5-14.4-10.7-17.1-20.8c-2.7-10.2,0.7-17.5,7.5-16.2C262.6,260.8,270.1,270.4,272.8,280.7z
		 M253,247.7c-7-1.3-14.8-10.8-17.2-21.5c-2.5-10.7,1.3-18.7,8.3-17.6c7,1.1,14.6,10.9,17,21.8S259.9,248.9,253,247.7z M240.2,274.2
		c2.7,10.1-0.5,17.1-7.3,15.8c-6.8-1.3-14.5-10.2-17.2-20.1s0.7-17.2,7.5-16.1C230,254.9,237.5,264.1,240.2,274.2z M220.2,242.1
		c-7-1.1-14.8-10.3-17.4-20.8c-2.5-10.5,1.2-18.4,8.3-17.5s14.7,10.4,17.2,21.1C230.8,235.6,227.2,243.2,220.2,242.1z M207.5,268.6
		c2.7,9.9-0.5,16.9-7.3,15.8s-14.6-9.7-17.4-19.4c-2.7-9.8,0.6-17,7.4-16.1C197.2,249.8,204.8,258.7,207.5,268.6z M187.4,237.5
		c-7-0.9-14.9-9.8-17.5-20.1s1.1-18.1,8.2-17.4c7.1,0.8,14.8,9.9,17.3,20.4C197.9,230.8,194.4,238.4,187.4,237.5z M174.7,263.8
		c2.7,9.7-0.4,16.7-7.3,15.7c-6.8-0.9-14.7-9.3-17.5-18.8c-2.8-9.6,0.6-16.8,7.4-16C164.3,245.5,172,254.1,174.7,263.8z
		 M155.5,305.1c2.9,9,0.1,15.4-6.5,14.5s-14.5-8.7-17.5-17.6s0.1-15.5,6.7-14.8C144.9,288.1,152.6,296.1,155.5,305.1z M134.6,275.5
		c-6.9-0.8-14.8-8.9-17.6-18.2c-2.8-9.4,0.5-16.6,7.4-16c6.9,0.6,14.6,9,17.4,18.5C144.6,269.3,141.4,276.3,134.6,275.5z M122.6,301
		c3,8.8,0.1,15.2-6.5,14.5c-6.6-0.8-14.6-8.3-17.6-17s0-15.4,6.7-14.7C111.8,284.4,119.6,292.1,122.6,301z M101.4,272.2
		c-6.9-0.6-14.9-8.5-17.8-17.7c-2.9-9.2,0.5-16.4,7.4-15.9s14.7,8.6,17.6,18C111.5,265.9,108.3,272.8,101.4,272.2z M87.4,324
		c6.5,0.7,14.2,7.9,17.4,16.1c3.2,8.2,0.6,14.1-5.9,13.4s-14.3-7.8-17.5-15.9C78.2,329.5,80.9,323.4,87.4,324z M88.2,377.3
		c3.3,7.5,1,13-5.3,12.3s-14.1-7.3-17.4-14.7c-3.3-7.5-0.9-13.2,5.4-12.6C77.2,363,84.9,369.7,88.2,377.3z M72.9,412.7
		c3.4,7,1.3,12.1-4.7,11.4c-6.1-0.7-13.9-6.7-17.3-13.7c-3.4-7-1.2-12.2,4.9-11.6C61.8,399.5,69.4,405.7,72.9,412.7z M61.9,469.9
		c5.7,0.6,13.2,6.1,16.9,12.2c3.6,6.1,2,10.3-3.8,9.7c-5.7-0.7-13.4-6-17-12C54.4,473.8,56.1,469.3,61.9,469.9z M66.7,512.4
		c3.7,5.6,2.2,9.5-3.3,8.9c-5.6-0.6-13.1-5.5-16.8-11.1c-3.7-5.5-2.1-9.6,3.5-9.1C55.6,501.7,63,506.8,66.7,512.4z M79,617.4
		c4.9,0.5,12,4.3,15.8,8.4c3.8,4,3,6.8-2,6.2c-4.9-0.6-12.1-4.2-15.9-8.2C73.1,619.8,74.1,616.9,79,617.4z M84.6,599.5
		c-3.8-4.4-2.7-7.6,2.3-7c5.1,0.6,12.2,4.8,16,9.2c3.8,4.5,2.8,7.4-2.3,6.8C95.7,607.9,88.4,603.9,84.6,599.5z M93.1,573.9
		c-3.8-4.8-2.6-8.3,2.7-7.6c5.2,0.7,12.4,5.2,16.2,10.1c3.7,4.8,2.6,8.1-2.6,7.4C104.2,583.1,96.9,578.7,93.1,573.9z M112.2,621.4
		c4.9,0.6,11.9,4.5,15.7,8.6c3.8,4.1,3,6.8-1.9,6.2c-4.9-0.7-12-4.4-15.8-8.5C106.4,623.6,107.3,620.7,112.2,621.4z M117.7,603.7
		c-3.8-4.5-2.7-7.6,2.3-6.9c5,0.7,12.1,5,15.9,9.5c3.8,4.5,2.8,7.4-2.2,6.7S121.5,608.2,117.7,603.7z M126.1,578.4
		c-3.8-4.9-2.5-8.3,2.6-7.5c5.2,0.8,12.4,5.5,16.1,10.4c3.7,4.9,2.6,8.1-2.5,7.3C137.1,587.8,129.8,583.3,126.1,578.4z M135.3,551.7
		c-3.7-5.3-2.3-9,3-8.1c5.3,0.8,12.6,6,16.2,11.3c3.7,5.3,2.4,8.8-2.9,7.9C146.4,561.9,139,557,135.3,551.7z M152.9,601.9
		c5,0.8,12.1,5.3,15.8,9.8c3.8,4.5,2.8,7.4-2.2,6.6c-5-0.9-12.1-5.2-15.9-9.6C146.8,604.1,147.9,601,152.9,601.9z M158.8,583.7
		c-3.8-4.9-2.6-8.3,2.6-7.4c5.2,0.9,12.3,5.8,16,10.7c3.7,5,2.6,8.1-2.5,7.2C169.8,593.3,162.6,588.6,158.8,583.7z M168,557.3
		c-3.7-5.4-2.3-9,3-8s12.5,6.3,16.2,11.7s2.4,8.9-2.9,7.8C179,567.8,171.6,562.6,168,557.3z M185.5,607.7c5,1,12,5.6,15.7,10.2
		c3.7,4.6,2.8,7.5-2.1,6.5c-5-1-12.1-5.4-15.8-10C179.5,609.7,180.5,606.7,185.5,607.7z M191.4,589.7c-3.7-5-2.5-8.3,2.6-7.3
		s12.2,6.1,15.9,11.1c3.7,5.1,2.6,8.2-2.5,7.1C202.3,599.6,195.1,594.7,191.4,589.7z M200.4,563.7c-3.7-5.5-2.3-9.1,2.9-7.9
		c5.3,1.1,12.4,6.6,16.1,12.1c3.6,5.5,2.4,8.9-2.8,7.7C211.3,574.4,204.1,569.1,200.4,563.7z M217.9,614.3
		c4.9,1.1,11.9,5.8,15.7,10.5c3.7,4.7,2.8,7.4-2.1,6.4c-4.9-1.1-12-5.7-15.8-10.4C212,616.2,213,613.2,217.9,614.3z M223.7,596.7
		c-3.7-5.1-2.5-8.4,2.5-7.2c5.1,1.2,12.1,6.4,15.8,11.5s2.6,8.2-2.4,6.9C234.6,606.8,227.4,601.7,223.7,596.7z M232.7,571
		c-3.6-5.6-2.3-9.1,2.9-7.8s12.3,7,16,12.6c3.6,5.6,2.4,8.9-2.8,7.6C243.5,582.1,236.3,576.6,232.7,571z M250.1,621.9
		c4.9,1.2,11.9,6.2,15.6,10.9c3.7,4.8,2.8,7.5-2.1,6.2s-12-6-15.7-10.8C244.2,623.6,245.2,620.7,250.1,621.9z M255.9,604.6
		c-3.7-5.2-2.5-8.4,2.5-7c5.1,1.4,12.1,6.8,15.8,12c3.7,5.2,2.6,8.2-2.4,6.8C266.7,614.9,259.6,609.7,255.9,604.6z M264.7,579.3
		c-3.6-5.6-2.3-9.1,2.9-7.7c5.2,1.4,12.3,7.4,15.9,13.1c3.6,5.7,2.4,9-2.8,7.5C275.6,590.7,268.4,585,264.7,579.3z M274.6,552.5
		c-3.6-6.2-2.1-10,3.3-8.5c5.3,1.6,12.5,8,16,14.2s2.2,9.9-3.2,8.2C285.4,564.9,278.1,558.6,274.6,552.5z M290.3,606.5
		c5,1.5,12,7.1,15.7,12.4c3.7,5.3,2.6,8.2-2.4,6.7s-12.1-7-15.8-12.2C284.2,608.2,285.3,605.1,290.3,606.5z M296.6,588.7
		c-3.6-5.8-2.3-9.2,2.8-7.6c5.2,1.6,12.2,7.8,15.9,13.6c3.6,5.8,2.4,9-2.8,7.3C307.4,600.3,300.2,594.4,296.6,588.7z M306.4,562.3
		c-3.5-6.3-2-10.1,3.3-8.3c5.3,1.7,12.4,8.5,16,14.8c3.5,6.4,2.2,9.9-3.1,8.1C317.2,575,309.9,568.5,306.4,562.3z M322.1,616.7
		c5,1.7,12,7.5,15.6,13c3.6,5.4,2.6,8.3-2.4,6.5c-5-1.7-12.1-7.4-15.7-12.7C316,618.1,317.1,615,322.1,616.7z M328.3,599.1
		c-3.6-5.9-2.3-9.2,2.8-7.4c5.1,1.8,12.2,8.2,15.8,14.2c3.6,5.9,2.4,9.1-2.7,7.2C339.1,611.1,332,605,328.3,599.1z M338,573.2
		c-3.5-6.4-2-10.1,3.2-8.2c5.3,2,12.4,8.9,15.9,15.4s2.2,10-3.1,7.9C348.8,586.4,341.6,579.6,338,573.2z M353.7,628
		c5,1.9,11.9,8,15.6,13.5c3.6,5.5,2.6,8.3-2.3,6.3c-5-1.9-12-7.8-15.6-13.3C347.7,629.1,348.8,626.1,353.7,628z M359.9,610.8
		c-3.6-6-2.3-9.2,2.8-7.2c5.1,2.1,12.1,8.7,15.7,14.7s2.4,9.1-2.7,7C370.6,623.2,363.5,616.8,359.9,610.8z M369.5,585.4
		c-3.5-6.6-2-10.2,3.2-8c5.3,2.2,12.3,9.5,15.8,16.1s2.2,10-3.1,7.7C380.2,599,373.1,592,369.5,585.4z M385.2,640.5
		c5,2.1,11.9,8.5,15.5,14.1s2.6,8.3-2.3,6.2s-11.9-8.3-15.6-13.8C379.2,641.4,380.3,638.4,385.2,640.5z M391.3,623.8
		c-3.6-6.1-2.3-9.3,2.8-7.1c5.1,2.2,12,9.2,15.6,15.4s2.4,9.1-2.7,6.8C402,636.6,394.9,629.9,391.3,623.8z M400.9,599.1
		c-3.5-6.7-2-10.3,3.2-7.8c5.2,2.4,12.2,10,15.7,16.8s2.1,10.1-3.1,7.6C411.6,613.1,404.4,605.7,400.9,599.1z M425.4,631.4
		c5.1,2.5,12,9.8,15.6,16.1s2.4,9.2-2.7,6.6c-5.1-2.6-12.1-9.6-15.7-15.8C419.1,632,420.3,628.9,425.4,631.4z M432.2,614.1
		c-3.5-6.8-2-10.3,3.2-7.6s12.2,10.6,15.7,17.6c3.4,6.9,2.1,10.1-3.1,7.3C442.7,628.6,435.6,621,432.2,614.1z M442.9,588.2
		c-3.4-7.5-1.7-11.3,3.7-8.5c5.4,2.9,12.4,11.6,15.7,19.2c3.4,7.6,1.8,11.2-3.6,8.1C453.4,604,446.2,595.7,442.9,588.2z
		 M466.5,623.5c5.2,3,12.1,11.3,15.6,18.4c3.5,7.1,2.1,10.2-3.1,7.1c-5.2-3.1-12.3-11.1-15.7-18.1
		C459.8,623.9,461.3,620.5,466.5,623.5z M473.9,605.7c-3.4-7.7-1.7-11.4,3.7-8.2c5.4,3.2,12.3,12.3,15.7,20
		c3.3,7.8,1.8,11.2-3.6,7.9C484.4,622,477.3,613.3,473.9,605.7z M485.9,578.5c-3.2-8.4-1.3-12.6,4.3-9.1
		c5.5,3.4,12.5,13.3,15.7,21.9c3.2,8.5,1.4,12.4-4.1,8.8C496.3,596.4,489.1,586.8,485.9,578.5z M508.6,617c5.3,3.6,12.3,13,15.6,21
		c3.3,7.9,1.8,11.3-3.6,7.6c-5.3-3.6-12.4-12.8-15.7-20.7C501.6,617.1,503.3,613.4,508.6,617z M516.9,598.6
		c-3.2-8.6-1.2-12.7,4.3-8.9s12.5,14.2,15.6,22.9c3.2,8.7,1.4,12.4-4.1,8.5C527.2,617.1,520.1,607.1,516.9,598.6z M539.4,638.5
		c5.3,3.9,12.2,13.9,15.5,22.1c3.3,8.1,1.7,11.3-3.6,7.3s-12.3-13.6-15.6-21.7C532.4,638.1,534.1,634.6,539.4,638.5z M547.7,620.7
		c-3.2-8.8-1.2-12.8,4.3-8.6s12.4,15.1,15.6,24.1c3.1,8.9,1.3,12.5-4.1,8.1C558,640,550.9,629.5,547.7,620.7z M561.3,593.1
		c-3-9.7-0.7-14.1,5-9.6s12.6,16.4,15.5,26.3c3,9.8,0.9,13.8-4.8,9.1C571.4,614.2,564.2,602.8,561.3,593.1z M576.4,563.1
		c-2.8-10.7-0.1-15.6,5.7-10.8c5.9,4.8,12.7,17.8,15.5,28.7c2.7,10.8,0.3,15.3-5.5,10.3C586.3,586.2,579.2,573.7,576.4,563.1z
		 M597.1,609.3c5.7,5,12.5,17.5,15.4,27.7c2.9,10.1,0.8,13.9-4.8,8.8c-5.6-5.2-12.7-17.2-15.6-27.1
		C589.1,608.6,591.4,604.4,597.1,609.3z M607.4,589.6c-2.7-11-0.1-15.8,5.8-10.4c5.9,5.4,12.7,19,15.4,30.2
		c2.7,11.1,0.2,15.4-5.6,9.8C617.1,613.7,610.1,600.5,607.4,589.6z M624.6,557.9c-2.5-12.1,0.6-17.5,6.7-11.8
		c6.1,5.8,12.9,20.7,15.3,33c2.4,12.3-0.4,17.1-6.5,11.1C634,584.3,627,570,624.6,557.9z M643.8,523.3c-2.1-13.3,1.4-19.4,7.7-13.3
		c6.4,6.1,13,22.4,15.1,36c2.1,13.5-1.2,19-7.5,12.5C652.9,552.2,646,536.5,643.8,523.3z M662.4,577.1c6.1,6.4,12.8,22.1,15.1,34.9
		c2.3,12.7-0.5,17.3-6.6,10.6c-6-6.6-12.9-21.8-15.3-34.2C653.2,576,656.3,570.8,662.4,577.1z M675.2,555
		c-2.1-13.7,1.5-19.6,7.8-12.9c6.4,6.9,13,24.1,15,38.1s-1.3,19.2-7.6,12.1C684.1,585.2,677.2,568.7,675.2,555z M704.6,485.9
		c-6.8-7.3-13.6-25.9-15-41.9c-1.3-16.1,3.3-23.8,10.2-17c7,6.9,13.5,26.3,14.8,42.8C715.8,486.3,711.5,493.3,704.6,485.9z
		 M698.7,410.4c-7.1-6.9-14-26.1-15.1-43c-1-17.1,4.2-26,11.5-19.5c7.4,6.5,13.9,26.4,14.8,44C710.8,409.3,705.9,417.4,698.7,410.4z
		 M689.3,509.8c1.7,14.9-2.1,21.1-8.7,14.2c-6.5-6.9-13.4-23.9-15.2-38.5s2.3-21.5,8.9-15S687.5,494.8,689.3,509.8z M672.5,453.2
		c-6.8-6.5-13.8-24.1-15.3-39.6s3.1-23.4,10-17.3c7,6.2,13.6,24.4,15,40.4C683.6,452.7,679.4,459.9,672.5,453.2z M657.5,477.8
		c1.8,14.4-1.9,20.8-8.5,14.6c-6.5-6.2-13.5-22.3-15.4-36.4s2.1-21.1,8.7-15.3C648.9,446.6,655.6,463.3,657.5,477.8z M640.4,424.1
		c-6.8-5.9-13.9-22.4-15.5-37.4s2.8-23,9.8-17.5c7,5.6,13.7,22.7,15.2,38.2C651.5,422.6,647.3,430,640.4,424.1z M633.3,353.7
		c-7.2-5.5-14.2-22.6-15.5-38.4c-1.3-15.9,3.7-24.9,11-19.8s14.1,22.8,15.3,39.1C645.2,350.9,640.5,359.3,633.3,353.7z M617.6,381
		c1.6,14.8-2.5,22.3-9.4,17c-6.8-5.2-13.9-21-15.6-35.4c-1.7-14.5,2.7-22.6,9.6-17.7C609.2,349.8,616,366.1,617.6,381z M600.7,330
		c-7.2-4.9-14.3-21-15.7-36.3c-1.4-15.4,3.5-24.4,10.7-19.9c7.3,4.5,14.1,21.2,15.5,37C612.5,326.5,607.9,334.9,600.7,330z
		 M585.3,357.5c1.8,14.3-2.3,21.9-9.2,17.2c-6.8-4.7-14-19.6-15.8-33.6s2.5-22.1,9.4-17.8C576.7,327.7,583.6,343.1,585.3,357.5z
		 M568.1,308.9c-7.1-4.4-14.4-19.7-15.9-34.4c-1.5-14.9,3.3-23.9,10.5-19.9c7.3,4,14.2,19.8,15.6,35.1
		C579.8,304.8,575.3,313.3,568.1,308.9z M553,336.6c1.8,13.9-2.1,21.5-9,17.3c-6.8-4.2-14.1-18.3-16-31.9s2.3-21.7,9.3-17.9
		C544.2,308,551.2,322.7,553,336.6z M535.6,290.2c-7.2-3.9-14.4-18.4-16.1-32.7c-1.6-14.4,3.1-23.4,10.3-19.9
		c7.3,3.5,14.3,18.5,15.8,33.3C547.2,285.5,542.8,294.1,535.6,290.2z M528.6,224.9c-7.5-3.5-14.8-18.4-16.1-33.5
		c-1.3-15.2,3.8-25.2,11.4-22c7.6,3.1,14.6,18.5,15.9,34.1C541,218.9,536.1,228.4,528.6,224.9z M512.9,254.3
		c1.6,14.2-2.7,22.8-9.9,19.3c-7.1-3.4-14.5-17.3-16.2-31.1c-1.7-14,2.9-22.9,10.1-19.9C504.2,225.7,511.2,240,512.9,254.3z
		 M495.6,210.3c-7.5-3.1-14.9-17.2-16.3-31.9c-1.5-14.7,3.6-24.6,11.2-21.9c7.6,2.7,14.7,17.3,16.1,32.4
		C507.9,204,503.1,213.4,495.6,210.3z M480.2,239.7c1.7,13.8-2.5,22.3-9.7,19.3s-14.6-16.2-16.4-29.7c-1.8-13.6,2.7-22.5,9.9-19.8
		C471.3,212.2,478.4,225.8,480.2,239.7z M462.6,197.6c-7.5-2.7-14.9-16.2-16.5-30.4c-1.5-14.2,3.4-24.1,11-21.8
		c7.6,2.4,14.8,16.3,16.2,30.9C474.9,190.9,470.1,200.3,462.6,197.6z M447.5,226.9c1.8,13.4-2.4,21.9-9.6,19.3
		c-7.1-2.7-14.6-15.2-16.5-28.3c-1.9-13.2,2.6-22.1,9.8-19.7C438.4,200.5,445.6,213.4,447.5,226.9z M429.7,186.6
		c-7.5-2.3-15-15.2-16.6-29s3.3-23.6,10.8-21.6c7.6,2,14.8,15.3,16.4,29.5C441.9,179.5,437.2,188.9,429.7,186.6z M414.8,215.7
		c1.9,13-2.3,21.5-9.4,19.2c-7.2-2.3-14.7-14.3-16.7-27.1s2.4-21.7,9.7-19.6C405.5,190.2,412.9,202.6,414.8,215.7z M396.8,177
		c-7.5-2-15-14.4-16.8-27.8c-1.7-13.4,3.1-23.1,10.7-21.4c7.6,1.7,14.9,14.4,16.5,28.2C408.8,169.7,404.3,179,396.8,177z M382,206
		c2,12.7-2.1,21.1-9.3,19.1c-7.2-2-14.8-13.6-16.8-26c-2-12.5,2.3-21.3,9.5-19.5C372.7,181.4,380,193.2,382,206z M363.8,168.7
		c-7.5-1.7-15.1-13.6-16.9-26.6c-1.8-13.1,3-22.7,10.5-21.2c7.6,1.4,14.9,13.6,16.7,27C375.8,161.2,371.3,170.4,363.8,168.7z
		 M349.3,197.5c2,12.3-2,20.8-9.2,19c-7.2-1.7-14.9-12.8-17-24.9c-2.1-12.2,2.2-20.9,9.4-19.4C339.8,173.8,347.2,185.1,349.3,197.5z
		 M330.9,161.6c-7.5-1.5-15.2-12.8-17.1-25.5c-1.9-12.8,2.8-22.3,10.4-21.1c7.5,1.2,15,12.9,16.9,25.9
		C342.8,153.9,338.4,163.1,330.9,161.6z M322.3,106.8c-7.6-1.2-15.1-12.5-16.7-25.4s3.3-22.8,10.9-21.9c7.6,0.9,14.9,12.5,16.5,25.7
		C334.6,98.4,329.9,108,322.3,106.8z M307.9,135.1c1.9,12.7-2.5,21.8-10.1,20.5c-7.5-1.3-15.3-12.2-17.2-24.6
		c-1.9-12.5,2.7-21.8,10.3-20.9C298.5,111.2,306,122.4,307.9,135.1z M283.6,184.1c2.2,11.7-1.8,20.1-9,18.8s-15-11.5-17.2-23
		c-2.2-11.6,2-20.2,9.2-19.1C273.9,161.8,281.4,172.3,283.6,184.1z M264.8,150.6c-7.5-1-15.4-11.6-17.4-23.7
		c-2-12.2,2.6-21.5,10.2-20.7s15.2,11.6,17.2,24C276.7,142.6,272.3,151.7,264.8,150.6z M250.7,178.9c2.2,11.5-1.7,19.8-9,18.7
		c-7.2-1.1-15.1-11-17.4-22.2c-2.3-11.3,1.9-19.9,9.2-19C240.8,157.3,248.4,167.4,250.7,178.9z M231.7,146.5
		c-7.5-0.9-15.5-11-17.5-22.9c-2.1-11.9,2.5-21.1,10.1-20.5s15.3,11.1,17.3,23.2C243.5,138.4,239.2,147.3,231.7,146.5z M217.6,174.6
		c2.3,11.2-1.6,19.5-8.9,18.6c-7.3-0.9-15.2-10.4-17.5-21.5s1.8-19.6,9.1-18.9C207.6,153.5,215.3,163.3,217.6,174.6z M198.4,143.1
		c-7.6-0.7-15.5-10.5-17.7-22.1c-2.1-11.6,2.4-20.8,10-20.3s15.3,10.6,17.4,22.4C210.3,134.9,206,143.8,198.4,143.1z M184.5,171
		c2.3,11-1.5,19.2-8.9,18.5c-7.3-0.7-15.3-10-17.7-20.8s1.7-19.3,9.1-18.7C174.4,150.5,182.1,160,184.5,171z M162.4,216.6
		c2.6,10.2-0.9,17.8-8,17s-15-9.4-17.7-19.5c-2.6-10.1,1.1-17.9,8.2-17.3C152,197.4,159.8,206.3,162.4,216.6z M142.4,186.5
		c-7.3-0.6-15.4-9.6-17.8-20.2c-2.5-10.6,1.6-19,9-18.6c7.4,0.4,15.2,9.6,17.6,20.4C153.6,178.9,149.8,187.1,142.4,186.5z
		 M129.2,213.4c2.6,10-0.9,17.5-8,16.9c-7.1-0.6-15.1-9-17.8-18.9c-2.7-9.9,1-17.6,8.2-17.2C118.7,194.8,126.5,203.4,129.2,213.4z
		 M109.1,184.2c-7.4-0.5-15.5-9.2-18-19.6c-2.5-10.4,1.6-18.7,9-18.4s15.3,9.2,17.8,19.8C120.3,176.5,116.4,184.6,109.1,184.2z
		 M95.9,211c2.7,9.9-0.8,17.3-8,16.8c-7.1-0.5-15.2-8.6-18-18.4c-2.7-9.8,1-17.4,8.2-17.1C85.3,192.7,93.2,201.1,95.9,211z
		 M75.5,182.4c-7.4-0.3-15.6-8.8-18.1-19c-2.6-10.3,1.5-18.5,9-18.3c7.4,0.2,15.4,8.9,17.9,19.3C86.8,174.7,82.9,182.8,75.5,182.4z
		 M56.1,294.8c3.1,8.5,0.2,14.9-6.5,14.4s-14.8-7.7-17.9-16.1c-3.1-8.5-0.1-15.1,6.7-14.7C45.2,278.9,53.1,286.3,56.1,294.8z
		 M54.1,321.1c6.5,0.5,14.3,7.6,17.5,15.6s0.6,14-5.9,13.4s-14.4-7.5-17.7-15.4C44.9,326.7,47.6,320.5,54.1,321.1z M55,373.9
		c3.3,7.4,1,12.9-5.3,12.4c-6.3-0.6-14.2-7-17.6-14.3c-3.4-7.4-0.9-13.1,5.5-12.6C43.9,359.9,51.7,366.5,55,373.9z M58.6,446.4
		c3.5,6.5,1.7,11.1-4.2,10.5s-13.7-6.2-17.2-12.6c-3.5-6.5-1.6-11.3,4.4-10.7C47.5,434.2,55.1,439.9,58.6,446.4z M45.5,478.5
		c3.6,6,2,10.3-3.8,9.7c-5.8-0.6-13.5-5.7-17.1-11.7s-1.9-10.4,3.9-9.9S41.9,472.5,45.5,478.5z M39.1,530.9
		c5.4,0.5,12.8,5.2,16.6,10.3c3.7,5.1,2.4,8.7-3,8.2c-5.4-0.6-12.9-5.1-16.7-10.2C32.3,534.2,33.7,530.4,39.1,530.9z M45.5,568.6
		c3.8,4.7,2.6,8-2.6,7.6c-5.3-0.5-12.7-4.6-16.5-9.3s-2.6-8.2,2.7-7.7C34.4,559.6,41.7,563.9,45.5,568.6z M36.3,594.6
		c3.8,4.3,2.8,7.4-2.3,7s-12.5-4.2-16.3-8.5s-2.7-7.5,2.4-7.1S32.5,590.3,36.3,594.6z M36.5,644c-3.9-3.6-3-6.4,1.8-6
		s11.9,3.7,15.7,7.4c3.8,3.7,3.1,6.2-1.8,5.9C47.4,650.9,40.3,647.7,36.5,644z M59.8,684.5c4.6,0.3,11.3,3.2,15.2,6.2
		c3.8,3.1,3.3,5.2-1.3,4.9c-4.6-0.3-11.4-3.1-15.3-6.1C54.7,686.4,55.3,684.2,59.8,684.5z M63.9,668.8c-3.8-3.4-3.1-5.8,1.5-5.4
		c4.7,0.4,11.6,3.5,15.4,6.9c3.9,3.4,3.2,5.7-1.5,5.3C74.7,675.1,67.8,672.1,63.9,668.8z M70.1,646.9c-3.9-3.7-3-6.4,1.8-5.9
		c4.8,0.4,11.8,3.9,15.6,7.6c3.8,3.7,3.1,6.3-1.7,5.7C81,653.9,73.9,650.6,70.1,646.9z M93.5,687.4c4.5,0.4,11.3,3.3,15.1,6.4
		c3.8,3.1,3.3,5.2-1.2,4.8s-11.3-3.2-15.2-6.3C88.3,689.1,88.9,686.9,93.5,687.4z M97.5,671.9c-3.8-3.4-3.1-5.8,1.5-5.3
		s11.5,3.7,15.3,7.1c3.8,3.4,3.2,5.7-1.5,5.2C108.2,678.4,101.3,675.3,97.5,671.9z M103.5,650.4c-3.8-3.7-3-6.3,1.7-5.8
		c4.8,0.6,11.7,4.1,15.5,7.9c3.8,3.7,3.1,6.2-1.7,5.7C114.3,657.5,107.3,654.1,103.5,650.4z M126.8,690.8c4.5,0.5,11.2,3.5,15,6.7
		c3.8,3.1,3.3,5.2-1.2,4.7s-11.3-3.4-15.1-6.6C121.8,692.5,122.3,690.3,126.8,690.8z M130.7,675.6c-3.8-3.4-3.1-5.8,1.5-5.2
		c4.6,0.6,11.4,4,15.2,7.4c3.8,3.5,3.2,5.7-1.4,5.1C141.4,682.3,134.5,679.1,130.7,675.6z M136.6,654.6c-3.8-3.8-3-6.4,1.7-5.7
		c4.7,0.6,11.7,4.3,15.5,8.2c3.8,3.8,3.1,6.2-1.6,5.5C147.4,661.9,140.4,658.3,136.6,654.6z M143.2,632.2c-3.8-4.1-2.9-6.9,2-6.2
		s11.9,4.8,15.6,8.9c3.8,4.2,3,6.8-1.9,6C154.1,640.3,147,636.4,143.2,632.2z M165.2,675c4.6,0.7,11.4,4.2,15.2,7.7s3.2,5.7-1.4,5
		c-4.6-0.7-11.4-4-15.2-7.5C159.9,676.7,160.6,674.3,165.2,675z M169.5,659.4c-3.8-3.8-3-6.4,1.7-5.6c4.7,0.8,11.6,4.6,15.4,8.4
		c3.8,3.8,3.1,6.2-1.6,5.4C180.2,666.9,173.3,663.3,169.5,659.4z M176,637.5c-3.8-4.2-2.9-7,1.9-6.1c4.8,0.9,11.8,5.1,15.6,9.3
		s3,6.8-1.9,5.9C186.8,645.8,179.7,641.7,176,637.5z M198,680.4c4.6,0.8,11.3,4.4,15.1,7.9c3.8,3.6,3.2,5.7-1.3,4.8
		c-4.6-0.8-11.4-4.3-15.2-7.8C192.8,681.8,193.4,679.6,198,680.4z M202.2,665.1c-3.8-3.9-3-6.4,1.6-5.5c4.7,0.9,11.5,4.9,15.3,8.7
		c3.8,3.9,3.1,6.2-1.6,5.3C212.9,672.8,206,669,202.2,665.1z M208.5,643.6c-3.8-4.2-2.9-6.9,1.9-6c4.8,1,11.7,5.3,15.5,9.6
		s3,6.9-1.8,5.8C219.3,652.1,212.3,647.9,208.5,643.6z M230.6,686.5c4.5,0.9,11.2,4.6,15,8.2c3.8,3.6,3.2,5.7-1.3,4.7
		c-4.5-0.9-11.3-4.5-15.1-8.1C225.4,687.8,226.1,685.6,230.6,686.5z M234.7,671.6c-3.8-3.9-3-6.4,1.6-5.3c4.7,1,11.5,5.1,15.2,9.1
		c3.8,4,3.1,6.2-1.5,5.2C245.3,679.5,238.5,675.6,234.7,671.6z M240.9,650.6c-3.8-4.3-2.9-7,1.9-5.9c4.8,1.1,11.7,5.6,15.4,10
		c3.7,4.3,3,6.8-1.8,5.7S244.7,654.9,240.9,650.6z M263,693.6c4.5,1,11.2,4.9,15,8.6c3.8,3.7,3.2,5.7-1.3,4.6
		c-4.5-1.1-11.2-4.8-15-8.4C257.9,694.7,258.5,692.5,263,693.6z M267,679c-3.8-4-3.1-6.3,1.6-5.2c4.6,1.2,11.4,5.4,15.2,9.4
		c3.8,4,3.1,6.2-1.5,5C277.6,687.2,270.8,683,267,679z M273.1,658.5c-3.7-4.4-2.9-7,1.8-5.7c4.8,1.2,11.6,6,15.4,10.4
		c3.7,4.4,3,6.8-1.8,5.5C283.8,667.4,276.9,662.9,273.1,658.5z M280,636.7c-3.7-4.8-2.7-7.7,2.1-6.3c4.9,1.4,11.8,6.5,15.5,11.4
		c3.7,4.8,2.8,7.5-2.1,6.1C290.8,646.5,283.8,641.5,280,636.7z M300.7,682.4c4.6,1.3,11.3,5.8,15.1,9.8c3.8,4.1,3.1,6.2-1.5,4.9
		s-11.4-5.6-15.2-9.7C295.4,683.4,296.1,681.1,300.7,682.4z M305.1,667.5c-3.7-4.5-2.9-7,1.8-5.6c4.7,1.4,11.6,6.3,15.3,10.8
		c3.7,4.5,3,6.9-1.7,5.4C315.8,676.6,308.9,671.9,305.1,667.5z M311.9,646.1c-3.7-4.9-2.7-7.7,2.1-6.1c4.8,1.6,11.7,6.9,15.5,11.8
		c3.7,4.9,2.8,7.6-2,5.9C322.7,656.2,315.7,651,311.9,646.1z M332.6,691.9c4.6,1.4,11.3,6.1,15.1,10.2c3.8,4.2,3.1,6.2-1.5,4.7
		s-11.4-6-15.1-10.1C327.3,692.7,328,690.5,332.6,691.9z M337,677.4c-3.7-4.5-2.9-7,1.8-5.4c4.7,1.6,11.5,6.7,15.2,11.2
		c3.7,4.6,3,6.8-1.7,5.2C347.6,686.9,340.7,681.9,337,677.4z M343.7,656.7c-3.7-5-2.7-7.7,2.1-6c4.8,1.7,11.7,7.3,15.4,12.3
		c3.7,5,2.8,7.6-2,5.8C354.4,667,347.4,661.7,343.7,656.7z M364.4,702.6c4.6,1.6,11.3,6.5,15,10.7c3.8,4.2,3.2,6.2-1.4,4.5
		s-11.3-6.3-15.1-10.5C359.1,703.1,359.8,701,364.4,702.6z M368.7,688.6c-3.7-4.6-2.9-7,1.8-5.2c4.7,1.8,11.5,7.1,15.2,11.7
		c3.7,4.6,3,6.8-1.7,5S372.4,693.2,368.7,688.6z M375.3,668.5c-3.7-5.1-2.7-7.7,2-5.8c4.8,1.9,11.7,7.7,15.4,12.9
		c3.7,5.1,2.8,7.6-2,5.6S379,673.5,375.3,668.5z M396,714.5c4.5,1.8,11.2,6.9,15,11.2c3.7,4.3,3.1,6.2-1.4,4.4s-11.3-6.7-15-11
		C390.8,714.8,391.5,712.7,396,714.5z M400.2,701c-3.7-4.7-2.9-7,1.7-5.1c4.7,1.9,11.4,7.5,15.2,12.2c3.7,4.7,3,6.9-1.7,4.8
		C410.8,711,403.9,705.6,400.2,701z M406.7,681.6c-3.7-5.2-2.8-7.7,2-5.6c4.8,2.1,11.6,8.2,15.3,13.4c3.7,5.2,2.8,7.6-2,5.4
		C417.3,692.6,410.4,686.7,406.7,681.6z M414.2,660.7c-3.6-5.7-2.5-8.5,2.4-6.2s11.8,9,15.4,14.7s2.6,8.3-2.3,6
		C424.8,672.7,417.8,666.3,414.2,660.7z M433.3,709.8c4.7,2.2,11.4,7.9,15.1,12.8c3.7,4.8,3,6.8-1.6,4.6s-11.5-7.8-15.2-12.6
		C427.9,709.9,428.7,707.7,433.3,709.8z M438,696c-3.7-5.3-2.8-7.7,2-5.4s11.6,8.7,15.3,14c3.7,5.3,2.9,7.6-1.9,5.1
		C448.6,707.4,441.7,701.3,438,696z M445.4,675.9c-3.6-5.8-2.5-8.5,2.4-6c4.9,2.6,11.8,9.5,15.4,15.4c3.6,5.8,2.6,8.3-2.3,5.7
		C456,688.4,449,681.7,445.4,675.9z M453.8,654.2c-3.5-6.4-2.3-9.4,2.8-6.7c5.1,2.8,12,10.4,15.5,16.8c3.6,6.4,2.4,9.2-2.6,6.4
		C464.4,667.9,457.3,660.6,453.8,654.2z M471.2,706.8c4.8,2.6,11.6,9.2,15.2,14.7c3.7,5.4,2.9,7.6-1.9,4.9
		c-4.7-2.7-11.6-9.1-15.3-14.4C465.5,706.6,466.5,704.2,471.2,706.8z M476.5,692.7c-3.6-5.9-2.5-8.6,2.3-5.7
		c4.9,2.8,11.7,10.1,15.3,16.1c3.6,6,2.6,8.3-2.3,5.5C487,705.6,480.1,698.6,476.5,692.7z M484.8,671.8c-3.5-6.5-2.3-9.5,2.7-6.4
		s11.9,11,15.5,17.6c3.5,6.6,2.4,9.2-2.6,6.1C495.3,686,488.3,678.3,484.8,671.8z M494.2,649.3c-3.5-7.1-2-10.4,3.2-7.1
		c5.2,3.3,12.1,12,15.5,19.2c3.4,7.2,2.1,10.2-3.1,6.8C504.7,664.8,497.7,656.4,494.2,649.3z M509.7,705.7
		c4.9,3.1,11.7,10.7,15.3,16.8s2.6,8.4-2.2,5.2c-4.9-3.2-11.8-10.5-15.4-16.5C503.8,705.1,504.9,702.6,509.7,705.7z M515.7,691.3
		c-3.5-6.7-2.3-9.5,2.7-6.1c5,3.3,11.9,11.7,15.4,18.4s2.4,9.2-2.6,5.8C526.2,705.9,519.2,697.9,515.7,691.3z M525.1,669.6
		c-3.4-7.3-2-10.5,3.2-6.9s12,12.8,15.5,20.2c3.4,7.4,2.1,10.2-3.1,6.5C535.5,685.7,528.5,677,525.1,669.6z M549.2,706.8
		c5,3.7,11.8,12.4,15.3,19.3c3.5,6.9,2.4,9.2-2.6,5.5c-5-3.8-11.9-12.2-15.4-19C542.9,705.8,544.2,703.1,549.2,706.8z M555.8,692
		c-3.4-7.5-1.9-10.5,3.2-6.5c5.1,4,12,13.6,15.4,21.2c3.4,7.6,2.1,10.3-3,6.2C566.2,708.7,559.2,699.5,555.8,692z M566.4,669.6
		c-3.3-8.3-1.6-11.6,3.7-7.3s12.2,14.8,15.4,23.2c3.3,8.3,1.7,11.4-3.6,6.9C576.7,687.9,569.7,677.8,566.4,669.6z M578.5,645.2
		c-3.1-9.1-1.1-12.8,4.3-8.2c5.5,4.7,12.3,16.1,15.4,25.3c3.1,9.2,1.3,12.6-4.2,7.8C588.7,665.3,581.6,654.2,578.5,645.2z
		 M600.7,688.4c5.3,4.8,12.1,15.8,15.4,24.4c3.2,8.6,1.7,11.4-3.6,6.5c-5.2-4.9-12.2-15.5-15.5-23.9
		C593.8,686.9,595.5,683.7,600.7,688.4z M609.1,672.2c-3.1-9.3-1.1-12.9,4.3-7.8c5.4,5.1,12.3,17.1,15.3,26.7
		c3.1,9.4,1.3,12.6-4.2,7.3C619.2,693,612.2,681.4,609.1,672.2z M622.8,646.8c-2.9-10.3-0.6-14.3,5-8.9c5.7,5.5,12.4,18.7,15.3,29.2
		c2.8,10.4,0.8,14-4.9,8.3C632.7,669.7,625.6,657,622.8,646.8z M638.2,618.9c-2.7-11.3,0-15.9,5.8-10c5.9,6,12.6,20.3,15.2,31.9
		c2.6,11.5,0.2,15.6-5.6,9.4C647.9,644.1,640.9,630.2,638.2,618.9z M658.4,669.4c5.6,6.1,12.4,20,15.2,30.8
		c2.8,10.7,0.7,14.1-4.9,7.8c-5.5-6.2-12.5-19.6-15.3-30.1C650.5,667.2,652.8,663.4,658.4,669.4z M668.9,651.4
		c-2.6-11.7,0.1-16,5.9-9.5c5.9,6.6,12.5,21.8,15.1,33.7c2.6,11.8,0.1,15.7-5.7,8.9C678.5,677.6,671.6,663,668.9,651.4z
		 M686.6,622.3c-2.3-12.9,0.9-17.9,6.9-10.8c6.1,7.1,12.7,23.7,14.9,36.9c2.3,13.1-0.6,17.4-6.7,10.1
		C695.8,651.1,688.9,635.1,686.6,622.3z M705.5,678.2c5.8,7.3,12.4,23.4,14.9,35.6c2.5,12.2,0,15.7-5.8,8.2
		c-5.7-7.4-12.6-23-15.1-34.9C697,675.2,699.8,671,705.5,678.2z M717.4,659.7c-2.3-13.3,1-18,7-10.2c6.1,7.9,12.6,25.5,14.7,39.1
		c2.2,13.5-0.7,17.5-6.8,9.4C726.5,689.9,719.6,672.9,717.4,659.7z M737.7,629.3c-1.9-14.7,1.9-20.1,8.1-11.7
		c6.3,8.5,12.7,27.8,14.5,42.9c1.7,14.9-1.6,19.6-7.9,10.8C746.2,662.5,739.6,643.9,737.7,629.3z M760.6,595.6
		c-1.4-16.2,2.9-22.4,9.5-13.4c6.6,9.1,12.9,30.4,14.2,47c1.4,16.6-2.7,21.9-9.2,12.3C768.7,632.1,762.1,611.7,760.6,595.6z
		 M795.1,437c-7.6-9.3-14.1-32.9-14.3-53.1c-0.1-20.3,6.3-30.1,14.1-21.6c7.9,8.8,14,33.3,14,54.3
		C808.8,437.6,802.9,446.4,795.1,437z M809.3,507c0.4,19.6-4.9,27.1-12.2,17.1c-7.1-9.8-13.7-32.8-14.2-51.8
		c-0.5-19.2,5.2-27.6,12.5-18.4C802.8,463.2,808.9,487.2,809.3,507z M777.1,661.7c6.3,9.4,12.6,30,14.3,45.6
		c1.7,15.5-1.9,19.7-8.1,9.9c-6.2-9.6-12.8-29.4-14.5-44.5C767,657.5,770.9,652.5,777.1,661.7z M786.6,558.1
		c-0.9-18,4.2-25.1,11.1-15.4c7.1,9.8,13.1,33.1,13.9,51.6c0.8,18.4-3.9,24.5-10.8,14.2C794,598.3,787.5,575.9,786.6,558.1z
		 M802,628.3c6.6,10.2,12.8,32.8,13.9,50.1c1.2,17.2-2.9,22.1-9.5,11.5c-6.4-10.5-12.9-32.2-14.2-48.9
		C791,624.1,795.4,618.3,802,628.3z M843.1,372.4c-0.7,22.3-7.4,32-15.4,22.1c-7.8-9.8-14-34.7-13.6-56.3
		c0.5-21.7,7.6-32.4,15.6-23.5C837.9,324,843.8,350,843.1,372.4z M843.2,461.1c-0.3,21.8-6.6,30.4-14.3,19.7
		c-7.6-10.5-14-35.6-13.9-56.7c0.1-21.2,6.8-30.9,14.6-21.1C837.6,412.9,843.5,439.2,843.2,461.1z M816,516.3
		c-0.3-19.9,5.6-28.1,13-17.8c7.5,10.5,13.4,36.1,13.6,56.7c0.2,20.4-5.3,27.5-12.6,16.4C822.7,560.6,816.3,536,816,516.3z
		 M830.3,590.8c7,11,13,35.9,13.6,55.1c0.6,19.1-4.2,24.8-11.1,13.3c-6.8-11.4-13.2-35.2-13.9-53.7
		C818.2,586.8,823.4,580,830.3,590.8z M785.8,114.8c1-20.5,8.5-32.8,16.5-27.2c8.1,5.8,13.5,27.8,12.3,49.1
		c-1.2,21.1-8.4,32.7-16.3,26.3C790.5,156.7,784.8,135.3,785.8,114.8z M781.5,209.2c0.7-20.7,7.8-32.3,15.8-25.5
		c8.1,6.8,13.8,30.1,12.9,51.5c-0.8,21.3-7.7,32.1-15.6,24.5C787,252.1,780.9,229.8,781.5,209.2z M779.2,301.3
		c0.2-20.8,7.1-31.6,15.1-23.7c8.1,8,14.1,32.3,13.6,53.8c-0.4,21.4-6.9,31.3-14.8,22.5C785.4,345.3,778.9,321.9,779.2,301.3z
		 M748.9,89.9c0.8-19.6,8-31.8,15.9-26.9c8,4.9,13.5,25.6,12.6,45.9c-0.9,20.2-7.9,31.8-15.7,26.2C754,129.5,748.2,109.5,748.9,89.9
		z M745.8,180.3c0.4-19.8,7.3-31.4,15.3-25.5c8,6,13.8,27.7,13.2,48.2c-0.6,20.4-7.2,31.2-15,24.6C751.5,221,745.4,200,745.8,180.3z
		 M759,244.7c8,7,14.2,29.8,14,50.4c-0.2,20.5-6.5,30.5-14.3,22.8c-7.7-7.6-14.3-29.5-14.2-49.4C744.4,248.6,751.1,237.8,759,244.7z
		 M731.4,444.1c-7.2-7.8-13.9-28.1-14.8-45.7c-0.9-17.7,4.5-26.5,11.8-19.3c7.4,7.4,13.7,28.4,14.5,46.7
		C743.7,444,738.7,452,731.4,444.1z M727.9,363.4c-7.6-7.3-14.3-28.1-14.9-46.8c-0.5-18.8,5.5-28.9,13.3-22.1s14.2,28.4,14.6,47.8
		C741.2,361.6,735.5,370.9,727.9,363.4z M712.5,68.3c0.6-18.8,7.5-30.8,15.3-26.7c7.9,4.3,13.5,23.7,12.8,43.1
		c-0.7,19.3-7.4,30.8-15.1,26C717.9,105.9,712,87.1,712.5,68.3z M725.1,129.7c7.9,5.2,13.8,25.6,13.5,45.3
		c-0.4,19.6-6.8,30.4-14.5,24.5c-7.7-5.8-13.9-25.5-13.7-44.4C710.6,136,717.2,124.6,725.1,129.7z M724,215.9
		c8,6.2,14.2,27.5,14.3,47.3c0,19.7-6.1,29.8-13.9,23c-7.7-6.7-14.3-27.3-14.5-46.4C709.7,220.7,716.1,209.8,724,215.9z
		 M694.4,332.8c-7.5-6.5-14.4-26.1-15.1-44c-0.7-18.1,5.2-28.2,12.9-22.3c7.8,6,14.3,26.3,14.8,45
		C707.6,330,702.1,339.4,694.4,332.8z M676.5,49.7c0.3-18,7.1-29.9,14.8-26.3c7.8,3.7,13.6,21.9,13,40.5
		c-0.5,18.6-6.9,29.9-14.6,25.7C682.1,85.4,676.1,67.7,676.5,49.7z M689.4,107.8c7.9,4.5,13.9,23.7,13.8,42.6
		c-0.2,18.8-6.4,29.6-14.1,24.5c-7.7-5-14-23.6-14-41.8C675.2,114.7,681.7,103.3,689.4,107.8z M661.1,305.6
		c-7.5-5.8-14.5-24.2-15.3-41.5c-0.8-17.4,4.9-27.5,12.5-22.3c7.7,5.3,14.4,24.4,15.1,42.4C674.1,302,668.7,311.4,661.1,305.6z
		 M656.4,233.4c-7.6-5.3-14.5-23.5-15-41.2s5.5-28.5,13.3-23.9c7.8,4.7,14.4,23.7,14.8,42C669.8,228.5,664.1,238.7,656.4,233.4z
		 M655.1,7.7c7.7,3.1,13.6,20.3,13.3,38.2c-0.3,17.8-6.6,29-14.2,25.4c-7.5-3.6-13.6-20.3-13.5-37.6C640.9,16.4,647.4,4.7,655.1,7.7
		z M654.1,88.8c7.8,3.9,13.9,22,14,40.1c0,18-6,28.8-13.6,24.3c-7.6-4.4-14-21.9-14.2-39.4C640.1,96.2,646.4,84.9,654.1,88.8z
		 M627.9,281.5c-7.5-5.1-14.6-22.5-15.6-39.2c-1-16.8,4.6-26.9,12.2-22.3c7.7,4.7,14.5,22.7,15.3,40
		C640.7,277.2,635.4,286.7,627.9,281.5z M622.6,211.7c-7.6-4.6-14.5-21.9-15.2-38.9c-0.7-17.1,5.2-27.8,13-23.7s14.4,22,15,39.6
		C635.9,206.1,630.3,216.3,622.6,211.7z M619,72.4c7.7,3.4,14,20.4,14.2,37.9c0.2,17.3-5.6,28-13.3,24.1
		c-7.5-3.9-14.1-20.4-14.4-37.3C605.2,80.2,611.3,69,619,72.4z M606.4,238.7c1,16.6-4.1,26.1-11.7,21.5c-7.5-4.5-14.7-21-15.8-37.1
		c-1.1-16.2,4.3-26.3,11.9-22.2C598.5,204.9,605.4,222,606.4,238.7z M589,192.5c-7.6-4.1-14.6-20.4-15.4-36.8
		c-0.8-16.5,4.9-27.2,12.6-23.6c7.8,3.6,14.5,20.5,15.2,37.5C602.1,186.5,596.6,196.6,589,192.5z M584.2,58.2
		c7.7,2.9,14,19,14.4,35.8c0.4,16.7-5.3,27.3-12.9,23.9c-7.5-3.3-14.1-19-14.6-35.3C570.6,66.4,576.5,55.3,584.2,58.2z M573,219.9
		c1.1,16-3.9,25.5-11.4,21.5s-14.7-19.6-16-35.2c-1.2-15.7,4.1-25.7,11.6-22.2C564.9,187.6,571.9,203.8,573,219.9z M555.4,175.7
		c-7.6-3.6-14.7-19.1-15.6-34.9c-0.9-15.9,4.6-26.5,12.3-23.4s14.5,19.1,15.4,35.5C568.4,169.2,563.1,179.3,555.4,175.7z
		 M549.5,46.1c7.6,2.5,14.1,17.8,14.6,34c0.5,16.1-5,26.6-12.6,23.7c-7.5-2.9-14.2-17.8-14.8-33.5C536.1,54.5,541.9,43.6,549.5,46.1
		z M522,161.1c-7.6-3.1-14.7-17.9-15.8-33.2c-1-15.4,4.4-25.9,12.1-23.2c7.7,2.7,14.6,17.9,15.6,33.7
		C534.8,154.1,529.6,164.2,522,161.1z M515.1,35.7c7.6,2.1,14.1,16.6,14.7,32.3c0.6,15.6-4.8,26-12.3,23.5s-14.2-16.7-15-31.8
		C501.8,44.4,507.5,33.7,515.1,35.7z M488.6,148.3c-7.6-2.7-14.8-16.7-16-31.6s4.2-25.3,11.8-23c7.7,2.3,14.7,16.8,15.8,32.1
		C501.3,141,496.2,151,488.6,148.3z M480.8,27c7.5,1.8,14.2,15.6,14.9,30.7c0.8,15.1-4.6,25.4-12,23.2c-7.4-2.1-14.3-15.6-15.1-30.3
		C467.7,35.9,473.2,25.2,480.8,27z M455.3,137.2c-7.6-2.3-14.9-15.7-16.1-30.2c-1.3-14.5,4-24.8,11.6-22.8
		c7.7,2,14.7,15.8,15.9,30.6C467.9,129.7,462.9,139.6,455.3,137.2z M446.6,19.7c7.5,1.5,14.2,14.7,15.1,29.3s-4.4,24.8-11.8,23
		s-14.4-14.7-15.3-28.9C433.6,28.8,439.1,18.2,446.6,19.7z M422,127.7c-7.5-2-14.9-14.8-16.3-28.8s3.8-24.2,11.4-22.6
		c7.6,1.7,14.8,14.8,16.1,29.2C434.5,119.9,429.6,129.7,422,127.7z M412.5,13.7c7.5,1.2,14.3,13.8,15.2,28
		c1,14.1-4.1,24.2-11.6,22.7c-7.4-1.6-14.4-13.8-15.4-27.6C399.7,22.9,405,12.5,412.5,13.7z M388.8,119.5c-7.5-1.7-15-14-16.5-27.6
		s3.6-23.7,11.2-22.3c7.6,1.4,14.8,14,16.2,28C401.2,111.5,396.3,121.2,388.8,119.5z M378.5,8.8c7.5,1,14.3,13,15.4,26.8
		c1.1,13.7-4,23.7-11.4,22.4s-14.4-13.1-15.6-26.5C365.8,18.1,371,7.8,378.5,8.8z M355.5,112.6c-7.5-1.4-15-13.2-16.6-26.4
		c-1.6-13.3,3.5-23.2,11.1-22.1c7.6,1.2,14.9,13.2,16.4,26.8C367.9,104.4,363.1,114,355.5,112.6z M344.6,4.9
		c7.5,0.8,14.4,12.3,15.5,25.7c1.1,13.3-3.8,23.2-11.2,22.1c-7.4-1-14.5-12.3-15.7-25.4C331.9,14.2,337.1,4.2,344.6,4.9z M310.7,1.9
		c7.5,0.6,14.4,11.7,15.7,24.7c1.2,13-3.7,22.7-11.1,21.9c-7.4-0.8-14.6-11.7-15.9-24.4C298.1,11.3,303.2,1.4,310.7,1.9z
		 M282.9,55.9c7.6,0.8,15,11.9,16.7,24.8c1.6,12.8-3,22.3-10.6,21.3s-15.2-11.9-16.9-24.5C270.4,64.9,275.3,55.2,282.9,55.9z
		 M249.4,53.1c7.6,0.6,15.1,11.3,16.8,23.9c1.7,12.5-2.9,21.9-10.5,21.1s-15.3-11.3-17-23.6C236.9,62.1,241.7,52.5,249.4,53.1z
		 M215.7,51c7.6,0.4,15.2,10.8,17,23s-2.8,21.5-10.4,20.9c-7.6-0.6-15.3-10.8-17.2-22.8C203.3,60.1,208.1,50.6,215.7,51z
		 M182.1,49.5c7.7,0.3,15.3,10.3,17.1,22.3s-2.7,21.2-10.3,20.7s-15.4-10.3-17.4-22C169.6,58.7,174.4,49.3,182.1,49.5z M174.8,120.6
		c2.1,11.6-2.1,20.4-9.7,19.9c-7.6-0.5-15.6-10.1-17.8-21.4c-2.2-11.4,2.3-20.4,9.9-20.1C164.8,99.3,172.7,109.1,174.8,120.6z
		 M148.3,48.6c7.7,0.2,15.3,9.9,17.3,21.6c1.9,11.7-2.6,20.8-10.2,20.5c-7.6-0.3-15.5-9.9-17.5-21.4
		C135.9,57.8,140.6,48.5,148.3,48.6z M141.3,118.8c2.2,11.3-2.1,20.1-9.7,19.7c-7.6-0.4-15.7-9.6-18-20.8s2.2-20.1,9.9-19.9
		C131.2,98,139.1,107.4,141.3,118.8z M114.4,48.3c7.7,0,15.4,9.5,17.4,21s-2.5,20.5-10.2,20.3s-15.6-9.5-17.7-20.8
		C102,57.5,106.7,48.2,114.4,48.3z M107.7,117.5c2.3,11.1-2,19.8-9.6,19.5c-7.7-0.3-15.8-9.3-18.2-20.2c-2.3-11,2.2-19.9,9.9-19.8
		C97.4,97.2,105.4,106.4,107.7,117.5z M80.4,48.3c7.7,0,15.6,9.1,17.6,20.4S95.6,89,87.9,88.9s-15.7-9.1-17.8-20.2
		C68,57.5,72.7,48.4,80.4,48.3z M73.9,116.7c2.3,10.9-1.9,19.5-9.6,19.4c-7.7-0.2-15.9-8.9-18.3-19.7c-2.4-10.8,2.1-19.6,9.8-19.6
		C63.5,96.8,71.6,105.8,73.9,116.7z M64,68.7c2.1,11.1-2.4,19.9-10.1,19.9s-15.8-8.8-18-19.7c-2.1-10.9,2.5-20,10.3-20.1
		C54,48.6,61.9,57.6,64,68.7z M38.1,0.3c7.6-0.3,15,8.3,16.8,19.2c1.8,10.9-2.8,19.8-10.4,20s-15.3-8.3-17.1-19.1
		C25.7,9.7,30.5,0.6,38.1,0.3z M1.6,69.5c-2.2-10.8,2.5-19.7,10.3-20c7.8-0.2,15.8,8.5,17.9,19.4s-2.3,19.7-10,19.8
		C12,88.8,3.8,80.3,1.6,69.5z M11.9,116.4c-2.4-10.6,2-19.3,9.8-19.4c7.8-0.1,15.9,8.7,18.3,19.4s-1.9,19.3-9.6,19.2
		C22.6,135.5,14.3,127,11.9,116.4z M2.4,206.9c-2.8-9.4,0.9-17.1,8.2-16.9c7.3,0.2,15.3,8.1,18.1,17.7c2.8,9.5-0.7,16.9-8,16.7
		C13.4,224.1,5.2,216.4,2.4,206.9z M16.5,250.6c-3-9,0.4-16.1,7.4-15.8s15,8,17.9,17c2.9,9-0.2,15.9-7.2,15.5
		C27.6,267,19.5,259.5,16.5,250.6z M14.6,332.2c-3.3-7.9-0.5-14,6.1-13.6s14.4,7.3,17.6,15.2c3.2,7.9,0.6,13.9-5.9,13.4
		C25.8,346.8,17.8,340.1,14.6,332.2z M22.2,395.9c6.2,0.5,13.9,6.6,17.3,13.5s1.4,12-4.8,11.4c-6.1-0.6-14-6.5-17.5-13.3
		C13.9,400.7,16.1,395.4,22.2,395.9z M3.6,441.5C0,435.1,2.1,430.3,8,430.7c6,0.5,13.7,6.1,17.2,12.5s1.7,11.1-4.3,10.6
		C15,453.3,7.2,447.8,3.6,441.5z M16.5,498.1c5.6,0.5,13.1,5.4,16.8,10.9s2.2,9.5-3.4,9s-13.2-5.3-17-10.8
		C9.3,501.7,10.9,497.6,16.5,498.1z M2.4,536.4c-3.8-5.1-2.4-8.9,3.1-8.5c5.5,0.5,12.9,5,16.7,10c3.8,5.1,2.4,8.7-3,8.3
		C13.7,545.9,6.2,541.5,2.4,536.4z M11.9,611.5c5,0.3,12.2,3.9,16,7.9s3,6.8-2.1,6.4c-5-0.4-12.2-3.8-16.1-7.7
		C5.9,614.1,6.8,611.1,11.9,611.5z M2.6,641.8c-3.9-3.6-3-6.4,1.9-6.1c4.9,0.3,12,3.5,15.8,7.2c3.9,3.6,3.1,6.2-1.8,5.9
		C13.6,648.6,6.4,645.4,2.6,641.8z M17.6,796.1c-3.9,0-10.1-1.2-13.8-2.9c-3.7-1.6-3.5-3,0.4-3.1s10.1,1.3,13.8,2.9
		C21.7,794.8,21.5,796.1,17.6,796.1z M20,781.1c-4,0-10.4-1.4-14.1-3.3c-3.8-1.9-3.5-3.4,0.6-3.4c4,0,10.3,1.5,14.1,3.4
		C24.2,779.7,24,781.1,20,781.1z M22.9,765.3c-4.1,0-10.6-1.7-14.4-3.8c-3.8-2-3.5-3.7,0.7-3.6c4.1,0.1,10.5,1.8,14.3,3.8
		C27.3,763.8,27,765.4,22.9,765.3z M26.3,748.7c-4.3-0.1-10.8-2-14.6-4.2c-3.8-2.3-3.4-4,0.8-4c4.3,0.1,10.8,2.1,14.6,4.3
		C30.8,747.1,30.5,748.8,26.3,748.7z M30.2,731.2c-4.4-0.2-11-2.3-14.9-4.8c-3.8-2.5-3.4-4.4,1-4.3c4.4,0.2,11,2.3,14.8,4.9
		C35,729.5,34.6,731.3,30.2,731.2z M34.8,712.7c-4.5-0.2-11.3-2.6-15.1-5.3c-3.8-2.8-3.3-4.9,1.2-4.7s11.2,2.6,15.1,5.4
		C39.7,710.9,39.2,712.9,34.8,712.7z M52.3,796c-3.9,0-10.1-1.3-13.8-3c-3.7-1.7-3.5-3,0.4-3s10.1,1.4,13.7,3.1
		C56.4,794.7,56.2,796.1,52.3,796z M54.6,781.5c-4,0-10.3-1.6-14-3.4c-3.7-1.8-3.5-3.3,0.5-3.3c4,0.1,10.3,1.7,14,3.5
		S58.6,781.5,54.6,781.5z M57.3,766.1c-4.1-0.2-10.5-1.8-14.3-3.9c-3.8-2.1-3.5-3.7,0.7-3.6c4.1,0.1,10.5,1.9,14.2,4
		C61.7,764.6,61.4,766.2,57.3,766.1z M60.5,749.8c-4.2-0.2-10.7-2.1-14.5-4.4c-3.8-2.3-3.4-4,0.8-3.9c4.2,0.2,10.7,2.2,14.5,4.5
		C65.1,748.3,64.8,750,60.5,749.8z M64.3,732.7c-4.3-0.2-11-2.4-14.8-4.9s-3.4-4.4,1-4.2c4.3,0.2,10.9,2.5,14.7,5
		C69.1,731.2,68.7,732.9,64.3,732.7z M68.7,714.7c-4.5-0.3-11.2-2.7-15-5.5s-3.3-4.9,1.1-4.6c4.5,0.3,11.1,2.8,15,5.6
		S73.2,715,68.7,714.7z M86.8,796.5c-3.9-0.1-10-1.5-13.7-3.1c-3.7-1.7-3.5-3,0.4-2.9s10,1.5,13.6,3.2
		C90.8,795.3,90.7,796.5,86.8,796.5z M88.9,782.3c-4-0.1-10.2-1.7-13.9-3.6c-3.7-1.9-3.5-3.3,0.5-3.2s10.2,1.8,13.9,3.6
		C93,781.1,92.8,782.4,88.9,782.3z M91.4,767.4c-4.1-0.2-10.5-2-14.2-4c-3.8-2.1-3.5-3.7,0.6-3.5c4.2,0.1,10.5,2,14.2,4.1
		C95.8,766.1,95.5,767.6,91.4,767.4z M94.5,751.6c-4.2-0.3-10.7-2.3-14.4-4.6c-3.8-2.3-3.4-4,0.8-3.8c4.2,0.2,10.6,2.3,14.4,4.7
		C99.1,750.1,98.7,751.8,94.5,751.6z M98.2,734.8c-4.3-0.3-10.9-2.6-14.7-5.1c-3.8-2.5-3.4-4.4,0.9-4.1c4.3,0.3,10.8,2.7,14.6,5.2
		C102.9,733.4,102.5,735.2,98.2,734.8z M102.5,717.2c-4.4-0.4-11.1-2.9-14.9-5.7s-3.3-4.8,1.1-4.5c4.4,0.4,11.1,3,14.9,5.8
		C107.3,715.6,106.9,717.6,102.5,717.2z M121,797.5c-3.8-0.1-9.9-1.6-13.6-3.3s-3.5-3,0.3-2.8c3.8,0.1,9.9,1.7,13.6,3.3
		C125,796.4,124.8,797.6,121,797.5z M122.9,783.8c-3.9-0.2-10.2-1.8-13.9-3.7c-3.7-1.9-3.5-3.3,0.5-3.1c3.9,0.2,10.1,1.9,13.8,3.8
		C127.1,782.6,126.9,784,122.9,783.8z M125.4,769.2c-4-0.3-10.4-2.1-14.1-4.2c-3.7-2.1-3.5-3.6,0.6-3.4c4.1,0.2,10.3,2.2,14.1,4.3
		C129.6,768,129.4,769.5,125.4,769.2z M128.3,753.8c-4.2-0.3-10.6-2.4-14.4-4.7s-3.4-4,0.7-3.7c4.2,0.3,10.6,2.5,14.3,4.8
		C132.8,752.6,132.5,754.2,128.3,753.8z M131.8,737.6c-4.3-0.4-10.8-2.7-14.6-5.3c-3.8-2.6-3.4-4.4,0.9-4s10.8,2.8,14.6,5.4
		C136.5,736.2,136.1,737.9,131.8,737.6z M135.9,720.4c-4.4-0.5-11-3.1-14.9-5.9c-3.8-2.8-3.3-4.8,1.1-4.4c4.4,0.4,11,3.2,14.8,6
		C140.8,718.9,140.3,720.8,135.9,720.4z M155,799.1c-3.8-0.2-9.9-1.7-13.5-3.4c-3.7-1.7-3.5-2.9,0.3-2.7s9.9,1.8,13.5,3.5
		C158.9,798.1,158.8,799.2,155,799.1z M156.7,785.8c-3.9-0.2-10.1-2-13.8-3.9s-3.5-3.3,0.4-3c3.9,0.2,10.1,2,13.8,4
		C160.8,784.8,160.7,786.1,156.7,785.8z M159,771.7c-4-0.3-10.3-2.3-14.1-4.4c-3.7-2.1-3.5-3.6,0.6-3.3c4,0.3,10.3,2.3,14,4.5
		C163.3,770.6,163.1,772,159,771.7z M161.8,756.8c-4.1-0.4-10.5-2.6-14.3-4.9c-3.8-2.3-3.4-4,0.7-3.6c4.1,0.4,10.5,2.7,14.3,5
		S166,757.2,161.8,756.8z M165.2,741c-4.2-0.5-10.8-2.9-14.5-5.5c-3.8-2.6-3.4-4.4,0.9-3.9c4.2,0.5,10.7,3,14.5,5.6
		C169.8,739.7,169.5,741.4,165.2,741z M169.2,724.2c-4.4-0.6-11-3.3-14.8-6.1s-3.3-4.8,1-4.3c4.4,0.6,10.9,3.4,14.7,6.2
		C173.9,722.9,173.5,724.8,169.2,724.2z M158.7,699.6c-3.8-3.2-3.2-5.3,1.2-4.7c4.5,0.6,11.1,3.7,14.9,6.9c3.8,3.2,3.3,5.2-1.2,4.5
		C169.3,705.8,162.5,702.8,158.7,699.6z M190.4,788.4c-3.9-0.3-10.1-2.2-13.7-4c-3.7-1.9-3.5-3.2,0.4-2.9s10,2.2,13.7,4.1
		C194.4,787.5,194.2,788.8,190.4,788.4z M192.5,774.8c-4-0.4-10.3-2.4-14-4.6c-3.7-2.2-3.5-3.6,0.5-3.2c4,0.4,10.2,2.5,14,4.7
		C196.7,773.9,196.5,775.3,192.5,774.8z M195.2,760.4c-4.1-0.5-10.5-2.8-14.2-5.1c-3.8-2.4-3.5-4,0.7-3.5c4.1,0.5,10.5,2.8,14.2,5.2
		C199.5,759.4,199.3,760.9,195.2,760.4z M198.4,745c-4.2-0.5-10.7-3.1-14.5-5.7c-3.8-2.6-3.4-4.4,0.8-3.8c4.2,0.5,10.6,3.2,14.4,5.8
		C202.9,744,202.6,745.6,198.4,745z M202.2,728.8c-4.3-0.6-10.9-3.5-14.7-6.4s-3.3-4.8,1-4.2s10.9,3.6,14.7,6.5
		C206.9,727.6,206.5,729.4,202.2,728.8z M191.7,704.4c-3.8-3.2-3.2-5.3,1.2-4.5c4.5,0.7,11.1,3.9,14.9,7.2c3.8,3.2,3.3,5.2-1.1,4.5
		C202.2,710.7,195.5,707.6,191.7,704.4z M223.8,791.8c-3.9-0.4-10-2.3-13.7-4.2c-3.7-2-3.5-3.2,0.4-2.8s9.9,2.4,13.6,4.3
		C227.8,791,227.6,792.2,223.8,791.8z M225.7,778.7c-4-0.5-10.2-2.6-13.9-4.8s-3.5-3.5,0.5-3.1c4,0.5,10.2,2.7,13.9,4.9
		C229.9,777.8,229.7,779.1,225.7,778.7z M228.3,764.7c-4.1-0.6-10.4-2.9-14.2-5.3c-3.8-2.4-3.4-3.9,0.6-3.4c4.1,0.6,10.4,3,14.1,5.4
		C232.6,763.9,232.4,765.3,228.3,764.7z M231.4,749.9c-4.2-0.7-10.7-3.3-14.4-6c-3.8-2.6-3.4-4.3,0.8-3.7c4.2,0.7,10.6,3.4,14.4,6.1
		C235.9,748.9,235.5,750.5,231.4,749.9z M235,734.1c-4.3-0.7-10.9-3.7-14.7-6.6c-3.8-2.9-3.3-4.8,1-4c4.3,0.7,10.8,3.8,14.6,6.7
		C239.7,733.1,239.3,734.8,235,734.1z M224.5,710c-3.8-3.3-3.3-5.3,1.2-4.4c4.4,0.8,11,4.2,14.8,7.5s3.3,5.2-1.1,4.3
		C234.9,716.5,228.2,713.2,224.5,710z M257,795.8c-3.8-0.5-10-2.5-13.6-4.4c-3.7-2-3.5-3.2,0.3-2.7c3.9,0.5,9.9,2.6,13.6,4.5
		C260.9,795.2,260.8,796.3,257,795.8z M258.8,783.2c-3.9-0.6-10.2-2.8-13.9-5s-3.5-3.5,0.5-3c3.9,0.6,10.1,2.9,13.8,5.1
		C262.9,782.5,262.8,783.8,258.8,783.2z M261.2,769.8c-4.1-0.7-10.4-3.2-14.1-5.6c-3.7-2.4-3.5-3.9,0.6-3.3
		c4.1,0.7,10.4,3.2,14.1,5.7C265.5,769.1,265.3,770.5,261.2,769.8z M264.1,755.5c-4.2-0.8-10.6-3.5-14.4-6.2
		c-3.7-2.7-3.4-4.3,0.8-3.6c4.2,0.8,10.6,3.6,14.3,6.3C268.6,754.7,268.3,756.3,264.1,755.5z M267.7,740.2
		c-4.3-0.9-10.8-3.9-14.6-6.9c-3.8-3-3.3-4.8,0.9-3.9c4.3,0.9,10.8,4,14.6,7C272.3,739.4,272,741.1,267.7,740.2z M271.9,724
		c-4.4-0.9-11-4.4-14.8-7.6c-3.8-3.3-3.3-5.2,1.1-4.3c4.4,1,11,4.5,14.8,7.8C276.7,723.1,276.2,725,271.9,724z M291.7,788.6
		c-3.9-0.7-10.1-3-13.8-5.2c-3.7-2.2-3.5-3.5,0.4-2.8s10.1,3,13.8,5.3C295.8,788,295.7,789.2,291.7,788.6z M294,775.7
		c-4-0.8-10.3-3.4-14.1-5.8c-3.7-2.5-3.5-3.9,0.6-3.1c4,0.8,10.3,3.5,14.1,5.9C298.2,775.1,298,776.5,294,775.7z M296.8,761.9
		c-4.1-0.9-10.6-3.7-14.3-6.5c-3.8-2.7-3.4-4.3,0.7-3.5c4.1,0.9,10.5,3.9,14.3,6.6C301.2,761.4,300.9,762.8,296.8,761.9z
		 M300.2,747.3c-4.3-1-10.8-4.2-14.5-7.2c-3.8-3-3.4-4.8,0.9-3.8c4.3,0.9,10.8,4.2,14.5,7.3C304.8,746.6,304.4,748.3,300.2,747.3z
		 M304.2,731.6c-4.4-1.1-11-4.6-14.8-7.9c-3.8-3.4-3.3-5.2,1.1-4.2c4.4,1.1,10.9,4.7,14.7,8.1C309,730.9,308.6,732.7,304.2,731.6z
		 M293.9,706.1c-3.8-3.7-3.2-5.8,1.3-4.6s11.1,5.2,14.9,8.9s3.2,5.7-1.2,4.4C304.4,713.7,297.7,709.8,293.9,706.1z M324.5,794.7
		c-3.9-0.8-10.1-3.2-13.8-5.5c-3.7-2.2-3.5-3.5,0.4-2.7s10.1,3.3,13.8,5.6C328.5,794.4,328.4,795.5,324.5,794.7z M326.6,782.5
		c-4-0.8-10.3-3.6-14-6.1s-3.5-3.9,0.5-3s10.3,3.7,14,6.2C330.8,782.1,330.6,783.4,326.6,782.5z M329.2,769.3
		c-4.1-1-10.5-4-14.3-6.8s-3.4-4.3,0.7-3.3s10.5,4.1,14.2,6.9C333.6,768.9,333.3,770.3,329.2,769.3z M332.5,755.2
		c-4.2-1.1-10.8-4.4-14.5-7.5c-3.8-3.1-3.4-4.8,0.9-3.7c4.2,1.1,10.7,4.5,14.5,7.6C337.1,754.8,336.7,756.3,332.5,755.2z
		 M336.4,740.2c-4.3-1.2-10.9-4.9-14.7-8.3c-3.8-3.4-3.3-5.2,1.1-4c4.3,1.2,10.9,5,14.7,8.4C341.1,739.7,340.7,741.4,336.4,740.2z
		 M340.9,724.1c-4.5-1.4-11.2-5.4-14.9-9.1c-3.8-3.8-3.2-5.8,1.3-4.5s11.1,5.5,14.9,9.3C345.9,723.6,345.4,725.5,340.9,724.1z
		 M359,790.1c-4-1-10.3-3.8-14-6.4c-3.7-2.6-3.5-3.9,0.5-2.9s10.2,3.9,14,6.5C363.2,789.9,363,791.2,359,790.1z M361.5,777.6
		c-4.1-1.1-10.5-4.3-14.2-7.1c-3.8-2.8-3.4-4.3,0.7-3.2s10.5,4.3,14.2,7.2C365.9,777.4,365.6,778.8,361.5,777.6z M364.6,764.2
		c-4.2-1.2-10.7-4.7-14.5-7.8s-3.4-4.7,0.8-3.5c4.2,1.2,10.6,4.8,14.4,8C369.2,764,368.8,765.5,364.6,764.2z M368.4,749.8
		c-4.3-1.4-10.9-5.2-14.7-8.7c-3.8-3.4-3.3-5.2,1-3.9c4.3,1.4,10.8,5.3,14.6,8.8C373.1,749.6,372.7,751.2,368.4,749.8z M357.9,724.8
		c-3.8-3.8-3.2-5.8,1.2-4.3c4.4,1.5,11.1,5.9,14.8,9.7c3.8,3.8,3.3,5.7-1.2,4.1C368.4,732.9,361.7,728.6,357.9,724.8z M391.3,798.8
		c-4-1.1-10.2-4.1-14-6.7c-3.7-2.6-3.5-3.8,0.5-2.7s10.2,4.2,13.9,6.8C395.5,798.8,395.3,799.9,391.3,798.8z M393.7,787
		c-4.1-1.2-10.4-4.5-14.2-7.4c-3.8-2.9-3.5-4.3,0.6-3c4.1,1.2,10.4,4.7,14.2,7.5C398,787,397.8,788.2,393.7,787z M396.6,774.2
		c-4.2-1.4-10.7-5-14.4-8.2c-3.8-3.2-3.4-4.7,0.8-3.3c4.2,1.3,10.6,5.1,14.4,8.3C401.2,774.2,400.8,775.6,396.6,774.2z M400.3,760.5
		c-4.3-1.5-10.9-5.6-14.7-9.1c-3.8-3.5-3.3-5.2,1-3.7s10.8,5.7,14.6,9.2C405,760.5,404.6,762.1,400.3,760.5z M404.6,745.8
		c-4.4-1.7-11.1-6.1-14.9-10s-3.2-5.8,1.2-4.1c4.4,1.7,11,6.2,14.8,10.1C409.5,745.8,409,747.5,404.6,745.8z M425.7,797.4
		c-4.1-1.4-10.4-4.8-14.2-7.8c-3.8-2.9-3.5-4.2,0.6-2.8s10.4,4.9,14.2,7.9C430,797.6,429.8,798.8,425.7,797.4z M428.5,785.4
		c-4.2-1.5-10.6-5.3-14.4-8.6c-3.8-3.2-3.4-4.7,0.8-3.2c4.2,1.5,10.6,5.4,14.4,8.7C433,785.6,432.7,787,428.5,785.4z M432,772.5
		c-4.3-1.7-10.8-5.9-14.6-9.5c-3.8-3.6-3.3-5.2,1-3.5s10.8,6,14.6,9.6C436.7,772.7,436.3,774.1,432,772.5z M436.2,758.5
		c-4.4-1.9-11.1-6.5-14.8-10.4s-3.2-5.7,1.2-3.9c4.4,1.8,11,6.6,14.8,10.6C441.1,758.7,440.6,760.4,436.2,758.5z M441.1,743.5
		c-4.5-2-11.3-7.1-15-11.5s-3.1-6.3,1.4-4.4c4.5,2,11.2,7.3,15,11.7C446.2,743.7,445.6,745.5,441.1,743.5z M460.3,797.8
		c-4.2-1.7-10.6-5.7-14.4-9s-3.4-4.6,0.7-3c4.2,1.7,10.6,5.8,14.3,9.1C464.8,798.2,464.5,799.5,460.3,797.8z M463.6,785.6
		c-4.2-1.9-10.8-6.3-14.6-9.9c-3.8-3.6-3.3-5.2,0.9-3.3c4.3,1.9,10.7,6.4,14.5,10.1C468.3,786.1,467.9,787.5,463.6,785.6z
		 M467.7,772.5c-4.4-2-11-6.9-14.8-10.9s-3.2-5.7,1.1-3.7c4.4,2,11,7,14.7,11.1C472.5,773,472,774.6,467.7,772.5z M472.5,758.3
		c-4.5-2.3-11.2-7.5-15-12c-3.8-4.4-3.1-6.4,1.4-4.2s11.2,7.7,14.9,12.2C477.5,758.9,477,760.6,472.5,758.3z M478.1,743
		c-4.6-2.4-11.5-8.3-15.2-13.2s-2.9-7,1.7-4.6s11.3,8.4,15.1,13.4C483.4,743.5,482.7,745.4,478.1,743z M499,788
		c-4.4-2.2-11-7.3-14.8-11.4c-3.8-4.1-3.3-5.7,1.1-3.5s10.9,7.5,14.7,11.6C503.9,788.8,503.4,790.2,499,788z M503.7,774.7
		c-4.5-2.5-11.2-8-14.9-12.6c-3.7-4.5-3.1-6.3,1.4-3.9c4.5,2.4,11.1,8.2,14.9,12.8C508.7,775.5,508.2,777.1,503.7,774.7z
		 M509.2,760.3c-4.6-2.7-11.4-8.8-15.1-13.8s-2.9-7,1.6-4.4c4.6,2.6,11.3,9,15,14C514.4,761.2,513.8,763,509.2,760.3z M515.5,744.7
		c-4.7-2.9-11.6-9.6-15.3-15.1c-3.7-5.5-2.8-7.7,2-4.9c4.7,2.8,11.5,9.8,15.2,15.4C521,745.6,520.3,747.6,515.5,744.7z M534.8,792.7
		c-4.5-2.7-11.2-8.5-14.9-13.1c-3.8-4.6-3.1-6.3,1.3-3.7c4.5,2.7,11.1,8.7,14.9,13.4C539.8,793.9,539.3,795.3,534.8,792.7z
		 M540.1,779.3c-4.6-2.9-11.4-9.4-15.1-14.4c-3.7-5.1-3-7,1.6-4.1s11.3,9.5,15,14.7C545.4,780.6,544.7,782.2,540.1,779.3z
		 M546.4,764.7c-4.7-3.2-11.5-10.2-15.2-15.8s-2.8-7.7,1.9-4.6c4.7,3.1,11.4,10.4,15.1,16.1C551.9,766.1,551.1,767.9,546.4,764.7z
		 M553.6,748.9c-4.8-3.5-11.7-11.2-15.3-17.3c-3.6-6.2-2.5-8.6,2.3-5.2c4.9,3.4,11.6,11.4,15.2,17.7
		C559.4,750.2,558.5,752.3,553.6,748.9z M577.1,786.7c-4.7-3.5-11.5-10.9-15.2-16.6c-3.7-5.8-2.8-7.7,1.9-4.3s11.4,11.1,15.1,16.9
		C582.6,788.5,581.8,790.2,577.1,786.7z M584.3,772c-4.8-3.8-11.7-11.9-15.3-18.2s-2.5-8.6,2.3-4.9c4.8,3.7,11.6,12.1,15.2,18.5
		C590,773.9,589.1,775.8,584.3,772z M592.5,756c-4.9-4.1-11.9-13-15.4-19.9c-3.5-7-2.3-9.5,2.7-5.5c5,4.1,11.7,13.2,15.3,20.3
		C598.5,757.9,597.4,760.1,592.5,756z M586.4,716.6c-3.4-7.7-1.9-10.5,3.2-6.2c5.1,4.4,11.9,14.4,15.3,22.3c3.4,7.8,2.1,10.3-3,5.8
		C596.7,734,589.8,724.3,586.4,716.6z M614.8,797.4c-4.8-4.2-11.6-12.7-15.2-19.1c-3.6-6.5-2.5-8.6,2.2-4.5
		c4.8,4.1,11.6,12.9,15.1,19.5C620.5,799.8,619.6,801.5,614.8,797.4z M622.9,782.7c-4.9-4.5-11.8-13.8-15.3-21
		c-3.5-7.1-2.2-9.5,2.7-5.1c5,4.4,11.7,14.1,15.2,21.3C628.9,785.2,627.9,787.2,622.9,782.7z M632.2,766.6c-5.1-4.9-12-15.1-15.4-23
		s-1.9-10.5,3.2-5.8c5.1,4.8,11.9,15.4,15.3,23.4C638.6,769.2,637.3,771.5,632.2,766.6z M642.9,748.9c-5.2-5.3-12.2-16.5-15.4-25.2
		s-1.5-11.7,3.7-6.5c5.3,5.2,12,16.8,15.3,25.6C649.6,751.6,648.1,754.2,642.9,748.9z M655,729.4c-5.4-5.8-12.3-18-15.4-27.5
		c-3.1-9.6-1-13,4.3-7.4c5.4,5.7,12.2,18.3,15.2,28.1C662.2,732.2,660.4,735.2,655,729.4z M673.1,781.3
		c-5.2-5.8-12.1-17.6-15.3-26.5s-1.5-11.7,3.7-6s12,17.9,15.2,27C679.8,784.8,678.3,787.2,673.1,781.3z M685.2,763.5
		c-5.4-6.3-12.3-19.2-15.3-29c-3-9.9-1-13,4.4-6.9c5.4,6.2,12.1,19.6,15.1,29.6C692.4,767.2,690.6,769.9,685.2,763.5z M699,743.9
		c-5.5-6.9-12.4-21-15.2-31.8c-2.8-10.9-0.4-14.5,5.1-7.9c5.6,6.7,12.3,21.4,15,32.5C706.7,747.7,704.6,750.8,699,743.9z
		 M729.1,783.3c-5.5-7.5-12.3-22.5-15.1-33.6c-2.8-11.2-0.4-14.6,5.2-7.2c5.6,7.4,12.1,22.9,14.9,34.4
		C736.8,788.2,734.7,791,729.1,783.3z M744.9,763.6c-5.7-8.2-12.5-24.6-14.9-36.9c-2.5-12.4,0.3-16.2,6.1-8.3
		c5.8,8,12.3,25.1,14.7,37.7S750.7,772,744.9,763.6z M762.9,741.7c-5.9-8.9-12.6-26.9-14.7-40.5c-2.2-13.7,1.1-18.1,7.1-9.5
		c6,8.7,12.5,27.4,14.5,41.4C771.8,747,768.9,750.7,762.9,741.7z M793.3,790.1c-5.9-9.8-12.5-28.9-14.5-43
		c-2.1-14.2,1.3-18.2,7.2-8.7c6,9.6,12.3,29.5,14.3,44C802.2,796.8,799.2,800.1,793.3,790.1z M814,768.2
		c-6.1-10.7-12.6-31.7-14.2-47.3c-1.7-15.7,2.3-20.4,8.5-10.1c6.3,10.5,12.4,32.4,14,48.5C823.8,775.3,820.2,779.1,814,768.2z
		 M837.7,743.6c-6.4-11.7-12.8-34.8-13.9-52.1c-1.2-17.4,3.5-22.9,10-11.7c6.6,11.4,12.6,35.5,13.6,53.5
		C848.4,751.1,844.2,755.5,837.7,743.6z M864.7,715.9c-6.8-12.7-12.9-38.2-13.5-57.4c-0.5-19.4,4.8-25.7,11.8-13.6
		c7,12.3,12.8,38.9,13.2,59C876.5,723.6,871.6,728.8,864.7,715.9z M849.2,565.6c-0.1-20.8,6.1-28.6,13.4-17
		c7.5,11.8,13.2,39.2,13.2,60.7c-0.1,21.3-5.7,27.9-13.1,15.4C855.6,612.4,849.4,586.2,849.2,565.6z M877.6,511.3
		c-0.6,22.7-7,30.9-14.8,18.9c-7.6-11.8-13.8-38.7-13.5-60.7c0.4-22.1,7.3-31.6,15.2-20.5C872.5,460.3,878.2,488.4,877.6,511.3z
		 M878.5,419c-1,23.4-7.9,32.7-16,21.5c-7.8-11-13.9-37.8-13.2-60.3c0.7-22.7,8.2-33.2,16.3-23C873.9,367.6,879.6,395.5,878.5,419z
		 M866.6,337.7c-8-9.6-13.6-35.4-12.5-57.8c1.2-22.6,9-34.2,17.1-25.3c8.3,9,13.6,35.7,12.2,59.2C882,337.1,874.6,347.6,866.6,337.7
		z M896.6,779.2c-6.7-14.2-12.7-41.4-13.1-61.5c-0.4-20.2,5.2-26,12.2-12.4c7,13.8,12.6,42.4,12.8,63.2
		C908.5,789.2,903.4,793.7,896.6,779.2z M909.1,670.3c-0.3,22.1-6.2,28.2-13.5,14.2c-7.1-13.8-13.2-41.9-13.1-63.3
		c0.1-21.7,6.5-29,13.9-15.9C904,618.5,909.5,647.9,909.1,670.3z M912.2,568.1c-0.9,23.7-7.5,31.4-15.4,17.9
		c-7.6-13.3-13.7-42.2-13.1-65.1c0.6-23.1,7.8-32.2,15.8-19.7C907.6,513.9,913.1,544.1,912.2,568.1z M914.3,471.9
		c-1.3,24.4-8.6,33.5-16.7,20.7c-7.9-12.5-13.8-41.2-12.8-64.7c1-23.7,8.8-34,17-22.5C910.2,417.3,915.6,447.3,914.3,471.9z
		 M903,385c-8-11-13.5-38.6-12.1-62.2c1.5-23.7,9.6-35.1,17.9-25c8.4,10.4,13.6,39,11.8,63.7C918.9,386,911.2,396.3,903,385z
		 M942.5,738.9c-0.6,23.1-6.7,28.5-14,12.6c-7.1-15.5-13-45.7-12.6-68c0.3-22.6,7-29.4,14.4-14.7
		C937.8,683.9,943.2,715.5,942.5,738.9z M947,632.2c-1.2,24.8-8.2,31.9-16.1,16.6c-7.7-15-13.5-46-12.6-69.9
		c0.9-24.1,8.5-32.8,16.4-18.7C943,574.6,948.3,607.2,947,632.2z M950.3,531.9c-1.7,25.6-9.3,34.1-17.4,19.7
		c-8-14.1-13.6-45-12.3-69.6c1.4-24.8,9.4-34.8,17.7-21.6C946.8,473.8,951.9,506.1,950.3,531.9z M939.9,438.9
		c-8.1-12.5-13.4-42.2-11.6-67c1.8-24.9,10.4-36.1,18.8-24.6c8.5,11.8,13.5,42.8,11.3,68.7C956.3,441.8,948.1,451.7,939.9,438.9z
		 M981.9,704.8c-1.6,26-8.8,32.3-16.7,15c-7.6-17-13.3-50.3-12-75.3c1.3-25.2,9.1-33.3,17.1-17.3
		C978.5,643.5,983.5,678.6,981.9,704.8z M986.6,600.2c-2.1,26.8-9.9,34.7-18.2,18.3c-8-16-13.4-49.3-11.7-75.1
		c1.7-26,10.2-35.5,18.6-20.5C983.8,538.2,988.7,573.1,986.6,600.2z M977.1,500.4c-8.2-14.3-13.3-46.4-11.1-72.3
		c2.3-26.1,11.2-37.1,19.7-23.8c8.7,13.6,13.4,47.1,10.8,74.3C994,505.5,985.5,514.9,977.1,500.4z M1023.3,677.8
		c-2.5,28.1-10.8,35.1-19.1,16.5c-8-18.1-13.3-54.1-11.1-81.2c2.1-27.3,11-36.1,19.5-19.1C1021.2,611.6,1025.7,649.5,1023.3,677.8z
		 M1014.8,570.5c-8.2-16.3-13.1-51-10.5-78.3c2.7-27.5,12.1-38,20.8-22.8c8.8,15.6,13.2,52,10.2,80.6
		C1032.2,578.4,1023.3,587.2,1014.8,570.5z M1060.2,766.4c-3,29.5-11.8,35.5-20.1,14.3c-8.1-20.6-13-59.7-10.4-88
		c2.6-28.6,12-36.7,20.5-17.2C1059,695.5,1063.2,736.6,1060.2,766.4z M1074.6,631.9c-3.6,29.9-13,37.9-21.6,18.7
		c-8.3-18.7-12.9-56.4-9.8-85c3.2-28.9,13.2-38.9,22-21.4C1074.2,562.1,1078.2,601.8,1074.6,631.9z M1068.7,515.1
		c-8.6-16.6-13-52.9-9.4-81.7c3.8-29.1,14.3-40.8,23.4-25.5c9.3,15.8,13.1,53.7,9.1,84.1C1087.6,522.1,1077.6,532.1,1068.7,515.1z
		 M1114.5,726.2c-4.2,31.5-14.3,38.4-22.9,16.4c-8.5-21.4-12.7-62.4-9-92.6c3.7-30.5,14.4-39.6,23.3-19.5
		C1115,651.1,1118.7,694.4,1114.5,726.2z M1134.7,578.4c-4.8,31.8-15.6,41-24.6,21.3c-8.8-19.2-12.9-58.8-8.7-89.3
		c4.2-30.8,15.6-41.9,24.9-24.1C1136,504.6,1139.5,546.2,1134.7,578.4z M1131.7,450.8c-9.2-16.9-13.2-54.8-8.4-85.5
		c4.7-30.9,16.7-44.1,26.5-28.6c10,15.9,13.5,55.6,8.2,88C1152.7,456.8,1141.2,468.1,1131.7,450.8z M1178.7,678.6
		c-5.5,33.7-17.1,41.7-26.4,18.9c-9-22.1-12.7-65.5-7.8-97.8c5-32.5,17-42.9,26.7-22.2C1181.1,598.8,1184.2,644.5,1178.7,678.6z
		 M1205.7,515.4c-6.1,34.1-18.5,44.6-28.3,24.5c-9.5-19.6-13.1-61.3-7.7-93.9c5.5-32.8,18.4-45.5,28.5-27.4
		C1208.6,437.2,1211.7,480.9,1205.7,515.4z M1205.9,375.7c-10-17.1-13.6-56.8-7.7-89.5c5.9-33,19.5-47.9,30.2-32.4
		c10.9,15.9,14.3,57.5,7.6,92.1C1229.4,380.2,1216.2,393.2,1205.9,375.7z M1255.2,621.8c-6.9,36.3-20.4,45.6-30.6,22
		c-9.8-23-13-68.8-6.8-103.5c6.3-35,20.2-46.9,30.8-25.6C1259.5,536.7,1262.2,585.1,1255.2,621.8z"/>
</g>
</svg>
