<?xml version="1.0" encoding="utf-8"?>
<!-- Generator: Adobe Illustrator 19.2.1, SVG Export Plug-In . SVG Version: 6.00 Build 0)  -->
<svg version="1.1" xmlns="http://www.w3.org/2000/svg" xmlns:xlink="http://www.w3.org/1999/xlink" x="0px" y="0px"
	 viewBox="0 0 256 256" style="enable-background:new 0 0 256 256;" xml:space="preserve">
<style type="text/css">
	.st0{fill:#F89838;}
	.st1{fill:#6167AF;}
</style>
<g id="Layer_2">
	<rect class="st0" width="256" height="256"/>
</g>
<g id="Layer_1">
	<path class="st1" d="M88.7,150.3c-10-18.5,16.8-88,16.8-88c3.1-2.3,8.6-1.7,8.6-1.7c1.1,5.4,8.2,6,8.2,6
		c-21.9,18.9-5.6,21.3-5.6,21.3c-22.1,21-4,22.5-4,22.5c-2.4,1.4-4.2,2.2-6.6,4.8c-1.2,1.3-5.4,9.5,1.7,12.7c6.7,3,9.4-4.1,9.4-4.1
		s-0.2,4.4,4.4,6.1c3,1.1,7,0.2,9.7-4.3c4.8-8,0.6-17.6-3.7-16.5c-1.8,0.5-4.4,1.1-2.7,5.5c1.7,4.3-3,2.7-3,2.7
		c-5.7-2.1-3.6-9.4-3.6-9.4c27.2-74.4,72-93.8,77.8-95.4c12.5-3.4,13.7,1.5,13.7,1.5c0.6,1.1,1.3,3.5-1.4,7.8
		c-2.9,4.7-9.6,5.3-9.6,5.3c1.5-0.6,2.9-2.8,2.4-4.9c-0.7-2.9-3.5-3.6-5.9-1.3c-3.8,3.7-5.7,7.5-6.5,10.8
		c-1.5,6.1,0.5,10.7,0.5,10.7c-26.2,11.1-50.8,45.3-51.3,47c-0.5,1.7,1.1,0.8,1.1,0.8c25.5-34,49.2-44.8,52.6-46.2
		c11.8-4.8,13.9-1.3,13.9-1.3c4.1,3.6-7.6,12.4-7.6,12.4c2.3-9.6-2.5-6.3-2.5-6.3c-14.3,11.5-13.9,28.1-13.9,28.1
		c-27.9,9.1-32.4,16.5-33.3,18c-0.8,1.3,0.6,1,0.6,1c9.6-11.2,34.7-16.8,34.7-16.8c19.3-2.9,18.4,3.3,18.4,3.3
		c0.3,8.7-9.6,9.6-9.6,9.6s3.6-3.9,1.1-6c-2.1-1.8-10.2,4.7-13.7,9.1c-5.8,7.2-6.7,13.3-6.7,13.3c-8.4-2.5-18.4-0.8-20.2-0.2
		c-1.8,0.6-1.1,1.3-0.6,1.3c0.4,0,8.4-0.6,16.6,1.1c8.2,1.7,8.2,9.1,8.2,9.1c-16,0.2-19.6,11.5-19.6,11.5c-4.5-0.5-8.2-5.6-8.2-5.6
		c0.7,4,4.7,9.1,4.7,9.1c-20.5-0.8-25,13.9-25,13.9c-6-1.5-11.5,1.1-11.5,1.1c-22.2,9.4-1.5,23.6,1.8,26.4c3.3,2.7,0,3.2,0,3.2
		C95,179.2,78,200.8,76.7,201.4c-1.3,0.6-1.3,2-1.3,2s-0.4,1.6,3.6,3.4c4,1.8,4.4,3.6,4.4,3.6c3,6.4-3.9,12.2-8.5,11.3
		c-4.6-0.9-4.9-4.9-5.3-7.2c-0.4-2.4-3.2-1.5-4.2-1.1c-1.1,0.4-8.2,6-9.8,10.6c-1.6,4.5-4.3,6.5-4.3,6.5c-4.1,4.9-14.2,1.8-14.4-4.1
		c-0.2-5.8,3.7-6.8,7-7.3c3.2-0.6,5.8-1.5,6.7-3.2c0.6-1.2-0.9-1.6-0.9-1.6c-0.1,0-4.4-0.6-7.6,2.4c-2.9,2.7-5.8,3.1-5.8,3.1
		c-7.1,1.3-9.9-10.3-5.6-13.9c4.3-3.5,9.1-1,11.7,0.3c2.7,1.3,7.5,1.8,9.2,1.1c1.9-0.8,0.6-2.5,0.6-2.5s-0.9-1.7-6.7-0.9
		c-4.8,0.7-5.8-1.5-7.4-2.5c-1.6-1-3-9.2,2.7-11.4c8.6-3.3,11,3.7,11,3.7c2.3,3.2,6.3,3.7,6.3,3.7c9.9,1.4,23.7-18.6,23.7-18.6
		S96.3,164.3,88.7,150.3z M213.1,205.6c-0.1-2.1-3.7-34,17.7-41.2c0,0,3.4-2.4-0.3-3c0,0-36.8-4.9-41.3-17.3
		c0,0,39.8,19.8,48.6-16.1c0,0,2.7-21-15.7-25c0,0-4.8-1.5-10.1-1.3c-5.3,0.3-24.3-0.7-29.1-6.9c0,0-4.6,5.1-5.5,8.2
		c0,0,5.9,11.4,22.1,10.8c16.2-0.6,21.2,4.4,21.7,8.2c0.4,3.8,1,11.2-7.6,10.3c-1-0.1-2.5-0.8-2.6-1.6c-0.4-3.2-4.1-3.2-4.1-3.2
		c2.4,6.3-7.8,3.7-7.8,3.7c2.3-5.3-2.5-6.3-2.5-6.3c-1.7,8-11.5,3.1-11.5,3.1c4.6-3.1,0.3-5.2,0.3-5.2c-4.9,6-17.6,1.5-17.6,1.5
		c-6,1.8-10.4,12.4-10.4,12.4c-21.7-0.1-24.1,9.6-24.6,11.8c-0.6,2.3-2.4,2.3-2.4,2.3c-12.8-2.3-18.4,6-18.4,6s-4.1,13.6,14.1,0.3
		c0,0,11.7,5.2,15.2-4.5c0,0,13.1,3.1,14.5-6.3c0,0,2.8,2.3,3.2,6.3c0,0,1.7,14.8,18.6,12.4c16.9-2.4,24.5,2,24.5,2s1.6,0.8,1.8,3.6
		c0.2,2.8,1.8,37.5-8.8,36.4c0,0-4,0.2-6.7-2.7c0,0-4.3-7.6-12.3-3.1c-5.3,3-2.3,9.9-0.5,10.7c1.7,0.7,4.7,2.7,9.4,1.4
		c5.6-1.6,6.7-0.1,6.7-0.1s1.5,1.6-0.3,2.6c-1.6,0.9-6.5,1.1-9.3,0.2c-2.8-0.9-7.9-2.7-11.7,1.4c-3.7,4.1,0.4,13.6,7.3,11.2
		c0,0,5.1-1.6,7.6-4.7c2.7-3.5,7.9-3.2,8-3.2c0.1,0,1.6,0.2,1.2,1.4c-0.6,1.9-3.6,2.6-6.7,3.6c-3.1,1-6.9,2.5-5.8,8.2
		c1,5.7,8.7,5.4,11.8,2.8c0,0,3.5-2.1,5.3-6.7c1.7-4.5,6-9.6,7-10.2c1-0.5,3.6-1.8,4.3,0.5c0.7,2.3,1.6,6.2,6.3,6.4
		c4.7,0.2,10.7-6.5,6.8-12.4c0,0-0.8-1.5-4.9-2.9C213.2,209.6,213.1,205.6,213.1,205.6z M35.7,189c-13.4-0.7-13.3,7.7-13.3,7.7
		c3.4-1.9,8.7-0.1,8.7-0.1s3.2,1.3,3.7-1.5c0.5-2.7,2.5-4.2,2.5-4.2C38.1,189.2,35.7,189,35.7,189z M24.2,210.1
		c-10.5,8.2-4,14.8-4,14.8c1.4-3.7,5.6-6.1,5.6-6.1s3.2-1.1,1.8-3.5c-1.4-2.4-0.9-4.8-0.9-4.8C26.2,208.7,24.2,210.1,24.2,210.1z
		 M33.6,229.7C28.2,242,37,243.5,37,243.5c-0.6-3.9,2.1-6.9,2.1-6.9s2.3-2.5-0.1-3.9c-2.4-1.4-3.1-3.8-3.1-3.8
		C34.6,227.5,33.6,229.7,33.6,229.7z M84.1,219.3c0,0-0.9,2.3-3.5,3.4c-2.5,1.2-0.5,3.9-0.5,3.9s2.4,3.2,1.4,7.1
		c0,0,8.9-0.6,4.9-13.4C86.3,220.3,85.6,218.1,84.1,219.3z M169.9,168.7c-13.9-3.4-13.6-17.3-13.6-17.3c-5.6,6-12.5,3.4-12.5,3.4
		c-1.5,4.2-4.6,4.8-4.6,4.8c-10.1,23.5,19.8,22.6,22.4,21.9c2.5-0.7,2,1,2,1c-18,13.6-28.9,13.4-28.9,13.4s-4.2-0.1-6-3.6
		c0,0-1.7-7.9-10.4-5.2c-3.3,1-4.5,8.3-3,10.1c0.2,0.2,1.6,3.4,6.4,2.7c3.6-0.5,4.1,0.1,4.1,0.1s1.4,1.6-0.6,2.1
		c-1.8,0.5-4.5,1.2-7-0.4c-5.5-3.6-10.1-6.7-14.1-0.9c-1.7,2.5,0.6,11.4,4.3,11.2c0,0,3.7,1.3,6.9-1c3.6-2.6,6.6-1.1,6.7-1.1
		c0.1,0,1.5,0.6,0.7,1.7c-1.1,1.6-5.5,2.5-8.7,2.6c-3.3,0.1-9.4,0.9-10,6.7c-0.6,5.8,8.6,10,13.3,5.7c0,0,4-3.4,6.2-7.7
		c2.2-4.2,8-6.6,11-7.2c1.1-0.2,4-0.7,4,1.7s1.3,7.8,5.4,9.9c4.2,2.1,12-4.3,10.9-9.2c0,0,0.5-2.5-3.3-4.9c-3.7-2.3-3.1-3.8-3.1-3.8
		s0.2-1.3,1.5-1.8c1.3-0.5,26-19.7,42.8-16.8c0,0,3.8-2,0.9-5.2C193.3,181.8,183.8,172.1,169.9,168.7z M112.8,185.7
		c-13.4-0.6-13.2,7.8-13.2,7.8c3.4-1.9,8.7-0.1,8.7-0.1s3.2,1.2,3.6-1.5c0.5-2.7,2.4-4.2,2.4-4.2
		C115.2,185.8,112.8,185.7,112.8,185.7z M98.6,201.5c-11.5,6.8-6,14.2-6,14.2c1.8-3.5,6.4-5.3,6.4-5.3s3.3-0.7,2.2-3.2
		c-1.1-2.6-0.3-4.9-0.3-4.9C100.7,200.4,98.6,201.5,98.6,201.5z M99.3,224c-6.9,11.5,1.6,14.2,1.6,14.2c-0.1-3.9,3-6.5,3-6.5
		s2.6-2.2,0.4-3.9c-2.2-1.7-2.6-4.2-2.6-4.2C100.6,222,99.3,224,99.3,224z M151.6,223.4c0,0-1.5,1.9-4.3,2.4
		c-2.8,0.4-1.6,3.6-1.6,3.6s1.4,3.8-0.5,7.2c0,0,8.7,1.8,8.3-11.6C153.6,225,153.4,222.6,151.6,223.4z M122.3,90.8
		c0.4,0.1,0.5-0.3,0.7-0.5c0,0,14.9-35.5,33.6-52.9c0,0,0.6-2.6-0.4-5.9c-0.4-1.2-0.8-4.5-0.1-6.6c0.3-0.9,0.3-1.1,0.9-2.2
		c0.8-1.7,2.4-2.7,3.5-2.7c2.1,0,3.7,2.2,1.6,4.3c0,0,9.9-8.8,5.8-12.2c-4.3-3.6-12.2,3.2-12.2,3.2s-20.8,16.7-33.3,73
		C122.3,88.4,121.7,90.6,122.3,90.8z M96.4,58.5c0,0-7,3.1-13-7.2c-6-10.3-17-11.5-17-11.5c-1-1.1,0.9-4.2-3.6-6
		c0,0-3.5,0.6-3.2,5.8c0,0,0.8,1.3-0.1,1.5c-1.2,0.4-6.5,4.4-2.3,18c0,0,1.5,3.2,3.7-0.7c2-3.6,6-3.9,11.4-0.4
		c5.3,3.5,8.7,7.5,20,11.5c0,0,1.4,0.6,0.6,2c-0.8,1.4-1.5,2.4-1.3,4.6c0.1,2.2-2.2-0.3-3.9-0.7c-1.8-0.4-9-1.8-15.6-2
		c-2.7-0.1-1.6,2.8-10.6,1c0,0-0.8-2.1-2.7,0.6c-1.8,2.7-3.7,6.7-1.3,15.1c0,0,0.8-4.5,7.6-4.2c6.8,0.3,15.5,0.2,27.7-1.8
		c0,0,3,0.3,3.2-1.3c0-0.3,6.6-23.2,9.4-22.8c0,0,2.3-1.5,8.4-1.5c0,0,0.8-2,3.1-2s6.5-2,8.2-5.9c0,0-2.5,0.6-4.1-1
		c0,0,9.1-7.5,9.8-13.1c0,0-5.2,4.2-12.9,4.5c-7.7,0.3-8.6,2.3-9.7,2.8c-1.1,0.6-5.1,2.5-8.2-0.6c-3.1-3.1-9.6-4.5-11.4-2.8
		c-1.8,1.7-2.8,1.4-3.5,1.4c-0.7,0-4.9,1.8-0.6,8.2c4.7,6.9,7.3,2.5,7.8,2.1c2.1-1.7,6.4-1.4,6.5,3C99,57.6,96.4,58.5,96.4,58.5z
		 M85.3,68.7c-10.7-5.2-12.4-3.7-26.6-4.8C44.5,62.8,44,57.3,44,57.3c1.2-3,6-2.4,6-2.4C39.3,47.3,29.5,37,29.5,37
		c0.8,3,0.7,27.9,0.7,27.9c2-6,6.2-4.5,6.2-4.5c3.1,9.3,19.7,12.2,27.7,10.4c8-1.8,18,0.7,20.4,2.1c2.4,1.4,2.3-0.8,2.3-0.8l0.1-1.9
		C86.8,69.2,85.3,68.7,85.3,68.7z M186.6,64.7c0,0-3.1,4.8-2.3,9.8c0,0,31,2.5,43.3-15.8c0,0-8.7,10.4-3.1,21.1
		c0,0,4.1-9.9,10.1-17.4c7-8.7,13.2-29.3,2.8-37.4c0,0,3.1,20-27.3,26.2c0,0,3.1,4.2,11.5,3.7C221.8,54.9,213.9,67.8,186.6,64.7z
		 M84.6,95.3c-10.6,5.4-4.8,14.2-4.8,14.2c-10.3,1.3-5.1,12-5.1,12c-7.9,5.6-0.8,12.2-0.8,12.2c-7.5,11.5,3,15.1,3,15.1
		c-4.2,10.9,3.3,9.2,3.3,9.2c0.1,6.1,7.3,4.2,8.3,1.3c0.7-1.9-1.2-6.5-2.6-8.8c-1.3-2.2-1.4-4.7-1.4-4.7c-4-19.1,10-59.2,10-59.2
		C81.4,84.1,84.6,95.3,84.6,95.3z M59.2,129.4c1.4-6.3,7-9.7,8.9-13.8c1.8-4.1,1.8-8.9-5.3-10c-7.2-1.1-7,6.5-6.9,8.3
		c0.1,1.8-0.4,6.5-0.4,6.5c-0.1-0.1-5.2,4.4-2.5-7.7s-5.9-8.9-9.4-8.9c-3.5,0-7,5.6-2.5,10.3c4.5,4.6,5.8,9.7,5.6,9.6
		c-0.1-0.1,0.8,2.4-2.3,1c-3.1-1.4-3.7-4.2-3.7-4.2c-5.3-12.9-8.2-8.4-11-8.4c-2.8,0-9.6,8.7-2.8,11.3c6.8,2.5,10.7,6.8,14.1,11.3
		c3.4,4.5,0,10.4-2.8,12.9c-2.8,2.5-9,10.1,1.7,13.2c10.7,3.1,7.9-5.1,8.4-9.6c0.6-4.5,3.9-1.1,3.9-1.1c9.8,8.4,13.5,17.2,15.5,25
		c2,7.9,7.6,8.2,7.6,8.2c8.2-6.8,11.7-16.7,11.7-16.7C54.9,146.6,57.8,135.8,59.2,129.4z M47,98.9c-7.7-10.9-14.3-5.7-14.3-5.7
		c3.6,1.5,5.4,6.8,5.4,6.8s1,3.3,3.4,2c2.5-1.3,4.8-0.7,4.8-0.7C48.3,100.9,47,98.9,47,98.9z M28.3,107.8c-11.7-6.6-15.3,1-15.3,1
		c3.9-0.2,7.8,3.8,7.8,3.8s2.3,2.5,3.9,0.3c1.7-2.2,4.1-2.7,4.1-2.7C30.3,109,28.3,107.8,28.3,107.8z M67.1,101.9
		c-4.1-12.7-12-9.6-12-9.6c3,2.5,3.2,8.1,3.2,8.1s0,3.4,2.7,2.9c2.7-0.5,4.8,0.8,4.8,0.8C67.8,104.2,67.1,101.9,67.1,101.9z
		 M38.1,163c0,0-2.4-0.4-4.1-2.7c-1.7-2.2-3.9,0.3-3.9,0.3s-3.9,4-7.8,3.8c0,0,3.7,7.6,15.3,1C37.5,165.5,39.6,164.2,38.1,163z
		 M169,202c-11.5,6.8-6,14.2-6,14.2c1.8-3.5,6.4-5.3,6.4-5.3s3.3-0.7,2.2-3.2c-1.1-2.6-0.3-4.9-0.3-4.9C171.2,200.8,169,202,169,202
		z M163.6,223c-6.9,11.5,1.6,14.2,1.6,14.2c-0.1-3.9,3-6.5,3-6.5s2.6-2.2,0.4-3.9c-2.2-1.7-2.6-4.2-2.6-4.2
		C164.9,221,163.6,223,163.6,223z M176.9,233.7c-6.1,7.2,1.6,11.2,1.6,11.2c-0.1-3.9,3-3.6,3-3.6s2.6-2.2,0.4-3.9
		c-2.2-1.7-2.6-4.2-2.6-4.2C178.2,231.7,176.9,233.7,176.9,233.7z M225.7,220.1c0,0-0.2,2.5-2.3,4.3c-2.1,1.9,0.6,3.9,0.6,3.9
		s3.1,0.7,3.3,4.6c0,0,7.9-2.5,0.9-12.5C228.2,220.4,226.8,218.4,225.7,220.1z"/>
</g>
</svg>
