<?xml version="1.0" encoding="utf-8"?>
<!-- Generator: Adobe Illustrator 19.2.1, SVG Export Plug-In . SVG Version: 6.00 Build 0)  -->
<svg version="1.1" id="flex" xmlns="http://www.w3.org/2000/svg" xmlns:xlink="http://www.w3.org/1999/xlink" x="0px" y="0px"
	 viewBox="0 0 1200 260" style="enable-background:new 0 0 1200 260;" xml:space="preserve">
<style type="text/css">
	.st0{fill:#FAAF41;}
	.st1{fill:#2B58A5;}
</style>
<g id="logo">
	<path class="st0" d="M590.1,204.4c-22.8,0-35.1-1.1-44.8-2.9v-19.4c10,1.7,20.3,3.1,44,3.1c21.1,0,30.8-3.7,30.8-15.7
		c0-13.4-6-15.4-31.4-15.4c-29.4,0-47.1-8.3-47.1-35.7c0-26.3,21.7-33.7,53.4-33.7c19.1,0,30.3,1.1,38.5,2.6v19.1
		c-10.3-1.4-19.4-2.9-37.1-2.9c-26,0-33.1,3.4-33.1,15.1c0,12.3,6.6,15.1,32.6,15.1c31.1,0,46.2,9.1,46.2,36
		C642,197,626.3,204.4,590.1,204.4z"/>
	<path class="st0" d="M689.7,254.1h-22.8V85.6h22.8v14.3c8-12.3,22-16.6,39.1-16.6c36.5,0,53.1,20,53.1,60.2
		c0,42.8-16.6,62.2-53.1,62.2c-17.1,0-31.4-4-39.1-15.1V254.1z M689.7,154.7c0,22,8.9,32.5,34.3,32.5c27.1,0,34.5-12,34.5-43.4
		c0-30-7.4-42-34.5-42c-25.4,0-34.3,10.6-34.3,34.3V154.7z"/>
	<path class="st0" d="M844.8,205.8c-28,0-45.1-9.7-45.1-35.7c0-27.4,18-34,47.7-35.4c19.1-0.9,30.5-2.3,38.8-3.7
		c-0.9-20-6.3-27.1-30-27.1c-21.4,0-30.8,1.4-43.7,3.4V88.5c12.6-2.3,23.1-4.3,45.7-4.3c40.3,0,50.8,18.8,50.8,51.4v68h-22.8v-14
		C878.7,199.5,866.5,205.8,844.8,205.8z M848.8,151.3c-18.3,0.9-25.7,3.7-25.7,17.7c0,13.1,6.6,18.3,26.8,18.3
		c25.1,0,36.3-10.8,36.3-26.3v-13.7C877.6,149.3,866.5,150.4,848.8,151.3z"/>
	<path class="st0" d="M994.9,103.9c-22.6,0-37.4,8.3-37.4,41.7c0,32.8,16.3,40,38,40c18.6,0,27.7-1.4,36.5-2.6v18.8
		c-5.4,0.9-17.1,2.9-36.8,2.9c-35.7,0-61.1-17.1-61.1-59.7s25.7-60.5,59.7-60.5c17.4,0,31.1,1.7,38.3,3.4v18.8
		C1023.5,105.3,1014.9,103.9,994.9,103.9z"/>
	<path class="st0" d="M1116.6,185.2c15.4,0,28.5-1.1,37.7-2.3v19.4c-8.6,1.1-19.4,2.6-39.4,2.6c-40.8,0-63.1-16.6-63.1-60
		c0-42.5,24-61.7,57.1-61.7c38.5,0,56.8,20.3,56.8,60.2v10.3h-23.1h-67.1C1077.4,179.3,1089.4,185.2,1116.6,185.2z M1109.7,102.7
		c-19.4,0-31.7,6.6-34,32.3h66.5C1141.1,111.3,1131.7,102.7,1109.7,102.7z"/>
	<path class="st1" d="M35.8,114.9V84.7h18.6v-0.3c0-39.6,14.7-54.9,49.3-54.9h32.1v31.3h-16.6c-12.2,0-16.1,4.4-16.1,22.7v1.1h29.4
		v30.2h-29.4V205H54.3v-90.1H35.8z"/>
	<path class="st1" d="M152.4,29.6h49.6V205h-49.6V29.6z"/>
	<path class="st1" d="M297.4,174.5h53.5V205h-62.6c-38.5,0-65.4-16.9-65.4-60.7s26.6-62.4,70.7-62.4c46.3,0,67.1,20.8,67.1,59.3
		v13.6h-45.2h-41.9C275.8,170.9,283.5,174.5,297.4,174.5z M294.6,109.4c-12.5,0-19.7,4.7-21.6,23.8h42.1
		C314,115.2,308.2,109.4,294.6,109.4z"/>
	<path class="st1" d="M412.1,142.9l-43.8-58.2h55.4l15,21.1c2.5,3.9,5.8,9.1,5.8,9.1s3-5.3,5.5-9.1l14.7-21.1h46.8L469.2,141
		l46.3,64h-55.2l-18-24.9c-3-4.4-5.8-9.1-5.8-9.1s-2.5,4.7-5.5,9.1L413.3,205h-47.1L412.1,142.9z"/>
</g>
</svg>
