<?xml version="1.0" encoding="utf-8"?>
<!-- Generator: Adobe Illustrator 19.2.1, SVG Export Plug-In . SVG Version: 6.00 Build 0)  -->
<svg version="1.1" id="Layer_1" xmlns="http://www.w3.org/2000/svg" xmlns:xlink="http://www.w3.org/1999/xlink" x="0px" y="0px"
	 viewBox="0 0 1280 240" style="enable-background:new 0 0 1280 240;" xml:space="preserve">
<g>
	<path d="M55.2,93.8V65.2h17.6v-1.1c0-38.1,13.1-52.7,50.6-52.7c12.1,0,22.3,1.1,26.5,1.6v28.3c-3.4-0.5-8.1-1.3-14.7-1.3
		c-12.6,0-16.3,5.2-16.3,23.4v1.8h27.8v28.6h-27.8v85.3H72.7V93.8H55.2z"/>
	<path d="M204.7,12.9h47v166.1h-47V12.9z"/>
	<path d="M375.8,151.8c18.6,0,32.3-1.3,43-2.4v27.8c-7.9,1.3-22,3.1-47,3.1c-52.7,0-74.3-18.1-74.3-58.8c0-41.5,24.9-59,66.7-59
		c44.1,0,63.8,19.4,63.8,56.2v14.7h-42h-40.9C347.4,148.1,355.3,151.8,375.8,151.8z M365.3,88c-12.6,0-19.9,3.9-21.5,22.6h42
		C384.4,93,378.4,88,365.3,88z"/>
	<path d="M502.5,120.3l-41.5-55.1h52.5l14.2,20.7c2.6,3.9,5.5,10,5.5,10s3.1-6,5.2-10l13.9-20.7h44.4l-40.2,53.3l43.8,60.6h-52.2
		l-17.1-24.4c-2.9-4.7-5.5-10-5.5-10s-2.1,5.2-5.2,10l-16.8,24.4H459L502.5,120.3z"/>
	<path d="M671.8,180.9c-21.9,0-33.7-1.1-43.1-2.7v-18.7c9.6,1.6,19.5,3,42.2,3c20.3,0,29.6-3.6,29.6-15.1c0-12.9-5.8-14.8-30.2-14.8
		c-28.3,0-45.3-8-45.3-34.3c0-25.2,20.8-32.4,51.3-32.4c18.4,0,29.1,1.1,37,2.5v18.4c-9.9-1.4-18.7-2.7-35.7-2.7
		c-25,0-31.8,3.3-31.8,14.5c0,11.8,6.3,14.5,31.3,14.5c29.9,0,44.4,8.8,44.4,34.6C721.7,173.8,706.6,180.9,671.8,180.9z"/>
	<path d="M767.5,228.6h-21.9V66.8h21.9v13.7c7.7-11.8,21.1-15.9,37.6-15.9c35.1,0,51,19.2,51,57.9c0,41.1-15.9,59.8-51,59.8
		c-16.5,0-30.2-3.8-37.6-14.5V228.6z M767.5,133.2c0,21.1,8.5,31.3,32.9,31.3c26.1,0,33.2-11.5,33.2-41.7c0-28.8-7.1-40.3-33.2-40.3
		c-24.4,0-32.9,10.2-32.9,32.9V133.2z"/>
	<path d="M916.5,182.3c-26.9,0-43.3-9.3-43.3-34.3c0-26.3,17.3-32.6,45.8-34c18.4-0.8,29.4-2.2,37.3-3.6c-0.8-19.2-6-26.1-28.8-26.1
		c-20.6,0-29.6,1.4-42,3.3V69.5c12.1-2.2,22.2-4.1,43.9-4.1c38.7,0,48.8,18.1,48.8,49.4v65.3h-21.9v-13.4
		C949.1,176.2,937.3,182.3,916.5,182.3z M920.3,129.9c-17.6,0.8-24.7,3.6-24.7,17c0,12.6,6.3,17.6,25.8,17.6
		c24.1,0,34.8-10.4,34.8-25.2V126C948,128,937.3,129.1,920.3,129.9z"/>
	<path d="M1060.8,84.3c-21.7,0-35.9,8-35.9,40.1c0,31.5,15.6,38.4,36.5,38.4c17.8,0,26.6-1.4,35.1-2.5v18.1
		c-5.2,0.8-16.5,2.7-35.4,2.7c-34.3,0-58.7-16.5-58.7-57.3s24.7-58.2,57.3-58.2c16.7,0,29.9,1.6,36.8,3.3v18.1
		C1088.2,85.7,1080,84.3,1060.8,84.3z"/>
	<path d="M1177.6,162.5c14.8,0,27.4-1.1,36.2-2.2V179c-8.2,1.1-18.7,2.5-37.9,2.5c-39.2,0-60.6-15.9-60.6-57.6
		c0-40.9,23-59.3,54.9-59.3c37,0,54.6,19.5,54.6,57.9v9.9h-22.2h-64.5C1140.1,156.8,1151.6,162.5,1177.6,162.5z M1171.1,83.2
		c-18.7,0-30.5,6.3-32.6,31h63.9C1201.2,91.5,1192.2,83.2,1171.1,83.2z"/>
</g>
</svg>
