<?xml version="1.0" encoding="utf-8"?>
<!-- Generator: Adobe Illustrator 19.2.1, SVG Export Plug-In . SVG Version: 6.00 Build 0)  -->
<svg version="1.1" id="gear-bknd" xmlns="http://www.w3.org/2000/svg" xmlns:xlink="http://www.w3.org/1999/xlink" x="0px" y="0px"
	 viewBox="0 0 1920 1440" style="enable-background:new 0 0 1920 1440;" xml:space="preserve">
<style type="text/css">
	.st0{fill:#2957A6;}
	.st1{opacity:0.1;fill:none;stroke:#FFFFFF;stroke-miterlimit:10;enable-background:new    ;}
</style>
<rect id="bkgnd" class="st0" width="1920" height="1440"/>
<path id="gear" class="st1" d="M719.7,949.1c3.6,8,0,17.5-8.3,21.1l-531.1,235.4c-8,3.6-17.5,0-21.1-8.3L10.8,862.4
	c-3.6-8,0-17.5,8.3-21.1l531.1-235.4c8-3.6,17.5,0,21.1,8.3L719.7,949.1z M713.2,934.2c3.6,8,0,17.5-8.3,21.1l-531.1,235.4
	c-8,3.6-17.5,0-21.1-8.3L17.2,877.3c-3.6-8,0-17.5,8.3-21.1l531.2-235.4c8-3.6,17.5,0,21.1,8.3L713.2,934.2z M556.7,604.3
	c-2,0-4.4,0.3-6.6,1.4l-531,235.6c-8,3.6-11.9,13.1-8.3,21.1l148.5,334.8c2.7,5.9,8.6,9.5,14.5,9.5c2,0,4.4-0.3,6.6-1.4l531.1-235.4
	c8-3.6,11.9-13.1,8.3-21.1L571.3,613.9C568.6,607.9,562.7,604.3,556.7,604.3L556.7,604.3z M95.7,849.4l448.9-199l129.2,291.5
	l-448.9,199L95.7,849.4z M122.4,988c14.3,0,25.8,11.6,25.8,25.8s-11.6,25.8-25.8,25.8s-25.8-11.6-25.8-25.8S108.1,988,122.4,988z
	 M127.7,1025.6c6.6-3,9.5-10.3,6.6-16.9c-3-6.6-10.3-9.5-16.9-6.6s-9.5,10.3-6.6,16.9C113.4,1025.4,121.2,1028.4,127.7,1025.6z
	 M84,946.7l14.2-6.2c1.2-0.6,1.7-2,1.2-3.3l-3.3-7.7c-0.6-1.2-2-1.7-3.3-1.2l-14.2,6.2c-1.2,0.6-1.7,2-1.2,3.3l3.3,7.7
	C81.7,946.7,82.9,947,84,946.7z M91.5,962.7l14.2-6.2c1.2-0.6,1.7-2,1.2-3.3l-3.3-7.7c-0.6-1.2-2-1.7-3.3-1.2l-14.2,6.2
	c-1.2,0.6-1.7,2-1.2,3.3l3.3,7.7C88.9,962.7,90,963.3,91.5,962.7z M77,930.3l14.2-6.2c1.2-0.6,1.7-2,1.2-3.3l-3.3-7.7
	c-0.6-1.2-2-1.7-3.3-1.2l-14.2,6.2c-1.2,0.6-1.7,2-1.2,3.3l3.3,7.7C74.3,930.3,75.7,931,77,930.3z M153.6,1064.2l-14.2,6.2
	c-1.2,0.6-1.7,2-1.2,3.3l3.3,7.7c0.6,1.2,2,1.7,3.3,1.2l14.2-6.2c1.2-0.6,1.7-2,1.2-3.3l-3.3-7.7
	C156.3,1064.2,154.7,1063.6,153.6,1064.2z M98.6,978.8l14.2-6.2c1.2-0.6,1.7-2,1.2-3.3l-3.3-7.7c-0.6-1.2-2-1.7-3.3-1.2l-14.2,6.2
	c-1.2,0.6-1.7,2-1.2,3.3l3.3,7.7C95.9,978.8,97.5,979.3,98.6,978.8z M160.7,1080.3l-14.2,6.2c-1.2,0.6-1.7,2-1.2,3.3l3.3,7.7
	c0.6,1.2,2,1.7,3.3,1.2l14.2-6.2c1.2-0.6,1.7-2,1.2-3.3l-3.3-7.7C163.3,1080.3,161.9,1079.7,160.7,1080.3z M167.8,1096.6l-14.2,6.2
	c-1.2,0.6-1.7,2-1.2,3.3l3.3,7.7c0.6,1.2,2,1.7,3.3,1.2l14.2-6.2c1.2-0.6,1.7-2,1.2-3.3l-3.3-7.7
	C170.5,1096.6,169,1096,167.8,1096.6z M146.4,1048.3l-14.2,6.2c-1.2,0.6-1.7,2-1.2,3.3l3.3,7.7c0.6,1.2,2,1.7,3.3,1.2l14.2-6.2
	c1.2-0.6,1.7-2,1.2-3.3l-3.3-7.7C149.1,1048.3,147.7,1047.7,146.4,1048.3z M122.4,1002.3c4.4,0,8.6,2.7,10.3,6.9
	c1.2,2.7,1.2,5.9,0.3,8.9c-1.2,3-3.3,5-5.9,6.2c-1.4,0.6-3,0.9-4.7,0.9c-4.4,0-8.6-2.7-10.3-6.9c-1.2-2.7-1.2-5.9-0.3-8.9
	c1.2-3,3.3-5,5.9-6.2C119.1,1002.5,120.9,1002.3,122.4,1002.3 M94.2,928c-0.3,0-0.6,0-0.9,0.3L79,934.5c-1.2,0.6-1.7,2-1.2,3.3
	l3.3,7.7c0.3,0.9,1.2,1.4,2,1.4c0.3,0,0.6,0,0.9-0.3l14.2-6.2c1.2-0.6,1.7-2,1.2-3.3l-3.3-7.7C95.9,928.6,95.1,928,94.2,928
	L94.2,928z M108.4,960.4c-0.3,0-0.6,0-0.9,0.3l-14.2,6.2c-1.2,0.6-1.7,2-1.2,3.3l3.3,7.7c0.3,0.9,1.2,1.4,2,1.4c0.3,0,0.6,0,0.9-0.3
	l14.2-6.2c1.2-0.6,1.7-2,1.2-3.3l-3.3-7.7C110.2,961,109.3,960.4,108.4,960.4L108.4,960.4z M122.4,1001c-1.7,0-3.6,0.3-5.3,1.2
	c-6.6,3-9.5,10.3-6.6,16.9c2,4.7,6.9,7.7,11.9,7.7c1.7,0,3.6-0.3,5.3-1.2c6.6-3,9.5-10.3,6.6-16.9
	C131.9,1003.7,127.5,1001,122.4,1001L122.4,1001z M147.4,1048c-0.3,0-0.6,0-0.9,0.3l-14.2,6.2c-1.2,0.6-1.7,2-1.2,3.3l3.3,7.7
	c0.3,0.9,1.2,1.4,2,1.4c0.3,0,0.6,0,0.9-0.3l14.2-6.2c1.2-0.6,1.7-2,1.2-3.3l-3.3-7.7C149.1,1048.6,148.2,1048,147.4,1048
	L147.4,1048z M154.4,1063.9c-0.3,0-0.6,0-0.9,0.3l-14.2,6.2c-1.2,0.6-1.7,2-1.2,3.3l3.3,7.7c0.3,0.9,1.2,1.4,2,1.4
	c0.3,0,0.6,0,0.9-0.3l14.2-6.2c1.2-0.6,1.7-2,1.2-3.3l-3.3-7.7C156.3,1064.6,155.3,1063.9,154.4,1063.9L154.4,1063.9z M161.6,1080.3
	c-0.3,0-0.6,0-0.9,0.3l-14.2,6.2c-1.2,0.6-1.7,2-1.2,3.3l3.3,7.7c0.3,0.9,1.2,1.4,2,1.4c0.3,0,0.6,0,0.9-0.3l14.2-6.2
	c1.2-0.6,1.7-2,1.2-3.3l-3.3-7.7C163.3,1080.6,162.5,1080.3,161.6,1080.3L161.6,1080.3z M168.7,1096.3c-0.3,0-0.6,0-0.9,0.3
	l-14.2,6.2c-1.2,0.6-1.7,2-1.2,3.3l3.3,7.7c0.3,0.9,1.2,1.4,2,1.4c0.3,0,0.6,0,0.9-0.3l14.2-6.2c1.2-0.6,1.7-2,1.2-3.3l-3.3-7.7
	C170.5,1096.9,169.6,1096.3,168.7,1096.3L168.7,1096.3z M95.8,849.5l1.1,2.4l-75.2,33.3l-1.1-2.4L95.8,849.5z M223.8,1138.2l1.1,2.4
	l-75.2,33.3l-1.1-2.4L223.8,1138.2z M1732,1322.9L1732,1322.9c-5,0-11.2-0.5-18.6-2.2c-12.3-2.4-20.5-5-26.3-8.8
	c-6.7-4.3-10.7-9.8-13-17.8c-4.5-16-1-41.8,6.7-83.6c13-70.8,22.6-88.1,48.7-88.1c5.3,0,11.5,0.8,20,2.4c21.3,4,33.8,8.8,38.8,23.7
	c4.8,13.6,3.2,35.7-5,81.1C1769.8,1301.8,1761.3,1322.9,1732,1322.9z M1748.1,1131.2c-37.3-7-49.5,4.5-63.6,80.1
	c-13.8,75.6-9.8,95.3,29.8,102.5c39.6,7.2,50.6-9.6,64.4-85.1C1792.9,1153.3,1785.4,1138.2,1748.1,1131.2z M1759.6,1133.9
	l-68.6,47.3c-2.2,8.8-4.3,18.6-6.4,30.1c-1.8,10.7-3.7,20.2-4.8,29l105.4-72.4C1783.8,1147.7,1775.6,1138.9,1759.6,1133.9z
	 M1748.1,1131.2c-3.2-0.5-6.1-1-9-1.3l-41.3,28.5c-2.2,5.3-4,11.7-5.8,18.9l64.4-44.2C1753.8,1132.2,1751.1,1131.7,1748.1,1131.2z
	 M1333.2,1328.1c0.3,5.2-3.8,9.6-9,9.8L816.7,1364c-5.2,0.3-9.6-3.8-9.8-9l-10.8-205.7c-0.3-5.2-2.4-22.6,2.9-22.6l518-26.7
	c5.2-0.3,4.9,17.1,5.2,22.3L1333.2,1328.1z M816,1365.6c-5.8,0-10.4-4.4-10.8-10.1l-11.4-219v-1.1c-0.6-9.3-0.6-18.5,2.4-21.8
	c0.6-0.9,1.4-1.1,2.7-1.1l516.9-26.7c0,0,0,0,0.3,0c5.2,0,6.4,10.8,7,22.3v1.1l11.4,219c0.3,5.8-4.4,11.1-10.1,11.4l-507.5,26.1
	C816.7,1365.6,816.4,1365.6,816,1365.6z M1281.5,1130.6l0.9,14.2c0,1.1,1.1,2.4,2.4,2.4l25.6-1.4c1.1,0,2.4-1.1,2.4-2.4l-0.9-14.2
	c0-1.1-1.1-2.4-2.4-2.4l-25.6,1.4C1282.3,1128.2,1281.2,1129.1,1281.5,1130.6z M835.5,1174.7l-25.6,1.4c-1.1,0-2.4,1.1-2.4,2.4
	l1.4,26.1c0,1.1,1.1,2.4,2.4,2.4l25.6-1.4c1.1,0,2.4-1.1,2.4-2.4l-1.4-26.1C837.9,1175.6,836.9,1174.7,835.5,1174.7z M870.7,1173
	l-25.6,1.4c-1.1,0-2.4,1.1-2.4,2.4l1.4,26.1c0,1.1,1.1,2.4,2.4,2.4l25.6-1.4c1.1,0,2.4-1.1,2.4-2.4l-1.4-26.1
	C873,1173.8,871.9,1172.7,870.7,1173z M905.8,1171l-25.6,1.4c-1.1,0-2.4,1.1-2.4,2.4l1.4,26.1c0,1.1,1.1,2.4,2.4,2.4l25.6-1.4
	c1.1,0,2.4-1.1,2.4-2.4l-1.4-26.1C908.1,1171.8,907,1171,905.8,1171z M940.7,1169.2l-25.6,1.4c-1.1,0-2.4,1.1-2.4,2.4l1.4,26.1
	c0,1.1,1.1,2.4,2.4,2.4l25.6-1.4c1.1,0,2.4-1.1,2.4-2.4l-1.4-26.1C943.3,1170,942.2,1169.2,940.7,1169.2z M975.9,1167.5l-25.6,1.4
	c-1.1,0-2.4,1.1-2.4,2.4l1.4,26.1c0,1.1,1.1,2.4,2.4,2.4l25.6-1.4c1.1,0,2.4-1.1,2.4-2.4l-1.4-26.1
	C978.2,1168.3,977.3,1167.5,975.9,1167.5z M1011,1165.7l-25.6,1.4c-1.1,0-2.4,1.1-2.4,2.4l1.4,26.1c0,1.1,1.1,2.4,2.4,2.4l25.6-1.4
	c1.1,0,2.4-1.1,2.4-2.4l-1.4-26.1C1013.4,1166.6,1012.1,1165.4,1011,1165.7z M1046.1,1163.7l-25.6,1.4c-1.1,0-2.4,1.1-2.4,2.4
	l1.4,26.1c0,1.1,1.1,2.4,2.4,2.4l25.6-1.4c1.1,0,2.4-1.1,2.4-2.4l-1.4-26.1C1048.5,1164.8,1047.3,1163.7,1046.1,1163.7z
	 M1081,1161.9l-25.6,1.4c-1.1,0-2.4,1.1-2.4,2.4l1.4,26.1c0,1.1,1.1,2.4,2.4,2.4l25.6-1.4c1.1,0,2.4-1.1,2.4-2.4l-1.4-26.1
	C1083.3,1162.8,1082.5,1161.9,1081,1161.9z M1116.1,1160.2l-25.6,1.4c-1.1,0-2.4,1.1-2.4,2.4l1.4,26.1c0,1.1,1.1,2.4,2.4,2.4
	l25.6-1.4c1.1,0,2.4-1.1,2.4-2.4l-1.4-26.1C1118.5,1161,1117.4,1160.2,1116.1,1160.2z M1151.4,1158.5l-25.6,1.4
	c-1.1,0-2.4,1.1-2.4,2.4l1.4,26.1c0,1.1,1.1,2.4,2.4,2.4l25.6-1.4c1.1,0,2.4-1.1,2.4-2.4l-1.4-26.1
	C1153.6,1159.3,1152.5,1158.2,1151.4,1158.5z M1186.2,1156.4l-25.6,1.4c-1.1,0-2.4,1.1-2.4,2.4l1.4,26.1c0,1.1,1.1,2.4,2.4,2.4
	l25.6-1.4c1.1,0,2.4-1.1,2.4-2.4l-1.4-26.1C1188.8,1157.5,1187.6,1156.4,1186.2,1156.4z M1221.3,1154.7l-25.6,1.4
	c-1.1,0-2.4,1.1-2.4,2.4l1.4,26.1c0,1.1,1.1,2.4,2.4,2.4l25.6-1.4c1.1,0,2.4-1.1,2.4-2.4l-1.4-26.1
	C1223.7,1155.5,1222.8,1154.7,1221.3,1154.7z M1256.5,1152.9l-25.6,1.4c-1.1,0-2.4,1.1-2.4,2.4l1.4,26.1c0,1.1,1.1,2.4,2.4,2.4
	l25.6-1.4c1.1,0,2.4-1.1,2.4-2.4l-1.4-26.1C1258.8,1153.7,1257.6,1152.9,1256.5,1152.9z M891.3,1206.9l-25.6,1.4
	c-1.1,0-2.4,1.1-2.4,2.4l1.4,26.1c0,1.1,1.1,2.4,2.4,2.4l25.6-1.4c1.1,0,2.4-1.1,2.4-2.4l-1.4-26.1
	C893.6,1207.8,892.5,1206.9,891.3,1206.9z M856.2,1208.7l-44.2,2.4c-1.1,0-2.4,1.1-2.4,2.4l1.4,26.1c0,1.1,1.1,2.4,2.4,2.4l44.2-2.4
	c1.1,0,2.4-1.1,2.4-2.4l-1.4-26.1C858.5,1209.6,857.3,1208.7,856.2,1208.7z M926.2,1205.2l-25.6,1.4c-1.1,0-2.4,1.1-2.4,2.4
	l1.4,26.1c0,1.1,1.1,2.4,2.4,2.4l25.6-1.4c1.1,0,2.4-1.1,2.4-2.4l-1.4-26.1C928.7,1206.1,927.6,1204.9,926.2,1205.2z M961.3,1203.1
	l-25.6,1.4c-1.1,0-2.4,1.1-2.4,2.4l1.4,26.1c0,1.1,1.1,2.4,2.4,2.4l25.6-1.4c1.1,0,2.4-1.1,2.4-2.4l-1.4-26.1
	C963.7,1204.4,962.4,1203.1,961.3,1203.1z M996.5,1201.4l-25.6,1.4c-1.1,0-2.4,1.1-2.4,2.4l1.4,26.1c0,1.1,1.1,2.4,2.4,2.4l25.6-1.4
	c1.1,0,2.4-1.1,2.4-2.4l-1.4-26.1C998.8,1202.3,997.7,1201.4,996.5,1201.4z M1031.3,1199.6l-25.6,1.4c-1.1,0-2.4,1.1-2.4,2.4
	l1.4,26.1c0,1.1,1.1,2.4,2.4,2.4l25.6-1.4c1.1,0,2.4-1.1,2.4-2.4l-1.4-26.1C1034,1200.6,1032.8,1199.6,1031.3,1199.6z
	 M1066.5,1197.9l-25.6,1.4c-1.1,0-2.4,1.1-2.4,2.4l1.4,26.1c0,1.1,1.1,2.4,2.4,2.4l25.6-1.4c1.1,0,2.4-1.1,2.4-2.4l-1.4-26.1
	C1068.8,1198.8,1068,1197.9,1066.5,1197.9z M1101.7,1196.2l-25.6,1.4c-1.1,0-2.4,1.1-2.4,2.4l1.4,26.1c0,1.1,1.1,2.4,2.4,2.4
	l25.6-1.4c1.1,0,2.4-1.1,2.4-2.4l-1.4-26.1C1103.9,1197.1,1102.8,1196,1101.7,1196.2z M1136.8,1194.2l-25.6,1.4
	c-1.1,0-2.4,1.1-2.4,2.4l1.4,26.1c0,1.1,1.1,2.4,2.4,2.4l25.6-1.4c1.1,0,2.4-1.1,2.4-2.4l-1.4-26.1
	C1139.2,1195,1137.9,1194.2,1136.8,1194.2z M1171.7,1192.5l-25.6,1.4c-1.1,0-2.4,1.1-2.4,2.4l1.4,26.1c0,1.1,1.1,2.4,2.4,2.4
	l25.6-1.4c1.1,0,2.4-1.1,2.4-2.4l-1.4-26.1C1174.3,1193.3,1173.1,1192.5,1171.7,1192.5z M1206.8,1190.7l-25.6,1.4
	c-1.1,0-2.4,1.1-2.4,2.4l1.4,26.1c0,1.1,1.1,2.4,2.4,2.4l25.6-1.4c1.1,0,2.4-1.1,2.4-2.4l-1.4-26.1
	C1209.1,1191.5,1208,1190.7,1206.8,1190.7z M1241.9,1189l-25.6,1.4c-1.1,0-2.4,1.1-2.4,2.4l1.4,26.1c0,1.1,1.1,2.4,2.4,2.4l25.6-1.4
	c1.1,0,2.4-1.1,2.4-2.4l-1.4-26.1C1244.3,1189.8,1243.2,1188.7,1241.9,1189z M1276.9,1186.9l-25.6,1.4c-1.1,0-2.4,1.1-2.4,2.4
	l1.4,26.1c0,1.1,1.1,2.4,2.4,2.4l25.6-1.4c1.1,0,2.4-1.1,2.4-2.4l-1.4-26.1C1279.4,1188.1,1278.3,1186.9,1276.9,1186.9z
	 M1312.3,1185.2l-25.6,1.4c-1.1,0-2.4,1.1-2.4,2.4l1.4,26.1c0,1.1,1.1,2.4,2.4,2.4l25.6-1.4c1.1,0,2.4-1.1,2.4-2.4l-1.4-26.1
	C1314.6,1186,1313.4,1185.2,1312.3,1185.2z M885.5,1277.5l-25.6,1.4c-1.1,0-2.4,1.1-2.4,2.4l1.4,26.1c0,1.1,1.1,2.4,2.4,2.4
	l25.6-1.4c1.1,0,2.4-1.1,2.4-2.4l-1.4-26.1C887.9,1278.4,886.6,1277.5,885.5,1277.5z M850.4,1279.2l-34.8,1.7
	c-1.1,0-2.4,1.1-2.4,2.4l1.4,26.1c0,1.1,1.1,2.4,2.4,2.4l34.8-1.7c1.1,0,2.4-1.1,2.4-2.4l-1.4-26.1
	C852.7,1280.2,851.8,1279.2,850.4,1279.2z M920.6,1275.8l-25.6,1.4c-1.1,0-2.4,1.1-2.4,2.4l1.4,26.1c0,1.1,1.1,2.4,2.4,2.4l25.6-1.4
	c1.1,0,2.4-1.1,2.4-2.4l-1.4-26.1C923,1276.7,921.8,1275.8,920.6,1275.8z M955.5,1274l-25.6,1.4c-1.1,0-2.4,1.1-2.4,2.4l1.4,26.1
	c0,1.1,1.1,2.4,2.4,2.4l25.6-1.4c1.1,0,2.4-1.1,2.4-2.4l-1.4-26.1C958.1,1274.9,957,1273.8,955.5,1274z M885.2,1315l1.4,28.8
	c0,1.1,1.1,2.4,2.4,2.4l25.6-1.4c1.1,0,2.4-1.1,2.4-2.4l-1.4-28.8c0-1.1-1.1-2.4-2.4-2.4l-25.6,1.4
	C886.3,1312.7,885.2,1313.9,885.2,1315z M920.3,1313.3l1.4,28.8c0,1.1,1.1,2.4,2.4,2.4l34.8-1.7c1.1,0,2.4-1.1,2.4-2.4l-1.4-28.8
	c0-1.1-1.1-2.4-2.4-2.4l-34.8,1.7C921.3,1311,920.3,1311.8,920.3,1313.3z M850.4,1316.7l1.4,28.8c0,1.1,1.1,2.4,2.4,2.4l25.6-1.4
	c1.1,0,2.4-1.1,2.4-2.4l-1.4-28.8c0-1.1-1.1-2.4-2.4-2.4l-25.6,1.4C851.2,1314.5,850.4,1315.6,850.4,1316.7z M1219.3,1295.5
	l-25.6,1.4c-1.1,0-2.4,1.1-2.4,2.4l1.4,28.8c0,1.1,1.1,2.4,2.4,2.4l25.6-1.4c1.1,0,2.4-1.1,2.4-2.4l-1.4-28.8
	C1221.6,1296.5,1220.4,1295.2,1219.3,1295.5z M1184.1,1297.3l-34.8,1.7c-1.1,0-2.4,1.1-2.4,2.4l1.4,28.8c0,1.1,1.1,2.4,2.4,2.4
	l34.8-1.7c1.1,0,2.4-1.1,2.4-2.4l-1.4-28.8C1186.5,1298.2,1185.6,1297.3,1184.1,1297.3z M964.8,1311l1.4,28.8c0,1.1,1.1,2.4,2.4,2.4
	l172.8-9c1.1,0,2.4-1.1,2.4-2.4l-1.4-28.8c0-1.1-1.1-2.4-2.4-2.4l-172.8,9C965.7,1308.6,964.8,1309.8,964.8,1311z M815.2,1318.8
	l1.4,28.8c0,1.1,1.1,2.4,2.4,2.4l25.6-1.4c1.1,0,2.4-1.1,2.4-2.4l-1.4-28.8c0-1.1-1.1-2.4-2.4-2.4l-25.6,1.4
	C816,1316.2,815.2,1317.4,815.2,1318.8z M990.6,1272.1l-25.6,1.4c-1.1,0-2.4,1.1-2.4,2.4l1.4,26.1c0,1.1,1.1,2.4,2.4,2.4l25.6-1.4
	c1.1,0,2.4-1.1,2.4-2.4l-1.4-26.1C993,1273.2,991.9,1272.1,990.6,1272.1z M1025.9,1270.3l-25.6,1.4c-1.1,0-2.4,1.1-2.4,2.4l1.4,26.1
	c0,1.1,1.1,2.4,2.4,2.4l25.6-1.4c1.1,0,2.4-1.1,2.4-2.4l-1.4-26.1C1028.1,1271.2,1027,1270.3,1025.9,1270.3z M1060.7,1268.6
	l-25.6,1.4c-1.1,0-2.4,1.1-2.4,2.4l1.4,26.1c0,1.1,1.1,2.4,2.4,2.4l25.6-1.4c1.1,0,2.4-1.1,2.4-2.4l-1.4-26.1
	C1063.3,1269.4,1062.1,1268.6,1060.7,1268.6z M1095.8,1266.7l-25.6,1.4c-1.1,0-2.4,1.1-2.4,2.4l1.4,26.1c0,1.1,1.1,2.4,2.4,2.4
	l25.6-1.4c1.1,0,2.4-1.1,2.4-2.4l-1.4-26.1C1098.2,1267.7,1097.3,1266.5,1095.8,1266.7z M1131,1264.8l-25.6,1.4
	c-1.1,0-2.4,1.1-2.4,2.4l1.4,26.1c0,1.1,1.1,2.4,2.4,2.4l25.6-1.4c1.1,0,2.4-1.1,2.4-2.4l-1.4-26.1
	C1133.3,1265.9,1132.1,1264.8,1131,1264.8z M1166.1,1263.1l-25.6,1.4c-1.1,0-2.4,1.1-2.4,2.4l1.4,26.1c0,1.1,1.1,2.4,2.4,2.4
	l25.6-1.4c1.1,0,2.4-1.1,2.4-2.4l-1.4-26.1C1168.5,1263.9,1167.3,1263.1,1166.1,1263.1z M1201,1261.3l-25.6,1.4
	c-1.1,0-2.4,1.1-2.4,2.4l1.4,26.1c0,1.1,1.1,2.4,2.4,2.4l25.6-1.4c1.1,0,2.4-1.1,2.4-2.4l-1.4-26.1
	C1203.6,1262.1,1202.5,1261.3,1201,1261.3z M1236.2,1259.6l-25.6,1.4c-1.1,0-2.4,1.1-2.4,2.4l1.4,26.1c0,1.1,1.1,2.4,2.4,2.4
	l25.6-1.4c1.1,0,2.4-1.1,2.4-2.4l-1.4-26.1C1238.4,1260.4,1237.3,1259.3,1236.2,1259.6z M1315.8,1255.5l-69.8,3.5
	c-1.1,0-2.4,1.1-2.4,2.4l1.4,26.1c0,1.1,1.1,2.4,2.4,2.4l69.8-3.5c1.1,0,2.4-1.1,2.4-2.4l-1.4-26.1
	C1318.1,1256.3,1316.9,1255.2,1315.8,1255.5z M900.1,1241.5l-25.6,1.4c-1.1,0-2.4,1.1-2.4,2.4l1.4,26.1c0,1.1,1.1,2.4,2.4,2.4
	l25.6-1.4c1.1,0,2.4-1.1,2.4-2.4l-1.4-26.1C902.3,1242.7,901.2,1241.5,900.1,1241.5z M864.9,1243.6l-51.1,2.7
	c-1.1,0-2.4,1.1-2.4,2.4l1.4,26.1c0,1.1,1.1,2.4,2.4,2.4l51.1-2.7c1.1,0,2.4-1.1,2.4-2.4l-1.4-26.1
	C867.2,1244.4,866.3,1243.3,864.9,1243.6z M935.2,1239.8l-25.6,1.4c-1.1,0-2.4,1.1-2.4,2.4l1.4,26.1c0,1.1,1.1,2.4,2.4,2.4l25.6-1.4
	c1.1,0,2.4-1.1,2.4-2.4l-1.4-26.1C937.6,1240.6,936.3,1239.8,935.2,1239.8z M970,1238.1l-25.6,1.4c-1.1,0-2.4,1.1-2.4,2.4l1.4,26.1
	c0,1.1,1.1,2.4,2.4,2.4l25.6-1.4c1.1,0,2.4-1.1,2.4-2.4l-1.4-26.1C972.7,1238.9,971.5,1238.1,970,1238.1z M1005.2,1236.3l-25.6,1.4
	c-1.1,0-2.4,1.1-2.4,2.4l1.4,26.1c0,1.1,1.1,2.4,2.4,2.4l25.6-1.4c1.1,0,2.4-1.1,2.4-2.4l-1.4-26.1
	C1007.5,1237.1,1006.6,1236,1005.2,1236.3z M1040.3,1234.3l-25.6,1.4c-1.1,0-2.4,1.1-2.4,2.4l1.4,26.1c0,1.1,1.1,2.4,2.4,2.4
	l25.6-1.4c1.1,0,2.4-1.1,2.4-2.4l-1.4-26.1C1042.7,1235.4,1041.5,1234.3,1040.3,1234.3z M1075.4,1232.5l-25.6,1.4
	c-1.1,0-2.4,1.1-2.4,2.4l1.4,26.1c0,1.1,1.1,2.4,2.4,2.4l25.6-1.4c1.1,0,2.4-1.1,2.4-2.4l-1.4-26.1
	C1077.8,1233.3,1076.7,1232.5,1075.4,1232.5z M1110.4,1230.8l-25.6,1.4c-1.1,0-2.4,1.1-2.4,2.4l1.4,26.1c0,1.1,1.1,2.4,2.4,2.4
	l25.6-1.4c1.1,0,2.4-1.1,2.4-2.4l-1.4-26.1C1112.6,1231.6,1111.8,1230.8,1110.4,1230.8z M1145.5,1229l-25.6,1.4
	c-1.1,0-2.4,1.1-2.4,2.4l1.4,26.1c0,1.1,1.1,2.4,2.4,2.4l25.6-1.4c1.1,0,2.4-1.1,2.4-2.4l-1.4-26.1
	C1147.9,1229.9,1146.7,1229,1145.5,1229z M1180.7,1227l-25.6,1.4c-1.1,0-2.4,1.1-2.4,2.4l1.4,26.1c0,1.1,1.1,2.4,2.4,2.4l25.6-1.4
	c1.1,0,2.4-1.1,2.4-2.4l-1.4-26.1C1183,1228.1,1181.8,1227,1180.7,1227z M1215.5,1225.3l-25.6,1.4c-1.1,0-2.4,1.1-2.4,2.4l1.4,26.1
	c0,1.1,1.1,2.4,2.4,2.4l25.6-1.4c1.1,0,2.4-1.1,2.4-2.4l-1.4-26.1C1218.2,1226.1,1216.9,1225.3,1215.5,1225.3z M1250.6,1223.5
	l-25.6,1.4c-1.1,0-2.4,1.1-2.4,2.4l1.4,26.1c0,1.1,1.1,2.4,2.4,2.4l25.6-1.4c1.1,0,2.4-1.1,2.4-2.4l-1.4-26.1
	C1253,1224.3,1252.2,1223.5,1250.6,1223.5z M1314.6,1220.3l-54,2.9c-1.1,0-2.4,1.1-2.4,2.4l1.4,26.1c0,1.1,1.1,2.4,2.4,2.4l54-2.9
	c1.1,0,2.4-1.1,2.4-2.4l-1.4-26.1C1316.9,1221.2,1315.8,1220,1314.6,1220.3z M1310.3,1150.1l-44.2,2.4c-1.1,0-2.4,1.1-2.4,2.4
	l1.4,26.1c0,1.1,1.1,2.4,2.4,2.4l44.2-2.4c1.1,0,2.4-1.1,2.4-2.4l-1.4-26.1C1312.5,1151.2,1311.4,1150.1,1310.3,1150.1z
	 M1246.3,1132.3l0.9,14.2c0,1.1,1.1,2.4,2.4,2.4l25.6-1.4c1.1,0,2.4-1.1,2.4-2.4l-0.9-14.2c0-1.1-1.1-2.4-2.4-2.4l-25.6,1.4
	C1247.2,1130,1246.3,1131.1,1246.3,1132.3z M1290.8,1310.7l0.6,11.9c0,1.1,1.1,2.4,2.4,2.4l25.6-1.4c1.1,0,2.4-1.1,2.4-2.4
	l-0.6-11.9c0-1.1-1.1-2.4-2.4-2.4l-25.6,1.4C1291.6,1308.3,1290.5,1309.5,1290.8,1310.7z M1257.9,1312.4l0.6,11.9
	c0,1.1,1.1,2.4,2.4,2.4l25.6-1.4c1.1,0,2.4-1.1,2.4-2.4l-0.6-11.9c0-1.1-1.1-2.4-2.4-2.4l-25.6,1.4
	C1258.8,1310.1,1257.9,1311.2,1257.9,1312.4z M1257.1,1296.2l0.6,11.9c0,1.1,1.1,2.4,2.4,2.4l25.6-1.4c1.1,0,2.4-1.1,2.4-2.4
	l-0.6-11.9c0-1.1-1.1-2.4-2.4-2.4l-25.6,1.4C1257.9,1293.8,1257.1,1295,1257.1,1296.2z M1225.1,1314.2l0.6,11.9
	c0,1.1,1.1,2.4,2.4,2.4l25.6-1.4c1.1,0,2.4-1.1,2.4-2.4l-0.6-11.9c0-1.1-1.1-2.4-2.4-2.4l-25.6,1.4
	C1226.3,1311.8,1225.1,1313,1225.1,1314.2z M1211.2,1134.1l0.9,14.2c0,1.1,1.1,2.4,2.4,2.4l25.6-1.4c1.1,0,2.4-1.1,2.4-2.4
	l-0.9-14.2c0-1.1-1.1-2.4-2.4-2.4l-25.6,1.4C1212,1131.7,1211.2,1132.8,1211.2,1134.1z M1176.1,1136l0.9,14.2c0,1.1,1.1,2.4,2.4,2.4
	l25.6-1.4c1.1,0,2.4-1.1,2.4-2.4l-0.9-14.2c0-1.1-1.1-2.4-2.4-2.4l-25.6,1.4C1177.2,1133.5,1176.1,1134.6,1176.1,1136z
	 M1141.1,1137.8l0.9,14.2c0,1.1,1.1,2.4,2.4,2.4l25.6-1.4c1.1,0,2.4-1.1,2.4-2.4l-0.9-14.2c0-1.1-1.1-2.4-2.4-2.4l-25.6,1.4
	C1142,1135.5,1141.1,1136.3,1141.1,1137.8z M1106,1139.5l0.9,14.2c0,1.1,1.1,2.4,2.4,2.4l25.6-1.4c1.1,0,2.4-1.1,2.4-2.4l-0.9-14.2
	c0-1.1-1.1-2.4-2.4-2.4l-25.6,1.4C1106.9,1137.3,1106,1138.4,1106,1139.5z M1068.5,1141.6l0.9,14.2c0,1.1,1.1,2.4,2.4,2.4l27.9-1.4
	c1.1,0,2.4-1.1,2.4-2.4l-0.9-14.2c0-1.1-1.1-2.4-2.4-2.4l-27.9,1.4C1069.4,1139,1068.5,1140.1,1068.5,1141.6z M1031.3,1143.3
	l0.9,14.2c0,1.1,1.1,2.4,2.4,2.4l27.9-1.4c1.1,0,2.4-1.1,2.4-2.4l-0.9-14.2c0-1.1-1.1-2.4-2.4-2.4l-27.9,1.4
	C1032.2,1141,1031.1,1142.2,1031.3,1143.3z M993.9,1145.3l0.9,14.2c0,1.1,1.1,2.4,2.4,2.4l27.9-1.4c1.1,0,2.4-1.1,2.4-2.4l-0.9-14.2
	c0-1.1-1.1-2.4-2.4-2.4l-27.9,1.4C994.7,1143,993.9,1144.2,993.9,1145.3z M956.4,1147.4l0.9,14.2c0,1.1,1.1,2.4,2.4,2.4l27.9-1.4
	c1.1,0,2.4-1.1,2.4-2.4l-1-14.2c0-1.1-1.1-2.4-2.4-2.4l-27.9,1.4C957.2,1144.8,956.4,1146,956.4,1147.4z M918.9,1149.1l0.9,14.2
	c0,1.1,1.1,2.4,2.4,2.4l27.9-1.4c1.1,0,2.4-1.1,2.4-2.4l-0.9-14.2c0-1.1-1.1-2.4-2.4-2.4l-27.9,1.4
	C919.8,1146.8,918.9,1148,918.9,1149.1z M881.4,1151.2l0.9,14.2c0,1.1,1.1,2.4,2.4,2.4l27.9-1.4c1.1,0,2.4-1.1,2.4-2.4l-0.9-14.2
	c0-1.1-1.1-2.4-2.4-2.4l-27.9,1.4C882.6,1148.8,881.4,1150.1,881.4,1151.2z M844.2,1153.2l0.9,14.2c0,1.1,1.1,2.4,2.4,2.4l27.9-1.4
	c1.1,0,2.4-1.1,2.4-2.4l-0.9-14.2c0-1.1-1.1-2.4-2.4-2.4l-27.9,1.4C845.1,1150.6,843.9,1151.8,844.2,1153.2z M806.7,1155l0.9,14.2
	c0,1.1,1.1,2.4,2.4,2.4l27.9-1.4c1.1,0,2.4-1.1,2.4-2.4l-0.9-14.2c0-1.1-1.1-2.4-2.4-2.4l-27.9,1.4
	C807.6,1152.6,806.7,1153.7,806.7,1155z M880.3,597.9c0.1,0.2,0.2,0.3,0.4,0.4l718.8,382.9c0.3,0.2,0.9,0,1.1-0.3l304.7-572.1
	c0.1-0.2,0.1-0.4,0.1-0.6c-0.1-0.2-0.2-0.3-0.4-0.4L1186.1,24.9c-0.1-0.1-0.2-0.1-0.3-0.1c-0.3,0-0.5,0.1-0.6,0.4L880.3,597.4
	C880.2,597.5,880.2,597.7,880.3,597.9z M1659.6,742.8c0.3,0.1,0.6,0.2,1,0.2c0.7,0,1.4-0.4,1.7-1.1l9.7-18.3c0.2-0.4,0.3-1,0.1-1.5
	c-0.1-0.5-0.5-0.9-1-1.2l-32.4-17.3c-0.3-0.1-0.6-0.2-1-0.2c-0.7,0-1.4,0.4-1.7,1.1l-9.7,18.3c-0.5,1-0.1,2.2,0.9,2.8L1659.6,742.8z
	 M1644.4,771.4c0.3,0.1,0.6,0.2,1,0.2c0.7,0,1.4-0.4,1.7-1.1l9.7-18.3c0.5-1,0.1-2.2-0.9-2.8l-32.4-17.3c-0.3-0.1-0.6-0.2-1-0.2
	c-0.7,0-1.4,0.4-1.7,1.1l-9.7,18.3c-0.2,0.4-0.3,1-0.1,1.5c0.1,0.5,0.5,0.9,1,1.2L1644.4,771.4z M1611.8,752.7
	c0.1,0.3,0.3,0.5,0.5,0.6l32.4,17.3c0.5,0.3,1.3,0.1,1.6-0.5l9.7-18.3c0.3-0.5,0.1-1.3-0.5-1.6l-32.4-17.3c-0.2-0.1-0.3-0.1-0.5-0.1
	c-0.4,0-0.9,0.2-1.1,0.6l-9.7,18.3C1611.7,752.1,1611.7,752.5,1611.8,752.7z M1596.5,781.4c0.1,0.3,0.3,0.5,0.5,0.6l32.4,17.3
	c0.5,0.3,1.3,0.1,1.6-0.5l9.7-18.3c0.1-0.3,0.2-0.6,0.1-0.9c-0.1-0.2-0.3-0.5-0.5-0.6l-32.4-17.3c-0.2-0.1-0.3-0.1-0.5-0.1
	c-0.4,0-0.9,0.2-1.1,0.6l-9.7,18.3C1596.5,780.7,1596.5,781.1,1596.5,781.4z M1595.7,781.6c0.1,0.5,0.5,0.9,1,1.2l32.4,17.3
	c0.3,0.1,0.6,0.2,1,0.2c0.7,0,1.4-0.4,1.7-1.1l9.7-18.3c0.2-0.4,0.3-1,0.1-1.5c-0.1-0.5-0.5-0.9-1-1.2l-32.4-17.3
	c-0.3-0.1-0.6-0.2-1-0.2c-0.7,0-1.4,0.4-1.7,1.1l-9.7,18.3C1595.6,780.5,1595.6,781.1,1595.7,781.6z M1699.8,764.2
	c0.3,0.1,0.6,0.2,1,0.2c0.7,0,1.4-0.4,1.7-1.1l9.7-18.3c0.2-0.4,0.3-1,0.1-1.5c-0.1-0.5-0.5-0.9-1-1.2l-32.4-17.3
	c-0.3-0.1-0.6-0.2-1-0.2c-0.7,0-1.4,0.4-1.7,1.1l-9.7,18.3c-0.2,0.4-0.3,1-0.1,1.5c0.1,0.5,0.5,0.9,1,1.2L1699.8,764.2z
	 M1684.5,792.8c0.3,0.1,0.6,0.2,1,0.2c0.7,0,1.4-0.4,1.7-1.1l9.7-18.3c0.2-0.4,0.3-1,0.1-1.5c-0.1-0.5-0.5-0.9-1-1.2l-32.4-17.3
	c-0.3-0.1-0.6-0.2-1-0.2c-0.7,0-1.4,0.4-1.7,1.1l-9.7,18.3c-0.2,0.4-0.3,1-0.1,1.5c0.1,0.5,0.5,0.9,1,1.2L1684.5,792.8z
	 M1651.9,774.1c0.1,0.3,0.3,0.5,0.5,0.6l32.4,17.3c0.5,0.3,1.3,0.1,1.6-0.5l9.7-18.3c0.1-0.3,0.2-0.6,0.1-0.9s-0.3-0.5-0.5-0.6
	l-32.4-17.3c-0.2-0.1-0.3-0.1-0.5-0.1c-0.4,0-0.9,0.2-1.1,0.6l-9.7,18.3C1651.9,773.5,1651.8,773.8,1651.9,774.1z M1636.7,802.7
	c0.1,0.3,0.3,0.5,0.5,0.6l32.4,17.3c0.5,0.3,1.3,0.1,1.6-0.5l9.7-18.3c0.1-0.3,0.2-0.6,0.1-0.9c-0.1-0.3-0.3-0.5-0.5-0.6l-32.4-17.3
	c-0.2-0.1-0.3-0.1-0.5-0.1c-0.4,0-0.9,0.2-1.1,0.6l-9.7,18.3C1636.6,802.1,1636.6,802.4,1636.7,802.7z M1669.4,821.3
	c0.3,0.1,0.6,0.2,1,0.2c0.7,0,1.4-0.4,1.7-1.1l9.7-18.3c0.2-0.4,0.3-1,0.1-1.5c-0.1-0.5-0.5-0.9-1-1.2l-32.4-17.3
	c-0.3-0.1-0.6-0.2-1-0.2c-0.7,0-1.4,0.4-1.7,1.1l-9.7,18.3c-0.2,0.4-0.3,1-0.1,1.5c0.1,0.5,0.5,0.9,1,1.2L1669.4,821.3z M1821,439.8
	l-32.4-17.3c-0.3-0.1-0.6-0.2-1-0.2c-0.7,0-1.4,0.4-1.7,1.1l-9.7,18.3c-0.5,1-0.1,2.2,0.9,2.8l32.4,17.3c0.3,0.1,0.6,0.2,1,0.2
	c0.7,0,1.4-0.4,1.7-1.1l9.7-18.3C1822.4,441.5,1821.9,440.2,1821,439.8z M1762.1,472.2l32.4,17.3c0.5,0.3,1.3,0.1,1.6-0.5l9.7-18.3
	c0.3-0.5,0.1-1.3-0.5-1.6l-32.4-17.3c-0.2-0.1-0.3-0.1-0.5-0.1c-0.4,0-0.9,0.2-1.1,0.6l-9.7,18.3
	C1761.3,471.3,1761.5,472,1762.1,472.2z M1778.9,518.9c0.3,0.1,0.6,0.2,1,0.2c0.7,0,1.4-0.4,1.7-1.1l9.7-18.3c0.2-0.4,0.3-1,0.1-1.5
	c-0.1-0.5-0.5-0.9-1-1.2l-32.4-17.3c-0.3-0.1-0.6-0.2-1-0.2c-0.7,0-1.4,0.4-1.7,1.1l-9.7,18.3c-0.2,0.4-0.3,1-0.1,1.5
	c0.1,0.5,0.5,0.9,1,1.2L1778.9,518.9z M1849.6,482.9c0.3,0.1,0.6,0.2,1,0.2c0.7,0,1.4-0.4,1.7-1.1l9.7-18.3c0.2-0.4,0.3-1,0.1-1.5
	c-0.1-0.5-0.5-0.9-1-1.2l-32.4-17.3c-0.3-0.1-0.6-0.2-1-0.2c-0.7,0-1.4,0.4-1.7,1.1l-9.7,18.3c-0.2,0.4-0.3,1-0.1,1.5
	c0.1,0.5,0.5,0.9,1,1.2L1849.6,482.9z M1834.3,511.6c0.3,0.1,0.6,0.2,1,0.2c0.7,0,1.4-0.4,1.7-1.1l9.7-18.3c0.2-0.4,0.3-1,0.1-1.5
	c-0.1-0.5-0.5-0.9-1-1.2l-32.4-17.3c-0.3-0.1-0.6-0.2-1-0.2c-0.7,0-1.4,0.4-1.7,1.1l-9.7,18.3c-0.5,1-0.1,2.2,0.9,2.8L1834.3,511.6z
	 M1819,540.2c0.3,0.1,0.6,0.2,1,0.2c0.7,0,1.4-0.4,1.7-1.1l9.7-18.3c0.5-1,0.1-2.2-0.9-2.8l-32.4-17.3c-0.3-0.1-0.6-0.2-1-0.2
	c-0.7,0-1.4,0.4-1.7,1.1l-9.7,18.3c-0.5,1-0.1,2.2,0.9,2.8L1819,540.2z M1728.6,613.3c0.3,0.1,0.6,0.2,1,0.2c0.7,0,1.4-0.4,1.7-1.1
	l9.7-18.3c0.2-0.4,0.3-1,0.1-1.5c-0.1-0.5-0.5-0.9-1-1.2l-32.4-17.3c-0.3-0.1-0.6-0.2-1-0.2c-0.7,0-1.4,0.4-1.7,1.1l-9.7,18.3
	c-0.2,0.4-0.3,1-0.1,1.5c0.1,0.5,0.5,0.9,1,1.2L1728.6,613.3z M1713.4,641.8c0.3,0.1,0.6,0.2,1,0.2c0.7,0,1.4-0.4,1.7-1.1l9.7-18.3
	c0.2-0.4,0.3-1,0.1-1.5c-0.1-0.5-0.5-0.9-1-1.2l-32.4-17.3c-0.3-0.1-0.6-0.2-1-0.2c-0.7,0-1.4,0.4-1.7,1.1l-9.7,18.3
	c-0.5,1-0.1,2.2,0.9,2.8L1713.4,641.8z M1698.1,670.4c0.3,0.1,0.6,0.2,1,0.2c0.7,0,1.4-0.4,1.7-1.1l9.7-18.3c0.5-1,0.1-2.2-0.9-2.8
	l-32.4-17.3c-0.3-0.1-0.6-0.2-1-0.2c-0.7,0-1.4,0.4-1.7,1.1l-9.7,18.3c-0.2,0.4-0.3,1-0.1,1.5c0.1,0.5,0.5,0.9,1,1.2L1698.1,670.4z
	 M1768.8,634.6c0.3,0.1,0.6,0.2,1,0.2c0.7,0,1.4-0.4,1.7-1.1l9.7-18.3c0.5-1,0.1-2.2-0.9-2.8l-32.4-17.3c-0.3-0.1-0.6-0.2-1-0.2
	c-0.7,0-1.4,0.4-1.7,1.1l-9.7,18.3c-0.2,0.4-0.3,1-0.1,1.5c0.1,0.5,0.5,0.9,1,1.2L1768.8,634.6z M1753.6,663.2
	c0.3,0.1,0.6,0.2,1,0.2c0.7,0,1.4-0.4,1.7-1.1l9.7-18.3c0.2-0.4,0.3-1,0.1-1.5c-0.1-0.5-0.5-0.9-1-1.2l-32.4-17.3
	c-0.3-0.1-0.6-0.2-1-0.2c-0.7,0-1.4,0.4-1.7,1.1l-9.7,18.3c-0.2,0.4-0.3,1-0.1,1.5c0.1,0.5,0.5,0.9,1,1.2L1753.6,663.2z
	 M1738.3,691.7c0.3,0.1,0.6,0.2,1,0.2c0.7,0,1.4-0.4,1.7-1.1l9.7-18.3c0.2-0.4,0.3-1,0.1-1.5c-0.1-0.5-0.5-0.9-1-1.2l-32.4-17.3
	c-0.3-0.1-0.6-0.2-1-0.2c-0.7,0-1.4,0.4-1.7,1.1l-9.7,18.3c-0.2,0.4-0.3,1-0.1,1.5c0.1,0.5,0.5,0.9,1,1.2L1738.3,691.7z M1735,523
	c-0.3-0.1-0.6-0.2-1-0.2c-0.7,0-1.4,0.4-1.7,1.1l-8.6,16.1c-0.2,0.4-0.3,1-0.1,1.5c0.1,0.5,0.5,0.9,1,1.2L1757,560
	c0.3,0.1,0.6,0.2,1,0.2c0.7,0,1.4-0.4,1.7-1.1l8.6-16.2c0.2-0.4,0.3-1,0.1-1.5c-0.1-0.5-0.5-0.9-1-1.2L1735,523z M1743.6,585.1
	c0.3,0.1,0.6,0.2,1,0.2c0.7,0,1.4-0.4,1.7-1.1l8.6-16.2c0.5-1,0.1-2.2-0.9-2.8l-32.4-17.3c-0.3-0.1-0.6-0.2-1-0.2
	c-0.7,0-1.4,0.4-1.7,1.1l-8.6,16.2c-0.2,0.4-0.3,1-0.1,1.5c0.1,0.5,0.5,0.9,1,1.2L1743.6,585.1z M1797.2,581.3
	c0.3,0.1,0.6,0.2,1,0.2c0.7,0,1.4-0.4,1.7-1.1l8.6-16.2c0.5-1,0.1-2.2-0.9-2.8l-32.4-17.3c-0.3-0.1-0.6-0.2-1-0.2
	c-0.7,0-1.4,0.4-1.7,1.1l-8.6,16.2c-0.2,0.4-0.3,1-0.1,1.5c0.1,0.5,0.5,0.9,1,1.2L1797.2,581.3z M1783.8,606.4
	c0.3,0.1,0.6,0.2,1,0.2c0.7,0,1.4-0.4,1.7-1.1l8.6-16.2c0.5-1,0.1-2.2-0.9-2.8l-32.4-17.3c-0.3-0.1-0.6-0.2-1-0.2
	c-0.7,0-1.4,0.4-1.7,1.1l-8.6,16.2c-0.5,1-0.1,2.2,0.9,2.8L1783.8,606.4z M1520.3,797.4l32.4,17.3c0.5,0.3,1.3,0.1,1.6-0.5
	l17.3-32.4c0.3-0.5,0.1-1.3-0.5-1.6l-32.4-17.3c-0.2-0.1-0.3-0.1-0.5-0.1c-0.4,0-0.9,0.2-1.1,0.6l-17.3,32.4
	C1519.5,796.2,1519.7,797.1,1520.3,797.4z M1552.4,815.3c0.3,0.1,0.6,0.2,1,0.2c0.7,0,1.4-0.4,1.7-1.1l17.3-32.4
	c0.5-1,0.1-2.2-0.9-2.8l-32.4-17.3c-0.3-0.1-0.6-0.2-1-0.2c-0.7,0-1.4,0.4-1.7,1.1l-17.3,32.4c-0.5,1-0.1,2.2,0.9,2.8L1552.4,815.3z
	 M1497.2,840.6l32.4,17.3c0.5,0.3,1.3,0.1,1.6-0.5l17.3-32.4c0.3-0.5,0.1-1.3-0.5-1.6l-32.4-17.3c-0.2-0.1-0.3-0.1-0.5-0.1
	c-0.4,0-0.9,0.2-1.1,0.6l-17.3,32.4C1496.3,839.6,1496.6,840.3,1497.2,840.6z M1529.2,858.6c0.3,0.1,0.6,0.2,1,0.2
	c0.7,0,1.4-0.4,1.7-1.1l17.3-32.4c0.5-1,0.1-2.2-0.9-2.8l-32.4-17.3c-0.3-0.1-0.6-0.2-1-0.2c-0.7,0-1.4,0.4-1.7,1.1l-17.3,32.4
	c-0.5,1-0.1,2.2,0.9,2.8L1529.2,858.6z M1474.1,883.9l32.4,17.3c0.5,0.3,1.3,0.1,1.6-0.5l17.3-32.4c0.3-0.5,0.1-1.3-0.5-1.6
	l-32.4-17.3c-0.2-0.1-0.3-0.1-0.5-0.1c-0.4,0-0.9,0.2-1.1,0.6l-17.3,32.4C1473.4,882.9,1473.6,883.5,1474.1,883.9z M1473.8,884.7
	l32.4,17.3c0.3,0.1,0.6,0.2,1,0.2c0.7,0,1.4-0.4,1.7-1.1l17.3-32.4c0.5-1,0.1-2.2-0.9-2.8l-32.4-17.3c-0.3-0.1-0.6-0.2-1-0.2
	c-0.7,0-1.4,0.4-1.7,1.1l-17.3,32.4C1472.3,882.9,1472.9,884.1,1473.8,884.7z M1589,668.1l32.4,17.3c0.3,0.1,0.6,0.2,1,0.2
	c0.7,0,1.4-0.4,1.7-1.1l17.3-32.4c0.5-1,0.1-2.2-0.9-2.8l-32.4-17.3c-0.3-0.1-0.6-0.2-1-0.2c-0.7,0-1.4,0.4-1.7,1.1l-17.3,32.4
	C1587.7,666.3,1588,667.6,1589,668.1z M1598.5,728.7c0.3,0.1,0.6,0.2,1,0.2c0.7,0,1.4-0.4,1.7-1.1l17.3-32.4c0.5-1,0.1-2.2-0.9-2.8
	l-32.4-17.3c-0.3-0.1-0.6-0.2-1-0.2c-0.7,0-1.4,0.4-1.7,1.1l-17.3,32.4c-0.5,1-0.1,2.2,0.9,2.8L1598.5,728.7z M1541.9,753.5
	c0.1,0.5,0.5,0.9,1,1.2l32.4,17.3c0.3,0.1,0.6,0.2,1,0.2c0.7,0,1.4-0.4,1.7-1.1l17.3-32.4c0.2-0.4,0.3-1,0.1-1.5
	c-0.1-0.5-0.5-0.9-1-1.2l-32.4-17.3c-0.3-0.1-0.6-0.2-1-0.2c-0.7,0-1.4,0.4-1.7,1.1L1542,752C1541.8,752.5,1541.8,753,1541.9,753.5z
	 M1667.6,598.7c0.3,0.1,0.6,0.2,1,0.2c0.7,0,1.4-0.4,1.7-1.1l17.3-32.4c0.5-1,0.1-2.2-0.9-2.8l-32.4-17.3c-0.3-0.1-0.6-0.2-1-0.2
	c-0.7,0-1.4,0.4-1.7,1.1l-17.3,32.4c-0.2,0.4-0.3,1-0.1,1.5c0.1,0.5,0.5,0.9,1,1.2L1667.6,598.7z M1644.6,642.1
	c0.3,0.1,0.6,0.2,1,0.2c0.7,0,1.4-0.4,1.7-1.1l17.3-32.4c0.2-0.4,0.3-1,0.1-1.5c-0.1-0.5-0.5-0.9-1-1.2l-32.4-17.3
	c-0.3-0.1-0.6-0.2-1-0.2c-0.7,0-1.4,0.4-1.7,1.1l-17.3,32.4c-0.5,1-0.1,2.2,0.9,2.8L1644.6,642.1z M1713.9,511.7l-32.4-17.3
	c-0.3-0.1-0.6-0.2-1-0.2c-0.7,0-1.4,0.4-1.7,1.1l-8.6,16.2c-0.5,1-0.1,2.2,0.9,2.8l32.4,17.3c0.3,0.1,0.6,0.2,1,0.2
	c0.7,0,1.4-0.4,1.7-1.1l8.6-16.2C1715.3,513.5,1714.9,512.2,1713.9,511.7z M1668.1,519.5c-0.3-0.1-0.6-0.2-1-0.2
	c-0.7,0-1.4,0.4-1.7,1.1l-8.6,16.2c-0.2,0.4-0.3,1-0.1,1.5c0.1,0.5,0.5,0.9,1,1.2l32.4,17.3c0.3,0.1,0.6,0.2,1,0.2
	c0.7,0,1.4-0.4,1.7-1.1l8.6-16.2c0.2-0.4,0.3-1,0.1-1.5c-0.1-0.5-0.5-0.9-1-1.2L1668.1,519.5z M1255.9,156c-0.3-0.1-0.6-0.2-1-0.2
	c-0.7,0-1.4,0.4-1.7,1.1l-33.1,62.2c-0.2,0.4-0.3,1-0.1,1.5c0.1,0.5,0.5,0.9,1,1.2l463.6,246.9c0.3,0.1,0.6,0.2,1,0.2
	c0.7,0,1.4-0.4,1.7-1.1l33.1-62.2c0.5-1,0.1-2.2-0.9-2.8L1255.9,156z M1090.2,244.7c-0.3-0.1-0.6-0.2-1-0.2c-0.7,0-1.4,0.4-1.7,1.1
	l-9.6,18.3c-0.2,0.4-0.3,1-0.1,1.5c0.1,0.5,0.5,0.9,1,1.2l32.4,17.3c0.3,0.1,0.6,0.2,1,0.2c0.7,0,1.4-0.4,1.7-1.1l9.7-18.3
	c0.5-1,0.1-2.2-0.9-2.8L1090.2,244.7z M1122.3,262.7l-32.4-17.3c-0.2-0.1-0.3-0.1-0.5-0.1c-0.4,0-0.9,0.2-1.1,0.6l-9.7,18.3
	c-0.1,0.3-0.2,0.6-0.1,0.9s0.3,0.5,0.5,0.6l32.4,17.3c0.5,0.3,1.3,0.1,1.6-0.5l9.7-18.3C1123.1,263.8,1122.8,263,1122.3,262.7z
	 M1074.9,273.4c-0.3-0.1-0.6-0.2-1-0.2c-0.7,0-1.4,0.4-1.7,1.1l-9.7,18.3c-0.2,0.4-0.3,1-0.1,1.5c0.1,0.5,0.5,0.9,1,1.2l32.4,17.3
	c0.3,0.1,0.6,0.2,1,0.2c0.7,0,1.4-0.4,1.7-1.1l9.7-18.3c0.2-0.4,0.3-1,0.1-1.5c-0.1-0.5-0.5-0.9-1-1.2L1074.9,273.4z M1107.6,292.1
	c-0.1-0.3-0.3-0.5-0.5-0.6l-32.4-17.3c-0.2-0.1-0.3-0.1-0.5-0.1c-0.4,0-0.9,0.2-1.1,0.6l-9.7,18.3c-0.1,0.3-0.2,0.6-0.1,0.9
	s0.3,0.5,0.5,0.6l32.4,17.3c0.5,0.3,1.3,0.1,1.6-0.5l9.7-18.3C1107.6,292.7,1107.7,292.4,1107.6,292.1z M1092.4,320.7
	c-0.1-0.3-0.3-0.5-0.5-0.6l-32.4-17.3c-0.2-0.1-0.3-0.1-0.5-0.1c-0.4,0-0.9,0.2-1.1,0.6l-9.7,18.3c-0.3,0.5-0.1,1.3,0.5,1.6
	l32.4,17.3c0.5,0.3,1.3,0.1,1.6-0.5l9.7-18.3C1092.4,321.3,1092.5,321,1092.4,320.7z M1059.7,302c-0.3-0.1-0.6-0.2-1-0.2
	c-0.7,0-1.4,0.4-1.7,1.1l-9.7,18.3c-0.5,1-0.1,2.2,0.9,2.8l32.4,17.3c0.3,0.1,0.6,0.2,1,0.2c0.7,0,1.4-0.4,1.7-1.1l9.7-18.3
	c0.2-0.4,0.3-1,0.1-1.5c-0.1-0.5-0.5-0.9-1-1.2L1059.7,302z M1076.5,348.5l-32.4-17.3c-0.2-0.1-0.3-0.1-0.5-0.1
	c-0.4,0-0.9,0.2-1.1,0.6l-9.7,18.3c-0.3,0.5-0.1,1.3,0.5,1.6l32.4,17.3c0.5,0.3,1.3,0.1,1.6-0.5l9.7-18.3
	C1077.4,349.7,1077.1,348.8,1076.5,348.5z M1044.5,330.6c-0.3-0.1-0.6-0.2-1-0.2c-0.7,0-1.4,0.4-1.7,1.1l-9.7,18.3
	c-0.5,1-0.1,2.2,0.9,2.8l32.4,17.3c0.3,0.1,0.6,0.2,1,0.2c0.7,0,1.4-0.4,1.7-1.1l9.7-18.3c0.5-1,0.1-2.2-0.9-2.8L1044.5,330.6z
	 M1021.5,373.8c-0.3-0.1-0.6-0.2-1-0.2c-0.7,0-1.4,0.4-1.7,1.1l-9.7,18.3c-0.2,0.4-0.3,1-0.1,1.5c0.1,0.5,0.5,0.9,1,1.2l32.4,17.3
	c0.3,0.1,0.6,0.2,1,0.2c0.7,0,1.4-0.4,1.7-1.1l9.7-18.3c0.2-0.4,0.3-1,0.1-1.5c-0.1-0.5-0.5-0.9-1-1.2L1021.5,373.8z M1054,392.5
	c-0.1-0.3-0.3-0.5-0.5-0.6l-32.4-17.3c-0.2-0.1-0.3-0.1-0.5-0.1c-0.4,0-0.9,0.2-1.1,0.6l-9.7,18.3c-0.1,0.3-0.2,0.6-0.1,0.9
	s0.3,0.5,0.5,0.6l32.4,17.3c0.5,0.3,1.3,0.1,1.6-0.5l9.7-18.3C1054.1,393.1,1054.1,392.8,1054,392.5z M1038.8,421.2
	c-0.1-0.3-0.3-0.5-0.5-0.6l-32.4-17.3c-0.2-0.1-0.3-0.1-0.5-0.1c-0.4,0-0.9,0.2-1.1,0.6l-9.7,18.3c-0.3,0.5-0.1,1.3,0.5,1.6
	l32.4,17.3c0.5,0.3,1.3,0.1,1.6-0.5l9.7-18.3C1038.9,421.8,1038.9,421.5,1038.8,421.2z M1006.2,402.4c-0.3-0.1-0.6-0.2-1-0.2
	c-0.7,0-1.4,0.4-1.7,1.1l-9.6,18.3c-0.5,1-0.1,2.2,0.9,2.8l32.4,17.3c0.3,0.1,0.6,0.2,1,0.2c0.7,0,1.4-0.4,1.7-1.1l9.7-18.3
	c0.2-0.4,0.3-1,0.1-1.5c-0.1-0.5-0.5-0.9-1-1.2L1006.2,402.4z M1023,449.1l-32.4-17.3c-0.2-0.1-0.3-0.1-0.5-0.1
	c-0.4,0-0.9,0.2-1.1,0.6l-9.7,18.3c-0.3,0.5-0.1,1.3,0.5,1.6l32.4,17.3c0.5,0.3,1.3,0.1,1.6-0.5l9.7-18.3
	C1023.8,450.1,1023.6,449.3,1023,449.1z M990.9,431.2c-0.3-0.1-0.6-0.2-1-0.2c-0.7,0-1.4,0.4-1.7,1.1l-9.7,18.3
	c-0.5,1-0.1,2.2,0.9,2.8l32.4,17.3c0.3,0.1,0.6,0.2,1,0.2c0.7,0,1.4-0.4,1.7-1.1l9.7-18.3c0.5-1,0.1-2.2-0.9-2.8L990.9,431.2z
	 M1007.3,480.3c-0.1-0.3-0.3-0.5-0.5-0.6l-32.4-17.3c-0.2-0.1-0.3-0.1-0.5-0.1c-0.4,0-0.9,0.2-1.1,0.6l-17.3,32.4
	c-0.1,0.3-0.2,0.6-0.1,0.9c0.1,0.2,0.3,0.5,0.5,0.6l32.4,17.3c0.5,0.3,1.3,0.1,1.6-0.5l17.3-32.4
	C1007.3,480.9,1007.4,480.6,1007.3,480.3z M974.7,461.6c-0.3-0.1-0.6-0.2-1-0.2c-0.7,0-1.4,0.4-1.7,1.1l-17.3,32.4
	c-0.2,0.4-0.3,1-0.1,1.5c0.1,0.5,0.5,0.9,1,1.2L988,515c0.3,0.1,0.6,0.2,1,0.2c0.7,0,1.4-0.4,1.7-1.1l17.3-32.4
	c0.2-0.4,0.3-1,0.1-1.5c-0.1-0.5-0.5-0.9-1-1.2L974.7,461.6z M983.7,522.8l-32.4-17.3c-0.2-0.1-0.3-0.1-0.5-0.1
	c-0.4,0-0.9,0.2-1.1,0.6l-17.3,32.4c-0.3,0.5-0.1,1.3,0.5,1.6l32.4,17.3c0.5,0.3,1.3,0.1,1.6-0.5l17.3-32.4
	C984.5,523.8,984.3,523.2,983.7,522.8z M951.7,504.9c-0.3-0.1-0.6-0.2-1-0.2c-0.7,0-1.4,0.4-1.7,1.1l-17.2,32.4
	c-0.5,1-0.1,2.2,0.9,2.8l32.4,17.3c0.3,0.1,0.6,0.2,1,0.2c0.7,0,1.4-0.4,1.7-1.1l17.3-32.4c0.5-1,0.1-2.2-0.9-2.8L951.7,504.9z
	 M909.4,584.1l32.4,17.3c0.3,0.1,0.6,0.2,1,0.2c0.7,0,1.4-0.4,1.7-1.1l17.3-32.4c0.5-1,0.1-2.2-0.9-2.8L928.6,548
	c-0.3-0.1-0.6-0.2-1-0.2c-0.7,0-1.4,0.4-1.7,1.1l-17.3,32.4C908.1,582.3,908.6,583.7,909.4,584.1z M909.9,583.4l32.4,17.3
	c0.5,0.3,1.3,0.1,1.6-0.5l17.3-32.4c0.3-0.5,0.1-1.3-0.5-1.6l-32.4-17.3c-0.2-0.1-0.3-0.1-0.5-0.1c-0.4,0-0.9,0.2-1.1,0.6
	l-17.3,32.4C909.1,582.3,909.3,583.1,909.9,583.4z M958.9,610.1c0.2,0.6,0.5,1.1,1.2,1.4l31.7,16.9c0.3,0.2,0.7,0.3,1.1,0.3
	c0.9,0,1.7-0.4,2-1.3l178.9-335.8c0.3-0.5,0.3-1.2,0.2-1.8c-0.2-0.6-0.5-1.1-1.2-1.4l-31.7-16.9c-0.3-0.2-0.7-0.3-1.1-0.3
	c-0.9,0-1.7,0.4-2,1.3L959.1,608.2C958.8,608.9,958.7,609.5,958.9,610.1z M1501.5,788.3c0.3,0.1,0.6,0.2,1,0.2
	c0.7,0,1.4-0.4,1.7-1.1l17.3-32.4c0.2-0.4,0.3-1,0.1-1.5c-0.1-0.5-0.5-0.9-1-1.2l-47.8-25.5c-0.3-0.1-0.6-0.2-1-0.2
	c-0.7,0-1.4,0.4-1.7,1.1l-17.3,32.4c-0.2,0.4-0.3,1-0.1,1.5c0.1,0.5,0.5,0.9,1,1.2L1501.5,788.3z M1453.4,761.4
	c0.1,0.3,0.3,0.5,0.5,0.6l47.8,25.5c0.5,0.3,1.3,0.1,1.6-0.5l17.3-32.4c0.1-0.3,0.2-0.6,0.1-0.9c-0.1-0.3-0.3-0.5-0.5-0.6
	l-47.8-25.5c-0.2-0.1-0.3-0.1-0.5-0.1c-0.4,0-0.9,0.2-1.1,0.6l-17.3,32.4C1453.3,760.9,1453.3,761.2,1453.4,761.4z M1430.5,806.3
	l47.8,25.5c0.3,0.1,0.6,0.2,1,0.2c0.7,0,1.4-0.4,1.7-1.1l17.3-32.4c0.5-1,0.1-2.2-0.9-2.8l-47.8-25.5c-0.3-0.1-0.6-0.2-1-0.2
	c-0.7,0-1.4,0.4-1.7,1.1l-17.3,32.4C1429.2,804.4,1429.5,805.7,1430.5,806.3z M1430.8,805.5l47.8,25.5c0.5,0.3,1.3,0.1,1.6-0.5
	l17.3-32.4c0.3-0.5,0.1-1.3-0.5-1.6l-47.8-25.5c-0.2-0.1-0.3-0.1-0.5-0.1c-0.4,0-0.9,0.2-1.1,0.6l-17.3,32.4
	C1430.1,804.4,1430.3,805.2,1430.8,805.5z M1406.6,848.3c0.1,0.5,0.5,0.9,1,1.2l47.8,25.5c0.3,0.1,0.6,0.2,1,0.2
	c0.7,0,1.4-0.4,1.7-1.1l17.3-32.4c0.5-1,0.1-2.2-0.9-2.8l-47.8-25.5c-0.3-0.1-0.6-0.2-1-0.2c-0.7,0-1.4,0.4-1.7,1.1l-17.3,32.4
	C1406.5,847.4,1406.4,847.8,1406.6,848.3z M1407.3,848.1c0.1,0.3,0.3,0.5,0.5,0.6l47.8,25.5c0.5,0.3,1.3,0.1,1.6-0.5l17.3-32.4
	c0.3-0.5,0.1-1.3-0.5-1.6l-47.8-25.5c-0.2-0.1-0.3-0.1-0.5-0.1c-0.4,0-0.9,0.2-1.1,0.6l-17.3,32.4
	C1407.2,847.5,1407.2,847.8,1407.3,848.1z M1570.6,658.4c0.3,0.1,0.6,0.2,1,0.2c0.7,0,1.4-0.4,1.7-1.1l17.3-32.4
	c0.2-0.4,0.3-1,0.1-1.5c-0.1-0.5-0.5-0.9-1-1.2l-47.8-25.5c-0.3-0.1-0.6-0.2-1-0.2c-0.7,0-1.4,0.4-1.7,1.1l-17.3,32.4
	c-0.5,1-0.1,2.2,0.9,2.8L1570.6,658.4z M1499.8,676.3l47.8,25.5c0.3,0.1,0.6,0.2,1,0.2c0.7,0,1.4-0.4,1.7-1.1l17.3-32.4
	c0.5-1,0.1-2.2-0.9-2.8l-47.8-25.5c-0.3-0.1-0.6-0.2-1-0.2c-0.7,0-1.4,0.4-1.7,1.1l-17.3,32.4
	C1498.4,674.5,1498.8,675.8,1499.8,676.3z M1524.5,745.1c0.3,0.1,0.6,0.2,1,0.2c0.7,0,1.4-0.4,1.7-1.1l17.3-32.4
	c0.5-1,0.1-2.2-0.9-2.8l-47.8-25.5c-0.3-0.1-0.6-0.2-1-0.2c-0.7,0-1.4,0.4-1.7,1.1l-17.3,32.4c-0.2,0.4-0.3,1-0.1,1.5
	c0.1,0.5,0.5,0.9,1,1.2L1524.5,745.1z M1616.9,571.8c0.3,0.1,0.6,0.2,1,0.2c0.7,0,1.4-0.4,1.7-1.1l17.3-32.4c0.5-1,0.1-2.2-0.9-2.8
	l-47.8-25.5c-0.3-0.1-0.6-0.2-1-0.2c-0.7,0-1.4,0.4-1.7,1.1l-17.3,32.4c-0.2,0.4-0.3,1-0.1,1.5c0.1,0.5,0.5,0.9,1,1.2L1616.9,571.8z
	 M1544.9,588.5c0.1,0.5,0.5,0.9,1,1.2l47.8,25.5c0.3,0.1,0.6,0.2,1,0.2c0.7,0,1.4-0.4,1.7-1.1l17.3-32.4c0.2-0.4,0.3-1,0.1-1.5
	c-0.2-0.5-0.5-0.9-1-1.2l-47.8-25.5c-0.3-0.1-0.6-0.2-1-0.2c-0.7,0-1.4,0.4-1.7,1.1L1545,587C1544.8,587.4,1544.7,588,1544.9,588.5z
	 M1663.2,484.8l-47.8-25.5c-0.3-0.1-0.6-0.2-1-0.2c-0.7,0-1.4,0.4-1.7,1.1l-8.6,16.2c-0.5,1-0.1,2.2,0.9,2.8l47.8,25.5
	c0.3,0.1,0.6,0.2,1,0.2c0.7,0,1.4-0.4,1.7-1.1l8.6-16.2C1664.5,486.6,1664,485.4,1663.2,484.8z M1650.7,511.1
	c-0.1-0.5-0.5-0.9-1-1.2l-47.8-25.5c-0.3-0.1-0.6-0.2-1-0.2c-0.7,0-1.4,0.4-1.7,1.1l-8.6,16.2c-0.2,0.4-0.3,1-0.1,1.5
	c0.1,0.5,0.5,0.9,1,1.2l47.8,25.5c0.3,0.1,0.6,0.2,1,0.2c0.7,0,1.4-0.4,1.7-1.1l8.6-16.2C1650.8,512.2,1650.9,511.6,1650.7,511.1z
	 M1340,702.4l47.8,25.5c0.3,0.1,0.6,0.2,1,0.2c0.7,0,1.4-0.4,1.7-1.1l17.3-32.4c0.5-1,0.1-2.2-0.9-2.8l-47.8-25.5
	c-0.3-0.1-0.6-0.2-1-0.2c-0.7,0-1.4,0.4-1.7,1.1l-17.3,32.4C1338.6,700.7,1339,701.9,1340,702.4z M1340.3,701.6l47.8,25.5
	c0.5,0.3,1.3,0.1,1.6-0.5l17.3-32.4c0.3-0.5,0.1-1.3-0.5-1.6l-47.8-25.5c-0.2-0.1-0.3-0.1-0.5-0.1c-0.4,0-0.9,0.2-1.1,0.6
	l-17.3,32.4C1339.5,700.7,1339.7,701.3,1340.3,701.6z M1316.7,744.2c0.1,0.3,0.3,0.5,0.5,0.6l47.8,25.5c0.5,0.3,1.3,0.1,1.6-0.5
	l17.3-32.4c0.3-0.5,0.1-1.3-0.5-1.6l-47.8-25.5c-0.2-0.1-0.3-0.1-0.5-0.1c-0.4,0-0.9,0.2-1.1,0.6l-17.3,32.4
	C1316.6,743.6,1316.6,743.9,1316.7,744.2z M1315.9,744.5c0.1,0.5,0.5,0.9,1,1.2l47.8,25.5c0.3,0.1,0.6,0.2,1,0.2
	c0.7,0,1.4-0.4,1.7-1.1l17.3-32.4c0.5-1,0.1-2.2-0.9-2.8l-47.8-25.5c-0.3-0.1-0.6-0.2-1-0.2c-0.7,0-1.4,0.4-1.7,1.1L1316,743
	C1315.8,743.5,1315.7,744,1315.9,744.5z M1293.8,789l47.8,25.5c0.3,0.1,0.6,0.2,1,0.2c0.7,0,1.4-0.4,1.7-1.1l17.3-32.4
	c0.2-0.4,0.3-1,0.1-1.5c-0.1-0.5-0.5-0.9-1-1.2l-47.8-25.5c-0.3-0.1-0.6-0.2-1-0.2c-0.7,0-1.4,0.4-1.7,1.1l-17.3,32.4
	C1292.5,787.3,1292.8,788.5,1293.8,789z M1294.2,788.2l47.8,25.5c0.5,0.3,1.3,0.1,1.6-0.5l17.3-32.4c0.1-0.3,0.2-0.6,0.1-0.9
	s-0.3-0.5-0.5-0.6l-47.8-25.5c-0.2-0.1-0.3-0.1-0.5-0.1c-0.4,0-0.9,0.2-1.1,0.6l-17.3,32.4C1293.4,787.2,1293.6,787.9,1294.2,788.2z
	 M1457.1,598c0.3,0.1,0.6,0.2,1,0.2c0.7,0,1.4-0.4,1.7-1.1l17.3-32.4c0.5-1,0.1-2.2-0.9-2.8l-47.8-25.5c-0.3-0.1-0.6-0.2-1-0.2
	c-0.7,0-1.4,0.4-1.7,1.1l-17.3,32.4c-0.5,1-0.1,2.2,0.9,2.8L1457.1,598z M1409.5,571.7l47.8,25.5c0.5,0.3,1.3,0.1,1.6-0.5l17.3-32.4
	c0.3-0.5,0.1-1.3-0.5-1.6l-47.8-25.5c-0.2-0.1-0.3-0.1-0.5-0.1c-0.4,0-0.9,0.2-1.1,0.6L1409,570
	C1408.7,570.7,1408.9,571.4,1409.5,571.7z M1433.9,641.2c0.3,0.1,0.6,0.2,1,0.2c0.7,0,1.4-0.4,1.7-1.1l17.3-32.4
	c0.2-0.4,0.3-1,0.1-1.5c-0.1-0.5-0.5-0.9-1-1.2l-47.8-25.5c-0.3-0.1-0.6-0.2-1-0.2c-0.7,0-1.4,0.4-1.7,1.1l-17.3,32.4
	c-0.2,0.4-0.3,1-0.1,1.5c0.1,0.5,0.5,0.9,1,1.2L1433.9,641.2z M1385.9,614.3c0.1,0.3,0.3,0.5,0.5,0.6l47.8,25.5
	c0.5,0.3,1.3,0.1,1.6-0.5l17.3-32.4c0.1-0.3,0.2-0.6,0.1-0.9c-0.1-0.2-0.3-0.5-0.5-0.6l-47.8-25.5c-0.2-0.1-0.3-0.1-0.5-0.1
	c-0.4,0-0.9,0.2-1.1,0.6l-17.3,32.4C1385.9,613.7,1385.8,614,1385.9,614.3z M1363.3,658.3l47.8,25.5c0.5,0.3,1.3,0.1,1.6-0.5
	l17.3-32.4c0.1-0.3,0.2-0.6,0.1-0.9c-0.1-0.3-0.3-0.5-0.5-0.6l-47.8-25.5c-0.2-0.1-0.3-0.1-0.5-0.1c-0.4,0-0.9,0.2-1.1,0.6
	l-17.3,32.4C1362.6,657.2,1362.8,658,1363.3,658.3z M1363,659.1l47.8,25.5c0.3,0.1,0.6,0.2,1,0.2c0.7,0,1.4-0.4,1.7-1.1l17.3-32.4
	c0.2-0.4,0.3-1,0.1-1.5c-0.1-0.5-0.5-0.9-1-1.2l-47.8-25.5c-0.3-0.1-0.6-0.2-1-0.2c-0.7,0-1.4,0.4-1.7,1.1l-17.3,32.4
	C1361.6,657.3,1362.1,658.5,1363,659.1z M1523.4,476.6c-0.1-0.5-0.5-0.9-1-1.2l-47.8-25.5c-0.3-0.1-0.6-0.2-1-0.2
	c-0.7,0-1.4,0.4-1.7,1.1l-17.3,32.4c-0.2,0.4-0.3,1-0.1,1.5c0.1,0.5,0.5,0.9,1,1.2l47.8,25.5c0.3,0.1,0.6,0.2,1,0.2
	c0.7,0,1.4-0.4,1.7-1.1l17.3-32.4C1523.5,477.6,1523.5,477.1,1523.4,476.6z M1432.2,529l47.8,25.5c0.3,0.1,0.6,0.2,1,0.2
	c0.7,0,1.4-0.4,1.7-1.1l17.3-32.4c0.2-0.4,0.3-1,0.1-1.5c-0.2-0.5-0.5-0.9-1-1.2l-47.8-25.5c-0.3-0.1-0.6-0.2-1-0.2
	c-0.7,0-1.4,0.4-1.7,1.1l-17.3,32.4C1430.8,527.4,1431.2,528.6,1432.2,529z M1549.5,424.3l-47.8-25.5c-0.3-0.1-0.6-0.2-1-0.2
	c-0.7,0-1.4,0.4-1.7,1.1l-8.6,16.2c-0.5,1-0.1,2.2,0.9,2.8l47.8,25.5c0.3,0.1,0.6,0.2,1,0.2c0.7,0,1.4-0.4,1.7-1.1l8.6-16.2
	C1550.8,426,1550.5,424.8,1549.5,424.3z M1536.2,449.4l-47.8-25.5c-0.3-0.1-0.6-0.2-1-0.2c-0.7,0-1.4,0.4-1.7,1.1L1477,441
	c-0.5,1-0.1,2.2,0.9,2.8l47.8,25.5c0.3,0.1,0.6,0.2,1,0.2c0.7,0,1.4-0.4,1.7-1.1l8.6-16.2C1537.4,451.1,1537.1,449.9,1536.2,449.4z
	 M1226.4,641.8l47.8,25.5c0.3,0.1,0.6,0.2,1,0.2c0.7,0,1.4-0.4,1.7-1.1l17.3-32.4c0.5-1,0.1-2.2-0.9-2.8l-47.8-25.5
	c-0.3-0.1-0.6-0.2-1-0.2c-0.7,0-1.4,0.4-1.7,1.1l-17.3,32.4C1224.9,640.1,1225.3,641.2,1226.4,641.8z M1226.7,641.1l47.8,25.5
	c0.5,0.3,1.3,0.1,1.6-0.5l17.3-32.4c0.3-0.5,0.1-1.3-0.5-1.6l-47.8-25.5c-0.2-0.1-0.3-0.1-0.5-0.1c-0.4,0-0.9,0.2-1.1,0.6
	l-17.3,32.4C1225.9,640.1,1226.2,640.8,1226.7,641.1z M1202.3,684c0.1,0.5,0.5,0.9,1,1.2l47.8,25.5c0.3,0.1,0.6,0.2,1,0.2
	c0.7,0,1.4-0.4,1.7-1.1l17.3-32.4c0.2-0.4,0.3-1,0.1-1.5c-0.1-0.5-0.5-0.9-1-1.2l-47.8-25.5c-0.3-0.1-0.6-0.2-1-0.2
	c-0.7,0-1.4,0.4-1.7,1.1l-17.3,32.4C1202.1,682.9,1202.1,683.4,1202.3,684z M1203,683.7c0.1,0.3,0.3,0.5,0.5,0.6l47.8,25.5
	c0.5,0.3,1.3,0.1,1.6-0.5l17.3-32.4c0.1-0.3,0.2-0.6,0.1-0.9c-0.1-0.3-0.3-0.5-0.5-0.6l-47.8-25.5c-0.2-0.1-0.3-0.1-0.5-0.1
	c-0.4,0-0.9,0.2-1.1,0.6l-17.3,32.4C1203,683.1,1202.9,683.4,1203,683.7z M1180.2,728.4l47.8,25.5c0.3,0.1,0.6,0.2,1,0.2
	c0.7,0,1.4-0.4,1.7-1.1l17.3-32.4c0.5-1,0.1-2.2-0.9-2.8l-47.8-25.5c-0.3-0.1-0.6-0.2-1-0.2c-0.7,0-1.4,0.4-1.7,1.1l-17.3,32.4
	C1178.8,726.7,1179.2,727.9,1180.2,728.4z M1180.1,727.1c0.1,0.3,0.3,0.5,0.5,0.6l47.8,25.5c0.5,0.3,1.3,0.1,1.6-0.5l17.3-32.4
	c0.3-0.5,0.1-1.3-0.5-1.6l-47.8-25.5c-0.2-0.1-0.3-0.1-0.5-0.1c-0.4,0-0.9,0.2-1.1,0.6l-17.3,32.4
	C1179.8,726.4,1179.8,726.7,1180.1,727.1z M1362.7,502.9c-0.1-0.3-0.3-0.5-0.5-0.6l-47.8-25.5c-0.2-0.1-0.3-0.1-0.5-0.1
	c-0.4,0-0.9,0.2-1.1,0.6l-17.3,32.4c-0.1,0.3-0.2,0.6-0.1,0.9s0.3,0.5,0.5,0.6l47.8,25.5c0.5,0.3,1.3,0.1,1.6-0.5l17.3-32.4
	C1362.8,503.5,1362.8,503.2,1362.7,502.9z M1314.7,476c-0.3-0.1-0.6-0.2-1-0.2c-0.7,0-1.4,0.4-1.7,1.1l-17.3,32.4
	c-0.2,0.4-0.3,1-0.1,1.5c0.2,0.5,0.5,0.9,1,1.2l47.8,25.5c0.3,0.1,0.6,0.2,1,0.2c0.7,0,1.4-0.4,1.7-1.1l17.3-32.4
	c0.2-0.4,0.3-1,0.1-1.5c-0.1-0.5-0.5-0.9-1-1.2L1314.7,476z M1339.6,546.2c-0.1-0.3-0.3-0.5-0.5-0.6l-47.8-25.5
	c-0.2-0.1-0.3-0.1-0.5-0.1c-0.4,0-0.9,0.2-1.1,0.6l-17.3,32.4c-0.1,0.3-0.2,0.6-0.1,0.9c0.1,0.2,0.3,0.5,0.5,0.6l47.8,25.5
	c0.5,0.3,1.3,0.1,1.6-0.5l17.3-32.4C1339.7,546.9,1339.7,546.5,1339.6,546.2z M1291.5,519.2c-0.3-0.1-0.6-0.2-1-0.2
	c-0.7,0-1.4,0.4-1.7,1.1l-17.3,32.4c-0.2,0.4-0.3,1-0.1,1.5c0.1,0.5,0.5,0.9,1,1.2l47.8,25.5c0.3,0.1,0.6,0.2,1,0.2
	c0.7,0,1.4-0.4,1.7-1.1l17.3-32.4c0.2-0.4,0.3-1,0.1-1.5c-0.1-0.5-0.5-0.9-1-1.2L1291.5,519.2z M1249.7,597.8l47.8,25.5
	c0.5,0.3,1.3,0.1,1.6-0.5l17.3-32.4c0.3-0.5,0.1-1.3-0.5-1.6l-47.8-25.5c-0.2-0.1-0.3-0.1-0.5-0.1c-0.4,0-0.9,0.2-1.1,0.6
	l-17.3,32.4C1248.9,596.8,1249.1,597.6,1249.7,597.8z M1249.3,598.5l47.8,25.5c0.3,0.1,0.6,0.2,1,0.2c0.7,0,1.4-0.4,1.7-1.1
	l17.3-32.4c0.5-1,0.1-2.2-0.9-2.8l-47.8-25.5c-0.3-0.1-0.6-0.2-1-0.2c-0.7,0-1.4,0.4-1.7,1.1l-17.3,32.4
	C1248.1,596.8,1248.4,598,1249.3,598.5z M1408.8,416.3c-0.1-0.3-0.3-0.5-0.5-0.6l-47.8-25.5c-0.2-0.1-0.3-0.1-0.5-0.1
	c-0.4,0-0.9,0.2-1.1,0.6l-17.3,32.4c-0.3,0.5-0.1,1.3,0.5,1.6l47.8,25.5c0.5,0.3,1.3,0.1,1.6-0.5l17.2-32.4
	C1408.9,416.9,1408.9,416.6,1408.8,416.3z M1409.6,416c-0.1-0.5-0.5-0.9-1-1.2l-47.8-25.5c-0.3-0.1-0.6-0.2-1-0.2
	c-0.7,0-1.4,0.4-1.7,1.1l-17.2,32.4c-0.5,1-0.1,2.2,0.9,2.8l47.8,25.5c0.3,0.1,0.6,0.2,1,0.2c0.7,0,1.4-0.4,1.7-1.1l17.3-32.4
	C1409.7,417.2,1409.7,416.6,1409.6,416z M1385.2,458.9l-47.8-25.5c-0.2-0.1-0.3-0.1-0.5-0.1c-0.4,0-0.9,0.2-1.1,0.6l-17.3,32.4
	c-0.3,0.5-0.1,1.3,0.5,1.6l47.8,25.5c0.5,0.3,1.3,0.1,1.6-0.5l17.3-32.4C1386.1,460,1385.9,459.2,1385.2,458.9z M1337.6,432.6
	c-0.3-0.1-0.6-0.2-1-0.2c-0.7,0-1.4,0.4-1.7,1.1l-17.3,32.4c-0.5,1-0.1,2.2,0.9,2.8l47.8,25.5c0.3,0.1,0.6,0.2,1,0.2
	c0.7,0,1.4-0.4,1.7-1.1l17.3-32.4c0.5-1,0.1-2.2-0.9-2.8L1337.6,432.6z M1436,365.2c-0.1-0.3-0.3-0.5-0.5-0.6l-47.8-25.5
	c-0.2-0.1-0.3-0.1-0.5-0.1c-0.4,0-0.9,0.2-1.1,0.6l-8.6,16.2c-0.1,0.3-0.2,0.6-0.1,0.9s0.3,0.5,0.5,0.6l47.8,25.5
	c0.5,0.3,1.3,0.1,1.6-0.5l8.6-16.2C1436.1,365.8,1436.1,365.5,1436,365.2z M1436.8,365c-0.1-0.5-0.5-0.9-1-1.2l-47.8-25.5
	c-0.3-0.1-0.6-0.2-1-0.2c-0.7,0-1.4,0.4-1.7,1.1l-8.6,16.2c-0.2,0.4-0.3,1-0.1,1.5c0.1,0.5,0.5,0.9,1,1.2l47.8,25.5
	c0.3,0.1,0.6,0.2,1,0.2c0.7,0,1.4-0.4,1.7-1.1l8.6-16.2C1436.9,365.9,1437,365.4,1436.8,365z M1422.1,389.5l-47.8-25.5
	c-0.2-0.1-0.3-0.1-0.5-0.1c-0.4,0-0.9,0.2-1.1,0.6l-8.6,16.2c-0.3,0.5-0.1,1.3,0.5,1.6l47.8,25.5c0.5,0.3,1.3,0.1,1.6-0.5l8.6-16.2
	C1423,390.6,1422.8,389.8,1422.1,389.5z M1422.6,388.9l-47.8-25.5c-0.3-0.1-0.6-0.2-1-0.2c-0.7,0-1.4,0.4-1.7,1.1l-8.6,16.2
	c-0.5,1-0.1,2.2,0.9,2.8l47.8,25.5c0.3,0.1,0.6,0.2,1,0.2c0.7,0,1.4-0.4,1.7-1.1l8.6-16.2C1423.9,390.6,1423.4,389.4,1422.6,388.9z
	 M1179.8,572.3c-0.1-0.3-0.3-0.5-0.5-0.6l-47.8-25.5c-0.2-0.1-0.3-0.1-0.5-0.1c-0.4,0-0.9,0.2-1.1,0.6l-17.3,32.4
	c-0.1,0.3-0.2,0.6-0.1,0.9s0.3,0.5,0.5,0.6l47.8,25.5c0.5,0.3,1.3,0.1,1.6-0.5l17.3-32.4C1179.8,572.9,1180.1,572.6,1179.8,572.3z
	 M1131.8,545.4c-0.3-0.1-0.6-0.2-1-0.2c-0.7,0-1.4,0.4-1.7,1.1l-17.3,32.4c-0.2,0.4-0.3,1-0.1,1.5c0.1,0.5,0.5,0.9,1,1.2l47.8,25.5
	c0.3,0.1,0.6,0.2,1,0.2c0.7,0,1.4-0.4,1.7-1.1l17.3-32.4c0.2-0.4,0.3-1,0.1-1.5c-0.2-0.5-0.5-0.9-1-1.2L1131.8,545.4z M1089.5,624.6
	l47.8,25.5c0.3,0.1,0.6,0.2,1,0.2c0.7,0,1.4-0.4,1.7-1.1l17.3-32.4c0.2-0.4,0.3-1,0.1-1.5c-0.1-0.5-0.5-0.9-1-1.2l-47.8-25.5
	c-0.3-0.1-0.6-0.2-1-0.2c-0.7,0-1.4,0.4-1.7,1.1l-17.3,32.4C1088.2,622.9,1088.7,624,1089.5,624.6z M1090,623.8l47.8,25.5
	c0.5,0.3,1.3,0.1,1.6-0.5l17.3-32.4c0.1-0.3,0.2-0.6,0.1-0.9c-0.1-0.3-0.3-0.5-0.5-0.6l-47.8-25.5c-0.2-0.1-0.3-0.1-0.5-0.1
	c-0.4,0-0.9,0.2-1.1,0.6l-17.3,32.4C1089.2,622.9,1089.4,623.6,1090,623.8z M1066.8,667.3l47.8,25.5c0.5,0.3,1.3,0.1,1.6-0.5
	l17.3-32.4c0.3-0.5,0.1-1.3-0.5-1.6l-47.8-25.5c-0.2-0.1-0.3-0.1-0.5-0.1c-0.4,0-0.9,0.2-1.1,0.6l-17.3,32.4
	C1066,666.1,1066.3,666.9,1066.8,667.3z M1066.5,667.9l47.8,25.5c0.3,0.1,0.6,0.2,1,0.2c0.7,0,1.4-0.4,1.7-1.1l17.3-32.4
	c0.5-1,0.1-2.2-0.9-2.8l-47.8-25.4c-0.3-0.1-0.6-0.2-1-0.2c-0.7,0-1.4,0.4-1.7,1.1l-17.3,32.4
	C1065.2,666.1,1065.5,667.5,1066.5,667.9z M1249,442.4c-0.1-0.3-0.3-0.5-0.5-0.6l-47.8-25.5c-0.2-0.1-0.3-0.1-0.5-0.1
	c-0.4,0-0.9,0.2-1.1,0.6l-17.2,32.3c-0.1,0.3-0.2,0.6-0.1,0.9s0.3,0.5,0.5,0.6l47.8,25.5c0.5,0.3,1.3,0.1,1.6-0.5l17.3-32.4
	C1249.1,443,1249.1,442.7,1249,442.4z M1201,415.5c-0.3-0.1-0.6-0.2-1-0.2c-0.7,0-1.4,0.4-1.7,1.1l-17.3,32.4
	c-0.2,0.4-0.3,1-0.1,1.5c0.1,0.5,0.5,0.9,1,1.2l47.8,25.5c0.3,0.1,0.6,0.2,1,0.2c0.7,0,1.4-0.4,1.7-1.1l17.3-32.4
	c0.2-0.4,0.3-1,0.1-1.5c-0.1-0.5-0.5-0.9-1-1.2L1201,415.5z M1225.4,484.9l-47.8-25.5c-0.2-0.1-0.3-0.1-0.5-0.1
	c-0.4,0-0.9,0.2-1.1,0.6l-17.3,32.4c-0.3,0.5-0.1,1.3,0.5,1.6l47.8,25.5c0.5,0.3,1.3,0.1,1.6-0.5l17.3-32.4
	C1226.3,486,1226.1,485.3,1225.4,484.9z M1177.9,458.8c-0.3-0.1-0.6-0.2-1-0.2c-0.7,0-1.4,0.4-1.7,1.1l-17.3,32.4
	c-0.5,1-0.1,2.2,0.9,2.8l47.8,25.5c0.3,0.1,0.6,0.2,1,0.2c0.7,0,1.4-0.4,1.7-1.1l17.3-32.4c0.5-1,0.1-2.2-0.9-2.8L1177.9,458.8z
	 M1154.8,502c-0.3-0.1-0.6-0.2-1-0.2c-0.7,0-1.4,0.4-1.7,1.1l-17.3,32.4c-0.5,1-0.1,2.2,0.9,2.8l47.8,25.5c0.3,0.1,0.6,0.2,1,0.2
	c0.7,0,1.4-0.4,1.7-1.1l17.3-32.4c0.5-1,0.1-2.2-0.9-2.8L1154.8,502z M1202.4,528.3l-47.8-25.5c-0.2-0.1-0.3-0.1-0.5-0.1
	c-0.4,0-0.9,0.2-1.1,0.6l-17.3,32.4c-0.3,0.5-0.1,1.3,0.5,1.6l47.8,25.5c0.5,0.3,1.3,0.1,1.6-0.5l17.3-32.4
	C1203.1,529.4,1202.9,528.5,1202.4,528.3z M1294.6,355l-47.8-25.5c-0.2-0.1-0.3-0.1-0.5-0.1c-0.4,0-0.9,0.2-1.1,0.6l-17.2,32.4
	c-0.3,0.5-0.1,1.3,0.5,1.6l47.8,25.5c0.5,0.3,1.3,0.1,1.6-0.5l17.3-32.4C1295.4,356.1,1295.2,355.4,1294.6,355z M1247.1,328.9
	c-0.3-0.1-0.6-0.2-1-0.2c-0.7,0-1.4,0.4-1.7,1.1l-17.3,32.4c-0.5,1-0.1,2.2,0.9,2.8l47.8,25.5c0.3,0.1,0.6,0.2,1,0.2
	c0.7,0,1.4-0.4,1.7-1.1l17.3-32.6c0.5-1,0.1-2.2-0.9-2.8L1247.1,328.9z M1272.2,399c-0.1-0.3-0.3-0.5-0.5-0.6l-47.9-25.5
	c-0.2-0.1-0.3-0.1-0.5-0.1c-0.4,0-0.9,0.2-1.1,0.6l-17.3,32.4c-0.1,0.3-0.2,0.6-0.1,0.9s0.3,0.5,0.5,0.6l47.8,25.5
	c0.5,0.3,1.3,0.1,1.6-0.5l17.3-32.4C1272.3,399.8,1272.3,399.3,1272.2,399z M1224,372.1c-0.3-0.1-0.6-0.2-1-0.2
	c-0.7,0-1.4,0.4-1.7,1.1l-17.3,32.4c-0.2,0.4-0.3,1-0.1,1.5c0.1,0.5,0.5,0.9,1,1.2l47.8,25.5c0.3,0.1,0.6,0.2,1,0.2
	c0.7,0,1.4-0.4,1.7-1.1l17.3-32.4c0.2-0.4,0.3-1,0.1-1.5c-0.1-0.5-0.5-0.9-1-1.2L1224,372.1z M1323.2,304.4c-0.1-0.5-0.5-0.9-1-1.2
	l-47.8-25.5c-0.3-0.1-0.6-0.2-1-0.2c-0.7,0-1.4,0.4-1.7,1.1l-8.6,16.2c-0.5,1-0.1,2.2,0.9,2.8l47.8,25.5c0.3,0.1,0.6,0.2,1,0.2
	c0.7,0,1.4-0.4,1.7-1.1l8.6-16.2C1323.3,305.5,1323.3,305,1323.2,304.4z M1322.5,304.7c-0.1-0.3-0.3-0.5-0.5-0.6l-47.8-25.5
	c-0.2-0.1-0.3-0.1-0.5-0.1c-0.4,0-0.9,0.2-1.1,0.6l-8.6,16.2c-0.3,0.5-0.1,1.3,0.5,1.6l47.8,25.5c0.5,0.3,1.3,0.1,1.6-0.5l8.6-16.2
	C1322.5,305.3,1322.6,305,1322.5,304.7z M1261,302.8c-0.3-0.1-0.6-0.2-1-0.2c-0.7,0-1.4,0.4-1.7,1.1l-8.6,16.2
	c-0.2,0.4-0.3,1-0.1,1.5c0.1,0.5,0.5,0.9,1,1.2l47.8,25.5c0.3,0.1,0.6,0.2,1,0.2c0.7,0,1.4-0.4,1.7-1.1l8.6-16.2
	c0.2-0.4,0.3-1,0.1-1.5c-0.1-0.5-0.5-0.9-1-1.2L1261,302.8z M1309,329.7c-0.1-0.3-0.3-0.5-0.5-0.6l-47.8-25.5
	c-0.2-0.1-0.3-0.1-0.5-0.1c-0.4,0-0.9,0.2-1.1,0.6l-8.6,16.2c-0.1,0.3-0.2,0.6-0.1,0.9s0.3,0.5,0.5,0.6l47.8,25.5
	c0.5,0.3,1.3,0.1,1.6-0.5l8.6-16.2C1309.1,330.4,1309.1,330.1,1309,329.7z M1169.5,611.6l47.8,25.5c0.3,0.1,0.6,0.2,1,0.2
	c0.7,0,1.4-0.4,1.7-1.1l17.3-32.4c0.5-1,0.1-2.2-0.9-2.8l-47.8-25.5c-0.3-0.1-0.6-0.2-1-0.2c-0.7,0-1.4,0.4-1.7,1.1l-17.3,32.4
	C1168.2,609.8,1168.5,611,1169.5,611.6z M1169.8,610.8l47.8,25.5c0.5,0.3,1.3,0.1,1.6-0.5l17.3-32.4c0.3-0.5,0.1-1.3-0.5-1.6
	l-47.8-25.5c-0.2-0.1-0.3-0.1-0.5-0.1c-0.4,0-0.9,0.2-1.1,0.6l-17.3,32.4C1169.1,609.8,1169.3,610.6,1169.8,610.8z M1146.3,654.9
	l47.8,25.5c0.3,0.1,0.6,0.2,1,0.2c0.7,0,1.4-0.4,1.7-1.1l17.3-32.4c0.5-1,0.1-2.2-0.9-2.8l-47.8-25.5c-0.3-0.1-0.6-0.2-1-0.2
	c-0.7,0-1.4,0.4-1.7,1.1l-17.3,32.4C1145,653.1,1145.4,654.3,1146.3,654.9z M1146.9,654.1l47.8,25.5c0.5,0.3,1.3,0.1,1.6-0.5
	l17.3-32.4c0.3-0.5,0.1-1.3-0.5-1.6l-47.8-25.5c-0.2-0.1-0.3-0.1-0.5-0.1c-0.4,0-0.9,0.2-1.1,0.6l-17.3,32.4
	C1145.9,653.1,1146.1,653.8,1146.9,654.1z M1122.4,697.1c0.1,0.5,0.5,0.9,1,1.2l47.8,25.5c0.3,0.1,0.6,0.2,1,0.2
	c0.7,0,1.4-0.4,1.7-1.1l17.3-32.4c0.2-0.4,0.3-1,0.1-1.5c-0.1-0.5-0.5-0.9-1-1.2l-47.8-25.5c-0.3-0.1-0.6-0.2-1-0.2
	c-0.7,0-1.4,0.4-1.7,1.1l-17.3,32.4C1122.3,695.9,1122.2,696.5,1122.4,697.1z M1123.2,696.8c0.1,0.3,0.3,0.5,0.5,0.6l47.8,25.5
	c0.5,0.3,1.3,0.1,1.6-0.5l17.3-32.4c0.1-0.3,0.2-0.6,0.1-0.9c-0.1-0.3-0.3-0.5-0.5-0.6l-47.8-25.5c-0.2-0.1-0.3-0.1-0.5-0.1
	c-0.4,0-0.9,0.2-1.1,0.6l-17.3,32.4C1123.1,696.1,1123.1,696.5,1123.2,696.8z M1257.8,445.8c-0.3-0.1-0.6-0.2-1-0.2
	c-0.7,0-1.4,0.4-1.7,1.1l-17.3,32.4c-0.5,1-0.1,2.2,0.9,2.8l47.8,25.5c0.3,0.1,0.6,0.2,1,0.2c0.7,0,1.4-0.4,1.7-1.1l17.3-32.4
	c0.5-1,0.1-2.2-0.9-2.8L1257.8,445.8z M1305.3,471.9l-47.8-25.5c-0.2-0.1-0.3-0.1-0.5-0.1c-0.4,0-0.9,0.2-1.1,0.6l-17.3,32.4
	c-0.3,0.5-0.1,1.3,0.5,1.6l47.8,25.5c0.5,0.3,1.3,0.1,1.6-0.5l17.3-32.4C1306.1,473,1305.9,472.2,1305.3,471.9z M1282.2,515.3
	l-47.8-25.5c-0.2-0.1-0.3-0.1-0.5-0.1c-0.4,0-0.9,0.2-1.1,0.6l-17.3,32.4c-0.1,0.3-0.2,0.6-0.1,0.9c0.1,0.3,0.3,0.5,0.5,0.6
	l47.8,25.5c0.5,0.3,1.3,0.1,1.6-0.5l17.3-32.4C1283.1,516.2,1282.9,515.5,1282.2,515.3z M1234.8,489c-0.3-0.1-0.6-0.2-1-0.2
	c-0.7,0-1.4,0.4-1.7,1.1l-17.3,32.4c-0.2,0.4-0.3,1-0.1,1.5c0.1,0.5,0.5,0.9,1,1.2l47.8,25.5c0.3,0.1,0.6,0.2,1,0.2
	c0.7,0,1.4-0.4,1.7-1.1l17.3-32.4c0.5-1,0.1-2.2-0.9-2.8L1234.8,489z M1259.8,559.2c-0.1-0.3-0.3-0.5-0.5-0.6l-47.8-25.5
	c-0.2-0.1-0.3-0.1-0.5-0.1c-0.4,0-0.9,0.2-1.1,0.6l-17.3,32.4c-0.1,0.3-0.2,0.6-0.1,0.9c0.1,0.3,0.3,0.5,0.5,0.6l47.8,25.5
	c0.5,0.3,1.3,0.1,1.6-0.5l17.3-32.4C1259.9,559.9,1259.9,559.6,1259.8,559.2z M1211.7,532.3c-0.3-0.1-0.6-0.2-1-0.2
	c-0.7,0-1.4,0.4-1.7,1.1l-17.3,32.4c-0.2,0.4-0.3,1-0.1,1.5c0.1,0.5,0.5,0.9,1,1.2l47.8,25.5c0.3,0.1,0.6,0.2,1,0.2
	c0.7,0,1.4-0.4,1.7-1.1l17.3-32.4c0.2-0.4,0.3-1,0.1-1.5c-0.1-0.5-0.5-0.9-1-1.2L1211.7,532.3z M1303.9,359.1
	c-0.3-0.1-0.6-0.2-1-0.2c-0.7,0-1.4,0.4-1.7,1.1l-17.3,32.4c-0.2,0.4-0.3,1-0.1,1.5c0.1,0.5,0.5,0.9,1,1.2l47.8,25.5
	c0.3,0.1,0.6,0.2,1,0.2c0.7,0,1.4-0.4,1.7-1.1l17.3-32.4c0.2-0.4,0.3-1,0.1-1.5c-0.1-0.5-0.5-0.9-1-1.2L1303.9,359.1z M1352,386
	c-0.1-0.3-0.3-0.5-0.5-0.6l-47.8-25.5c-0.2-0.1-0.3-0.1-0.5-0.1c-0.4,0-0.9,0.2-1.1,0.6l-17.3,32.4c-0.1,0.3-0.2,0.6-0.1,0.9
	s0.3,0.5,0.5,0.6l47.8,25.5c0.5,0.3,1.3,0.1,1.6-0.5l17.3-32.4C1352.1,386.6,1352.1,386.3,1352,386z M1329,429.3
	c-0.1-0.3-0.3-0.5-0.5-0.6l-47.8-25.5c-0.2-0.1-0.3-0.1-0.5-0.1c-0.4,0-0.9,0.2-1.1,0.6l-17.3,32.4c-0.3,0.5-0.1,1.3,0.5,1.6
	l47.8,25.5c0.5,0.3,1.3,0.1,1.6-0.5l17.3-32.4C1329,430,1329.1,429.7,1329,429.3z M1280.9,402.4c-0.3-0.1-0.6-0.2-1-0.2
	c-0.7,0-1.4,0.4-1.7,1.1l-17.3,32.3c-0.5,1-0.1,2.2,0.9,2.8l47.8,25.5c0.3,0.1,0.6,0.2,1,0.2c0.7,0,1.4-0.4,1.7-1.1l17.3-32.4
	c0.2-0.4,0.3-1,0.1-1.5c-0.1-0.5-0.5-0.9-1-1.2L1280.9,402.4z M1378.6,334.2l-47.8-25.5c-0.2-0.1-0.3-0.1-0.5-0.1
	c-0.4,0-0.9,0.2-1.1,0.6l-8.6,16.2c-0.3,0.5-0.1,1.3,0.5,1.6l47.8,25.5c0.5,0.3,1.3,0.1,1.6-0.5l8.6-16.2
	C1379.5,335.3,1379.2,334.5,1378.6,334.2z M1379,333.6l-47.8-25.5c-0.3-0.1-0.6-0.2-1-0.2c-0.7,0-1.4,0.4-1.7,1.1l-8.6,16.2
	c-0.5,1-0.1,2.2,0.9,2.8l47.8,25.5c0.3,0.1,0.6,0.2,1,0.2c0.7,0,1.4-0.4,1.7-1.1l8.6-16.2C1380.3,335.3,1380,334,1379,333.6z
	 M1365.9,360.1c-0.1-0.3-0.3-0.5-0.5-0.6l-47.8-25.5c-0.2-0.1-0.3-0.1-0.5-0.1c-0.4,0-0.9,0.2-1.1,0.6l-8.6,16.2
	c-0.1,0.3-0.2,0.6-0.1,0.9s0.3,0.5,0.5,0.6l47.8,25.5c0.5,0.3,1.3,0.1,1.6-0.5l8.6-16.2C1365.9,360.6,1366,360.3,1365.9,360.1z
	 M1366.6,359.8c-0.1-0.5-0.5-0.9-1-1.2l-47.8-25.5c-0.3-0.1-0.6-0.2-1-0.2c-0.7,0-1.4,0.4-1.7,1.1l-8.6,16.2c-0.2,0.4-0.3,1-0.1,1.5
	c0.1,0.5,0.5,0.9,1,1.2l47.8,25.5c0.3,0.1,0.6,0.2,1,0.2c0.7,0,1.4-0.4,1.7-1.1l8.6-16.2C1366.8,360.8,1366.8,360.3,1366.6,359.8z
	 M1395.8,731.4c0.1,0.5,0.5,0.9,1,1.2l47.8,25.5c0.3,0.1,0.6,0.2,1,0.2c0.7,0,1.4-0.4,1.7-1.1l17.3-32.4c0.5-1,0.1-2.2-0.9-2.8
	l-47.8-25.5c-0.3-0.1-0.6-0.2-1-0.2c-0.7,0-1.4,0.4-1.7,1.1l-17.3,32.4C1395.7,730.5,1395.7,731,1395.8,731.4z M1396.5,731.2
	c0.1,0.3,0.3,0.5,0.5,0.6l47.8,25.5c0.5,0.3,1.3,0.1,1.6-0.5l17.3-32.4c0.3-0.5,0.1-1.3-0.5-1.6l-47.8-25.5
	c-0.2-0.1-0.3-0.1-0.5-0.1c-0.4,0-0.9,0.2-1.1,0.6l-17.3,32.4C1396.4,730.6,1396.4,730.9,1396.5,731.2z M1373.5,774.5
	c0.1,0.3,0.3,0.5,0.5,0.6l47.8,25.5c0.5,0.3,1.3,0.1,1.6-0.5l17.3-32.4c0.1-0.3,0.2-0.6,0.1-0.9c-0.1-0.3-0.3-0.5-0.5-0.6
	l-47.8-25.5c-0.2-0.1-0.3-0.1-0.5-0.1c-0.4,0-0.9,0.2-1.1,0.6l-17.3,32.4C1373.5,773.9,1373.5,774.2,1373.5,774.5z M1372.7,774.8
	c0.1,0.5,0.5,0.9,1,1.2l47.8,25.5c0.3,0.1,0.6,0.2,1,0.2c0.7,0,1.4-0.4,1.7-1.1l17.3-32.4c0.2-0.4,0.3-1,0.1-1.5
	c-0.1-0.5-0.5-0.9-1-1.2l-47.8-25.5c-0.3-0.1-0.6-0.2-1-0.2c-0.7,0-1.4,0.4-1.7,1.1l-17.3,32.4
	C1372.6,773.7,1372.6,774.2,1372.7,774.8z M1350.6,819.3l47.8,25.5c0.3,0.1,0.6,0.2,1,0.2c0.7,0,1.4-0.4,1.7-1.1l17.3-32.4
	c0.5-1,0.1-2.2-0.9-2.8l-47.8-25.5c-0.3-0.1-0.6-0.2-1-0.2c-0.7,0-1.4,0.4-1.7,1.1l-17.3,32.4
	C1349.2,817.5,1349.7,818.7,1350.6,819.3z M1351,818.5l47.8,25.5c0.5,0.3,1.3,0.1,1.6-0.5l17.3-32.4c0.3-0.5,0.1-1.3-0.5-1.6
	l-47.8-25.5c-0.2-0.1-0.3-0.1-0.5-0.1c-0.4,0-0.9,0.2-1.1,0.6l-17.3,32.4C1350.2,817.5,1350.4,818.2,1351,818.5z M1465.8,601.3
	c0.1,0.3,0.3,0.5,0.5,0.6l47.8,25.5c0.5,0.3,1.3,0.1,1.6-0.5l17.3-32.4c0.1-0.3,0.2-0.6,0.1-0.9c-0.1-0.3-0.3-0.5-0.5-0.6
	l-47.8-25.5c-0.2-0.1-0.3-0.1-0.5-0.1c-0.4,0-0.9,0.2-1.1,0.6l-17.3,32.4C1465.7,600.7,1465.7,601,1465.8,601.3z M1465.1,601.5
	c0.1,0.5,0.5,0.9,1,1.2l47.8,25.5c0.3,0.1,0.6,0.2,1,0.2c0.7,0,1.4-0.4,1.7-1.1l17.3-32.4c0.2-0.4,0.3-1,0.1-1.5
	c-0.1-0.5-0.5-0.9-1-1.2l-47.8-25.5c-0.3-0.1-0.6-0.2-1-0.2c-0.7,0-1.4,0.4-1.7,1.1l-17.3,32.4
	C1465,600.6,1464.9,601.1,1465.1,601.5z M1490.8,671.5c0.3,0.1,0.6,0.2,1,0.2c0.7,0,1.4-0.4,1.7-1.1l17.3-32.4
	c0.2-0.4,0.3-1,0.1-1.5c-0.1-0.5-0.5-0.9-1-1.2l-47.8-25.5c-0.3-0.1-0.6-0.2-1-0.2c-0.7,0-1.4,0.4-1.7,1.1l-17.3,32.4
	c-0.5,1-0.1,2.2,0.9,2.8L1490.8,671.5z M1443.2,645.3l47.8,25.5c0.5,0.3,1.3,0.1,1.6-0.5L1510,638c0.1-0.3,0.2-0.6,0.1-0.9
	s-0.3-0.5-0.5-0.6l-47.8-25.5c-0.2-0.1-0.3-0.1-0.5-0.1c-0.4,0-0.9,0.2-1.1,0.6l-17.3,32.4C1442.4,644.2,1442.7,645,1443.2,645.3z
	 M1420.2,688.6l47.8,25.5c0.5,0.3,1.3,0.1,1.6-0.5l17.3-32.4c0.3-0.5,0.1-1.3-0.5-1.6l-47.8-25.5c-0.2-0.1-0.3-0.1-0.5-0.1
	c-0.4,0-0.9,0.2-1.1,0.6l-17.3,32.4C1419.4,687.6,1419.6,688.3,1420.2,688.6z M1467.7,714.9c0.3,0.1,0.6,0.2,1,0.2
	c0.7,0,1.4-0.4,1.7-1.1l17.3-32.4c0.5-1,0.1-2.2-0.9-2.8l-47.8-25.5c-0.3-0.1-0.6-0.2-1-0.2c-0.7,0-1.4,0.4-1.7,1.1l-17.3,32.4
	c-0.5,1-0.1,2.2,0.9,2.8L1467.7,714.9z M1579.1,505.7l-47.8-25.5c-0.3-0.1-0.6-0.2-1-0.2c-0.7,0-1.4,0.4-1.7,1.1l-17.3,32.4
	c-0.5,1-0.1,2.2,0.9,2.8l47.8,25.5c0.3,0.1,0.6,0.2,1,0.2c0.7,0,1.4-0.4,1.7-1.1l17.3-32.4C1580.5,507.4,1580,506.2,1579.1,505.7z
	 M1536.9,585c0.3,0.1,0.6,0.2,1,0.2c0.7,0,1.4-0.4,1.7-1.1l17.3-32.4c0.5-1,0.1-2.2-0.9-2.8l-47.8-25.5c-0.3-0.1-0.6-0.2-1-0.2
	c-0.7,0-1.4,0.4-1.7,1.1l-17.3,32.4c-0.5,1-0.1,2.2,0.9,2.8L1536.9,585z M1607.4,455.8c-0.1-0.5-0.5-0.9-1-1.2l-47.8-25.5
	c-0.3-0.1-0.6-0.2-1-0.2c-0.7,0-1.4,0.4-1.7,1.1l-8.6,16.2c-0.2,0.4-0.3,1-0.1,1.5c0.1,0.5,0.5,0.9,1,1.2l47.8,25.5
	c0.3,0.1,0.6,0.2,1,0.2c0.7,0,1.4-0.4,1.7-1.1l8.6-16.2C1607.5,456.8,1607.5,456.2,1607.4,455.8z M1593,479.7l-47.8-25.5
	c-0.3-0.1-0.6-0.2-1-0.2c-0.7,0-1.4,0.4-1.7,1.1l-8.6,16.2c-0.5,1-0.1,2.2,0.9,2.8l47.8,25.5c0.3,0.1,0.6,0.2,1,0.2
	c0.7,0,1.4-0.4,1.7-1.1l8.6-16.2C1594.3,481.4,1594,480.3,1593,479.7z M1282.1,670.9c0.1,0.5,0.5,0.9,1,1.2l47.8,25.5
	c0.3,0.1,0.6,0.2,1,0.2c0.7,0,1.4-0.4,1.7-1.1l17.3-32.4c0.2-0.4,0.3-1,0.1-1.5c-0.1-0.5-0.5-0.9-1-1.2l-47.8-25.5
	c-0.3-0.1-0.6-0.2-1-0.2c-0.7,0-1.4,0.4-1.7,1.1l-17.3,32.4C1282,669.8,1282,670.4,1282.1,670.9z M1282.9,670.7
	c0.1,0.3,0.3,0.5,0.5,0.6l47.8,25.5c0.5,0.3,1.3,0.1,1.6-0.5l17.3-32.4c0.1-0.3,0.2-0.6,0.1-0.9s-0.3-0.5-0.5-0.6l-47.8-25.5
	c-0.2-0.1-0.3-0.1-0.5-0.1c-0.4,0-0.9,0.2-1.1,0.6l-17.3,32.4C1282.9,670.1,1282.9,670.4,1282.9,670.7z M1260.4,714.7l47.8,25.5
	c0.5,0.3,1.3,0.1,1.6-0.5l17.3-32.4c0.3-0.5,0.1-1.3-0.5-1.6l-47.8-25.5c-0.2-0.1-0.3-0.1-0.5-0.1c-0.4,0-0.9,0.2-1.1,0.6
	l-17.3,32.4C1259.7,713.7,1259.9,714.3,1260.4,714.7z M1260.1,715.4l47.8,25.5c0.3,0.1,0.6,0.2,1,0.2c0.7,0,1.4-0.4,1.7-1.1
	l17.3-32.4c0.5-1,0.1-2.2-0.9-2.8l-47.8-25.5c-0.3-0.1-0.6-0.2-1-0.2c-0.7,0-1.4,0.4-1.7,1.1l-17.3,32.4
	C1258.6,713.7,1259.1,714.9,1260.1,715.4z M1237,758.7l47.8,25.5c0.3,0.1,0.6,0.2,1,0.2c0.7,0,1.4-0.4,1.7-1.1l17.3-32.4
	c0.5-1,0.1-2.2-0.9-2.8l-47.8-25.5c-0.3-0.1-0.6-0.2-1-0.2c-0.7,0-1.4,0.4-1.7,1.1l-17.3,32.4C1235.7,756.9,1236,758.1,1237,758.7z
	 M1237.4,758l47.8,25.5c0.5,0.3,1.3,0.1,1.6-0.5l17.3-32.4c0.3-0.5,0.1-1.3-0.5-1.6l-47.8-25.5c-0.2-0.1-0.3-0.1-0.5-0.1
	c-0.4,0-0.9,0.2-1.1,0.6l-17.3,32.4C1236.5,756.9,1236.7,757.7,1237.4,758z M1352.1,540.8c0.1,0.3,0.3,0.5,0.5,0.6l47.8,25.5
	c0.5,0.3,1.3,0.1,1.6-0.5l17.3-32.4c0.1-0.3,0.2-0.6,0.1-0.9c-0.1-0.3-0.3-0.5-0.5-0.6l-47.8-25.5c-0.2-0.1-0.3-0.1-0.5-0.1
	c-0.4,0-0.9,0.2-1.1,0.6l-17.3,32.4C1352,540.1,1352,540.5,1352.1,540.8z M1400.2,567.7c0.3,0.1,0.6,0.2,1,0.2
	c0.7,0,1.4-0.4,1.7-1.1l17.3-32.4c0.2-0.4,0.3-1,0.1-1.5c-0.1-0.5-0.5-0.9-1-1.2l-47.8-25.5c-0.3-0.1-0.6-0.2-1-0.2
	c-0.7,0-1.4,0.4-1.7,1.1l-17.3,32.4c-0.5,1-0.1,2.2,0.9,2.8L1400.2,567.7z M1329.6,584.8l47.8,25.5c0.5,0.3,1.3,0.1,1.6-0.5
	l17.3-32.4c0.3-0.5,0.1-1.3-0.5-1.6l-47.8-25.5c-0.2-0.1-0.3-0.1-0.5-0.1c-0.4,0-0.9,0.2-1.1,0.6l-17.3,32.4
	C1328.8,583.8,1329,584.4,1329.6,584.8z M1329.2,585.5L1377,611c0.3,0.1,0.6,0.2,1,0.2c0.7,0,1.4-0.4,1.7-1.1l17.3-32.4
	c0.5-1,0.1-2.2-0.9-2.8l-47.8-25.5c-0.3-0.1-0.6-0.2-1-0.2c-0.7,0-1.4,0.4-1.7,1.1l-17.3,32.4C1327.9,583.8,1328.2,585,1329.2,585.5
	z M1305.2,627.6c0.1,0.5,0.5,0.9,1,1.2l47.8,25.5c0.3,0.1,0.6,0.2,1,0.2c0.7,0,1.4-0.4,1.7-1.1L1374,621c0.5-1,0.1-2.2-0.9-2.8
	l-47.8-25.5c-0.3-0.1-0.6-0.2-1-0.2c-0.7,0-1.4,0.4-1.7,1.1l-17.3,32.4C1305.1,626.6,1305.1,627.1,1305.2,627.6z M1306,627.4
	c0.1,0.3,0.3,0.5,0.5,0.6l47.8,25.5c0.5,0.3,1.3,0.1,1.6-0.5l17.3-32.4c0.3-0.5,0.1-1.3-0.5-1.6l-47.8-25.5
	c-0.2-0.1-0.3-0.1-0.5-0.1c-0.4,0-0.9,0.2-1.1,0.6l-17.3,32.4C1305.9,626.7,1305.9,627,1306,627.4z M1465.5,445.1l-47.8-25.5
	c-0.3-0.1-0.6-0.2-1-0.2c-0.7,0-1.4,0.4-1.7,1.1l-17.3,32.4c-0.2,0.4-0.3,1-0.1,1.5c0.1,0.5,0.5,0.9,1,1.2l47.8,25.5
	c0.3,0.1,0.6,0.2,1,0.2c0.7,0,1.4-0.4,1.7-1.1l17.3-32.4C1466.8,446.8,1466.5,445.7,1465.5,445.1z M1465.2,445.9l-47.8-25.5
	c-0.2-0.1-0.3-0.1-0.5-0.1c-0.4,0-0.9,0.2-1.1,0.6l-17.3,32.4c-0.1,0.3-0.2,0.6-0.1,0.9s0.3,0.5,0.5,0.6l47.8,25.5
	c0.5,0.3,1.3,0.1,1.6-0.5l17.3-32.4C1465.9,446.9,1465.7,446.2,1465.2,445.9z M1375.2,497.4c0.1,0.3,0.3,0.5,0.5,0.6l47.8,25.5
	c0.5,0.3,1.3,0.1,1.6-0.5l17.3-32.4c0.1-0.3,0.2-0.6,0.1-0.9s-0.3-0.5-0.5-0.6l-47.8-25.5c-0.2-0.1-0.3-0.1-0.5-0.1
	c-0.4,0-0.9,0.2-1.1,0.6l-17.3,32.4C1375.1,496.8,1375.1,497.1,1375.2,497.4z M1423.3,524.3c0.3,0.1,0.6,0.2,1,0.2
	c0.7,0,1.4-0.4,1.7-1.1l17.3-32.4c0.2-0.4,0.3-1,0.1-1.5c-0.1-0.5-0.5-0.9-1-1.2l-47.9-25.4c-0.3-0.1-0.6-0.2-1-0.2
	c-0.7,0-1.4,0.4-1.7,1.1l-17.3,32.4c-0.2,0.4-0.3,1-0.1,1.5c0.1,0.5,0.5,0.9,1,1.2L1423.3,524.3z M1492.6,394l-47.8-25.5
	c-0.3-0.1-0.6-0.2-1-0.2c-0.7,0-1.4,0.4-1.7,1.1l-8.6,16.2c-0.5,1-0.1,2.2,0.9,2.8l47.8,25.5c0.3,0.1,0.6,0.2,1,0.2
	c0.7,0,1.4-0.4,1.7-1.1l8.6-16.2C1494.1,395.8,1493.7,394.5,1492.6,394z M1492.3,394.8l-47.8-25.5c-0.2-0.1-0.3-0.1-0.5-0.1
	c-0.4,0-0.9,0.2-1.1,0.6l-8.6,16.2c-0.3,0.5-0.1,1.3,0.5,1.6l47.8,25.5c0.5,0.3,1.3,0.1,1.6-0.5l8.6-16.2
	C1493,395.8,1492.8,395.1,1492.3,394.8z M1480.2,420.3c-0.1-0.5-0.5-0.9-1-1.2l-47.8-25.5c-0.3-0.1-0.6-0.2-1-0.2
	c-0.7,0-1.4,0.4-1.7,1.1l-8.6,16.2c-0.2,0.4-0.3,1-0.1,1.5c0.1,0.5,0.5,0.9,1,1.2l47.8,25.5c0.3,0.1,0.6,0.2,1,0.2
	c0.7,0,1.4-0.4,1.7-1.1l8.6-16.2C1480.3,421.4,1480.4,420.9,1480.2,420.3z M1479.5,420.6c-0.1-0.3-0.3-0.5-0.5-0.6l-47.8-25.5
	c-0.2-0.1-0.3-0.1-0.5-0.1c-0.4,0-0.9,0.2-1.1,0.6l-8.6,16.2c-0.1,0.3-0.2,0.6-0.1,0.9s0.3,0.5,0.5,0.6l47.8,25.5
	c0.5,0.3,1.3,0.1,1.6-0.5l8.6-16.2C1479.6,421.2,1479.6,420.9,1479.5,420.6z M1542.9,245.3c-3-1.5-6.4-2.5-9.6-2.5
	c-7.7,0-14.5,4.2-18.1,11c-5.3,9.9-1.5,22.4,8.4,27.9c3,1.5,6.4,2.5,9.6,2.5c7.7,0,14.5-4.2,18.1-11
	C1556.8,263,1552.9,250.5,1542.9,245.3z M1550,272.3c4.9-9.2,1.4-20.7-7.8-25.6c-2.8-1.4-5.8-2.2-8.9-2.2c-7,0-13.5,3.8-16.8,10
	c-4.9,9.2-1.4,20.7,7.8,25.6c2.8,1.4,5.8,2.2,8.9,2.2C1540.3,282.3,1546.7,278.5,1550,272.3z M1546.5,270.5
	c1.8-3.5,2.3-7.6,1.1-11.4c-1.2-3.8-3.7-7-7.4-8.9c-2.2-1.2-4.6-1.7-7-1.7c-5.6,0-10.7,3.1-13.2,7.9c-3.8,7.4-1.1,16.4,6.1,20.3
	c2.2,1.2,4.6,1.7,7,1.7C1538.7,278.4,1544,275.3,1546.5,270.5z M1545.8,270.1c1.7-3.4,2.2-7.3,1.1-10.9s-3.5-6.6-6.9-8.3
	c-2-1.1-4.4-1.6-6.7-1.6c-5.2,0-10,2.9-12.5,7.6c-3.7,6.9-1.1,15.6,5.8,19.2c2,1.1,4.4,1.6,6.7,1.6
	C1538.5,277.5,1543.3,274.8,1545.8,270.1z M1772.3,367.4c-3-1.5-6.4-2.5-9.6-2.5c-7.7,0-14.5,4.2-18.1,11
	c-5.3,9.9-1.5,22.4,8.4,27.9c3,1.5,6.4,2.5,9.6,2.5c7.7,0,14.5-4.2,18.1-11C1786.1,385.1,1782.3,372.7,1772.3,367.4z M1779.3,394.4
	c4.9-9.2,1.4-20.7-7.8-25.6c-2.8-1.4-5.8-2.2-8.9-2.2c-7,0-13.5,3.8-16.8,10c-4.9,9.2-1.4,20.7,7.8,25.6c2.8,1.4,5.8,2.2,8.9,2.2
	C1769.7,404.6,1776,400.6,1779.3,394.4z M1775.8,392.6c3.8-7.4,1.1-16.4-6.1-20.3c-2.2-1.2-4.6-1.7-7-1.7c-5.6,0-10.7,3.1-13.2,7.9
	c-1.8,3.5-2.3,7.6-1.1,11.4s3.7,7,7.4,8.9c2.2,1.2,4.6,1.7,7,1.7C1768.1,400.5,1773.1,397.4,1775.8,392.6z M1775.2,392.2
	c3.7-6.9,1.1-15.6-5.8-19.2c-2-1.1-4.4-1.6-6.7-1.6c-5.2,0-10,2.9-12.5,7.6c-1.7,3.4-2.2,7.3-1.1,10.9s3.5,6.6,6.9,8.3
	c2,1.1,4.4,1.6,6.7,1.6C1767.9,399.8,1772.6,396.9,1775.2,392.2z M1320.6,150.2c2.5-4.5,2.9-9.6,1.4-14.4c-1.4-4.8-4.7-8.9-9.2-11.2
	c-2.8-1.4-5.8-2.2-8.9-2.2c-7,0-13.5,3.8-16.8,10c-4.9,9.2-1.4,20.7,7.8,25.6c2.8,1.4,5.8,2.2,8.9,2.2
	C1310.9,160.1,1317.3,156.3,1320.6,150.2z M1323.6,135.1c-1.6-5.2-5.1-9.5-9.9-12.2c-3-1.5-6.4-2.5-9.6-2.5c-7.7,0-14.5,4.2-18.1,11
	c-5.3,9.9-1.5,22.4,8.4,27.9c3,1.5,6.4,2.5,9.6,2.5c7.7,0,14.5-4.2,18.1-11C1324.6,146,1325.1,140.5,1323.6,135.1z M1316.4,147.8
	c1.7-3.4,2.2-7.3,1.1-10.9c-1.1-3.6-3.5-6.6-6.9-8.3c-2-1.1-4.4-1.6-6.7-1.6c-5.2,0-10,2.9-12.5,7.6c-1.7,3.4-2.2,7.3-1.1,10.9
	c1.1,3.6,3.5,6.6,6.9,8.3c2,1.1,4.4,1.6,6.7,1.6C1309.1,155.4,1314,152.4,1316.4,147.8z M1317.1,148.3c1.8-3.5,2.3-7.6,1.1-11.4
	c-1.1-3.8-3.7-7-7.4-8.9c-2.2-1.2-4.6-1.7-7-1.7c-5.6,0-10.7,3.1-13.2,7.9c-1.8,3.5-2.3,7.6-1.1,11.4c1.2,3.8,3.7,7,7.4,8.9
	c2.2,1.2,4.6,1.7,7,1.7C1309.4,156.2,1314.6,153.2,1317.1,148.3z M1722,363.9c4.9-9.2,1.4-20.7-7.8-25.6c-2.8-1.4-5.8-2.2-8.9-2.2
	c-7,0-13.5,3.8-16.8,10c-4.9,9.2-1.4,20.7,7.8,25.6c2.8,1.4,5.8,2.2,8.9,2.2C1712.3,373.9,1718.7,370.1,1722,363.9z M1714.9,336.9
	c-3-1.5-6.4-2.5-9.6-2.5c-7.7,0-14.5,4.2-18.1,11c-5.3,9.9-1.5,22.4,8.4,27.9c3,1.5,6.4,2.5,9.6,2.5c7.7,0,14.5-4.2,18.1-11
	C1728.8,354.7,1725,342.2,1714.9,336.9z M1718.5,362.1c1.8-3.5,2.3-7.6,1.1-11.4c-1.1-3.8-3.7-7-7.4-8.9c-2.2-1.2-4.6-1.7-7-1.7
	c-5.6,0-10.7,3.1-13.2,7.9c-3.8,7.4-1.1,16.4,6.1,20.3c2.2,1.2,4.6,1.7,7,1.7C1710.8,369.9,1715.9,367,1718.5,362.1z M1717.7,361.7
	c1.7-3.4,2.2-7.3,1.1-10.9s-3.5-6.6-6.9-8.3c-2-1.1-4.4-1.6-6.7-1.6c-5.2,0-10,2.9-12.5,7.6c-3.7,6.9-1.1,15.6,5.8,19.2
	c2,1.1,4.4,1.6,6.7,1.6C1710.5,369.1,1715.4,366.4,1717.7,361.7z M1381,165.8c-1.6-5.2-5.1-9.5-9.9-12.2c-3-1.5-6.4-2.5-9.6-2.5
	c-7.7,0-14.5,4.2-18.1,11c-5.3,9.9-1.5,22.4,8.4,27.9c3,1.5,6.4,2.5,9.6,2.5c7.7,0,14.5-4.2,18.1-11
	C1382,176.6,1382.6,171,1381,165.8z M1378,180.6c2.5-4.5,2.9-9.6,1.4-14.4s-4.7-8.9-9.2-11.2c-2.8-1.4-5.8-2.2-8.9-2.2
	c-7,0-13.5,3.8-16.8,10c-4.9,9.2-1.4,20.7,7.8,25.6c2.8,1.4,5.8,2.2,8.9,2.2C1368.4,190.8,1374.7,186.9,1378,180.6z M1374.4,178.8
	c1.8-3.5,2.3-7.6,1.1-11.4c-1.2-3.8-3.7-7-7.4-8.9c-2.2-1.2-4.6-1.7-7-1.7c-5.6,0-10.7,3.1-13.2,7.9c-3.8,7.4-1.1,16.4,6.1,20.3
	c2.2,1.2,4.6,1.7,7,1.7C1366.8,186.8,1371.8,183.7,1374.4,178.8z M1373.8,178.5c1.7-3.4,2.2-7.3,1.1-10.9c-1.1-3.6-3.5-6.6-6.9-8.3
	c-2-1.1-4.4-1.6-6.7-1.6c-5.2,0-10,2.9-12.5,7.6c-3.7,6.9-1.1,15.6,5.8,19.2c2,1.1,4.4,1.6,6.7,1.6
	C1366.4,185.8,1371.2,183.1,1373.8,178.5z M1428.2,184.1c-3-1.5-6.4-2.5-9.6-2.5c-7.7,0-14.5,4.2-18.1,11
	c-5.3,9.9-1.5,22.4,8.4,27.9c3,1.5,6.4,2.5,9.6,2.5c7.7,0,14.5-4.2,18.1-11C1442,202,1438.3,189.5,1428.2,184.1z M1435.4,211.1
	c4.9-9.2,1.4-20.7-7.8-25.6c-2.8-1.4-5.8-2.2-8.9-2.2c-7,0-13.5,3.8-16.8,10c-4.9,9.2-1.4,20.7,7.8,25.6c2.8,1.4,5.8,2.2,8.9,2.2
	C1425.6,221.3,1432.1,217.4,1435.4,211.1z M1431.1,209c3.7-6.9,1.1-15.6-5.8-19.2c-2-1.1-4.4-1.6-6.7-1.6c-5.2,0-10,2.9-12.5,7.6
	c-1.7,3.4-2.2,7.3-1.1,10.9c1.1,3.6,3.5,6.6,6.9,8.3c2,1.1,4.4,1.6,6.7,1.6C1423.9,216.5,1428.7,213.6,1431.1,209z M1431.9,209.3
	c3.8-7.4,1.1-16.4-6.1-20.3c-2.2-1.2-4.6-1.7-7-1.7c-5.6,0-10.7,3.1-13.2,7.9c-1.8,3.5-2.3,7.6-1.1,11.4c1.2,3.8,3.7,7,7.4,8.9
	c2.2,1.2,4.6,1.7,7,1.7C1424.2,217.3,1429.2,214.2,1431.9,209.3z M1492.6,241.8c2.5-4.5,2.9-9.6,1.4-14.4s-4.7-8.9-9.2-11.2
	c-2.8-1.4-5.8-2.2-8.9-2.2c-7,0-13.5,3.8-16.8,10c-2.5,4.5-2.9,9.6-1.4,14.4s4.7,8.9,9.2,11.2c2.8,1.4,5.8,2.2,8.9,2.2
	C1482.9,251.8,1489.3,248,1492.6,241.8z M1495.6,226.8c-1.6-5.2-5.1-9.5-9.9-12.2c-3-1.5-6.4-2.5-9.6-2.5c-7.7,0-14.5,4.2-18.1,11
	c-2.7,4.8-3.1,10.4-1.5,15.7c1.6,5.2,5.1,9.5,9.9,12.2c3,1.5,6.4,2.5,9.6,2.5c7.7,0,14.5-4.2,18.1-11
	C1496.7,237.7,1497.2,232.1,1495.6,226.8z M1489.1,239.9c1.8-3.5,2.3-7.6,1.1-11.4c-1.2-3.8-3.7-7-7.4-8.9c-2.2-1.2-4.6-1.7-7-1.7
	c-5.6,0-10.7,3.1-13.2,7.9c-1.8,3.5-2.3,7.6-1.1,11.4c1.2,3.8,3.7,7,7.4,8.9c2.2,1.2,4.6,1.7,7,1.7
	C1481.5,247.8,1486.5,244.9,1489.1,239.9z M1488.4,239.4c1.7-3.4,2.2-7.3,1.1-10.9c-1-3.6-3.5-6.6-6.9-8.3c-2-1.1-4.4-1.6-6.7-1.6
	c-5.2,0-10,2.9-12.5,7.6c-1.7,3.4-2.2,7.3-1.1,10.9c1,3.6,3.5,6.6,6.9,8.3c2,1.1,4.4,1.6,6.7,1.6
	C1481.2,247,1486,244.1,1488.4,239.4z M1600.3,275.7c-3-1.5-6.4-2.5-9.6-2.5c-7.7,0-14.5,4.2-18.1,11c-2.7,4.8-3.1,10.4-1.5,15.7
	c1.6,5.2,5.1,9.5,9.9,12.2c3,1.5,6.4,2.5,9.6,2.5c7.7,0,14.5-4.2,18.1-11C1614.1,293.6,1610.2,281.1,1600.3,275.7z M1607.4,302.8
	c4.9-9.2,1.4-20.7-7.8-25.6c-2.8-1.4-5.8-2.2-8.9-2.2c-7,0-13.5,3.8-16.8,10c-2.5,4.5-2.9,9.6-1.4,14.4c1.4,4.8,4.7,8.9,9.2,11.2
	c2.8,1.4,5.8,2.2,8.9,2.2C1597.5,312.9,1604.1,309,1607.4,302.8z M1603.2,300.6c3.7-6.9,1.1-15.6-5.8-19.2c-2-1.1-4.4-1.6-6.7-1.6
	c-5.2,0-10,2.9-12.5,7.6c-1.7,3.4-2.2,7.3-1.1,10.9c1,3.6,3.5,6.6,6.9,8.3c2,1.1,4.4,1.6,6.7,1.6
	C1595.8,308.2,1600.6,305.2,1603.2,300.6z M1603.8,300.9c3.8-7.4,1.1-16.4-6.1-20.3c-2.2-1.2-4.6-1.7-7-1.7
	c-5.6,0-10.7,3.1-13.2,7.9c-1.8,3.5-2.3,7.6-1.1,11.4c1.1,3.8,3.7,7,7.4,8.9c2.2,1.2,4.6,1.7,7,1.7
	C1596.2,308.9,1601.2,305.8,1603.8,300.9z M1667.6,318.4c-1.6-5.2-5.1-9.5-9.9-12.2c-3-1.5-6.4-2.5-9.6-2.5c-7.7,0-14.5,4.2-18.1,11
	c-2.7,4.8-3.2,10.4-1.5,15.7c1.6,5.2,5.1,9.5,9.9,12.2c3,1.5,6.4,2.5,9.6,2.5c7.7,0,14.5-4.2,18.1-11
	C1668.6,329.3,1669.3,323.7,1667.6,318.4z M1664.7,333.4c2.5-4.5,2.9-9.6,1.4-14.4c-1.4-4.8-4.7-8.9-9.2-11.2
	c-2.8-1.4-5.8-2.2-8.9-2.2c-7,0-13.5,3.8-16.8,10c-2.5,4.5-2.9,9.6-1.4,14.4c1.4,4.8,4.7,8.9,9.2,11.2c2.8,1.4,5.8,2.2,8.9,2.2
	C1655,343.4,1661.4,339.6,1664.7,333.4z M1661.2,331.4c3.8-7.4,1.1-16.4-6.1-20.3c-2.2-1.2-4.6-1.7-7-1.7c-5.6,0-10.7,3.1-13.2,7.9
	c-1.8,3.5-2.3,7.6-1.1,11.4c1.2,3.8,3.7,7,7.4,8.9c2.2,1.2,4.6,1.7,7,1.7C1653.5,339.5,1658.6,336.4,1661.2,331.4z M1660.4,331.1
	c3.7-6.9,1.1-15.6-5.8-19.2c-2-1.1-4.4-1.6-6.7-1.6c-5.2,0-10,2.9-12.5,7.6c-1.7,3.4-2.2,7.3-1.1,10.9s3.5,6.6,6.9,8.3
	c2,1.1,4.4,1.6,6.7,1.6C1653.3,338.6,1658,335.7,1660.4,331.1z M1193.2,129.5l-32.4-17.3c-0.3-0.1-0.6-0.2-1-0.2
	c-0.7,0-1.4,0.4-1.7,1.1l-17.3,32.4c-0.5,1-0.1,2.2,0.9,2.8l32.4,17.3c0.3,0.1,0.6,0.2,1,0.2c0.7,0,1.4-0.4,1.7-1.1l17.2-32.4
	C1194.6,131.2,1194.1,130,1193.2,129.5z M1192.9,130.2l-32.4-17.3c-0.2-0.1-0.3-0.1-0.5-0.1c-0.4,0-0.9,0.2-1.1,0.6l-17.3,32.4
	c-0.3,0.5-0.1,1.3,0.5,1.6l32.4,17.3c0.5,0.3,1.3,0.1,1.6-0.5l17.3-32.4C1193.6,131.2,1193.4,130.5,1192.9,130.2z M1171.4,172.1
	c-0.1-0.3-0.3-0.5-0.5-0.6l-32.4-17.3c-0.2-0.1-0.3-0.1-0.5-0.1c-0.4,0-0.9,0.2-1.1,0.6l-9.7,18.3c-0.3,0.5-0.1,1.3,0.5,1.6
	l32.4,17.3c0.5,0.3,1.3,0.1,1.6-0.5l9.7-18.3C1171.4,172.7,1171.5,172.4,1171.4,172.1z M1138.8,153.5c-0.3-0.1-0.6-0.2-1-0.2
	c-0.7,0-1.4,0.4-1.7,1.1l-9.7,18.3c-0.5,1-0.1,2.2,0.9,2.8l32.4,17.3c0.3,0.1,0.6,0.2,1,0.2c0.7,0,1.4-0.4,1.7-1.1l9.7-18.3
	c0.2-0.4,0.3-1,0.1-1.5c-0.1-0.5-0.5-0.9-1-1.2L1138.8,153.5z M1132.3,204.6c-2.3-1.2-4.9-1.8-7.6-1.8c-6,0-11.5,3.3-14.3,8.5
	c-4.2,7.9-1.2,17.7,6.7,21.9c2.3,1.2,4.9,1.8,7.6,1.8c6,0,11.5-3.3,14.3-8.5c2-3.8,2.5-8.2,1.2-12.4
	C1139.1,210.1,1136.2,206.7,1132.3,204.6z M1124.8,201.1c-6.6,0-12.6,3.6-15.8,9.4c-4.6,8.6-1.3,19.5,7.4,24.1c2.6,1.4,5.4,2,8.3,2
	c6.6,0,12.6-3.6,15.8-9.4c4.6-8.6,1.3-19.5-7.4-24.1C1130.5,201.9,1127.6,201.1,1124.8,201.1z M1130.8,207.6c-1.8-1-3.9-1.5-6-1.5
	c-4.8,0-9.2,2.7-11.4,6.9c-3.4,6.4-1,14.1,5.3,17.5c1.8,1,3.9,1.5,6,1.5c4.8,0,9.2-2.7,11.4-6.9
	C1139.5,218.7,1137.1,210.8,1130.8,207.6z M1135.4,224.7c3.2-5.9,0.9-13.2-5-16.4c-1.7-1-3.7-1.4-5.7-1.4c-4.5,0-8.6,2.6-10.8,6.5
	c-3.2,5.9-0.9,13.2,5,16.4c1.7,1,3.7,1.4,5.7,1.4C1129.2,231.1,1133.3,228.6,1135.4,224.7z M1160.8,238.1
	c-4.2,7.9-1.2,17.7,6.7,21.9c2.3,1.2,4.9,1.8,7.6,1.8c6,0,11.5-3.3,14.3-8.5c4.2-7.9,1.2-17.7-6.7-21.9c-2.3-1.2-4.9-1.8-7.6-1.8
	C1169.2,229.6,1163.6,232.9,1160.8,238.1z M1166.7,261.4c2.6,1.4,5.4,2,8.3,2c6.6,0,12.6-3.6,15.8-9.4c4.6-8.6,1.3-19.5-7.4-24.1
	c-2.6-1.4-5.4-2-8.3-2c-6.6,0-12.6,3.6-15.8,9.4C1154.8,246.2,1158.1,256.8,1166.7,261.4z M1163.7,239.6c-1.6,3.1-1.9,6.6-1,9.8
	c1,3.3,3.3,6,6.2,7.7c1.8,1,3.9,1.5,6,1.5c4.8,0,9.2-2.7,11.4-6.9c1.6-3.1,1.9-6.6,1-9.8c-1-3.3-3.3-6-6.2-7.7c-1.8-1-3.9-1.5-6-1.5
	C1170.3,232.9,1166,235.5,1163.7,239.6z M1164.4,240.1c-1.5,2.9-1.8,6.1-0.9,9.2c0.9,3.1,3.1,5.7,5.9,7.3c1.7,1,3.7,1.4,5.7,1.4
	c4.5,0,8.6-2.6,10.8-6.5c1.5-2.9,1.8-6.1,0.9-9.2c-0.9-3.1-3.1-5.7-5.9-7.3c-1.7-1-3.7-1.4-5.7-1.4
	C1170.6,233.7,1166.5,236.1,1164.4,240.1z M1621.2,860.2l7.7-14.3c0.5-1,0.1-2.2-0.9-2.8l-25.7-13.7c-0.3-0.1-0.6-0.2-1-0.2
	c-0.7,0-1.4,0.4-1.7,1.1l-7.7,14.3c-0.3,0.6,1.9,7.7,3,10.8c1.5,4.5,3.6,10,4.5,10.6c0.1,0.1,0.3,0.1,0.5,0.1
	C1602.7,865.8,1620.7,861.2,1621.2,860.2z M1599.9,865.1c0,0,0.1,0,0.2,0c2.9,0,19.3-4.5,20.5-5.3l7.6-14.2c0.3-0.5,0.1-1.3-0.5-1.6
	l-25.7-13.7c-0.5-0.3-1.3-0.1-1.6,0.5l-7.6,14.2C1592.6,846.7,1598.9,864.2,1599.9,865.1L1599.9,865.1z M1563.7,898.9
	c0.1,0.5,0.5,0.9,1,1.2l25.7,13.7c0.3,0.1,0.6,0.2,1,0.2c0.7,0,1.4-0.4,1.7-1.1l7.7-14.3c0.3-0.6-1.9-7.7-3-10.8
	c-1.5-4.5-3.6-10-4.5-10.6c-0.1-0.1-0.3-0.1-0.5-0.1c-2.6,0-20.6,4.6-21.1,5.7l-7.7,14.3C1563.6,897.8,1563.6,898.4,1563.7,898.9z
	 M1564.5,898.7c0.1,0.3,0.3,0.5,0.5,0.6l25.7,13.7c0.5,0.3,1.3,0.1,1.6-0.5l7.6-14.2c0.1-1.8-6.1-19.4-7.2-20.2c0,0-0.1,0-0.2,0
	c-2.9,0-19.3,4.5-20.5,5.3l-7.6,14.2C1564.3,898.1,1564.3,898.4,1564.5,898.7z M1607.9,896.4l14.3,7.7c0.3,0.1,0.6,0.2,1,0.2
	c0.7,0,1.4-0.4,1.7-1.1l13.7-25.7c0.2-0.4,0.3-1,0.1-1.5c-0.1-0.5-0.5-0.9-1-1.2l-14.3-7.7c-0.1,0-0.2-0.1-0.3-0.1
	c-1.2,0-20.1,6-20.9,7.6C1601.6,875.9,1606.8,895.8,1607.9,896.4z M1608.3,895.7l14.2,7.6c0.5,0.3,1.3,0.1,1.6-0.5l13.7-25.7
	c0.1-0.3,0.2-0.6,0.1-0.9c-0.1-0.2-0.3-0.5-0.5-0.6l-14.2-7.6c-2.2,0-19.4,6.1-20.2,7.2C1602.7,876.3,1607.3,894.3,1608.3,895.7z
	 M1554.1,867.1c0.1,0.5,0.5,0.9,1,1.2l14.3,7.7c0.1,0,0.2,0.1,0.3,0.1c1.2,0,20.1-6,20.9-7.6c0.4-0.9-0.9-6.6-2.2-11.3
	c-0.7-3.1-2.8-10.1-3.5-10.6l-14.3-7.7c-0.3-0.1-0.6-0.2-1-0.2c-0.7,0-1.4,0.4-1.7,1.1l-13.7,25.7C1554,866,1554,866.6,1554.1,867.1
	z M1554.8,866.9c0.1,0.3,0.3,0.5,0.5,0.6l14.2,7.6c2,0,19.4-6.1,20.2-7.2c0.4-1.2-4.3-19.3-5.3-20.7l-14.2-7.6
	c-0.2-0.1-0.3-0.1-0.5-0.1c-0.4,0-0.9,0.2-1.1,0.6l-13.7,25.7C1554.7,866.3,1554.7,866.6,1554.8,866.9z M1074.9,515.1
	c-0.3-0.1-0.6-0.2-1-0.2c-0.7,0-1.4,0.4-1.7,1.1l-17.3,32.4c-0.5,1-0.1,2.2,0.9,2.8l47.8,25.5c0.3,0.1,0.6,0.2,1,0.2
	c0.7,0,1.4-0.4,1.7-1.1l17.3-32.4c0.5-1,0.1-2.2-0.9-2.8L1074.9,515.1z M1122.5,541.3l-47.9-25.5c-0.2-0.1-0.3-0.1-0.5-0.1
	c-0.4,0-0.9,0.2-1.1,0.6l-17.2,32.3c-0.3,0.5-0.1,1.3,0.5,1.6l47.8,25.5c0.5,0.3,1.3,0.1,1.6-0.5l17.3-32.4
	C1123.3,542.4,1123.1,541.5,1122.5,541.3z M1051.8,558.5c-0.3-0.1-0.6-0.2-1-0.2c-0.7,0-1.4,0.4-1.7,1.1l-17.2,32.3
	c-0.2,0.4-0.3,1-0.1,1.5c0.1,0.5,0.5,0.9,1,1.2l47.8,25.5c0.3,0.1,0.6,0.2,1,0.2c0.7,0,1.4-0.4,1.7-1.1l17.3-32.4
	c0.2-0.4,0.3-1,0.1-1.5c-0.1-0.5-0.5-0.9-1-1.2L1051.8,558.5z M1100,585.3c-0.1-0.3-0.3-0.5-0.5-0.6l-47.8-25.5
	c-0.2-0.1-0.3-0.1-0.5-0.1c-0.4,0-0.9,0.2-1.1,0.6l-17.3,32.4c-0.1,0.3-0.2,0.6-0.1,0.9c0.1,0.3,0.3,0.5,0.5,0.6l47.8,25.5
	c0.5,0.3,1.3,0.1,1.6-0.5l17.3-32.4C1100,585.9,1100,585.6,1100,585.3z M1009.5,636.2c0.1,0.3,0.3,0.5,0.5,0.6l47.8,25.5
	c0.5,0.3,1.3,0.1,1.6-0.5l17.3-32.4c0.1-0.3,0.2-0.6,0.1-0.9s-0.3-0.5-0.5-0.6l-47.9-25.5c-0.2-0.1-0.3-0.1-0.5-0.1
	c-0.4,0-0.9,0.2-1.1,0.6l-17.3,32.4C1009.5,635.6,1009.4,635.9,1009.5,636.2z M1008.7,636.4c0.1,0.5,0.5,0.9,1,1.2l47.8,25.5
	c0.3,0.1,0.6,0.2,1,0.2c0.7,0,1.4-0.4,1.7-1.1l17.3-32.4c0.2-0.4,0.3-1,0.1-1.5c-0.1-0.5-0.5-0.9-1-1.2l-47.8-25.5
	c-0.3-0.1-0.6-0.2-1-0.2c-0.7,0-1.4,0.4-1.7,1.1l-17.2,32.4C1008.5,635.5,1008.5,636,1008.7,636.4z M1144.2,385.1
	c-0.3-0.1-0.6-0.2-1-0.2c-0.7,0-1.4,0.4-1.7,1.1l-17.3,32.4c-0.2,0.4-0.3,1-0.1,1.5c0.2,0.5,0.5,0.9,1,1.2l47.8,25.5
	c0.3,0.1,0.6,0.2,1,0.2c0.7,0,1.4-0.4,1.7-1.1l17.3-32.4c0.5-1,0.1-2.2-0.9-2.8L1144.2,385.1z M1191.6,411.4l-47.8-25.5
	c-0.2-0.1-0.3-0.1-0.5-0.1c-0.4,0-0.9,0.2-1.1,0.6l-17.3,32.4c-0.1,0.3-0.2,0.6-0.1,0.9s0.3,0.5,0.5,0.6l47.8,25.5
	c0.5,0.3,1.3,0.1,1.6-0.5L1192,413C1192.4,412.5,1192.2,411.6,1191.6,411.4z M1169.2,455.4c-0.1-0.3-0.3-0.5-0.5-0.6l-47.8-25.5
	c-0.2-0.1-0.3-0.1-0.5-0.1c-0.4,0-0.9,0.2-1.1,0.6l-17.4,32.4c-0.1,0.3-0.2,0.6-0.1,0.9s0.3,0.5,0.5,0.6l47.8,25.5
	c0.5,0.3,1.3,0.1,1.6-0.5l17.3-32.4C1169.3,456,1169.3,455.7,1169.2,455.4z M1121,428.5c-0.3-0.1-0.6-0.2-1-0.2
	c-0.7,0-1.4,0.4-1.7,1.1l-17.3,32.4c-0.2,0.4-0.3,1-0.1,1.5c0.1,0.5,0.5,0.9,1,1.2l47.8,25.5c0.3,0.1,0.6,0.2,1,0.2
	c0.7,0,1.4-0.4,1.7-1.1l17.3-32.4c0.2-0.4,0.3-1,0.1-1.5c-0.1-0.5-0.5-0.9-1-1.2L1121,428.5z M1145.5,498l-47.8-25.5
	c-0.2-0.1-0.3-0.1-0.5-0.1c-0.4,0-0.9,0.2-1.1,0.6l-17.3,32.4c-0.3,0.5-0.1,1.3,0.5,1.6l47.8,25.5c0.5,0.3,1.3,0.1,1.6-0.5
	l17.3-32.4C1146.3,499,1146.1,498.3,1145.5,498z M1098,471.8c-0.3-0.1-0.6-0.2-1-0.2c-0.7,0-1.4,0.4-1.7,1.1l-17.3,32.4
	c-0.5,1-0.1,2.2,0.9,2.8l47.8,25.5c0.3,0.1,0.6,0.2,1,0.2c0.7,0,1.4-0.4,1.7-1.1l17.3-32.4c0.5-1,0.1-2.2-0.9-2.8L1098,471.8z
	 M1170.2,331.8c-0.2,0.4-0.3,1-0.1,1.5c0.1,0.5,0.5,0.9,1,1.2l47.8,25.5c0.3,0.1,0.6,0.2,1,0.2c0.7,0,1.4-0.4,1.7-1.1l17.3-32.4
	c0.2-0.4,0.3-1,0.1-1.5c-0.2-0.5-0.5-0.9-1-1.2l-47.8-25.5c-0.3-0.1-0.6-0.2-1-0.2c-0.7,0-1.4,0.4-1.7,1.1L1170.2,331.8z
	 M1188.2,299.8L1171,332c-0.1,0.3-0.2,0.6-0.1,0.9c0.1,0.2,0.3,0.5,0.5,0.6l47.8,25.5c0.5,0.3,1.3,0.1,1.6-0.5l17.3-32.4
	c0.1-0.3,0.2-0.6,0.1-0.9s-0.3-0.5-0.5-0.6l-47.8-25.5c-0.2-0.1-0.3-0.1-0.5-0.1C1188.9,299.1,1188.5,299.4,1188.2,299.8z
	 M1217.4,247.4c-0.3-0.1-0.6-0.2-1-0.2c-0.7,0-1.4,0.4-1.7,1.1l-8.6,16.2c-0.2,0.4-0.3,1-0.1,1.5c0.1,0.5,0.5,0.9,1,1.2l47.8,25.5
	c0.3,0.1,0.6,0.2,1,0.2c0.7,0,1.4-0.4,1.7-1.1l8.6-16.2c0.2-0.4,0.3-1,0.1-1.5c-0.1-0.5-0.5-0.9-1-1.2L1217.4,247.4z M1265.6,274.4
	c-0.1-0.3-0.3-0.5-0.5-0.6l-47.8-25.5c-0.2-0.1-0.3-0.1-0.5-0.1c-0.4,0-0.9,0.2-1.1,0.6l-8.6,16.2c-0.1,0.3-0.2,0.6-0.1,0.9
	s0.3,0.5,0.5,0.6l47.8,25.5c0.5,0.3,1.3,0.1,1.6-0.5l8.6-16.2C1265.7,275.1,1265.7,274.8,1265.6,274.4z M1251.7,298.8l-47.8-25.5
	c-0.2-0.1-0.3-0.1-0.5-0.1c-0.4,0-0.9,0.2-1.1,0.6l-8.6,16.2c-0.3,0.5-0.1,1.3,0.5,1.6l47.8,25.5c0.5,0.3,1.3,0.1,1.6-0.5l8.6-16.2
	C1252.4,299.8,1252.2,299,1251.7,298.8z M1204.1,272.5c-0.3-0.1-0.6-0.2-1-0.2c-0.7,0-1.4,0.4-1.7,1.1l-8.6,16.2
	c-0.5,1-0.1,2.2,0.9,2.8l47.8,25.5c0.3,0.1,0.6,0.2,1,0.2c0.7,0,1.4-0.4,1.7-1.1l8.6-16.2c0.5-1,0.1-2.2-0.9-2.8L1204.1,272.5z
	 M963.8,521.7c-1.5-0.9-3.4-1.3-5.1-1.3c-4.1,0-7.8,2.2-9.7,5.8c-2.9,5.3-0.7,12.1,4.5,14.9c1.5,0.9,3.4,1.3,5.1,1.3
	c4.1,0,7.8-2.2,9.7-5.8C971.1,531.2,969.1,524.5,963.8,521.7z M921,580.9l24.4-0.8l-12.9-20.7L921,580.9z M1215.5,368.9
	c-0.1-0.3-0.3-0.5-0.5-0.6l-47.9-25.5c-0.2-0.1-0.3-0.1-0.5-0.1c-0.4,0-0.9,0.2-1.1,0.6l-17.3,32.4c-0.1,0.3-0.2,0.6-0.1,0.9
	s0.3,0.5,0.5,0.6l47.8,25.5c0.5,0.3,1.3,0.1,1.6-0.5l17.3-32.4C1215.6,369.6,1215.6,369.2,1215.5,368.9z M1167.3,342
	c-0.3-0.1-0.6-0.2-1-0.2c-0.7,0-1.4,0.4-1.7,1.1l-17.3,32.4c-0.2,0.4-0.3,1-0.1,1.5c0.1,0.5,0.5,0.9,1,1.2l47.8,25.5
	c0.3,0.1,0.6,0.2,1,0.2c0.7,0,1.4-0.4,1.7-1.1l17.3-32.4c0.2-0.4,0.3-1,0.1-1.5c-0.1-0.5-0.5-0.9-1-1.2L1167.3,342z M166.5,155.5
	c-1-1.3,3.3-4.5,0.3-8.1s-2.6,1-5.8-2.3c-3.3-3.3-3.6-4.2-3.6-4.2s-17.2,3.6-67.6,46.8l0,0l0,0l0,0l0,0
	c-50.3,43.1-56.6,59.7-56.6,59.7s0.3,0.6,3.6,4.2c3,3.6-1.6,2.6,1.6,6.1c3,3.6,6.9-0.3,8.1,1c1.3,1.3-1.6,3.6-1,5.8
	c0.6,2.3,12.7,15.9,12.7,15.9s2.6,0.3,3.9,1.6c1.3,1.6,2.3,3.9,2.3,3.9l20.2,23.4l3,0.3l11.7,13.6l4.9,0.6l26.3,30.8l-0.3,2.6
	l17.5,20.5h2.6l4.9,5.5l2.6,0.3l5.2,6.1l72.4-32.8l42.9-67.3l-5.2-6.1l0.3-2.6l-4.9-5.5l0.3-2.6l-17.5-20.5l-2.6-0.3l-26.3-30.8
	v-4.9l-11.7-13.5l0.3-3l-20.2-23.4c0,0-1.9-1.3-3.3-2.6c-1.3-1.6-1-4.2-1-4.2s-11.7-13.9-13.9-15
	C170.4,154.6,167.4,156.8,166.5,155.5z M157.7,384.3l-2.3-1.9c0,0,15.6-15.9,56.6-51s59.4-48.5,59.8-48.5l1.6,2.3
	c-0.3,0-18.9,13.3-59.4,48.5C173,368.4,157.7,384,157.7,384.3z M151.2,376.8l-2.3-1.9c0,0,15.6-15.9,56.6-51s59.4-48.5,59.8-48.5
	l1.6,2.3c-0.3,0-18.9,13.3-59.4,48.5C166.8,360.9,151.6,376.8,151.2,376.8z M132,354.4l-2.3-1.9c0,0,15.6-15.9,56.6-51
	s59.4-48.5,59.8-48.5l1.6,2.3c-0.3,0-18.9,13.3-59.4,48.5C147.7,338.5,132.4,354.1,132,354.4z M103.4,321.3c0,0,15-15.6,56.6-51
	s59.4-48.5,59.4-48.5l24.1,28c0,0-18.2,13-59.4,48.5s-56.6,51-56.6,51L103.4,321.3z M128.1,349.9l-1-1c0,0,15.6-15.9,56.6-51
	s59.4-48.5,59.4-48.5l1,1.3c-0.3,0-18.9,13.3-59.4,48.5C143.8,334,128.5,349.9,128.1,349.9z M104.1,321.9l-1-1
	c0,0,15.6-15.9,56.6-51s59.4-48.5,59.4-48.5l1,1.3c-0.3,0-18.9,13.3-59.4,48.5C119.7,306,104.1,321.6,104.1,321.9z M95.6,317.4l-1-1
	c0,0,15.6-15.9,56.6-51s65.7-51.9,66-51.9l1,1.3c-0.3,0.3-25,17.2-65.7,51.9C111.3,301.4,95.9,317.1,95.6,317.4z M88.4,308.9
	l-2.3-1.9c0,0,15.6-15.9,56.6-51s65.7-53.6,66-54l1.6,2.3c-0.3,0.3-25,18.9-66,54C104.1,293,88.9,308.6,88.4,308.9z M65.1,281.3
	l-2.3-1.9c0,0,15.6-15.9,56.6-51s65.7-53.6,66-54l1.6,2.3c-0.3,0.3-25,18.9-66,54C80.7,265.3,65.1,281,65.1,281.3z M48.5,259.2
	l-2.3-1.9c0,0,13.3-15.9,54.3-51s64-50.7,64.3-50.7l1.6,2.6c-0.3,0-23.1,15.6-64,50.4C61.8,243.3,48.9,259.2,48.5,259.2z M41,257.6
	l-2.3-1.9c0-0.3,16.3-20.2,57.2-55.2c41-34.7,69.3-53,69.6-53.3l1.6,2.6c-0.3,0.3-28.6,18.5-69.6,53.3C57,237.8,41,257.6,41,257.6z
	 M54,274.5l-2.3-1.9c0-0.3,16.6-21.1,57.5-56.2c41-35.1,69.9-52.7,70.2-53l1.6,2.6c-0.3,0.3-28.9,17.8-69.9,52.7
	C70.6,253.4,54.3,274.2,54,274.5z M157.7,141c0,0-17.2,3.6-67.6,46.8l0,0l0,0l0,0l0,0c-50.4,43.2-56.6,59.8-56.6,59.8
	s0.3,0.6,3.6,4.2c3,3.6-1.6,2.6,1.6,6.1c1,1.3,1.9,1.6,3.3,1.6c1.6,0,3.3-1,4.2-1c0.3,0,0.6,0,0.6,0.3c1.3,1.3-1.6,3.6-1,5.8
	c0.3,2.3,12.7,15.9,12.7,15.9s2.6,0.3,3.9,1.6c1.3,1.6,2.3,3.9,2.3,3.9l20.2,23.4l3,0.3l11.7,13.6l4.9,0.6l26.3,30.8l-0.3,2.6
	l17.5,20.5h2.6l4.9,5.5l2.6,0.3l5.2,6.1l73.5-31.9l41.6-68.2l-5.2-6.1l0.3-2.6l-4.9-5.5l0.3-2.6l-17.5-20.5l-2.6-0.3l-26.3-30.8
	v-4.9l-11.7-13.5l0.3-3l-20.2-23.4c0,0-1.9-1.3-3.3-2.6c-1.3-1.6-1-4.2-1-4.2s-11.7-13.9-13.9-15c-0.3,0-0.6-0.3-1-0.3
	c-1.3,0-3,1-3.9,1c-0.3,0-0.6,0-1-0.3c-1-1.3,3.3-4.5,0.3-8.1c-1-1-1.6-1.3-1.9-1.3c-0.6,0-1,0.3-1.6,0.3s-1-0.3-1.9-1.3
	C158.3,141.6,157.7,141,157.7,141L157.7,141z M180.8,403.8c0,0-8.1-9.4-9.7-11.4c-1.6-1.9-5.5-3-9.1-3c0,0,19.2-18.9,56.9-51
	s59.1-48.5,59.1-48.5c-0.3,3.6,0,7.8,1.3,9.4c1.6,1.9,9.7,11.4,9.7,11.4L180.8,403.8z M180.9,403.6c-2.2-2.5,20.4-25.2,50.2-50.7
	c29.8-25.6,55.7-44.3,57.9-41.8 M243.8,256.1l19.3,22.5l-2.3,1.9L241.6,258L243.8,256.1z M239,259.5l19.3,22.5l-2.3,1.9l-19.3-22.5
	L239,259.5z M234.4,263.3l19.3,22.5l-2.3,1.9l-19.3-22.5L234.4,263.3z M229.9,267.2l19.3,22.5l-2.3,1.9l-19.3-22.5L229.9,267.2z
	 M225.5,270.8l19.3,22.5l-2.3,1.9l-19.3-22.5L225.5,270.8z M221.2,274.9l19.3,22.5l-2.3,1.9l-19.3-22.5L221.2,274.9z M216.7,278.7
	l19.3,22.5l-2.3,1.9l-19.3-22.5L216.7,278.7z M212.1,282.6l19.3,22.5l-2.3,1.9l-19.3-22.5L212.1,282.6z M207.5,286.4l19.3,22.5
	l-2.3,1.9l-19.3-22.5L207.5,286.4z M202.6,289.8l19.3,22.5l-2.3,1.9l-19.3-22.5L202.6,289.8z M197.6,292.9l19.3,22.5l-2.3,1.9
	l-19.3-22.5L197.6,292.9z M193.2,296.9l19.3,22.5l-2.3,1.9l-19.3-22.5L193.2,296.9z M188.6,300.8l19.3,22.5l-2.3,1.9l-19.3-22.5
	L188.6,300.8z M136.1,348.5l19.3,22.5l-2.3,1.9l-19.3-22.5L136.1,348.5z M139.9,344.1l19.3,22.5l-2.3,1.9L137.7,346L139.9,344.1z
	 M144.4,340.3l19.3,22.5l-2.3,1.9l-19.3-22.5L144.4,340.3z M149.1,336.4l19.3,22.5l-2.3,1.9l-19.3-22.5L149.1,336.4z M153.5,332.6
	l19.3,22.5l-2.3,1.9l-19.3-22.5L153.5,332.6z M158.2,328.7l19.3,22.5l-2.3,1.9l-19.3-22.5L158.2,328.7z M162.7,324.9l19.3,22.5
	l-2.3,1.9l-19.3-22.5L162.7,324.9z M167.2,320.8l19.3,22.5l-2.3,1.9l-19.3-22.5L167.2,320.8z M171.4,317.2l19.3,22.5l-2.3,1.9
	l-19.3-22.5L171.4,317.2z M175.7,312.8l19.3,22.5l-2.3,1.9l-19.3-22.5L175.7,312.8z M179.7,308.3l19.3,22.5l-2.3,1.9l-19.3-22.5
	L179.7,308.3z M184,304.6l19.3,22.5L201,329l-19.3-22.5L184,304.6z M188.6,300.8l19.3,22.5l-2.3,1.9l-19.3-22.5L188.6,300.8z
	 M136.1,348.5l19.3,22.5l-2.3,1.9l-19.3-22.5L136.1,348.5z M139.9,344.1l19.3,22.5l-2.3,1.9L137.7,346L139.9,344.1z M144.4,340.3
	l19.3,22.5l-2.3,1.9l-19.3-22.5L144.4,340.3z M149.1,336.4l19.3,22.5l-2.3,1.9l-19.3-22.5L149.1,336.4z M153.5,332.6l19.3,22.5
	l-2.3,1.9l-19.3-22.5L153.5,332.6z M158.2,328.7l19.3,22.5l-2.3,1.9l-19.3-22.5L158.2,328.7z M162.7,324.9l19.3,22.5l-2.3,1.9
	l-19.3-22.5L162.7,324.9z M167.2,320.8l19.3,22.5l-2.3,1.9l-19.3-22.5L167.2,320.8z M171.4,317.2l19.3,22.5l-2.3,1.9l-19.3-22.5
	L171.4,317.2z M175.7,312.8l19.3,22.5l-2.3,1.9l-19.3-22.5L175.7,312.8z M179.7,308.3l19.3,22.5l-2.3,1.9l-19.3-22.5L179.7,308.3z
	 M184,304.6l19.3,22.5L201,329l-19.3-22.5L184,304.6z M179.9,181.5l23.1,26.9l-2.3,1.9l-23.1-26.9L179.9,181.5z M184.5,177.6
	l23.1,26.9l-2.3,1.9l-23.1-26.9L184.5,177.6z M175,184.8l23.1,26.9l-2.3,1.9l-23.1-26.9L175,184.8z M170.4,188.7l23.1,26.9l-2.3,1.9
	l-23.1-26.9L170.4,188.7z M166.1,192.2l23.1,26.9l-2.3,1.9l-23.1-26.9L166.1,192.2z M161.6,196.1l23.1,26.9l-2.3,1.9L159.3,198
	L161.6,196.1z M157,199.9l23.1,26.9l-2.3,1.9l-23.1-26.9L157,199.9z M152.7,204.1l23.1,26.9l-2.3,1.9L150.4,206L152.7,204.1z
	 M148,207.8l23.1,26.9l-2.3,1.9l-23.1-26.9L148,207.8z M143.5,211.8l23.1,26.9l-2.3,1.9l-23.1-26.9L143.5,211.8z M138.7,215.1
	l23.1,26.9l-2.3,1.9L136.4,217L138.7,215.1z M133.5,218.2l23.1,26.9l-2.3,1.9l-23.1-26.9L133.5,218.2z M129,222l23.1,26.9l-2.3,1.9
	l-23.1-26.9L129,222z M124.5,226l23.1,26.9l-2.3,1.9l-23-26.8L124.5,226z M72.1,273.8l23.1,26.9l-2.3,1.9l-23.1-26.9L72.1,273.8z
	 M76.2,269.1L99.3,296l-2.3,2l-23-26.9L76.2,269.1z M80.5,265.5l23.1,26.9l-2.3,1.9l-23.1-26.9L80.5,265.5z M85.1,261.7l23.1,26.9
	l-2.3,1.9l-23.1-26.9L85.1,261.7z M89.6,257.9l23.1,26.9l-2.3,1.9l-23.1-26.9L89.6,257.9z M94.1,254l23.1,26.9l-2.3,1.9l-23.1-26.9
	L94.1,254z M98.7,250.2l23.1,26.9l-2.3,1.9l-23.1-26.9L98.7,250.2z M103,246.1l23.1,26.9l-2.3,1.9L100.7,248L103,246.1z
	 M107.7,242.2l23.1,26.9l-2.3,1.9l-23.1-26.9L107.7,242.2z M111.7,238.2l23.1,26.9l-2.3,1.9l-23.1-26.9L111.7,238.2z M115.7,233.5
	l23.1,26.9l-2.3,1.9l-23.1-26.9L115.7,233.5z M120.3,229.8l23.1,26.9l-2.3,1.9L118,231.7L120.3,229.8z M124.5,226l23.1,26.9
	l-2.3,1.9l-23-26.8L124.5,226z M72.1,273.8l23.1,26.9l-2.3,1.9l-23.1-26.9L72.1,273.8z M67.6,277.7l23.1,26.9l-2.3,1.9l-23.1-26.9
	L67.6,277.7z M76.2,269.1L99.3,296l-2.3,2l-23-26.9L76.2,269.1z M80.5,265.5l23.1,26.9l-2.3,1.9l-23.1-26.9L80.5,265.5z M85.1,261.7
	l23.1,26.9l-2.3,1.9l-23.1-26.9L85.1,261.7z M89.6,257.9l23.1,26.9l-2.3,1.9l-23.1-26.9L89.6,257.9z M94.1,254l23.1,26.9l-2.3,1.9
	l-23.1-26.9L94.1,254z M98.7,250.2l23.1,26.9l-2.3,1.9l-23.1-26.9L98.7,250.2z M103,246.1l23.1,26.9l-2.3,1.9L100.7,248L103,246.1z
	 M107.7,242.2l23.1,26.9l-2.3,1.9l-23.1-26.9L107.7,242.2z M111.7,238.2l23.1,26.9l-2.3,1.9l-23.1-26.9L111.7,238.2z M115.7,233.5
	l23.1,26.9l-2.3,1.9l-23.1-26.9L115.7,233.5z M120.3,229.8l23.1,26.9l-2.3,1.9L118,231.7L120.3,229.8z M153.8,319
	c-1.6,0-3-0.6-3.9-1.9l-13-15.3c-1-1-1.3-2.3-1.3-3.9c0-1.3,0.6-2.6,1.9-3.6l49.7-42.5c1-0.6,2.3-1.3,3.3-1.3c1.6,0,3,0.6,3.9,1.9
	l13,15.3c1,1,1.3,2.3,1.3,3.9c0,1.3-0.6,2.6-1.9,3.6l-49.7,42.5C156.1,318.3,155.1,319,153.8,319z M116.1,351.8
	C115.8,351.8,115.8,351.8,116.1,351.8h-0.6l-0.3-0.3l-17.5-18.2l0.3-1c0.3-0.3,6.5-10.8,12.7-14.7c3-1.9,4.9-3,6.5-3
	c1.5,0,2.6,1,3.3,1.6c1,1.3,13.3,15.6,13.9,16.6c1.3,1.6,0,4.9-0.6,6.1c-0.6,1.6-2.6,5.2-5.8,8.1
	C122.3,351.5,117.1,351.8,116.1,351.8z M175.6,434.7l-5.5-6.5c-1-1.3-1.3-3.6,5.5-10.3l0.3-0.3c1.9-1.9,3.9-3.9,6.5-3.9
	c1.3,0,2.6,0.6,3.9,1.9c3.3,3.9-5.2,13.9-9.1,18.2L175.6,434.7z M186.6,453.8L171,435.6c-0.6-0.6-1.3-2.3,0-4.9
	c0.6-1.3,1.9-3,3.3-3.9c2.3-1.9,8.1-9.1,9.1-13c1.3-5.5,7.8-9.1,7.8-9.1l1.6-0.6l8.8,21.8L186.6,453.8z M232.1,533.1
	c-2.6,0-5.5-0.6-8.1-1.9c-9.4-4.9-15.9-11.4-23.1-19.5c-21.8-25.3-29.2-42.2-15.6-73.8c2.6-6.1-1-15.9-3.3-21.8
	c-1-3-1.6-4.2-1.6-5.2v-0.3l0.3-0.3c0-0.3,3.9-6.5,7.2-9.1l6.9-5.8c0.6-2.3,3.9-12.7,10-21.4c7.2-9.4,45.5-43.5,54-45.8
	c2.3-0.6,4.9-1,7.8-1.6c5.8-1,12-2.3,15-4.5c10.3-8.8,12.4-9.4,13-9.4c0.3,0,0.3,0,0.6,0c1.3,0,3,1,5.5,3s5.5,4.2,7.8,4.5
	c0,0,0.3,0,0.6,0c3.3,0,11.1-2.3,15.3-7.2c1.9-1.9,2.6-4.2,2.3-6.9c-1-7.2-3-10.3-5.2-13.9c-1.9-3.3-4.2-7.2-5.8-13.9
	c-3.6-14.7,0.6-21.8,8.4-28.3c1-1,1.9-1.6,2.6-2.3c3.9-3.6,4.2-3.6,8.1-5.8l1-0.6c1.9-1,8.4-4.5,19.2-4.5
	c25.3,0,47.4,19.8,61.8,36.7c10.3,12.4,17.8,21.1,22.1,26c1.9,2.3,3,3.6,3.6,4.2s1,1,1,1.3c0.3,0.3,1,1.3,1.6,1.9
	c4.5,5.2,7.8,12.4,9.7,19.8c1.6,6.9,1.9,13,0.3,16.6c-1.6,4.2-3,4.9-3.9,5.5c-0.3,0.3-0.3,0.3-0.6,0.6c-0.3,0.6-0.3,1-0.6,1.3
	c-0.6,1.6-1,3-4.5,5.5c-2.6,2.3-3.6,3.3-4.5,3.9c-1,1-1.3,1.3-3,2.6c-1.6,1.3-3.9,1.6-6.5,2.3s-5.5,1.3-7.2,2.6
	c-0.3,0.3-0.3,0.6,0,1l0,0c0.3,0.3,1.3,1.6,1.3,3.3c0,1.6-1.3,3.6-3.3,5.2L384.9,409c-1.9,1.9-3.3,1.9-4.5,2.3c-0.6,0-0.6,0-1.3,0.3
	c-0.3,0.3-0.3,0.6-0.3,1.6c0,1.3,0,3.6-1.9,5.5L247,529.3c-2.6,2.3-4.2,3.3-5.8,3.3c-0.6,0-1.6-0.3-1.9-0.6c-0.3,0-1,0.3-1.3,0.3
	C237,532.4,234.7,533.1,232.1,533.1z M231.5,503.5c0,0,2.6,7.8,5.5,11.4c3,3.3,11.4-3,13.9-5.2c2.6-2.3,12.4-11.4,9.7-14.7
	c-2.6-3.3-9.4-8.1-11.4-8.8C247.3,485.4,231.5,503.5,231.5,503.5z M239.3,517.2L239.3,517.2c-1.9,0-3-0.6-3.6-1.6
	c-3-3.6-5.8-11.4-5.8-11.7l-0.3-1l0.6-0.6c10.3-11.7,16.9-17.8,18.9-17.8c0.3,0,0.3,0,0.6,0c2.3,1,9.1,6.1,11.7,9.1
	c3.9,4.5-8.4,15.6-9.7,16.6C250.6,511.6,244.2,517.2,239.3,517.2z M233.1,503.8c0.6,1.9,3,7.5,4.9,10c0.3,0.3,0.3,0.3,1.3,0.3l0,0
	c2.6,0,7.2-3,10.3-5.8c5.5-4.9,10.3-11.4,9.4-12.4c-2.6-3-8.1-7.2-10.3-8.1C247,488.9,239.6,496.8,233.1,503.8z M248.7,502.6
	c3,2.6,5.8,3,6.5,3c0.6,0,1.9-2.3,1.6-4.5c-0.3-1.3-6.9-8.4-7.5-11.1c-0.6-2.6-2.3,2.3-2.3,2.3l-3.6,5.5l-3.9,2.3
	C240,500,245.8,500,248.7,502.6z M255.2,506.8c-0.6,0-3.9,0-7.5-3.3c-1.9-1.9-6.5-2.3-8.1-2.3h-4.9l7.8-4.9l3.3-5.2
	c1.3-3.9,2.6-3.9,3-3.9c0.6,0,1.6,0.3,1.9,1.9c0.3,1.3,2.6,4.2,4.2,6.1c2.3,3,3,3.9,3.3,4.9c0.3,1.9-0.3,3.9-1.3,5.2
	C256.5,506.5,255.8,506.8,255.2,506.8L255.2,506.8z M244.2,499c1.9,0.3,4.2,1.3,5.5,2.6c2.3,1.9,4.2,2.3,4.9,2.3
	c0.3-0.6,1-1.6,0.6-2.6c-0.3-0.3-1.6-2.3-2.6-3.9c-1.6-2.3-3.3-4.2-3.9-5.5c0,0.3,0,0.3-0.3,0.6v0.3l-3.9,5.8L244.2,499z M240,500
	c0,0,2.6,0,4.2,0c2.3,0,5.5-0.3,6.1-1c1-0.6,0-8.8-0.6-9.1C248.7,489.6,240,500,240,500z M255.2,506.8c-0.6,0-3.9,0-7.5-3.3
	c-1.9-1.9-6.5-2.3-8.1-2.3H238l1-9.1l0.6-0.3c1-0.6,6.1-4.2,8.8-4.2c1.3,0,2.3,0.6,2.6,1.6c0.3,1.3,2.6,4.2,4.2,6.1
	c2.3,3,3,3.9,3.3,4.9c0.3,1.9-0.3,3.9-1.3,5.2C256.5,506.5,255.8,506.8,255.2,506.8L255.2,506.8z M241.5,498.7c2.3,0.3,5.8,1,8.4,3
	c2.3,1.9,4.2,2.3,4.9,2.3c0.3-0.6,1-1.6,0.6-2.6c-0.3-0.3-1.6-2.3-2.6-3.9c-2.3-3-3.9-5.2-4.5-6.9c-1.3,0.3-3.9,1.6-6.1,3.3
	L241.5,498.7z M227.6,452.2c13.5,0,24.4,10.9,24.4,24.4S241,501,227.6,501s-24.4-10.9-24.4-24.4S214.1,452.2,227.6,452.2z
	 M227.6,502.6c-7.5,0-14.7-3.3-19.8-9.1c-9.4-10.8-8.1-27.3,3-36.4c4.5-3.9,10.8-6.1,16.9-6.1c7.5,0,14.7,3.3,19.8,9.1
	c9.4,10.8,8.1,27.3-3,36.4C239.6,500.3,233.7,502.6,227.6,502.6z M227.6,453.5c-5.5,0-10.8,1.9-15,5.5c-9.7,8.1-10.8,22.7-2.6,32.5
	c4.2,5.2,10.8,8.1,17.5,8.1c5.5,0,10.8-1.9,15-5.5c9.7-8.1,10.8-22.7,2.6-32.5C240.6,456.4,234,453.5,227.6,453.5z M211.7,463.6
	c-9.4,8.1-10.3,22.4-2.6,31.9c7.8,9.4,22.4,10.3,31.9,2.6c9.4-8.1,10.3-22.4,2.6-31.9C235,456.4,221.1,455.5,211.7,463.6z
	 M231.8,487.4c-3.6,3-9.1,2.6-12-1c-3-3.6-2.6-9.1,1-12s9.1-2.6,12,1C235.7,478.8,235.4,484.4,231.8,487.4z M226.2,504.6
	L226.2,504.6c-7.2,0-13.6-3-18.2-8.4c-4.2-4.9-6.1-11.1-5.8-17.5c0.6-6.5,3.6-12,8.4-16.3c4.2-3.6,9.7-5.8,15.6-5.8
	c7.2,0,13.6,3,18.2,8.4c8.4,10,7.5,25.3-2.6,33.8C237.3,502.6,231.8,504.6,226.2,504.6z M226.2,459.7c-4.9,0-9.7,1.9-13.6,5.2
	c-4.2,3.6-6.9,8.8-7.2,14.3s1.3,11.1,4.9,15.3c3.9,4.5,9.7,7.5,15.9,7.5c4.9,0,9.7-1.9,13.6-5.2c8.8-7.5,9.7-20.8,2.3-29.6
	C237.9,462.3,232.1,459.7,226.2,459.7z M226.2,490.8c-3,0-5.8-1.3-7.5-3.6c-1.6-1.9-2.6-4.5-2.3-7.2c0.3-2.6,1.3-5.2,3.6-6.9
	c1.9-1.6,4.2-2.3,6.5-2.3c3,0,5.8,1.3,7.5,3.6c3.6,4.2,3.3,10.3-1,13.9C231.2,489.9,228.5,490.8,226.2,490.8z M226.2,473.6
	c-1.6,0-3.3,0.6-4.5,1.6c-1.3,1.3-2.3,3-2.3,4.9s0.3,3.6,1.6,5.2s3.3,2.6,5.2,2.6c1.6,0,3.3-0.6,4.5-1.6c3-2.6,3.3-6.9,0.6-9.7
	C230.1,474.6,228.2,473.6,226.2,473.6z M298.1,462.7c-3.9,0-12.4-3.9-15-7.2l-24.4-28.6c-0.6-1-1-1.9-1-3.3
	c0.3-4.5,6.9-10.3,15.3-17.5c0.6-0.6,1.3-1,1.9-1.6c10.3-9.1,17.8-13.6,21.8-13.6c1.6,0,2.3,0.6,3,1.3l24.7,28.6
	c1.9,2.3,7.2,14.7,3.3,18.2c-2.6,2.3-25,21.4-26.9,23.1C299.7,462.3,299.1,462.7,298.1,462.7z M295.5,399.2l-28,24.1
	c-1,0.6-1,1.9-0.3,3l22.7,26.3c0.6,1,1.9,1,3,0.3l8.4-7.2l-9.4-11.1c-1.9-0.3-3.6-1.3-4.9-3c-3.3-3.6-2.6-9.4,1-12.7
	c3.6-3.3,9.4-2.6,12.7,1c1.3,1.6,2.3,3.6,2.3,5.8l9.1,10.8l9.1-7.8c1-0.6,1-1.9,0.3-3l-22.7-26.3
	C297.4,398.6,296.1,398.6,295.5,399.2z M286.4,417.5c-1,1-2.6,0.6-3.6-0.3c-1-1-0.6-2.6,0.3-3.6c1-1,2.6-0.6,3.6,0.3
	C287.4,415.1,287.4,416.5,286.4,417.5z M290.6,422.6c-1.9,1.6-1.9,4.5-0.3,6.1c1.6,1.9,4.5,1.9,6.1,0.3c1.9-1.6,1.9-4.5,0.3-6.1
	C295.2,421.4,292.5,421.1,290.6,422.6z M268.6,420l-3.9,3.3c-1,0.6-1,1.9-0.3,3l20.5,24.1c0.6,1,1.9,1,3,0.3l3.9-3.3
	c1-0.6,1-1.9,0.3-3l-20.5-24.1C270.8,419.4,269.5,419.4,268.6,420z M296.1,396.7l-3.9,3.3c-1,0.6-1,1.9-0.3,3l20.5,24.1
	c0.6,1,1.9,1,3,0.3l3.9-3.3c1-0.6,1-1.9,0.3-3L299.1,397C298.4,396,297.1,396,296.1,396.7z M434.5,331c0.6,1,0.6,2.3-0.3,3
	l-76.7,65.7c-1,0.6-2.3,0.6-3-0.3l-29.2-34.1c-0.6-1-0.6-2.3,0.3-3l76.7-65.7c1-0.6,2.3-0.6,3,0.3L434.5,331z M430.3,330.7
	c0.6,1,0.6,2.3-0.3,3l-72.1,61.8c-1,0.6-2.3,0.6-3-0.3l-25.3-29.6c-0.6-1-0.6-2.3,0.3-3l72.1-61.8c1-0.6,2.3-0.6,3,0.3L430.3,330.7z
	 M278.3,487.4c0,0,1.3,10.8,6.5,16.9s9.7,6.5,12.7,3.9c3.3-2.6,13.6-20.5,34.1-38s38.6-24.4,41.9-27.3c3.3-3,1.9-10-1-13.6
	c-3-3.6-15.9-9.1-15.9-9.1s-6.5,5.5-9.1,7.8c-1.3,1-1,6.9-1,6.9l-53,45.5c0,0-4.9-1.6-6.1-0.6C285.8,480.8,278.3,487.4,278.3,487.4z
	 M293.5,511L293.5,511c-3.3,0-6.5-1.9-9.7-5.8c-5.5-6.5-6.9-17.2-6.9-17.8v-0.6l9.7-8.4c0.6-0.6,1.6-1,2.6-1c1.6,0,3.3,0.3,4.2,0.6
	l51.9-44.6c0-3,0.3-6.1,1.6-7.2c2.6-2.3,9.1-7.8,9.1-7.8l0.6-0.6l1,0.3c1.3,0.6,13.3,5.8,16.3,9.4c3.6,4.2,4.9,12.4,1,15.9
	c-1,1-3.3,1.9-6.5,3.6c-7.8,4.2-21.1,11.1-35.8,23.4c-14.7,12.3-24.4,25.3-29.6,32.2c-2.3,3-3.6,4.9-4.5,5.8
	C296.8,510.4,295.2,511,293.5,511z M333.5,343.3L333.5,343.3c-1.9,0-4.2-1-5.5-2.6c-2.6-3-2.3-7.5,0.6-10c1.3-1,3-1.6,4.5-1.6
	c1.9,0,4.2,1,5.5,2.6s1.9,3.3,1.6,5.2c0,1.9-1,3.6-2.6,4.9C337.1,342.7,335.5,343.3,333.5,343.3z M350.4,328.8L350.4,328.8
	c-1.9,0-4.2-1-5.5-2.6s-1.9-3.3-1.6-5.2c0-1.9,1-3.6,2.6-4.9c1.3-1,3-1.6,4.5-1.6c1.9,0,4.2,1,5.5,2.6c2.6,3,2.3,7.5-0.6,10
	C354,328.5,352.4,328.8,350.4,328.8z M367.3,314.4L367.3,314.4c-2.3,0-4.2-1-5.5-2.6c-2.6-3-2.3-7.5,0.6-10c1.3-1,3-1.6,4.5-1.6
	c1.9,0,4.2,1,5.5,2.6c2.6,3,2.3,7.5-0.6,10C370.9,313.8,369,314.4,367.3,314.4z M385.1,299.8L385.1,299.8c-1.6,0-3.3-0.6-4.5-1.9
	c-1-1.3-1.6-2.6-1.3-4.2c0-1.6,1-3,1.9-3.9c1-1,2.6-1.3,3.9-1.3c1.6,0,3.3,0.6,4.5,1.9c1,1.3,1.6,2.6,1.3,4.2c0,1.6-1,3-1.9,3.9
	C387.8,299.5,386.5,299.8,385.1,299.8z M365.7,293.3L365.7,293.3c-4.2,0-8.4-2.3-11.7-5.8c-2.6-3-3.9-6.5-4.2-9.7
	c-0.3-3.6,1-6.9,3.3-8.8c1.6-1.6,3.9-2.3,6.5-2.3c4.2,0,8.4,2.3,11.7,5.8c5.2,6.1,5.5,14.3,0.6,18.5
	C370.6,292.7,368.2,293.3,365.7,293.3z M337.7,287.8L337.7,287.8c-2.3,0-4.2-1-5.5-2.6s-1.9-3.3-1.6-5.2c0-1.9,1-3.6,2.6-4.9
	c1.3-1,3-1.6,4.5-1.6c1.9,0,4.2,1,5.5,2.6s1.9,3.3,1.6,5.2c0,1.9-1,3.6-2.6,4.9C341.3,287.2,339.7,287.8,337.7,287.8z M336.5,268.6
	L336.5,268.6c-3,0-5.8-1.3-7.8-3.6c-1.6-1.9-3.3-5.5,3-11.1c1.9-1.6,5.8-3,9.4-3c2.3,0,5.2,0.3,6.9,2.6c1.6,1.9,2.3,3.9,1.6,5.8
	c-0.3,1.6-1.6,3.3-3.9,5.2C345.2,265.6,341.3,268.6,336.5,268.6z M420.9,285.8c-2.6-3-4.2-3.3-5.2-2.3l-4.9,4.2
	c-2.6,2.3-3.3,5.8-1,8.8c0,0,18.2,21.1,20.8,24.4c2.6,3,4.5,3,7.2,1.6c3-1,5.2-4.5,4.5-8.1C441.7,310.8,423.6,289.1,420.9,285.8z
	 M370.6,267.6l-21.8,18.9c-1,0.6-1,1.9-0.3,3l3,3.3c0.6,1,1.9,1,3,0.3l21.8-18.9c1-0.6,1-1.9,0.3-3l-3-3.3
	C372.8,267,371.5,267,370.6,267.6z M187.6,439.8l-3-1c0,0,4.9-13.6,7.5-28.6s3.3-17.8,3.3-17.8l3,1c0,0-1,3-3.3,17.5
	C192.4,426.2,187.6,439.8,187.6,439.8z M277.3,326.5l-0.6-3c0.6,0,15.9-2.6,21.4-3.3c5.2-0.6,15-1.9,15.3-1.9l0.3,3
	c0,0-10,1.3-15.3,1.9C293.2,323.8,277.3,326.5,277.3,326.5z M332.2,262.8c-0.3,0-0.6-0.3-0.6-0.6c-0.3-1.3,0.3-2.6,1-3.6
	c1.6-1.9,4.9-3.3,8.8-3.6c0.3,0,0.6,0.3,0.6,0.6s-0.3,0.6-0.6,0.6c-3.6,0.3-6.1,1.6-7.8,3.3c-0.6,0.6-1,1.6-0.6,2.6
	C332.9,262.2,332.5,262.8,332.2,262.8L332.2,262.8z"/>
</svg>
