<?xml version="1.0" encoding="utf-8"?>
<!-- Generator: Adobe Illustrator 19.2.1, SVG Export Plug-In . SVG Version: 6.00 Build 0)  -->
<svg version="1.1" id="gear-lite" xmlns="http://www.w3.org/2000/svg" xmlns:xlink="http://www.w3.org/1999/xlink" x="0px" y="0px"
	 viewBox="0 0 1920 1200" style="enable-background:new 0 0 1920 1200;" xml:space="preserve">
<style type="text/css">
	.st0{opacity:0.5;fill:none;stroke:#D0D0D0;stroke-miterlimit:10;}
</style>
<path id="Walcom_3_" class="st0" d="M747.1,916.3c3.5,7.8,0,17.1-8.1,20.6l-518.4,229.8c-7.8,3.5-17.1,0-20.6-8.1L55.1,831.7
	c-3.5-7.8,0-17.1,8.1-20.6l518.4-229.8c7.8-3.5,17.1,0,20.6,8.1L747.1,916.3z M740.7,901.8c3.5,7.8,0,17.1-8.1,20.6l-518.4,229.8
	c-7.8,3.5-17.1,0-20.6-8.1L61.4,846.2c-3.5-7.8,0-17.1,8.1-20.6L588,595.8c7.8-3.5,17.1,0,20.6,8.1L740.7,901.8z M588,579.8
	c-2,0-4.3,0.3-6.4,1.4L63.2,811.1c-7.8,3.5-11.6,12.8-8.1,20.6L200,1158.5c2.6,5.8,8.4,9.3,14.2,9.3c2,0,4.3-0.3,6.4-1.4L739,936.6
	c7.8-3.5,11.6-12.8,8.1-20.6L602.2,589.1C599.6,583.3,593.8,579.8,588,579.8L588,579.8z M138,819l438.2-194.2l126.1,284.5
	l-438.2,194.2L138,819z M164,954.3c13.9,0,25.2,11.3,25.2,25.2s-11.3,25.2-25.2,25.2s-25.2-11.3-25.2-25.2S150.1,954.3,164,954.3z
	 M169.2,991c6.4-2.9,9.3-10.1,6.4-16.5c-2.9-6.4-10.1-9.3-16.5-6.4c-6.4,2.9-9.3,10.1-6.4,16.5C155.3,990.8,162.9,993.7,169.2,991z
	 M126.6,914l13.9-6.1c1.2-0.6,1.7-2,1.2-3.2l-3.2-7.5c-0.6-1.2-2-1.7-3.2-1.2l-13.9,6.1c-1.2,0.6-1.7,2-1.2,3.2l3.2,7.5
	C124.3,914,125.5,914.3,126.6,914z M133.9,929.6l13.9-6.1c1.2-0.6,1.7-2,1.2-3.2l-3.2-7.5c-0.6-1.2-2-1.7-3.2-1.2l-13.9,6.1
	c-1.2,0.6-1.7,2-1.2,3.2l3.2,7.5C131.3,929.6,132.4,930.2,133.9,929.6z M119.7,898l13.9-6.1c1.2-0.6,1.7-2,1.2-3.2l-3.2-7.5
	c-0.6-1.2-2-1.7-3.2-1.2l-13.9,6.1c-1.2,0.6-1.7,2-1.2,3.2l3.2,7.5C117.1,898,118.5,898.6,119.7,898z M194.5,1028.7l-13.9,6.1
	c-1.2,0.6-1.7,2-1.2,3.2l3.2,7.5c0.6,1.2,2,1.7,3.2,1.2l13.9-6.1c1.2-0.6,1.7-2,1.2-3.2l-3.2-7.5
	C197.1,1028.7,195.6,1028.1,194.5,1028.7z M140.8,945.3l13.9-6.1c1.2-0.6,1.7-2,1.2-3.2l-3.2-7.5c-0.6-1.2-2-1.7-3.2-1.2l-13.9,6.1
	c-1.2,0.6-1.7,2-1.2,3.2l3.2,7.5C138.2,945.3,139.7,945.8,140.8,945.3z M201.4,1044.4l-13.9,6.1c-1.2,0.6-1.7,2-1.2,3.2l3.2,7.5
	c0.6,1.2,2,1.7,3.2,1.2l13.9-6.1c1.2-0.6,1.7-2,1.2-3.2l-3.2-7.5C204,1044.4,202.6,1043.8,201.4,1044.4z M208.4,1060.3l-13.9,6.1
	c-1.2,0.6-1.7,2-1.2,3.2l3.2,7.5c0.6,1.2,2,1.7,3.2,1.2l13.9-6.1c1.2-0.6,1.7-2,1.2-3.2l-3.2-7.5
	C211,1060.3,209.5,1059.7,208.4,1060.3z M187.5,1013.1l-13.9,6.1c-1.2,0.6-1.7,2-1.2,3.2l3.2,7.5c0.6,1.2,2,1.7,3.2,1.2l13.9-6.1
	c1.2-0.6,1.7-2,1.2-3.2l-3.2-7.5C190.1,1013.1,188.7,1012.5,187.5,1013.1z M164,968.2c4.3,0,8.4,2.6,10.1,6.7
	c1.2,2.6,1.2,5.8,0.3,8.7c-1.2,2.9-3.2,4.9-5.8,6.1c-1.4,0.6-2.9,0.9-4.6,0.9c-4.3,0-8.4-2.6-10.1-6.7c-1.2-2.6-1.2-5.8-0.3-8.7
	c1.2-2.9,3.2-4.9,5.8-6.1C160.8,968.4,162.6,968.2,164,968.2 M136.5,895.7c-0.3,0-0.6,0-0.9,0.3l-13.9,6.1c-1.2,0.6-1.7,2-1.2,3.2
	l3.2,7.5c0.3,0.9,1.2,1.4,2,1.4c0.3,0,0.6,0,0.9-0.3l13.9-6.1c1.2-0.6,1.7-2,1.2-3.2l-3.2-7.5C138.2,896.3,137.4,895.7,136.5,895.7
	L136.5,895.7z M150.4,927.3c-0.3,0-0.6,0-0.9,0.3l-13.9,6.1c-1.2,0.6-1.7,2-1.2,3.2l3.2,7.5c0.3,0.9,1.2,1.4,2,1.4
	c0.3,0,0.6,0,0.9-0.3l13.9-6.1c1.2-0.6,1.7-2,1.2-3.2l-3.2-7.5C152.1,927.9,151.3,927.3,150.4,927.3L150.4,927.3z M164,967
	c-1.7,0-3.5,0.3-5.2,1.2c-6.4,2.9-9.3,10.1-6.4,16.5c2,4.6,6.7,7.5,11.6,7.5c1.7,0,3.5-0.3,5.2-1.2c6.4-2.9,9.3-10.1,6.4-16.5
	C173.3,969.6,169,967,164,967L164,967z M188.4,1012.8c-0.3,0-0.6,0-0.9,0.3l-13.9,6.1c-1.2,0.6-1.7,2-1.2,3.2l3.2,7.5
	c0.3,0.9,1.2,1.4,2,1.4c0.3,0,0.6,0,0.9-0.3l13.9-6.1c1.2-0.6,1.7-2,1.2-3.2l-3.2-7.5C190.1,1013.4,189.2,1012.8,188.4,1012.8
	L188.4,1012.8z M195.3,1028.4c-0.3,0-0.6,0-0.9,0.3l-13.9,6.1c-1.2,0.6-1.7,2-1.2,3.2l3.2,7.5c0.3,0.9,1.2,1.4,2,1.4
	c0.3,0,0.6,0,0.9-0.3l13.9-6.1c1.2-0.6,1.7-2,1.2-3.2l-3.2-7.5C197.1,1029,196.2,1028.4,195.3,1028.4L195.3,1028.4z M202.3,1044.4
	c-0.3,0-0.6,0-0.9,0.3l-13.9,6.1c-1.2,0.6-1.7,2-1.2,3.2l3.2,7.5c0.3,0.9,1.2,1.4,2,1.4c0.3,0,0.6,0,0.9-0.3l13.9-6.1
	c1.2-0.6,1.7-2,1.2-3.2l-3.2-7.5C204,1044.7,203.2,1044.4,202.3,1044.4L202.3,1044.4z M209.2,1060c-0.3,0-0.6,0-0.9,0.3l-13.9,6.1
	c-1.2,0.6-1.7,2-1.2,3.2l3.2,7.5c0.3,0.9,1.2,1.4,2,1.4c0.3,0,0.6,0,0.9-0.3l13.9-6.1c1.2-0.6,1.7-2,1.2-3.2l-3.2-7.5
	C211,1060.6,210.1,1060,209.2,1060L209.2,1060z M138.1,819.1l1.1,2.4L65.7,854l-1.1-2.4L138.1,819.1z M263.1,1100.9l1.1,2.4
	l-73.4,32.5l-1.1-2.4L263.1,1100.9z"/>
<path id="Mouse_3_" class="st0" d="M1735.1,1140.6L1735.1,1140.6c-4.9,0-10.9-0.5-18.2-2.1c-12-2.3-20-4.9-25.7-8.6
	c-6.5-4.2-10.4-9.6-12.7-17.4c-4.4-15.6-1-40.8,6.5-81.6c12.7-69.1,22.1-86,47.5-86c5.2,0,11.2,0.8,19.5,2.3
	c20.8,3.9,33,8.6,37.9,23.1c4.7,13.3,3.1,34.8-4.9,79.2C1772,1120,1763.7,1140.6,1735.1,1140.6z M1750.9,953.5
	c-36.4-6.8-48.3,4.4-62.1,78.2c-13.5,73.8-9.6,93,29.1,100s49.4-9.4,62.9-83.1C1794.6,975.1,1787.3,960.3,1750.9,953.5z
	 M1762.1,956.1l-67,46.2c-2.1,8.6-4.2,18.2-6.2,29.4c-1.8,10.4-3.6,19.7-4.7,28.3l102.9-70.7C1785.7,969.6,1777.7,961,1762.1,956.1z
	 M1750.9,953.5c-3.1-0.5-6-1-8.8-1.3l-40.3,27.8c-2.1,5.2-3.9,11.4-5.7,18.4l62.9-43.1C1756.4,954.5,1753.8,954,1750.9,953.5z"/>
<path id="Keyboard_3_" class="st0" d="M1345.9,1145.7c0.3,5.1-3.7,9.4-8.8,9.6l-495.4,25.5c-5.1,0.3-9.4-3.7-9.6-8.8l-10.5-200.8
	c-0.3-5.1-2.3-22.1,2.8-22.1L1330,923c5.1-0.3,4.8,16.7,5.1,21.8L1345.9,1145.7z M841.1,1182.3c-5.7,0-10.2-4.3-10.5-9.9
	l-11.1-213.8v-1.1c-0.6-9.1-0.6-18.1,2.3-21.3c0.6-0.9,1.4-1.1,2.6-1.1l504.5-26.1c0,0,0,0,0.3,0c5.1,0,6.2,10.5,6.8,21.8v1.1
	l11.1,213.8c0.3,5.7-4.3,10.8-9.9,11.1l-495.4,25.5C841.7,1182.3,841.4,1182.3,841.1,1182.3z M1295.4,952.9l0.9,13.9
	c0,1.1,1.1,2.3,2.3,2.3l25-1.4c1.1,0,2.3-1.1,2.3-2.3l-0.9-13.9c0-1.1-1.1-2.3-2.3-2.3l-25,1.4
	C1296.2,950.6,1295.1,951.4,1295.4,952.9z M860.1,996l-25,1.4c-1.1,0-2.3,1.1-2.3,2.3l1.4,25.5c0,1.1,1.1,2.3,2.3,2.3l25-1.4
	c1.1,0,2.3-1.1,2.3-2.3l-1.4-25.5C862.4,996.8,861.5,996,860.1,996z M894.4,994.3l-25,1.4c-1.1,0-2.3,1.1-2.3,2.3l1.4,25.5
	c0,1.1,1.1,2.3,2.3,2.3l25-1.4c1.1,0,2.3-1.1,2.3-2.3l-1.4-25.5C896.7,995.1,895.6,994,894.4,994.3z M928.7,992.3l-25,1.4
	c-1.1,0-2.3,1.1-2.3,2.3l1.4,25.5c0,1.1,1.1,2.3,2.3,2.3l25-1.4c1.1,0,2.3-1.1,2.3-2.3l-1.4-25.5C931,993.1,929.9,992.3,928.7,992.3
	z M962.8,990.6l-25,1.4c-1.1,0-2.3,1.1-2.3,2.3l1.4,25.5c0,1.1,1.1,2.3,2.3,2.3l25-1.4c1.1,0,2.3-1.1,2.3-2.3l-1.4-25.5
	C965.3,991.4,964.2,990.6,962.8,990.6z M997.1,988.9l-25,1.4c-1.1,0-2.3,1.1-2.3,2.3l1.4,25.5c0,1.1,1.1,2.3,2.3,2.3l25-1.4
	c1.1,0,2.3-1.1,2.3-2.3l-1.4-25.5C999.4,989.7,998.5,988.9,997.1,988.9z M1031.4,987.2l-25,1.4c-1.1,0-2.3,1.1-2.3,2.3l1.4,25.5
	c0,1.1,1.1,2.3,2.3,2.3l25-1.4c1.1,0,2.3-1.1,2.3-2.3l-1.4-25.5C1033.7,988,1032.5,986.9,1031.4,987.2z M1065.7,985.2l-25,1.4
	c-1.1,0-2.3,1.1-2.3,2.3l1.4,25.5c0,1.1,1.1,2.3,2.3,2.3l25-1.4c1.1,0,2.3-1.1,2.3-2.3l-1.4-25.5
	C1068,986.3,1066.8,985.2,1065.7,985.2z M1099.7,983.5l-25,1.4c-1.1,0-2.3,1.1-2.3,2.3l1.4,25.5c0,1.1,1.1,2.3,2.3,2.3l25-1.4
	c1.1,0,2.3-1.1,2.3-2.3l-1.4-25.5C1102,984.3,1101.2,983.5,1099.7,983.5z M1134,981.8l-25,1.4c-1.1,0-2.3,1.1-2.3,2.3l1.4,25.5
	c0,1.1,1.1,2.3,2.3,2.3l25-1.4c1.1,0,2.3-1.1,2.3-2.3l-1.4-25.5C1136.3,982.6,1135.2,981.8,1134,981.8z M1168.4,980.1l-25,1.4
	c-1.1,0-2.3,1.1-2.3,2.3l1.4,25.5c0,1.1,1.1,2.3,2.3,2.3l25-1.4c1.1,0,2.3-1.1,2.3-2.3l-1.4-25.5
	C1170.6,980.9,1169.5,979.8,1168.4,980.1z M1202.4,978.1l-25,1.4c-1.1,0-2.3,1.1-2.3,2.3l1.4,25.5c0,1.1,1.1,2.3,2.3,2.3l25-1.4
	c1.1,0,2.3-1.1,2.3-2.3l-1.4-25.5C1204.9,979.2,1203.8,978.1,1202.4,978.1z M1236.7,976.4l-25,1.4c-1.1,0-2.3,1.1-2.3,2.3l1.4,25.5
	c0,1.1,1.1,2.3,2.3,2.3l25-1.4c1.1,0,2.3-1.1,2.3-2.3l-1.4-25.5C1239,977.2,1238.1,976.4,1236.7,976.4z M1271,974.7l-25,1.4
	c-1.1,0-2.3,1.1-2.3,2.3l1.4,25.5c0,1.1,1.1,2.3,2.3,2.3l25-1.4c1.1,0,2.3-1.1,2.3-2.3l-1.4-25.5
	C1273.3,975.5,1272.1,974.7,1271,974.7z M914.6,1027.4l-25,1.4c-1.1,0-2.3,1.1-2.3,2.3l1.4,25.5c0,1.1,1.1,2.3,2.3,2.3l25-1.4
	c1.1,0,2.3-1.1,2.3-2.3l-1.4-25.5C916.8,1028.3,915.7,1027.4,914.6,1027.4z M880.3,1029.1l-43.1,2.3c-1.1,0-2.3,1.1-2.3,2.3
	l1.4,25.5c0,1.1,1.1,2.3,2.3,2.3l43.1-2.3c1.1,0,2.3-1.1,2.3-2.3l-1.4-25.5C882.5,1030,881.4,1029.1,880.3,1029.1z M948.6,1025.7
	l-25,1.4c-1.1,0-2.3,1.1-2.3,2.3l1.4,25.5c0,1.1,1.1,2.3,2.3,2.3l25-1.4c1.1,0,2.3-1.1,2.3-2.3l-1.4-25.5
	C951.1,1026.6,950,1025.4,948.6,1025.7z M982.9,1023.7l-25,1.4c-1.1,0-2.3,1.1-2.3,2.3l1.4,25.5c0,1.1,1.1,2.3,2.3,2.3l25-1.4
	c1.1,0,2.3-1.1,2.3-2.3l-1.4-25.5C985.2,1024.9,984,1023.7,982.9,1023.7z M1017.2,1022l-25,1.4c-1.1,0-2.3,1.1-2.3,2.3l1.4,25.5
	c0,1.1,1.1,2.3,2.3,2.3l25-1.4c1.1,0,2.3-1.1,2.3-2.3l-1.4-25.5C1019.5,1022.9,1018.4,1022,1017.2,1022z M1051.2,1020.3l-25,1.4
	c-1.1,0-2.3,1.1-2.3,2.3l1.4,25.5c0,1.1,1.1,2.3,2.3,2.3l25-1.4c1.1,0,2.3-1.1,2.3-2.3l-1.4-25.5
	C1053.8,1021.2,1052.7,1020.3,1051.2,1020.3z M1085.6,1018.6l-25,1.4c-1.1,0-2.3,1.1-2.3,2.3l1.4,25.5c0,1.1,1.1,2.3,2.3,2.3l25-1.4
	c1.1,0,2.3-1.1,2.3-2.3l-1.4-25.5C1087.8,1019.5,1087,1018.6,1085.6,1018.6z M1119.9,1016.9l-25,1.4c-1.1,0-2.3,1.1-2.3,2.3
	l1.4,25.5c0,1.1,1.1,2.3,2.3,2.3l25-1.4c1.1,0,2.3-1.1,2.3-2.3l-1.4-25.5C1122.1,1017.8,1121,1016.7,1119.9,1016.9z M1154.2,1015
	l-25,1.4c-1.1,0-2.3,1.1-2.3,2.3l1.4,25.5c0,1.1,1.1,2.3,2.3,2.3l25-1.4c1.1,0,2.3-1.1,2.3-2.3l-1.4-25.5
	C1156.5,1015.8,1155.3,1015,1154.2,1015z M1188.2,1013.3l-25,1.4c-1.1,0-2.3,1.1-2.3,2.3l1.4,25.5c0,1.1,1.1,2.3,2.3,2.3l25-1.4
	c1.1,0,2.3-1.1,2.3-2.3l-1.4-25.5C1190.8,1014.1,1189.6,1013.3,1188.2,1013.3z M1222.5,1011.6l-25,1.4c-1.1,0-2.3,1.1-2.3,2.3
	l1.4,25.5c0,1.1,1.1,2.3,2.3,2.3l25-1.4c1.1,0,2.3-1.1,2.3-2.3l-1.4-25.5C1224.8,1012.4,1223.7,1011.6,1222.5,1011.6z
	 M1256.8,1009.9l-25,1.4c-1.1,0-2.3,1.1-2.3,2.3l1.4,25.5c0,1.1,1.1,2.3,2.3,2.3l25-1.4c1.1,0,2.3-1.1,2.3-2.3l-1.4-25.5
	C1259.1,1010.7,1258,1009.6,1256.8,1009.9z M1290.9,1007.9l-25,1.4c-1.1,0-2.3,1.1-2.3,2.3l1.4,25.5c0,1.1,1.1,2.3,2.3,2.3l25-1.4
	c1.1,0,2.3-1.1,2.3-2.3l-1.4-25.5C1293.4,1009,1292.3,1007.9,1290.9,1007.9z M1325.5,1006.2l-25,1.4c-1.1,0-2.3,1.1-2.3,2.3
	l1.4,25.5c0,1.1,1.1,2.3,2.3,2.3l25-1.4c1.1,0,2.3-1.1,2.3-2.3l-1.4-25.5C1327.7,1007,1326.6,1006.2,1325.5,1006.2z M908.9,1096.3
	l-25,1.4c-1.1,0-2.3,1.1-2.3,2.3l1.4,25.5c0,1.1,1.1,2.3,2.3,2.3l25-1.4c1.1,0,2.3-1.1,2.3-2.3l-1.4-25.5
	C911.2,1097.2,910,1096.3,908.9,1096.3z M874.6,1098l-34,1.7c-1.1,0-2.3,1.1-2.3,2.3l1.4,25.5c0,1.1,1.1,2.3,2.3,2.3l34-1.7
	c1.1,0,2.3-1.1,2.3-2.3l-1.4-25.5C876.9,1098.9,876,1098,874.6,1098z M943.2,1094.6l-25,1.4c-1.1,0-2.3,1.1-2.3,2.3l1.4,25.5
	c0,1.1,1.1,2.3,2.3,2.3l25-1.4c1.1,0,2.3-1.1,2.3-2.3l-1.4-25.5C945.5,1095.5,944.3,1094.6,943.2,1094.6z M977.2,1092.9l-25,1.4
	c-1.1,0-2.3,1.1-2.3,2.3l1.4,25.5c0,1.1,1.1,2.3,2.3,2.3l25-1.4c1.1,0,2.3-1.1,2.3-2.3l-1.4-25.5
	C979.8,1093.8,978.7,1092.7,977.2,1092.9z M908.6,1132.9l1.4,28.1c0,1.1,1.1,2.3,2.3,2.3l25-1.4c1.1,0,2.3-1.1,2.3-2.3l-1.4-28.1
	c0-1.1-1.1-2.3-2.3-2.3l-25,1.4C909.7,1130.7,908.6,1131.8,908.6,1132.9z M942.9,1131.2l1.4,28.1c0,1.1,1.1,2.3,2.3,2.3l34-1.7
	c1.1,0,2.3-1.1,2.3-2.3l-1.4-28.1c0-1.1-1.1-2.3-2.3-2.3l-34,1.7C943.8,1129,942.9,1129.8,942.9,1131.2z M874.6,1134.6l1.4,28.1
	c0,1.1,1.1,2.3,2.3,2.3l25-1.4c1.1,0,2.3-1.1,2.3-2.3l-1.4-28.1c0-1.1-1.1-2.3-2.3-2.3l-25,1.4
	C875.4,1132.4,874.6,1133.5,874.6,1134.6z M1234.7,1113.9l-25,1.4c-1.1,0-2.3,1.1-2.3,2.3l1.4,28.1c0,1.1,1.1,2.3,2.3,2.3l25-1.4
	c1.1,0,2.3-1.1,2.3-2.3l-1.4-28.1C1237,1114.8,1235.8,1113.6,1234.7,1113.9z M1200.4,1115.6l-34,1.7c-1.1,0-2.3,1.1-2.3,2.3
	l1.4,28.1c0,1.1,1.1,2.3,2.3,2.3l34-1.7c1.1,0,2.3-1.1,2.3-2.3l-1.4-28.1C1202.7,1116.5,1201.8,1115.6,1200.4,1115.6z M986.3,1129
	l1.4,28.1c0,1.1,1.1,2.3,2.3,2.3l168.7-8.8c1.1,0,2.3-1.1,2.3-2.3l-1.4-28.1c0-1.1-1.1-2.3-2.3-2.3l-168.7,8.8
	C987.2,1126.7,986.3,1127.8,986.3,1129z M840.3,1136.6l1.4,28.1c0,1.1,1.1,2.3,2.3,2.3l25-1.4c1.1,0,2.3-1.1,2.3-2.3l-1.4-28.1
	c0-1.1-1.1-2.3-2.3-2.3l-25,1.4C841.1,1134.1,840.3,1135.2,840.3,1136.6z M1011.5,1091l-25,1.4c-1.1,0-2.3,1.1-2.3,2.3l1.4,25.5
	c0,1.1,1.1,2.3,2.3,2.3l25-1.4c1.1,0,2.3-1.1,2.3-2.3l-1.4-25.5C1013.8,1092.1,1012.7,1091,1011.5,1091z M1045.9,1089.3l-25,1.4
	c-1.1,0-2.3,1.1-2.3,2.3l1.4,25.5c0,1.1,1.1,2.3,2.3,2.3l25-1.4c1.1,0,2.3-1.1,2.3-2.3l-1.4-25.5
	C1048.1,1090.1,1047,1089.3,1045.9,1089.3z M1079.9,1087.6l-25,1.4c-1.1,0-2.3,1.1-2.3,2.3l1.4,25.5c0,1.1,1.1,2.3,2.3,2.3l25-1.4
	c1.1,0,2.3-1.1,2.3-2.3l-1.4-25.5C1082.4,1088.4,1081.3,1087.6,1079.9,1087.6z M1114.2,1085.8l-25,1.4c-1.1,0-2.3,1.1-2.3,2.3
	l1.4,25.5c0,1.1,1.1,2.3,2.3,2.3l25-1.4c1.1,0,2.3-1.1,2.3-2.3l-1.4-25.5C1116.5,1086.7,1115.6,1085.6,1114.2,1085.8z
	 M1148.5,1083.9l-25,1.4c-1.1,0-2.3,1.1-2.3,2.3l1.4,25.5c0,1.1,1.1,2.3,2.3,2.3l25-1.4c1.1,0,2.3-1.1,2.3-2.3l-1.4-25.5
	C1150.8,1085,1149.6,1083.9,1148.5,1083.9z M1182.8,1082.2l-25,1.4c-1.1,0-2.3,1.1-2.3,2.3l1.4,25.5c0,1.1,1.1,2.3,2.3,2.3l25-1.4
	c1.1,0,2.3-1.1,2.3-2.3l-1.4-25.5C1185.1,1083,1184,1082.2,1182.8,1082.2z M1216.8,1080.5l-25,1.4c-1.1,0-2.3,1.1-2.3,2.3l1.4,25.5
	c0,1.1,1.1,2.3,2.3,2.3l25-1.4c1.1,0,2.3-1.1,2.3-2.3l-1.4-25.5C1219.4,1081.3,1218.3,1080.5,1216.8,1080.5z M1251.2,1078.8l-25,1.4
	c-1.1,0-2.3,1.1-2.3,2.3l1.4,25.5c0,1.1,1.1,2.3,2.3,2.3l25-1.4c1.1,0,2.3-1.1,2.3-2.3l-1.4-25.5
	C1253.4,1079.6,1252.3,1078.5,1251.2,1078.8z M1328.9,1074.8l-68.1,3.4c-1.1,0-2.3,1.1-2.3,2.3l1.4,25.5c0,1.1,1.1,2.3,2.3,2.3
	l68.1-3.4c1.1,0,2.3-1.1,2.3-2.3l-1.4-25.5C1331.1,1075.6,1330,1074.5,1328.9,1074.8z M923.1,1061.2l-25,1.4c-1.1,0-2.3,1.1-2.3,2.3
	l1.4,25.5c0,1.1,1.1,2.3,2.3,2.3l25-1.4c1.1,0,2.3-1.1,2.3-2.3l-1.4-25.5C925.3,1062.3,924.2,1061.2,923.1,1061.2z M888.8,1063.2
	l-49.9,2.6c-1.1,0-2.3,1.1-2.3,2.3l1.4,25.5c0,1.1,1.1,2.3,2.3,2.3l49.9-2.6c1.1,0,2.3-1.1,2.3-2.3l-1.4-25.5
	C891,1064,890.2,1062.9,888.8,1063.2z M957.4,1059.5l-25,1.4c-1.1,0-2.3,1.1-2.3,2.3l1.4,25.5c0,1.1,1.1,2.3,2.3,2.3l25-1.4
	c1.1,0,2.3-1.1,2.3-2.3l-1.4-25.5C959.7,1060.3,958.5,1059.5,957.4,1059.5z M991.4,1057.8l-25,1.4c-1.1,0-2.3,1.1-2.3,2.3l1.4,25.5
	c0,1.1,1.1,2.3,2.3,2.3l25-1.4c1.1,0,2.3-1.1,2.3-2.3l-1.4-25.5C994,1058.6,992.8,1057.8,991.4,1057.8z M1025.7,1056.1l-25,1.4
	c-1.1,0-2.3,1.1-2.3,2.3l1.4,25.5c0,1.1,1.1,2.3,2.3,2.3l25-1.4c1.1,0,2.3-1.1,2.3-2.3l-1.4-25.5
	C1028,1056.9,1027.1,1055.8,1025.7,1056.1z M1060,1054.1l-25,1.4c-1.1,0-2.3,1.1-2.3,2.3l1.4,25.5c0,1.1,1.1,2.3,2.3,2.3l25-1.4
	c1.1,0,2.3-1.1,2.3-2.3l-1.4-25.5C1062.3,1055.2,1061.2,1054.1,1060,1054.1z M1094.3,1052.4l-25,1.4c-1.1,0-2.3,1.1-2.3,2.3
	l1.4,25.5c0,1.1,1.1,2.3,2.3,2.3l25-1.4c1.1,0,2.3-1.1,2.3-2.3l-1.4-25.5C1096.6,1053.2,1095.5,1052.4,1094.3,1052.4z
	 M1128.4,1050.7l-25,1.4c-1.1,0-2.3,1.1-2.3,2.3l1.4,25.5c0,1.1,1.1,2.3,2.3,2.3l25-1.4c1.1,0,2.3-1.1,2.3-2.3l-1.4-25.5
	C1130.6,1051.5,1129.8,1050.7,1128.4,1050.7z M1162.7,1049l-25,1.4c-1.1,0-2.3,1.1-2.3,2.3l1.4,25.5c0,1.1,1.1,2.3,2.3,2.3l25-1.4
	c1.1,0,2.3-1.1,2.3-2.3l-1.4-25.5C1165,1049.8,1163.8,1049,1162.7,1049z M1197,1047l-25,1.4c-1.1,0-2.3,1.1-2.3,2.3l1.4,25.5
	c0,1.1,1.1,2.3,2.3,2.3l25-1.4c1.1,0,2.3-1.1,2.3-2.3l-1.4-25.5C1199.3,1048.1,1198.1,1047,1197,1047z M1231,1045.3l-25,1.4
	c-1.1,0-2.3,1.1-2.3,2.3l1.4,25.5c0,1.1,1.1,2.3,2.3,2.3l25-1.4c1.1,0,2.3-1.1,2.3-2.3l-1.4-25.5
	C1233.6,1046.1,1232.4,1045.3,1231,1045.3z M1265.3,1043.6l-25,1.4c-1.1,0-2.3,1.1-2.3,2.3l1.4,25.5c0,1.1,1.1,2.3,2.3,2.3l25-1.4
	c1.1,0,2.3-1.1,2.3-2.3l-1.4-25.5C1267.6,1044.4,1266.8,1043.6,1265.3,1043.6z M1327.7,1040.5l-52.7,2.8c-1.1,0-2.3,1.1-2.3,2.3
	l1.4,25.5c0,1.1,1.1,2.3,2.3,2.3l52.7-2.8c1.1,0,2.3-1.1,2.3-2.3l-1.4-25.5C1330,1041.3,1328.9,1040.2,1327.7,1040.5z M1323.5,971.9
	l-43.1,2.3c-1.1,0-2.3,1.1-2.3,2.3l1.4,25.5c0,1.1,1.1,2.3,2.3,2.3l43.1-2.3c1.1,0,2.3-1.1,2.3-2.3l-1.4-25.5
	C1325.7,973,1324.6,971.9,1323.5,971.9z M1261.1,954.6l0.9,13.9c0,1.1,1.1,2.3,2.3,2.3l25-1.4c1.1,0,2.3-1.1,2.3-2.3l-0.9-13.9
	c0-1.1-1.1-2.3-2.3-2.3l-25,1.4C1261.9,952.3,1261.1,953.4,1261.1,954.6z M1304.5,1128.7l0.6,11.6c0,1.1,1.1,2.3,2.3,2.3l25-1.4
	c1.1,0,2.3-1.1,2.3-2.3l-0.6-11.6c0-1.1-1.1-2.3-2.3-2.3l-25,1.4C1305.3,1126.4,1304.2,1127.5,1304.5,1128.7z M1272.4,1130.4
	l0.6,11.6c0,1.1,1.1,2.3,2.3,2.3l25-1.4c1.1,0,2.3-1.1,2.3-2.3l-0.6-11.6c0-1.1-1.1-2.3-2.3-2.3l-25,1.4
	C1273.3,1128.1,1272.4,1129.2,1272.4,1130.4z M1271.6,1114.5l0.6,11.6c0,1.1,1.1,2.3,2.3,2.3l25-1.4c1.1,0,2.3-1.1,2.3-2.3
	l-0.6-11.6c0-1.1-1.1-2.3-2.3-2.3l-25,1.4C1272.4,1112.2,1271.6,1113.4,1271.6,1114.5z M1240.4,1132.1l0.6,11.6
	c0,1.1,1.1,2.3,2.3,2.3l25-1.4c1.1,0,2.3-1.1,2.3-2.3l-0.6-11.6c0-1.1-1.1-2.3-2.3-2.3l-25,1.4
	C1241.5,1129.8,1240.4,1130.9,1240.4,1132.1z M1226.8,956.3l0.9,13.9c0,1.1,1.1,2.3,2.3,2.3l25-1.4c1.1,0,2.3-1.1,2.3-2.3l-0.9-13.9
	c0-1.1-1.1-2.3-2.3-2.3l-25,1.4C1227.6,954,1226.8,955.1,1226.8,956.3z M1192.5,958.2l0.9,13.9c0,1.1,1.1,2.3,2.3,2.3l25-1.4
	c1.1,0,2.3-1.1,2.3-2.3l-0.9-13.9c0-1.1-1.1-2.3-2.3-2.3l-25,1.4C1193.6,955.7,1192.5,956.8,1192.5,958.2z M1158.4,959.9l0.9,13.9
	c0,1.1,1.1,2.3,2.3,2.3l25-1.4c1.1,0,2.3-1.1,2.3-2.3l-0.9-13.9c0-1.1-1.1-2.3-2.3-2.3l-25,1.4
	C1159.3,957.7,1158.4,958.5,1158.4,959.9z M1124.1,961.6l0.9,13.9c0,1.1,1.1,2.3,2.3,2.3l25-1.4c1.1,0,2.3-1.1,2.3-2.3l-0.9-13.9
	c0-1.1-1.1-2.3-2.3-2.3l-25,1.4C1125,959.4,1124.1,960.5,1124.1,961.6z M1087.5,963.6l0.9,13.9c0,1.1,1.1,2.3,2.3,2.3l27.2-1.4
	c1.1,0,2.3-1.1,2.3-2.3l-0.9-13.9c0-1.1-1.1-2.3-2.3-2.3l-27.2,1.4C1088.4,961.1,1087.5,962.2,1087.5,963.6z M1051.2,965.3l0.9,13.9
	c0,1.1,1.1,2.3,2.3,2.3l27.2-1.4c1.1,0,2.3-1.1,2.3-2.3l-0.9-13.9c0-1.1-1.1-2.3-2.3-2.3l-27.2,1.4
	C1052.1,963.1,1051,964.2,1051.2,965.3z M1014.7,967.3l0.9,13.9c0,1.1,1.1,2.3,2.3,2.3l27.2-1.4c1.1,0,2.3-1.1,2.3-2.3l-0.9-13.9
	c0-1.1-1.1-2.3-2.3-2.3L1017,965C1015.5,965,1014.7,966.2,1014.7,967.3z M978.1,969.3l0.9,13.9c0,1.1,1.1,2.3,2.3,2.3l27.2-1.4
	c1.1,0,2.3-1.1,2.3-2.3l-0.9-13.9c0-1.1-1.1-2.3-2.3-2.3l-27.2,1.4C978.9,966.8,978.1,967.9,978.1,969.3z M941.5,971l0.9,13.9
	c0,1.1,1.1,2.3,2.3,2.3l27.2-1.4c1.1,0,2.3-1.1,2.3-2.3l-0.9-13.9c0-1.1-1.1-2.3-2.3-2.3l-27.2,1.4
	C942.4,968.7,941.5,969.9,941.5,971z M904.9,973l0.9,13.9c0,1.1,1.1,2.3,2.3,2.3l27.2-1.4c1.1,0,2.3-1.1,2.3-2.3l-0.9-13.9
	c0-1.1-1.1-2.3-2.3-2.3l-27.2,1.4C906.1,970.7,904.9,971.9,904.9,973z M868.6,975l0.9,13.9c0,1.1,1.1,2.3,2.3,2.3l27.2-1.4
	c1.1,0,2.3-1.1,2.3-2.3l-0.9-13.9c0-1.1-1.1-2.3-2.3-2.3l-27.2,1.4C869.5,972.4,868.3,973.6,868.6,975z M832,976.7l0.9,13.9
	c0,1.1,1.1,2.3,2.3,2.3l27.2-1.4c1.1,0,2.3-1.1,2.3-2.3l-0.9-13.9c0-1.1-1.1-2.3-2.3-2.3l-27.2,1.4C832.9,974.4,832,975.5,832,976.7
	z"/>
<path id="Push" class="st0" d="M903.8,573.5c0.1,0.2,0.2,0.3,0.4,0.4l701.6,373.7c0.3,0.2,0.9,0,1.1-0.3l297.4-558.4
	c0.1-0.2,0.1-0.4,0.1-0.6c-0.1-0.2-0.2-0.3-0.4-0.4L1202.3,14.2c-0.1-0.1-0.2-0.1-0.3-0.1c-0.3,0-0.5,0.1-0.6,0.4L903.8,573
	C903.7,573.1,903.7,573.3,903.8,573.5z M1664.5,714.9c0.3,0.1,0.6,0.2,1,0.2c0.7,0,1.4-0.4,1.7-1.1l9.5-17.9c0.2-0.4,0.3-1,0.1-1.5
	c-0.1-0.5-0.5-0.9-1-1.2l-31.6-16.9c-0.3-0.1-0.6-0.2-1-0.2c-0.7,0-1.4,0.4-1.7,1.1l-9.5,17.9c-0.5,1-0.1,2.1,0.9,2.7L1664.5,714.9z
	 M1649.6,742.9c0.3,0.1,0.6,0.2,1,0.2c0.7,0,1.4-0.4,1.7-1.1l9.5-17.9c0.5-1,0.1-2.1-0.9-2.7l-31.6-16.9c-0.3-0.1-0.6-0.2-1-0.2
	c-0.7,0-1.4,0.4-1.7,1.1l-9.5,17.9c-0.2,0.4-0.3,1-0.1,1.5c0.1,0.5,0.5,0.9,1,1.2L1649.6,742.9z M1617.8,724.6
	c0.1,0.3,0.3,0.5,0.5,0.6l31.6,16.9c0.5,0.3,1.3,0.1,1.6-0.5l9.5-17.9c0.3-0.5,0.1-1.3-0.5-1.6l-31.6-16.9c-0.2-0.1-0.3-0.1-0.5-0.1
	c-0.4,0-0.9,0.2-1.1,0.6l-9.5,17.9C1617.7,724,1617.7,724.4,1617.8,724.6z M1602.9,752.6c0.1,0.3,0.3,0.5,0.5,0.6l31.6,16.9
	c0.5,0.3,1.3,0.1,1.6-0.5l9.5-17.9c0.1-0.3,0.2-0.6,0.1-0.9c-0.1-0.2-0.3-0.5-0.5-0.6l-31.6-16.9c-0.2-0.1-0.3-0.1-0.5-0.1
	c-0.4,0-0.9,0.2-1.1,0.6l-9.5,17.9C1602.9,751.9,1602.9,752.3,1602.9,752.6z M1602.1,752.8c0.1,0.5,0.5,0.9,1,1.2l31.6,16.9
	c0.3,0.1,0.6,0.2,1,0.2c0.7,0,1.4-0.4,1.7-1.1l9.5-17.9c0.2-0.4,0.3-1,0.1-1.5c-0.1-0.5-0.5-0.9-1-1.2l-31.6-16.9
	c-0.3-0.1-0.6-0.2-1-0.2c-0.7,0-1.4,0.4-1.7,1.1l-9.5,17.9C1602,751.7,1602,752.3,1602.1,752.8z M1703.7,735.8
	c0.3,0.1,0.6,0.2,1,0.2c0.7,0,1.4-0.4,1.7-1.1l9.5-17.9c0.2-0.4,0.3-1,0.1-1.5c-0.1-0.5-0.5-0.9-1-1.2l-31.6-16.9
	c-0.3-0.1-0.6-0.2-1-0.2c-0.7,0-1.4,0.4-1.7,1.1l-9.5,17.9c-0.2,0.4-0.3,1-0.1,1.5c0.1,0.5,0.5,0.9,1,1.2L1703.7,735.8z
	 M1688.8,763.7c0.3,0.1,0.6,0.2,1,0.2c0.7,0,1.4-0.4,1.7-1.1l9.5-17.9c0.2-0.4,0.3-1,0.1-1.5c-0.1-0.5-0.5-0.9-1-1.2l-31.6-16.9
	c-0.3-0.1-0.6-0.2-1-0.2c-0.7,0-1.4,0.4-1.7,1.1l-9.5,17.9c-0.2,0.4-0.3,1-0.1,1.5c0.1,0.5,0.5,0.9,1,1.2L1688.8,763.7z M1657,745.5
	c0.1,0.3,0.3,0.5,0.5,0.6l31.6,16.9c0.5,0.3,1.3,0.1,1.6-0.5l9.5-17.9c0.1-0.3,0.2-0.6,0.1-0.9c-0.1-0.3-0.3-0.5-0.5-0.6l-31.6-16.9
	c-0.2-0.1-0.3-0.1-0.5-0.1c-0.4,0-0.9,0.2-1.1,0.6l-9.5,17.9C1657,744.9,1656.9,745.2,1657,745.5z M1642.1,773.4
	c0.1,0.3,0.3,0.5,0.5,0.6l31.6,16.9c0.5,0.3,1.3,0.1,1.6-0.5l9.5-17.9c0.1-0.3,0.2-0.6,0.1-0.9c-0.1-0.3-0.3-0.5-0.5-0.6l-31.6-16.9
	c-0.2-0.1-0.3-0.1-0.5-0.1c-0.4,0-0.9,0.2-1.1,0.6l-9.5,17.9C1642,772.8,1642,773.1,1642.1,773.4z M1674,791.6
	c0.3,0.1,0.6,0.2,1,0.2c0.7,0,1.4-0.4,1.7-1.1l9.5-17.9c0.2-0.4,0.3-1,0.1-1.5c-0.1-0.5-0.5-0.9-1-1.2l-31.6-16.9
	c-0.3-0.1-0.6-0.2-1-0.2c-0.7,0-1.4,0.4-1.7,1.1l-9.5,17.9c-0.2,0.4-0.3,1-0.1,1.5c0.1,0.5,0.5,0.9,1,1.2L1674,791.6z M1822,419.2
	l-31.6-16.9c-0.3-0.1-0.6-0.2-1-0.2c-0.7,0-1.4,0.4-1.7,1.1l-9.5,17.9c-0.5,1-0.1,2.1,0.9,2.7l31.6,16.9c0.3,0.1,0.6,0.2,1,0.2
	c0.7,0,1.4-0.4,1.7-1.1l9.5-17.9C1823.4,420.8,1822.9,419.6,1822,419.2z M1764.5,450.8l31.6,16.9c0.5,0.3,1.3,0.1,1.6-0.5l9.5-17.9
	c0.3-0.5,0.1-1.3-0.5-1.6l-31.6-16.9c-0.2-0.1-0.3-0.1-0.5-0.1c-0.4,0-0.9,0.2-1.1,0.6l-9.5,17.9
	C1763.7,449.9,1763.9,450.6,1764.5,450.8z M1780.9,496.4c0.3,0.1,0.6,0.2,1,0.2c0.7,0,1.4-0.4,1.7-1.1l9.5-17.9
	c0.2-0.4,0.3-1,0.1-1.5c-0.1-0.5-0.5-0.9-1-1.2l-31.6-16.9c-0.3-0.1-0.6-0.2-1-0.2c-0.7,0-1.4,0.4-1.7,1.1l-9.5,17.9
	c-0.2,0.4-0.3,1-0.1,1.5c0.1,0.5,0.5,0.9,1,1.2L1780.9,496.4z M1849.9,461.3c0.3,0.1,0.6,0.2,1,0.2c0.7,0,1.4-0.4,1.7-1.1l9.5-17.9
	c0.2-0.4,0.3-1,0.1-1.5c-0.1-0.5-0.5-0.9-1-1.2l-31.6-16.9c-0.3-0.1-0.6-0.2-1-0.2c-0.7,0-1.4,0.4-1.7,1.1l-9.5,17.9
	c-0.2,0.4-0.3,1-0.1,1.5c0.1,0.5,0.5,0.9,1,1.2L1849.9,461.3z M1835,489.3c0.3,0.1,0.6,0.2,1,0.2c0.7,0,1.4-0.4,1.7-1.1l9.5-17.9
	c0.2-0.4,0.3-1,0.1-1.5c-0.1-0.5-0.5-0.9-1-1.2l-31.6-16.9c-0.3-0.1-0.6-0.2-1-0.2c-0.7,0-1.4,0.4-1.7,1.1l-9.5,17.9
	c-0.5,1-0.1,2.1,0.9,2.7L1835,489.3z M1820.1,517.2c0.3,0.1,0.6,0.2,1,0.2c0.7,0,1.4-0.4,1.7-1.1l9.5-17.9c0.5-1,0.1-2.1-0.9-2.7
	l-31.6-16.9c-0.3-0.1-0.6-0.2-1-0.2c-0.7,0-1.4,0.4-1.7,1.1l-9.5,17.9c-0.5,1-0.1,2.1,0.9,2.7L1820.1,517.2z M1731.8,588.5
	c0.3,0.1,0.6,0.2,1,0.2c0.7,0,1.4-0.4,1.7-1.1l9.5-17.9c0.2-0.4,0.3-1,0.1-1.5c-0.1-0.5-0.5-0.9-1-1.2l-31.6-16.9
	c-0.3-0.1-0.6-0.2-1-0.2c-0.7,0-1.4,0.4-1.7,1.1l-9.5,17.9c-0.2,0.4-0.3,1-0.1,1.5c0.1,0.5,0.5,0.9,1,1.2L1731.8,588.5z M1717,616.4
	c0.3,0.1,0.6,0.2,1,0.2c0.7,0,1.4-0.4,1.7-1.1l9.5-17.9c0.2-0.4,0.3-1,0.1-1.5c-0.1-0.5-0.5-0.9-1-1.2l-31.6-16.9
	c-0.3-0.1-0.6-0.2-1-0.2c-0.7,0-1.4,0.4-1.7,1.1l-9.5,17.9c-0.5,1-0.1,2.1,0.9,2.7L1717,616.4z M1702.1,644.3c0.3,0.1,0.6,0.2,1,0.2
	c0.7,0,1.4-0.4,1.7-1.1l9.5-17.9c0.5-1,0.1-2.1-0.9-2.7l-31.6-16.9c-0.3-0.1-0.6-0.2-1-0.2c-0.7,0-1.4,0.4-1.7,1.1l-9.5,17.9
	c-0.2,0.4-0.3,1-0.1,1.5c0.1,0.5,0.5,0.9,1,1.2L1702.1,644.3z M1771.1,609.3c0.3,0.1,0.6,0.2,1,0.2c0.7,0,1.4-0.4,1.7-1.1l9.5-17.9
	c0.5-1,0.1-2.1-0.9-2.7l-31.6-16.9c-0.3-0.1-0.6-0.2-1-0.2c-0.7,0-1.4,0.4-1.7,1.1l-9.5,17.9c-0.2,0.4-0.3,1-0.1,1.5
	c0.1,0.5,0.5,0.9,1,1.2L1771.1,609.3z M1756.2,637.2c0.3,0.1,0.6,0.2,1,0.2c0.7,0,1.4-0.4,1.7-1.1l9.5-17.9c0.2-0.4,0.3-1,0.1-1.5
	c-0.1-0.5-0.5-0.9-1-1.2l-31.6-16.9c-0.3-0.1-0.6-0.2-1-0.2c-0.7,0-1.4,0.4-1.7,1.1l-9.5,17.9c-0.2,0.4-0.3,1-0.1,1.5
	c0.1,0.5,0.5,0.9,1,1.2L1756.2,637.2z M1741.3,665.1c0.3,0.1,0.6,0.2,1,0.2c0.7,0,1.4-0.4,1.7-1.1l9.5-17.9c0.2-0.4,0.3-1,0.1-1.5
	c-0.1-0.5-0.5-0.9-1-1.2l-31.6-16.9c-0.3-0.1-0.6-0.2-1-0.2c-0.7,0-1.4,0.4-1.7,1.1l-9.5,17.9c-0.2,0.4-0.3,1-0.1,1.5
	c0.1,0.5,0.5,0.9,1,1.2L1741.3,665.1z M1738.1,500.4c-0.3-0.1-0.6-0.2-1-0.2c-0.7,0-1.4,0.4-1.7,1.1L1727,517
	c-0.2,0.4-0.3,1-0.1,1.5c0.1,0.5,0.5,0.9,1,1.2l31.6,16.9c0.3,0.1,0.6,0.2,1,0.2c0.7,0,1.4-0.4,1.7-1.1l8.4-15.8
	c0.2-0.4,0.3-1,0.1-1.5c-0.1-0.5-0.5-0.9-1-1.2L1738.1,500.4z M1746.5,561c0.3,0.1,0.6,0.2,1,0.2c0.7,0,1.4-0.4,1.7-1.1l8.4-15.8
	c0.5-1,0.1-2.1-0.9-2.7l-31.6-16.9c-0.3-0.1-0.6-0.2-1-0.2c-0.7,0-1.4,0.4-1.7,1.1l-8.4,15.8c-0.2,0.4-0.3,1-0.1,1.5
	c0.1,0.5,0.5,0.9,1,1.2L1746.5,561z M1798.8,557.3c0.3,0.1,0.6,0.2,1,0.2c0.7,0,1.4-0.4,1.7-1.1l8.4-15.8c0.5-1,0.1-2.1-0.9-2.7
	l-31.6-16.9c-0.3-0.1-0.6-0.2-1-0.2c-0.7,0-1.4,0.4-1.7,1.1l-8.4,15.8c-0.2,0.4-0.3,1-0.1,1.5c0.1,0.5,0.5,0.9,1,1.2L1798.8,557.3z
	 M1785.7,581.8c0.3,0.1,0.6,0.2,1,0.2c0.7,0,1.4-0.4,1.7-1.1l8.4-15.8c0.5-1,0.1-2.1-0.9-2.7l-31.6-16.9c-0.3-0.1-0.6-0.2-1-0.2
	c-0.7,0-1.4,0.4-1.7,1.1l-8.4,15.8c-0.5,1-0.1,2.1,0.9,2.7L1785.7,581.8z M1528.5,768.2l31.6,16.9c0.5,0.3,1.3,0.1,1.6-0.5
	l16.9-31.6c0.3-0.5,0.1-1.3-0.5-1.6l-31.6-16.9c-0.2-0.1-0.3-0.1-0.5-0.1c-0.4,0-0.9,0.2-1.1,0.6l-16.9,31.6
	C1527.7,767.1,1527.9,767.9,1528.5,768.2z M1559.8,785.7c0.3,0.1,0.6,0.2,1,0.2c0.7,0,1.4-0.4,1.7-1.1l16.9-31.6
	c0.5-1,0.1-2.1-0.9-2.7l-31.6-16.9c-0.3-0.1-0.6-0.2-1-0.2c-0.7,0-1.4,0.4-1.7,1.1l-16.9,31.6c-0.5,1-0.1,2.1,0.9,2.7L1559.8,785.7z
	 M1506,810.4l31.6,16.9c0.5,0.3,1.3,0.1,1.6-0.5l16.9-31.6c0.3-0.5,0.1-1.3-0.5-1.6l-31.6-16.9c-0.2-0.1-0.3-0.1-0.5-0.1
	c-0.4,0-0.9,0.2-1.1,0.6l-16.9,31.6C1505.1,809.4,1505.4,810.1,1506,810.4z M1537.2,828c0.3,0.1,0.6,0.2,1,0.2
	c0.7,0,1.4-0.4,1.7-1.1l16.9-31.6c0.5-1,0.1-2.1-0.9-2.7l-31.6-16.9c-0.3-0.1-0.6-0.2-1-0.2c-0.7,0-1.4,0.4-1.7,1.1l-16.9,31.6
	c-0.5,1-0.1,2.1,0.9,2.7L1537.2,828z M1483.4,852.7l31.6,16.9c0.5,0.3,1.3,0.1,1.6-0.5l16.9-31.6c0.3-0.5,0.1-1.3-0.5-1.6
	l-31.6-16.9c-0.2-0.1-0.3-0.1-0.5-0.1c-0.4,0-0.9,0.2-1.1,0.6l-16.9,31.6C1482.7,851.7,1482.9,852.3,1483.4,852.7z M1483.1,853.4
	l31.6,16.9c0.3,0.1,0.6,0.2,1,0.2c0.7,0,1.4-0.4,1.7-1.1l16.9-31.6c0.5-1,0.1-2.1-0.9-2.7l-31.6-16.9c-0.3-0.1-0.6-0.2-1-0.2
	c-0.7,0-1.4,0.4-1.7,1.1l-16.9,31.6C1481.7,851.7,1482.2,852.9,1483.1,853.4z M1595.6,642l31.6,16.9c0.3,0.1,0.6,0.2,1,0.2
	c0.7,0,1.4-0.4,1.7-1.1l16.9-31.6c0.5-1,0.1-2.1-0.9-2.7l-31.6-16.9c-0.3-0.1-0.6-0.2-1-0.2c-0.7,0-1.4,0.4-1.7,1.1l-16.9,31.6
	C1594.3,640.3,1594.6,641.5,1595.6,642z M1604.8,701.2c0.3,0.1,0.6,0.2,1,0.2c0.7,0,1.4-0.4,1.7-1.1l16.9-31.6
	c0.5-1,0.1-2.1-0.9-2.7l-31.6-16.9c-0.3-0.1-0.6-0.2-1-0.2c-0.7,0-1.4,0.4-1.7,1.1l-16.9,31.6c-0.5,1-0.1,2.1,0.9,2.7L1604.8,701.2z
	 M1549.6,725.4c0.1,0.5,0.5,0.9,1,1.2l31.6,16.9c0.3,0.1,0.6,0.2,1,0.2c0.7,0,1.4-0.4,1.7-1.1l16.9-31.6c0.2-0.4,0.3-1,0.1-1.5
	c-0.1-0.5-0.5-0.9-1-1.2l-31.6-16.9c-0.3-0.1-0.6-0.2-1-0.2c-0.7,0-1.4,0.4-1.7,1.1l-16.9,31.6
	C1549.5,724.4,1549.5,724.9,1549.6,725.4z M1672.3,574.3c0.3,0.1,0.6,0.2,1,0.2c0.7,0,1.4-0.4,1.7-1.1l16.9-31.6
	c0.5-1,0.1-2.1-0.9-2.7l-31.6-16.9c-0.3-0.1-0.6-0.2-1-0.2c-0.7,0-1.4,0.4-1.7,1.1l-16.9,31.6c-0.2,0.4-0.3,1-0.1,1.5
	c0.1,0.5,0.5,0.9,1,1.2L1672.3,574.3z M1649.8,616.6c0.3,0.1,0.6,0.2,1,0.2c0.7,0,1.4-0.4,1.7-1.1l16.9-31.6c0.2-0.4,0.3-1,0.1-1.5
	c-0.1-0.5-0.5-0.9-1-1.2l-31.6-16.9c-0.3-0.1-0.6-0.2-1-0.2c-0.7,0-1.4,0.4-1.7,1.1l-16.9,31.6c-0.5,1-0.1,2.1,0.9,2.7L1649.8,616.6
	z M1717.5,489.4l-31.6-16.9c-0.3-0.1-0.6-0.2-1-0.2c-0.7,0-1.4,0.4-1.7,1.1l-8.4,15.8c-0.5,1-0.1,2.1,0.9,2.7l31.6,16.9
	c0.3,0.1,0.6,0.2,1,0.2c0.7,0,1.4-0.4,1.7-1.1l8.4-15.8C1718.8,491.1,1718.5,489.9,1717.5,489.4z M1672.8,497
	c-0.3-0.1-0.6-0.2-1-0.2c-0.7,0-1.4,0.4-1.7,1.1l-8.4,15.8c-0.2,0.4-0.3,1-0.1,1.5c0.1,0.5,0.5,0.9,1,1.2l31.6,16.9
	c0.3,0.1,0.6,0.2,1,0.2c0.7,0,1.4-0.4,1.7-1.1l8.4-15.8c0.2-0.4,0.3-1,0.1-1.5c-0.1-0.5-0.5-0.9-1-1.2L1672.8,497z M1270.4,142.2
	c-0.3-0.1-0.6-0.2-1-0.2c-0.7,0-1.4,0.4-1.7,1.1l-32.3,60.7c-0.2,0.4-0.3,1-0.1,1.5c0.1,0.5,0.5,0.9,1,1.2l452.5,241
	c0.3,0.1,0.6,0.2,1,0.2c0.7,0,1.4-0.4,1.7-1.1l32.3-60.7c0.5-1,0.1-2.1-0.9-2.7L1270.4,142.2z M1108.7,228.8c-0.3-0.1-0.6-0.2-1-0.2
	c-0.7,0-1.4,0.4-1.7,1.1l-9.4,17.9c-0.2,0.4-0.3,1-0.1,1.5c0.1,0.5,0.5,0.9,1,1.2l31.6,16.9c0.3,0.1,0.6,0.2,1,0.2
	c0.7,0,1.4-0.4,1.7-1.1l9.5-17.9c0.5-1,0.1-2.1-0.9-2.7L1108.7,228.8z M1140,246.3l-31.6-16.9c-0.2-0.1-0.3-0.1-0.5-0.1
	c-0.4,0-0.9,0.2-1.1,0.6l-9.5,17.9c-0.1,0.3-0.2,0.6-0.1,0.9c0.1,0.3,0.3,0.5,0.5,0.6l31.6,16.9c0.5,0.3,1.3,0.1,1.6-0.5l9.5-17.9
	C1140.8,247.4,1140.5,246.6,1140,246.3z M1093.8,256.8c-0.3-0.1-0.6-0.2-1-0.2c-0.7,0-1.4,0.4-1.7,1.1l-9.5,17.9
	c-0.2,0.4-0.3,1-0.1,1.5c0.1,0.5,0.5,0.9,1,1.2l31.6,16.9c0.3,0.1,0.6,0.2,1,0.2c0.7,0,1.4-0.4,1.7-1.1l9.5-17.9
	c0.2-0.4,0.3-1,0.1-1.5c-0.1-0.5-0.5-0.9-1-1.2L1093.8,256.8z M1125.7,275c-0.1-0.3-0.3-0.5-0.5-0.6l-31.6-16.9
	c-0.2-0.1-0.3-0.1-0.5-0.1c-0.4,0-0.9,0.2-1.1,0.6l-9.5,17.9c-0.1,0.3-0.2,0.6-0.1,0.9s0.3,0.5,0.5,0.6l31.6,16.9
	c0.5,0.3,1.3,0.1,1.6-0.5l9.5-17.9C1125.7,275.6,1125.8,275.3,1125.7,275z M1110.8,302.9c-0.1-0.3-0.3-0.5-0.5-0.6l-31.6-16.9
	c-0.2-0.1-0.3-0.1-0.5-0.1c-0.4,0-0.9,0.2-1.1,0.6l-9.5,17.9c-0.3,0.5-0.1,1.3,0.5,1.6l31.6,16.9c0.5,0.3,1.3,0.1,1.6-0.5l9.5-17.9
	C1110.8,303.5,1110.9,303.2,1110.8,302.9z M1078.9,284.7c-0.3-0.1-0.6-0.2-1-0.2c-0.7,0-1.4,0.4-1.7,1.1l-9.5,17.9
	c-0.5,1-0.1,2.1,0.9,2.7l31.6,16.9c0.3,0.1,0.6,0.2,1,0.2c0.7,0,1.4-0.4,1.7-1.1l9.5-17.9c0.2-0.4,0.3-1,0.1-1.5
	c-0.1-0.5-0.5-0.9-1-1.2L1078.9,284.7z M1095.3,330.1l-31.6-16.9c-0.2-0.1-0.3-0.1-0.5-0.1c-0.4,0-0.9,0.2-1.1,0.6l-9.5,17.9
	c-0.3,0.5-0.1,1.3,0.5,1.6l31.6,16.9c0.5,0.3,1.3,0.1,1.6-0.5l9.5-17.9C1096.2,331.2,1095.9,330.4,1095.3,330.1z M1064.1,312.6
	c-0.3-0.1-0.6-0.2-1-0.2c-0.7,0-1.4,0.4-1.7,1.1l-9.5,17.9c-0.5,1-0.1,2.1,0.9,2.7l31.6,16.9c0.3,0.1,0.6,0.2,1,0.2
	c0.7,0,1.4-0.4,1.7-1.1l9.5-17.9c0.5-1,0.1-2.1-0.9-2.7L1064.1,312.6z M1041.6,354.8c-0.3-0.1-0.6-0.2-1-0.2c-0.7,0-1.4,0.4-1.7,1.1
	l-9.5,17.9c-0.2,0.4-0.3,1-0.1,1.5c0.1,0.5,0.5,0.9,1,1.2l31.6,16.9c0.3,0.1,0.6,0.2,1,0.2c0.7,0,1.4-0.4,1.7-1.1l9.5-17.9
	c0.2-0.4,0.3-1,0.1-1.5c-0.1-0.5-0.5-0.9-1-1.2L1041.6,354.8z M1073.4,373c-0.1-0.3-0.3-0.5-0.5-0.6l-31.6-16.9
	c-0.2-0.1-0.3-0.1-0.5-0.1c-0.4,0-0.9,0.2-1.1,0.6l-9.5,17.9c-0.1,0.3-0.2,0.6-0.1,0.9s0.3,0.5,0.5,0.6l31.6,16.9
	c0.5,0.3,1.3,0.1,1.6-0.5l9.5-17.9C1073.5,373.6,1073.5,373.3,1073.4,373z M1058.5,401c-0.1-0.3-0.3-0.5-0.5-0.6l-31.6-16.9
	c-0.2-0.1-0.3-0.1-0.5-0.1c-0.4,0-0.9,0.2-1.1,0.6l-9.5,17.9c-0.3,0.5-0.1,1.3,0.5,1.6l31.6,16.9c0.5,0.3,1.3,0.1,1.6-0.5l9.5-17.9
	C1058.6,401.6,1058.6,401.3,1058.5,401z M1026.7,382.7c-0.3-0.1-0.6-0.2-1-0.2c-0.7,0-1.4,0.4-1.7,1.1l-9.4,17.9
	c-0.5,1-0.1,2.1,0.9,2.7l31.6,16.9c0.3,0.1,0.6,0.2,1,0.2c0.7,0,1.4-0.4,1.7-1.1l9.5-17.9c0.2-0.4,0.3-1,0.1-1.5
	c-0.1-0.5-0.5-0.9-1-1.2L1026.7,382.7z M1043.1,428.3l-31.6-16.9c-0.2-0.1-0.3-0.1-0.5-0.1c-0.4,0-0.9,0.2-1.1,0.6l-9.5,17.9
	c-0.3,0.5-0.1,1.3,0.5,1.6l31.6,16.9c0.5,0.3,1.3,0.1,1.6-0.5l9.5-17.9C1043.9,429.2,1043.7,428.5,1043.1,428.3z M1011.8,410.8
	c-0.3-0.1-0.6-0.2-1-0.2c-0.7,0-1.4,0.4-1.7,1.1l-9.5,17.9c-0.5,1-0.1,2.1,0.9,2.7l31.6,16.9c0.3,0.1,0.6,0.2,1,0.2
	c0.7,0,1.4-0.4,1.7-1.1l9.5-17.9c0.5-1,0.1-2.1-0.9-2.7L1011.8,410.8z M1027.8,458.7c-0.1-0.3-0.3-0.5-0.5-0.6l-31.6-16.9
	c-0.2-0.1-0.3-0.1-0.5-0.1c-0.4,0-0.9,0.2-1.1,0.6l-16.9,31.6c-0.1,0.3-0.2,0.6-0.1,0.9c0.1,0.2,0.3,0.5,0.5,0.6l31.6,16.9
	c0.5,0.3,1.3,0.1,1.6-0.5l16.9-31.6C1027.8,459.3,1027.9,459,1027.8,458.7z M996,440.5c-0.3-0.1-0.6-0.2-1-0.2
	c-0.7,0-1.4,0.4-1.7,1.1L976.4,473c-0.2,0.4-0.3,1-0.1,1.5c0.1,0.5,0.5,0.9,1,1.2l31.6,16.9c0.3,0.1,0.6,0.2,1,0.2
	c0.7,0,1.4-0.4,1.7-1.1l16.9-31.6c0.2-0.4,0.3-1,0.1-1.5c-0.1-0.5-0.5-0.9-1-1.2L996,440.5z M1004.7,500.2l-31.6-16.9
	c-0.2-0.1-0.3-0.1-0.5-0.1c-0.4,0-0.9,0.2-1.1,0.6l-16.9,31.6c-0.3,0.5-0.1,1.3,0.5,1.6l31.6,16.9c0.5,0.3,1.3,0.1,1.6-0.5
	l16.9-31.6C1005.5,501.2,1005.3,500.6,1004.7,500.2z M973.5,482.7c-0.3-0.1-0.6-0.2-1-0.2c-0.7,0-1.4,0.4-1.7,1.1L954,515.2
	c-0.5,1-0.1,2.1,0.9,2.7l31.6,16.9c0.3,0.1,0.6,0.2,1,0.2c0.7,0,1.4-0.4,1.7-1.1l16.9-31.6c0.5-1,0.1-2.1-0.9-2.7L973.5,482.7z
	 M932.2,560l31.6,16.9c0.3,0.1,0.6,0.2,1,0.2c0.7,0,1.4-0.4,1.7-1.1l16.9-31.6c0.5-1,0.1-2.1-0.9-2.7L951,524.8
	c-0.3-0.1-0.6-0.2-1-0.2c-0.7,0-1.4,0.4-1.7,1.1l-16.9,31.6C931,558.3,931.4,559.6,932.2,560z M932.7,559.4l31.6,16.9
	c0.5,0.3,1.3,0.1,1.6-0.5l16.9-31.6c0.3-0.5,0.1-1.3-0.5-1.6l-31.6-16.9c-0.2-0.1-0.3-0.1-0.5-0.1c-0.4,0-0.9,0.2-1.1,0.6
	l-16.9,31.6C931.9,558.3,932.1,559.1,932.7,559.4z M980.5,585.4c0.2,0.6,0.5,1.1,1.2,1.4l30.9,16.5c0.3,0.2,0.7,0.3,1.1,0.3
	c0.9,0,1.7-0.4,2-1.3l174.6-327.8c0.3-0.5,0.3-1.2,0.2-1.8c-0.2-0.6-0.5-1.1-1.2-1.4l-30.9-16.5c-0.3-0.2-0.7-0.3-1.1-0.3
	c-0.9,0-1.7,0.4-2,1.3L980.7,583.6C980.4,584.2,980.3,584.8,980.5,585.4z M1510.2,759.4c0.3,0.1,0.6,0.2,1,0.2
	c0.7,0,1.4-0.4,1.7-1.1l16.9-31.6c0.2-0.4,0.3-1,0.1-1.5c-0.1-0.5-0.5-0.9-1-1.2l-46.7-24.9c-0.3-0.1-0.6-0.2-1-0.2
	c-0.7,0-1.4,0.4-1.7,1.1l-16.9,31.6c-0.2,0.4-0.3,1-0.1,1.5c0.1,0.5,0.5,0.9,1,1.2L1510.2,759.4z M1463.2,733.1
	c0.1,0.3,0.3,0.5,0.5,0.6l46.7,24.9c0.5,0.3,1.3,0.1,1.6-0.5l16.9-31.6c0.1-0.3,0.2-0.6,0.1-0.9c-0.1-0.3-0.3-0.5-0.5-0.6
	l-46.7-24.9c-0.2-0.1-0.3-0.1-0.5-0.1c-0.4,0-0.9,0.2-1.1,0.6l-16.9,31.6C1463.1,732.6,1463.1,732.9,1463.2,733.1z M1440.9,776.9
	l46.7,24.9c0.3,0.1,0.6,0.2,1,0.2c0.7,0,1.4-0.4,1.7-1.1l16.9-31.6c0.5-1,0.1-2.1-0.9-2.7l-46.7-24.9c-0.3-0.1-0.6-0.2-1-0.2
	c-0.7,0-1.4,0.4-1.7,1.1l-16.9,31.6C1439.6,775.1,1439.9,776.3,1440.9,776.9z M1441.2,776.1l46.7,24.9c0.5,0.3,1.3,0.1,1.6-0.5
	l16.9-31.6c0.3-0.5,0.1-1.3-0.5-1.6l-46.7-24.9c-0.2-0.1-0.3-0.1-0.5-0.1c-0.4,0-0.9,0.2-1.1,0.6l-16.9,31.6
	C1440.5,775.1,1440.7,775.8,1441.2,776.1z M1417.5,817.9c0.1,0.5,0.5,0.9,1,1.2l46.7,24.9c0.3,0.1,0.6,0.2,1,0.2
	c0.7,0,1.4-0.4,1.7-1.1l16.9-31.6c0.5-1,0.1-2.1-0.9-2.7l-46.7-24.9c-0.3-0.1-0.6-0.2-1-0.2c-0.7,0-1.4,0.4-1.7,1.1l-16.9,31.6
	C1417.4,817,1417.3,817.4,1417.5,817.9z M1418.2,817.7c0.1,0.3,0.3,0.5,0.5,0.6l46.7,24.9c0.5,0.3,1.3,0.1,1.6-0.5l16.9-31.6
	c0.3-0.5,0.1-1.3-0.5-1.6l-46.7-24.9c-0.2-0.1-0.3-0.1-0.5-0.1c-0.4,0-0.9,0.2-1.1,0.6l-16.9,31.6
	C1418.1,817.1,1418.1,817.4,1418.2,817.7z M1577.6,632.6c0.3,0.1,0.6,0.2,1,0.2c0.7,0,1.4-0.4,1.7-1.1l16.9-31.6
	c0.2-0.4,0.3-1,0.1-1.5c-0.1-0.5-0.5-0.9-1-1.2l-46.7-24.9c-0.3-0.1-0.6-0.2-1-0.2c-0.7,0-1.4,0.4-1.7,1.1L1530,605
	c-0.5,1-0.1,2.1,0.9,2.7L1577.6,632.6z M1508.5,650l46.7,24.9c0.3,0.1,0.6,0.2,1,0.2c0.7,0,1.4-0.4,1.7-1.1l16.9-31.6
	c0.5-1,0.1-2.1-0.9-2.7l-46.7-24.9c-0.3-0.1-0.6-0.2-1-0.2c-0.7,0-1.4,0.4-1.7,1.1l-16.9,31.6C1507.1,648.3,1507.5,649.5,1508.5,650
	z M1532.6,717.2c0.3,0.1,0.6,0.2,1,0.2c0.7,0,1.4-0.4,1.7-1.1l16.9-31.6c0.5-1,0.1-2.1-0.9-2.7l-46.7-24.9c-0.3-0.1-0.6-0.2-1-0.2
	c-0.7,0-1.4,0.4-1.7,1.1l-16.9,31.6c-0.2,0.4-0.3,1-0.1,1.5c0.1,0.5,0.5,0.9,1,1.2L1532.6,717.2z M1622.8,548c0.3,0.1,0.6,0.2,1,0.2
	c0.7,0,1.4-0.4,1.7-1.1l16.9-31.6c0.5-1,0.1-2.1-0.9-2.7l-46.7-24.9c-0.3-0.1-0.6-0.2-1-0.2c-0.7,0-1.4,0.4-1.7,1.1l-16.9,31.6
	c-0.2,0.4-0.3,1-0.1,1.5c0.1,0.5,0.5,0.9,1,1.2L1622.8,548z M1552.5,564.3c0.1,0.5,0.5,0.9,1,1.2l46.7,24.9c0.3,0.1,0.6,0.2,1,0.2
	c0.7,0,1.4-0.4,1.7-1.1l16.9-31.6c0.2-0.4,0.3-1,0.1-1.5c-0.2-0.5-0.5-0.9-1-1.2l-46.7-24.9c-0.3-0.1-0.6-0.2-1-0.2
	c-0.7,0-1.4,0.4-1.7,1.1l-16.9,31.6C1552.4,563.3,1552.3,563.8,1552.5,564.3z M1668,463.1l-46.7-24.9c-0.3-0.1-0.6-0.2-1-0.2
	c-0.7,0-1.4,0.4-1.7,1.1l-8.4,15.8c-0.5,1-0.1,2.1,0.9,2.7l46.7,24.9c0.3,0.1,0.6,0.2,1,0.2c0.7,0,1.4-0.4,1.7-1.1l8.4-15.8
	C1669.3,464.9,1668.8,463.7,1668,463.1z M1655.8,488.8c-0.1-0.5-0.5-0.9-1-1.2l-46.7-24.9c-0.3-0.1-0.6-0.2-1-0.2
	c-0.7,0-1.4,0.4-1.7,1.1l-8.4,15.8c-0.2,0.4-0.3,1-0.1,1.5c0.1,0.5,0.5,0.9,1,1.2l46.7,24.9c0.3,0.1,0.6,0.2,1,0.2
	c0.7,0,1.4-0.4,1.7-1.1l8.4-15.8C1655.9,489.9,1656,489.3,1655.8,488.8z M1352.5,675.5l46.7,24.9c0.3,0.1,0.6,0.2,1,0.2
	c0.7,0,1.4-0.4,1.7-1.1l16.9-31.6c0.5-1,0.1-2.1-0.9-2.7l-46.7-24.9c-0.3-0.1-0.6-0.2-1-0.2c-0.7,0-1.4,0.4-1.7,1.1l-16.9,31.6
	C1351.2,673.8,1351.5,675,1352.5,675.5z M1352.8,674.7l46.7,24.9c0.5,0.3,1.3,0.1,1.6-0.5l16.9-31.6c0.3-0.5,0.1-1.3-0.5-1.6
	l-46.7-24.9c-0.2-0.1-0.3-0.1-0.5-0.1c-0.4,0-0.9,0.2-1.1,0.6l-16.9,31.6C1352,673.8,1352.2,674.4,1352.8,674.7z M1329.8,716.3
	c0.1,0.3,0.3,0.5,0.5,0.6l46.7,24.9c0.5,0.3,1.3,0.1,1.6-0.5l16.9-31.6c0.3-0.5,0.1-1.3-0.5-1.6l-46.7-24.9
	c-0.2-0.1-0.3-0.1-0.5-0.1c-0.4,0-0.9,0.2-1.1,0.6l-16.9,31.6C1329.7,715.7,1329.7,716,1329.8,716.3z M1329,716.6
	c0.1,0.5,0.5,0.9,1,1.2l46.7,24.9c0.3,0.1,0.6,0.2,1,0.2c0.7,0,1.4-0.4,1.7-1.1l16.9-31.6c0.5-1,0.1-2.1-0.9-2.7l-46.7-24.9
	c-0.3-0.1-0.6-0.2-1-0.2c-0.7,0-1.4,0.4-1.7,1.1l-16.9,31.6C1328.9,715.6,1328.8,716.1,1329,716.6z M1307.4,760l46.7,24.9
	c0.3,0.1,0.6,0.2,1,0.2c0.7,0,1.4-0.4,1.7-1.1l16.9-31.6c0.2-0.4,0.3-1,0.1-1.5c-0.1-0.5-0.5-0.9-1-1.2l-46.7-24.9
	c-0.3-0.1-0.6-0.2-1-0.2c-0.7,0-1.4,0.4-1.7,1.1l-16.9,31.6C1306.2,758.4,1306.5,759.5,1307.4,760z M1307.8,759.3l46.7,24.9
	c0.5,0.3,1.3,0.1,1.6-0.5l16.9-31.6c0.1-0.3,0.2-0.6,0.1-0.9c-0.1-0.3-0.3-0.5-0.5-0.6l-46.7-24.9c-0.2-0.1-0.3-0.1-0.5-0.1
	c-0.4,0-0.9,0.2-1.1,0.6l-16.9,31.6C1307,758.3,1307.2,759,1307.8,759.3z M1466.8,573.6c0.3,0.1,0.6,0.2,1,0.2
	c0.7,0,1.4-0.4,1.7-1.1l16.9-31.6c0.5-1,0.1-2.1-0.9-2.7l-46.7-24.9c-0.3-0.1-0.6-0.2-1-0.2c-0.7,0-1.4,0.4-1.7,1.1l-16.9,31.6
	c-0.5,1-0.1,2.1,0.9,2.7L1466.8,573.6z M1420.4,547.9l46.7,24.9c0.5,0.3,1.3,0.1,1.6-0.5l16.9-31.6c0.3-0.5,0.1-1.3-0.5-1.6
	l-46.7-24.9c-0.2-0.1-0.3-0.1-0.5-0.1c-0.4,0-0.9,0.2-1.1,0.6l-16.9,31.6C1419.6,547,1419.8,547.6,1420.4,547.9z M1444.2,615.8
	c0.3,0.1,0.6,0.2,1,0.2c0.7,0,1.4-0.4,1.7-1.1l16.9-31.6c0.2-0.4,0.3-1,0.1-1.5c-0.1-0.5-0.5-0.9-1-1.2l-46.7-24.9
	c-0.3-0.1-0.6-0.2-1-0.2c-0.7,0-1.4,0.4-1.7,1.1l-16.9,31.6c-0.2,0.4-0.3,1-0.1,1.5c0.1,0.5,0.5,0.9,1,1.2L1444.2,615.8z
	 M1397.3,589.5c0.1,0.3,0.3,0.5,0.5,0.6l46.7,24.9c0.5,0.3,1.3,0.1,1.6-0.5l16.9-31.6c0.1-0.3,0.2-0.6,0.1-0.9
	c-0.1-0.2-0.3-0.5-0.5-0.6l-46.7-24.9c-0.2-0.1-0.3-0.1-0.5-0.1c-0.4,0-0.9,0.2-1.1,0.6l-16.9,31.6
	C1397.3,588.9,1397.2,589.2,1397.3,589.5z M1375.3,632.5l46.7,24.9c0.5,0.3,1.3,0.1,1.6-0.5l16.9-31.6c0.1-0.3,0.2-0.6,0.1-0.9
	c-0.1-0.3-0.3-0.5-0.5-0.6l-46.7-24.9c-0.2-0.1-0.3-0.1-0.5-0.1c-0.4,0-0.9,0.2-1.1,0.6l-16.9,31.6
	C1374.6,631.4,1374.8,632.2,1375.3,632.5z M1375,633.2l46.7,24.9c0.3,0.1,0.6,0.2,1,0.2c0.7,0,1.4-0.4,1.7-1.1l16.9-31.6
	c0.2-0.4,0.3-1,0.1-1.5c-0.1-0.5-0.5-0.9-1-1.2l-46.7-24.9c-0.3-0.1-0.6-0.2-1-0.2c-0.7,0-1.4,0.4-1.7,1.1l-16.9,31.6
	C1373.6,631.5,1374.1,632.7,1375,633.2z M1531.5,455.1c-0.1-0.5-0.5-0.9-1-1.2l-46.7-24.9c-0.3-0.1-0.6-0.2-1-0.2
	c-0.7,0-1.4,0.4-1.7,1.1l-16.9,31.6c-0.2,0.4-0.3,1-0.1,1.5c0.1,0.5,0.5,0.9,1,1.2l46.7,24.9c0.3,0.1,0.6,0.2,1,0.2
	c0.7,0,1.4-0.4,1.7-1.1l16.9-31.6C1531.6,456.1,1531.6,455.6,1531.5,455.1z M1442.5,506.3l46.7,24.9c0.3,0.1,0.6,0.2,1,0.2
	c0.7,0,1.4-0.4,1.7-1.1l16.9-31.6c0.2-0.4,0.3-1,0.1-1.5c-0.2-0.5-0.5-0.9-1-1.2l-46.7-24.9c-0.3-0.1-0.6-0.2-1-0.2
	c-0.7,0-1.4,0.4-1.7,1.1l-16.9,31.6C1441.2,504.7,1441.5,505.9,1442.5,506.3z M1557,404.1l-46.7-24.9c-0.3-0.1-0.6-0.2-1-0.2
	c-0.7,0-1.4,0.4-1.7,1.1l-8.4,15.8c-0.5,1-0.1,2.1,0.9,2.7l46.7,24.9c0.3,0.1,0.6,0.2,1,0.2c0.7,0,1.4-0.4,1.7-1.1l8.4-15.8
	C1558.3,405.7,1558,404.5,1557,404.1z M1544,428.6l-46.7-24.9c-0.3-0.1-0.6-0.2-1-0.2c-0.7,0-1.4,0.4-1.7,1.1l-8.4,15.8
	c-0.5,1-0.1,2.1,0.9,2.7l46.7,24.9c0.3,0.1,0.6,0.2,1,0.2c0.7,0,1.4-0.4,1.7-1.1l8.4-15.8C1545.2,430.2,1544.9,429,1544,428.6z
	 M1241.6,616.4l46.7,24.9c0.3,0.1,0.6,0.2,1,0.2c0.7,0,1.4-0.4,1.7-1.1l16.9-31.6c0.5-1,0.1-2.1-0.9-2.7l-46.7-24.9
	c-0.3-0.1-0.6-0.2-1-0.2c-0.7,0-1.4,0.4-1.7,1.1l-16.9,31.6C1240.2,614.7,1240.6,615.8,1241.6,616.4z M1241.9,615.7l46.7,24.9
	c0.5,0.3,1.3,0.1,1.6-0.5l16.9-31.6c0.3-0.5,0.1-1.3-0.5-1.6l-46.7-24.9c-0.2-0.1-0.3-0.1-0.5-0.1c-0.4,0-0.9,0.2-1.1,0.6
	l-16.9,31.6C1241.2,614.7,1241.4,615.4,1241.9,615.7z M1218.1,657.5c0.1,0.5,0.5,0.9,1,1.2l46.7,24.9c0.3,0.1,0.6,0.2,1,0.2
	c0.7,0,1.4-0.4,1.7-1.1l16.9-31.6c0.2-0.4,0.3-1,0.1-1.5c-0.1-0.5-0.5-0.9-1-1.2l-46.7-24.9c-0.3-0.1-0.6-0.2-1-0.2
	c-0.7,0-1.4,0.4-1.7,1.1l-16.9,31.6C1217.9,656.5,1217.9,657,1218.1,657.5z M1218.8,657.3c0.1,0.3,0.3,0.5,0.5,0.6l46.7,24.9
	c0.5,0.3,1.3,0.1,1.6-0.5l16.9-31.6c0.1-0.3,0.2-0.6,0.1-0.9c-0.1-0.3-0.3-0.5-0.5-0.6l-46.7-24.9c-0.2-0.1-0.3-0.1-0.5-0.1
	c-0.4,0-0.9,0.2-1.1,0.6l-16.9,31.6C1218.8,656.7,1218.7,657,1218.8,657.3z M1196.5,700.9l46.7,24.9c0.3,0.1,0.6,0.2,1,0.2
	c0.7,0,1.4-0.4,1.7-1.1l16.9-31.6c0.5-1,0.1-2.1-0.9-2.7l-46.7-24.9c-0.3-0.1-0.6-0.2-1-0.2c-0.7,0-1.4,0.4-1.7,1.1l-16.9,31.6
	C1195.2,699.2,1195.6,700.4,1196.5,700.9z M1196.4,699.6c0.1,0.3,0.3,0.5,0.5,0.6l46.7,24.9c0.5,0.3,1.3,0.1,1.6-0.5l16.9-31.6
	c0.3-0.5,0.1-1.3-0.5-1.6l-46.7-24.9c-0.2-0.1-0.3-0.1-0.5-0.1c-0.4,0-0.9,0.2-1.1,0.6l-16.9,31.6
	C1196.2,698.9,1196.2,699.2,1196.4,699.6z M1374.7,480.8c-0.1-0.3-0.3-0.5-0.5-0.6l-46.7-24.9c-0.2-0.1-0.3-0.1-0.5-0.1
	c-0.4,0-0.9,0.2-1.1,0.6l-16.9,31.6c-0.1,0.3-0.2,0.6-0.1,0.9s0.3,0.5,0.5,0.6l46.7,24.9c0.5,0.3,1.3,0.1,1.6-0.5l16.9-31.6
	C1374.8,481.4,1374.8,481.1,1374.7,480.8z M1327.8,454.5c-0.3-0.1-0.6-0.2-1-0.2c-0.7,0-1.4,0.4-1.7,1.1l-16.9,31.6
	c-0.2,0.4-0.3,1-0.1,1.5c0.2,0.5,0.5,0.9,1,1.2l46.7,24.9c0.3,0.1,0.6,0.2,1,0.2c0.7,0,1.4-0.4,1.7-1.1l16.9-31.6
	c0.2-0.4,0.3-1,0.1-1.5c-0.1-0.5-0.5-0.9-1-1.2L1327.8,454.5z M1352.1,523c-0.1-0.3-0.3-0.5-0.5-0.6l-46.7-24.9
	c-0.2-0.1-0.3-0.1-0.5-0.1c-0.4,0-0.9,0.2-1.1,0.6l-16.9,31.6c-0.1,0.3-0.2,0.6-0.1,0.9c0.1,0.2,0.3,0.5,0.5,0.6l46.7,24.9
	c0.5,0.3,1.3,0.1,1.6-0.5l16.9-31.6C1352.2,523.7,1352.2,523.3,1352.1,523z M1305.2,496.7c-0.3-0.1-0.6-0.2-1-0.2
	c-0.7,0-1.4,0.4-1.7,1.1l-16.9,31.6c-0.2,0.4-0.3,1-0.1,1.5c0.1,0.5,0.5,0.9,1,1.2l46.7,24.9c0.3,0.1,0.6,0.2,1,0.2
	c0.7,0,1.4-0.4,1.7-1.1l16.9-31.6c0.2-0.4,0.3-1,0.1-1.5c-0.1-0.5-0.5-0.9-1-1.2L1305.2,496.7z M1264.4,573.4l46.7,24.9
	c0.5,0.3,1.3,0.1,1.6-0.5l16.9-31.6c0.3-0.5,0.1-1.3-0.5-1.6l-46.7-24.9c-0.2-0.1-0.3-0.1-0.5-0.1c-0.4,0-0.9,0.2-1.1,0.6
	l-16.9,31.6C1263.6,572.4,1263.8,573.2,1264.4,573.4z M1264,574.1l46.7,24.9c0.3,0.1,0.6,0.2,1,0.2c0.7,0,1.4-0.4,1.7-1.1l16.9-31.6
	c0.5-1,0.1-2.1-0.9-2.7l-46.7-24.9c-0.3-0.1-0.6-0.2-1-0.2c-0.7,0-1.4,0.4-1.7,1.1l-16.9,31.6C1262.8,572.4,1263.1,573.6,1264,574.1
	z M1419.7,396.2c-0.1-0.3-0.3-0.5-0.5-0.6l-46.7-24.9c-0.2-0.1-0.3-0.1-0.5-0.1c-0.4,0-0.9,0.2-1.1,0.6l-16.9,31.6
	c-0.3,0.5-0.1,1.3,0.5,1.6l46.7,24.9c0.5,0.3,1.3,0.1,1.6-0.5l16.8-31.6C1419.8,396.8,1419.8,396.5,1419.7,396.2z M1420.5,396
	c-0.1-0.5-0.5-0.9-1-1.2l-46.7-24.9c-0.3-0.1-0.6-0.2-1-0.2c-0.7,0-1.4,0.4-1.7,1.1l-16.8,31.6c-0.5,1-0.1,2.1,0.9,2.7l46.7,24.9
	c0.3,0.1,0.6,0.2,1,0.2c0.7,0,1.4-0.4,1.7-1.1l16.9-31.6C1420.6,397.1,1420.6,396.5,1420.5,396z M1396.6,437.8l-46.7-24.9
	c-0.2-0.1-0.3-0.1-0.5-0.1c-0.4,0-0.9,0.2-1.1,0.6l-16.9,31.6c-0.3,0.5-0.1,1.3,0.5,1.6l46.7,24.9c0.5,0.3,1.3,0.1,1.6-0.5
	l16.9-31.6C1397.5,438.9,1397.3,438.1,1396.6,437.8z M1350.2,412.2c-0.3-0.1-0.6-0.2-1-0.2c-0.7,0-1.4,0.4-1.7,1.1l-16.9,31.6
	c-0.5,1-0.1,2.1,0.9,2.7l46.7,24.9c0.3,0.1,0.6,0.2,1,0.2c0.7,0,1.4-0.4,1.7-1.1l16.9-31.6c0.5-1,0.1-2.1-0.9-2.7L1350.2,412.2z
	 M1446.2,346.4c-0.1-0.3-0.3-0.5-0.5-0.6l-46.7-24.9c-0.2-0.1-0.3-0.1-0.5-0.1c-0.4,0-0.9,0.2-1.1,0.6l-8.4,15.8
	c-0.1,0.3-0.2,0.6-0.1,0.9s0.3,0.5,0.5,0.6l46.7,24.9c0.5,0.3,1.3,0.1,1.6-0.5l8.4-15.8C1446.3,347,1446.3,346.7,1446.2,346.4z
	 M1447,346.2c-0.1-0.5-0.5-0.9-1-1.2l-46.7-24.9c-0.3-0.1-0.6-0.2-1-0.2c-0.7,0-1.4,0.4-1.7,1.1l-8.4,15.8c-0.2,0.4-0.3,1-0.1,1.5
	c0.1,0.5,0.5,0.9,1,1.2l46.7,24.9c0.3,0.1,0.6,0.2,1,0.2c0.7,0,1.4-0.4,1.7-1.1l8.4-15.8C1447.1,347.1,1447.2,346.6,1447,346.2z
	 M1432.7,370.1l-46.7-24.9c-0.2-0.1-0.3-0.1-0.5-0.1c-0.4,0-0.9,0.2-1.1,0.6l-8.4,15.8c-0.3,0.5-0.1,1.3,0.5,1.6l46.7,24.9
	c0.5,0.3,1.3,0.1,1.6-0.5l8.4-15.8C1433.5,371.2,1433.3,370.4,1432.7,370.1z M1433.1,369.5l-46.7-24.9c-0.3-0.1-0.6-0.2-1-0.2
	c-0.7,0-1.4,0.4-1.7,1.1l-8.4,15.8c-0.5,1-0.1,2.1,0.9,2.7l46.7,24.9c0.3,0.1,0.6,0.2,1,0.2c0.7,0,1.4-0.4,1.7-1.1l8.4-15.8
	C1434.4,371.2,1433.9,370,1433.1,369.5z M1196.2,548.5c-0.1-0.3-0.3-0.5-0.5-0.6L1149,523c-0.2-0.1-0.3-0.1-0.5-0.1
	c-0.4,0-0.9,0.2-1.1,0.6l-16.9,31.6c-0.1,0.3-0.2,0.6-0.1,0.9c0.1,0.3,0.3,0.5,0.5,0.6l46.7,24.9c0.5,0.3,1.3,0.1,1.6-0.5l16.9-31.6
	C1196.2,549.1,1196.4,548.8,1196.2,548.5z M1149.3,522.3c-0.3-0.1-0.6-0.2-1-0.2c-0.7,0-1.4,0.4-1.7,1.1l-16.9,31.6
	c-0.2,0.4-0.3,1-0.1,1.5c0.1,0.5,0.5,0.9,1,1.2l46.7,24.9c0.3,0.1,0.6,0.2,1,0.2c0.7,0,1.4-0.4,1.7-1.1l16.9-31.6
	c0.2-0.4,0.3-1,0.1-1.5c-0.2-0.5-0.5-0.9-1-1.2L1149.3,522.3z M1108,599.6l46.7,24.9c0.3,0.1,0.6,0.2,1,0.2c0.7,0,1.4-0.4,1.7-1.1
	l16.9-31.6c0.2-0.4,0.3-1,0.1-1.5c-0.1-0.5-0.5-0.9-1-1.2l-46.7-24.9c-0.3-0.1-0.6-0.2-1-0.2c-0.7,0-1.4,0.4-1.7,1.1l-16.9,31.6
	C1106.7,597.9,1107.2,599,1108,599.6z M1108.5,598.8l46.7,24.9c0.5,0.3,1.3,0.1,1.6-0.5l16.9-31.6c0.1-0.3,0.2-0.6,0.1-0.9
	c-0.1-0.3-0.3-0.5-0.5-0.6l-46.7-24.9c-0.2-0.1-0.3-0.1-0.5-0.1c-0.4,0-0.9,0.2-1.1,0.6l-16.9,31.6
	C1107.7,597.9,1107.9,598.6,1108.5,598.8z M1085.9,641.2l46.7,24.9c0.5,0.3,1.3,0.1,1.6-0.5l16.9-31.6c0.3-0.5,0.1-1.3-0.5-1.6
	l-46.7-24.9c-0.2-0.1-0.3-0.1-0.5-0.1c-0.4,0-0.9,0.2-1.1,0.6l-16.9,31.6C1085.1,640.1,1085.4,640.9,1085.9,641.2z M1085.6,641.8
	l46.7,24.9c0.3,0.1,0.6,0.2,1,0.2c0.7,0,1.4-0.4,1.7-1.1l16.9-31.6c0.5-1,0.1-2.1-0.9-2.7l-46.7-24.8c-0.3-0.1-0.6-0.2-1-0.2
	c-0.7,0-1.4,0.4-1.7,1.1l-16.9,31.6C1084.3,640.1,1084.6,641.4,1085.6,641.8z M1263.7,421.7c-0.1-0.3-0.3-0.5-0.5-0.6l-46.7-24.9
	c-0.2-0.1-0.3-0.1-0.5-0.1c-0.4,0-0.9,0.2-1.1,0.6l-16.8,31.5c-0.1,0.3-0.2,0.6-0.1,0.9s0.3,0.5,0.5,0.6l46.7,24.9
	c0.5,0.3,1.3,0.1,1.6-0.5l16.9-31.6C1263.8,422.3,1263.8,422,1263.7,421.7z M1216.8,395.5c-0.3-0.1-0.6-0.2-1-0.2
	c-0.7,0-1.4,0.4-1.7,1.1l-16.9,31.6c-0.2,0.4-0.3,1-0.1,1.5c0.1,0.5,0.5,0.9,1,1.2l46.7,24.9c0.3,0.1,0.6,0.2,1,0.2
	c0.7,0,1.4-0.4,1.7-1.1l16.9-31.6c0.2-0.4,0.3-1,0.1-1.5c-0.1-0.5-0.5-0.9-1-1.2L1216.8,395.5z M1240.7,463.2l-46.7-24.9
	c-0.2-0.1-0.3-0.1-0.5-0.1c-0.4,0-0.9,0.2-1.1,0.6l-16.9,31.6c-0.3,0.5-0.1,1.3,0.5,1.6l46.7,24.9c0.5,0.3,1.3,0.1,1.6-0.5
	l16.9-31.6C1241.5,464.3,1241.3,463.6,1240.7,463.2z M1194.3,437.7c-0.3-0.1-0.6-0.2-1-0.2c-0.7,0-1.4,0.4-1.7,1.1l-16.9,31.6
	c-0.5,1-0.1,2.1,0.9,2.7l46.7,24.9c0.3,0.1,0.6,0.2,1,0.2c0.7,0,1.4-0.4,1.7-1.1l16.9-31.6c0.5-1,0.1-2.1-0.9-2.7L1194.3,437.7z
	 M1171.8,479.9c-0.3-0.1-0.6-0.2-1-0.2c-0.7,0-1.4,0.4-1.7,1.1l-16.9,31.6c-0.5,1-0.1,2.1,0.9,2.7l46.7,24.9c0.3,0.1,0.6,0.2,1,0.2
	c0.7,0,1.4-0.4,1.7-1.1l16.9-31.6c0.5-1,0.1-2.1-0.9-2.7L1171.8,479.9z M1218.2,505.6l-46.7-24.9c-0.2-0.1-0.3-0.1-0.5-0.1
	c-0.4,0-0.9,0.2-1.1,0.6l-16.9,31.6c-0.3,0.5-0.1,1.3,0.5,1.6l46.7,24.9c0.5,0.3,1.3,0.1,1.6-0.5l16.9-31.6
	C1218.9,506.6,1218.7,505.8,1218.2,505.6z M1308.2,336.4l-46.7-24.9c-0.2-0.1-0.3-0.1-0.5-0.1c-0.4,0-0.9,0.2-1.1,0.6l-16.8,31.6
	c-0.3,0.5-0.1,1.3,0.5,1.6l46.7,24.9c0.5,0.3,1.3,0.1,1.6-0.5l16.9-31.6C1309,337.5,1308.8,336.8,1308.2,336.4z M1261.8,310.9
	c-0.3-0.1-0.6-0.2-1-0.2c-0.7,0-1.4,0.4-1.7,1.1l-16.9,31.6c-0.5,1-0.1,2.1,0.9,2.7l46.7,24.9c0.3,0.1,0.6,0.2,1,0.2
	c0.7,0,1.4-0.4,1.7-1.1l16.9-31.8c0.5-1,0.1-2.1-0.9-2.7L1261.8,310.9z M1286.3,379.4c-0.1-0.3-0.3-0.5-0.5-0.6l-46.8-24.9
	c-0.2-0.1-0.3-0.1-0.5-0.1c-0.4,0-0.9,0.2-1.1,0.6l-16.9,31.6c-0.1,0.3-0.2,0.6-0.1,0.9s0.3,0.5,0.5,0.6l46.7,24.9
	c0.5,0.3,1.3,0.1,1.6-0.5l16.9-31.6C1286.4,380.1,1286.4,379.7,1286.3,379.4z M1239.3,353.1c-0.3-0.1-0.6-0.2-1-0.2
	c-0.7,0-1.4,0.4-1.7,1.1l-16.9,31.6c-0.2,0.4-0.3,1-0.1,1.5c0.1,0.5,0.5,0.9,1,1.2l46.7,24.9c0.3,0.1,0.6,0.2,1,0.2
	c0.7,0,1.4-0.4,1.7-1.1l16.9-31.6c0.2-0.4,0.3-1,0.1-1.5c-0.1-0.5-0.5-0.9-1-1.2L1239.3,353.1z M1336.1,287c-0.1-0.5-0.5-0.9-1-1.2
	l-46.7-24.9c-0.3-0.1-0.6-0.2-1-0.2c-0.7,0-1.4,0.4-1.7,1.1l-8.4,15.8c-0.5,1-0.1,2.1,0.9,2.7l46.7,24.9c0.3,0.1,0.6,0.2,1,0.2
	c0.7,0,1.4-0.4,1.7-1.1l8.4-15.8C1336.2,288.1,1336.2,287.6,1336.1,287z M1335.4,287.3c-0.1-0.3-0.3-0.5-0.5-0.6l-46.7-24.9
	c-0.2-0.1-0.3-0.1-0.5-0.1c-0.4,0-0.9,0.2-1.1,0.6l-8.4,15.8c-0.3,0.5-0.1,1.3,0.5,1.6l46.7,24.9c0.5,0.3,1.3,0.1,1.6-0.5l8.4-15.8
	C1335.4,287.9,1335.5,287.6,1335.4,287.3z M1275.4,285.5c-0.3-0.1-0.6-0.2-1-0.2c-0.7,0-1.4,0.4-1.7,1.1l-8.4,15.8
	c-0.2,0.4-0.3,1-0.1,1.5c0.1,0.5,0.5,0.9,1,1.2l46.7,24.9c0.3,0.1,0.6,0.2,1,0.2c0.7,0,1.4-0.4,1.7-1.1l8.4-15.8
	c0.2-0.4,0.3-1,0.1-1.5c-0.1-0.5-0.5-0.9-1-1.2L1275.4,285.5z M1322.3,311.7c-0.1-0.3-0.3-0.5-0.5-0.6l-46.7-24.9
	c-0.2-0.1-0.3-0.1-0.5-0.1c-0.4,0-0.9,0.2-1.1,0.6l-8.4,15.8c-0.1,0.3-0.2,0.6-0.1,0.9s0.3,0.5,0.5,0.6l46.7,24.9
	c0.5,0.3,1.3,0.1,1.6-0.5l8.4-15.8C1322.4,312.4,1322.4,312.1,1322.3,311.7z M1186.1,586.9l46.7,24.9c0.3,0.1,0.6,0.2,1,0.2
	c0.7,0,1.4-0.4,1.7-1.1l16.9-31.6c0.5-1,0.1-2.1-0.9-2.7l-46.7-24.9c-0.3-0.1-0.6-0.2-1-0.2c-0.7,0-1.4,0.4-1.7,1.1l-16.9,31.6
	C1184.8,585.1,1185.1,586.3,1186.1,586.9z M1186.4,586.1l46.7,24.9c0.5,0.3,1.3,0.1,1.6-0.5l16.9-31.6c0.3-0.5,0.1-1.3-0.5-1.6
	l-46.7-24.9c-0.2-0.1-0.3-0.1-0.5-0.1c-0.4,0-0.9,0.2-1.1,0.6l-16.9,31.6C1185.7,585.1,1185.9,585.9,1186.4,586.1z M1163.5,629.1
	l46.7,24.9c0.3,0.1,0.6,0.2,1,0.2c0.7,0,1.4-0.4,1.7-1.1l16.9-31.6c0.5-1,0.1-2.1-0.9-2.7l-46.7-24.9c-0.3-0.1-0.6-0.2-1-0.2
	c-0.7,0-1.4,0.4-1.7,1.1l-16.9,31.6C1162.2,627.4,1162.6,628.6,1163.5,629.1z M1164,628.4l46.7,24.9c0.5,0.3,1.3,0.1,1.6-0.5
	l16.9-31.6c0.3-0.5,0.1-1.3-0.5-1.6l-46.7-24.9c-0.2-0.1-0.3-0.1-0.5-0.1c-0.4,0-0.9,0.2-1.1,0.6l-16.9,31.6
	C1163.1,627.4,1163.3,628.1,1164,628.4z M1140.1,670.3c0.1,0.5,0.5,0.9,1,1.2l46.7,24.9c0.3,0.1,0.6,0.2,1,0.2
	c0.7,0,1.4-0.4,1.7-1.1l16.9-31.6c0.2-0.4,0.3-1,0.1-1.5c-0.1-0.5-0.5-0.9-1-1.2l-46.7-24.9c-0.3-0.1-0.6-0.2-1-0.2
	c-0.7,0-1.4,0.4-1.7,1.1l-16.9,31.6C1140,669.2,1139.9,669.7,1140.1,670.3z M1140.9,670c0.1,0.3,0.3,0.5,0.5,0.6l46.7,24.9
	c0.5,0.3,1.3,0.1,1.6-0.5l16.9-31.6c0.1-0.3,0.2-0.6,0.1-0.9c-0.1-0.3-0.3-0.5-0.5-0.6l-46.7-24.9c-0.2-0.1-0.3-0.1-0.5-0.1
	c-0.4,0-0.9,0.2-1.1,0.6l-16.9,31.6C1140.8,669.4,1140.8,669.7,1140.9,670z M1272.3,425c-0.3-0.1-0.6-0.2-1-0.2
	c-0.7,0-1.4,0.4-1.7,1.1l-16.9,31.6c-0.5,1-0.1,2.1,0.9,2.7l46.7,24.9c0.3,0.1,0.6,0.2,1,0.2c0.7,0,1.4-0.4,1.7-1.1l16.9-31.6
	c0.5-1,0.1-2.1-0.9-2.7L1272.3,425z M1318.7,450.5l-46.7-24.9c-0.2-0.1-0.3-0.1-0.5-0.1c-0.4,0-0.9,0.2-1.1,0.6l-16.9,31.6
	c-0.3,0.5-0.1,1.3,0.5,1.6l46.7,24.9c0.5,0.3,1.3,0.1,1.6-0.5l16.9-31.6C1319.4,451.6,1319.2,450.8,1318.7,450.5z M1296.1,492.9
	l-46.7-24.9c-0.2-0.1-0.3-0.1-0.5-0.1c-0.4,0-0.9,0.2-1.1,0.6l-16.9,31.6c-0.1,0.3-0.2,0.6-0.1,0.9s0.3,0.5,0.5,0.6l46.7,24.9
	c0.5,0.3,1.3,0.1,1.6-0.5l16.9-31.6C1297,493.8,1296.8,493.1,1296.1,492.9z M1249.8,467.2c-0.3-0.1-0.6-0.2-1-0.2
	c-0.7,0-1.4,0.4-1.7,1.1l-16.9,31.6c-0.2,0.4-0.3,1-0.1,1.5c0.1,0.5,0.5,0.9,1,1.2l46.7,24.9c0.3,0.1,0.6,0.2,1,0.2
	c0.7,0,1.4-0.4,1.7-1.1l16.9-31.6c0.5-1,0.1-2.1-0.9-2.7L1249.8,467.2z M1274.2,535.7c-0.1-0.3-0.3-0.5-0.5-0.6l-46.7-24.9
	c-0.2-0.1-0.3-0.1-0.5-0.1c-0.4,0-0.9,0.2-1.1,0.6l-16.9,31.6c-0.1,0.3-0.2,0.6-0.1,0.9c0.1,0.3,0.3,0.5,0.5,0.6l46.7,24.9
	c0.5,0.3,1.3,0.1,1.6-0.5l16.9-31.6C1274.3,536.4,1274.3,536.1,1274.2,535.7z M1227.3,509.5c-0.3-0.1-0.6-0.2-1-0.2
	c-0.7,0-1.4,0.4-1.7,1.1l-16.9,31.6c-0.2,0.4-0.3,1-0.1,1.5c0.1,0.5,0.5,0.9,1,1.2l46.7,24.9c0.3,0.1,0.6,0.2,1,0.2
	c0.7,0,1.4-0.4,1.7-1.1l16.9-31.6c0.2-0.4,0.3-1,0.1-1.5c-0.1-0.5-0.5-0.9-1-1.2L1227.3,509.5z M1317.3,340.4
	c-0.3-0.1-0.6-0.2-1-0.2c-0.7,0-1.4,0.4-1.7,1.1l-16.9,31.6c-0.2,0.4-0.3,1-0.1,1.5c0.1,0.5,0.5,0.9,1,1.2l46.7,24.9
	c0.3,0.1,0.6,0.2,1,0.2c0.7,0,1.4-0.4,1.7-1.1l16.9-31.6c0.2-0.4,0.3-1,0.1-1.5c-0.1-0.5-0.5-0.9-1-1.2L1317.3,340.4z M1364.2,366.7
	c-0.1-0.3-0.3-0.5-0.5-0.6l-46.7-24.9c-0.2-0.1-0.3-0.1-0.5-0.1c-0.4,0-0.9,0.2-1.1,0.6l-16.9,31.6c-0.1,0.3-0.2,0.6-0.1,0.9
	s0.3,0.5,0.5,0.6l46.7,24.9c0.5,0.3,1.3,0.1,1.6-0.5l16.9-31.6C1364.3,367.3,1364.3,367,1364.2,366.7z M1341.8,408.9
	c-0.1-0.3-0.3-0.5-0.5-0.6l-46.7-24.9c-0.2-0.1-0.3-0.1-0.5-0.1c-0.4,0-0.9,0.2-1.1,0.6l-16.9,31.6c-0.3,0.5-0.1,1.3,0.5,1.6
	l46.7,24.9c0.5,0.3,1.3,0.1,1.6-0.5l16.9-31.6C1341.8,409.6,1341.9,409.3,1341.8,408.9z M1294.8,382.7c-0.3-0.1-0.6-0.2-1-0.2
	c-0.7,0-1.4,0.4-1.7,1.1l-16.9,31.5c-0.5,1-0.1,2.1,0.9,2.7l46.7,24.9c0.3,0.1,0.6,0.2,1,0.2c0.7,0,1.4-0.4,1.7-1.1l16.9-31.6
	c0.2-0.4,0.3-1,0.1-1.5c-0.1-0.5-0.5-0.9-1-1.2L1294.8,382.7z M1390.2,316.1l-46.7-24.9c-0.2-0.1-0.3-0.1-0.5-0.1
	c-0.4,0-0.9,0.2-1.1,0.6l-8.4,15.8c-0.3,0.5-0.1,1.3,0.5,1.6l46.7,24.9c0.5,0.3,1.3,0.1,1.6-0.5l8.4-15.8
	C1391.1,317.2,1390.8,316.4,1390.2,316.1z M1390.6,315.5l-46.7-24.9c-0.3-0.1-0.6-0.2-1-0.2c-0.7,0-1.4,0.4-1.7,1.1l-8.4,15.8
	c-0.5,1-0.1,2.1,0.9,2.7l46.7,24.9c0.3,0.1,0.6,0.2,1,0.2c0.7,0,1.4-0.4,1.7-1.1l8.4-15.8C1391.9,317.2,1391.6,315.9,1390.6,315.5z
	 M1377.8,341.4c-0.1-0.3-0.3-0.5-0.5-0.6l-46.7-24.9c-0.2-0.1-0.3-0.1-0.5-0.1c-0.4,0-0.9,0.2-1.1,0.6l-8.4,15.8
	c-0.1,0.3-0.2,0.6-0.1,0.9s0.3,0.5,0.5,0.6l46.7,24.9c0.5,0.3,1.3,0.1,1.6-0.5l8.4-15.8C1377.8,341.9,1377.9,341.6,1377.8,341.4z
	 M1378.5,341.1c-0.1-0.5-0.5-0.9-1-1.2l-46.7-24.9c-0.3-0.1-0.6-0.2-1-0.2c-0.7,0-1.4,0.4-1.7,1.1l-8.4,15.8c-0.2,0.4-0.3,1-0.1,1.5
	c0.1,0.5,0.5,0.9,1,1.2l46.7,24.9c0.3,0.1,0.6,0.2,1,0.2c0.7,0,1.4-0.4,1.7-1.1l8.4-15.8C1378.7,342.1,1378.7,341.6,1378.5,341.1z
	 M1407,703.8c0.1,0.5,0.5,0.9,1,1.2l46.7,24.9c0.3,0.1,0.6,0.2,1,0.2c0.7,0,1.4-0.4,1.7-1.1l16.9-31.6c0.5-1,0.1-2.1-0.9-2.7
	l-46.7-24.9c-0.3-0.1-0.6-0.2-1-0.2c-0.7,0-1.4,0.4-1.7,1.1l-16.9,31.6C1406.9,702.9,1406.9,703.4,1407,703.8z M1407.7,703.6
	c0.1,0.3,0.3,0.5,0.5,0.6l46.7,24.9c0.5,0.3,1.3,0.1,1.6-0.5l16.9-31.6c0.3-0.5,0.1-1.3-0.5-1.6l-46.7-24.9
	c-0.2-0.1-0.3-0.1-0.5-0.1c-0.4,0-0.9,0.2-1.1,0.6l-16.9,31.6C1407.6,703,1407.6,703.3,1407.7,703.6z M1385.2,745.9
	c0.1,0.3,0.3,0.5,0.5,0.6l46.7,24.9c0.5,0.3,1.3,0.1,1.6-0.5l16.9-31.6c0.1-0.3,0.2-0.6,0.1-0.9c-0.1-0.3-0.3-0.5-0.5-0.6
	l-46.7-24.9c-0.2-0.1-0.3-0.1-0.5-0.1c-0.4,0-0.9,0.2-1.1,0.6l-16.9,31.6C1385.2,745.3,1385.2,745.6,1385.2,745.9z M1384.4,746.2
	c0.1,0.5,0.5,0.9,1,1.2l46.7,24.9c0.3,0.1,0.6,0.2,1,0.2c0.7,0,1.4-0.4,1.7-1.1l16.9-31.6c0.2-0.4,0.3-1,0.1-1.5
	c-0.1-0.5-0.5-0.9-1-1.2l-46.7-24.9c-0.3-0.1-0.6-0.2-1-0.2c-0.7,0-1.4,0.4-1.7,1.1l-16.9,31.6
	C1384.3,745.1,1384.3,745.6,1384.4,746.2z M1362.9,789.6l46.7,24.9c0.3,0.1,0.6,0.2,1,0.2c0.7,0,1.4-0.4,1.7-1.1l16.9-31.6
	c0.5-1,0.1-2.1-0.9-2.7l-46.7-24.9c-0.3-0.1-0.6-0.2-1-0.2c-0.7,0-1.4,0.4-1.7,1.1l-16.9,31.6C1361.5,787.9,1362,789,1362.9,789.6z
	 M1363.3,788.8l46.7,24.9c0.5,0.3,1.3,0.1,1.6-0.5l16.9-31.6c0.3-0.5,0.1-1.3-0.5-1.6l-46.7-24.9c-0.2-0.1-0.3-0.1-0.5-0.1
	c-0.4,0-0.9,0.2-1.1,0.6l-16.9,31.6C1362.5,787.9,1362.7,788.5,1363.3,788.8z M1475.3,576.8c0.1,0.3,0.3,0.5,0.5,0.6l46.7,24.9
	c0.5,0.3,1.3,0.1,1.6-0.5l16.9-31.6c0.1-0.3,0.2-0.6,0.1-0.9c-0.1-0.3-0.3-0.5-0.5-0.6l-46.7-24.9c-0.2-0.1-0.3-0.1-0.5-0.1
	c-0.4,0-0.9,0.2-1.1,0.6l-16.9,31.6C1475.2,576.2,1475.2,576.5,1475.3,576.8z M1474.6,577c0.1,0.5,0.5,0.9,1,1.2l46.7,24.9
	c0.3,0.1,0.6,0.2,1,0.2c0.7,0,1.4-0.4,1.7-1.1l16.9-31.6c0.2-0.4,0.3-1,0.1-1.5c-0.1-0.5-0.5-0.9-1-1.2l-46.7-24.9
	c-0.3-0.1-0.6-0.2-1-0.2c-0.7,0-1.4,0.4-1.7,1.1l-16.9,31.6C1474.5,576.1,1474.4,576.6,1474.6,577z M1499.7,645.3
	c0.3,0.1,0.6,0.2,1,0.2c0.7,0,1.4-0.4,1.7-1.1l16.9-31.6c0.2-0.4,0.3-1,0.1-1.5c-0.1-0.5-0.5-0.9-1-1.2l-46.7-24.9
	c-0.3-0.1-0.6-0.2-1-0.2c-0.7,0-1.4,0.4-1.7,1.1l-16.9,31.6c-0.5,1-0.1,2.1,0.9,2.7L1499.7,645.3z M1453.3,619.8l46.7,24.9
	c0.5,0.3,1.3,0.1,1.6-0.5l16.9-31.6c0.1-0.3,0.2-0.6,0.1-0.9c-0.1-0.3-0.3-0.5-0.5-0.6l-46.7-24.9c-0.2-0.1-0.3-0.1-0.5-0.1
	c-0.4,0-0.9,0.2-1.1,0.6l-16.9,31.6C1452.5,618.7,1452.8,619.5,1453.3,619.8z M1430.8,662l46.7,24.9c0.5,0.3,1.3,0.1,1.6-0.5
	l16.9-31.6c0.3-0.5,0.1-1.3-0.5-1.6l-46.7-24.9c-0.2-0.1-0.3-0.1-0.5-0.1c-0.4,0-0.9,0.2-1.1,0.6l-16.9,31.6
	C1430,661.1,1430.2,661.7,1430.8,662z M1477.2,687.7c0.3,0.1,0.6,0.2,1,0.2c0.7,0,1.4-0.4,1.7-1.1l16.9-31.6c0.5-1,0.1-2.1-0.9-2.7
	l-46.7-24.9c-0.3-0.1-0.6-0.2-1-0.2c-0.7,0-1.4,0.4-1.7,1.1l-16.9,31.6c-0.5,1-0.1,2.1,0.9,2.7L1477.2,687.7z M1585.9,483.5
	l-46.7-24.9c-0.3-0.1-0.6-0.2-1-0.2c-0.7,0-1.4,0.4-1.7,1.1l-16.9,31.6c-0.5,1-0.1,2.1,0.9,2.7l46.7,24.9c0.3,0.1,0.6,0.2,1,0.2
	c0.7,0,1.4-0.4,1.7-1.1l16.9-31.6C1587.3,485.2,1586.8,484,1585.9,483.5z M1544.7,560.9c0.3,0.1,0.6,0.2,1,0.2
	c0.7,0,1.4-0.4,1.7-1.1l16.9-31.6c0.5-1,0.1-2.1-0.9-2.7l-46.7-24.9c-0.3-0.1-0.6-0.2-1-0.2c-0.7,0-1.4,0.4-1.7,1.1l-16.9,31.6
	c-0.5,1-0.1,2.1,0.9,2.7L1544.7,560.9z M1613.5,434.8c-0.1-0.5-0.5-0.9-1-1.2l-46.7-24.9c-0.3-0.1-0.6-0.2-1-0.2
	c-0.7,0-1.4,0.4-1.7,1.1l-8.4,15.8c-0.2,0.4-0.3,1-0.1,1.5c0.1,0.5,0.5,0.9,1,1.2l46.7,24.9c0.3,0.1,0.6,0.2,1,0.2
	c0.7,0,1.4-0.4,1.7-1.1l8.4-15.8C1613.6,435.8,1613.6,435.2,1613.5,434.8z M1599.5,458.1l-46.7-24.9c-0.3-0.1-0.6-0.2-1-0.2
	c-0.7,0-1.4,0.4-1.7,1.1l-8.4,15.8c-0.5,1-0.1,2.1,0.9,2.7l46.7,24.9c0.3,0.1,0.6,0.2,1,0.2c0.7,0,1.4-0.4,1.7-1.1l8.4-15.8
	C1600.7,459.8,1600.4,458.7,1599.5,458.1z M1296,644.8c0.1,0.5,0.5,0.9,1,1.2l46.7,24.9c0.3,0.1,0.6,0.2,1,0.2
	c0.7,0,1.4-0.4,1.7-1.1l16.9-31.6c0.2-0.4,0.3-1,0.1-1.5c-0.1-0.5-0.5-0.9-1-1.2l-46.7-24.9c-0.3-0.1-0.6-0.2-1-0.2
	c-0.7,0-1.4,0.4-1.7,1.1l-16.9,31.6C1295.9,643.7,1295.9,644.3,1296,644.8z M1296.8,644.6c0.1,0.3,0.3,0.5,0.5,0.6l46.7,24.9
	c0.5,0.3,1.3,0.1,1.6-0.5l16.9-31.6c0.1-0.3,0.2-0.6,0.1-0.9c-0.1-0.3-0.3-0.5-0.5-0.6l-46.7-24.9c-0.2-0.1-0.3-0.1-0.5-0.1
	c-0.4,0-0.9,0.2-1.1,0.6l-16.9,31.6C1296.8,644,1296.8,644.3,1296.8,644.6z M1274.8,687.5l46.7,24.9c0.5,0.3,1.3,0.1,1.6-0.5
	l16.9-31.6c0.3-0.5,0.1-1.3-0.5-1.6l-46.7-24.9c-0.2-0.1-0.3-0.1-0.5-0.1c-0.4,0-0.9,0.2-1.1,0.6l-16.9,31.6
	C1274.1,686.5,1274.3,687.1,1274.8,687.5z M1274.5,688.2l46.7,24.9c0.3,0.1,0.6,0.2,1,0.2c0.7,0,1.4-0.4,1.7-1.1l16.9-31.6
	c0.5-1,0.1-2.1-0.9-2.7l-46.7-24.9c-0.3-0.1-0.6-0.2-1-0.2c-0.7,0-1.4,0.4-1.7,1.1l-16.9,31.6
	C1273.1,686.5,1273.6,687.7,1274.5,688.2z M1252,730.5l46.7,24.9c0.3,0.1,0.6,0.2,1,0.2c0.7,0,1.4-0.4,1.7-1.1l16.9-31.6
	c0.5-1,0.1-2.1-0.9-2.7l-46.7-24.9c-0.3-0.1-0.6-0.2-1-0.2c-0.7,0-1.4,0.4-1.7,1.1l-16.9,31.6C1250.7,728.7,1251,729.9,1252,730.5z
	 M1252.4,729.8l46.7,24.9c0.5,0.3,1.3,0.1,1.6-0.5l16.9-31.6c0.3-0.5,0.1-1.3-0.5-1.6l-46.7-24.9c-0.2-0.1-0.3-0.1-0.5-0.1
	c-0.4,0-0.9,0.2-1.1,0.6l-16.9,31.6C1251.5,728.7,1251.7,729.5,1252.4,729.8z M1364.3,517.8c0.1,0.3,0.3,0.5,0.5,0.6l46.7,24.9
	c0.5,0.3,1.3,0.1,1.6-0.5l16.9-31.6c0.1-0.3,0.2-0.6,0.1-0.9s-0.3-0.5-0.5-0.6l-46.7-24.9c-0.2-0.1-0.3-0.1-0.5-0.1
	c-0.4,0-0.9,0.2-1.1,0.6l-16.9,31.6C1364.2,517.1,1364.2,517.5,1364.3,517.8z M1411.3,544c0.3,0.1,0.6,0.2,1,0.2
	c0.7,0,1.4-0.4,1.7-1.1l16.9-31.6c0.2-0.4,0.3-1,0.1-1.5c-0.1-0.5-0.5-0.9-1-1.2l-46.7-24.9c-0.3-0.1-0.6-0.2-1-0.2
	c-0.7,0-1.4,0.4-1.7,1.1l-16.9,31.6c-0.5,1-0.1,2.1,0.9,2.7L1411.3,544z M1342.4,560.7l46.7,24.9c0.5,0.3,1.3,0.1,1.6-0.5l16.9-31.6
	c0.3-0.5,0.1-1.3-0.5-1.6l-46.7-24.9c-0.2-0.1-0.3-0.1-0.5-0.1c-0.4,0-0.9,0.2-1.1,0.6l-16.9,31.6
	C1341.6,559.7,1341.8,560.3,1342.4,560.7z M1342,561.4l46.7,24.9c0.3,0.1,0.6,0.2,1,0.2c0.7,0,1.4-0.4,1.7-1.1l16.9-31.6
	c0.5-1,0.1-2.1-0.9-2.7l-46.7-24.9c-0.3-0.1-0.6-0.2-1-0.2c-0.7,0-1.4,0.4-1.7,1.1l-16.9,31.6C1340.7,559.7,1341,560.9,1342,561.4z
	 M1318.6,602.5c0.1,0.5,0.5,0.9,1,1.2l46.7,24.9c0.3,0.1,0.6,0.2,1,0.2c0.7,0,1.4-0.4,1.7-1.1l16.9-31.6c0.5-1,0.1-2.1-0.9-2.7
	l-46.7-24.9c-0.3-0.1-0.6-0.2-1-0.2c-0.7,0-1.4,0.4-1.7,1.1l-16.9,31.6C1318.5,601.5,1318.5,602,1318.6,602.5z M1319.3,602.3
	c0.1,0.3,0.3,0.5,0.5,0.6l46.7,24.9c0.5,0.3,1.3,0.1,1.6-0.5l16.9-31.6c0.3-0.5,0.1-1.3-0.5-1.6l-46.7-24.9
	c-0.2-0.1-0.3-0.1-0.5-0.1c-0.4,0-0.9,0.2-1.1,0.6l-16.9,31.6C1319.2,601.6,1319.2,601.9,1319.3,602.3z M1475,424.4l-46.7-24.9
	c-0.3-0.1-0.6-0.2-1-0.2c-0.7,0-1.4,0.4-1.7,1.1l-16.9,31.6c-0.2,0.4-0.3,1-0.1,1.5c0.1,0.5,0.5,0.9,1,1.2l46.7,24.9
	c0.3,0.1,0.6,0.2,1,0.2c0.7,0,1.4-0.4,1.7-1.1l16.9-31.6C1476.3,426,1476,424.9,1475,424.4z M1474.7,425.1l-46.7-24.9
	c-0.2-0.1-0.3-0.1-0.5-0.1c-0.4,0-0.9,0.2-1.1,0.6l-16.9,31.6c-0.1,0.3-0.2,0.6-0.1,0.9s0.3,0.5,0.5,0.6l46.7,24.9
	c0.5,0.3,1.3,0.1,1.6-0.5l16.9-31.6C1475.4,426.1,1475.2,425.4,1474.7,425.1z M1386.9,475.4c0.1,0.3,0.3,0.5,0.5,0.6l46.7,24.9
	c0.5,0.3,1.3,0.1,1.6-0.5l16.9-31.6c0.1-0.3,0.2-0.6,0.1-0.9s-0.3-0.5-0.5-0.6l-46.7-24.9c-0.2-0.1-0.3-0.1-0.5-0.1
	c-0.4,0-0.9,0.2-1.1,0.6l-16.9,31.6C1386.8,474.8,1386.8,475.1,1386.9,475.4z M1433.8,501.7c0.3,0.1,0.6,0.2,1,0.2
	c0.7,0,1.4-0.4,1.7-1.1l16.9-31.6c0.2-0.4,0.3-1,0.1-1.5c-0.1-0.5-0.5-0.9-1-1.2l-46.8-24.8c-0.3-0.1-0.6-0.2-1-0.2
	c-0.7,0-1.4,0.4-1.7,1.1l-16.9,31.6c-0.2,0.4-0.3,1-0.1,1.5c0.1,0.5,0.5,0.9,1,1.2L1433.8,501.7z M1501.5,374.5l-46.7-24.9
	c-0.3-0.1-0.6-0.2-1-0.2c-0.7,0-1.4,0.4-1.7,1.1l-8.4,15.8c-0.5,1-0.1,2.1,0.9,2.7l46.7,24.9c0.3,0.1,0.6,0.2,1,0.2
	c0.7,0,1.4-0.4,1.7-1.1l8.4-15.8C1502.9,376.2,1502.5,375,1501.5,374.5z M1501.2,375.3l-46.7-24.9c-0.2-0.1-0.3-0.1-0.5-0.1
	c-0.4,0-0.9,0.2-1.1,0.6l-8.4,15.8c-0.3,0.5-0.1,1.3,0.5,1.6l46.7,24.9c0.5,0.3,1.3,0.1,1.6-0.5l8.4-15.8
	C1501.9,376.2,1501.7,375.6,1501.2,375.3z M1489.4,400.2c-0.1-0.5-0.5-0.9-1-1.2l-46.7-24.9c-0.3-0.1-0.6-0.2-1-0.2
	c-0.7,0-1.4,0.4-1.7,1.1l-8.4,15.8c-0.2,0.4-0.3,1-0.1,1.5c0.1,0.5,0.5,0.9,1,1.2l46.7,24.9c0.3,0.1,0.6,0.2,1,0.2
	c0.7,0,1.4-0.4,1.7-1.1l8.4-15.8C1489.5,401.2,1489.6,400.7,1489.4,400.2z M1488.7,400.4c-0.1-0.3-0.3-0.5-0.5-0.6l-46.7-24.9
	c-0.2-0.1-0.3-0.1-0.5-0.1c-0.4,0-0.9,0.2-1.1,0.6l-8.4,15.8c-0.1,0.3-0.2,0.6-0.1,0.9s0.3,0.5,0.5,0.6l46.7,24.9
	c0.5,0.3,1.3,0.1,1.6-0.5l8.4-15.8C1488.8,401,1488.8,400.7,1488.7,400.4z M1550.6,229.3c-2.9-1.5-6.2-2.4-9.4-2.4
	c-7.5,0-14.2,4.1-17.7,10.7c-5.2,9.7-1.5,21.9,8.2,27.2c2.9,1.5,6.2,2.4,9.4,2.4c7.5,0,14.2-4.1,17.7-10.7
	C1564.1,246.6,1560.3,234.4,1550.6,229.3z M1557.5,255.7c4.8-9,1.4-20.2-7.6-25c-2.7-1.4-5.7-2.1-8.7-2.1c-6.8,0-13.2,3.7-16.4,9.8
	c-4.8,9-1.4,20.2,7.6,25c2.7,1.4,5.7,2.1,8.7,2.1C1548,265.5,1554.3,261.7,1557.5,255.7z M1554.1,253.9c1.8-3.4,2.2-7.4,1.1-11.1
	c-1.2-3.7-3.6-6.8-7.2-8.7c-2.1-1.2-4.5-1.7-6.8-1.7c-5.5,0-10.4,3-12.9,7.7c-3.7,7.2-1.1,16,6,19.8c2.1,1.2,4.5,1.7,6.8,1.7
	C1546.5,261.6,1551.6,258.6,1554.1,253.9z M1553.4,253.5c1.7-3.3,2.1-7.1,1.1-10.6c-1.1-3.5-3.4-6.4-6.7-8.1c-2-1.1-4.3-1.6-6.5-1.6
	c-5.1,0-9.8,2.8-12.2,7.4c-3.6,6.7-1.1,15.2,5.7,18.7c2,1.1,4.3,1.6,6.5,1.6C1546.3,260.8,1551,258.1,1553.4,253.5z M1774.5,348.5
	c-2.9-1.5-6.2-2.4-9.4-2.4c-7.5,0-14.2,4.1-17.7,10.7c-5.2,9.7-1.5,21.9,8.2,27.2c2.9,1.5,6.2,2.4,9.4,2.4c7.5,0,14.2-4.1,17.7-10.7
	C1788,365.8,1784.2,353.7,1774.5,348.5z M1781.3,374.9c4.8-9,1.4-20.2-7.6-25c-2.7-1.4-5.7-2.1-8.7-2.1c-6.8,0-13.2,3.7-16.4,9.8
	c-4.8,9-1.4,20.2,7.6,25c2.7,1.4,5.7,2.1,8.7,2.1C1771.9,384.8,1778.1,380.9,1781.3,374.9z M1777.9,373.1c3.7-7.2,1.1-16-6-19.8
	c-2.1-1.2-4.5-1.7-6.8-1.7c-5.5,0-10.4,3-12.9,7.7c-1.8,3.4-2.2,7.4-1.1,11.1s3.6,6.8,7.2,8.7c2.1,1.2,4.5,1.7,6.8,1.7
	C1770.4,380.8,1775.3,377.8,1777.9,373.1z M1777.3,372.7c3.6-6.7,1.1-15.2-5.7-18.7c-2-1.1-4.3-1.6-6.5-1.6c-5.1,0-9.8,2.8-12.2,7.4
	c-1.7,3.3-2.1,7.1-1.1,10.6c1.1,3.5,3.4,6.4,6.7,8.1c2,1.1,4.3,1.6,6.5,1.6C1770.2,380.1,1774.8,377.3,1777.3,372.7z M1333.6,136.5
	c2.4-4.4,2.8-9.4,1.4-14.1s-4.6-8.7-9-10.9c-2.7-1.4-5.7-2.1-8.7-2.1c-6.8,0-13.2,3.7-16.4,9.8c-4.8,9-1.4,20.2,7.6,25
	c2.7,1.4,5.7,2.1,8.7,2.1C1324.1,146.2,1330.4,142.5,1333.6,136.5z M1336.5,121.8c-1.6-5.1-5-9.3-9.7-11.9c-2.9-1.5-6.2-2.4-9.4-2.4
	c-7.5,0-14.2,4.1-17.7,10.7c-5.2,9.7-1.5,21.9,8.2,27.2c2.9,1.5,6.2,2.4,9.4,2.4c7.5,0,14.2-4.1,17.7-10.7
	C1337.5,132.4,1338,127,1336.5,121.8z M1329.5,134.2c1.7-3.3,2.1-7.1,1.1-10.6c-1.1-3.5-3.4-6.4-6.7-8.1c-2-1.1-4.3-1.6-6.5-1.6
	c-5.1,0-9.8,2.8-12.2,7.4c-1.7,3.3-2.1,7.1-1.1,10.6c1.1,3.5,3.4,6.4,6.7,8.1c2,1.1,4.3,1.6,6.5,1.6
	C1322.4,141.6,1327.1,138.7,1329.5,134.2z M1330.2,134.7c1.8-3.4,2.2-7.4,1.1-11.1s-3.6-6.8-7.2-8.7c-2.1-1.2-4.5-1.7-6.8-1.7
	c-5.5,0-10.4,3-12.9,7.7c-1.8,3.4-2.2,7.4-1.1,11.1c1.2,3.7,3.6,6.8,7.2,8.7c2.1,1.2,4.5,1.7,6.8,1.7
	C1322.7,142.4,1327.7,139.4,1330.2,134.7z M1725.4,345.1c4.8-9,1.4-20.2-7.6-25c-2.7-1.4-5.7-2.1-8.7-2.1c-6.8,0-13.2,3.7-16.4,9.8
	c-4.8,9-1.4,20.2,7.6,25c2.7,1.4,5.7,2.1,8.7,2.1C1715.9,354.9,1722.2,351.2,1725.4,345.1z M1718.5,318.7c-2.9-1.5-6.2-2.4-9.4-2.4
	c-7.5,0-14.2,4.1-17.7,10.7c-5.2,9.7-1.5,21.9,8.2,27.2c2.9,1.5,6.2,2.4,9.4,2.4c7.5,0,14.2-4.1,17.7-10.7
	C1732,336.1,1728.3,323.9,1718.5,318.7z M1722,343.3c1.8-3.4,2.2-7.4,1.1-11.1s-3.6-6.8-7.2-8.7c-2.1-1.2-4.5-1.7-6.8-1.7
	c-5.5,0-10.4,3-12.9,7.7c-3.7,7.2-1.1,16,6,19.8c2.1,1.2,4.5,1.7,6.8,1.7C1714.5,351,1719.4,348.1,1722,343.3z M1721.2,343
	c1.7-3.3,2.1-7.1,1.1-10.6c-1.1-3.5-3.4-6.4-6.7-8.1c-2-1.1-4.3-1.6-6.5-1.6c-5.1,0-9.8,2.8-12.2,7.4c-3.6,6.7-1.1,15.2,5.7,18.7
	c2,1.1,4.3,1.6,6.5,1.6C1714.2,350.2,1718.9,347.5,1721.2,343z M1392.5,151.7c-1.6-5.1-5-9.3-9.7-11.9c-2.9-1.5-6.2-2.4-9.4-2.4
	c-7.5,0-14.2,4.1-17.7,10.7c-5.2,9.7-1.5,21.9,8.2,27.2c2.9,1.5,6.2,2.4,9.4,2.4c7.5,0,14.2-4.1,17.7-10.7
	C1393.5,162.3,1394.1,156.8,1392.5,151.7z M1389.6,166.2c2.4-4.4,2.8-9.4,1.4-14.1c-1.4-4.7-4.6-8.7-9-10.9
	c-2.7-1.4-5.7-2.1-8.7-2.1c-6.8,0-13.2,3.7-16.4,9.8c-4.8,9-1.4,20.2,7.6,25c2.7,1.4,5.7,2.1,8.7,2.1
	C1380.2,176.1,1386.4,172.3,1389.6,166.2z M1386.1,164.4c1.8-3.4,2.2-7.4,1.1-11.1c-1.2-3.7-3.6-6.8-7.2-8.7
	c-2.1-1.2-4.5-1.7-6.8-1.7c-5.5,0-10.4,3-12.9,7.7c-3.7,7.2-1.1,16,6,19.8c2.1,1.2,4.5,1.7,6.8,1.7
	C1378.7,172.2,1383.6,169.2,1386.1,164.4z M1385.5,164.1c1.7-3.3,2.1-7.1,1.1-10.6c-1.1-3.5-3.4-6.4-6.7-8.1c-2-1.1-4.3-1.6-6.5-1.6
	c-5.1,0-9.8,2.8-12.2,7.4c-3.6,6.7-1.1,15.2,5.7,18.7c2,1.1,4.3,1.6,6.5,1.6C1378.3,171.3,1383,168.6,1385.5,164.1z M1438.6,169.6
	c-2.9-1.5-6.2-2.4-9.4-2.4c-7.5,0-14.2,4.1-17.7,10.7c-5.2,9.7-1.5,21.9,8.2,27.2c2.9,1.5,6.2,2.4,9.4,2.4c7.5,0,14.2-4.1,17.7-10.7
	C1452.1,187.1,1448.5,174.9,1438.6,169.6z M1445.6,196c4.8-9,1.4-20.2-7.6-25c-2.7-1.4-5.7-2.1-8.7-2.1c-6.8,0-13.2,3.7-16.4,9.8
	c-4.8,9-1.4,20.2,7.6,25c2.7,1.4,5.7,2.1,8.7,2.1C1436.1,205.9,1442.4,202.1,1445.6,196z M1441.4,193.9c3.6-6.7,1.1-15.2-5.7-18.7
	c-2-1.1-4.3-1.6-6.5-1.6c-5.1,0-9.8,2.8-12.2,7.4c-1.7,3.3-2.1,7.1-1.1,10.6c1.1,3.5,3.4,6.4,6.7,8.1c2,1.1,4.3,1.6,6.5,1.6
	C1434.4,201.2,1439.1,198.4,1441.4,193.9z M1442.2,194.2c3.7-7.2,1.1-16-6-19.8c-2.1-1.2-4.5-1.7-6.8-1.7c-5.5,0-10.4,3-12.9,7.7
	c-1.8,3.4-2.2,7.4-1.1,11.1c1.2,3.7,3.6,6.8,7.2,8.7c2.1,1.2,4.5,1.7,6.8,1.7C1434.7,202,1439.6,199,1442.2,194.2z M1501.5,225.9
	c2.4-4.4,2.8-9.4,1.4-14.1c-1.4-4.7-4.6-8.7-9-10.9c-2.7-1.4-5.7-2.1-8.7-2.1c-6.8,0-13.2,3.7-16.4,9.8c-2.4,4.4-2.8,9.4-1.4,14.1
	c1.4,4.7,4.6,8.7,9,10.9c2.7,1.4,5.7,2.1,8.7,2.1C1492,235.7,1498.3,232,1501.5,225.9z M1504.4,211.3c-1.6-5.1-5-9.3-9.7-11.9
	c-2.9-1.5-6.2-2.4-9.4-2.4c-7.5,0-14.2,4.1-17.7,10.7c-2.6,4.7-3,10.2-1.5,15.3c1.6,5.1,5,9.3,9.7,11.9c2.9,1.5,6.2,2.4,9.4,2.4
	c7.5,0,14.2-4.1,17.7-10.7C1505.5,221.9,1506,216.5,1504.4,211.3z M1498.1,224.1c1.8-3.4,2.2-7.4,1.1-11.1c-1.2-3.7-3.6-6.8-7.2-8.7
	c-2.1-1.2-4.5-1.7-6.8-1.7c-5.5,0-10.4,3-12.9,7.7c-1.8,3.4-2.2,7.4-1.1,11.1c1.2,3.7,3.6,6.8,7.2,8.7c2.1,1.2,4.5,1.7,6.8,1.7
	C1490.6,231.8,1495.5,228.9,1498.1,224.1z M1497.4,223.6c1.7-3.3,2.1-7.1,1.1-10.6s-3.4-6.4-6.7-8.1c-2-1.1-4.3-1.6-6.5-1.6
	c-5.1,0-9.8,2.8-12.2,7.4c-1.7,3.3-2.1,7.1-1.1,10.6s3.4,6.4,6.7,8.1c2,1.1,4.3,1.6,6.5,1.6C1490.3,231,1495,228.2,1497.4,223.6z
	 M1606.6,259c-2.9-1.5-6.2-2.4-9.4-2.4c-7.5,0-14.2,4.1-17.7,10.7c-2.6,4.7-3,10.2-1.5,15.3c1.6,5.1,5,9.3,9.7,11.9
	c2.9,1.5,6.2,2.4,9.4,2.4c7.5,0,14.2-4.1,17.7-10.7C1620.1,276.5,1616.3,264.3,1606.6,259z M1613.5,285.5c4.8-9,1.4-20.2-7.6-25
	c-2.7-1.4-5.7-2.1-8.7-2.1c-6.8,0-13.2,3.7-16.4,9.8c-2.4,4.4-2.8,9.4-1.4,14.1s4.6,8.7,9,10.9c2.7,1.4,5.7,2.1,8.7,2.1
	C1603.9,295.3,1610.3,291.5,1613.5,285.5z M1609.4,283.3c3.6-6.7,1.1-15.2-5.7-18.7c-2-1.1-4.3-1.6-6.5-1.6c-5.1,0-9.8,2.8-12.2,7.4
	c-1.7,3.3-2.1,7.1-1.1,10.6s3.4,6.4,6.7,8.1c2,1.1,4.3,1.6,6.5,1.6C1602.2,290.7,1606.9,287.8,1609.4,283.3z M1610,283.6
	c3.7-7.2,1.1-16-6-19.8c-2.1-1.2-4.5-1.7-6.8-1.7c-5.5,0-10.4,3-12.9,7.7c-1.8,3.4-2.2,7.4-1.1,11.1s3.6,6.8,7.2,8.7
	c2.1,1.2,4.5,1.7,6.8,1.7C1602.6,291.4,1607.5,288.4,1610,283.6z M1672.3,300.7c-1.6-5.1-5-9.3-9.7-11.9c-2.9-1.5-6.2-2.4-9.4-2.4
	c-7.5,0-14.2,4.1-17.7,10.7c-2.6,4.7-3.1,10.2-1.5,15.3c1.6,5.1,5,9.3,9.7,11.9c2.9,1.5,6.2,2.4,9.4,2.4c7.5,0,14.2-4.1,17.7-10.7
	C1673.3,311.3,1673.9,305.9,1672.3,300.7z M1669.5,315.3c2.4-4.4,2.8-9.4,1.4-14.1s-4.6-8.7-9-10.9c-2.7-1.4-5.7-2.1-8.7-2.1
	c-6.8,0-13.2,3.7-16.4,9.8c-2.4,4.4-2.8,9.4-1.4,14.1s4.6,8.7,9,10.9c2.7,1.4,5.7,2.1,8.7,2.1C1660,325.1,1666.2,321.4,1669.5,315.3
	z M1666,313.4c3.7-7.2,1.1-16-6-19.8c-2.1-1.2-4.5-1.7-6.8-1.7c-5.5,0-10.4,3-12.9,7.7c-1.8,3.4-2.2,7.4-1.1,11.1
	c1.2,3.7,3.6,6.8,7.2,8.7c2.1,1.2,4.5,1.7,6.8,1.7C1658.5,321.3,1663.5,318.3,1666,313.4z M1665.3,313.1c3.6-6.7,1.1-15.2-5.7-18.7
	c-2-1.1-4.3-1.6-6.5-1.6c-5.1,0-9.8,2.8-12.2,7.4c-1.7,3.3-2.1,7.1-1.1,10.6c1.1,3.5,3.4,6.4,6.7,8.1c2,1.1,4.3,1.6,6.5,1.6
	C1658.3,320.4,1662.9,317.6,1665.3,313.1z M1209.2,116.3l-31.6-16.9c-0.3-0.1-0.6-0.2-1-0.2c-0.7,0-1.4,0.4-1.7,1.1l-16.9,31.6
	c-0.5,1-0.1,2.1,0.9,2.7l31.6,16.9c0.3,0.1,0.6,0.2,1,0.2c0.7,0,1.4-0.4,1.7-1.1L1210,119C1210.6,118,1210.1,116.8,1209.2,116.3z
	 M1208.9,117l-31.6-16.9c-0.2-0.1-0.3-0.1-0.5-0.1c-0.4,0-0.9,0.2-1.1,0.6l-16.9,31.6c-0.3,0.5-0.1,1.3,0.5,1.6l31.6,16.9
	c0.5,0.3,1.3,0.1,1.6-0.5l16.9-31.6C1209.6,118,1209.4,117.3,1208.9,117z M1188,157.9c-0.1-0.3-0.3-0.5-0.5-0.6l-31.6-16.9
	c-0.2-0.1-0.3-0.1-0.5-0.1c-0.4,0-0.9,0.2-1.1,0.6l-9.5,17.9c-0.3,0.5-0.1,1.3,0.5,1.6l31.6,16.9c0.5,0.3,1.3,0.1,1.6-0.5l9.5-17.9
	C1188,158.5,1188.1,158.2,1188,157.9z M1156.1,139.7c-0.3-0.1-0.6-0.2-1-0.2c-0.7,0-1.4,0.4-1.7,1.1l-9.5,17.9
	c-0.5,1-0.1,2.1,0.9,2.7l31.6,16.9c0.3,0.1,0.6,0.2,1,0.2c0.7,0,1.4-0.4,1.7-1.1l9.5-17.9c0.2-0.4,0.3-1,0.1-1.5
	c-0.1-0.5-0.5-0.9-1-1.2L1156.1,139.7z M1149.8,189.6c-2.2-1.2-4.8-1.8-7.4-1.8c-5.9,0-11.2,3.2-14,8.3c-4.1,7.7-1.2,17.3,6.5,21.4
	c2.2,1.2,4.8,1.8,7.4,1.8c5.9,0,11.2-3.2,14-8.3c2-3.7,2.4-8,1.2-12.1C1156.4,195,1153.6,191.7,1149.8,189.6z M1142.5,186.2
	c-6.4,0-12.3,3.5-15.4,9.2c-4.5,8.4-1.3,19,7.2,23.5c2.5,1.4,5.3,2,8.1,2c6.4,0,12.3-3.5,15.4-9.2c4.5-8.4,1.3-19-7.2-23.5
	C1148,187,1145.2,186.2,1142.5,186.2z M1148.3,192.5c-1.8-1-3.8-1.5-5.9-1.5c-4.7,0-9,2.6-11.1,6.7c-3.3,6.2-1,13.8,5.2,17.1
	c1.8,1,3.8,1.5,5.9,1.5c4.7,0,9-2.6,11.1-6.7C1156.8,203.4,1154.5,195.7,1148.3,192.5z M1152.8,209.2c3.1-5.8,0.9-12.9-4.9-16
	c-1.7-1-3.6-1.4-5.6-1.4c-4.4,0-8.4,2.5-10.5,6.3c-3.1,5.8-0.9,12.9,4.9,16c1.7,1,3.6,1.4,5.6,1.4
	C1146.8,215.5,1150.8,213,1152.8,209.2z M1177.6,222.3c-4.1,7.7-1.2,17.3,6.5,21.4c2.2,1.2,4.8,1.8,7.4,1.8c5.9,0,11.2-3.2,14-8.3
	c4.1-7.7,1.2-17.3-6.5-21.4c-2.2-1.2-4.8-1.8-7.4-1.8C1185.8,214,1180.3,217.2,1177.6,222.3z M1183.4,245.1c2.5,1.4,5.3,2,8.1,2
	c6.4,0,12.3-3.5,15.4-9.2c4.5-8.4,1.3-19-7.2-23.5c-2.5-1.4-5.3-2-8.1-2c-6.4,0-12.3,3.5-15.4,9.2
	C1171.8,230.2,1175,240.6,1183.4,245.1z M1180.4,223.8c-1.6,3-1.9,6.4-1,9.6c1,3.2,3.2,5.9,6.1,7.5c1.8,1,3.8,1.5,5.9,1.5
	c4.7,0,9-2.6,11.1-6.7c1.6-3,1.9-6.4,1-9.6c-1-3.2-3.2-5.9-6.1-7.5c-1.8-1-3.8-1.5-5.9-1.5C1186.9,217.2,1182.7,219.8,1180.4,223.8z
	 M1181.1,224.3c-1.5,2.8-1.8,6-0.9,9s3,5.6,5.8,7.1c1.7,1,3.6,1.4,5.6,1.4c4.4,0,8.4-2.5,10.5-6.3c1.5-2.8,1.8-6,0.9-9
	s-3-5.6-5.8-7.1c-1.7-1-3.6-1.4-5.6-1.4C1187.2,218,1183.2,220.4,1181.1,224.3z M1627,829.5l7.5-14c0.5-1,0.1-2.1-0.9-2.7
	l-25.1-13.4c-0.3-0.1-0.6-0.2-1-0.2c-0.7,0-1.4,0.4-1.7,1.1l-7.5,14c-0.3,0.6,1.9,7.5,2.9,10.5c1.5,4.4,3.5,9.8,4.4,10.3
	c0.1,0.1,0.3,0.1,0.5,0.1C1608.9,835,1626.5,830.5,1627,829.5z M1606.2,834.3c0,0,0.1,0,0.2,0c2.8,0,18.8-4.4,20-5.2l7.4-13.9
	c0.3-0.5,0.1-1.3-0.5-1.6l-25.1-13.4c-0.5-0.3-1.3-0.1-1.6,0.5l-7.4,13.9C1599.1,816.4,1605.2,833.4,1606.2,834.3L1606.2,834.3z
	 M1570.9,867.3c0.1,0.5,0.5,0.9,1,1.2l25.1,13.4c0.3,0.1,0.6,0.2,1,0.2c0.7,0,1.4-0.4,1.7-1.1l7.5-14c0.3-0.6-1.9-7.5-2.9-10.5
	c-1.5-4.4-3.5-9.8-4.4-10.3c-0.1-0.1-0.3-0.1-0.5-0.1c-2.5,0-20.1,4.5-20.6,5.6l-7.5,14C1570.8,866.2,1570.8,866.8,1570.9,867.3z
	 M1571.7,867.1c0.1,0.3,0.3,0.5,0.5,0.6l25.1,13.4c0.5,0.3,1.3,0.1,1.6-0.5l7.4-13.9c0.1-1.8-6-18.9-7-19.7c0,0-0.1,0-0.2,0
	c-2.8,0-18.8,4.4-20,5.2l-7.4,13.9C1571.5,866.5,1571.5,866.8,1571.7,867.1z M1614,864.9l14,7.5c0.3,0.1,0.6,0.2,1,0.2
	c0.7,0,1.4-0.4,1.7-1.1l13.4-25.1c0.2-0.4,0.3-1,0.1-1.5c-0.1-0.5-0.5-0.9-1-1.2l-14-7.5c-0.1,0-0.2-0.1-0.3-0.1
	c-1.2,0-19.6,5.9-20.4,7.4C1607.9,844.9,1612.9,864.3,1614,864.9z M1614.4,864.2l13.9,7.4c0.5,0.3,1.3,0.1,1.6-0.5l13.4-25.1
	c0.1-0.3,0.2-0.6,0.1-0.9c-0.1-0.2-0.3-0.5-0.5-0.6l-13.9-7.4c-2.1,0-18.9,6-19.7,7C1608.9,845.2,1613.4,862.8,1614.4,864.2z
	 M1561.5,836.3c0.1,0.5,0.5,0.9,1,1.2l14,7.5c0.1,0,0.2,0.1,0.3,0.1c1.2,0,19.6-5.9,20.4-7.4c0.4-0.9-0.9-6.4-2.1-11
	c-0.7-3-2.7-9.9-3.4-10.3l-14-7.5c-0.3-0.1-0.6-0.2-1-0.2c-0.7,0-1.4,0.4-1.7,1.1l-13.4,25.1
	C1561.4,835.2,1561.4,835.8,1561.5,836.3z M1562.2,836.1c0.1,0.3,0.3,0.5,0.5,0.6l13.9,7.4c2,0,18.9-6,19.7-7
	c0.4-1.2-4.2-18.8-5.2-20.2l-13.9-7.4c-0.2-0.1-0.3-0.1-0.5-0.1c-0.4,0-0.9,0.2-1.1,0.6l-13.4,25.1
	C1562.1,835.5,1562.1,835.8,1562.2,836.1z M1093.8,492.7c-0.3-0.1-0.6-0.2-1-0.2c-0.7,0-1.4,0.4-1.7,1.1l-16.9,31.6
	c-0.5,1-0.1,2.1,0.9,2.7l46.7,24.9c0.3,0.1,0.6,0.2,1,0.2c0.7,0,1.4-0.4,1.7-1.1l16.9-31.6c0.5-1,0.1-2.1-0.9-2.7L1093.8,492.7z
	 M1140.2,518.3l-46.8-24.9c-0.2-0.1-0.3-0.1-0.5-0.1c-0.4,0-0.9,0.2-1.1,0.6l-16.8,31.5c-0.3,0.5-0.1,1.3,0.5,1.6l46.7,24.9
	c0.5,0.3,1.3,0.1,1.6-0.5l16.9-31.6C1141,519.3,1140.8,518.5,1140.2,518.3z M1071.2,535c-0.3-0.1-0.6-0.2-1-0.2
	c-0.7,0-1.4,0.4-1.7,1.1l-16.8,31.5c-0.2,0.4-0.3,1-0.1,1.5c0.1,0.5,0.5,0.9,1,1.2l46.7,24.9c0.3,0.1,0.6,0.2,1,0.2
	c0.7,0,1.4-0.4,1.7-1.1l16.9-31.6c0.2-0.4,0.3-1,0.1-1.5c-0.1-0.5-0.5-0.9-1-1.2L1071.2,535z M1118.3,561.2
	c-0.1-0.3-0.3-0.5-0.5-0.6l-46.7-24.9c-0.2-0.1-0.3-0.1-0.5-0.1c-0.4,0-0.9,0.2-1.1,0.6l-16.9,31.6c-0.1,0.3-0.2,0.6-0.1,0.9
	c0.1,0.3,0.3,0.5,0.5,0.6l46.7,24.9c0.5,0.3,1.3,0.1,1.6-0.5l16.9-31.6C1118.3,561.8,1118.3,561.5,1118.3,561.2z M1029.9,610.9
	c0.1,0.3,0.3,0.5,0.5,0.6l46.7,24.9c0.5,0.3,1.3,0.1,1.6-0.5l16.9-31.6c0.1-0.3,0.2-0.6,0.1-0.9c-0.1-0.3-0.3-0.5-0.5-0.6
	l-46.8-24.9c-0.2-0.1-0.3-0.1-0.5-0.1c-0.4,0-0.9,0.2-1.1,0.6l-16.9,31.6C1029.9,610.3,1029.8,610.6,1029.9,610.9z M1029.1,611.1
	c0.1,0.5,0.5,0.9,1,1.2l46.7,24.9c0.3,0.1,0.6,0.2,1,0.2c0.7,0,1.4-0.4,1.7-1.1l16.9-31.6c0.2-0.4,0.3-1,0.1-1.5
	c-0.1-0.5-0.5-0.9-1-1.2l-46.7-24.9c-0.3-0.1-0.6-0.2-1-0.2c-0.7,0-1.4,0.4-1.7,1.1l-16.8,31.6C1029,610.2,1029,610.7,1029.1,611.1z
	 M1161.4,365.8c-0.3-0.1-0.6-0.2-1-0.2c-0.7,0-1.4,0.4-1.7,1.1l-16.9,31.6c-0.2,0.4-0.3,1-0.1,1.5c0.2,0.5,0.5,0.9,1,1.2l46.7,24.9
	c0.3,0.1,0.6,0.2,1,0.2c0.7,0,1.4-0.4,1.7-1.1l16.9-31.6c0.5-1,0.1-2.1-0.9-2.7L1161.4,365.8z M1207.7,391.5l-46.7-24.9
	c-0.2-0.1-0.3-0.1-0.5-0.1c-0.4,0-0.9,0.2-1.1,0.6l-16.9,31.6c-0.1,0.3-0.2,0.6-0.1,0.9s0.3,0.5,0.5,0.6l46.7,24.9
	c0.5,0.3,1.3,0.1,1.6-0.5l16.9-31.6C1208.5,392.5,1208.3,391.7,1207.7,391.5z M1185.8,434.4c-0.1-0.3-0.3-0.5-0.5-0.6l-46.7-24.9
	c-0.2-0.1-0.3-0.1-0.5-0.1c-0.4,0-0.9,0.2-1.1,0.6l-17,31.6c-0.1,0.3-0.2,0.6-0.1,0.9s0.3,0.5,0.5,0.6l46.7,24.9
	c0.5,0.3,1.3,0.1,1.6-0.5l16.9-31.6C1185.9,435,1185.9,434.7,1185.8,434.4z M1138.8,408.2c-0.3-0.1-0.6-0.2-1-0.2
	c-0.7,0-1.4,0.4-1.7,1.1l-16.9,31.6c-0.2,0.4-0.3,1-0.1,1.5c0.1,0.5,0.5,0.9,1,1.2l46.7,24.9c0.3,0.1,0.6,0.2,1,0.2
	c0.7,0,1.4-0.4,1.7-1.1l16.9-31.6c0.2-0.4,0.3-1,0.1-1.5c-0.1-0.5-0.5-0.9-1-1.2L1138.8,408.2z M1162.7,476l-46.7-24.9
	c-0.2-0.1-0.3-0.1-0.5-0.1c-0.4,0-0.9,0.2-1.1,0.6l-16.9,31.6c-0.3,0.5-0.1,1.3,0.5,1.6l46.7,24.9c0.5,0.3,1.3,0.1,1.6-0.5
	l16.9-31.6C1163.5,477,1163.3,476.3,1162.7,476z M1116.3,450.4c-0.3-0.1-0.6-0.2-1-0.2c-0.7,0-1.4,0.4-1.7,1.1l-16.9,31.6
	c-0.5,1-0.1,2.1,0.9,2.7l46.7,24.9c0.3,0.1,0.6,0.2,1,0.2c0.7,0,1.4-0.4,1.7-1.1l16.9-31.6c0.5-1,0.1-2.1-0.9-2.7L1116.3,450.4z
	 M1186.8,313.8c-0.2,0.4-0.3,1-0.1,1.5c0.1,0.5,0.5,0.9,1,1.2l46.7,24.9c0.3,0.1,0.6,0.2,1,0.2c0.7,0,1.4-0.4,1.7-1.1l16.9-31.6
	c0.2-0.4,0.3-1,0.1-1.5c-0.2-0.5-0.5-0.9-1-1.2l-46.7-24.9c-0.3-0.1-0.6-0.2-1-0.2c-0.7,0-1.4,0.4-1.7,1.1L1186.8,313.8z
	 M1204.4,282.5l-16.8,31.5c-0.1,0.3-0.2,0.6-0.1,0.9c0.1,0.2,0.3,0.5,0.5,0.6l46.7,24.9c0.5,0.3,1.3,0.1,1.6-0.5l16.9-31.6
	c0.1-0.3,0.2-0.6,0.1-0.9s-0.3-0.5-0.5-0.6l-46.7-24.9c-0.2-0.1-0.3-0.1-0.5-0.1C1205,281.9,1204.6,282.1,1204.4,282.5z
	 M1232.9,231.4c-0.3-0.1-0.6-0.2-1-0.2c-0.7,0-1.4,0.4-1.7,1.1l-8.4,15.8c-0.2,0.4-0.3,1-0.1,1.5c0.1,0.5,0.5,0.9,1,1.2l46.7,24.9
	c0.3,0.1,0.6,0.2,1,0.2c0.7,0,1.4-0.4,1.7-1.1l8.4-15.8c0.2-0.4,0.3-1,0.1-1.5c-0.1-0.5-0.5-0.9-1-1.2L1232.9,231.4z M1279.9,257.7
	c-0.1-0.3-0.3-0.5-0.5-0.6l-46.7-24.9c-0.2-0.1-0.3-0.1-0.5-0.1c-0.4,0-0.9,0.2-1.1,0.6l-8.4,15.8c-0.1,0.3-0.2,0.6-0.1,0.9
	c0.1,0.3,0.3,0.5,0.5,0.6l46.7,24.9c0.5,0.3,1.3,0.1,1.6-0.5l8.4-15.8C1280,258.4,1280,258.1,1279.9,257.7z M1266.3,281.6
	l-46.7-24.9c-0.2-0.1-0.3-0.1-0.5-0.1c-0.4,0-0.9,0.2-1.1,0.6l-8.4,15.8c-0.3,0.5-0.1,1.3,0.5,1.6l46.7,24.9
	c0.5,0.3,1.3,0.1,1.6-0.5l8.4-15.8C1267,282.5,1266.8,281.8,1266.3,281.6z M1219.9,255.9c-0.3-0.1-0.6-0.2-1-0.2
	c-0.7,0-1.4,0.4-1.7,1.1l-8.4,15.8c-0.5,1-0.1,2.1,0.9,2.7l46.7,24.9c0.3,0.1,0.6,0.2,1,0.2c0.7,0,1.4-0.4,1.7-1.1l8.4-15.8
	c0.5-1,0.1-2.1-0.9-2.7L1219.9,255.9z M985.3,499.1c-1.5-0.9-3.3-1.3-5-1.3c-4,0-7.6,2.1-9.5,5.7c-2.8,5.2-0.7,11.8,4.4,14.5
	c1.5,0.9,3.3,1.3,5,1.3c4,0,7.6-2.1,9.5-5.7C992.4,508.4,990.5,501.9,985.3,499.1z M943.5,556.9l23.8-0.8l-12.6-20.2L943.5,556.9z
	 M1231,350c-0.1-0.3-0.3-0.5-0.5-0.6l-46.8-24.9c-0.2-0.1-0.3-0.1-0.5-0.1c-0.4,0-0.9,0.2-1.1,0.6l-16.9,31.6
	c-0.1,0.3-0.2,0.6-0.1,0.9s0.3,0.5,0.5,0.6l46.7,24.9c0.5,0.3,1.3,0.1,1.6-0.5l16.9-31.6C1231.1,350.7,1231.1,350.3,1231,350z
	 M1184,323.7c-0.3-0.1-0.6-0.2-1-0.2c-0.7,0-1.4,0.4-1.7,1.1l-16.9,31.6c-0.2,0.4-0.3,1-0.1,1.5c0.1,0.5,0.5,0.9,1,1.2l46.7,24.9
	c0.3,0.1,0.6,0.2,1,0.2c0.7,0,1.4-0.4,1.7-1.1l16.9-31.6c0.2-0.4,0.3-1,0.1-1.5c-0.1-0.5-0.5-0.9-1-1.2L1184,323.7z"/>
<path id="Canon_3_" class="st0" d="M207.1,141.7c-1-1.3,3.2-4.4,0.3-7.9s-2.5,1-5.7-2.2s-3.5-4.1-3.5-4.1s-16.8,3.5-66,45.7l0,0l0,0
	l0,0l0,0C83.1,215.3,77,231.5,77,231.5s0.3,0.6,3.5,4.1c2.9,3.5-1.6,2.5,1.6,6c2.9,3.5,6.7-0.3,7.9,1c1.3,1.3-1.6,3.5-1,5.7
	s12.4,15.5,12.4,15.5s2.5,0.3,3.8,1.6c1.3,1.6,2.2,3.8,2.2,3.8l19.7,22.8l2.9,0.3l11.4,13.3l4.8,0.6l25.7,30.1l-0.3,2.5l17.1,20h2.5
	l4.8,5.4l2.5,0.3l5.1,6l70.7-32l41.9-65.7l-5.1-6l0.3-2.5l-4.8-5.4l0.3-2.5l-17.1-20l-2.5-0.3L261.6,206v-4.8L250.2,188l0.3-2.9
	l-19.7-22.8c0,0-1.9-1.3-3.2-2.5c-1.3-1.6-1-4.1-1-4.1s-11.4-13.6-13.6-14.6C210.9,140.8,208,143,207.1,141.7z M198.5,365l-2.2-1.9
	c0,0,15.2-15.5,55.2-49.8s58-47.3,58.4-47.3l1.6,2.2c-0.3,0-18.4,13-58,47.3C213.4,349.5,198.5,364.7,198.5,365z M192.2,357.7
	l-2.2-1.9c0,0,15.2-15.5,55.2-49.8s58-47.3,58.4-47.3l1.6,2.2c-0.3,0-18.4,13-58,47.3C207.4,342.2,192.5,357.7,192.2,357.7z
	 M173.4,335.8l-2.2-1.9c0,0,15.2-15.5,55.2-49.8s58-47.3,58.4-47.3l1.6,2.2c-0.3,0-18.4,13-58,47.3
	C188.7,320.3,173.8,335.5,173.4,335.8z M145.5,303.5c0,0,14.6-15.2,55.2-49.8s58-47.3,58-47.3l23.5,27.3c0,0-17.8,12.7-58,47.3
	S169,330.8,169,330.8L145.5,303.5z M169.6,331.4l-1-1c0,0,15.2-15.5,55.2-49.8s58-47.3,58-47.3l1,1.3c-0.3,0-18.4,13-58,47.3
	C184.9,315.9,170,331.4,169.6,331.4z M146.2,304.1l-1-1c0,0,15.2-15.5,55.2-49.8s58-47.3,58-47.3l1,1.3c-0.3,0-18.4,13-58,47.3
	C161.4,288.6,146.2,303.8,146.2,304.1z M137.9,299.7l-1-1c0,0,15.2-15.5,55.2-49.8s64.1-50.7,64.4-50.7l1,1.3
	c-0.3,0.3-24.4,16.8-64.1,50.7C153.2,284.1,138.2,299.4,137.9,299.7z M130.9,291.4l-2.2-1.9c0,0,15.2-15.5,55.2-49.8
	s64.1-52.3,64.4-52.7l1.6,2.2c-0.3,0.3-24.4,18.4-64.4,52.7C146.2,275.9,131.3,291.1,130.9,291.4z M108.1,264.5l-2.2-1.9
	c0,0,15.2-15.5,55.2-49.8s64.1-52.3,64.4-52.7l1.6,2.2c-0.3,0.3-24.4,18.4-64.4,52.7C123.3,248.9,108.1,264.2,108.1,264.5z
	 M91.9,242.9l-2.2-1.9c0,0,13-15.5,53-49.8s62.5-49.5,62.8-49.5l1.6,2.5c-0.3,0-22.5,15.2-62.5,49.2
	C104.9,227.4,92.3,242.9,91.9,242.9z M84.6,241.3l-2.2-1.9c0-0.3,15.9-19.7,55.8-53.9c40-33.9,67.6-51.7,67.9-52l1.6,2.5
	c-0.3,0.3-27.9,18.1-67.9,52C100.2,222,84.6,241.3,84.6,241.3z M97.3,257.8l-2.2-1.9c0-0.3,16.2-20.6,56.1-54.9
	c40-34.3,68.2-51.4,68.5-51.7l1.6,2.5c-0.3,0.3-28.2,17.4-68.2,51.4C113.5,237.2,97.6,257.5,97.3,257.8z M198.5,127.5
	c0,0-16.8,3.5-66,45.7l0,0l0,0l0,0l0,0c-49.2,42.2-55.2,58.4-55.2,58.4s0.3,0.6,3.5,4.1c2.9,3.5-1.6,2.5,1.6,6
	c1,1.3,1.9,1.6,3.2,1.6c1.6,0,3.2-1,4.1-1c0.3,0,0.6,0,0.6,0.3c1.3,1.3-1.6,3.5-1,5.7c0.3,2.2,12.4,15.5,12.4,15.5s2.5,0.3,3.8,1.6
	c1.3,1.6,2.2,3.8,2.2,3.8l19.7,22.8l2.9,0.3l11.4,13.3l4.8,0.6l25.7,30.1l-0.3,2.5l17.1,20h2.5l4.8,5.4l2.5,0.3l5.1,6l71.7-31.1
	l40.6-66.6l-5.1-6l0.3-2.5l-4.8-5.4l0.3-2.5l-17.1-20l-2.5-0.3L261.6,206v-4.8L250.2,188l0.3-2.9l-19.7-22.8c0,0-1.9-1.3-3.2-2.5
	c-1.3-1.6-1-4.1-1-4.1s-11.4-13.6-13.6-14.6c-0.3,0-0.6-0.3-1-0.3c-1.3,0-2.9,1-3.8,1c-0.3,0-0.6,0-1-0.3c-1-1.3,3.2-4.4,0.3-7.9
	c-1-1-1.6-1.3-1.9-1.3c-0.6,0-1,0.3-1.6,0.3s-1-0.3-1.9-1.3C199.1,128.1,198.5,127.5,198.5,127.5L198.5,127.5z M221,384
	c0,0-7.9-9.2-9.5-11.1s-5.4-2.9-8.9-2.9c0,0,18.7-18.4,55.5-49.8s57.7-47.3,57.7-47.3c-0.3,3.5,0,7.6,1.3,9.2
	c1.6,1.9,9.5,11.1,9.5,11.1L221,384z M221.1,383.9c-2.1-2.4,19.9-24.6,49-49.5c29.1-25,54.4-43.2,56.5-40.8 M282.6,239.9l18.8,22
	l-2.2,1.9l-18.8-22L282.6,239.9z M277.8,243.2l18.8,22l-2.2,1.9l-18.8-22L277.8,243.2z M273.4,246.9l18.8,22l-2.2,1.9l-18.8-22
	L273.4,246.9z M268.9,250.7l18.8,22l-2.2,1.9l-18.8-22L268.9,250.7z M264.7,254.2l18.8,22l-2.2,1.9l-18.8-22L264.7,254.2z
	 M260.5,258.2l18.8,22l-2.2,1.9l-18.8-22L260.5,258.2z M256,262l18.8,22l-2.2,1.9l-18.8-22L256,262z M251.6,265.7l18.8,22l-2.2,1.9
	l-18.8-22L251.6,265.7z M247.1,269.5l18.8,22l-2.2,1.9l-18.8-22L247.1,269.5z M242.3,272.8l18.8,22l-2.2,1.9l-18.8-22L242.3,272.8z
	 M237.5,275.8l18.8,22l-2.2,1.9l-18.8-22L237.5,275.8z M233.1,279.7l18.8,22l-2.2,1.9l-18.8-22L233.1,279.7z M228.6,283.5l18.8,22
	l-2.2,1.9l-18.8-22L228.6,283.5z M177.4,330l18.8,22l-2.2,1.9l-18.8-22L177.4,330z M181.2,325.8l18.8,22l-2.2,1.9l-18.8-22
	L181.2,325.8z M185.5,322.1l18.8,22l-2.2,1.9l-18.8-22L185.5,322.1z M190.1,318.3l18.8,22l-2.2,1.9l-18.8-22L190.1,318.3z
	 M194.4,314.5l18.8,22l-2.2,1.9l-18.8-22L194.4,314.5z M199,310.7l18.8,22l-2.2,1.9l-18.8-22L199,310.7z M203.4,307l18.8,22
	l-2.2,1.9l-18.8-22L203.4,307z M207.7,303.1l18.8,22l-2.2,1.9l-18.8-22L207.7,303.1z M211.9,299.5l18.8,22l-2.2,1.9l-18.8-22
	L211.9,299.5z M216,295.2l18.8,22l-2.2,1.9l-18.8-22L216,295.2z M220,290.8l18.8,22l-2.2,1.9l-18.8-22L220,290.8z M224.1,287.2
	l18.8,22l-2.2,1.9l-18.8-22L224.1,287.2z M228.6,283.5l18.8,22l-2.2,1.9l-18.8-22L228.6,283.5z M177.4,330l18.8,22l-2.2,1.9
	l-18.8-22L177.4,330z M181.2,325.8l18.8,22l-2.2,1.9l-18.8-22L181.2,325.8z M185.5,322.1l18.8,22l-2.2,1.9l-18.8-22L185.5,322.1z
	 M190.1,318.3l18.8,22l-2.2,1.9l-18.8-22L190.1,318.3z M194.4,314.5l18.8,22l-2.2,1.9l-18.8-22L194.4,314.5z M199,310.7l18.8,22
	l-2.2,1.9l-18.8-22L199,310.7z M203.4,307l18.8,22l-2.2,1.9l-18.8-22L203.4,307z M207.7,303.1l18.8,22l-2.2,1.9l-18.8-22
	L207.7,303.1z M211.9,299.5l18.8,22l-2.2,1.9l-18.8-22L211.9,299.5z M216,295.2l18.8,22l-2.2,1.9l-18.8-22L216,295.2z M220,290.8
	l18.8,22l-2.2,1.9l-18.8-22L220,290.8z M224.1,287.2l18.8,22l-2.2,1.9l-18.8-22L224.1,287.2z M220.2,167l22.5,26.3l-2.2,1.9
	L218,168.9L220.2,167z M224.6,163.2l22.5,26.3l-2.2,1.9l-22.5-26.3L224.6,163.2z M215.4,170.3l22.5,26.3l-2.2,1.9l-22.5-26.3
	L215.4,170.3z M210.9,174.1l22.5,26.3l-2.2,1.9l-22.5-26.3L210.9,174.1z M206.7,177.5l22.5,26.3l-2.2,1.9l-22.5-26.3L206.7,177.5z
	 M202.3,181.3l22.5,26.3l-2.2,1.9l-22.5-26.3L202.3,181.3z M197.8,185.1l22.5,26.3l-2.2,1.9L195.6,187L197.8,185.1z M193.6,189.1
	l22.5,26.3l-2.2,1.9L191.4,191L193.6,189.1z M189.1,192.7l22.5,26.3l-2.2,1.9l-22.5-26.3L189.1,192.7z M184.7,196.6l22.5,26.3
	l-2.2,1.9l-22.5-26.3L184.7,196.6z M179.9,199.9l22.5,26.3l-2.2,1.9l-22.5-26.3L179.9,199.9z M174.8,202.8l22.5,26.3l-2.2,1.9
	l-22.5-26.3L174.8,202.8z M170.5,206.6l22.5,26.3l-2.2,1.9l-22.5-26.3L170.5,206.6z M166.1,210.5l22.5,26.3l-2.2,1.9l-22.5-26.3
	L166.1,210.5z M114.9,257.2l22.5,26.3l-2.2,1.9l-22.5-26.3L114.9,257.2z M119,252.6l22.5,26.3l-2.2,1.9l-22.5-26.3L119,252.6z
	 M123.1,249l22.5,26.3l-2.2,1.9l-22.5-26.3L123.1,249z M127.6,245.4l22.5,26.3l-2.2,1.9l-22.5-26.3L127.6,245.4z M132,241.7
	l22.5,26.3l-2.2,1.9l-22.5-26.3L132,241.7z M136.4,237.8l22.5,26.3l-2.2,1.9l-22.5-26.3L136.4,237.8z M140.9,234.2l22.5,26.3
	l-2.2,1.9L138.7,236L140.9,234.2z M145.1,230.1l22.5,26.3l-2.2,1.9L142.9,232L145.1,230.1z M149.7,226.3l22.5,26.3l-2.2,1.9
	l-22.5-26.3L149.7,226.3z M153.6,222.4l22.5,26.3l-2.2,1.9l-22.5-26.3L153.6,222.4z M157.5,217.9l22.5,26.3l-2.2,1.9l-22.5-26.3
	L157.5,217.9z M162,214.2l22.5,26.3l-2.2,1.9l-22.5-26.3L162,214.2z M166.1,210.5l22.5,26.3l-2.2,1.9l-22.5-26.3L166.1,210.5z
	 M114.9,257.2l22.5,26.3l-2.2,1.9l-22.5-26.3L114.9,257.2z M110.5,261l22.5,26.3l-2.2,1.9l-22.5-26.3L110.5,261z M119,252.6
	l22.5,26.3l-2.2,1.9l-22.5-26.3L119,252.6z M123.1,249l22.5,26.3l-2.2,1.9l-22.5-26.3L123.1,249z M127.6,245.4l22.5,26.3l-2.2,1.9
	l-22.5-26.3L127.6,245.4z M132,241.7l22.5,26.3l-2.2,1.9l-22.5-26.3L132,241.7z M136.4,237.8l22.5,26.3l-2.2,1.9l-22.5-26.3
	L136.4,237.8z M140.9,234.2l22.5,26.3l-2.2,1.9L138.7,236L140.9,234.2z M145.1,230.1l22.5,26.3l-2.2,1.9L142.9,232L145.1,230.1z
	 M149.7,226.3l22.5,26.3l-2.2,1.9l-22.5-26.3L149.7,226.3z M153.6,222.4l22.5,26.3l-2.2,1.9l-22.5-26.3L153.6,222.4z M157.5,217.9
	l22.5,26.3l-2.2,1.9l-22.5-26.3L157.5,217.9z M162,214.2l22.5,26.3l-2.2,1.9l-22.5-26.3L162,214.2z M194.7,301.3
	c-1.6,0-2.9-0.6-3.8-1.9l-12.7-14.9c-1-1-1.3-2.2-1.3-3.8c0-1.3,0.6-2.5,1.9-3.5l48.5-41.5c1-0.6,2.2-1.3,3.2-1.3
	c1.6,0,2.9,0.6,3.8,1.9l12.7,14.9c1,1,1.3,2.2,1.3,3.8c0,1.3-0.6,2.5-1.9,3.5L197.9,300C196.9,300.6,196,301.3,194.7,301.3z
	 M157.9,333.3C157.6,333.3,157.6,333.3,157.9,333.3h-0.6L157,333l-17.1-17.8l0.3-1c0.3-0.3,6.3-10.5,12.4-14.3
	c2.9-1.9,4.8-2.9,6.3-2.9s2.5,1,3.2,1.6c1,1.3,13,15.2,13.6,16.2c1.3,1.6,0,4.8-0.6,6c-0.6,1.6-2.5,5.1-5.7,7.9
	C163.9,333,158.9,333.3,157.9,333.3z M216,414.2l-5.4-6.3c-1-1.3-1.3-3.5,5.4-10.1l0.3-0.3c1.9-1.9,3.8-3.8,6.3-3.8
	c1.3,0,2.5,0.6,3.8,1.9c3.2,3.8-5.1,13.6-8.9,17.8L216,414.2z M226.7,432.9l-15.2-17.8c-0.6-0.6-1.3-2.2,0-4.8
	c0.6-1.3,1.9-2.9,3.2-3.8c2.2-1.9,7.9-8.9,8.9-12.7c1.3-5.4,7.6-8.9,7.6-8.9l1.6-0.6l8.6,21.3L226.7,432.9z M271.1,510.3
	c-2.5,0-5.4-0.6-7.9-1.9c-9.2-4.8-15.5-11.1-22.5-19c-21.3-24.7-28.5-41.2-15.2-72c2.5-6-1-15.5-3.2-21.3c-1-2.9-1.6-4.1-1.6-5.1
	v-0.3l0.3-0.3c0-0.3,3.8-6.3,7-8.9l6.7-5.7c0.6-2.2,3.8-12.4,9.8-20.9c7-9.2,44.4-42.5,52.7-44.7c2.2-0.6,4.8-1,7.6-1.6
	c5.7-1,11.7-2.2,14.6-4.4c10.1-8.6,12.1-9.2,12.7-9.2c0.3,0,0.3,0,0.6,0c1.3,0,2.9,1,5.4,2.9s5.4,4.1,7.6,4.4c0,0,0.3,0,0.6,0
	c3.2,0,10.8-2.2,14.9-7c1.9-1.9,2.5-4.1,2.2-6.7c-1-7-2.9-10.1-5.1-13.6c-1.9-3.2-4.1-7-5.7-13.6c-3.5-14.3,0.6-21.3,8.2-27.6
	c1-1,1.9-1.6,2.5-2.2c3.8-3.5,4.1-3.5,7.9-5.7l1-0.6c1.9-1,8.2-4.4,18.7-4.4c24.7,0,46.3,19.3,60.3,35.8
	c10.1,12.1,17.4,20.6,21.6,25.4c1.9,2.2,2.9,3.5,3.5,4.1s1,1,1,1.3c0.3,0.3,1,1.3,1.6,1.9c4.4,5.1,7.6,12.1,9.5,19.3
	c1.6,6.7,1.9,12.7,0.3,16.2c-1.6,4.1-2.9,4.8-3.8,5.4c-0.3,0.3-0.3,0.3-0.6,0.6c-0.3,0.6-0.3,1-0.6,1.3c-0.6,1.6-1,2.9-4.4,5.4
	c-2.5,2.2-3.5,3.2-4.4,3.8c-1,1-1.3,1.3-2.9,2.5c-1.6,1.3-3.8,1.6-6.3,2.2s-5.4,1.3-7,2.5c-0.3,0.3-0.3,0.6,0,1l0,0
	c0.3,0.3,1.3,1.6,1.3,3.2s-1.3,3.5-3.2,5.1L420.3,389c-1.9,1.9-3.2,1.9-4.4,2.2c-0.6,0-0.6,0-1.3,0.3c-0.3,0.3-0.3,0.6-0.3,1.6
	c0,1.3,0,3.5-1.9,5.4l-126.7,108c-2.5,2.2-4.1,3.2-5.7,3.2c-0.6,0-1.6-0.3-1.9-0.6c-0.3,0-1,0.3-1.3,0.3
	C275.9,509.6,273.7,510.3,271.1,510.3z M270.5,481.4c0,0,2.5,7.6,5.4,11.1c2.9,3.2,11.1-2.9,13.6-5.1s12.1-11.1,9.5-14.3
	c-2.5-3.2-9.2-7.9-11.1-8.6C286,463.7,270.5,481.4,270.5,481.4z M278.1,494.7L278.1,494.7c-1.9,0-2.9-0.6-3.5-1.6
	c-2.9-3.5-5.7-11.1-5.7-11.4l-0.3-1l0.6-0.6c10.1-11.4,16.5-17.4,18.4-17.4c0.3,0,0.3,0,0.6,0c2.2,1,8.9,6,11.4,8.9
	c3.8,4.4-8.2,15.2-9.5,16.2C289.2,489.3,282.9,494.7,278.1,494.7z M272.1,481.7c0.6,1.9,2.9,7.3,4.8,9.8c0.3,0.3,0.3,0.3,1.3,0.3
	l0,0c2.5,0,7-2.9,10.1-5.7c5.4-4.8,10.1-11.1,9.2-12.1c-2.5-2.9-7.9-7-10.1-7.9C285.7,467.1,278.4,474.8,272.1,481.7z M287.3,480.5
	c2.9,2.5,5.7,2.9,6.3,2.9s1.9-2.2,1.6-4.4c-0.3-1.3-6.7-8.2-7.3-10.8c-0.6-2.5-2.2,2.2-2.2,2.2l-3.5,5.4l-3.8,2.2
	C278.8,477.9,284.5,477.9,287.3,480.5z M293.7,484.6c-0.6,0-3.8,0-7.3-3.2c-1.9-1.9-6.3-2.2-7.9-2.2h-4.8l7.6-4.8l3.2-5.1
	c1.3-3.8,2.5-3.8,2.9-3.8c0.6,0,1.6,0.3,1.9,1.9c0.3,1.3,2.5,4.1,4.1,6c2.2,2.9,2.9,3.8,3.2,4.8c0.3,1.9-0.3,3.8-1.3,5.1
	C294.9,484.3,294.3,484.6,293.7,484.6L293.7,484.6z M282.9,477c1.9,0.3,4.1,1.3,5.4,2.5c2.2,1.9,4.1,2.2,4.8,2.2
	c0.3-0.6,1-1.6,0.6-2.5c-0.3-0.3-1.6-2.2-2.5-3.8c-1.6-2.2-3.2-4.1-3.8-5.4c0,0.3,0,0.3-0.3,0.6v0.3l-3.8,5.7L282.9,477z
	 M278.8,477.9c0,0,2.5,0,4.1,0c2.2,0,5.4-0.3,6-1c1-0.6,0-8.6-0.6-8.9C287.3,467.8,278.8,477.9,278.8,477.9z M293.7,484.6
	c-0.6,0-3.8,0-7.3-3.2c-1.9-1.9-6.3-2.2-7.9-2.2h-1.6l1-8.9l0.6-0.3c1-0.6,6-4.1,8.6-4.1c1.3,0,2.2,0.6,2.5,1.6
	c0.3,1.3,2.5,4.1,4.1,6c2.2,2.9,2.9,3.8,3.2,4.8c0.3,1.9-0.3,3.8-1.3,5.1C294.9,484.3,294.3,484.6,293.7,484.6L293.7,484.6z
	 M280.3,476.7c2.2,0.3,5.7,1,8.2,2.9c2.2,1.9,4.1,2.2,4.8,2.2c0.3-0.6,1-1.6,0.6-2.5c-0.3-0.3-1.6-2.2-2.5-3.8
	c-2.2-2.9-3.8-5.1-4.4-6.7c-1.3,0.3-3.8,1.6-6,3.2L280.3,476.7z M266.7,431.3c13.1,0,23.8,10.7,23.8,23.8s-10.7,23.8-23.8,23.8
	s-23.8-10.7-23.8-23.8S253.6,431.3,266.7,431.3z M266.7,480.5c-7.3,0-14.3-3.2-19.3-8.9c-9.2-10.5-7.9-26.6,2.9-35.5
	c4.4-3.8,10.5-6,16.5-6c7.3,0,14.3,3.2,19.3,8.9c9.2,10.5,7.9,26.6-2.9,35.5C278.4,478.2,272.7,480.5,266.7,480.5z M266.7,432.6
	c-5.4,0-10.5,1.9-14.6,5.4c-9.5,7.9-10.5,22.2-2.5,31.7c4.1,5.1,10.5,7.9,17.1,7.9c5.4,0,10.5-1.9,14.6-5.4
	c9.5-7.9,10.5-22.2,2.5-31.7C279.4,435.4,273,432.6,266.7,432.6z M251.2,442.4c-9.2,7.9-10.1,21.9-2.5,31.1
	c7.6,9.2,21.9,10.1,31.1,2.5c9.2-7.9,10.1-21.9,2.5-31.1C274,435.4,260.4,434.5,251.2,442.4z M270.8,465.6c-3.5,2.9-8.9,2.5-11.7-1
	c-2.9-3.5-2.5-8.9,1-11.7s8.9-2.5,11.7,1C274.6,457.3,274.3,462.7,270.8,465.6z M265.4,482.4L265.4,482.4c-7,0-13.3-2.9-17.8-8.2
	c-4.1-4.8-6-10.8-5.7-17.1c0.6-6.3,3.5-11.7,8.2-15.9c4.1-3.5,9.5-5.7,15.2-5.7c7,0,13.3,2.9,17.8,8.2c8.2,9.8,7.3,24.7-2.5,33
	C276.2,480.5,270.8,482.4,265.4,482.4z M265.4,438.6c-4.8,0-9.5,1.9-13.3,5.1c-4.1,3.5-6.7,8.6-7,14s1.3,10.8,4.8,14.9
	c3.8,4.4,9.5,7.3,15.5,7.3c4.8,0,9.5-1.9,13.3-5.1c8.6-7.3,9.5-20.3,2.2-28.9C276.8,441.1,271.1,438.6,265.4,438.6z M265.4,469
	c-2.9,0-5.7-1.3-7.3-3.5c-1.6-1.9-2.5-4.4-2.2-7c0.3-2.5,1.3-5.1,3.5-6.7c1.9-1.6,4.1-2.2,6.3-2.2c2.9,0,5.7,1.3,7.3,3.5
	c3.5,4.1,3.2,10.1-1,13.6C270.2,468.1,267.6,469,265.4,469z M265.4,452.2c-1.6,0-3.2,0.6-4.4,1.6c-1.3,1.3-2.2,2.9-2.2,4.8
	s0.3,3.5,1.6,5.1c1.3,1.6,3.2,2.5,5.1,2.5c1.6,0,3.2-0.6,4.4-1.6c2.9-2.5,3.2-6.7,0.6-9.5C269.2,453.2,267.3,452.2,265.4,452.2z
	 M335.5,441.5c-3.8,0-12.1-3.8-14.6-7l-23.8-27.9c-0.6-1-1-1.9-1-3.2c0.3-4.4,6.7-10.1,14.9-17.1c0.6-0.6,1.3-1,1.9-1.6
	c10.1-8.9,17.4-13.3,21.3-13.3c1.6,0,2.2,0.6,2.9,1.3l24.1,27.9c1.9,2.2,7,14.3,3.2,17.8c-2.5,2.2-24.4,20.9-26.3,22.5
	C337.1,441.1,336.5,441.5,335.5,441.5z M333,379.6l-27.3,23.5c-1,0.6-1,1.9-0.3,2.9l22.2,25.7c0.6,1,1.9,1,2.9,0.3l8.2-7l-9.2-10.8
	c-1.9-0.3-3.5-1.3-4.8-2.9c-3.2-3.5-2.5-9.2,1-12.4c3.5-3.2,9.2-2.5,12.4,1c1.3,1.6,2.2,3.5,2.2,5.7l8.9,10.5l8.9-7.6
	c1-0.6,1-1.9,0.3-2.9l-22.2-25.7C334.9,379,333.6,379,333,379.6z M324.1,397.4c-1,1-2.5,0.6-3.5-0.3c-1-1-0.6-2.5,0.3-3.5
	c1-1,2.5-0.6,3.5,0.3C325.1,395.1,325.1,396.4,324.1,397.4z M328.2,402.4c-1.9,1.6-1.9,4.4-0.3,6c1.6,1.9,4.4,1.9,6,0.3
	c1.9-1.6,1.9-4.4,0.3-6C332.7,401.2,330.1,400.9,328.2,402.4z M306.7,399.9l-3.8,3.2c-1,0.6-1,1.9-0.3,2.9l20,23.5
	c0.6,1,1.9,1,2.9,0.3l3.8-3.2c1-0.6,1-1.9,0.3-2.9l-20-23.5C308.9,399.3,307.6,399.3,306.7,399.9z M333.6,377.1l-3.8,3.2
	c-1,0.6-1,1.9-0.3,2.9l20,23.5c0.6,1,1.9,1,2.9,0.3l3.8-3.2c1-0.6,1-1.9,0.3-2.9l-20-23.5C335.8,376.4,334.6,376.4,333.6,377.1z
	 M468.7,313c0.6,1,0.6,2.2-0.3,2.9L393.5,380c-1,0.6-2.2,0.6-2.9-0.3l-28.5-33.3c-0.6-1-0.6-2.2,0.3-2.9l74.9-64.1
	c1-0.6,2.2-0.6,2.9,0.3L468.7,313z M464.6,312.7c0.6,1,0.6,2.2-0.3,2.9l-70.4,60.3c-1,0.6-2.2,0.6-2.9-0.3l-24.7-28.9
	c-0.6-1-0.6-2.2,0.3-2.9l70.4-60.3c1-0.6,2.2-0.6,2.9,0.3L464.6,312.7z M316.2,465.6c0,0,1.3,10.5,6.3,16.5c5.1,6,9.5,6.3,12.4,3.8
	c3.2-2.5,13.3-20,33.3-37.1s37.7-23.8,40.9-26.6c3.2-2.9,1.9-9.8-1-13.3s-15.5-8.9-15.5-8.9s-6.3,5.4-8.9,7.6c-1.3,1-1,6.7-1,6.7
	L331,458.7c0,0-4.8-1.6-6-0.6C323.5,459.2,316.2,465.6,316.2,465.6z M331.1,488.7L331.1,488.7c-3.2,0-6.3-1.9-9.5-5.7
	c-5.4-6.3-6.7-16.8-6.7-17.4V465l9.5-8.2c0.6-0.6,1.6-1,2.5-1c1.6,0,3.2,0.3,4.1,0.6l50.7-43.5c0-2.9,0.3-6,1.6-7
	c2.5-2.2,8.9-7.6,8.9-7.6l0.6-0.6l1,0.3c1.3,0.6,13,5.7,15.9,9.2c3.5,4.1,4.8,12.1,1,15.5c-1,1-3.2,1.9-6.3,3.5
	c-7.6,4.1-20.6,10.8-34.9,22.8s-23.8,24.7-28.9,31.4c-2.2,2.9-3.5,4.8-4.4,5.7C334.3,488.1,332.7,488.7,331.1,488.7z M370.1,325
	L370.1,325c-1.9,0-4.1-1-5.4-2.5c-2.5-2.9-2.2-7.3,0.6-9.8c1.3-1,2.9-1.6,4.4-1.6c1.9,0,4.1,1,5.4,2.5c1.3,1.6,1.9,3.2,1.6,5.1
	c0,1.9-1,3.5-2.5,4.8C373.6,324.4,372,325,370.1,325z M386.6,310.8L386.6,310.8c-1.9,0-4.1-1-5.4-2.5c-1.3-1.6-1.9-3.2-1.6-5.1
	c0-1.9,1-3.5,2.5-4.8c1.3-1,2.9-1.6,4.4-1.6c1.9,0,4.1,1,5.4,2.5c2.5,2.9,2.2,7.3-0.6,9.8C390.1,310.5,388.5,310.8,386.6,310.8z
	 M403.1,296.8L403.1,296.8c-2.2,0-4.1-1-5.4-2.5c-2.5-2.9-2.2-7.3,0.6-9.8c1.3-1,2.9-1.6,4.4-1.6c1.9,0,4.1,1,5.4,2.5
	c2.5,2.9,2.2,7.3-0.6,9.8C406.6,296.2,404.7,296.8,403.1,296.8z M420.5,282.5L420.5,282.5c-1.6,0-3.2-0.6-4.4-1.9
	c-1-1.3-1.6-2.5-1.3-4.1c0-1.6,1-2.9,1.9-3.8c1-1,2.5-1.3,3.8-1.3c1.6,0,3.2,0.6,4.4,1.9c1,1.3,1.6,2.5,1.3,4.1c0,1.6-1,2.9-1.9,3.8
	C423.1,282.2,421.8,282.5,420.5,282.5z M401.5,276.2L401.5,276.2c-4.1,0-8.2-2.2-11.4-5.7c-2.5-2.9-3.8-6.3-4.1-9.5
	c-0.3-3.5,1-6.7,3.2-8.6c1.6-1.6,3.8-2.2,6.3-2.2c4.1,0,8.2,2.2,11.4,5.7c5.1,6,5.4,14,0.6,18.1C406.3,275.6,404,276.2,401.5,276.2z
	 M374.2,270.8L374.2,270.8c-2.2,0-4.1-1-5.4-2.5c-1.3-1.6-1.9-3.2-1.6-5.1c0-1.9,1-3.5,2.5-4.8c1.3-1,2.9-1.6,4.4-1.6
	c1.9,0,4.1,1,5.4,2.5c1.3,1.6,1.9,3.2,1.6,5.1c0,1.9-1,3.5-2.5,4.8C377.7,270.2,376.1,270.8,374.2,270.8z M373,252.1L373,252.1
	c-2.9,0-5.7-1.3-7.6-3.5c-1.6-1.9-3.2-5.4,2.9-10.8c1.9-1.6,5.7-2.9,9.2-2.9c2.2,0,5.1,0.3,6.7,2.5c1.6,1.9,2.2,3.8,1.6,5.7
	c-0.3,1.6-1.6,3.2-3.8,5.1C381.5,249.2,377.7,252.1,373,252.1z M455.4,268.9c-2.5-2.9-4.1-3.2-5.1-2.2l-4.8,4.1
	c-2.5,2.2-3.2,5.7-1,8.6c0,0,17.8,20.6,20.3,23.8c2.5,2.9,4.4,2.9,7,1.6c2.9-1,5.1-4.4,4.4-7.9C475.7,293.3,458,272.1,455.4,268.9z
	 M406.3,251.1L385,269.5c-1,0.6-1,1.9-0.3,2.9l2.9,3.2c0.6,1,1.9,1,2.9,0.3l21.3-18.4c1-0.6,1-1.9,0.3-2.9l-2.9-3.2
	C408.5,250.5,407.2,250.5,406.3,251.1z M227.7,419.2l-2.9-1c0,0,4.8-13.3,7.3-27.9s3.2-17.4,3.2-17.4l2.9,1c0,0-1,2.9-3.2,17.1
	C232.4,405.9,227.7,419.2,227.7,419.2z M315.2,308.6l-0.6-2.9c0.6,0,15.5-2.5,20.9-3.2c5.1-0.6,14.6-1.9,14.9-1.9l0.3,2.9
	c0,0-9.8,1.3-14.9,1.9C330.8,306,315.2,308.6,315.2,308.6z M368.8,246.4c-0.3,0-0.6-0.3-0.6-0.6c-0.3-1.3,0.3-2.5,1-3.5
	c1.6-1.9,4.8-3.2,8.6-3.5c0.3,0,0.6,0.3,0.6,0.6s-0.3,0.6-0.6,0.6c-3.5,0.3-6,1.6-7.6,3.2c-0.6,0.6-1,1.6-0.6,2.5
	C369.5,245.8,369.1,246.4,368.8,246.4L368.8,246.4z"/>
</svg>
