<?xml version="1.0" encoding="utf-8"?>
<!-- Generator: Adobe Illustrator 19.2.1, SVG Export Plug-In . SVG Version: 6.00 Build 0)  -->
<svg version="1.1" id="pattern" xmlns="http://www.w3.org/2000/svg" xmlns:xlink="http://www.w3.org/1999/xlink" x="0px" y="0px"
	 viewBox="0 0 200 800" style="enable-background:new 0 0 200 800;" xml:space="preserve">
<style type="text/css">
	.st0{fill:none;}
	.st1{fill:#FFFFFF;}
	.st2{fill:none;stroke:#515151;stroke-width:2;stroke-linecap:square;stroke-miterlimit:10;}
	.st3{fill:url(#SVGID_2_);}
</style>
<pattern  y="800" width="57.4" height="63.9" patternUnits="userSpaceOnUse" id="SVGID_1_" viewBox="0 -129.1 57.4 63.9" style="overflow:visible;">
	<g>
		<rect x="0" y="-129.1" class="st0" width="57.4" height="63.9"/>
		<g>
			<rect x="0" y="-129.1" class="st0" width="57.4" height="63.9"/>
			<g>
				<rect x="0" y="-66.2" class="st1" width="57.3" height="64.8"/>
				<path class="st2" d="M35.6-65.2c-8.8,8.8-8.9,23.2,0.1,32l0,0c9,8.8,8.7,23-0.1,31.8"/>
				<path class="st2" d="M49.6-65.2c-8.8,8.8-8.9,23.2,0.1,32l0,0c9,8.8,8.7,23-0.1,31.8"/>
				<path class="st2" d="M7.6-65.2c-8.8,8.8-8.9,23.2,0.1,32l0,0c9,8.8,8.7,23-0.1,31.8"/>
				<path class="st2" d="M21.6-65.2c-8.8,8.8-8.9,23.2,0.1,32l0,0c9,8.8,8.7,23-0.1,31.8"/>
			</g>
			<g>
				<rect x="0" y="-130.1" class="st1" width="57.3" height="64.8"/>
				<path class="st2" d="M35.6-129.1c-8.8,8.8-8.9,23.2,0.1,32l0,0c9,8.8,8.7,23-0.1,31.8"/>
				<path class="st2" d="M49.6-129.1c-8.8,8.8-8.9,23.2,0.1,32l0,0c9,8.8,8.7,23-0.1,31.8"/>
				<path class="st2" d="M7.6-129.1c-8.8,8.8-8.9,23.2,0.1,32l0,0c9,8.8,8.7,23-0.1,31.8"/>
				<path class="st2" d="M21.6-129.1c-8.8,8.8-8.9,23.2,0.1,32l0,0c9,8.8,8.7,23-0.1,31.8"/>
			</g>
			<g>
				<path class="st2" d="M35.6-193c-8.8,8.8-8.9,23.2,0.1,32l0,0c9,8.8,8.7,23-0.1,31.8"/>
				<path class="st2" d="M49.6-193c-8.8,8.8-8.9,23.2,0.1,32l0,0c9,8.8,8.7,23-0.1,31.8"/>
				<path class="st2" d="M7.6-193c-8.8,8.8-8.9,23.2,0.1,32l0,0c9,8.8,8.7,23-0.1,31.8"/>
				<path class="st2" d="M21.6-193c-8.8,8.8-8.9,23.2,0.1,32l0,0c9,8.8,8.7,23-0.1,31.8"/>
			</g>
		</g>
	</g>
</pattern>
<g>
	<g>
		<pattern  id="SVGID_2_" xlink:href="#SVGID_1_" patternTransform="matrix(1 0 0 -1 -294.0709 -16725.627)">
		</pattern>
		<rect class="st3" width="200" height="800"/>
	</g>
</g>
</svg>
