<?xml version="1.0" encoding="utf-8"?>
<!-- Generator: Adobe Illustrator 19.2.1, SVG Export Plug-In . SVG Version: 6.00 Build 0)  -->
<svg version="1.1" id="pattern" xmlns="http://www.w3.org/2000/svg" xmlns:xlink="http://www.w3.org/1999/xlink" x="0px" y="0px"
	 viewBox="0 0 200 800" style="enable-background:new 0 0 200 800;" xml:space="preserve">
<style type="text/css">
	.st0{fill:none;}
	.st1{fill:#FFFFFF;}
	.st2{fill:#515151;}
	.st3{fill:url(#SVGID_2_);}
</style>
<pattern  y="800" width="69" height="69" patternUnits="userSpaceOnUse" id="SVGID_1_" viewBox="0 -69 69 69" style="overflow:visible;">
	<g>
		<rect y="-69" class="st0" width="69" height="69"/>
		<g>
			<rect y="-69" class="st0" width="69" height="69"/>
			<polygon class="st1" points="69,-56.6 56.6,-69 67.6,-69 69,-67.6 			"/>
			<polygon class="st1" points="69,-15.2 15.2,-69 26.2,-69 69,-26.2 			"/>
			<polygon class="st1" points="69,-1.4 1.4,-69 12.4,-69 69,-12.4 			"/>
			<polygon class="st1" points="56.6,0 0,-56.6 0,-67.6 67.6,0 			"/>
			<polygon class="st1" points="15.2,0 0,-15.2 0,-26.2 26.2,0 			"/>
			<polygon class="st1" points="1.4,0 0,-1.4 0,-12.4 12.4,0 			"/>
			<polygon class="st1" points="42.8,0 0,-42.8 0,-53.8 53.8,0 			"/>
			<polygon class="st1" points="29,0 0,-29 0,-40 40,0 			"/>
			<polygon class="st1" points="69,-29 29,-69 40,-69 69,-40 			"/>
			<polygon class="st1" points="69,-42.8 42.8,-69 53.8,-69 69,-53.8 			"/>
			<polygon class="st2" points="12.4,0 0,-12.4 0,-15.2 15.2,0 			"/>
			<polygon class="st2" points="69,-53.8 53.8,-69 56.6,-69 69,-56.6 			"/>
			<polygon class="st2" points="69,-40 40,-69 42.8,-69 69,-42.8 			"/>
			<polygon class="st2" points="69,-26.2 26.2,-69 29,-69 69,-29 			"/>
			<polygon class="st2" points="69,-12.4 12.4,-69 15.2,-69 69,-15.2 			"/>
			<polygon class="st2" points="69,0 67.6,0 0,-67.6 0,-69 1.4,-69 69,-1.4 			"/>
			<polygon class="st2" points="53.8,0 0,-53.8 0,-56.6 56.6,0 			"/>
			<polygon class="st2" points="40,0 0,-40 0,-42.8 42.8,0 			"/>
			<polygon class="st2" points="26.2,0 0,-26.2 0,-29 29,0 			"/>
			<polygon class="st2" points="69,-67.6 67.6,-69 69,-69 			"/>
			<polygon class="st2" points="0,0 0,-1.4 1.4,0 			"/>
		</g>
	</g>
</pattern>
<g>
	
		<image style="overflow:visible;opacity:0.3;enable-background:new    ;" width="260" height="860" xlink:href="C1011B6A017A9BC8.png"  transform="matrix(1 0 0 1 -20 -30)">
	</image>
	<g>
		<pattern  id="SVGID_2_" xlink:href="#SVGID_1_" patternTransform="matrix(1 0 0 -1 -463 -16556)">
		</pattern>
		<rect class="st3" width="200" height="800"/>
	</g>
</g>
</svg>
