<?xml version="1.0" encoding="utf-8"?>
<!-- Generator: Adobe Illustrator 19.2.1, SVG Export Plug-In . SVG Version: 6.00 Build 0)  -->
<svg version="1.1" id="pattern" xmlns="http://www.w3.org/2000/svg" xmlns:xlink="http://www.w3.org/1999/xlink" x="0px" y="0px"
	 viewBox="0 0 200 800" style="enable-background:new 0 0 200 800;" xml:space="preserve">
<style type="text/css">
	.st0{fill:none;}
	.st1{fill:#FFFFFF;}
	.st2{fill:none;stroke:#515151;stroke-width:2;stroke-linecap:round;stroke-linejoin:round;stroke-miterlimit:10;}
	.st3{fill:url(#SVGID_2_);}
</style>
<pattern  y="800" width="132" height="79.3" patternUnits="userSpaceOnUse" id="SVGID_1_" viewBox="34 -158.8 132 79.3" style="overflow:visible;">
	<g>
		<rect x="34" y="-158.8" class="st0" width="132" height="79.3"/>
		<g>
			<rect x="34" y="-158.8" class="st0" width="132" height="79.3"/>
			<g>
				<rect x="34" y="-238.2" class="st1" width="132" height="79.5"/>
			</g>
			<g>
				<polygon class="st2" points="199,-118.8 199,-98.7 166,-80.5 166,-100.5 				"/>
				<polygon class="st2" points="199,-157.8 199,-137.7 166,-119.5 166,-139.5 				"/>
			</g>
			<g>
				<rect x="34" y="-158.9" class="st1" width="132" height="79.5"/>
				<polygon class="st2" points="67,-118.8 67,-98.7 100,-80.5 100,-100.5 				"/>
				<polygon class="st2" points="67,-118.8 67,-98.7 34,-80.5 34,-100.5 				"/>
				<polygon class="st2" points="133,-118.8 133,-98.7 166,-80.5 166,-100.5 				"/>
				<polygon class="st2" points="133,-118.8 133,-98.7 100,-80.5 100,-100.5 				"/>
				<polygon class="st2" points="67,-157.8 67,-137.7 100,-119.5 100,-139.5 				"/>
				<polygon class="st2" points="67,-157.8 67,-137.7 34,-119.5 34,-139.5 				"/>
				<polygon class="st2" points="133,-157.8 133,-137.7 166,-119.5 166,-139.5 				"/>
				<polygon class="st2" points="133,-157.8 133,-137.7 100,-119.5 100,-139.5 				"/>
			</g>
			<g>
				<polygon class="st2" points="1,-118.8 1,-98.7 34,-80.5 34,-100.5 				"/>
				<polygon class="st2" points="1,-157.8 1,-137.7 34,-119.5 34,-139.5 				"/>
			</g>
			<g>
				<rect x="34" y="-79.5" class="st1" width="132" height="79.5"/>
			</g>
		</g>
	</g>
</pattern>
<g>
	
		<image style="overflow:visible;opacity:0.3;enable-background:new    ;" width="260" height="860" xlink:href="C111F1837597445A.png"  transform="matrix(1 0 0 1 -20 -30)">
	</image>
	<g>
		<pattern  id="SVGID_2_" xlink:href="#SVGID_1_" patternTransform="matrix(1 0 0 -1 -887 -16860.2988)">
		</pattern>
		<rect class="st3" width="200" height="800"/>
	</g>
</g>
</svg>
