<?xml version="1.0" encoding="utf-8"?>
<!-- Generator: Adobe Illustrator 19.2.1, SVG Export Plug-In . SVG Version: 6.00 Build 0)  -->
<svg version="1.1" id="Layer_1" xmlns="http://www.w3.org/2000/svg" xmlns:xlink="http://www.w3.org/1999/xlink" x="0px" y="0px"
	 viewBox="0 0 1280 800" style="enable-background:new 0 0 1280 800;" xml:space="preserve">
<style type="text/css">
	.st0{fill:#EEEFEF;}
</style>
<g>
	<path class="st0" d="M-4.3-1.9v22.4c188.5-48.8,408.3-76.8,643-76.8c235.7,0,456.4,28.2,645.5,77.5V-1.5
		C1088.9-42.6,870-65.6,638.9-65.6C408.7-65.6,190.6-42.7-4.3-1.9z"/>
	<path class="st0" d="M-4.3,45.1v29.4C160.5,2.5,387.7-42,638.4-42c252.3,0,480.7,45,645.8,117.8V46.1
		c-179.8-59.4-403.4-94.6-645.7-94.6C397.6-48.5,175.1-13.7-4.3,45.1z"/>
	<path class="st0" d="M1284.3,801.7V641.3c-165.1,72.8-393.5,117.8-645.8,117.8c-250.8,0-477.9-44.5-642.7-116.5v160
		c179.3,58.8,401.8,93.7,642.9,93.7C880.9,896.3,1104.5,861.1,1284.3,801.7z"/>
	<path class="st0" d="M-4.3,114.6v85.1C55.6,67.9,320.5-31.5,638.3-31.5c324.3,0,593.6,103.5,646,239.5v-91.2
		c-138.2-92.2-375.9-153-645.9-153C370.5-36.3,134.4,23.6-4.3,114.6z"/>
	<path class="st0" d="M1284.3,489.8v-185c-52.4,135.9-321.6,239.5-646,239.5C320.5,544.2,55.6,444.9-4.3,313v179
		c138.7,91,374.7,150.9,642.6,150.9C908.4,642.8,1146.1,582,1284.3,489.8z"/>
	<path class="st0" d="M1193.7,216.6c0-134.8-248.7-244-555.5-244S82.7,81.8,82.7,216.6s248.7,244,555.5,244
		S1193.7,351.4,1193.7,216.6z M167.2,182.9C167.2,68.6,378-24,638.1-24s471,92.6,471,206.9s-210.9,206.9-471,206.9
		S167.2,297.1,167.2,182.9z"/>
	<path class="st0" d="M638.1-21.1c-220.5,0-399.3,78.5-399.3,175.4s178.8,175.4,399.3,175.4s399.3-78.5,399.3-175.4
		S858.6-21.1,638.1-21.1z M638,278.8c-186.9,0-338.5-66.6-338.5-148.7S451.1-18.6,638-18.6S976.5,48,976.5,130.1
		S825,278.8,638,278.8z"/>
	<path class="st0" d="M638-16.5c-158.5,0-287,56.4-287,126.1c0,69.6,128.5,126.1,287,126.1s287-56.4,287-126.1S796.5-16.5,638-16.5z
		 M638,199c-134.4,0-243.3-47.9-243.3-106.9S503.6-14.8,638-14.8S881.2,33.1,881.2,92.1S772.3,199,638,199z"/>
	<path class="st0" d="M637.9-13.3c-113.9,0-206.2,40.6-206.2,90.6s92.3,90.6,206.2,90.6s206.2-40.6,206.2-90.6
		C844.2,27.3,751.8-13.3,637.9-13.3z M637.9,141.6c-96.6,0-174.9-34.4-174.9-76.8S541.3-12,637.9-12s174.9,34.4,174.9,76.8
		C812.8,107.2,734.5,141.6,637.9,141.6z"/>
	<path class="st0" d="M637.9-10.9c-81.9,0-148.2,29.2-148.2,65.1s66.4,65.1,148.2,65.1s148.2-29.2,148.2-65.1S719.8-10.9,637.9-10.9
		z M637.9,100.4c-69.4,0-125.7-24.7-125.7-55.2S568.5-10,637.9-10s125.7,24.7,125.7,55.2C763.5,75.7,707.3,100.4,637.9,100.4z"/>
	<path class="st0" d="M637.9-9.2c-58.8,0-106.5,21-106.5,46.8S579,84.4,637.9,84.4s106.5-21,106.5-46.8S696.7-9.2,637.9-9.2z
		 M637.8,70.8c-49.9,0-90.3-17.8-90.3-39.7s40.4-39.7,90.3-39.7c49.9,0,90.3,17.8,90.3,39.7C728.2,53,687.7,70.8,637.8,70.8z"/>
	<path class="st0" d="M637.8-8c-42.3,0-76.5,15-76.5,33.6s34.3,33.6,76.6,33.6s76.6-15.1,76.6-33.6S680.1-8,637.8-8z M637.8,49.5
		c-35.9,0-64.9-12.8-64.9-28.5c0-15.8,29.1-28.5,64.9-28.5c35.9,0,64.9,12.8,64.9,28.5S673.7,49.5,637.8,49.5z"/>
	<path class="st0" d="M637.8-7.1c-30.4,0-55,10.8-55,24.2s24.6,24.2,55,24.2s55-10.8,55-24.2C692.9,3.7,668.2-7.1,637.8-7.1z
		 M637.8,34.2c-25.8,0-46.7-9.2-46.7-20.5S612-6.8,637.8-6.8s46.7,9.2,46.7,20.5S663.6,34.2,637.8,34.2z"/>
	<path class="st0" d="M637.8-6.5c-21.8,0-39.6,7.8-39.6,17.4s17.7,17.4,39.6,17.4c21.8,0,39.6-7.8,39.6-17.4S659.7-6.5,637.8-6.5z
		 M637.8,23.2c-18.5,0-33.5-6.6-33.5-14.7s15-14.7,33.5-14.7s33.5,6.6,33.5,14.7S656.3,23.2,637.8,23.2z"/>
	<path class="st0" d="M637.8-6.1c-15.7,0-28.4,5.6-28.4,12.5s12.7,12.5,28.4,12.5s28.4-5.6,28.4-12.5S653.5-6.1,637.8-6.1z
		 M637.8,15.3c-13.3,0-24.1-4.7-24.1-10.6s10.8-10.6,24.1-10.6s24.1,4.7,24.1,10.6S651.1,15.3,637.8,15.3z"/>
	<path class="st0" d="M637.8-5.7c-11.3,0-20.4,4-20.4,9s9.1,9,20.4,9c11.3,0,20.4-4,20.4-9S649.1-5.7,637.8-5.7z M637.8,9.6
		c-9.6,0-17.3-3.4-17.3-7.6s7.8-7.6,17.3-7.6c9.6,0,17.3,3.4,17.3,7.6S647.4,9.6,637.8,9.6z"/>
	<path class="st0" d="M637.8-5.5c-8.1,0-14.7,2.9-14.7,6.5s6.6,6.5,14.7,6.5c8.1,0,14.7-2.9,14.7-6.5S645.9-5.5,637.8-5.5z
		 M637.8,5.5c-6.9,0-12.5-2.4-12.5-5.5s5.6-5.5,12.5-5.5s12.5,2.4,12.5,5.5S644.7,5.5,637.8,5.5z"/>
</g>
</svg>
