<?xml version="1.0" encoding="utf-8"?>
<!-- Generated by IcoMoon.io -->
<!DOCTYPE svg PUBLIC "-//W3C//DTD SVG 1.1//EN" "http://www.w3.org/Graphics/SVG/1.1/DTD/svg11.dtd">
<svg version="1.1" xmlns="http://www.w3.org/2000/svg" xmlns:xlink="http://www.w3.org/1999/xlink" width="32" height="32" viewBox="0 0 32 32">
<path d="M15.52 1.28c-7.744 0-14.032 6.288-14.032 14.032s6.288 14.032 14.032 14.032 14.032-6.272 14.032-14.032c0-7.744-6.288-14.032-14.032-14.032zM12.736 25.456c-0.048 0.144-0.176 0.224-0.32 0.224-0.032 0-0.064 0-0.096-0.016-3.344-1.024-5.984-3.616-7.104-6.944-0.064-0.176 0.032-0.352 0.208-0.416s0.352 0.032 0.416 0.208c1.040 3.12 3.536 5.552 6.672 6.528 0.192 0.064 0.288 0.256 0.224 0.416zM13.52 22.944c-0.048 0.144-0.176 0.224-0.32 0.224-0.032 0-0.064 0-0.096-0.016-2.528-0.784-4.544-2.736-5.376-5.264-0.064-0.176 0.032-0.352 0.208-0.416s0.352 0.032 0.416 0.208c0.768 2.32 2.624 4.128 4.944 4.832 0.176 0.080 0.272 0.256 0.224 0.432zM15.52 19.696c-2.416 0-4.384-1.968-4.384-4.384s1.968-4.384 4.384-4.384c2.416 0 4.384 1.968 4.384 4.384s-1.968 4.384-4.384 4.384zM23.104 13.12c-0.032 0.016-0.064 0.016-0.096 0.016-0.144 0-0.272-0.080-0.32-0.224-0.768-2.304-2.624-4.112-4.944-4.832-0.176-0.048-0.272-0.24-0.224-0.416s0.24-0.272 0.416-0.224c2.528 0.784 4.544 2.736 5.376 5.264 0.064 0.176-0.032 0.368-0.208 0.416zM25.6 12.304c-0.032 0.016-0.064 0.016-0.112 0.016-0.144 0-0.272-0.080-0.32-0.224-1.040-3.12-3.536-5.552-6.672-6.528-0.176-0.048-0.272-0.24-0.224-0.416s0.24-0.272 0.416-0.224c3.344 1.024 5.984 3.616 7.104 6.944 0.080 0.176-0.016 0.368-0.192 0.432zM15.52 11.808c-1.936 0-3.504 1.568-3.504 3.504s1.568 3.504 3.504 3.504 3.504-1.568 3.504-3.504-1.568-3.504-3.504-3.504zM15.52 16.624c-0.72 0-1.312-0.592-1.312-1.312s0.592-1.312 1.312-1.312c0.72 0 1.312 0.592 1.312 1.312s-0.592 1.312-1.312 1.312z"></path>
</svg>
