<?xml version="1.0" standalone="no"?>
<!DOCTYPE svg PUBLIC "-//W3C//DTD SVG 1.1//EN" "http://www.w3.org/Graphics/SVG/1.1/DTD/svg11.dtd" >
<svg xmlns="http://www.w3.org/2000/svg">
<metadata>
<json>
<![CDATA[
{
	"fontFamily": "CasaIcons",
	"fontURL": "http://rwr.casadereyes.net",
	"description": "Casa Icons\nFont generated by IcoMoon.",
	"majorVersion": 1,
	"minorVersion": 3,
	"version": "Version 1.3",
	"fontId": "CasaIcons",
	"psName": "CasaIcons",
	"subFamily": "Regular",
	"fullName": "CasaIcons"
}
]]>
</json>
</metadata>
<defs>
<font id="CasaIcons" horiz-adv-x="1024">
<font-face units-per-em="1024" ascent="960" descent="-64" />
<missing-glyph horiz-adv-x="1024" />
<glyph unicode="&#x20;" horiz-adv-x="512" d="" />
<glyph unicode="&#xe600;" glyph-name="menu" data-tags="menu" d="M237.68 259.44c0 9.12-8 17.12-17.12 17.12h-34.32c-9.12 0-17.12-8-17.12-17.12v-34.32c0-9.12 8-17.12 17.12-17.12h34.32c9.12 0 17.12 8 17.12 17.12v34.32zM237.68 396.56c0 9.12-8 17.12-17.12 17.12h-34.32c-9.12 0-17.12-8-17.12-17.12v-34.32c0-9.12 8-17.12 17.12-17.12h34.32c9.12 0 17.12 8 17.12 17.12v34.32zM237.68 533.68c0 9.12-8 17.12-17.12 17.12h-34.32c-9.12 0-17.12-8-17.12-17.12v-34.32c0-9.12 8-17.12 17.12-17.12h34.32c9.12 0 17.12 8 17.12 17.12v34.32zM854.88 259.44c0 9.12-8 17.12-17.12 17.12h-514.32c-9.12 0-17.12-8-17.12-17.12v-34.32c0-9.12 8-17.12 17.12-17.12h514.32c9.12 0 17.12 8 17.12 17.12v34.32zM854.88 396.56c0 9.12-8 17.12-17.12 17.12h-514.32c-9.12 0-17.12-8-17.12-17.12v-34.32c0-9.12 8-17.12 17.12-17.12h514.32c9.12 0 17.12 8 17.12 17.12v34.32zM854.88 533.68c0 9.12-8 17.12-17.12 17.12h-514.32c-9.12 0-17.12-8-17.12-17.12v-34.32c0-9.12 8-17.12 17.12-17.12h514.32c9.12 0 17.12 8 17.12 17.12v34.32zM923.44 156.56c0-9.12-8-17.12-17.12-17.12h-788.64c-9.12 0-17.12 8-17.12 17.12v445.76c0 9.12 8 17.12 17.12 17.12h788.56c9.12 0 17.12-8 17.12-17.12v-445.76zM992 739.44c0 47.12-38.56 85.68-85.68 85.68h-788.64c-47.12 0-85.68-38.56-85.68-85.68v-582.88c0-47.12 38.56-85.68 85.68-85.68h788.56c47.12 0 85.68 38.56 85.68 85.68v582.88z" />
<glyph unicode="&#xe601;" glyph-name="list" data-tags="list" d="M169.12 190.88c0 9.12-8 17.12-17.12 17.12h-102.88c-9.12 0-17.12-8-17.12-17.12v-102.88c0-9.12 8-17.12 17.12-17.12h102.88c9.12 0 17.12 8 17.12 17.12v102.88zM169.12 396.56c0 9.12-8 17.12-17.12 17.12h-102.88c-9.12 0-17.12-8-17.12-17.12v-102.88c0-9.12 8-17.12 17.12-17.12h102.88c9.12 0 17.12 8 17.12 17.12v102.88zM169.12 602.32c0 9.12-8 17.12-17.12 17.12h-102.88c-9.12 0-17.12-8-17.12-17.12v-102.88c0-9.12 8-17.12 17.12-17.12h102.88c9.12 0 17.12 8 17.12 17.12v102.88zM992 190.88c0 9.12-8 17.12-17.12 17.12h-720c-9.12 0-17.12-8-17.12-17.12v-102.88c0-9.12 8-17.12 17.12-17.12h720c9.12 0 17.12 8 17.12 17.12v102.88zM169.12 808c0 9.12-8 17.12-17.12 17.12h-102.88c-9.12 0-17.12-8-17.12-17.12v-102.88c0-9.12 8-17.12 17.12-17.12h102.88c9.12 0 17.12 8 17.12 17.12v102.88zM992 396.56c0 9.12-8 17.12-17.12 17.12h-720c-9.12 0-17.12-8-17.12-17.12v-102.88c0-9.12 8-17.12 17.12-17.12h720c9.12 0 17.12 8 17.12 17.12v102.88zM992 602.32c0 9.12-8 17.12-17.12 17.12h-720c-9.12 0-17.12-8-17.12-17.12v-102.88c0-9.12 8-17.12 17.12-17.12h720c9.12 0 17.12 8 17.12 17.12v102.88zM992 808c0 9.12-8 17.12-17.12 17.12h-720c-9.12 0-17.12-8-17.12-17.12v-102.88c0-9.12 8-17.12 17.12-17.12h720c9.12 0 17.12 8 17.12 17.12v102.88z" />
<glyph unicode="&#xe602;" glyph-name="justify" data-tags="justify" d="M992 173.68c0 18.72-15.52 34.32-34.32 34.32h-891.36c-18.8 0-34.32-15.52-34.32-34.32v-68.56c0-18.72 15.52-34.32 34.32-34.32h891.44c18.72 0 34.32 15.52 34.32 34.32v68.56zM992 379.44c0 18.72-15.52 34.32-34.32 34.32h-891.36c-18.72 0-34.32-15.52-34.32-34.32v-68.56c0-18.72 15.52-34.32 34.32-34.32h891.44c18.72 0 34.32 15.52 34.32 34.32v68.56zM992 585.12c0 18.72-15.52 34.32-34.32 34.32h-891.36c-18.72 0-34.32-15.52-34.32-34.32v-68.56c0-18.72 15.52-34.32 34.32-34.32h891.44c18.72 0 34.32 15.52 34.32 34.32v68.56zM992 790.88c0 18.72-15.52 34.32-34.32 34.32h-891.36c-18.8-0.080-34.32-15.6-34.32-34.32v-68.56c0-18.72 15.52-34.32 34.32-34.32h891.44c18.72 0 34.32 15.52 34.32 34.32v68.56z" />
<glyph unicode="&#xe603;" glyph-name="jleft" data-tags="jleft" d="M992 173.68c0 18.72-15.52 34.32-34.32 34.32h-891.36c-18.8 0-34.32-15.52-34.32-34.32v-68.56c0-18.72 15.52-34.32 34.32-34.32h891.44c18.72 0 34.32 15.52 34.32 34.32v68.56zM786.32 379.44c0 18.72-15.52 34.32-34.32 34.32h-685.68c-18.72 0-34.32-15.52-34.32-34.32v-68.56c0-18.72 15.52-34.32 34.32-34.32h685.68c18.72 0 34.32 15.52 34.32 34.32v68.56zM923.44 585.12c0 18.72-15.52 34.32-34.32 34.32h-822.8c-18.72 0-34.32-15.52-34.32-34.32v-68.56c0-18.72 15.52-34.32 34.32-34.32h822.88c18.72 0 34.32 15.52 34.32 34.32v68.56zM717.68 790.88c0 18.72-15.52 34.32-34.32 34.32h-617.040c-18.8-0.080-34.32-15.6-34.32-34.32v-68.56c0-18.72 15.52-34.32 34.32-34.32h617.12c18.72 0 34.32 15.52 34.32 34.32v68.56z" />
<glyph unicode="&#xe604;" glyph-name="jcenter" data-tags="jcenter" d="M992 173.68c0 18.72-15.52 34.32-34.32 34.32h-891.36c-18.8 0-34.32-15.52-34.32-34.32v-68.56c0-18.72 15.52-34.32 34.32-34.32h891.44c18.72 0 34.32 15.52 34.32 34.32v68.56zM786.32 379.44c0 18.72-15.52 34.32-34.32 34.32h-480c-18.72 0-34.32-15.52-34.32-34.32v-68.56c0-18.72 15.52-34.32 34.32-34.32h480c18.72 0 34.32 15.52 34.32 34.32v68.56zM923.44 585.12c0 18.72-15.52 34.32-34.32 34.32h-754.24c-18.72 0-34.32-15.52-34.32-34.32v-68.56c0-18.72 15.52-34.32 34.32-34.32h754.32c18.72 0 34.32 15.52 34.32 34.32v68.56zM717.68 790.88c0 18.72-15.52 34.32-34.32 34.32h-342.8c-18.72 0-34.32-15.52-34.32-34.32v-68.56c0-18.72 15.52-34.32 34.32-34.32h342.88c18.72 0 34.32 15.52 34.32 34.32v68.56z" />
<glyph unicode="&#xe605;" glyph-name="jright" data-tags="jright" d="M992 173.68c0 18.72-15.52 34.32-34.32 34.32h-891.36c-18.8 0-34.32-15.52-34.32-34.32v-68.56c0-18.72 15.52-34.32 34.32-34.32h891.44c18.72 0 34.32 15.52 34.32 34.32v68.56zM992 379.44c0 18.72-15.52 34.32-34.32 34.32h-685.68c-18.72 0-34.32-15.52-34.32-34.32v-68.56c0-18.72 15.52-34.32 34.32-34.32h685.68c18.72 0 34.32 15.52 34.32 34.32v68.56zM992 585.12c0 18.72-15.52 34.32-34.32 34.32h-822.8c-18.72 0-34.32-15.52-34.32-34.32v-68.56c0-18.72 15.52-34.32 34.32-34.32h822.88c18.72 0 34.32 15.52 34.32 34.32v68.56zM992 790.88c0 18.72-15.52 34.32-34.32 34.32h-617.12c-18.72 0-34.32-15.52-34.32-34.32v-68.56c0-18.72 15.52-34.32 34.32-34.32h617.12c18.72 0 34.32 15.52 34.32 34.32v68.56z" />
<glyph unicode="&#xe606;" glyph-name="tlist" data-tags="tlist" d="M306.32 225.12c0 28.4-23.040 51.44-51.44 51.44h-171.44c-28.4 0-51.44-23.040-51.44-51.44v-102.88c0-28.4 23.040-51.44 51.44-51.44h171.44c28.4 0 51.44 23.040 51.44 51.44v102.88zM306.32 499.44c0 28.4-23.040 51.44-51.44 51.44h-171.44c-28.4 0-51.44-23.040-51.44-51.44v-102.88c0-28.4 23.040-51.44 51.44-51.44h171.44c28.4 0 51.44 23.040 51.44 51.44v102.88zM992 225.12c0 28.4-23.040 51.44-51.44 51.44h-514.24c-28.4 0-51.44-23.040-51.44-51.44v-102.88c0-28.4 23.040-51.44 51.44-51.44h514.32c28.4 0 51.44 23.040 51.44 51.44v102.88zM306.32 773.68c0 28.4-23.040 51.44-51.44 51.44h-171.44c-28.4 0-51.44-23.040-51.44-51.44v-102.88c0-28.4 23.040-51.44 51.44-51.44h171.44c28.4 0 51.44 23.040 51.44 51.44v102.88zM992 499.44c0 28.4-23.040 51.44-51.44 51.44h-514.24c-28.4 0-51.44-23.040-51.44-51.44v-102.88c0-28.4 23.040-51.44 51.44-51.44h514.32c28.4 0 51.44 23.040 51.44 51.44v102.88zM992 773.68c0 28.4-23.040 51.44-51.44 51.44h-514.24c-28.4 0-51.44-23.040-51.44-51.44v-102.88c0-28.4 23.040-51.44 51.44-51.44h514.32c28.4 0 51.44 23.040 51.44 51.44v102.88z" />
<glyph unicode="&#xe607;" glyph-name="table" data-tags="table" d="M306.32 225.12c0 28.4-23.040 51.44-51.44 51.44h-171.44c-28.4 0-51.44-23.040-51.44-51.44v-102.88c0-28.4 23.040-51.44 51.44-51.44h171.44c28.4 0 51.44 23.040 51.44 51.44v102.88zM306.32 499.44c0 28.4-23.040 51.44-51.44 51.44h-171.44c-28.4 0-51.44-23.040-51.44-51.44v-102.88c0-28.4 23.040-51.44 51.44-51.44h171.44c28.4 0 51.44 23.040 51.44 51.44v102.88zM649.12 225.12c0 28.4-23.040 51.44-51.44 51.44h-171.36c-28.4 0-51.44-23.040-51.44-51.44v-102.88c0-28.4 23.040-51.44 51.44-51.44h171.44c28.4 0 51.44 23.040 51.44 51.44v102.88zM306.32 773.68c0 28.4-23.040 51.44-51.44 51.44h-171.44c-28.4 0-51.44-23.040-51.44-51.44v-102.88c0-28.4 23.040-51.44 51.44-51.44h171.44c28.4 0 51.44 23.040 51.44 51.44v102.88zM649.12 499.44c0 28.4-23.040 51.44-51.44 51.44h-171.36c-28.4 0-51.44-23.040-51.44-51.44v-102.88c0-28.4 23.040-51.44 51.44-51.44h171.44c28.4 0 51.44 23.040 51.44 51.44v102.88zM992 225.12c0 28.4-23.040 51.44-51.44 51.44h-171.44c-28.4 0-51.44-23.040-51.44-51.44v-102.88c0-28.4 23.040-51.44 51.44-51.44h171.44c28.4 0 51.44 23.040 51.44 51.44v102.88zM649.12 773.68c0 28.4-23.040 51.44-51.44 51.44h-171.36c-28.4 0-51.44-23.040-51.44-51.44v-102.88c0-28.4 23.040-51.44 51.44-51.44h171.44c28.4 0 51.44 23.040 51.44 51.44v102.88zM992 499.44c0 28.4-23.040 51.44-51.44 51.44h-171.44c-28.4 0-51.44-23.040-51.44-51.44v-102.88c0-28.4 23.040-51.44 51.44-51.44h171.44c28.4 0 51.44 23.040 51.44 51.44v102.88zM992 773.68c0 28.4-23.040 51.44-51.44 51.44h-171.44c-28.4 0-51.44-23.040-51.44-51.44v-102.88c0-28.4 23.040-51.44 51.44-51.44h171.44c28.4 0 51.44 23.040 51.44 51.44v102.88z" />
<glyph unicode="&#xe608;" glyph-name="tablelrg" data-tags="tablelrg" d="M475.040 337.2c0 40.4-33.44 73.84-73.84 73.84h-295.36c-40.4 0-73.84-33.44-73.84-73.84v-221.52c0-40.4 33.44-73.84 73.84-73.84h295.36c40.4 0 73.84 33.44 73.84 73.84v221.52zM475.040 780.32c0 40.4-33.44 73.84-73.84 73.84h-295.36c-40.4 0-73.84-33.44-73.84-73.84v-221.52c0-40.4 33.44-73.84 73.84-73.84h295.36c40.4 0 73.84 33.44 73.84 73.84v221.52zM992 337.2c0 40.4-33.44 73.84-73.84 73.84h-295.36c-40.4 0-73.84-33.44-73.84-73.84v-221.52c0-40.4 33.44-73.84 73.84-73.84h295.36c40.4 0 73.84 33.44 73.84 73.84v221.52zM992 780.32c0 40.4-33.44 73.84-73.84 73.84h-295.36c-40.4 0-73.84-33.44-73.84-73.84v-221.52c0-40.4 33.44-73.84 73.84-73.84h295.36c40.4 0 73.84 33.44 73.84 73.84v221.52z" />
<glyph unicode="&#xe609;" glyph-name="fastback" data-tags="fastback" d="M967.84 852.4l-380.32-380.32c-3.2-3.2-5.36-6.4-6.96-10.16v380.32c0 18.72-10.72 23.6-24.080 10.16l-380.32-380.32c-3.2-3.2-5.36-6.4-6.96-10.16v363.12c0 18.72-15.52 34.24-34.24 34.24h-68.56c-18.72 0-34.24-15.52-34.24-34.24v-754.16c0-18.72 15.52-34.24 34.24-34.24h68.56c18.72 0 34.24 15.52 34.24 34.24v363.2c1.6-3.76 3.76-6.96 6.96-10.16l380.32-380.32c13.36-13.36 24.080-8.56 24.080 10.16v380.32c1.6-3.76 3.76-6.96 6.96-10.16l380.32-380.32c13.36-13.36 24.080-8.56 24.080 10.16v788.48c0 18.72-10.72 23.52-24.080 10.16z" />
<glyph unicode="&#xe60a;" glyph-name="stepback" data-tags="stepback" d="M762.16 852.4l-380.32-380.32c-3.2-3.2-5.36-6.4-6.96-10.16v363.12c0 18.72-15.52 34.24-34.24 34.24h-68.56c-18.72 0-34.24-15.52-34.24-34.24v-754.16c0-18.72 15.52-34.24 34.24-34.24h68.56c18.72 0 34.24 15.52 34.24 34.24v363.2c1.6-3.76 3.76-6.96 6.96-10.16l380.32-380.32c13.36-13.36 24.080-8.56 24.080 10.16v788.48c0 18.72-10.72 23.52-24.080 10.16z" />
<glyph unicode="&#xe60b;" glyph-name="rewind" data-tags="rewind" d="M899.92 851.52l-379.44-379.44c-3.2-3.2-5.36-6.4-6.96-10.16v379.44c0 18.72-10.72 23.52-24.080 10.16l-379.44-379.44c-13.36-13.36-13.36-34.72 0-48.080l379.44-379.44c13.36-13.36 24.080-8.56 24.080 10.16v379.36c1.6-3.76 3.76-6.96 6.96-10.16l379.44-379.44c13.36-13.36 24.080-8.56 24.080 10.16v786.72c0 18.72-10.72 23.52-24.080 10.16z" />
<glyph unicode="&#xe60c;" glyph-name="play" data-tags="play" d="M873.2 431.52c16.48 9.040 16.48 23.92 0 32.88l-705.040 391.84c-16.48 9.040-29.76 1.040-29.76-17.52v-781.52c0-18.56 13.28-26.56 29.76-17.52l705.040 391.84z" />
<glyph unicode="&#xe60d;" glyph-name="foward" data-tags="foward" d="M123.2 43.6l380.32 380.32c3.2 3.2 5.36 6.4 6.96 10.16v-380.32c0-18.72 10.72-23.6 24.080-10.16l380.32 380.32c13.36 13.36 13.36 34.8 0 48.24l-380.32 380.24c-13.36 13.36-24.080 8.56-24.080-10.16v-380.32c-1.6 3.76-3.76 6.96-6.96 10.16l-380.32 380.32c-13.36 13.36-24.080 8.56-24.080-10.16v-788.4c0-18.8 10.72-23.6 24.080-10.24z" />
<glyph unicode="&#xe60e;" glyph-name="stepfoward" data-tags="stepfoward" d="M261.84 43.6l380.32 380.32c3.2 3.2 5.36 6.4 6.96 10.16v-363.12c0-18.72 15.52-34.24 34.24-34.24h68.56c18.72 0 34.24 15.52 34.24 34.24v754.080c0 18.72-15.52 34.24-34.24 34.24h-68.56c-18.72 0-34.24-15.52-34.24-34.24v-363.12c-1.6 3.76-3.76 6.96-6.96 10.16l-380.32 380.32c-13.36 13.36-24.080 8.56-24.080-10.16v-788.4c0-18.8 10.72-23.6 24.080-10.24z" />
<glyph unicode="&#xe60f;" glyph-name="fastfoward" data-tags="fastfoward" d="M56.16 43.6l380.32 380.32c3.2 3.2 5.36 6.4 6.96 10.16v-380.32c0-18.72 10.72-23.6 24.080-10.16l380.32 380.32c3.2 3.2 5.36 6.4 6.96 10.16v-363.12c0-18.72 15.52-34.24 34.24-34.24h68.56c18.72 0 34.24 15.52 34.24 34.24v754.080c0 18.72-15.52 34.24-34.24 34.24h-68.56c-18.72 0-34.24-15.52-34.24-34.24v-363.12c-1.6 3.76-3.76 6.96-6.96 10.16l-380.32 380.32c-13.36 13.36-24.080 8.56-24.080-10.16v-380.32c-1.6 3.76-3.76 6.96-6.96 10.16l-380.32 380.32c-13.36 13.36-24.080 8.56-24.080-10.16v-788.4c0-18.8 10.72-23.6 24.080-10.24z" />
<glyph unicode="&#xe610;" glyph-name="stop" data-tags="stop" d="M924 825.68c0 18.8-15.52 34.32-34.32 34.32h-755.36c-18.8 0-34.32-15.52-34.32-34.32v-755.36c0-18.8 15.52-34.32 34.32-34.32h755.36c18.8 0 34.32 15.52 34.32 34.32v755.36z" />
<glyph unicode="&#xe611;" glyph-name="eject" data-tags="eject" d="M107.6 402c-13.36-13.36-8.56-24.080 10.16-24.080h788.4c18.72 0 23.6 10.72 10.16 24.080l-380.24 380.32c-13.36 13.36-34.8 13.36-48.24 0l-380.24-380.32zM889.040 103.68c18.72 0 34.24 15.52 34.24 34.24v137.12c0 18.72-15.52 34.24-34.24 34.24h-754.080c-18.72 0-34.24-15.52-34.24-34.24v-137.12c0-18.72 15.52-34.24 34.24-34.24h754.080z" />
<glyph unicode="&#xe612;" glyph-name="expand" data-tags="expand" d="M503.84 348c0 4.96-2.48 10.64-6.24 14.4l-71.2 71.2c-3.76 3.76-9.36 6.24-14.4 6.24s-10.64-2.48-14.4-6.24l-207.44-207.44-90 90c-7.52 7.52-17.52 11.84-28.16 11.84-21.84 0-40-18.16-40-40v-280c0-21.84 18.16-40 40-40h280c21.84 0 40 18.16 40 40 0 10.64-4.4 20.64-11.84 28.16l-90 90 207.44 207.44c3.76 3.76 6.24 9.44 6.24 14.4zM992 888c0 21.84-18.16 40-40 40h-280c-21.84 0-40-18.16-40-40 0-10.64 4.4-20.64 11.84-28.16l90-90-207.44-207.44c-3.76-3.76-6.24-9.36-6.24-14.4s2.48-10.64 6.24-14.4l71.2-71.2c3.76-3.76 9.36-6.24 14.4-6.24s10.64 2.48 14.4 6.24l207.52 207.52 90-90c7.52-7.52 17.52-11.84 28.16-11.84 21.84 0 40 18.16 40 40v279.92z" />
<glyph unicode="&#xe613;" glyph-name="move" data-tags="move" d="M981.84 472.080l-137.12 137.12c-6.4 6.4-15.040 10.16-24.080 10.16-18.72 0-34.32-15.52-34.32-34.32v-68.56h-205.76v205.84h68.56c18.72 0 34.32 15.52 34.32 34.32 0 9.12-3.76 17.68-10.16 24.080l-137.2 137.12c-6.4 6.4-15.040 10.16-24.080 10.16-9.12 0-17.68-3.76-24.080-10.16l-137.2-137.2c-6.4-6.4-10.16-15.040-10.16-24.080 0-18.72 15.52-34.32 34.32-34.32h68.56v-205.68h-205.76v68.56c0 18.72-15.52 34.32-34.32 34.32-9.12 0-17.68-3.76-24.080-10.16l-137.12-137.2c-6.4-6.4-10.16-15.040-10.16-24.080 0-9.12 3.76-17.68 10.16-24.080l137.12-137.12c6.4-6.4 15.040-10.16 24.080-10.16 18.72 0 34.32 15.52 34.32 34.32v68.56h205.68v-205.68h-68.56c-18.72 0-34.32-15.52-34.32-34.32 0-9.12 3.76-17.68 10.16-24.080l137.12-137.12c6.4-6.4 15.040-10.16 24.080-10.16 9.12 0 17.68 3.76 24.080 10.16l137.12 137.12c6.4 6.4 10.16 15.040 10.16 24.080 0 18.72-15.52 34.32-34.32 34.32h-68.56v205.6h205.68v-68.56c0-18.72 15.52-34.32 34.32-34.32 9.12 0 17.68 3.76 24.080 10.16l137.12 137.12c6.4 6.4 10.16 15.040 10.16 24.080 0.32 9.2-3.44 17.76-9.84 24.16z" />
<glyph unicode="&#xe614;" glyph-name="chevup" data-tags="chevup" d="M538.8 745.28c-14.88 14.88-38.72 14.88-53.6 0l-442-442c-14.88-14.88-14.88-38.72 0-53.6l98.88-98.88c14.88-14.88 38.72-14.88 53.6 0l316.32 316.24 316.32-316.32c14.88-14.88 38.72-14.88 53.6 0l98.88 98.88c14.88 14.88 14.88 38.72 0 53.6l-442 442.080z" />
<glyph unicode="&#xe615;" glyph-name="chevright" data-tags="chevright" d="M809.28 421.2c14.88 14.88 14.88 38.72 0 53.6l-442 442c-14.88 14.88-38.72 14.88-53.6 0l-98.96-98.88c-14.88-14.88-14.88-38.72 0-53.6l316.32-316.32-316.32-316.32c-14.88-14.88-14.88-38.72 0-53.6l98.88-98.88c14.88-14.88 38.72-14.88 53.6 0l442.080 442z" />
<glyph unicode="&#xe616;" glyph-name="chevdown" data-tags="chevdown" d="M485.2 150.72c14.88-14.88 38.72-14.88 53.6 0l442 442c14.88 14.88 14.88 38.72 0 53.6l-98.88 98.88c-14.88 14.88-38.72 14.88-53.6 0l-316.32-316.24-316.32 316.32c-14.88 14.88-38.72 14.88-53.6 0l-98.88-98.88c-14.88-14.88-14.88-38.72 0-53.6l442-442.080z" />
<glyph unicode="&#xe617;" glyph-name="chevleft" data-tags="chevleft" d="M214.72 474.8c-14.88-14.88-14.88-38.72 0-53.6l442-442c14.88-14.88 38.72-14.88 53.6 0l98.88 98.88c14.88 14.88 14.88 38.72 0 53.6l-316.24 316.32 316.32 316.32c14.88 14.88 14.88 38.72 0 53.6l-98.88 98.88c-14.88 14.88-38.72 14.88-53.6 0l-442.080-442z" />
<glyph unicode="&#xe618;" glyph-name="cirlecup" data-tags="cirlecup" d="M730.72 460.48c3.12 7.52 1.28 15.6-4.4 21.84l-199.92 200.080c-4.4 3.76-9.36 5.6-14.4 5.6s-10-1.84-14.4-5.6l-199.36-199.36c-3.76-4.4-6.24-9.36-6.24-15.040 0-11.28 8.72-20 20-20v0h120v-220c0-11.28 8.72-20 20-20h120c11.28 0 20 8.72 20 20v220h120c8.16 0 15.6 4.96 18.72 12.48zM512 788c187.52 0 340-152.48 340-340s-152.48-340-340-340-340 152.48-340 340 152.48 340 340 340zM992 448c0 264.96-215.040 480-480 480v0c-264.96 0-480-215.040-480-480s215.040-480 480-480 480 215.040 480 480z" />
<glyph unicode="&#xe619;" glyph-name="circleright" data-tags="circleright" d="M752 448c0 4.96-1.84 10.64-5.6 14.4l-199.36 199.36c-4.4 3.76-9.36 6.24-15.040 6.24-11.28 0-20-8.72-20-20v-120h-220c-10.64 0-20-9.36-20-20v-120c0-10.64 9.36-20 20-20h220v-120c0-10.64 9.36-20 20-20 4.96 0 10.64 1.84 14.4 5.6l200 200c3.76 3.76 5.6 9.44 5.6 14.4zM852 448c0-187.52-152.48-340-340-340s-340 152.48-340 340 152.48 340 340 340 340-152.48 340-340zM992 448c0 264.96-215.040 480-480 480s-480-215.040-480-480 215.040-480 480-480 480 215.040 480 480z" />
<glyph unicode="&#xe61a;" glyph-name="circledown" data-tags="circledown" d="M732 428c0 11.28-8.72 20-20 20v0h-120v220c0 11.28-8.72 20-20 20h-120c-11.28 0-20-8.72-20-20v-220h-120c-8.16 0-15.6-4.96-18.72-12.48s-1.28-15.68 4.32-21.92l200-200c4.4-3.76 9.36-5.6 14.4-5.6s10 1.84 14.4 5.6l199.36 199.36c3.76 4.4 6.24 9.44 6.24 15.040zM512 788c187.52 0 340-152.48 340-340s-152.48-340-340-340-340 152.48-340 340 152.48 340 340 340zM992 448c0 264.96-215.040 480-480 480v0c-264.96 0-480-215.040-480-480s215.040-480 480-480 480 215.040 480 480z" />
<glyph unicode="&#xe61b;" glyph-name="circleleft" data-tags="circleleft" d="M499.52 666.72c-7.52 3.12-15.6 1.28-21.84-4.4l-200.080-199.92c-3.76-4.4-5.6-9.36-5.6-14.4s1.84-10 5.6-14.4l199.36-199.36c4.4-3.76 9.36-6.24 15.040-6.24 11.28 0 20 8.72 20 20v0 120h220c11.28 0 20 8.72 20 20v120c0 11.28-8.72 20-20 20h-220v120c0 8.16-4.96 15.6-12.48 18.72zM172 448c0 187.52 152.48 340 340 340s340-152.48 340-340-152.48-340-340-340-340 152.48-340 340zM512 928c-264.96 0-480-215.040-480-480v0c0-264.96 215.040-480 480-480s480 215.040 480 480-215.040 480-480 480z" />
<glyph unicode="&#xe61c;" glyph-name="circlex" data-tags="circlex" d="M927.68 693.92c-89.44 144.96-241.68 234.4-414.48 234.4-180 0-333.52-89.44-420.48-234.4-80.96-151.040-80.96-339.52 0-484.56 86.96-148.64 240.48-241.68 420.48-241.68 172.8 0 325.040 93.040 414.48 241.68 85.76 144.96 85.76 333.52 0 484.56zM805.6 277.040c-62.8-99.12-170.4-169.2-292.4-169.2-123.28 0-234.4 70.080-299.68 169.2-56.8 103.92-56.8 234.4 0 341.92 65.28 106.32 176.4 170.4 299.68 170.4 122 0 229.6-64.080 292.4-170.4 59.2-107.52 59.2-238 0-341.92zM713.76 361.6l-84.56 89.44 84.56 84.56c7.28 7.28 7.28 21.76 0 30.24l-89.36 85.76c-10.88 10.88-22.96 10.88-31.44 0l-79.76-80.96-86.96 80.96c-8.48 10.88-19.36 10.88-26.56 0l-94.32-85.76c-7.28-8.48-7.28-22.96 0-30.24l89.44-84.56-89.44-89.44c-7.28-7.28-7.28-19.36 0-26.56l94.24-94.24c7.28-7.28 18.16-7.28 26.56 0l86.96 88.24 79.84-88.24c8.48-7.28 20.56-7.28 31.44 0l89.44 94.24c7.2 7.2 7.2 19.28-0.080 26.56z" />
<glyph unicode="&#xe61d;" glyph-name="circlecheck" data-tags="circlecheck" d="M763.84 499.84c15.6 15.6 15.6 40.64 0 56.24l-63.76 63.76c-15.6 15.6-40.64 15.6-56.24 0l-171.84-171.84-91.84 91.84c-15.6 15.6-40.64 15.6-56.24 0l-63.76-63.76c-15.6-15.6-15.6-40.64 0-56.24l183.76-183.76c15.6-15.6 40.64-15.6 56.24 0l263.68 263.76zM852 448c0-187.52-152.48-340-340-340s-340 152.48-340 340 152.48 340 340 340 340-152.48 340-340zM992 448c0 264.96-215.040 480-480 480s-480-215.040-480-480 215.040-480 480-480 480 215.040 480 480z" />
<glyph unicode="&#xe61e;" glyph-name="ban" data-tags="ban" d="M956.24 635.040c-51.36 118.56-138.16 206.64-256.72 256.72-121.040 53.84-254.32 53.84-375.36 0-121.040-50.080-210.24-138.16-255.52-256.72-48.88-121.040-48.88-256.72 0-376.56 45.2-122.24 134.48-201.68 255.52-257.92 121.040-48.88 254.32-48.88 375.28 0 118.56 56.24 205.36 135.68 256.72 257.92 47.76 119.84 47.76 255.52 0.080 376.56zM171.36 449.2c0 59.92 14.64 119.84 42.8 168.72 64.8 107.6 168.72 171.12 292.16 171.12 73.36 0 135.68-18.32 193.2-55.040l-476.8-475.6c-34.24 62.48-51.36 119.92-51.36 190.8zM750.88 207.12c-58.72-67.2-147.92-101.44-244.48-101.44-61.12 0-127.12 15.92-180.96 58.72l474.32 465.76c35.44-52.56 51.36-117.36 51.36-180.96 0-94.080-35.44-185.84-100.24-242.080z" />
<glyph unicode="&#xe61f;" glyph-name="circledot" data-tags="circledot" d="M672 448c0 88.16-71.84 160-160 160s-160-71.84-160-160 71.84-160 160-160 160 71.84 160 160zM512 788c187.52 0 340-152.48 340-340s-152.48-340-340-340-340 152.48-340 340 152.48 340 340 340zM992 448c0 264.96-215.040 480-480 480v0c-264.96 0-480-215.040-480-480s215.040-480 480-480 480 215.040 480 480z" />
<glyph unicode="&#xe620;" glyph-name="circleplay" data-tags="circleplay" d="M772 448c0 14.4-7.52 27.52-20 34.4l-340 200c-11.84 7.52-27.52 7.52-40 0.64-12.48-7.52-20-20.64-20-35.040v-400c0-14.4 7.52-27.52 20-35.040 6.24-3.12 13.12-4.96 20-4.96s13.76 1.84 20 5.6l340 200c12.48 6.88 20 20 20 34.4zM852 448c0-187.52-152.48-340-340-340s-340 152.48-340 340 152.48 340 340 340 340-152.48 340-340zM992 448c0 264.96-215.040 480-480 480s-480-215.040-480-480 215.040-480 480-480 480 215.040 480 480z" />
<glyph unicode="&#xe621;" glyph-name="compass" data-tags="compass" d="M422.4 328l160 80-160 80v-160zM662.4 697.36v-338.72l-320-160v338.72l320 160zM796.8 618.64c-30.4 52.080-71.68 93.36-123.76 123.76s-108.96 45.6-170.64 45.6-118.56-15.2-170.64-45.6c-52.080-30.4-93.36-71.68-123.76-123.76s-45.6-108.96-45.6-170.64c0-61.68 15.2-118.56 45.6-170.64s71.68-93.36 123.76-123.76c52.080-30.4 108.96-45.6 170.64-45.6s118.56 15.2 170.64 45.6c52.080 30.4 93.36 71.68 123.76 123.76s45.6 108.96 45.6 170.64c0 61.68-15.2 118.56-45.6 170.64v0zM918 207.040c-42.88-73.52-101.12-131.76-174.72-174.72-73.52-42.88-153.84-64.4-240.96-64.4s-167.36 21.44-240.96 64.4c-73.52 42.88-131.76 101.12-174.72 174.72s-64.24 153.84-64.24 240.96 21.44 167.36 64.4 240.96c42.88 73.52 101.12 131.76 174.72 174.72 73.52 42.88 153.76 64.32 240.88 64.32s167.36-21.44 240.96-64.4c73.52-42.88 131.76-101.12 174.72-174.72 42.88-73.52 64.4-153.84 64.4-240.96s-21.52-167.28-64.48-240.88v0z" />
<glyph unicode="&#xe622;" glyph-name="zoomin" data-tags="zoomin" d="M622.8 540.32c0 9.84-8.64 18.48-18.48 18.48h-129.28v129.2c0 9.84-8.64 18.48-18.48 18.48h-36.96c-9.84 0-18.48-8.64-18.48-18.48v-129.2h-129.12c-9.84 0-18.48-8.64-18.48-18.48v-36.96c0-9.84 8.64-18.48 18.48-18.48h129.2v-129.2c0-9.84 8.64-18.48 18.48-18.48h36.96c9.84 0 18.48 8.64 18.48 18.48v129.28h129.2c9.84 0 18.48 8.64 18.48 18.48v36.88zM696.64 521.84c0-142.48-116-258.48-258.48-258.48s-258.48 116-258.48 258.48 116 258.48 258.48 258.48 258.48-116 258.48-258.48zM992 41.84c0 19.6-8.080 38.64-21.36 51.92l-197.84 197.92c46.72 67.52 71.52 148.24 71.52 230.16 0 224.4-181.76 406.16-406.16 406.16s-406.16-181.76-406.16-406.16 181.76-406.16 406.16-406.16c81.92 0 162.72 24.8 230.16 71.52l197.92-197.28c13.28-13.84 32.32-21.92 51.92-21.92 40.96 0 73.84 32.88 73.84 73.84z" />
<glyph unicode="&#xe623;" glyph-name="zoomout" data-tags="zoomout" d="M622.8 540.32c0 9.84-8.64 18.48-18.48 18.48h-332.32c-9.84 0-18.48-8.64-18.48-18.48v-36.96c0-9.84 8.64-18.48 18.48-18.48h332.32c9.84 0 18.48 8.64 18.48 18.48v36.96zM696.64 521.84c0-142.48-116-258.48-258.48-258.48s-258.48 116-258.48 258.48 116 258.48 258.48 258.48 258.48-116 258.48-258.48zM992 41.84c0 19.6-8.080 38.64-21.36 51.92l-197.84 197.92c46.72 67.52 71.52 148.24 71.52 230.16 0 224.4-181.76 406.16-406.16 406.16s-406.16-181.76-406.16-406.16 181.76-406.16 406.16-406.16c81.92 0 162.72 24.8 230.16 71.52l197.92-197.28c13.28-13.84 32.32-21.92 51.92-21.92 40.96 0 73.84 32.88 73.84 73.84z" />
<glyph unicode="&#xe624;" glyph-name="ex" data-tags="ex" d="M879.2 224.24c0 15.44-6.16 30.88-17.28 42l-181.76 181.76 181.76 181.76c11.12 11.12 17.28 26.56 17.28 42s-6.16 30.88-17.28 42l-84.080 84.16c-11.12 11.12-26.64 17.28-42.080 17.28s-30.88-6.16-42-17.28l-181.76-181.76-181.76 181.76c-11.12 11.12-26.56 17.28-42 17.28s-30.88-6.16-42-17.28l-84.16-84.080c-11.12-11.12-17.28-26.64-17.28-42.080s6.16-30.88 17.28-42l181.76-181.76-181.76-181.76c-11.12-11.12-17.28-26.56-17.28-42s6.16-30.88 17.28-42l84.080-84.080c11.12-11.12 26.56-17.28 42-17.28s30.88 6.16 42 17.28l181.84 181.68 181.76-181.76c11.12-11.12 26.56-17.28 42-17.28s30.88 6.16 42 17.28l84.080 84.080c11.2 11.12 17.36 26.64 17.36 42.080z" />
<glyph unicode="&#xe625;" glyph-name="check" data-tags="check" d="M991.12 671.76c0 15.44-6.16 30.88-17.28 42l-84.080 84.080c-11.12 11.12-26.56 17.28-42 17.28s-30.88-6.16-42-17.28l-405.68-406.080-181.68 182.32c-11.12 11.12-26.56 17.28-42 17.28s-30.88-6.16-42-17.28l-84.16-84.080c-11.12-11.12-17.28-26.56-17.28-42s6.16-30.88 17.28-42l307.84-307.84c11.12-11.12 26.56-17.28 42-17.28s30.88 6.16 42 17.28l531.68 531.68c11.12 11.040 17.36 26.48 17.36 41.92z" />
<glyph unicode="&#xe626;" glyph-name="sync" data-tags="sync" d="M976.4 348c0 10.64-8.72 20-20 20h-120c-9.36 0-15.6-5.6-18.72-14.4-10.64-24.96-18.16-48.72-33.12-73.12-58.16-94.96-161.28-152.48-272.56-152.48-80.64 0-158.72 31.28-217.52 86.24l85.6 85.6c7.52 7.52 11.84 17.52 11.84 28.16 0 21.84-18.16 40-40 40h-279.92c-21.84 0-40-18.16-40-40v-280c0-21.84 18.16-40 40-40 10.64 0 20.64 4.4 28.16 11.84l80.64 80.64c88.72-84.32 206.8-132.48 328.72-132.48 230.64 0 413.12 154.4 466.24 375.6 0.64 1.28 0.64 3.12 0.64 4.4zM992 848c0 21.84-18.16 40-40 40-10.64 0-20.64-4.4-28.16-11.84l-81.28-80.64c-88.72 83.76-208.080 132.48-330.56 132.48-230.64 0-415.040-153.76-468.72-375.6 0-1.28 0-3.12 0-4.4 0-10.64 8.72-20 20-20h124.4c9.36 0 15.6 5.6 18.72 14.4 10.64 24.96 18.16 48.72 33.12 73.12 58.080 94.96 161.2 152.48 272.48 152.48 80.64 0 158.72-30.64 218.16-85.6l-86.32-86.24c-7.52-7.52-11.84-17.52-11.84-28.16 0-21.84 18.16-40 40-40h280c21.84 0 40 18.16 40 40v280z" />
<glyph unicode="&#xe627;" glyph-name="reload" data-tags="reload" d="M992 848c0 16.24-10 30.64-24.4 36.88-15.040 6.24-32.48 3.12-43.76-8.72l-81.28-80.64c-88.080 83.12-207.44 132.48-330.56 132.48-264.4 0-480-215.6-480-480s215.6-480 480-480c143.12 0 278.16 63.12 369.36 173.12 6.24 8.16 6.24 20-1.28 26.88l-85.6 86.24c-4.4 3.76-10 5.6-15.6 5.6-5.6-0.64-11.28-3.12-14.4-7.52-61.2-79.36-153.12-124.32-252.48-124.32-176.24 0-320 143.76-320 320s143.76 320 320 320c81.84 0 159.36-31.28 218.16-85.6l-86.32-86.24c-11.84-11.28-15.040-28.72-8.72-43.12 6.24-15.040 20.64-24.96 36.88-24.96h280c21.84 0 40 18.16 40 40v279.92z" />
<glyph unicode="&#xe628;" glyph-name="gears" data-tags="gears" d="M480 448.24c0-70.48-57.52-128-128-128s-128 57.52-128 128 57.52 128 128 128 128-57.52 128-128zM864 192.24c0-35.040-28.48-64-64-64-35.040 0-64 28.48-64 64 0 35.040 28.96 64 64 64s64-28.96 64-64zM864 704.24c0-35.040-28.48-64-64-64-35.040 0-64 28.48-64 64 0 35.040 28.96 64 64 64s64-28.96 64-64zM672 493.76c0 7.040-4.96 13.52-12 15.040l-76 11.52c-4.48 14-10.48 27.52-16.96 40.96 14 19.52 28.96 37.52 43.52 56.96 2 3.040 3.52 6 3.52 9.52 0 14-59.040 68-72 80-3.040 2.48-6.48 4-10.48 4-3.52 0-7.040-0.96-10-3.52l-59.040-44.48c-12 6-24.48 11.52-37.52 15.52l-11.52 76.48c-0.96 7.040-8 12.48-15.040 12.48h-92.96c-7.040 0-12.96-4.96-15.040-12-6.48-24.48-8.96-52-11.52-76.96-13.52-4.48-26-9.52-38.48-16l-57.52 44.96c-3.040 2-6.48 3.52-10.48 3.52-14.48 0-70.48-60.48-80.48-74-2.48-3.040-3.52-6.48-3.52-10s1.52-7.040 3.52-10c16-19.040 31.040-37.52 44.96-57.52-6.48-12.48-12-24.96-16-38l-77.52-12c-6.48-0.96-11.52-8.48-11.52-15.040v-92.48c0-7.040 4.96-13.52 12-14.48l76-12c4.48-14 10.48-27.52 17.52-40.96-14.48-19.52-29.52-38-44-56.96-2-3.040-3.52-6-3.52-9.52 0-14.48 59.040-68 72-80 3.040-2.48 6.48-4 10.48-4 3.52 0 7.52 0.96 10 3.52l59.040 44.48c12-6 24.48-11.52 37.52-15.52l11.52-76.48c0.96-7.040 8-12.48 15.040-12.48h92.96c7.040 0 12.96 4.96 15.040 12 6.48 24.48 8.96 52 11.52 77.52 13.52 4 26 8.96 38.48 15.52l57.52-44.96c3.040-2 6.48-3.52 10.48-3.52 14.48 0 70.48 60.96 80.48 74.48 2.48 2.48 3.52 6 3.52 9.52 0 4-1.52 7.040-3.52 10-16 19.040-31.040 37.52-44.96 57.52 6.48 12.48 12 24.96 16 38l77.52 12c6.48 0.96 11.52 8.48 11.52 15.040v92.32zM992 227.28c0 7.52-64.48 14.48-74.48 15.52-4 8.96-8.96 18-15.040 26 4.48 10 25.52 60 25.52 68.96 0 0.96-0.48 2.48-2 3.52-6 3.52-59.52 35.040-62 35.040l-3.040-0.96c-16.96-16.96-32-36.48-46-56-4.96 0.48-10 0.96-15.040 0.96s-10-0.48-15.040-0.96c-4.96 7.52-42.48 56.96-48.96 56.96-2.48 0-56-32-62-35.040-1.52-0.96-2-2.48-2-3.52 0-8.48 20.96-59.040 25.52-68.96-6-8-11.040-16.96-15.040-26-10-0.96-74.48-8-74.48-15.52v-70c0-7.52 64.48-14.48 74.48-15.52 4-9.52 8.96-18 15.040-26-4.48-10-25.52-60.48-25.52-68.96 0-0.96 0.48-2.48 2-3.52 6-3.52 59.52-35.52 62-35.52 6.48 0 44 50 48.96 57.52 4.96-0.48 10-0.96 15.040-0.96s10 0.48 15.040 0.96c4.96-7.52 42.48-57.52 48.96-57.52 2.48 0 56 32 62 35.52 1.52 0.96 2 2 2 3.52 0 8.96-20.96 59.040-25.52 68.96 6 8 11.040 16.48 15.040 26 10 0.96 74.48 8 74.48 15.52v70zM992 739.28c0 7.52-64.48 14.48-74.48 15.52-4 8.96-8.96 18-15.040 26 4.48 10 25.52 60 25.52 68.96 0 0.96-0.48 2.48-2 3.52-6 3.52-59.52 35.040-62 35.040l-3.040-0.96c-16.96-16.96-32-36.48-46-56-4.96 0.48-10 0.96-15.040 0.96s-10-0.48-15.040-0.96c-4.96 7.52-42.48 56.96-48.96 56.96-2.48 0-56-32-62-35.040-1.52-0.96-2-2.48-2-3.52 0-8.48 20.96-59.040 25.52-68.96-6-8-11.040-16.96-15.040-26-10-0.96-74.48-8-74.48-15.52v-70c0-7.52 64.48-14.48 74.48-15.52 4-9.52 8.96-18 15.040-26-4.48-10-25.52-60.48-25.52-68.96 0-0.96 0.48-2.48 2-3.52 6-3.52 59.52-35.52 62-35.52 6.48 0 44 50 48.96 57.52 4.96-0.48 10-0.96 15.040-0.96s10 0.48 15.040 0.96c4.96-7.52 42.48-57.52 48.96-57.52 2.48 0 56 32 62 35.52 1.52 0.96 2 2 2 3.52 0 8.96-20.96 59.040-25.52 68.96 6 8 11.040 16.48 15.040 26 10 0.96 74.48 8 74.48 15.52v70z" />
<glyph unicode="&#xe629;" glyph-name="wrench" data-tags="wrench" d="M233.28 168.64c-7.44 7.44-16.16 11.12-26.32 11.12s-18.88-3.68-26.32-11.12c-7.44-7.44-11.12-16.16-11.12-26.32s3.68-18.88 11.12-26.32c7.44-7.44 16.16-11.12 26.32-11.12s18.88 3.68 26.32 11.12c7.44 7.44 11.12 16.16 11.12 26.32s-3.76 18.96-11.12 26.32v0zM621.12 388l-398.96-398.96c-7.2-7.2-15.2-12.64-24-16.24s-18.32-5.44-28.64-5.44c-10.16 0-19.68 1.84-28.48 5.44-8.88 3.6-17.12 9.040-24.72 16.24l-62 63.2c-7.44 7.040-12.96 14.88-16.64 23.68s-5.52 18.4-5.52 28.96c0 10.32 1.84 19.92 5.52 28.8s9.28 17.040 16.64 24.4l398.4 398.4c15.2-38.24 37.52-72.080 66.96-101.52 29.36-29.36 63.2-51.68 101.44-66.96v0zM992 642.48c0-7.6-1.12-16.56-3.36-26.88s-5.6-22-10.080-35.12c-18.32-52.24-50.4-94.64-96.24-127.2s-96.24-48.88-151.2-48.88c-72.16 0-133.84 25.68-185.12 76.96s-76.96 113.040-76.96 185.12 25.68 133.84 76.96 185.12 113.040 76.96 185.12 76.96c22.64 0 46.32-3.2 71.040-9.68s45.76-15.52 62.88-27.2c6.24-4.32 9.36-9.76 9.36-16.4s-3.12-12.080-9.36-16.4l-171.36-98.8v-131.040l112.88-62.56c1.92 1.2 17.36 10.64 46.24 28.4s55.28 33.52 79.28 47.36c12 6.96 21.44 12.080 28.32 15.6 6.88 3.44 11.2 5.2 12.96 5.2 5.84 0 10.4-1.92 13.76-5.84 3.2-3.92 4.88-8.8 4.88-14.72v0z" />
<glyph unicode="&#xe62a;" glyph-name="info" data-tags="info" d="M672 148c0-11.28-8.72-20-20-20h-280c-11.28 0-20 8.72-20 20v100c0 11.28 8.72 20 20 20h60v200h-60c-11.28 0-20 8.72-20 20v100c0 11.28 8.72 20 20 20h200c11.28 0 20-8.72 20-20v-320h60c11.28 0 20-8.72 20-20v-100zM592 708c0-11.28-8.72-20-20-20h-120c-11.28 0-20 8.72-20 20v100c0 11.28 8.72 20 20 20h120c11.28 0 20-8.72 20-20v-100zM992 448c0 264.96-215.040 480-480 480s-480-215.040-480-480 215.040-480 480-480 480 215.040 480 480z" />
<glyph unicode="&#xe62b;" glyph-name="question" data-tags="question" d="M592 148c0-11.28-8.72-20-20-20h-120c-11.28 0-20 8.72-20 20v120c0 11.28 8.72 20 20 20h120c11.28 0 20-8.72 20-20v-120zM752 568c0-95.040-64.96-131.28-112.48-158.16-29.36-16.88-47.52-47.44-47.52-61.84v0c0-11.28-8.72-20-20-20h-120c-11.28 0-20 8.72-20 20v22.48c0 60.64 60.64 112.48 104.96 132.48 38.16 17.52 55.040 33.76 55.040 66.24 0 27.52-36.88 53.12-76.88 53.12-22.48 0-43.12-7.52-53.76-15.040-11.84-8.72-24.4-20-53.76-57.52-3.76-4.96-10-7.52-15.6-7.52-4.4 0-8.72 1.28-11.84 3.76l-82.56 62.64c-8.16 6.24-10.64 17.52-4.96 26.24 53.76 89.36 130 133.12 231.84 133.12 107.52 0 227.52-85.6 227.52-200zM992 448c0 264.96-215.040 480-480 480s-480-215.040-480-480 215.040-480 480-480 480 215.040 480 480z" />
<glyph unicode="&#xe62c;" glyph-name="external" data-tags="external" d="M786.32 392.72c0 9.68-7.52 17.12-17.12 17.12h-34.32c-9.68 0-17.12-7.52-17.12-17.12v-171.44c0-47.12-38.56-85.68-85.68-85.68h-445.76c-47.12 0-85.68 38.56-85.68 85.68v445.68c0 47.12 38.56 85.68 85.68 85.68h377.12c9.68 0 17.12 7.52 17.12 17.12v34.32c0 9.68-7.52 17.12-17.12 17.12h-377.12c-85.2 0.080-154.32-69.040-154.32-154.24v-445.68c0-85.2 69.12-154.32 154.32-154.32h445.68c85.2 0 154.32 69.12 154.32 154.32v171.44zM992 855.52c0 18.72-15.52 34.32-34.32 34.32h-274.24c-18.72 0-34.32-15.52-34.32-34.32 0-9.12 3.76-17.68 10.16-24.080l94.32-94.32-349.28-349.28c-3.2-3.2-5.36-8-5.36-12.32s2.16-9.12 5.36-12.32l61.040-61.040c3.2-3.2 8-5.36 12.32-5.36s9.12 2.16 12.32 5.36l349.28 349.28 94.32-94.32c6.4-6.4 15.040-10.16 24.080-10.16 18.72 0 34.32 15.52 34.32 34.32v274.24z" />
<glyph unicode="&#xe62d;" glyph-name="edit" data-tags="edit" d="M971.6 723.6l-79.6 80.48c-20.8 19.92-51.12 19.92-73.84 0l-48.32-49.28 153.44-153.44 48.32 46.4c20.8 20 20.8 53.12 0 75.84zM755.68 336.24l-31.28-33.12c-2.88-1.92-4.72-6.64-4.72-9.44v-69.12c0-45.44-40.72-82.4-87.12-82.4h-443.28c-45.44 0-82.4 36.96-82.4 82.4v443.2c0 46.4 36.96 87.12 82.4 87.12h443.28c10.4 0 18-5.68 26.48-5.68 4.72-0.96 9.44 0 16.080 7.6l26.48 25.6c2.88 4.72 3.76 8.56 2.88 15.12 0 6.64-2.88 9.44-7.6 9.44-18.96 10.4-38.8 17.040-64.4 17.040h-443.2c-82.4 0-152.48-74.8-152.48-156.24v-443.28c0-82.4 70.080-152.48 152.48-152.48h443.28c81.44 0 156.24 70.080 156.24 152.48v104.16c0 15.2-19.92 20.88-33.12 7.6zM378.72 360.88v-152.48h150.56l358.96 356.080-153.44 153.44-356.080-357.040zM743.36 625.12l-184.72-185.6c-14.24-15.12-31.28 2.88-18.96 18.96l185.6 183.76c13.28 12.24 30.4-4.8 18.080-17.12zM480 259.52v51.12h-51.12v29.36l63.44 62.48 78.64-82.4-63.44-60.64h-27.52z" />
<glyph unicode="&#xe62e;" glyph-name="share" data-tags="share" d="M818.080 362.56c0 6.88-4.8 12.72-11.12 15.44s-13.84 0.56-18.56-4.24c-8.48-8-18.080-14.88-28.72-19.68-5.84-3.2-9.6-9.040-9.6-15.44v-113.68c0-46.72-38.24-84.96-84.96-84.96h-442.080c-46.72 0-84.96 38.24-84.96 84.96v442.080c0 46.72 38.24 84.96 84.96 84.96h59.52c3.2 0 5.84 1.040 8.48 2.16 20.16 12.24 44.080 22.88 70.64 31.84 8 1.6 13.84 8.48 13.84 16.96 0 9.6-8 16.96-16.96 16.96v0 0h-135.52c-84.48 0-152.96-68.56-152.96-152.96v-442c0-84.48 68.56-152.96 152.96-152.96h442c84.48 0 152.96 68.56 152.96 152.96v137.6zM944 626.080c13.28 13.28 13.28 34.56 0 47.84l-204 204c-6.4 6.4-14.88 10.080-23.92 10.080-4.24 0-9.040-1.040-13.28-2.64-12.24-5.28-20.72-17.52-20.72-31.36v-102h-85.040c-346.4 0-391.040-163.6-391.040-306 0-106.24 84.48-225.76 88.16-231.12 3.2-4.24 8.48-6.88 13.84-6.88 2.16 0 4.24 0.56 6.4 1.040 6.88 3.2 11.68 10.64 10.64 18.080-16.48 122.16-3.68 201.84 39.28 251.28 41.44 47.28 115.84 69.6 232.72 69.6h84.96v-102c0-13.84 8.48-26 20.72-31.36 4.24-1.6 9.040-2.64 13.28-2.64 9.040 0 17.52 3.2 23.92 10.080l204.080 204z" />
<glyph unicode="&#xe62f;" glyph-name="checkbox" data-tags="checkbox" d="M820.4 391.36c0 6.96-4.24 12.8-10.72 15.52-2.16 1.040-4.24 1.6-6.4 1.6-4.24 0-8.56-1.6-12.32-5.36l-34.24-34.24c-3.2-3.2-4.8-7.52-4.8-11.76v-135.84c0-47.040-38.48-85.6-85.6-85.6h-445.040c-47.040 0-85.6 38.48-85.6 85.6v445.040c0 47.040 38.48 85.6 85.6 85.6h445.040c8 0 16.080-1.040 24.080-3.2 1.6-0.56 3.2-1.040 4.8-1.040 4.24 0 9.12 2.16 12.32 5.36l26.24 26.24c4.24 4.24 5.92 9.6 4.8 15.52-1.040 5.36-4.8 10.16-9.6 12.32-19.76 9.12-41.2 13.36-62.56 13.36h-445.12c-85.040-0.080-154.080-69.12-154.080-154.16v-445.040c0-85.040 69.040-154.080 154.080-154.080h445.040c85.040 0 154.080 69.040 154.080 154.080v170.080zM944 652.96c17.12 17.12 17.12 43.84 0 60.96l-58.88 58.88c-17.12 17.12-43.84 17.12-60.96 0l-346.16-346.16-140.64 140.72c-17.12 17.12-43.84 17.12-60.96 0l-58.88-58.88c-17.12-17.12-17.12-43.84 0-60.96l230-230c17.12-17.12 43.84-17.12 60.96 0l435.52 435.44z" />
<glyph unicode="&#xe630;" glyph-name="exclaim" data-tags="exclaim" d="M512 928c-264.96 0-480-215.040-480-480s215.040-480 480-480 480 215.040 480 480-215.040 480-480 480zM592 148.64c0-11.28-8.72-20.64-19.36-20.64h-120c-11.28 0-20.64 9.36-20.64 20.64v118.72c0 11.28 9.36 20.64 20.64 20.64h120c10.64 0 19.36-9.36 19.36-20.64v-118.72zM590.72 363.6c-0.64-8.72-10-15.6-21.28-15.6h-115.6c-11.84 0-21.28 6.88-21.28 15.6l-10.64 388.16c0 4.4 1.84 8.72 6.24 11.28 3.76 3.12 9.36 4.96 15.040 4.96h137.52c5.6 0 11.28-1.84 15.040-4.96 4.4-2.48 6.24-6.88 6.24-11.28l-11.28-388.16z" />
<glyph unicode="&#xe631;" glyph-name="print" data-tags="print" d="M253.52 78.8v147.68h516.96v-147.68h-516.96zM253.52 448v369.2h369.2v-92.32c0-30.56 24.8-55.36 55.36-55.36h92.32v-221.52h-516.88zM918.16 411.040c0-20.16-16.72-36.96-36.96-36.96s-36.96 16.72-36.96 36.96c0 20.16 16.72 36.96 36.96 36.96s36.96-16.72 36.96-36.96zM992 411.040c0 60.56-50.16 110.8-110.8 110.8h-36.96v147.68c0 30.56-17.28 72.72-39.2 94.64l-87.68 87.68c-21.92 21.92-64 39.2-94.64 39.2h-387.68c-30.56 0-55.36-24.8-55.36-55.36v-313.84h-36.96c-60.56 0-110.72-50.16-110.72-110.8v-240c0-9.84 8.64-18.48 18.48-18.48h129.2v-92.32c0-30.56 24.8-55.36 55.36-55.36h553.84c30.56 0 55.36 24.8 55.36 55.36v92.32h129.2c9.84 0 18.48 8.64 18.48 18.48v240z" />
<glyph unicode="&#xe632;" glyph-name="download" data-tags="download" d="M770.24 594.72h-148.96v260.48c0 19.84-15.44 35.28-36.4 35.28h-146.8c-22.080 0-37.52-15.44-37.52-35.28v-260.4h-146.8c-16.56 0-27.6-6.64-34.24-22.080-5.52-15.44-4.4-28.72 8.8-38.64l257.12-260.4c13.28-14.32 37.52-14.32 54.080 0l256 260.4c13.28 9.92 14.32 23.2 8.8 38.64-6.56 15.44-17.6 22-34.080 22zM934.64 301.28h-265.92l-79.44-78.32c-43.040-43.040-111.44-43.040-154.48 0l-79.44 78.32h-266c-33.12 0-57.36-25.36-57.36-56.24v-182.080c0-33.12 24.24-57.36 57.36-57.36h845.28c30.88 0 57.36 24.24 57.36 57.36v182c0 30.88-26.48 56.32-57.36 56.32zM907.040 90.48c-14.32-14.32-37.52-14.32-52.96 0-14.32 14.32-14.32 37.52 0 51.84 15.44 13.28 38.64 13.28 52.96 0 14.32-14.32 14.32-37.52 0-51.84zM759.2 90.48c-15.44-14.32-37.52-14.32-51.84 0s-14.32 37.52 0 51.84c14.32 13.28 36.4 13.28 51.84 0 14.32-14.32 14.32-37.52 0-51.84z" />
<glyph unicode="&#xe633;" glyph-name="crosshairs" data-tags="crosshairs" d="M952.16 528.88h-89.36c-30.16 135.28-135.28 237.92-270.48 269.28v90.56c0 21.76-18.080 38.64-41.040 38.64h-78.48c-22.96 0-41.040-16.88-41.040-38.64v-90.56c-134-31.36-239.12-134-270.48-269.28h-89.44c-20.48 0-39.84-19.28-39.84-41.040v-79.68c0-22.96 19.36-39.84 39.84-39.84h89.36c31.36-135.28 136.48-239.12 270.48-270.48v-89.36c0-22.96 18.080-39.84 41.040-39.84h78.48c22.96 0 41.040 16.88 41.040 39.84v89.36c135.28 31.36 240.32 135.28 270.48 270.48h89.36c21.76 0 39.84 16.88 39.84 39.84v79.68c0.080 21.76-18 41.040-39.76 41.040zM592.32 181.12v66.4c0 21.76-18.080 41.040-41.040 41.040h-78.48c-22.96 0-41.040-19.36-41.040-41.040v-66.4c-89.36 26.56-160.64 97.84-187.2 187.2h67.6c22.96 0 41.040 16.88 41.040 39.84v79.68c0 21.76-18.080 41.040-41.040 41.040h-67.6c26.56 89.36 97.84 159.36 187.2 187.2v-67.6c0-22.96 18.080-41.040 41.040-41.040h78.48c22.96 0 41.040 18.080 41.040 41.040v67.6c89.36-27.76 161.84-97.84 187.2-187.2h-67.6c-21.76 0-39.84-19.36-39.84-41.040v-79.68c0-22.96 18.080-39.84 39.84-39.84h67.6c-25.44-89.36-97.84-160.64-187.2-187.2z" />
<glyph unicode="&#xe634;" glyph-name="home" data-tags="home" d="M986.24 459.28l-128.72 105.6v242c0 14.4-11.52 20.16-22.080 20.16h-113.28c-11.52 0-19.2-5.76-19.2-20.16v-114.24l-143.12 120.96c-30.72 21.12-67.2 21.12-92.16 0l-429.28-354.32c-7.68-8.64-8.64-17.28-1.92-28.8l38.4-40.32c2.88-9.6 7.68-10.56 12.48-10.56 1.92 0 8.64 0.96 14.4 3.84l409.12 346.64 409.12-346.64c5.76-2.88 8.64-3.84 15.36-3.84h1.92c4.8 0 9.6 0.96 12.48 10.56l36.48 40.32c7.68 11.52 7.68 20.16 0 28.8zM435.040 66.48v228.56h152.72v-228.56h226.64c22.080 0 43.2 15.36 43.2 37.44v290.080l-346.72 281.36-338.96-281.36c0-1.92-2.88-2.88-2.88-2.88v-287.12c0-22.080 18.24-37.44 41.28-37.44h224.72z" />
<glyph unicode="&#xe635;" glyph-name="link" data-tags="link" d="M879.040 222.080c0-14.72-5.92-28.8-16.48-39.44l-86.48-85.84c-10.56-10-25.28-15.28-40-15.28s-29.44 5.28-40 15.92l-121.12 121.76c-10.56 10.56-16.48 25.28-16.48 40 0 17.68 7.040 31.2 19.44 42.96 19.44-19.44 35.92-42.32 65.92-42.32 31.2 0 56.48 25.28 56.48 56.48 0 30-22.96 46.48-42.32 65.92 11.76 12.32 25.28 18.8 42.32 18.8 14.72 0 29.44-5.92 40-16.48l122.32-122.32c10.56-10.72 16.4-24.8 16.4-40.16zM465.52 636.8c0-17.68-7.040-31.2-19.44-42.96-19.44 19.44-35.92 42.32-65.92 42.32-31.2 0-56.48-25.28-56.48-56.48 0-30 22.96-46.48 42.32-65.92-11.76-12.32-25.28-18.24-42.32-18.24-14.72 0-29.44 5.28-40 15.92l-122.24 122.48c-10.56 10.56-16.48 24.72-16.48 40 0 14.72 5.92 28.8 16.48 39.44l86.48 85.84c10.56 10 25.28 15.92 40 15.92s29.44-5.92 40-16.48l121.12-121.84c10.64-10.56 16.48-25.28 16.48-40zM992 222.080c0 45.28-17.040 87.68-49.44 120l-122.32 122.32c-31.76 31.76-75.28 49.44-120 49.44-46.48 0-90-18.8-122.32-51.76l-51.76 51.76c32.96 32.32 51.76 76.48 51.76 122.96 0 44.72-17.040 87.68-48.8 119.44l-121.2 121.76c-31.84 32.32-74.72 50-120 50-44.72 0-87.68-17.040-119.44-48.8l-86.48-85.92c-31.76-31.2-50-74.72-50-119.36 0-45.28 17.040-87.68 49.44-120l122.32-122.32c31.76-31.76 75.28-49.44 120-49.44 46.48 0 90 18.8 122.32 51.76l51.76-51.76c-32.96-32.32-51.76-76.48-51.76-122.96 0-44.72 17.040-87.68 48.8-119.44l121.2-121.76c31.76-32.32 74.72-50 120-50 44.72 0 87.68 17.040 119.44 48.8l86.48 85.92c31.76 31.2 50 74.72 50 119.36z" />
<glyph unicode="&#xe636;" glyph-name="book" data-tags="book" d="M977.52 689.12c-8.64 11.52-20.8 19.6-34 24.8 0.56-10.4 0.56-21.92-2.88-32.88l-173.040-569.28c-6.32-20.8-31.12-32.88-52.48-32.88h-532.4c-31.76 0-71.52 6.96-83.040 40.4-4.64 12.72-4 17.92 0.56 24.8 5.2 6.96 14.4 8.64 21.92 8.64h501.2c73.28 0 88.24 19.6 115.36 108.4l158.080 522.56c8.080 27.12 4.64 54.24-10.4 74.96-14.4 20.16-38.64 32.32-65.76 32.32h-438.96c-9.84 0-19.6-2.88-29.44-5.2l0.56 1.76c-73.28 20.8-77.84-58.24-102.080-94-9.2-13.28-23.040-24.8-25.36-35.76-1.76-10.4 4-20.16 2.88-30-3.44-30.56-26.56-85.36-40.4-104.4-8.64-11.52-21.36-17.28-25.36-30.56-3.44-9.2 2.32-22.48 1.12-34.64-2.88-27.12-23.040-78.48-38.64-104.96-5.76-10.4-16.72-18.48-19.6-29.44-2.88-9.84 2.88-22.48 0-33.44-6.32-30-25.92-76.72-43.2-105.52-9.2-15.6-21.36-25.36-23.68-39.2-1.12-6.96 4-14.4 3.44-23.68-0.56-13.84-2.88-25.36-4-36.88-8.080-21.92-8.080-47.28 1.12-73.28 21.36-60 84.24-106.72 143.040-106.72h532.4c49.6 0 100.4 38.080 114.8 87.12l158.64 522.56c8.080 26.48 4 53.6-10.4 74.4zM363.84 687.92l12.080 36.88c3.44 10.4 14.4 18.48 24.24 18.48h350.72c10.4 0 16.16-8.080 12.72-18.48l-12.080-36.88c-3.44-10.4-14.4-18.48-24.24-18.48h-350.8c-10.4 0.080-16.16 8.16-12.64 18.48zM315.92 540.32l12.080 36.88c3.44 10.4 14.4 18.48 24.24 18.48h350.72c10.4 0 16.16-8.080 12.72-18.48l-12.080-36.88c-3.44-10.4-14.4-18.48-24.24-18.48h-350.72c-10.4 0-16.16 8.080-12.72 18.48z" />
<glyph unicode="&#xe637;" glyph-name="bookmark" data-tags="bookmark" d="M844.48 928c-19.68 0-645.28 0-664.96 0-9.52 0-19.040-1.92-27.92-5.68-27.92-10.8-45.68-36.8-45.68-65.36v-817.84c0-28.56 17.76-54.56 45.68-65.36 8.88-3.84 18.4-5.68 27.92-5.68 19.68 0 38.080 7.6 52.64 20.96l279.84 268.96 279.84-269.040c14.56-13.36 32.96-20.32 52.64-20.32 9.52 0 19.040 1.28 27.92 5.040 27.92 10.8 45.68 36.8 45.68 65.36v817.92c0 28.56-17.76 54.56-45.68 65.36-8.88 3.76-18.4 5.68-27.92 5.68z" />
<glyph unicode="&#xe638;" glyph-name="tags" data-tags="tags" d="M973.6 424.32l-361.92 360c-26.16 27.12-74.48 46.48-110.32 46.48h-113.2c35.84 0 85.2-19.36 110.32-46.48l362.88-360c12.56-13.52 18.4-30 18.4-46.48 0-18.4-5.84-32.88-18.4-45.52l-239.040-239.040c19.36-20.32 33.84-28.080 58.080-28.080 16.48 0 30.96 4.8 43.52 17.44l249.68 249.68c12.56 12.56 18.4 27.12 18.4 45.52 0 16.48-5.84 32.88-18.4 46.48zM779.12 424.32l-360.96 360c-26.16 27.12-75.52 46.48-110.32 46.48h-211.040c-35.84 0-64.8-30-64.8-65.84v-209.040c0-34.8 19.36-86.16 46.48-110.32l360-362.88c12.56-12.56 29.040-17.44 46.48-17.44s32.88 4.8 45.52 17.44l248.72 249.68c12.56 12.56 19.36 27.12 19.36 45.52-0.080 16.4-6.88 32.8-19.44 46.4zM239.12 623.68c-25.2-27.12-63.84-27.12-90.96 0-25.2 25.2-25.2 64.8 0 91.92 27.12 25.2 65.84 25.2 90.96 0 27.040-27.12 27.040-66.8 0-91.92z" />
<glyph unicode="&#xe639;" glyph-name="tag" data-tags="tag" d="M880.24 414.48l-365.28 364.24c-25.92 26.96-74.8 46.88-111.76 46.88h-212.56c-35.92 0-65.84-28.96-65.84-64.88v-212.56c0-36.96 20.96-85.84 47.92-111.76l364.24-365.28c12.96-12.96 27.92-19.92 46.88-19.92 16.96 0 31.92 6.96 45.92 19.92l250.48 251.52c12.96 12 18.96 26.96 18.96 44.88 0 18.96-6 33.92-18.96 46.96zM335.36 616c-25.92-25.92-66.88-25.92-92.8 0s-25.92 66.88 0 92.8c25.92 24.96 66.88 24.96 92.8 0 24.96-25.92 24.96-66.8 0-92.8z" />
<glyph unicode="&#xe63a;" glyph-name="tackright" data-tags="tackright" d="M737.12 580.72c82.32-16.48 146.88-8.88 163.28 18.96 57.040 86.16-422.8 401.36-477.28 312.8-18.96-27.84-5.040-91.12 49.36-155.76l-181.040-277.28c-79.76 26.56-138 24.080-167.12-21.52-29.12-38 62-127.84 168.4-203.84l-105.12-160.8c-18.96-29.12-55.68-115.2-43.040-124.080 15.2-11.36 77.2 58.24 98.72 87.36l106.32 160.8c108.88-68.4 225.36-111.44 251.92-73.44 30.4 45.6 10.16 102.56-43.040 164.56l178.64 272.24z" />
<glyph unicode="&#xe63b;" glyph-name="clock" data-tags="clock" d="M592 668c0 11.28-8.72 20-20 20h-40c-11.28 0-20-8.72-20-20v-220h-140c-11.28 0-20-8.72-20-20v-40c0-11.28 8.72-20 20-20h200c11.28 0 20 8.72 20 20v280zM852 448c0-187.52-152.48-340-340-340s-340 152.48-340 340 152.48 340 340 340 340-152.48 340-340zM992 448c0 264.96-215.040 480-480 480s-480-215.040-480-480 215.040-480 480-480 480 215.040 480 480z" />
<glyph unicode="&#xe63c;" glyph-name="calgrid" data-tags="calgrid" d="M896.4 792.4h-70.24v52.080c0 43.6-37.52 83.52-85.92 83.52h-31.44c-52.080 0-92-39.92-92-83.52v-52.080h-193.76v52.080c0 43.6-54.48 83.52-96.88 83.52h-26.64c-67.76 0-96.88-39.92-96.88-83.52v-52.080h-54.48c-60.56 0-83.52-35.12-83.52-70.24v-699.76c0-29.040 23.040-54.48 83.52-54.48h748.16c35.12 0 62.96 25.44 62.96 54.48v699.76c0 35.12-27.84 70.24-62.88 70.24zM740.16 673.76h-31.44c-10.88 0-19.36 8.48-19.36 18.16v152.56c0 7.28 8.48 15.76 19.36 15.76h31.44c9.68 0 15.76-8.48 15.76-15.76v-152.56c0-9.68-6-18.16-15.76-18.16zM326.16 673.76h-26.64c-8.48 0-14.56 8.48-14.56 18.16v152.56c0 7.28 6.080 15.76 14.56 15.76h26.64c6.080 0 13.28-8.48 13.28-15.76v-152.56c0.080-9.68-7.2-18.16-13.28-18.16zM740.16 582.96h156.16v-152.56h-156.16v152.56zM534.4 582.96h174.32v-152.56h-174.32v152.56zM326.16 582.96h168.24v-152.56h-168.24v152.56zM148.24 582.96h151.36v-152.56h-151.36v152.56zM740.16 394.16h156.16v-165.84h-156.16v165.84zM534.4 394.16h174.32v-165.84h-174.32v165.84zM326.16 394.16h168.24v-165.84h-168.24v165.84zM148.24 394.16h151.36v-165.84h-151.36v165.84zM740.16 195.6h156.16v-173.12h-156.16v173.12zM534.4 195.6h174.32v-173.12h-174.32v173.12zM326.16 195.6h168.24v-173.12h-168.24v173.12zM148.24 195.6h151.36v-173.12h-151.36v173.12z" />
<glyph unicode="&#xe63d;" glyph-name="calblank" data-tags="calblank" d="M888 790.16h-67.68v52c0 45.92-41.12 85.84-85.84 85.84h-33.84c-48.4 0-87.040-39.92-87.040-85.84v-52h-205.6v52c0 45.92-38.64 85.84-85.84 85.84h-35.040c-45.92 0-84.64-39.92-84.64-85.84v-52h-68.88c-37.52 0-67.68-31.44-67.68-68.88v-685.52c0-38.72 30.24-67.68 67.68-67.68h754.4c39.92 0 70.16 29.040 70.16 67.68v685.52c0 37.44-30.24 68.88-70.16 68.88zM734.48 670.48h-33.84c-8.48 0-16.96 7.28-16.96 16.96v154.72c0 8.48 8.48 15.68 16.96 15.68h33.84c9.68 0 16.96-7.28 16.96-15.68v-154.8c-0.080-9.6-7.28-16.88-16.96-16.88zM322.16 670.48h-35.040c-10.88 0-15.68 7.28-15.68 16.96v154.72c0 8.48 4.8 15.68 15.68 15.68h35.040c10.88 0 18.16-7.28 18.16-15.68v-154.8c0-9.6-7.28-16.88-18.16-16.88zM133.6 584.64h754.4v-548.88h-754.4v548.88z" />
<glyph unicode="&#xe63e;" glyph-name="keyboard" data-tags="keyboard" d="M224 344c0 4.48-3.52 8-8 8h-48c-4.48 0-8-3.52-8-8v-48c0-4.48 3.52-8 8-8h48c4.48 0 8 3.52 8 8v48zM288 472c0 4.48-3.52 8-8 8h-112c-4.48 0-8-3.52-8-8v-48c0-4.48 3.52-8 8-8h112c4.48 0 8 3.52 8 8v48zM224 600c0 4.48-3.52 8-8 8h-48c-4.48 0-8-3.52-8-8v-48c0-4.48 3.52-8 8-8h48c4.48 0 8 3.52 8 8v48zM736 344c0 4.48-3.52 8-8 8h-432c-4.48 0-8-3.52-8-8v-48c0-4.48 3.52-8 8-8h432c4.48 0 8 3.52 8 8v48zM416 472c0 4.48-3.52 8-8 8h-48c-4.48 0-8-3.52-8-8v-48c0-4.48 3.52-8 8-8h48c4.48 0 8 3.52 8 8v48zM352 600c0 4.48-3.52 8-8 8h-48c-4.48 0-8-3.52-8-8v-48c0-4.48 3.52-8 8-8h48c4.48 0 8 3.52 8 8v48zM544 472c0 4.48-3.52 8-8 8h-48c-4.48 0-8-3.52-8-8v-48c0-4.48 3.52-8 8-8h48c4.48 0 8 3.52 8 8v48zM480 600c0 4.48-3.52 8-8 8h-48c-4.48 0-8-3.52-8-8v-48c0-4.48 3.52-8 8-8h48c4.48 0 8 3.52 8 8v48zM672 472c0 4.48-3.52 8-8 8h-48c-4.48 0-8-3.52-8-8v-48c0-4.48 3.52-8 8-8h48c4.48 0 8 3.52 8 8v48zM864 344c0 4.48-3.52 8-8 8h-48c-4.48 0-8-3.52-8-8v-48c0-4.48 3.52-8 8-8h48c4.48 0 8 3.52 8 8v48zM608 600c0 4.48-3.52 8-8 8h-48c-4.48 0-8-3.52-8-8v-48c0-4.48 3.52-8 8-8h48c4.48 0 8 3.52 8 8v48zM736 600c0 4.48-3.52 8-8 8h-48c-4.48 0-8-3.52-8-8v-48c0-4.48 3.52-8 8-8h48c4.48 0 8 3.52 8 8v48zM864 600c0 4.48-3.52 8-8 8h-48c-4.48 0-8-3.52-8-8v-120h-56c-4.48 0-8-3.52-8-8v-48c0-4.48 3.52-8 8-8h112c4.48 0 8 3.52 8 8v176zM928 224h-832v448h832v-448zM992 672c0 35.52-28.48 64-64 64h-832c-35.52 0-64-28.48-64-64v-448c0-35.52 28.48-64 64-64h832c35.52 0 64 28.48 64 64v448z" />
<glyph unicode="&#xe63f;" glyph-name="contact" data-tags="contact" d="M32 865.52v-835.040c0-32.88 28.56-59.76 63.76-59.76h97.84v954.48h-97.84c-35.2 0-63.76-26.72-63.76-59.68v0zM633.2 381.68h57.36v-50.72h-57.36c-18.16 0-27.6 5.6-27.6 24.96-0.080 20.080 9.36 25.76 27.6 25.76zM992 121.68v-91.12c0-32.88-28.56-59.76-63.76-59.76h-671.2v954.4h671.2c35.2 0 63.76-26.8 63.76-59.76v-661.76h-346.48c-133.68 0-216.64 36.24-216.64 205.28 0 169.84 101.76 218.96 218.8 218.96 117.76 0 218-33.84 218-194.8 0-82.88-18.16-102.24-51.6-102.24h-2.88v95.040c0 91.84-37.76 139.28-113.36 139.28h-180.96v-80.48h137.36c25.44 0 34.88-12.080 36.32-41.84h-107.52c-55.92 0-94.48-25.76-94.48-92.56 0-67.6 37.76-94.24 94.48-94.24h237.68c61.040 0 134.4 33.84 134.4 177.12 0 220.56-159.12 280.16-306.64 280.16-146.080 0-308.88-82.080-308.88-297.040 0-213.28 113.36-294.56 308.16-294.56h344.24z" />
<glyph unicode="&#xe640;" glyph-name="envelope" data-tags="envelope" d="M992 581.92c-16.080-17.68-34.32-33.2-53.6-46.64-89.44-60.56-179.44-121.6-266.8-184.8-44.96-33.2-100.72-73.92-159.12-73.92h-1.040c-58.4 0-114.080 40.72-159.12 73.92-87.36 63.76-177.36 124.32-266.24 184.8-19.84 13.36-38 28.96-54.080 46.64v-425.36c0-47.12 38.56-85.68 85.68-85.68h788.56c47.12 0 85.68 38.56 85.68 85.68v425.36zM992 739.44c0 47.12-39.12 85.68-85.68 85.68h-788.64c-57.28 0-85.68-44.96-85.68-97.44 0-48.72 54.080-109.28 92.16-135.040 83.040-57.84 167.12-115.68 250.16-174.080 34.8-24.080 93.76-73.36 137.12-73.36h1.12c43.36 0 102.32 49.28 137.12 73.36 83.040 58.4 167.12 116.24 250.72 174.080 47.12 32.72 91.6 86.8 91.6 146.8z" />
<glyph unicode="&#xe641;" glyph-name="comments" data-tags="comments" d="M409.12 756.64c167.12 0 308.56-94.32 308.56-205.68s-141.36-205.76-308.56-205.76c-27.84 0-55.2 2.64-82 7.52l-28.4 5.36-23.52-16.64c-10.72-7.52-22-14.48-33.2-20.88l18.72 44.96-52 30c-68.48 39.68-108.16 96.48-108.16 155.36 0 111.44 141.44 205.76 308.56 205.76zM409.12 825.2c-208.4 0-377.12-122.72-377.12-274.32 0-86.8 55.68-164.48 142.48-214.8-18.24-44.48-41.76-65.36-62.64-88.96-5.92-6.96-12.88-13.36-10.72-23.6v0c1.6-9.12 9.12-15.52 17.12-15.52 0.56 0 1.040 0 1.6 0 16.080 2.16 31.6 4.8 46.080 8.56 54.080 14 104.48 37.040 148.96 68.64 30-5.36 61.6-8.56 94.32-8.56 208.4 0 377.12 122.64 377.12 274.32s-168.8 274.24-377.2 274.24zM849.52 198.96c86.8 50.32 142.48 127.52 142.48 214.8 0 89.44-58.96 168.72-149.44 218.56 8-26.24 12.32-53.6 12.32-81.44 0-95.92-49.28-184.32-138.72-249.68-83.040-60-191.76-93.2-306.96-93.2-15.52 0-31.6 1.040-47.12 2.16 66.96-43.92 155.92-70.72 252.88-70.72 32.64 0 64.32 3.2 94.32 8.56 44.48-31.6 94.8-54.64 148.96-68.56 14.48-3.76 30-6.4 46.080-8.56 8.56-1.040 16.64 5.92 18.72 15.52v0c2.16 10.16-4.8 16.64-10.72 23.6-21.040 23.6-44.64 44.48-62.8 88.96z" />
<glyph unicode="&#xe642;" glyph-name="pencil" data-tags="pencil" d="M968.48 755.44l-149.68 148.4c-14.88 14.88-34.64 23.52-56.88 23.52s-42.080-8.64-56.88-23.52l-105.2-103.92 263.52-264.72 105.12 106.4c16.080 14.88 23.52 33.44 23.52 55.68 0 23.52-7.44 42.080-23.52 58.16zM32 230.88v-262.24h263.52l528.24 525.76-264.72 264.72-527.040-528.24zM589.92 626.8l-345.12-343.92c-2.48-2.48-4.96-4.96-9.92-4.96-9.92 0-13.6 4.96-13.6 14.88 0 3.68 0 7.44 3.68 11.12l343.92 342.72c2.48 2.48 6.16 4.96 11.12 4.96 9.92 0 13.6-4.96 13.6-14.88 0.080-3.76-1.2-7.52-3.68-9.92zM194.080 49.040v81.68h-80.4v66.8l56.88 58.16 149.68-148.48-58.16-58.16h-68z" />
<glyph unicode="&#xe643;" glyph-name="locked" data-tags="locked" d="M337.44 491.6v130.96c0 96.16 78.4 174.56 174.56 174.56s174.56-78.4 174.56-174.56v-130.88h-349.12zM904.72 426.16c0 36.16-29.28 65.44-65.44 65.44h-21.84v130.96c0 167.68-137.68 305.44-305.44 305.44s-305.44-137.76-305.44-305.44v-130.88h-21.84c-36.16 0-65.44-29.28-65.44-65.44v-392.72c0-36.16 29.28-65.44 65.44-65.44h654.56c36.16 0 65.44 29.28 65.44 65.44v392.64z" />
<glyph unicode="&#xe644;" glyph-name="unlocked" data-tags="unlocked" d="M812 448h-460v200c0 88.16 71.84 160 160 160s160-71.84 160-160c0-21.84 18.16-40 40-40h40c21.84 0 40 18.16 40 40 0 154.4-125.6 280-280 280s-280-125.6-280-280v-200h-20c-33.12 0-60-26.88-60-60v-360c0-33.12 26.88-60 60-60h600c33.12 0 60 26.88 60 60v360c0 33.12-26.88 60-60 60z" />
<glyph unicode="&#xe645;" glyph-name="camera" data-tags="camera" d="M512 528c-79.52 0-144-64.48-144-144s64.48-144 144-144 144 64.48 144 144-64.48 144-144 144zM864 736h-112l-25.52 68c-12.48 32.96-51.52 60-86.48 60h-256c-35.040 0-74-27.040-86.48-60l-25.52-68h-112c-70.48 0-128-57.52-128-128v-448c0-70.48 57.52-128 128-128h704c70.48 0 128 57.52 128 128v448c0 70.48-57.52 128-128 128zM512 160c-123.52 0-224 100.48-224 224s100.48 224 224 224 224-100.48 224-224-100.48-224-224-224z" />
<glyph unicode="&#xe646;" glyph-name="picture" data-tags="picture" d="M827.040 827.52h-642.24c-39.28 0-76.64-30.24-76.64-73.6v-639.2c0-42.32 37.28-81.68 76.64-81.68h642.16c34.24 0 69.6 39.28 69.6 81.68v639.2c0 43.36-35.28 73.6-69.52 73.6zM814.96 345.68c-7.040 11.12-107.84 140.16-152.24 140.16-46.4 0-114.96-75.6-114.96-75.6-5.040 17.12-28.24 44.32-51.44 75.6-74.64 94.8-99.84 105.84-120.96 105.84-22.16-4-45.36-18.16-135.12-166.32-18.16-29.2-32.24-58.48-45.36-79.68v396.16h620v-396.16zM664.72 689.44c-38.32 0-74.64-29.2-74.64-70.56s36.32-75.68 74.64-75.68c42.32 0 77.6 34.24 77.6 75.6s-35.28 70.64-77.6 70.64z" />
<glyph unicode="&#xe647;" glyph-name="gallery" data-tags="gallery" d="M932.96 771.28l-86.16 17.68c-11.84 26-38.96 37.76-69.68 37.76h-103.84l-375.36 82.64c-24.8 5.92-51.92-3.52-73.2-20.080h-8.24c-34.24 2.4-75.52-22.4-83.84-62.56-42.48 0-73.2-36.56-73.2-74.4v-397.76l-27.12-171.12c-2.4-24.8 7.12-50.72 27.12-67.28v-8.24c0-47.2 31.84-77.92 74.4-77.92h401.36l187.68-30.72 38.96-14.16c41.28-3.52 83.84 23.6 90.88 64.96l138.080 633.84c7.12 36.64-18.88 77.92-57.84 87.36zM773.68 338.080c-8.24 12.96-109.76 148.72-152.24 148.72-54.32 0-113.28-82.64-113.28-82.64-9.44 17.68-34.24 46-56.64 82.64-74.4 90.88-102.72 103.84-120.4 103.84-22.4-2.4-48.4-16.56-142.8-171.12-11.84-31.84-30.72-54.32-38.96-81.44v401.36h624.4v-401.36zM623.76 692.24c-41.28 0-74.4-35.44-74.4-73.2 0-43.68 33.040-79.12 74.4-79.12 40.16 0 75.52 35.44 75.52 79.12 0 37.76-35.44 73.2-75.52 73.2z" />
<glyph unicode="&#xe648;" glyph-name="video" data-tags="video" d="M970.24 769.44c-3.52 0.88-9.6 3.52-13.040 3.52-10.48 0-19.2-3.52-23.52-12.16l-215.2-212.56v88.8c0 84.48-69.68 154.16-154.24 154.16h-377.2c-84.48 0-155.040-69.68-155.040-154.16v-377.2c0-84.48 70.56-155.040 155.040-155.040h377.2c84.48 0 154.16 70.56 154.16 155.040v88.88l215.2-217.76c4.32-6.080 13.040-9.6 23.52-9.6 3.52 0 9.6 1.76 13.040 2.64 14.8 6.080 21.76 16.56 21.76 33.12v580.96c0.080 13.92-6.88 24.4-21.68 31.36z" />
<glyph unicode="&#xe649;" glyph-name="headphones" data-tags="headphones" d="M848.24 723.68c-84.16 79.040-207.44 130.4-336.8 130.4-130.4 0-251.52-51.36-339.84-130.4-80.080-77.040-139.6-188.96-139.6-308 0-61.6 11.28-126.32 31.84-177.6l10.24-27.76 107.84-25.68c22.56-58.56 76-108.8 147.84-108.8v-16.4c0-11.28 6.16-17.44 16.4-17.44h33.92c11.28 0 19.52 6.16 19.52 17.44v330.56c0 11.28-8.24 19.52-19.52 19.52h-33.92c-10.24 0-16.4-8.24-16.4-19.52v-16.4c-59.52 0-102.64-27.76-127.28-78l-44.16 9.2c-10.24 40.080-15.44 72.88-15.44 110.88 0 114.96 74.96 222.8 188.88 281.36 114 62.64 245.36 62.64 360.4 0 114-58.56 188.88-166.32 188.88-281.36 0-38-5.12-70.88-16.4-110.88l-41.040-9.28c-26.72 50.32-71.84 78-128.32 78v16.4c0 11.28-8.24 19.52-17.44 19.52h-35.92c-11.28 0-19.52-8.24-19.52-19.52v-330.64c0-11.28 8.24-17.44 19.52-17.44h35.92c9.28 0 17.44 6.16 17.44 17.44v16.4c70.88 0 125.28 50.32 142.72 108.8l107.84 25.68 10.24 27.76c24.64 51.36 35.92 116 35.92 177.6 0 119.2-56.48 231.12-143.76 308.16z" />
<glyph unicode="&#xe64a;" glyph-name="highway" data-tags="highway" d="M577.2 380.72h-129.6c-8.4 0-16 5.92-15.12 14.32v1.68l12.64 169.12c0.88 8.4 8.4 18.48 17.68 18.48h98.4c10.080 0 17.68-10.080 18.48-18.48l12.64-169.12v-1.68c0.88-8.48-7.52-14.32-15.12-14.32zM977.68 209.92l-218.72 551.040c-5.92 13.44-19.36 24.4-35.36 24.4h-178.4c8.4 0 19.36-6.72 19.36-16.8l7.6-100.96c0.88-10.96-6.72-17.68-17.68-17.68h-85.84c-10.080 0-16.8 6.72-16.8 17.68l8.4 100.96c0 10.080 8.4 16.8 19.36 16.8h-180.080c-15.12 0-28.64-10.96-34.48-24.4l-219.6-551.040c-9.2-21.92-13.44-41.28-13.44-62.32 0-25.28 7.6-37.040 26.080-37.040h370.24c-9.28 0-16.8 8.4-16 16.8l10.88 135.52c0 8.4 8.4 16.8 16.8 16.8h144.8c8.4 0 16-8.4 16.8-16.8l10.96-135.44c0.88-8.4-6.72-16.8-16-16.8h370.24c17.68 0 25.28 11.76 25.28 37.040-0.080 20.96-5.12 40.32-14.4 62.24z" />
<glyph unicode="&#xe64b;" glyph-name="airplane" data-tags="airplane" d="M974.4 910.32c-43.84 43.84-153.44 0-219.12-65.76l-109.6-109.6-455.44 108.96c-6.88 2.080-15.040-0.72-20.56-5.44l-87.6-87.68c-4.8-4.8-6.88-12.32-6.16-18.48 1.36-6.88 5.44-13.040 11.68-16.4l347.84-191.12-177.36-177.36-132.88 36.32c-1.36 0.72-3.44 0.72-5.44 0.72-5.44 0-11.68-2.080-15.76-6.16l-65.76-66.4c-4.080-4.8-6.88-10.96-6.16-17.12s3.44-12.32 8.88-15.76l172.56-129.44 129.44-172.56c4.080-5.44 9.6-8.24 16.4-8.88 0.72 0 0.72 0 1.36 0 5.44 0 11.68 2.080 15.76 6.16l65.76 65.76c5.44 6.16 7.52 13.68 5.44 21.2l-36.32 132.88 177.44 177.2 191.040-347.92c2.72-6.16 8.24-9.6 14.4-10.96 2.080-0.72 3.44-0.72 4.8-0.72 4.8 0 9.6 1.36 13.040 4.080l87.68 65.76c6.88 5.44 10.24 14.4 8.24 22.64l-109.6 476.72 110.24 110.24c65.76 65.76 109.6 175.36 65.76 219.12z" />
<glyph unicode="&#xe64c;" glyph-name="beaker" data-tags="beaker" d="M946.4 103.040l-314.4 495.6v249.36h40c21.84 0 40 18.16 40 40s-18.16 40-40 40h-320c-21.84 0-40-18.16-40-40s18.16-40 40-40h40v-249.36l-314.4-495.6c-46.88-74.4-13.76-135.040 74.4-135.040h720c88.16 0 121.28 60.64 74.4 135.040zM459.52 556.16l12.48 19.36v272.48h80v-272.48l12.48-19.36 170-268.16h-444.96l170 268.16z" />
<glyph unicode="&#xe64d;" glyph-name="brush" data-tags="brush" d="M897.68 928c-26.24 0-50.88-11.76-69.68-28.96l-341.68-310.16c-31.6-28.96-49.28-70.72-49.28-113.6 0-90 73.92-167.12 164.48-167.12 45.52 0 84.080 18.24 116.8 48.72 66.96 61.6 207.36 323.6 249.12 402.88 12.88 25.2 24.080 52.48 24.080 80.88-0.080 50.96-45.040 87.36-93.84 87.36zM410.72 374.080c-120.56-5.36-191.76-26.8-237.36-145.68-4.8-12.32-16.080-19.84-29.44-19.84-22.48 0-91.6 55.2-111.44 68.56 0-164.48 78.72-309.12 260.32-309.12 153.2 0 259.28 104.96 256.080 257.68l-0.56 38c-58.8 15.6-109.68 56.32-137.6 110.4z" />
<glyph unicode="&#xe64e;" glyph-name="lightbulb" data-tags="lightbulb" d="M652 648c0 69.36-81.84 100-140 100-10.64 0-20-9.36-20-20s9.36-20 20-20c33.12 0 100-16.88 100-60 0-10.64 9.36-20 20-20s20 9.36 20 20zM752 648c0-40-16.24-81.84-42.48-112.48-11.84-13.76-25.6-26.88-38.16-41.28-44.32-53.12-81.84-115.6-88.080-186.24h-142.56c-6.24 70.64-43.76 133.12-88.16 186.24-12.48 14.4-26.24 27.52-38.16 41.28-26.16 30.64-42.4 72.48-42.4 112.48 0 124.96 126.88 200 240 200s240-75.040 240-200zM832 648c0 170-161.84 280-320 280s-320-110-320-280c0-64.4 21.28-120 64.4-167.52s100-114.4 104.96-181.28c-18.080-10.56-29.36-30.56-29.36-51.2 0-15.040 5.6-29.36 15.6-40-10-10.64-15.6-24.96-15.6-40 0-20.64 10.64-39.36 28.16-50.64-4.96-8.72-8.16-19.36-8.16-29.36 0-40.64 31.84-60 68.16-60 16.24-36.24 52.48-60 91.84-60s75.6 23.76 91.84 60c36.24 0 68.16 19.36 68.16 60 0 10-3.12 20.64-8.16 29.36 17.52 11.28 28.16 30 28.16 50.64 0 15.040-5.6 29.36-15.6 40 10 10.64 15.6 24.96 15.6 40 0 20.64-11.28 40.64-29.36 51.28 4.96 66.88 61.84 133.76 104.96 181.28s64.4 103.040 64.4 167.44z" />
<glyph unicode="&#xe64f;" glyph-name="extinguish" data-tags="extinguish" d="M399.040 833.92c0-20.56-17.040-37.68-37.68-37.68s-37.68 17.040-37.68 37.68 17.040 37.68 37.68 37.68 37.68-17.12 37.68-37.68zM926.080 852.72c0 5.92-2.32 11.2-7.040 14.72-3.52 2.96-7.68 4.080-11.76 4.080-1.2 0-2.32 0-4.080-0.56l-263.52-56.48c-8.24-1.76-14.72-9.44-14.72-18.24h-177.68c5.28 11.76 8.24 24.080 8.24 37.68 0 51.76-42.4 94.080-94.16 94.080s-94.080-42.32-94.080-94.080c0-18.8 5.92-35.92 14.72-50.56-118.24-38.24-177.040-152.32-180-158.24-9.44-18.8-1.76-41.2 16.48-50.56 5.28-2.96 11.2-4.080 17.040-4.080 13.52 0 27.040 7.68 33.52 20.56 0.56 1.2 67.68 130 192.32 130h18.8v-65.28c-76.48-23.52-131.76-95.28-131.76-179.44v-470.56c0-20.56 17.040-37.68 37.68-37.68h301.2c20.56 0 37.68 17.040 37.68 37.68v470.48c0 91.2-64.72 167.040-150.56 184.72v60h150.56c0-8.8 6.48-16.48 14.72-18.24l263.52-56.48c1.76-0.56 2.96-0.56 4.080-0.56 4.080 0 8.24 1.2 11.76 4.080 4.72 3.52 7.040 8.8 7.040 14.72v188.24z" />
<glyph unicode="&#xe650;" glyph-name="globe" data-tags="globe" d="M512 928c-264.96 0-480-215.040-480-480s215.040-480 480-480 480 215.040 480 480-215.040 480-480 480zM683.28 602.4c6.88 4.4 18.16 10 26.88 7.52 6.88-1.84 12.48-4.4 4.4-10-3.76-2.48-9.36 0-13.76-1.28 5.6-1.28 13.76-3.76 11.28-9.36 16.24-9.36-4.96-20.64-15.6-19.36 4.96-0.64-10.64-10-10.64-9.36-5.6-3.12-13.12-3.12-17.52-8.72-4.96-6.88 1.84-18.72-7.52-16.24-3.76-8.16-18.16-3.76-24.4-12.48 6.88-7.52-6.88-18.16-13.76-8.72-6.24-2.48-3.12-9.36-9.36-13.12 2.48-3.76 3.12-7.52-1.28-10 1.28 0.64 8.72-5.6 10.64-6.24-1.28-3.12-3.76-5.6-6.88-5.6 3.12-8.16-3.76-16.88-9.36-21.84-6.24-4.96-20.64-10-22.48-11.28-11.28-10.64-18.72-26.24 1.28-30.64 0.64 0 0.64-20.64 1.28-21.28 1.28-7.52 4.4-29.36-8.72-21.28-6.24 3.12-10 20.64-11.84 27.52-1.84 7.52-2.48 7.52-7.52 15.040-8.16-9.36-9.36-2.48-16.24 1.84-6.88 3.76-16.88 2.48-20.64 6.24-9.36-6.88-16.24-4.96-18.16 5.6-2.48-4.96 2.48-12.48 1.84-14.4-3.12-6.24-8.72-4.96-13.76-1.28-8.16 6.24-25.6-4.4-35.040 0 0.64 0 3.12-2.48 4.96-3.76-1.84-7.52-6.24-3.12-10-5.6-4.4-3.12-8.16-9.36-11.84-12.48 8.16-15.6-0.64-30.64 0-47.52 0-12.48 8.16-34.4 20-41.28 5.6-3.12 24.4-4.4 30-1.84 8.72 3.76 7.52 10.64 10.64 18.16 3.12 8.16 6.88 11.84 16.24 12.48 26.88 1.28 6.24-20.64 3.12-31.84-1.84-8.16-2.48-17.52-3.76-24.96 3.12-1.28 6.24-0.64 9.36-0.64 0 2.48 1.84 5.6 1.84 7.52 3.76-6.24 16.24-8.16 20-0.64 4.4-7.52 13.12-13.12 14.4-21.84s9.36-18.16-2.48-18.16c-8.72 0 1.28-17.52 2.48-20.64 6.88-12.48 18.16-17.52 30.64-11.28 0-4.96-1.84-18.72-8.72-20-6.24-1.28-18.16 11.84-15.6 18.72-0.64-2.48-2.48-4.4-4.4-5.6-6.24 7.52-16.88 11.28-22.48 18.72-1.28 1.84-18.16 27.52-14.4 28.72-8.72-3.76-26.24 2.48-34.4 6.88-13.12 6.88-15.040 24.96-31.28 22.48-11.28-1.84-14.4-6.24-27.52-1.28-8.72 3.12-16.24 9.36-24.96 13.76-10 5.6-27.52 11.28-31.28 23.76-3.76 10-2.48 21.84-8.16 31.28-3.76 6.24-15.040 18.72-23.12 18.72 7.52 0-6.88 18.72-8.72 20.64-6.88 8.16-31.84 30-26.88 42.48 1.28 1.84-12.48 6.88-15.040 7.52 2.48-6.24 3.12-13.12 6.24-18.72 3.12-6.24 6.88-11.84 10.64-18.16 6.88-11.28 16.24-24.96 15.040-38.72-8.16-2.48-5.6 9.36-8.16 14.4-4.4 8.16-16.24 8.16-19.36 16.88 1.28 0.64 1.84 0.64 3.12 1.28 0.64 10.64-15.040 19.36-12.48 26.88-8.72 6.88-8.72 20-15.040 28.72-5.6 8.16-15.040 11.84-23.12 17.52-3.12 1.84-25.6 30.64-17.52 32.48-12.48-3.12-18.72 26.24-16.88 33.76 0 0-1.28 0-1.28 0.64 2.48 7.52-1.84 46.24 8.16 46.88-6.88-0.64-8.72 16.24-6.88 19.36 1.28 2.48 10.64-6.88 11.28-8.16 3.76 1.84 7.52 6.88 6.24 11.28-1.84 4.96-8.72 9.36-13.12 13.12-1.84 1.28-26.88 17.52-27.52 16.88 2.48 4.4 1.84 8.72-1.84 11.84-11.84-9.36-5.6 8.72-11.84 10.64-2.48 0.64-4.96 2.48-7.52 4.96 36.24 57.52 86.88 105.6 146.88 138.72 3.76 0.64 8.72 0.64 13.76 0.64 11.28-1.28 17.52-10.64 25.6-16.24 1.28 3.12-1.28 8.16-3.12 11.28 1.84 4.96 9.36 6.24 13.76 7.52 5.6 0.64 13.76 1.84 18.72-0.64-3.76 5.6-8.16 10.64-12.48 15.6-0.64-0.64-2.48-1.84-3.12-3.12-6.88 5.6-20-1.84-26.24-4.4-4.96-2.48-9.36-5.6-14.4-7.52-3.12-1.28-4.96-1.28-7.52-0.64 18.72 10 38.16 18.72 58.72 25.6 3.76-2.48 7.52-6.88 13.12-11.28-3.76 3.12-3.76-11.28-2.48-13.76 6.88-9.36 21.84-3.12 31.28-3.12-0.64 0 27.52-3.76 21.84 3.12 4.4-6.24 4.4-15.6 10-21.28 5.6 5.6-2.48 11.84 1.28 17.52 1.28 2.48 12.48 5.6 16.24 7.52 4.4 3.12-3.12 7.52-4.96 8.72-6.24 3.76-30.64 5.6-18.72 20 4.4 4.96 20 2.48 24.96-0.64 6.88-3.76 14.4-10.64 4.96-16.88 4.4-0.64 24.96-6.24 21.84-14.4 1.84 3.76 4.96 9.36 10 9.36 5.6-0.64 6.88-13.76 9.36-16.88 8.72-15.6 23.76 15.6 26.24 14.4-11.28 4.4 10 10 15.6 8.16 4.4-1.84 11.28-16.88 3.12-16.24 6.88-6.24 7.52-20-4.96-19.36-8.72 0.64-18.72 12.48-26.88 3.12-5.6-6.24-8.16-15.6-13.76-21.28-8.72-8.72-20.64-8.16-31.28-6.88 4.4-0.64-9.36-15.040-10.64-17.52-3.76-4.4-6.24-9.36-7.52-14.4-1.28-6.24 0-13.12-3.12-19.36 10.64 3.12 16.24-16.24 11.84-16.88 13.12 1.84 23.76 1.84 36.24-2.48 8.72-3.12 21.84-6.88 25.6-16.24 2.48 3.76 14.4 1.84 18.16 0.64 7.52-3.76 8.16-11.84 10-18.72 2.48-9.36 10.64-24.96 21.28-20 1.84 1.28 15.6 7.52 10.64 11.28-4.96 4.4-10.64 15.6-5.6 21.84 4.96 6.88 16.88 8.72 20 17.52 4.96 14.4-15.040 12.48-15.040 23.12 0 6.24 8.16 8.16 7.52 15.6 0 6.24-9.36 18.72-1.84 23.12 6.24 3.76 36.24-2.48 41.84-6.24s23.12-8.72 24.4-14.4c-1.28 0-1.84 0-3.12 0 4.96-4.4 9.36-13.76 0.64-16.24 5.6 1.28 21.84-4.96 10.64-8.72 3.76 1.84 6.88 0.64 10.64 3.12 4.4 2.48 6.88 6.88 12.48 3.76 1.28-0.64 8.16 13.12 11.84 12.48 5.6-0.64 6.88-8.72 9.36-12.48 2.48-5.6 9.36-7.52 11.84-13.12 4.4-10.64 2.48-20.64 16.88-24.4 4.4-1.28 16.24 5.6 15.6-3.76 2.48 2.48 3.76 4.4 3.76 4.96 0.64-8.72 4.4-18.72 15.040-17.52 0 0 0-11.84-1.28-13.76-3.76-5.6-13.12-4.4-18.72-7.52-1.84-0.64-16.88-13.76-15.040-15.6-8.16 9.36-21.28 9.36-31.84 6.88-11.28-1.84-21.84-3.12-32.48-7.52-4.96-2.48-10-4.96-13.76-9.36-1.84-2.48-4.96-13.76-8.16-14.4 6.48 1.44 9.6 8.32 14.64 12.080zM581.36 54.24c-0.64 3.12-1.28 9.36-1.28 10-0.64 10 10 16.88 9.36 26.24-6.88 1.84-8.72 8.72-7.52 16.24 1.28 10.64 10.64 18.16 18.16 24.96s9.36 21.28 7.52 30c-3.12 15.040-3.12 30.64-5.6 45.6 0.64-3.76 11.28-2.48 13.12-7.52 2.48 4.4 3.76 10 6.88 14.4 2.48 3.76 6.88 4.96 10.64 8.16 6.24 3.76 19.36 18.16 26.88 9.36 6.24-7.52-9.36-15.6-1.28-22.48 2.48 4.96 0 12.48 4.96 17.52 10 11.28 16.88-1.28 26.88-4.4 10.64-3.12 14.4-6.88 22.48-13.76-2.48 2.48 10 6.88 11.28 7.52 11.84 2.48 16.88-4.4 24.96-10.64 8.72-6.24 22.48-10.64 21.28-23.12 6.24-1.28 10-3.12 15.040-4.96 4.96-2.48 11.84-1.28 15.6-4.96-57.44-60.64-133.68-103.12-219.36-118.16z" />
<glyph unicode="&#xe651;" glyph-name="sun" data-tags="sun" d="M820.72 448.24c0-170.48-138.32-308.72-308.72-308.72s-308.72 138.32-308.72 308.72 138.24 308.8 308.72 308.8 308.72-138.32 308.72-308.8zM968.72 299.76c1.6 5.36 1.040 11.28-2.16 15.52l-96.48 132.96 96.48 132.96c3.2 4.8 3.76 10.16 2.16 15.52s-5.92 9.12-10.72 10.72l-156.48 51.44v164c0 5.36-2.72 10.72-6.96 13.92-4.8 3.2-10.16 4.32-15.52 2.16l-156.48-50.4-96.64 133.040c-6.4 8.56-21.44 8.56-27.84 0l-96.48-132.96-156.48 50.4c-5.36 2.16-10.72 1.040-15.52-2.16-4.32-3.2-6.96-8.56-6.96-13.92v-164l-156.64-51.52c-4.8-1.6-9.12-5.36-10.72-10.72s-1.040-10.72 2.16-15.52l96.48-132.96-96.48-132.88c-3.2-4.32-3.76-10.16-2.16-15.52s5.92-9.12 10.72-10.72l156.56-51.52v-164c0-5.36 2.72-10.72 6.96-13.92 4.8-3.2 10.16-4.32 15.52-2.16l156.48 50.4 96.48-132.96c3.2-4.32 8.56-6.96 13.92-6.96s10.72 2.72 13.92 6.96l96.56 132.96 156.48-50.4c5.36-2.16 10.72-1.040 15.52 2.16 4.32 3.2 6.96 8.56 6.96 13.92v164l156.48 51.44c4.96 1.68 9.2 5.36 10.88 10.72z" />
<glyph unicode="&#xe652;" glyph-name="location" data-tags="location" d="M672 608c0-88.16-71.84-160-160-160s-160 71.84-160 160 71.84 160 160 160 160-71.84 160-160zM832 608c0 176.88-143.12 320-320 320s-320-143.12-320-320c0-38.16 4.4-77.52 20.64-111.84l228.16-483.76c12.48-27.52 41.28-44.4 71.28-44.4s58.72 16.88 71.84 44.4l227.52 483.76c16.16 34.32 20.56 73.68 20.56 111.84z" />
<glyph unicode="&#xe653;" glyph-name="lifevest" data-tags="lifevest" d="M512 928c-265.2 0-480-214.8-480-480s214.8-480 480-480 480 214.8 480 480-214.8 480-480 480zM512 859.44c69.68 0 135.52-17.68 193.36-48.24l-103.92-103.92c-28.4 9.68-57.84 15.040-89.44 15.040-31.040 0-61.040-5.36-89.44-15.040l-103.92 103.92c57.84 30.56 123.68 48.24 193.36 48.24zM148.8 254.64c-30.56 57.84-48.24 123.76-48.24 193.36s17.68 135.52 48.24 193.36l103.92-103.92c-9.68-28.4-15.040-57.84-15.040-89.44 0-31.040 5.36-61.040 15.040-89.44l-103.92-103.92zM512 36.56c-69.68 0-135.52 17.68-193.36 48.24l103.92 103.92c28.4-9.68 58.4-15.040 89.44-15.040 31.6 0 61.040 5.36 89.44 15.040l103.92-103.92c-57.84-30.56-123.68-48.24-193.36-48.24zM512 242.32c-113.6 0-205.68 92.080-205.68 205.68s92.080 205.68 205.68 205.68 205.68-92.080 205.68-205.68-92.080-205.68-205.68-205.68zM771.28 358.56c9.68 28.4 15.040 58.4 15.040 89.44s-5.36 61.040-15.040 89.44l103.92 103.92c30.56-57.84 48.24-123.76 48.24-193.36s-17.68-135.52-48.24-193.36l-103.92 103.92z" />
<glyph unicode="&#xe654;" glyph-name="rocket" data-tags="rocket" d="M860.24 739.76c0-31.2-25.28-56.48-56.48-56.48s-56.48 25.28-56.48 56.48 25.28 56.48 56.48 56.48c31.2 0 56.48-25.28 56.48-56.48zM992.080 909.2c0 10.56-9.44 18.8-20 18.8-204.72 0-317.040-47.040-464.080-193.52-33.52-34.080-68.24-72.96-103.52-114.72l-223.040-11.76c-5.92-0.56-11.76-4.080-15.28-9.44l-131.76-225.84c-4.080-7.040-2.96-16.48 2.96-22.96l37.68-37.68c3.52-3.52 8.8-5.28 13.52-5.28 1.76 0 3.52 0 5.28 0.56l162.32 50 165.28-165.28-50-162.32c-1.76-6.48 0-13.52 4.72-18.8l37.68-37.68c4.080-3.52 8.8-5.28 13.52-5.28 3.52 0 6.48 0.56 9.44 2.32l225.92 131.76c5.28 3.52 8.8 9.44 9.44 15.28l11.76 222.96c41.76 35.28 80.56 70 114.72 103.52 139.28 140.080 193.44 270.080 193.44 465.36z" />
<glyph unicode="&#xe655;" glyph-name="sticker" data-tags="sticker" d="M892.080 448.16l86.24 84.4c11.84 11.28 16.24 28.16 12.48 43.76-4.4 15.6-16.88 28.16-32.48 31.92l-117.52 29.92 33.12 116.24c4.4 15.6 0 32.48-11.84 43.76-11.28 11.84-28.16 16.24-43.76 11.84l-116.24-33.12-30.080 117.6c-3.76 15.6-16.24 28.16-31.92 31.92-16.24 4.4-32.48 0-43.76-11.84l-84.32-86.96-84.4 86.88c-11.28 11.84-28.16 16.24-43.76 11.84-15.6-3.76-28.16-16.24-31.92-31.92l-30-117.52-116.24 33.12c-15.6 4.4-32.48 0-43.76-11.84-11.84-11.28-16.24-28.16-11.84-43.76l33.12-116.24-117.52-30c-15.6-3.76-28.16-16.24-32.48-31.92-3.76-15.6 0.64-32.48 12.48-43.76l86.24-84.4-86.24-84.32c-11.84-11.28-16.24-28.16-12.48-43.76 4.4-15.6 16.88-28.16 32.48-31.92l117.52-30-33.12-116.24c-4.4-15.6 0-32.48 11.84-43.76 11.28-11.84 28.16-16.24 43.76-11.84l116.24 33.12 30-117.52c3.76-15.6 15.6-28.16 31.92-32.48 15.6-3.76 32.48 0.64 43.76 12.48l84.4 86.24 84.4-86.24c8.16-8.72 20-13.76 31.92-13.76 3.76 0 8.16 0.64 11.84 1.28 15.6 4.4 28.16 16.88 31.92 32.48l30 117.52 116.24-33.12c15.6-4.4 32.48 0 43.76 11.84 11.84 11.28 16.24 28.16 11.84 43.76l-33.12 116.24 117.52 30c15.6 3.76 28.16 16.24 32.48 31.92 3.76 15.6-0.64 32.48-12.48 43.76l-86.24 84.4z" />
<glyph unicode="&#xe656;" glyph-name="bomb" data-tags="bomb" d="M337.92 612.48c7.52-17.68-1.040-37.52-18.72-44.96-60-24.080-108.24-72.32-132.32-132.32-5.92-13.36-18.24-21.44-32.16-21.44-4.32 0-8.56 1.040-12.88 2.64-17.68 6.96-25.68 26.8-18.72 44.48 31.040 77.12 93.2 139.28 170.32 170.32 17.68 6.96 37.52-1.040 44.48-18.72zM842.56 803.2l-130.24-130.72-36.4 36.4c-13.36 13.36-35.36 13.36-48.72 0l-34.32-34.32c-54.080 30-116.8 47.68-183.76 47.68-208.4 0.080-377.12-168.72-377.12-377.12s168.72-377.12 377.12-377.12 377.12 168.72 377.12 377.12c0 66.96-17.68 129.68-47.68 183.76l34.32 34.32c13.36 13.36 13.36 35.36 0 48.72l-36.4 36.4 130.72 130.24-24.64 24.64zM846.8 833.2c6.96 6.4 6.96 17.68 0 24.080l-48.24 48.72c-6.96 6.4-17.68 6.4-24.64 0-6.4-6.96-6.4-17.68 0-24.64l48.72-48.24c3.2-3.2 7.52-5.36 12.32-5.36 4.4 0.080 8.64 2.24 11.84 5.44zM970 710c6.4 6.96 6.4 17.68 0 24.64l-48.72 48.24c-6.4 6.96-17.68 6.96-24.080 0-6.96-6.4-6.96-17.68 0-24.080l48.24-48.72c3.76-3.2 8-4.8 12.32-4.8 4.24-0.16 8.56 1.44 12.24 4.72zM992 808c0 9.68-7.52 17.12-17.12 17.12h-51.44c-9.68 0-17.12-7.52-17.12-17.12s7.52-17.12 17.12-17.12h51.44c9.6 0 17.12 7.44 17.12 17.12zM889.12 910.88c0 9.68-7.52 17.12-17.12 17.12s-17.12-7.52-17.12-17.12v-51.44c0-9.68 7.52-17.12 17.12-17.12s17.12 7.52 17.12 17.12v51.44zM970 881.36c6.4 6.96 6.4 17.68 0 24.64-6.96 6.4-17.68 6.4-24.64 0l-48.24-48.72c-6.96-6.4-6.96-17.68 0-24.080 3.2-3.2 7.52-5.36 12.32-5.36 4.32 0 8.56 2.16 11.76 5.36l48.8 48.16z" />
<glyph unicode="&#xe657;" glyph-name="Jack" data-tags="Jack" horiz-adv-x="962" d="M765.945 233.085l100.19-1.045-0.433-41.542-100.19 1.045 0.433 41.542zM786.358 222.297l62.721-0.648-0.539-52.132-62.721 0.648 0.539 52.132zM630.53-19.195c-37.473 0-74.132 9.776-106.718 28.512-65.171 38.288-100.2 105.903-99.386 192.255 0 87.981 0 144.191 0 191.44 0 76.576 0 133.601 0.815 268.831 0 131.157-85.537 191.44-169.445 191.44 0 0 0 0 0 0-84.722 0-175.147-61.098-175.962-190.625l-1.629-465.158h-40.732l1.629 465.158c0.815 150.708 109.161 231.357 216.694 231.357 0 0 0 0 0 0 101.015 0 209.362-74.132 210.177-232.172-0.815-136.045-0.815-192.255-0.815-268.831 0-47.249 0-103.459 0-192.255-0.815-70.874 27.698-126.269 79.020-156.411 52.137-30.142 119.752-30.956 172.703 0 52.137 29.327 80.649 84.722 80.649 151.523 0 11.405 8.961 21.995 20.366 21.995 0 0 0 0 0 0 11.405 0 20.366-10.59 20.366-21.995 0-81.464-37.473-149.893-101.015-186.552-33.4-18.737-70.059-28.512-106.718-28.512zM853.741 828.843c-0.815-8.961-39.917-43.176-39.917-43.176s-39.917 34.215-39.917 43.176c0 8.961 26.883 43.176 39.917 43.176s39.917-34.215 39.917-43.176zM859.443 535.574h-89.61v259.055l24.439 9.776h38.288l26.883-8.961zM863.516 524.983h-100.2l-49.693-21.995h199.586zM742.95 234.158l143.376-0.815 28.512 261.499h-202.845zM913.209 502.988h-199.586l-3.259-0.815 1.629-7.332h202.845l0.815 8.146z" />
<glyph unicode="&#xe658;" glyph-name="Speaker" data-tags="Speaker" horiz-adv-x="1127" d="M843.084 912.766h-606.023c-49.017 0-89.121-40.104-89.121-89.121v-766.44c0-49.017 40.104-89.121 89.121-89.121h606.023c49.017 0 89.121 40.104 89.121 89.121v766.44c0 49.017-40.104 89.121-89.121 89.121zM209.434 761.26c0 47.234 38.322 85.556 85.556 85.556s85.556-38.322 85.556-85.556-38.322-85.556-85.556-85.556-85.556 38.322-85.556 85.556zM544.529 64.334c-158.635 0-286.97 128.334-286.97 286.97s128.334 286.97 286.97 286.97c158.635 0 286.97-128.334 286.97-286.97s-129.225-286.97-286.97-286.97zM794.068 675.704c-47.234 0-85.556 38.322-85.556 85.556s38.322 85.556 85.556 85.556 85.556-38.322 85.556-85.556-39.213-85.556-85.556-85.556zM629.194 351.304c0-47.234-38.322-85.556-85.556-85.556s-85.556 38.322-85.556 85.556 38.322 85.556 85.556 85.556 85.556-38.322 85.556-85.556zM294.99 736.306c-13.368 0-24.954 10.695-24.954 24.954 0 13.368 10.695 24.954 24.954 24.954 13.368 0 24.954-10.695 24.954-24.954-0.891-13.368-11.586-24.954-24.954-24.954zM818.131 761.26c0-13.368-10.695-24.954-24.954-24.954-13.368 0-24.954 10.695-24.954 24.954 0 13.368 10.695 24.954 24.954 24.954s24.954-11.586 24.954-24.954z" />
<glyph unicode="&#xe659;" glyph-name="monitor" data-tags="monitor" d="M254.72-32c-44.96 0.080-78.4 38.8-78.72 83.68v0 792.64c0.32 44.64 33.76 83.28 78.72 83.68v0h514.8c44.96-0.32 78.4-39.040 78.4-83.68v0-792.64c0-44.88-33.44-83.6-78.4-83.68v0h-514.8zM224.24 844.32v-792.64c0.080-21.36 15.2-35.68 30.56-35.68v0l514.8-0.080c15.12 0.080 30.24 14.48 30.56 35.76v0 792.64c-0.32 21.28-15.44 35.76-30.56 35.76v0h-514.88c-15.36 0-30.48-14.4-30.48-35.76v0zM391.92 668.48c0 66.32 53.76 120.080 120.080 120.080v0c66.32 0 120.080-53.76 120.080-120.080v0c0-66.24-53.76-119.76-120.080-119.76v0c-66.32 0-120.080 53.52-120.080 119.76v0zM440.16 668.48c0-39.68 32.16-71.84 71.84-71.84v0c40 0 71.84 32.16 72.16 71.84v0c-0.32 39.68-32.16 72.16-72.16 72.16v0c-39.68 0-71.84-32.48-71.84-72.16v0zM320.080 274.48c0 106.32 85.92 191.92 191.92 192.24v0c106-0.32 192-86 192-192.24v0c0-106-86-191.92-191.92-191.92v0c-106.080 0-192 85.92-192 191.92v0zM416.24 274.48c0-52.88 42.64-95.84 95.84-95.84v0c53.12 0 96.080 42.96 96.080 95.84v0c0 53.12-42.96 95.84-96.080 96.16v0c-53.2-0.4-95.84-43.040-95.84-96.16v0z" />
<glyph unicode="&#xe65a;" glyph-name="vcard" data-tags="vcard" d="M882.327 818.327h-740.658c-55.753 0-100.998-45.248-100.998-100.998v-504.992c0-55.82 45.248-100.998 100.998-100.998h740.658c55.753 0 100.998 45.18 100.998 100.998v504.992c0 55.753-45.248 100.998-100.998 100.998zM915.995 212.337c0-18.619-15.050-33.666-33.666-33.666h-740.658c-18.619 0-33.666 15.050-33.666 33.666v504.992c0 18.619 15.050 33.666 33.666 33.666h740.658c18.619 0 33.666-15.050 33.666-33.666v-504.992zM440.931 471.094c22.658 18.517 37.404 46.325 37.404 77.904 0 55.753-45.18 100.998-100.998 100.998-55.753 0-100.998-45.248-100.998-100.998 0-31.579 14.78-59.455 37.471-77.904-65.615-21.714-117.293-75.413-134.329-142.61-2.356-4.612-4.075-9.595-4.075-15.116 0-18.619 14.982-33.666 33.599-33.666h336.998c18.619 0 33.599 15.050 33.599 33.666 0 5.52-1.785 10.503-4.141 15.116-17.035 67.164-68.848 120.963-134.53 142.61zM747.663 548.998c18.619 0 33.666 15.050 33.666 33.666s-15.050 33.666-33.666 33.666h-228.189c16.126-17.876 26.193-41.376 26.193-67.333h201.998zM781.33 347.002h-144.362c2.089-6.16 4.209-12.288 5.791-18.55 2.356-4.612 4.141-9.595 4.141-15.116 0-18.619-14.982-33.666-33.599-33.666h168.027c18.619 0 33.666 15.050 33.666 33.666s-15.050 33.666-33.666 33.666zM814.997 481.666h-302.997c35.821-11.818 66.155-36.561 89.349-67.333h213.646c18.619 0 33.666 15.050 33.666 33.666s-15.050 33.666-33.666 33.666z" />
<glyph unicode="&#xe65b;" glyph-name="sliders" data-tags="sliders" d="M252 168h-220v-80h220v80zM472 248h-160c-21.84 0-40-18.16-40-40v-160c0-21.84 18.16-40 40-40h160c21.84 0 40 18.16 40 40v160c0 21.84-18.16 40-40 40zM572 488h-540v-80h540v80zM172 808h-140v-80h140v80zM992 168h-460v-80h460v80zM392 888h-160c-21.84 0-40-18.16-40-40v-160c0-21.84 18.16-40 40-40h160c21.84 0 40 18.16 40 40v160c0 21.84-18.16 40-40 40zM792 568h-160c-21.84 0-40-18.16-40-40v-160c0-21.84 18.16-40 40-40h160c21.84 0 40 18.16 40 40v160c0 21.84-18.16 40-40 40zM992 488h-140v-80h140v80zM992 808h-540v-80h540v80z" />
<glyph unicode="&#xe65c;" glyph-name="Levels" data-tags="Levels" d="M270.336 203.264h107.52v-25.6h-107.52v25.6zM398.336 203.264h107.52v-25.6h-107.52v25.6zM526.336 203.264h107.52v-25.6h-107.52v25.6zM654.336 203.264h107.52v-25.6h-107.52v25.6zM782.336 203.264h107.52v-25.6h-107.52v25.6zM270.336 239.104h107.52v-25.6h-107.52v25.6zM398.336 239.104h107.52v-25.6h-107.52v25.6zM526.336 239.104h107.52v-25.6h-107.52v25.6zM654.336 239.104h107.52v-25.6h-107.52v25.6zM782.336 239.104h107.52v-25.6h-107.52v25.6zM270.336 274.944h107.52v-25.6h-107.52v25.6zM398.336 274.944h107.52v-25.6h-107.52v25.6zM526.336 274.944h107.52v-25.6h-107.52v25.6zM654.336 274.944h107.52v-25.6h-107.52v25.6zM782.336 274.944h107.52v-25.6h-107.52v25.6zM270.336 310.784h107.52v-25.6h-107.52v25.6zM398.336 310.784h107.52v-25.6h-107.52v25.6zM526.336 310.784h107.52v-25.6h-107.52v25.6zM654.336 310.784h107.52v-25.6h-107.52v25.6zM782.336 310.784h107.52v-25.6h-107.52v25.6zM270.336 346.624h107.52v-25.6h-107.52v25.6zM398.336 346.624h107.52v-25.6h-107.52v25.6zM526.336 346.624h107.52v-25.6h-107.52v25.6zM654.336 346.624h107.52v-25.6h-107.52v25.6zM782.336 346.624h107.52v-25.6h-107.52v25.6zM270.336 382.464h107.52v-25.6h-107.52v25.6zM526.336 382.464h107.52v-25.6h-107.52v25.6zM654.336 382.464h107.52v-25.6h-107.52v25.6zM782.336 382.464h107.52v-25.6h-107.52v25.6zM270.336 418.304h107.52v-25.6h-107.52v25.6zM526.336 418.304h107.52v-25.6h-107.52v25.6zM654.336 418.304h107.52v-25.6h-107.52v25.6zM782.336 418.304h107.52v-25.6h-107.52v25.6zM270.336 454.144h107.52v-25.6h-107.52v25.6zM526.336 454.144h107.52v-25.6h-107.52v25.6zM654.336 454.144h107.52v-25.6h-107.52v25.6zM782.336 454.144h107.52v-25.6h-107.52v25.6zM526.336 489.984h107.52v-25.6h-107.52v25.6zM654.336 489.984h107.52v-25.6h-107.52v25.6zM782.336 489.984h107.52v-25.6h-107.52v25.6zM526.336 525.824h107.52v-25.6h-107.52v25.6zM654.336 525.824h107.52v-25.6h-107.52v25.6zM782.336 525.824h107.52v-25.6h-107.52v25.6zM654.336 561.664h107.52v-25.6h-107.52v25.6zM782.336 561.664h107.52v-25.6h-107.52v25.6zM654.336 597.504h107.52v-25.6h-107.52v25.6zM782.336 597.504h107.52v-25.6h-107.52v25.6zM654.336 633.344h107.52v-25.6h-107.52v25.6zM654.336 669.184h107.52v-25.6h-107.52v25.6zM141.824 203.776h107.52v-25.6h-107.52v25.6zM141.824 239.616h107.52v-25.6h-107.52v25.6zM141.824 275.456h107.52v-25.6h-107.52v25.6zM141.824 311.296h107.52v-25.6h-107.52v25.6zM141.824 347.136h107.52v-25.6h-107.52v25.6zM141.824 382.976h107.52v-25.6h-107.52v25.6zM141.824 418.816h107.52v-25.6h-107.52v25.6zM141.824 454.656h107.52v-25.6h-107.52v25.6zM141.824 490.496h107.52v-25.6h-107.52v25.6zM141.824 526.336h107.52v-25.6h-107.52v25.6z" />
<glyph unicode="&#xe65d;" glyph-name="Levels_4" data-tags="Levels_4" d="M277.504 103.936h107.52v-37.888h-107.52v37.888zM405.504 103.936h107.52v-37.888h-107.52v37.888zM533.504 103.936h107.52v-37.888h-107.52v37.888zM661.504 103.936h107.52v-37.888h-107.52v37.888zM277.504 156.672h107.52v-37.888h-107.52v37.888zM405.504 156.672h107.52v-37.888h-107.52v37.888zM533.504 156.672h107.52v-37.888h-107.52v37.888zM661.504 156.672h107.52v-37.888h-107.52v37.888zM277.504 209.408h107.52v-37.888h-107.52v37.888zM405.504 209.408h107.52v-37.888h-107.52v37.888zM533.504 209.408h107.52v-37.888h-107.52v37.888zM661.504 209.408h107.52v-37.888h-107.52v37.888zM277.504 262.144h107.52v-37.888h-107.52v37.888zM405.504 262.144h107.52v-37.888h-107.52v37.888zM533.504 262.144h107.52v-37.888h-107.52v37.888zM661.504 262.144h107.52v-37.888h-107.52v37.888zM277.504 314.88h107.52v-37.888h-107.52v37.888zM405.504 314.88h107.52v-37.888h-107.52v37.888zM533.504 314.88h107.52v-37.888h-107.52v37.888zM661.504 314.88h107.52v-37.888h-107.52v37.888zM277.504 367.616h107.52v-37.888h-107.52v37.888zM533.504 367.616h107.52v-37.888h-107.52v37.888zM661.504 367.616h107.52v-37.888h-107.52v37.888zM277.504 420.352h107.52v-37.888h-107.52v37.888zM533.504 420.352h107.52v-37.888h-107.52v37.888zM661.504 420.352h107.52v-37.888h-107.52v37.888zM277.504 473.088h107.52v-37.888h-107.52v37.888zM533.504 473.088h107.52v-37.888h-107.52v37.888zM661.504 473.088h107.52v-37.888h-107.52v37.888zM533.504 525.824h107.52v-37.888h-107.52v37.888zM661.504 525.824h107.52v-37.888h-107.52v37.888zM533.504 578.56h107.52v-37.888h-107.52v37.888zM661.504 578.56h107.52v-37.888h-107.52v37.888zM661.504 631.296h107.52v-37.888h-107.52v37.888zM661.504 684.032h107.52v-37.888h-107.52v37.888zM661.504 736.768h107.52v-37.888h-107.52v37.888zM661.504 789.504h107.52v-37.888h-107.52v37.888z" />
<glyph unicode="&#xe65e;" glyph-name="Vinyl" data-tags="Vinyl" d="M496.64 919.040c-247.808 0-449.024-201.216-449.024-449.024s201.216-449.024 449.024-449.024 449.024 200.704 449.024 449.024c0 247.808-201.216 449.024-449.024 449.024zM407.552 145.408c-1.536-4.608-5.632-7.168-10.24-7.168-1.024 0-2.048 0-3.072 0.512-107.008 32.768-191.488 115.712-227.328 222.208-2.048 5.632 1.024 11.264 6.656 13.312s11.264-1.024 13.312-6.656c33.28-99.84 113.152-177.664 213.504-208.896 6.144-2.048 9.216-8.192 7.168-13.312zM432.64 225.792c-1.536-4.608-5.632-7.168-10.24-7.168-1.024 0-2.048 0-3.072 0.512-80.896 25.088-145.408 87.552-172.032 168.448-2.048 5.632 1.024 11.264 6.656 13.312s11.264-1.024 13.312-6.656c24.576-74.24 83.968-132.096 158.208-154.624 5.632-2.56 8.704-8.192 7.168-13.824zM496.64 329.728c-77.312 0-140.288 62.976-140.288 140.288s62.976 140.288 140.288 140.288c77.312 0 140.288-62.976 140.288-140.288s-62.976-140.288-140.288-140.288zM739.328 540.16c-1.024-0.512-2.048-0.512-3.072-0.512-4.608 0-8.704 2.56-10.24 7.168-24.576 73.728-83.968 131.584-158.208 154.624-5.632 1.536-8.704 7.68-7.168 13.312s7.68 8.704 13.312 7.168c80.896-25.088 145.408-87.552 172.032-168.448 2.048-5.632-1.024-11.776-6.656-13.312zM819.2 566.272c-1.024-0.512-2.048-0.512-3.584-0.512-4.608 0-8.704 2.56-10.24 7.168-33.28 99.84-113.152 177.664-213.504 208.896-5.632 1.536-8.704 7.68-7.168 13.312s7.68 8.704 13.312 7.168c107.008-32.768 191.488-115.712 227.328-222.208 2.56-5.632-0.512-11.776-6.144-13.824zM496.64 582.144c-61.952 0-112.128-50.176-112.128-112.128s50.176-112.128 112.128-112.128 112.128 50.176 112.128 112.128-50.176 112.128-112.128 112.128zM496.64 428.032c-23.040 0-41.984 18.944-41.984 41.984s18.944 41.984 41.984 41.984c23.040 0 41.984-18.944 41.984-41.984s-18.944-41.984-41.984-41.984z" />
<glyph unicode="&#xe65f;" glyph-name="turntable" data-tags="turntable" d="M512 561.52c-62.72 0-113.52-50.8-113.52-113.52s50.8-113.52 113.52-113.52c62.64 0 113.52 50.72 113.52 113.52 0 62.64-50.88 113.52-113.52 113.52zM512 480.48c-17.92 0-32.48-14.56-32.48-32.48 0-18 14.48-32.4 32.48-32.4 17.92 0 32.48 14.48 32.48 32.4 0 17.84-14.56 32.48-32.48 32.48zM897.76 671.6l-33.040-377.68c-0.72-8.64-4.8-16.48-11.44-22.080l-87.84-73.6c-5.84-4.88-13.2-7.6-20.88-7.6-0.96 0-1.92 0-2.88 0.080-8.64 0.72-16.4 4.8-22 11.44s-8.24 15.12-7.44 23.76c0.72 8.64 4.8 16.48 11.44 21.92l77.6 65.12 32.72 374.48-24.24 2.16 1.44 16.16 5.92 67.36c-79.76 74.88-186.96 120.8-305.040 120.8-246.32-0.080-446-199.68-446-445.92 0-246.32 199.6-445.92 445.92-445.92 246.24 0 445.92 199.6 445.92 445.92 0 81.52-22 157.84-60.16 223.6zM117.84 464.88c-0.16-0.080-0.32-0.080-0.56-0.080-2.48 0-4.64 2-4.88 4.48-0.080 0.64-0.080 0.96-0.080 0.96 0 208.64 169.12 378 377.84 378.16 2.8 0 4.96-2.16 4.96-4.88s-2.24-4.96-4.96-4.96c-203.28-0.16-367.92-164.96-367.92-368.16 0.24-2.72-1.68-5.12-4.4-5.52zM167.28 471.28c0.32-2.56-1.44-5.040-4.080-5.44-0.32-0.080-0.56-0.080-0.88-0.080-2.4 0-4.48 1.68-4.88 4.080-0.16 0.72-0.080 1.36-0.16 1.36 0.080 183.44 148.64 332.16 332.16 332.4v0c2.72 0 4.88-2.16 4.88-4.96 0-2.64-2.16-4.88-4.88-4.88-177.92-0.4-322-144.64-322.16-322.48zM208.080 466.56c-0.24 0-0.48-0.080-0.72-0.080-2.4 0-4.56 1.76-4.88 4.24-0.080 0.8 0 1.12 0 1.12-0.080 158.080 128.16 286.32 286.32 286.56 2.72 0 4.88-2.16 4.88-4.88s-2.16-4.96-4.88-4.96c-152.72-0.16-276.48-124.080-276.48-276.64 0.24-2.72-1.6-5.040-4.24-5.36zM253.76 467.44c-0.4-0.080-0.88-0.16-1.28-0.16-2.16 0-4.16 1.44-4.8 3.68-0.24 0.96-0.16 1.6-0.24 1.6 0 132.88 107.76 240.72 240.72 240.88 2.8 0 4.96-2.24 4.96-4.96s-2.16-4.88-4.96-4.88c-127.52-0.16-230.72-103.52-230.72-230.96 0.080-2.48-1.36-4.64-3.68-5.2zM302.48 473.52c0.24-2.72-1.68-5.2-4.4-5.52-0.16 0-0.32 0-0.56 0-2.48 0-4.64 1.84-4.96 4.32 0 0.080-0.080 0.24-0.080 0.88 0 107.68 87.28 194.96 194.96 195.12 2.72 0 4.96-2.24 4.96-5.040 0-2.64-2.24-4.88-4.96-4.88-102.080-0.080-184.8-82.8-184.96-184.88zM512 299.36c-82 0-148.64 66.56-148.64 148.64 0 82 66.64 148.64 148.64 148.64s148.64-66.64 148.64-148.64c0-82.080-66.64-148.64-148.64-148.64zM909.76 716.4l12.4 142.32-80.72 7.12-5.6-63.84c-85.44 78.16-199.12 126-323.84 126-264.64 0-480-215.36-480-480s215.36-480 480-480 480 215.36 480 480c0 99.36-30.32 191.68-82.24 268.4zM512-16.32c-256 0-464.24 208.32-464.24 464.32s208.24 464.24 464.24 464.24c125.040 0 238.56-49.76 322.080-130.4l-2.080-23.52-4.72-54.16 24.24-2.080-34.72-397.36-82.72-69.36c-6.88-5.68-7.68-15.92-2-22.8 2.88-3.44 6.88-5.36 11.040-5.68 0.48-0.080 0.96-0.080 1.44-0.080 3.68 0 7.36 1.28 10.48 3.84l87.76 73.68c3.52 2.88 5.36 6.88 5.76 11.040l34.96 399.44 0.4 4.64 19.28-1.68c46.16-72.16 73.12-157.76 73.12-249.6-0.080-256.16-208.32-464.48-464.32-464.48z" />
<glyph unicode="&#xe660;" glyph-name="webpage" data-tags="webpage" d="M965 948.6h-906c-20.9 0-38-17-38-38v-924.6c0-20.9 17-38 38-38h906c21 0 38 17 38 38v924.6c0 21-17 38-38 38v0zM128.6 847.2h115.7v-86.8h-115.7v86.8zM428.8 546h-300.2v136.6h300.2v-136.6zM428.8 760.3h-115.7v86.8h115.7v-86.8zM899.9 51.2h-377v794.4h377.1v-794.4z" />
<glyph unicode="&#xe661;" glyph-name="chevupl" data-tags="chevupl" d="M1012 226.9c0-14.7-5.8-29.6-17.1-41-22.6-22.5-59.2-22.5-81.8 0l-401.2 401.2-401.1-401.2c-22.6-22.5-59.3-22.5-81.9 0-22.5 22.6-22.5 59.3 0 81.9l442.2 442.2c22.5 22.6 59.2 22.6 81.8 0l442-442.1c11.3-11.3 17.1-26.1 17.1-41v0z" />
<glyph unicode="&#xe662;" glyph-name="chevrightl" data-tags="chevrightl" d="M290.9-52c-14.7 0-29.6 5.8-41 17.1-22.5 22.6-22.5 59.2 0 81.8l401.2 401.2-401.2 401.1c-22.5 22.6-22.5 59.3 0 81.9 22.6 22.5 59.3 22.5 81.9 0l442.2-442.2c22.6-22.5 22.6-59.2 0-81.8l-442.1-442c-11.3-11.3-26.1-17.1-41-17.1v0z" />
<glyph unicode="&#xe663;" glyph-name="chevdownl" data-tags="chevdownl" d="M12 669.1c0 14.7 5.8 29.6 17.1 41 22.6 22.5 59.2 22.5 81.8 0l401.2-401.2 401.1 401.2c22.6 22.5 59.3 22.5 81.9 0 22.5-22.6 22.5-59.3 0-81.9l-442.2-442.2c-22.5-22.6-59.2-22.6-81.8 0l-442 442.1c-11.3 11.3-17.1 26.1-17.1 41v0z" />
<glyph unicode="&#xe664;" glyph-name="chevleftl" data-tags="chevleftl" d="M733.1 948c14.7 0 29.6-5.8 41-17.1 22.5-22.6 22.5-59.2 0-81.8l-401.2-401.2 401.2-401.1c22.5-22.6 22.5-59.3 0-81.9-22.6-22.5-59.3-22.5-81.9 0l-442.2 442.2c-22.6 22.5-22.6 59.2 0 81.8l442.1 442c11.3 11.3 26.1 17.1 41 17.1v0z" />
<glyph unicode="&#xe665;" glyph-name="dashboard" data-tags="dashboard" d="M902.3 42.5c0.5 0.6-84 87.2-84 87.2-5.2 5.3-5.3 13.8 0 19l31.2 31.4c5.3 5.3 13.8 5.3 19.1 0l75.8-75.7c42.9 73.6 67.6 158.9 67.6 250.1 0 4.4-0.6 8.4-0.6 12.8h-102.2c-7.4 0-13.5 6-13.5 13.5v44.5c0 7.4 6 13.5 13.5 13.5h95.1c-14.3 83.9-49.1 160.5-99.3 224.6l-69.5-69.5c-5.3-5.3-13.8-5.3-19.1 0l-31.5 31.5c-5.3 5.3-5.3 13.8 0 19l71.7 71.9c-84.2 80.4-196.9 131.5-321.3 137.2v-116.1c0-7.4-6-13.5-13.5-13.5h-44.5c-7.4 0-13.5 6-13.5 13.5v114.8c-111.3-10.7-211.7-58.2-289.7-129.9l69.7-69.7c5.3-5.3 5.3-13.8 0-19l-31.4-31.6c-5.3-5.3-13.8-5.3-19.1 0l-68.7 68.7c-53.4-65.4-90.1-144.8-105-231.9h91.1c7.4 0 13.5-6 13.5-13.5v-44.2c0-7.4-6-13.5-13.4-13.5l-98.2-0.2c0-4.4-0.6-8.4-0.6-12.8 0-91.5 25-177.3 68.1-251.2l80.6 70.5c5.6 4.9 14.1 4.3 19-1.3l29.3-33.6c4.9-5.6 4.3-14.1-1.3-19 0 0-86.3-76.9-86-77.5h780.6zM531.5 261.9c-26.8 0-49.2 21.2-50.8 47.8l-178.6 222.5 229.4-168.7c28 0 50.5-22.8 50.5-50.8 0-27.9-22.5-50.8-50.5-50.8z" />
<glyph unicode="&#xe666;" glyph-name="briefcase" data-tags="briefcase" d="M444.2 239.3h-374.4c-8.9 0-17.4 1.2-25.6 3.5v-179.6c0-34.2 27.7-62 62-62h810.8c34.2 0 62 27.7 62 62v179.6c-8.2-2.3-16.7-3.5-25.6-3.5h-374.4c0-0.5 0-1 0-1.5v-40.5c0-18.7-15.1-33.8-33.8-33.8h-67.2c-18.7 0-33.8 15.1-33.8 33.8v40.5c0 0.5 0 1 0 1.5v0zM7.8 703.2v-368.2c0-25.1 14.9-46.7 36.4-56.4 7.8-3.5 16.5-5.5 25.6-5.5h883.6c9.1 0 17.8 2 25.6 5.5 21.4 9.7 36.4 31.3 36.4 56.4v368.2c0 34.2-27.7 62-62 62h-219.9v62.3c0 37.3-30.3 67.6-67.6 67.6h-308.6c-37.3 0-67.6-30.3-67.6-67.6v-62.3h-219.9c-34.2 0-62-27.8-62-62v0zM357.3 782.1v45.4h308.6v-62.3h-308.6v16.9z" />
<glyph unicode="&#xe667;" glyph-name="tackleft" data-tags="tackleft" d="M277.3 586.4c-85.8-17.2-153.1-9.2-170.3 19.8-59.4 89.8 440.9 418.5 497.7 326.1 19.8-29 5.3-95-51.5-162.4l188.8-289.1c83.2 27.7 143.9 25.1 174.3-22.4 30.4-39.6-64.7-133.3-175.6-212.5l109.6-167.7c19.8-30.4 58.1-120.1 44.9-129.4-15.8-11.9-80.5 60.7-103 91.1l-111 167.6c-113.5-71.3-235-116.2-262.7-76.6-31.7 47.5-10.6 106.9 44.9 171.6l-186.1 283.9z" />
<glyph unicode="&#xe668;" glyph-name="caldot" data-tags="caldot" d="M591.1 421.7v0c-29.2 0-52.7-23.5-52.7-52.7 0-29 23.7-52.5 52.7-52.5s52.5 23.5 52.5 52.5c0 29.1-23.5 52.7-52.5 52.7v0zM433.1 474.4c29 0 52.5 23.5 52.5 52.5 0 29.2-23.5 52.7-52.5 52.7s-52.7-23.5-52.7-52.7c0-29.1 23.7-52.5 52.7-52.5v0zM591.1 579.6v0c-29.2 0-52.7-23.5-52.7-52.7 0-29 23.5-52.5 52.7-52.5 29 0 52.5 23.5 52.5 52.5 0 29.2-23.5 52.7-52.5 52.7v0zM643.6 842.8h-263.2v-105.2h263.2v105.2zM748.8 474.4c29 0 52.7 23.5 52.7 52.5 0 29.2-23.5 52.7-52.7 52.7-29 0-52.5-23.5-52.5-52.7 0-29.1 23.5-52.5 52.5-52.5v0zM748.8 316.4c29 0 52.7 23.5 52.7 52.5 0 29.2-23.5 52.7-52.7 52.7-29 0-52.5-23.5-52.5-52.7 0-29 23.5-52.5 52.5-52.5v0zM433.1 316.4c29 0 52.5 23.5 52.5 52.5 0 29.2-23.5 52.7-52.5 52.7-29.2 0-52.7-23.5-52.7-52.7 0-29 23.7-52.5 52.7-52.5v0zM275.2 158.5c29 0 52.7 23.7 52.7 52.7s-23.7 52.5-52.7 52.5c-29 0-52.7-23.5-52.7-52.5 0-29.1 23.6-52.7 52.7-52.7v0zM906.8 842.8h-52.5v-105.2h52.5v-684.3h-789.6v684.2h52.7v105.3h-52.7c-58 0-105.2-47.2-105.2-105.3v-684.3c0-58.2 47.2-105.2 105.2-105.2h789.5c58.2 0 105.2 47 105.2 105.2v684.3c0.1 58.1-46.9 105.3-105.1 105.3v0zM275.2 316.4c29 0 52.7 23.5 52.7 52.5 0 29.2-23.7 52.7-52.7 52.7s-52.7-23.5-52.7-52.7c0-29 23.6-52.5 52.7-52.5v0zM275.2 474.4c29 0 52.7 23.5 52.7 52.5 0 29.2-23.7 52.7-52.7 52.7s-52.7-23.5-52.7-52.7c0-29.1 23.6-52.5 52.7-52.5v0zM433.1 158.5c29 0 52.5 23.7 52.5 52.7s-23.5 52.5-52.5 52.5-52.7-23.5-52.7-52.5c0-29.1 23.7-52.7 52.7-52.7v0zM275.2 737.5c29 0 52.7 23.5 52.7 52.5v105.3c0 29.2-23.7 52.7-52.7 52.7s-52.7-23.5-52.7-52.7v-105.2c0-29.1 23.6-52.6 52.7-52.6v0zM748.8 737.5c29 0 52.7 23.5 52.7 52.5v105.3c0 29.2-23.7 52.7-52.7 52.7s-52.5-23.5-52.5-52.7v-105.2c0-29.1 23.5-52.6 52.5-52.6v0z" />
<glyph unicode="&#xe669;" glyph-name="paperplane" data-tags="paperplane" d="M193.5 248.6l1.7-9.5 39.6-216.4c2.9-16.2 13.7-29.6 28.7-36.2 14.9-6.4 32.3-5.1 45.9 3.8 55.1 35.6 127.3 82.8 125.3 85.5l-241.2 172.8zM52.3 556.1c-21.5-8.3-36.8-27.6-39.7-50.5-3.1-22.9 6.6-45.6 25.3-59.1l204-148.5 725.1 570.4-641.1-631.6 279.1-203c17.6-12.9 40.5-16.9 61.7-10.5 21 6.4 37.8 22.4 45.4 43l298.5 817.1c3.1 8.3 0.9 17.6-5.4 23.8s-15.5 8.1-23.8 4.9l-929.1-356z" />
<glyph unicode="&#xe66a;" glyph-name="users" data-tags="users" d="M632.6 536.4c61.9 39.8 103 109.1 103 188-0.1 123.5-100.2 223.6-223.6 223.6s-223.6-100.1-223.6-223.6c0-79 41.1-148.3 103-188-145.8-13-260.4-135.9-260.4-285v-232l0.6-3.6 16-5c150.6-47.1 281.4-62.8 389.1-62.8 210.3 0 332.2 60 339.8 63.8l14.9 7.5h1.6v232c0 149.2-114.6 272-260.4 285.1v0z" />
<glyph unicode="&#xe66b;" glyph-name="login" data-tags="login" d="M782.8 448c0 11.1-4.6 21.5-12.4 29.3l-354.1 354.2c-7.8 7.8-18.2 12.4-29.3 12.4-22.8 0-41.7-18.9-41.7-41.7v-187.5h-291.6c-22.8 0-41.7-18.9-41.7-41.7v-250c0-22.8 18.9-41.7 41.7-41.7h291.7v-187.5c0-22.8 18.9-41.7 41.7-41.7 11.1 0 21.5 4.6 29.3 12.4l354.2 354.2c7.7 7.8 12.2 18.2 12.2 29.3zM1012 677.2c0 103.5-84 187.5-187.5 187.5h-208.3c-29.3 0-20.8-44.3-20.8-62.5 0-24.1 25.4-20.8 41.7-20.8h187.5c57.3 0 104.2-46.9 104.2-104.2v-458.3c0-57.3-46.9-104.2-104.2-104.2h-208.4c-29.3 0-20.8-44.3-20.8-62.5 0-11.1 9.8-20.8 20.8-20.8h208.3c103.5 0 187.5 84 187.5 187.5v458.3z" />
<glyph unicode="&#xe66c;" glyph-name="logout" data-tags="logout" d="M420.2 101.1c0 23.6-24.9 20.4-40.8 20.4h-183.7c-56.1 0-102 45.9-102 102v449c0 56.1 45.9 102 102 102h204.1c28.7 0 20.4 43.4 20.4 61.2 0 10.8-9.6 20.4-20.4 20.4h-204.1c-101.4 0.1-183.7-82.2-183.7-183.6v-449c0-101.4 82.3-183.7 183.7-183.7h204.1c28.7 0 20.4 43.4 20.4 61.3zM1012 448c0 10.8-4.5 21-12.1 28.7l-347 346.9c-7.7 7.7-17.9 12.1-28.7 12.1-22.3 0-40.8-18.5-40.8-40.8v-183.7h-285.7c-22.3 0-40.8-18.5-40.8-40.8v-244.9c0-22.3 18.5-40.8 40.8-40.8h285.7v-183.7c0-22.3 18.5-40.8 40.8-40.8 10.8 0 21 4.5 28.7 12.1l346.9 346.9c7.7 7.8 12.2 18 12.2 28.8z" />
<glyph unicode="&#xe66d;" glyph-name="key" data-tags="key" d="M697.2 948c-174.2 0-314.9-140.7-314.9-314.8 0-37.1 7.4-73.9 18.4-111l-388.7-389v-185.2h185.2v111.2h111v111h111.2l166.5 166.8c33.5-11.2 70.5-18.7 111.2-18.7 174 0 314.8 140.9 314.8 314.8 0.1 174.2-140.8 314.9-314.7 314.9v0zM789.8 614.7c-63 0-111.2 48.1-111.2 111 0 63 48.3 111.2 111.2 111.2s111-48.3 111-111.2c0-62.9-48.1-111-111-111v0z" />
<glyph unicode="&#xe66e;" glyph-name="tape" data-tags="tape" d="M915.3 60.9h-66.5l-64.5 193.6h-546.5l-64.5-193.6h-64.5c-53.4 0-96.8 43.4-96.8 96.8v580.6c0 53.4 43.4 96.7 96.8 96.7h806.4c53.4 0 96.8-43.3 96.8-96.7v-580.7c0-53.3-43.3-96.7-96.7-96.7v0zM913.2 738.3h-804.4v-419.3h804.5v419.3h-0.1zM850.7 383.5h-677.4v290.3h677.4v-290.3zM318.3 609.8c-44.6 0-80.6-36.1-80.6-80.6s36.1-80.6 80.6-80.6 80.7 36.1 80.7 80.6-36.1 80.6-80.7 80.6zM558.4 560.9h-94.7v-64.5h94.7v64.5zM705.7 609.8c-44.6 0-80.6-36.1-80.6-80.6s36.1-80.6 80.6-80.6c44.5 0 80.6 36.1 80.6 80.6s-36.1 80.6-80.6 80.6zM703.5 496.4c-17.8 0-32.2 14.4-32.2 32.2s14.4 32.2 32.2 32.2 32.3-14.4 32.3-32.2c0-17.8-14.4-32.2-32.3-32.2zM320.5 496.4c-17.8 0-32.2 14.4-32.2 32.2s14.4 32.2 32.2 32.2c17.8 0 32.3-14.4 32.3-32.2s-14.5-32.2-32.3-32.2zM762 222.2l56.5-159.9h-614.9l54.4 159.9h504zM721.7 125.4h32.3v32.2h-32.2v-32.2zM657.2 125.4h32.3v32.2h-32.3v-32.2zM431.4 125.4h159.3v32.2h-159.3v-32.2zM334.6 125.4h32.2v32.2h-32.2v-32.2zM270.1 125.4h32.2v32.2h-32.2v-32.2z" />
<glyph unicode="&#xe66f;" glyph-name="piano" data-tags="piano" d="M986.1 811.2h-948.2c-14.3 0-25.9-11.6-25.9-25.9v-674.6c0-14.3 11.6-25.9 25.9-25.9h948.2c14.3 0 25.9 11.6 25.9 25.9v674.6c0 14.3-11.6 25.9-25.9 25.9v0zM280.4 422.1c14.3 0 25.9 11.6 25.9 25.9v311.4h131.4v-311.4c0-14.3 11.6-25.9 25.9-25.9h22.5v-285.5h-228.2v285.5h22.5zM537.9 422.1h22.5c14.3 0 25.9 11.6 25.9 25.9v311.4h131.4v-311.4c0-14.3 11.6-25.9 25.9-25.9h22.5v-285.5h-228.2v285.5zM63.8 759.4h93.8v-311.4c0-14.3 11.6-25.9 25.9-25.9h22.5v-285.5h-142.2v622.8zM960.2 136.6h-142.2v285.5h22.5c14.3 0 25.9 11.6 25.9 25.9v311.4h93.8v-622.8z" />
<glyph unicode="&#xe670;" glyph-name="waves" data-tags="waves" d="M121.8 370.2v219.6c0 30.3-24.6 54.9-54.9 54.9s-54.8-24.6-54.8-54.9v-219.5c0-30.3 24.6-54.9 54.8-54.9 30.3 0 54.9 24.6 54.9 54.8v0zM298.6 141.6v640.2c0 30.3-24.6 54.8-54.9 54.8s-54.9-24.6-54.9-54.8v-640.2c0-30.4 24.6-54.9 54.9-54.9 30.4-0.1 54.9 24.5 54.9 54.9v0zM475.4 236.1v353.7c0 30.3-24.6 54.9-54.9 54.9s-54.8-24.6-54.8-54.9v-353.7c0-30.3 24.6-54.9 54.8-54.9 30.3 0 54.9 24.6 54.9 54.9v0zM957.1 534.9c-30.3 0-54.8-24.6-54.8-54.8v-304.9c0-30.3 24.6-54.9 54.8-54.9 30.4 0 54.9 24.6 54.9 54.9v304.8c0 30.3-24.6 54.9-54.9 54.9v0zM780.3 919c-30.4 0-54.9-24.6-54.9-54.9v-832.4c0-30.3 24.6-54.8 54.9-54.8s54.8 24.6 54.8 54.8v832.5c0.1 30.3-24.5 54.8-54.8 54.8v0zM603.5 120.2c30.3 0 54.9 24.6 54.9 54.9v528.9c0 30.4-24.6 54.9-54.9 54.9s-54.8-24.6-54.8-54.9v-528.9c-0.1-30.3 24.5-54.9 54.8-54.9v0z" />
<glyph unicode="&#xe671;" glyph-name="stereo" data-tags="stereo" d="M595.1 385.9c0-46.9-38-84.8-84.8-84.8-46.9 0-84.8 38-84.8 84.8s38 84.8 84.8 84.8c46.8 0 84.8-38 84.8-84.8v0zM727.2 602.8c-57.9 57.9-135 89.9-216.9 89.9s-159-31.9-216.9-89.9c-57.9-57.9-89.9-135-89.9-216.9s31.9-159 89.9-216.9c26.2-26.1 68.6-26.2 94.8 0s26.2 68.6 0 94.8c-32.6 32.6-50.6 76-50.6 122.1s18 89.5 50.6 122.1c32.6 32.6 76 50.6 122.1 50.6s89.5-18 122.1-50.6c32.6-32.6 50.6-76 50.6-122.1s-18-89.5-50.6-122.1c-26.2-26.2-26.2-68.6 0-94.8 13.1-13.1 30.3-19.6 47.4-19.6s34.3 6.5 47.4 19.6c57.9 57.9 89.9 135 89.9 216.9-0.1 81.9-32 159-89.9 216.9v0zM862.7 738.4c-194.4 194.4-510.6 194.4-705 0-194.4-194.3-194.4-510.6 0-705 26.2-26.2 68.6-26.2 94.8 0s26.2 68.6 0 94.8c-68.8 68.8-106.7 160.4-106.7 257.7s37.9 188.9 106.8 257.7c142.1 142.1 373.3 142.1 515.4 0 68.8-68.8 106.8-160.4 106.8-257.7s-37.9-188.8-106.8-257.7c-26.2-26.2-26.2-68.6 0-94.8 13.1-13.1 30.3-19.6 47.4-19.6 17.2 0 34.3 6.5 47.4 19.6 194.3 194.4 194.3 510.6-0.1 705v0z" />
<glyph unicode="&#xe672;" glyph-name="signpost" data-tags="signpost" d="M436.2-13.9c0-20.8 16.9-37.6 37.6-37.6h63.4c20.8 0 37.6 16.9 37.6 37.6v168.8h-138.6v-168.8zM574.9 910.4c0 20.8-16.9 37.6-37.6 37.6h-63.4c-20.8 0-37.6-16.9-37.6-37.6v-33h138.7v33zM436.2 554.8h138.7v-77.3h-138.7v77.3zM897.4 830.4c-7.1 9.2-18.2 14.7-29.9 14.7h-545.6c-20.8 0-37.6-16.9-37.6-37.6v-182.8c0-20.8 16.9-37.6 37.6-37.6h545.7c11.7 0 22.8 5.5 29.9 14.7l70.1 91.4c10.3 13.6 10.3 32.3 0 45.8l-70.2 91.4zM574.9 187.1h75.7c20.8 0 37.6 16.9 37.6 37.6v182.9c0 20.7-16.9 37.6-37.6 37.6h-495.6c-11.7 0-22.8-5.5-29.9-14.7l-70.1-91.4c-10.3-13.6-10.3-32.3 0-45.8l70.1-91.4c7.1-9.2 18.2-14.7 29.9-14.7h419.9z" />
</font>
</defs>
</svg>
