<?xml version="1.0" encoding="utf-8"?>
<!-- Generator: Adobe Illustrator 19.2.1, SVG Export Plug-In . SVG Version: 6.00 Build 0)  -->
<svg version="1.1" id="blue" xmlns="http://www.w3.org/2000/svg" xmlns:xlink="http://www.w3.org/1999/xlink" x="0px" y="0px"
	 viewBox="0 0 2048 1536" style="enable-background:new 0 0 2048 1536;" xml:space="preserve">
<style type="text/css">
	.st0{fill:#2957A6;}
	.st1{fill:#2860AD;}
</style>
<rect id="blue_1_" class="st0" width="2048" height="1536"/>
<path id="dot_1_" class="st1" d="M0,1520.3v15.7h11.2C7.7,1530.6,3.9,1525.4,0,1520.3z M98.2,1526c-10.3-36-33.5-73.7-63.4-96.7
	c-29.5-18.8-32.9-0.6-25.9,27.1c8.7,26.9,23.4,56.3,42.7,79.6H100C99.5,1532.7,98.9,1529.3,98.2,1526z M26.8,1400.7
	c27.3,16.9,36.6,3.9,32-25.2c-8.3-33.5-31.3-66.7-58.8-87.7v86.5C8.1,1384.4,17.2,1393.4,26.8,1400.7z M28.8,1240.2
	c-4.1-19.8-14.9-39.1-28.8-55.4v79.9C19.3,1273.1,31.5,1267.3,28.8,1240.2z M6.4,1117.6c-1.2-6.9-3.4-13.7-6.4-20.3v42.7
	C6,1137.2,9.2,1130.5,6.4,1117.6z M3.2,256.7c0.1-4.1-1.1-7.9-3.2-11.5v16.2C1.3,260.1,2.4,258.5,3.2,256.7z M12.6,205.1
	c-0.1-8.2-5.4-15.2-12.6-21v29.5C5.6,212.6,10.1,210.1,12.6,205.1z M22.5,156.2c-0.1-11.3-10.6-20.1-22.5-26.7v35
	C9.7,165.3,18.5,163.6,22.5,156.2z M32.9,109.9C32.8,95.8,15.4,85.9,0,79.1v37C13.3,119,27.2,119.4,32.9,109.9z M0,32.1v36.8
	c15.6,4.7,36.1,8.7,43.6-3C43.5,48.8,16.1,38.1,0,32.1z M0,23.2c14.8,4.9,44.7,15.1,54.6,0.9C54.6,13.8,43.7,5.9,31.8,0H0V23.2z
	 M150.6,1509.5c-29.1-14.7-35.8,0.7-31.8,26.5h61.3C171.4,1525.6,161.5,1516.5,150.6,1509.5z M143.8,1480.9
	c29.1,14.3,39.7-0.3,36.5-30c-7.1-34.1-32-68-61.7-85.9c-27.8-13.5-41.6-5.7-37.1,25.7C89.7,1424.9,113.9,1461.9,143.8,1480.9z
	 M113.5,1339.1c26.6,12.5,43.5,6.6,41.7-24.7c-5.6-32.6-32.1-64.4-60.6-80.1c-20.4-9.5-50.4-12.6-42.1,20.9
	C59.2,1288.1,84.8,1322,113.5,1339.1z M90.8,1210.7c19.7,8.9,51.6,12.5,45.9-20.6c-4.5-31.5-32.5-60.8-59.7-75
	c-17.3-7.7-53.2-16.3-46.2,17C36.8,1164.1,63.1,1195.1,90.8,1210.7z M74.4,1093.6c17.3,7.5,53.7,15.5,49.3-17.1
	c-3.4-30.3-33.1-57.5-58.9-70.4c-14.9-6.4-55-18.5-49.4,13.9C20,1050.9,47.9,1079.5,74.4,1093.6z M63,986.4
	c15.4,6.5,55.2,17.4,52-14.3c-2.5-29.3-33.7-54.5-58.1-66.1c-13.2-5.5-56.1-19.8-52,11.3C8.6,947,37.8,973.6,63,986.4z M55.8,887.8
	c14,5.7,56,18.5,54.2-12c-1.7-28.2-34.3-51.8-57.4-62.3C42.2,809.4,8,797.3,0,812.6v18.3C7.1,856,34.2,877.3,55.8,887.8z M52,796.6
	c13,5.1,56.5,19,55.8-10.1C106,758.7,73.4,738,51,727.7c-8.9-3.4-39.4-14.3-51.1-4.8v28.5C10,771.8,33.9,788.5,52,796.6z M52,648
	c-8.6-3.2-39.9-14.5-52-5.2v27.8c10.2,19,34.3,34.1,51.1,41.4c12.3,4.6,56.5,19.2,57.1-8.5C107,676.9,73.3,657.4,52,648z M55,573.7
	c-9-3.2-44.5-16-55-3.4v20.6c8.8,19.9,35.5,35.6,52.5,42.6c11.8,4.3,56.5,19.3,58.1-7.1C109.3,600.4,75.5,582.4,55,573.7z
	 M59.5,504.2C49.4,500.6,3.3,484,1,508c0.1,24.7,35.5,44.4,54.7,52.1c11.4,4,56.3,19.2,58.8-6C114,529.1,79,512.1,59.5,504.2z
	 M119.8,486.4c-0.3-24.2-35.8-40.1-54.4-47.4c-10.1-3.4-55.8-19.8-59,3c0.4,23.9,35.3,42.2,54.1,49.4
	C71.7,495.2,116.5,510.4,119.8,486.4z M126.2,422.7c0-23.3-36.2-38.4-53.8-45.1c-10-3.3-55.2-19.3-59.3,2.3
	c0.1,23.1,35.6,40.4,53.6,47C77.6,430.6,122.2,445.6,126.2,422.7z M133.5,362.9c0.3-22.5-36.4-36.8-53.3-42.9
	c-12.7-4-51.7-18.3-59.4,1.8c-0.2,22.3,36,38.6,53,44.7C84.6,369.8,128.9,384.6,133.5,362.9z M141.5,306.3
	c0.4-21.7-36.7-35.2-52.7-40.9c-12.8-3.9-51.1-17.8-59.4,1.3c-0.4,21.5,36.2,37,52.4,42.6C95.2,313.4,133.4,326.6,141.5,306.3z
	 M90.5,255.4c13.3,4,51,16.8,59.6-2.5c-0.6-21.6-36.2-33-52.1-39c-12.8-3.8-50.4-17.3-59.3,0.8C39.2,236.7,74.2,249,90.5,255.4z
	 M107.6,165c-12.9-3.7-49.7-16.8-59.1,0.5c0.4,21.2,35.8,33,51.3,38.8c13.3,3.9,50.3,16.4,59.4-2.1
	C158.6,181.4,122.9,170.6,107.6,165z M168.6,154.3c-0.6-20.2-36.3-30.5-51.1-35.7c-12.9-3.6-49.1-16.4-58.9,0.2
	c0.3,20.5,35.9,31.7,50.8,37.1C122.7,159.8,159,172,168.6,154.3z M178.2,108.8c-0.6-19.5-36.4-29.3-50.5-34.1
	c-12.9-3.5-48.4-15.9-58.6,0c0.4,19.8,35.9,30.4,50.3,35.5C132.7,113.8,168.4,125.7,178.2,108.8z M129.7,66.5
	c13.3,3.5,48.2,15.1,58.4-1.1c-0.6-18.9-36.4-28.1-50-32.7c-12.9-3.4-47.8-15.4-58.2-0.2C80.2,51.6,115.9,61.7,129.7,66.5z
	 M140.1,24.9c13.2,3.4,47.6,14.7,58-0.9c-0.4-11.2-13.9-18.8-27.4-24H93.2C101.3,13.6,128.8,21.1,140.1,24.9z M306.5,1515.2
	c-5.6-33.1-30.9-67.2-61.4-81.8c-26.1-13.6-47.6,1.1-41.1,30.6c5.2,25.8,21,53.4,42,72h58.6C306.4,1529.8,307,1522.5,306.5,1515.2z
	 M240.8,1407.3c24.7,12.7,49.8-0.2,45.2-29.6c-4.5-32.2-31.6-63.1-60.7-76.3c-26.9-9.8-47-6.4-45.5,25.9
	C184.8,1359.6,211.9,1393.1,240.8,1407.3z M222.3,1277.6c22.2,8.2,53,6.7,48.9-25.5c-3.6-31.2-32.4-59.5-60-71.3
	c-19.7-6.9-54.7-11.1-49.1,22C166.9,1234.4,194,1264.4,222.3,1277.6z M209,1158.9c19.7,6.7,55.1,10.3,51.9-22.1
	c-2.7-30.2-33.2-56.1-59.4-66.9c-17.5-5.9-56.2-13.4-52,18.9C153.5,1119.4,182,1146.9,209,1158.9z M200.1,1049.8
	c17.8,5.9,56.4,12.3,54.2-19.2c-1.9-29.2-34-53.1-58.8-62.8c-15.7-5.2-57.1-14.8-54.2,16.2C144.4,1013.7,174.4,1039,200.1,1049.8z
	 M194.7,949.2c16.3,5.2,57.1,13.6,56-16.8c-2-28.8-34.3-49.5-58.3-59.2c-14.5-4.6-57.7-15.7-56,14
	C138.9,916,170.4,939.4,194.7,949.2z M192,785.5c-13.5-4.1-57.8-16.1-57.3,12.2c1.6,27.6,34.4,49.8,57.6,58.4
	c15.2,4.7,57.5,14.4,57.4-14.8C248.2,813.5,214.6,794.3,192,785.5z M193.4,703.8c-12.7-3.8-57.8-16.4-58.3,10.6
	c1,26.6,35.2,47.3,57,55.1c14.3,4.3,57.6,14.9,58.5-13C249.6,729.6,214.9,711.8,193.4,703.8z M196.6,627.5
	c-12.2-3.5-57.5-16.4-59.1,9.3c0.5,25.7,35.8,45.1,56.4,52.1c13.6,3.9,57.5,15.2,59.2-11.6C252.3,651.3,217.2,634.8,196.6,627.5z
	 M201,556c-11.8-3.3-57.1-16.3-59.5,8.1c0.8,24.9,35.7,42.7,55.8,49.4c13,3.6,57.3,15.3,59.7-10.3C256.6,578.1,220.6,562.7,201,556z
	 M262.1,533.7c-0.3-24.3-36.8-38.7-55.5-44.8c-11.5-3.1-56.7-16.2-59.9,7.1c0.4,24.1,36.2,40.8,55.3,46.8
	C214.6,546.3,258.9,558.1,262.1,533.7z M268,468.3c-0.1-23.4-37.1-36.9-54.9-42.6c-11.3-3-56.1-15.9-60,6.3
	c0.2,23.3,36.5,39,54.7,44.5C219.9,479.8,264.2,491.6,268,468.3z M220.2,366.2c-11.1-2.8-55.5-15.6-60,5.6
	c-0.1,22.5,36.9,37.2,54.1,42.3c11.9,3,55.9,14.9,60.2-7.4C274.7,384.1,237.2,371.4,220.2,366.2z M281.8,348.6
	c-1-22.5-37-33-53.8-38.6c-13.6-3.4-52-14.8-59.9,5c-0.2,21.7,37.2,35.6,53.6,40.3C233.3,358.1,277.1,369.9,281.8,348.6z
	 M229.6,299.6c14.1,3.4,51.9,13.9,59.9-6.1c-0.9-21.7-37.2-31.6-53.2-36.8c-13.6-3.3-51.3-14.5-59.7,4.4
	C177.3,283.3,213.1,294.2,229.6,299.6z M297.5,241.5c-0.9-21-37.2-30.3-52.7-35.1c-13.5-3.2-50.6-14.2-59.4,3.9
	c0.7,21.4,36.7,31.6,52.5,36.7C251.8,250.3,289,260.6,297.5,241.5z M253.7,158.5c-13.4-3.1-49.9-13.8-59.1,3.5
	c0.7,20.7,36.8,30.3,51.9,35c13.8,3.2,50.5,13.3,59.3-5C304.9,171.7,268.5,163,253.7,158.5z M314.3,145.1
	c-1-19.7-37.3-27.9-51.6-32.1c-13.4-3-49.2-13.4-58.7,3.2c0.8,20,36.8,29.1,51.4,33.5C269.1,152.7,305.2,162.7,314.3,145.1z
	 M323,100.4c-1-19-37.3-26.8-51-30.7c-13.3-2.9-48.5-13.1-58.3,2.8c0.7,19.4,36.8,27.9,50.8,32.1C278.1,107.6,313.5,117.3,323,100.4
	z M281.3,28.4c-13.2-2.8-47.8-12.8-57.8,2.5c0.8,18.8,36.8,26.9,50.3,30.7c13.5,2.8,48.3,12.4,58-3.9
	C329.6,39.3,294.8,32.2,281.3,28.4z M283.1,20.8c13.4,2.8,47.7,12.1,57.5-3.6c-0.9-7.5-7.6-13-15.9-17.2h-87.6
	C246.9,12.1,272.2,17.7,283.1,20.8z M375.6,1490.8c-27.5-11.5-50,5.7-44.6,35.4c0.5,3.2,1.2,6.5,2,9.8h92.4
	C414.2,1515.8,396.1,1498.6,375.6,1490.8z M372.2,1464.5c26.3,10.8,51.8-4.9,48.3-34.5c-3.4-31.9-31-61.7-60.5-72.3
	c-24.6-7-53.6-1.9-48.6,30.8C315.1,1420.5,342.8,1452.9,372.2,1464.5z M357.6,1333.7c24,6.6,54.6,1.8,51.5-30.4
	c-2.7-31-32.1-58-60.1-67.6c-22.1-6.1-55.7-5.5-51.7,26.9C300,1293.8,329.7,1323.2,357.6,1333.7z M347.3,1213.6
	c21.9,5.9,56.3,4.9,54.1-26.9c-2-30.1-33.2-54.6-59.8-63.3c-20.1-5.4-57.2-8-54.2,23.7C290.6,1177.6,319.9,1203.8,347.3,1213.6z
	 M340.6,1103c20.2,5.3,57.4,7.1,56.1-24c-2.2-29.8-33.8-50.7-59.3-59.4c-18.4-4.8-58.1-9.7-56.1,21
	C283.7,1070.3,314.6,1094.1,340.6,1103z M336.8,1000.7c18.7,4.7,58.2,8.7,57.6-21.5c-1.6-28.9-34.7-47.9-58.9-55.9
	c-17.1-4.3-58.6-10.9-57.5,18.7C279.8,970.6,312.1,993.1,336.8,1000.7z M335.3,905.9c17.5,4.3,58.5,9.8,58.7-19.3
	c-1.2-27.9-35.6-45.4-58.4-52.6c-16-3.9-58.8-11.7-58.6,16.7C278.3,878.3,312,898.9,335.3,905.9z M337.4,750.5
	c-14.5-3.3-58.6-12.3-59.4,15c0.8,26.7,35.8,45.8,57.9,52.1c16.5,3.9,58.6,10.5,59.5-17.5C394.5,773.2,359,757,337.4,750.5z
	 M340.5,672.4c-13.8-3.1-58.3-12.5-60,13.6c1.1,25.9,35.9,43.4,57.3,49.2c15.6,3.6,58.6,11.1,60.1-15.8
	C397.2,693.3,361.3,678.4,340.5,672.4z M344.8,599.3c-13.3-2.9-57.9-12.6-60.3,12.3c0.8,25,36.5,41.2,56.8,46.6
	c14.4,3.1,58,11.4,60.4-14.4C401.2,618.5,364.4,604.8,344.8,599.3z M349.9,530.6c-12.8-2.7-57.5-12.6-60.5,11.2
	c0.5,24.2,37,39.3,56.3,44.1c13.8,2.9,57.6,11.5,60.6-13.2C405.9,548.3,368.6,535.6,349.9,530.6z M411.6,505.8
	c-0.2-23.5-38.1-35.3-55.9-39.9c-12.4-2.5-56.9-12.5-60.5,10.2c0.3,23.4,37.5,37.4,55.7,41.9C364.2,520.7,408.1,529.5,411.6,505.8z
	 M417.4,442.8c0.7-22.9-39.3-33.4-55.3-38c-12.1-2.4-56.3-12.4-60.4,9.3c0.1,22.6,37.9,35.7,55.2,39.8
	C369.7,456.5,413.5,465.5,417.4,442.8z M368.9,347.2c-11.8-2.3-55.6-12.2-60.2,8.6c1.1,23,37.3,32.9,54.6,37.9
	c12.5,2.4,56,11.4,60.4-10.3C422.5,360.8,385.8,351.9,368.9,347.2z M370.3,336.6c12.1,2.3,55.4,11.3,60.1-9.6
	c-1.2-21.8-38.1-30.1-54.2-34.4c-14.2-2.7-52.1-11.7-59.9,7.9C317.3,322.7,353.7,332,370.3,336.6z M324,248.2
	c1.1,21.5,37.6,30.1,53.5,34.4c14.5,2.6,51.8,10.8,59.7-8.9c-1.3-21.1-38.1-28.8-53.7-32.8C369.6,238.3,332.3,229.4,324,248.2z
	 M391.3,191.7c-13.9-2.5-50.6-11.2-59.2,6.8c1.1,20.8,37.7,28.9,52.9,32.8c14.3,2.5,51.1,10.6,59.3-8.3
	C443.1,202.7,406.3,195.5,391.3,191.7z M451.7,175c-1.4-19.7-38.1-26.4-52.5-29.9c-13.8-2.4-49.9-11-58.7,6.3
	c1.1,20.1,37.7,27.7,52.4,31.4C406.9,185.1,443.2,193.1,451.7,175z M459.1,129.2c-1.5-19.1-38.1-25.4-52-28.6
	c-13.6-2.3-49.1-10.8-58.3,5.8c1.2,19.5,37.7,26.5,51.8,30C414.7,138.7,450.3,146.6,459.1,129.2z M466.6,85.5
	c-2.7-18.5-37.8-24.2-51.4-27.4c-13.5-2.2-48.4-10.5-57.8,5.4c1.2,18.9,37.6,25.5,51.3,28.7C422.5,94.6,457.6,102.3,466.6,85.5z
	 M423.2,17.7c-13.4-2.1-47.7-10.3-57.2,5.1c2.4,18.3,37.4,24.4,50.7,27.5c13.6,2.2,48.2,9.8,57.4-6.4
	C471.3,26,436.4,20.7,423.2,17.7z M424.7,10.2c13.5,2.1,47.5,9.6,56.8-6c-0.2-1.5-0.7-2.9-1.4-4.2h-90.3
	C401.6,5.7,417,8.4,424.7,10.2z M484.9,1536H505C497.4,1534.2,490.7,1534.3,484.9,1536z M506.9,1510.7c27.6,5.4,53.8-7.1,51.1-39.2
	c-2.5-31.5-30.4-60.2-60.2-68.3c-26.1-5.2-55.1,2.8-51.3,35.6C449.2,1470.4,477.1,1501.7,506.9,1510.7z M496,1379
	c25.5,4.9,55.9-3,53.8-35.1c-1.9-30.8-31.9-56.4-60.1-63.7c-23.8-4.6-56.9-0.7-54,31.7C437.6,1342.8,467.7,1370.8,496,1379z
	 M488.5,1257.8c23.5,4.4,57.3,0.1,56-31.6c-0.6-30.5-34-52.3-60-59.6c-21.9-4.2-58.2-3.2-56,28.5
	C431,1225.4,460.8,1250.1,488.5,1257.8z M483.8,1145.9c21.8,4,58.4,2.4,57.6-28.6c-1.7-29.8-34-49-59.7-55.8
	c-20.2-3.7-58.9-5.1-57.6,25.7C426.1,1116.3,457.5,1139.4,483.8,1145.9z M481.4,1042.3c20.3,3.6,59,4.1,58.9-26
	c-1.3-28.9-35.2-46.2-59.4-52.4c-18.8-3.4-59.4-6.4-58.8,23.3C423.5,1015.5,456.5,1036.4,481.4,1042.3z M480.8,946
	c19,3.3,59.3,5.4,59.8-23.8c-1-27.9-36.2-43.7-59.1-49.3c-17.6-3.1-59.5-7.4-59.7,21.2C422.9,921.7,457.4,940.7,480.8,946z
	 M483.5,788.1c-16.6-2.8-59.5-8.1-60.3,19.3c0.7,26.8,36.5,44.1,58.6,48.9c17.9,3,59.3,6.3,60.4-21.8
	C541.2,807.5,505.4,793.2,483.5,788.1z M486.5,708.6c-15.8-2.6-59.2-8.6-60.6,17.7c1.1,26,36.6,41.7,58.1,46.2
	c17,2.8,59.2,7.1,60.8-20C544,726.3,507.2,713.3,486.5,708.6z M490.3,634.1c-15.1-2.4-58.9-8.9-60.8,16.3
	c0.9,25.1,37.3,39.6,57.7,43.6c16.1,2.6,58.9,7.6,61-18.5C547.6,650.3,509.9,638.4,490.3,634.1z M494.8,564.1
	c-13.9-2.1-58-9.1-60.9,15.1c0.6,24.3,37.9,37.6,57.2,41.3c15.4,2.4,58.6,7.9,61-17.1C551.6,578.9,513.5,568,494.8,564.1z
	 M499.9,498.1c-13.4-2-57.4-9.1-60.8,13.9c0.5,23.5,38.4,35.8,56.7,39.2c14.8,2.2,58.2,8.2,60.9-15.9
	C556.3,511.7,517.6,501.7,499.9,498.1z M505.4,435.9c-13-1.8-56.8-9.2-60.6,12.9c-0.6,23.4,39.7,33.2,56.1,37.2
	c13.8,1.9,57.1,8.2,60.7-14.8C562.1,448.2,521.4,439.6,505.4,435.9z M566.9,410.6c-1.5-22.6-38.9-29.8-55.7-33.6
	c-12.6-1.7-56.2-9.1-60.3,12.1c1.4,23.1,38.3,31.3,55.6,35.3C519.7,426.2,563,432.7,566.9,410.6z M572.5,353.3
	c-1.6-21.9-39-28.5-55.2-32c-12.2-1.6-55.5-9.1-60,11.3c1.4,22.3,38.4,29.9,55,33.6C525.2,367.9,568.2,374.5,572.5,353.3z
	 M518.5,311.1c12.4,1.6,55.2,8.3,59.7-12.1c-1.7-21.1-39.1-27.2-54.6-30.4c-14.6-1.9-51.9-8.8-59.6,10.5
	C465.5,300.6,502.6,307.6,518.5,311.1z M471,228.2c1.5,20.9,38.6,27.3,53.9,30.5c14.8,1.9,51.6,8,59.3-11.4c-1.8-20.4-39.1-26-54-29
	C515.7,216.5,478.9,209.7,471,228.2z M478,179.9c1.6,20.2,38.6,26.1,53.3,29.2c14.5,1.8,50.9,7.9,58.8-10.7
	c-1.9-19.8-39-24.9-53.5-27.7C522.5,168.9,486.3,162.1,478,179.9z M485.1,133.9c1.7,19.5,38.6,25,52.8,27.9
	c14.3,1.7,50.1,7.8,58.3-10.1c-3.1-19.1-38.8-23.7-52.9-26.5C529.3,123.5,493.7,116.8,485.1,133.9z M492.4,90.1
	c2.8,18.9,38.3,23.9,52.2,26.7c14.1,1.6,49.4,7.7,57.7-9.6c-3.2-18.5-38.7-22.7-52.3-25.3C536.2,80.3,501,73.6,492.4,90.1z
	 M608.4,64.8c-3.3-17.9-38.5-21.8-51.7-24.2c-13.6-1.6-48.1-8.1-57,7.8c3,18.3,38.2,22.9,51.6,25.5
	C565.1,75.5,599.9,81.5,608.4,64.8z M506.8,8.4c3.1,17.8,38,22,51.1,24.5c13.7,1.5,47.9,7.5,56.6-8.6c-3.4-17.4-38.3-20.9-51.2-23.2
	C561,0.8,558.2,0.4,555,0h-35.4C514,1.5,509.4,4.1,506.8,8.4z M697.7,1502.1c-1.6-31.3-29.7-58.5-59.6-64.2
	c-27.7-6.7-55.3,10.3-53.6,40.3c1.2,22.8,16.6,45,36.5,57.8h63.3C693.3,1528.1,698.8,1516.3,697.7,1502.1z M636.8,1413.5
	c25.8,5,57.9-9.4,55.8-39.8c-0.4-31.3-32.2-53.8-59.9-59.8c-25.7-5.9-57,6.4-55.9,36.4C577.9,1381.1,608.5,1407.6,636.8,1413.5z
	 M632,1291.4c23.9,4.4,59.3-6,57.6-36.3c0-30.4-34-50.5-60-55.8c-23.4-2.7-58.9,1.4-57.6,33.1C573.9,1262.3,604,1286.4,632,1291.4z
	 M629.2,1178.5c23.2,2.6,59-2.1,58.9-33.2c-1.3-29.8-34.3-47.2-59.9-52.2c-21.7-2.5-59.6-0.6-58.9,30.2
	C570.8,1152.6,602.8,1174,629.2,1178.5z M628,1073.8c21.6,2.4,59.5-0.3,59.9-30.5c-1-28.9-35.6-44.4-59.8-48.9
	c-20.3-2.2-59.9-2-59.8,27.7C569.5,1050.6,603.1,1069.7,628,1073.8z M629.2,902.5c-19-2.1-60-3.2-60.5,25.5
	c0.9,27.7,36,44.8,59.5,48.5c20.3,2.2,59.8,1.1,60.5-28.1C687.7,920.4,652.2,906.6,629.2,902.5z M631.2,816.5
	c-17.9-1.9-59.9-4.1-60.9,23.5c1.3,26.8,36.5,42.2,59.2,45.6c19.1,2,59.8,2.2,61-26C689.6,832.6,653,820.2,631.2,816.5z M634,736
	c-17-1.8-59.6-4.7-61.1,21.8c1.1,26,37.4,39.9,58.8,43c18.1,1.8,59.6,3.1,61.2-24.1C692.1,750.5,654.6,739.4,634,736z M637.3,660.5
	c-16.2-1.6-59.2-5.2-61.2,20.2c1,25.2,38.1,37.8,58.4,40.6c17.2,1.7,59.3,3.8,61.3-22.4C695.1,673.6,656.8,663.6,637.3,660.5z
	 M641.1,589.4c-15.5-1.5-58.8-5.6-61.1,18.8c0.8,24.4,38.8,35.8,57.9,38.4c16.4,1.6,58.9,4.3,61.2-20.9
	C698.5,601.2,659.7,592.2,641.1,589.4z M645.4,522.5c-14.9-1.4-58.2-5.9-60.9,17.6c0.7,23.6,39.3,34,57.5,36.3
	c15.7,1.5,58.5,4.7,61-19.5C703,532.9,662.1,525.6,645.4,522.5z M649.9,459.3c-13.8-1.2-57.2-6-60.6,16.5
	c-0.3,23.6,40.6,31.4,57,34.4c16.7,1.5,55.9,5,60.7-18.3C707.1,468.7,665.8,462.1,649.9,459.3z M654.6,399.5
	c-13.3-1.1-56.5-6.1-60.3,15.4c1.7,23.1,39.2,29.6,56.4,32.7c16.2,1.4,55.2,5.2,60.4-17.2C709.3,407.8,671.4,402.4,654.6,399.5z
	 M715.5,372.3c-2-21.9-39.9-26.7-56-29.4c-12.8-1.1-55.8-6.2-59.9,14.5c1.8,22.3,39.3,28.2,55.9,31.1
	C669,389.6,711.7,393.9,715.5,372.3z M720,317.2c-2.2-21.1-39.9-25.5-55.4-27.9c-12.4-1-55.1-6.2-59.4,13.7
	c1.9,21.6,39.4,26.9,55.3,29.6C673.5,333.5,716,338,720,317.2z M610.8,251.2c2,20.9,39.5,25.7,54.8,28.1c15.2,1.2,52,5.4,59-14.4
	c-2.3-20.4-39.9-24.3-54.9-26.6C655,237.1,618.2,232.2,610.8,251.2z M616.6,202.1c2.1,20.2,39.4,24.5,54.2,26.8
	c14.9,1.1,51.2,5.4,58.5-13.7c-2.4-19.7-39.9-23.2-54.3-25.4C660.5,188.7,624.2,183.7,616.6,202.1z M622.4,155.3
	c3.3,19.5,39.2,23.4,53.6,25.6c14.6,1.1,50.4,5.4,58-13c-3.6-19-39.6-22.1-53.7-24.2C666,142.6,630.2,137.6,622.4,155.3z
	 M628.2,110.7c3.4,18.9,39.1,22.4,53,24.5c14.3,1,49.7,5.4,57.4-12.3c-3.7-18.4-39.4-21.2-53.1-23.2
	C671.5,98.7,636.3,93.7,628.2,110.7z M634,68.1c3.5,18.3,38.9,21.4,52.5,23.4c14,1,48.9,5.4,56.8-11.7C739.4,62,704,59.5,690.8,57.7
	C677,56.7,642.3,51.7,634,68.1z M748,38.8c-4-17.3-39.1-19.4-52-21.2c-13.6-1-47.7-5.9-56.1,9.9c3.7,17.7,38.8,20.5,51.9,22.4
	C705.6,50.8,739.9,55.3,748,38.8z M752.3,0h-97.2c12.2,7.2,32.7,8.8,41.9,10.1C710.4,11,743.7,15.4,752.3,0z M839,1521.7
	c0.1-31.8-29.6-55.7-58.9-60c-28.7-4.6-56.5,14.8-55.6,44.9c0.3,10.3,3.6,20.4,9,29.3h104C838.7,1531.5,839.2,1526.7,839,1521.7z
	 M779.5,1437.2c26.8,3.1,58.8-13.9,57.4-44.4c0.4-31.2-31.9-51.9-59.4-55.7c-26.8-4.1-57.9,11-57.5,41
	C721.7,1408.4,750,1434,779.5,1437.2z M777.1,1314.4c25,2.8,60-10.6,58.8-40.8c0.6-30.4-34-48.5-59.8-51.8c-25-3.6-58.8,8-58.9,37.6
	C718.8,1289.2,749.3,1311.6,777.1,1314.4z M776.1,1200.8c23.3,2.5,60.8-7.9,59.9-37.6c-0.9-29.8-34.5-45.2-60-48.4
	c-23.3-3.2-59.4,5.6-59.9,34.6C717.4,1178.7,749.8,1198.2,776.1,1200.8z M776.1,1095.4c23.3,2.4,59.2-5.8,60.6-34.8
	c-0.9-28.9-35.8-42.4-60-45.2c-21.5-1-60.2,2.2-60.6,32C717.2,1075.9,751.4,1093.1,776.1,1095.4z M778.2,922.6
	c-20.2-0.9-60.3,0.9-61,29.7c1.4,27.7,36,42.9,59.8,45c22,2.1,59.4-4.1,61.1-32.3C837.2,937,800.9,925.2,778.2,922.6z M780.1,835.9
	c-19-0.8-60.2-0.1-61.3,27.6c1.3,26.9,37.2,40.3,59.6,42.2c20.2,0.8,60-1.8,61.3-30C839,848.5,801.6,838.2,780.1,835.9z
	 M782.6,754.6c-18-0.8-59.9-1-61.4,25.7c1.2,26.1,38.1,38,59.3,39.7c19.1,0.8,59.9-0.7,61.4-28C841.2,765.8,802.9,756.7,782.6,754.6
	z M785.4,678.4c-17.1-0.7-59.5-1.6-61.3,24c1.1,25.3,38.9,35.8,59,37.4c18.1,0.7,59.6,0.1,61.4-26.2
	C843.6,688.2,804.6,680.3,785.4,678.4z M788.4,606.6c-16.3-0.7-59-2.2-61.1,22.5c0.9,24.5,39.7,33.9,58.6,35.3
	c17.2,0.7,59.1,0.8,61.2-24.5C847,614.9,805.9,608.9,788.4,606.6z M791.7,538.9c-15.6-0.7-58.4-2.6-60.8,21.1
	c0,24.5,41,31,58.2,33.4c16.4,0.6,58.7,1.4,60.9-23.1C849.8,546.3,808.3,541.1,791.7,538.9z M795.2,475.1
	c-16.6-0.7-55.9-3-60.5,19.9c0,23.7,41.5,29.4,57.7,31.6c15.7,0.6,58.1,1.8,60.6-21.7C852.8,481.6,810.9,477,795.2,475.1z
	 M798.8,414.7c-16.1-0.6-55.1-3.2-60.1,18.7c2.1,23.1,40.1,27.8,57.2,29.9c16.7,0.6,55.4,2.2,60.2-20.5
	C853.8,420.2,815.4,416.6,798.8,414.7z M802.5,357.5c-13.4-0.4-56-3.3-59.6,17.7c2.2,22.3,40.2,26.4,56.6,28.4
	c16.2,0.6,54.7,2.5,59.7-19.4C856.8,362.4,818.4,359.3,802.5,357.5z M806.3,303.2c-12.9-0.4-55.3-3.5-59.1,16.7
	c2.3,21.6,40.3,25.1,56.1,27c13.4,0.4,55.7,2.6,59.2-18.3C859.8,307.5,821.6,304.9,806.3,303.2z M810.1,251.7
	c-15.1-0.5-51.8-3.6-58.6,15.9c2.5,20.9,40.3,23.9,55.5,25.7c12.9,0.4,55,2.8,58.7-17.4C862.9,255.5,824.9,253.3,810.1,251.7z
	 M755.9,217.7c2.6,20.2,40.3,22.8,55,24.4c15.2,0.4,51.4,2.9,58.1-16.5c-4-19.6-40.5-21.4-55-23C799.2,202.2,762.9,199,755.9,217.7z
	 M760.3,170.3c3.8,19.4,40,21.7,54.4,23.3c14.8,0.4,50.6,3,57.6-15.7c-4.1-18.9-40.4-20.4-54.4-21.9
	C803.3,155.6,767.5,152.3,760.3,170.3z M764.7,125.1c4,18.8,39.9,20.7,53.8,22.2c14.5,0.4,49.9,3.1,57-15
	c-4.3-18.3-40.2-19.5-53.9-20.9C807.4,111.1,772.1,107.7,764.7,125.1z M769.1,82c4.1,18.2,39.7,19.8,53.2,21.2
	c14.2,0.4,49.1,3.2,56.4-14.3c-4.5-17.7-40-18.7-53.3-20C811.5,68.6,776.7,65.2,769.1,82z M881.9,47.6
	c-4.6-17.2-39.8-17.9-52.7-19.1c-13.7-0.4-48-3.9-55.7,12.4c4.2,17.6,39.5,19,52.6,20.3C840.1,61.5,874.5,64.5,881.9,47.6z
	 M777.8,1.5c4.4,17.1,39.2,18.2,52.1,19.4c13.7,0.3,47.6,3.3,55.1-13c-0.9-3.2-3-5.8-5.7-7.9H778.7C778.4,0.5,778.1,1,777.8,1.5z
	 M981.2,1530.5c1-31.6-28.8-53.7-57.8-55.7c-29.5-2.4-57.3,19.1-57.3,49.5c0.2,4,0.8,7.9,1.7,11.8H981
	C981.2,1534.2,981.2,1532.3,981.2,1530.5z M923.3,1349.7c-27.6-2.1-58.5,15.4-58.8,45.5c1.1,30,29.5,54.1,58.8,54.9
	c27.6,1,59.3-18.1,58.8-48.9C983.2,1370.1,950.5,1351.4,923.3,1349.7z M923.9,1233.9c-25.9-1.9-59.3,12.4-59.9,42
	c0.9,29.7,31.8,50.2,59.4,50.9c25.8,1,60.4-15,59.9-45.2C984.5,1251.3,949.2,1235.5,923.9,1233.9z M924.9,1126.5
	c-24.3-1.6-59.7,9.9-60.6,38.9c0.8,29.2,33.8,46.7,59.8,47.4c24.1,0.9,61-12.2,60.6-41.9C986,1141.4,948.5,1127.8,924.9,1126.5z
	 M926.3,1026.6c-23.3-1.5-59.3,7.9-61.1,36.2c1.3,28.4,35.1,43.6,60,44.2c24.2,0.8,59.4-10,61.1-38.9
	C985.6,1039.2,950,1027.8,926.3,1026.6z M927.9,933.3c-22-1.3-59.3,6.3-61.4,33.7c1.3,27.7,36.6,40.8,60,41.3
	c22.9,0.7,59.5-8.1,61.4-36.3C987.2,944,950.2,934.5,927.9,933.3z M929.8,846.2c-19.9,0.3-60.3,3.7-61.5,31.5
	c1.2,26.9,37.8,38.2,59.9,38.7c21.6,0.6,59.4-6.6,61.5-33.9C989,855.3,950.9,847.2,929.8,846.2z M931.9,764.4
	c-18.9,0.3-60,2.7-61.4,29.5c1.2,26.1,38.9,35.9,59.8,36.3c19.8-0.4,59.9-4.4,61.4-31.8C990.8,772.2,951.7,765.3,931.9,764.4z
	 M934.1,687.7c-17.9,0.3-59.6,1.9-61.3,27.7c1.3,25.3,39.8,33.7,59.5,34.1c18.8-0.4,59.6-3.4,61.3-29.8
	C993.3,693.7,952.1,689.2,934.1,687.7z M936.3,615.5c-17,0.2-59.1,1.2-61,26c0.2,25.5,41.4,30.6,59.1,32.1
	c17.8-0.3,59.2-2.6,61-28.1C995.2,620.6,953.4,616.9,936.3,615.5z M938.7,547.5c-16.2,0.2-58.5,0.6-60.7,24.5
	c0.3,24.6,41.9,28.9,58.7,30.3c17-0.3,58.7-1.9,60.7-26.5C997,551.7,954.8,548.7,938.7,547.5z M941.1,483.2
	c-17.1,0.2-56,0.1-60.2,23.1c0.3,23.7,42.4,27.3,58.3,28.6c16.2-0.3,58.1-1.3,60.3-25C996.9,486.6,958,484.4,941.1,483.2z
	 M943.5,422.4c-16.6,0.2-55.2-0.3-59.8,21.9c2.5,23.1,41,25.8,57.8,27.1c17.2-0.3,55.5-0.8,59.8-23.7
	C998.7,425.2,959.8,423.5,943.5,422.4z M945.9,364.9c-16.1,0.2-54.5-0.7-59.3,20.7c2.6,22.3,41.1,24.5,57.3,25.6
	c16.6-0.2,54.8-0.3,59.3-22.4C1000.4,367.1,961.6,365.9,945.9,364.9z M948.4,310.3c-13.3,0.2-55.4-0.8-58.8,19.7
	c2.8,21.5,41.2,23.2,56.8,24.3c16.1-0.2,54,0,58.8-21.3C1002.1,312,963.5,311.2,948.4,310.3z M950.8,258.4
	c-15.4,0.2-52-1.1-58.2,18.7c3,20.8,41.2,22.1,56.2,23.1c13.2-0.3,55,0.1,58.2-20.2C1002.7,259.9,965.6,259.4,950.8,258.4z
	 M953.2,209.1c-15,0.2-51.2-1.3-57.6,17.8c4.2,20,40.9,20.9,55.7,21.9c15.4-0.3,51.5,0.5,57.6-19.3
	C1004.4,210.2,967.6,210,953.2,209.1z M955.6,162.1c-14.7,0.2-50.4-1.4-57.1,17c4.4,19.3,40.8,20,55.1,20.9
	c15-0.3,50.8,0.7,57.1-18.3C1006,162.9,969.6,163,955.6,162.1z M956.1,153.5c14.6-0.3,50,0.9,56.5-17.5
	c-4.9-18.1-40.9-17.8-54.5-18.6c-14.3,0.2-49.6-1.6-56.5,16.2C906.1,152.2,942.2,152.6,956.1,153.5z M958.4,109.1
	c14.3-0.3,49.2,1.1,55.8-16.7c-5.1-17.5-40.7-17-54-17.7c-14,0.2-48.9-1.7-55.8,15.5C909.2,108.2,944.9,108.3,958.4,109.1z
	 M960.8,66.7c14-0.2,48.5,1.2,55.2-16c-5.2-17-40.4-16.2-53.4-16.9c-13.8,0.2-48.1-1.8-55.2,14.8C912.3,66.1,947.6,66,960.8,66.7z
	 M910.3,8.9c5,16.9,39.9,16.6,52.8,17.3c13.7-0.2,47.7,1.3,54.6-15.3c-1.7-5.2-6.3-8.6-12.2-10.9h-85.6
	C915.6,2.1,912.1,4.9,910.3,8.9z M1123.6,1528.3c1.9-31.5-27.9-51.6-56.5-51.4c-30.2,0-57.8,23.3-58.7,54c0,1.7,0.1,3.4,0.3,5.1
	H1123C1123.3,1533.5,1123.6,1530.9,1123.6,1528.3z M1067.5,1452.3c28.2-1.1,59.7-22.4,59.8-53.3c1.9-30.9-31.3-47.6-57.8-47.3
	c-28.4,0-58.7,19.5-59.8,49.9C1010.1,1431.5,1038.6,1453.7,1067.5,1452.3z M1071.9,1235.8c-26.6,0-59.5,16.6-60.6,46.3
	c0.3,29.5,31.7,48.1,58.7,46.8c26.4-1,60.5-19.1,60.6-49.5C1132.5,1249.1,1096.6,1235.4,1071.9,1235.8z M1074.1,1128.2
	c-25,0-59.8,14-61.1,43.1c0.3,29,34,44.5,59.3,43.3c24.8-0.9,61.1-16.4,61.1-46.1C1135.2,1139,1097.1,1127.9,1074.1,1128.2z
	 M1076.1,1028.1c-24.1,0.1-59.3,12-61.4,40.2c1,28.4,35.4,41.4,59.7,40.3c23.3-0.8,61.4-14.1,61.4-43
	C1135.5,1036.7,1099.2,1027.8,1076.1,1028.1z M1078,934.7c-22.7,0.1-59.3,10.2-61.5,37.6c1.1,27.7,37.1,38.5,60,37.5
	c23.5-0.8,59.5-12,61.5-40.2C1137.4,941.6,1099.7,934.4,1078,934.7z M1079.8,847.3c-21.5,0.1-59.1,8.7-61.4,35.3
	c1.2,26.9,38.5,35.9,60,35c22.2-0.7,59.4-10.3,61.4-37.7C1139.8,852,1099.4,848,1079.8,847.3z M1081.4,765.5
	c-20.4,0.1-58.8,7.4-61.3,33.2c0.2,27.4,40.5,32,59.9,32.7c21.1-0.7,59.1-8.9,61.3-35.4C1141.2,769,1099.9,766,1081.4,765.5z
	 M1083,688.6c-18.5,1.3-59.4,5.3-61,31.2c0.3,26.4,41.4,30,59.8,30.6c20-0.6,58.8-7.6,61-33.4C1142.4,691.2,1100.4,689.1,1083,688.6
	z M1084.4,616.3c-17.6,1.2-59,4.5-60.7,29.4c0.4,25.5,42.2,28.3,59.5,28.8c18.3-1.4,59.1-6,60.7-31.5
	C1143.4,618.1,1100.9,616.7,1084.4,616.3z M1085.8,548.1c-16.8,1.1-58.4,3.8-60.3,27.8c0.5,24.6,42.8,26.6,59.2,27.1
	c17.4-1.3,58.6-5.2,60.3-29.8C1144.3,549.2,1101.5,548.4,1085.8,548.1z M1087.1,483.7c-16,1-57.9,3.2-59.8,26.3
	c0.7,23.7,43.2,25.1,58.8,25.5c16.6-1.2,58-4.4,59.8-28.2C1143.1,484.2,1103.6,484,1087.1,483.7z M1088.3,422.8
	c-17,1.1-55.2,2.5-59.3,25c2.8,23,41.8,23.7,58.3,24.1c17.5-1.2,55.4-3.7,59.3-26.7C1143.6,422.8,1104.2,423.1,1088.3,422.8z
	 M1089.5,365.2c-16.4,1-54.4,2.1-58.8,23.7c3.1,22.2,41.9,22.4,57.8,22.8c16.9-1.1,54.7-3.1,58.8-25.4
	C1144,364.7,1104.9,365.4,1089.5,365.2z M1090.6,310.5c-15.9,0.9-53.7,1.6-58.2,22.5c3.3,21.4,42,21.2,57.3,21.5
	c16.4-1,54-2.6,58.2-24.1C1146.1,309.9,1103,310.7,1090.6,310.5z M1091.6,258.6c-13,0.8-54.7,1.6-57.7,21.5
	c4.6,20.5,41.8,20.1,56.8,20.4c15.9-1,53.3-2.2,57.7-23C1143.6,257.5,1106.3,258.8,1091.6,258.6z M1092.6,209.2
	c-15.2,0.9-51.2,1.1-57.1,20.4c4.8,19.8,41.7,19,56.3,19.4c15.6-1,51.5-2,57.1-21.9C1143.8,207.9,1106.8,209.4,1092.6,209.2z
	 M1093.6,162.1c-14.8,0.9-50.4,0.8-56.5,19.5c5,19.1,41.5,18.1,55.7,18.4c15.1-1,50.7-1.6,56.5-20.9
	C1144,160.6,1107.4,162.3,1093.6,162.1z M1094.5,117.3c-14.4,0.8-49.6,0.6-55.8,18.6c5.1,18.5,41.3,17.2,55.1,17.5
	c14.8-0.9,50-1.4,55.9-20C1144.1,115.5,1108,117.5,1094.5,117.3z M1095.4,74.5c-14.1,0.8-48.9,0.4-55.2,17.8
	c5.3,17.9,41.1,16.4,54.5,16.6c14.4-0.9,49.2-1.1,55.2-19.1C1144.2,72.6,1108.5,74.6,1095.4,74.5z M1096.2,33.6
	c-13.8,0.8-48.1,0.2-54.6,17.1c5.5,17.3,40.8,15.7,53.9,15.9c14-0.8,48.5-0.9,54.6-18.3C1144.3,31.5,1109.1,33.7,1096.2,33.6z
	 M1043,10.9c5.6,16.7,40.5,15,53.4,15.1c13.7-0.8,47.7-0.6,54-17.6c-1.4-3.7-4.3-6.4-8.1-8.5h-86.6C1049.7,2.3,1045,5.8,1043,10.9z
	 M1265.5,1515.2c2.9-31.1-27.1-49.4-55-47c-30.5,2.4-58.1,27.4-59.9,58.4c-0.1,3.2,0.2,6.3,0.7,9.4h108.9
	C1263.2,1529.4,1265.1,1522.3,1265.5,1515.2z M1215.6,1343.1c-28.8,2.2-58.8,23.7-60.6,54.2c-0.4,29.6,28.4,49.9,56.6,46.3
	c28.5-3.3,59.8-26.6,60.7-57.6C1275,1355.1,1241.5,1340.9,1215.6,1343.1z M1219.8,1227.2c-27.2,2-59.3,20.6-61.1,50.5
	c-0.2,29.4,31.4,45.8,57.8,42.5c26.8-3,60.5-23.2,61.1-53.7C1280.1,1236.3,1243.7,1225.3,1219.8,1227.2z M1223.1,1119.8
	c-25.6,1.9-59.6,17.9-61.4,47.2c0,29,34.1,42.1,58.7,39.2c26.6-2.9,59.2-20.3,61.4-50.1C1284.1,1126.4,1245.2,1118,1223.1,1119.8z
	 M1225.8,1019.8c-24.6,1.7-59.2,15.8-61.5,44.2c0.8,28.4,35.8,38.9,59.3,36.2c25.1-2.6,59.4-17.8,61.4-46.9
	C1285,1024.4,1248,1018.1,1225.8,1019.8z M1227.9,926.6c-23.3,1.6-59.1,13.9-61.4,41.4c1,27.7,37.6,36,59.7,33.6
	c23.9-2.4,59.2-15.8,61.4-44C1288,928.7,1248,926.1,1227.9,926.6z M1229.6,839.4c-22,1.5-58.9,12.3-61.2,38.9
	c0,28.3,40,31.6,59.9,31.2c22.7-2.2,59.1-14,61.2-41.4C1289.6,840.3,1248.4,838.9,1229.6,839.4z M1230.8,757.7
	c-20.9,1.4-58.6,10.9-61,36.7c0.2,27.4,41.3,29.5,60,29c21.5-2,58.9-12.4,60.9-39C1290.6,757.6,1248.5,757.2,1230.8,757.7z
	 M1231.7,681c-19.8,1.3-58.2,9.7-60.6,34.6c0.4,26.4,42.2,27.6,59.9,27.1c20.4-1.8,58.5-11,60.6-36.8
	C1291.1,680.1,1248.5,680.5,1231.7,681z M1232.4,608.8c-18,2.2-58.7,7.7-60.2,32.7c0.6,25.5,43,25.8,59.7,25.3
	c19.4-1.7,58.1-9.8,60.2-34.8C1291.3,607.3,1248.2,608.3,1232.4,608.8z M1232.8,540.8c-17.1,2.1-58.2,6.9-59.7,31
	c0.8,24.5,43.6,24.2,59.4,23.8c17.8-2.3,58.3-8.3,59.7-33C1291.2,538.8,1247.8,540.3,1232.8,540.8z M1232.8,528.3
	c16.9-2.1,57.8-7.5,59.2-31.2c-3.2-23-43.1-21-59.1-20.5c-16.3,1.9-57.6,6.2-59.3,29.4C1176.7,529.7,1216.2,528.8,1232.8,528.3z
	 M1233,464.8c16.1-1.9,57.2-6.8,58.7-29.7c-3.5-22.2-43.2-19.7-58.7-19.2c-17.3,2-55,5.3-58.7,27.9
	C1177.6,466.7,1217,465.3,1233,464.8z M1233,404.7c17.1-2,54.5-5.9,58.1-28.2c-2.1-21.1-45.7-18.4-58.2-18.1
	c-16.7,1.8-54.3,4.7-58.2,26.5C1178.3,407,1217.5,405.2,1233,404.7z M1232.9,347.8c16.6-1.9,53.8-5.3,57.6-26.9
	c-5.2-20.4-43-17.5-57.8-17c-16.1,1.7-53.6,4.2-57.6,25.3C1177.2,350.2,1220.3,348.1,1232.9,347.8z M1232.6,293.8
	c16-1.8,53.1-4.7,57-25.6c-5.4-19.6-42.9-16.5-57.3-16.1c-15.6,1.6-52.8,3.8-57,24.1C1180.5,296.5,1217.9,294.2,1232.6,293.8z
	 M1232.3,242.5c15.5-1.7,52.4-4.2,56.4-24.5c-5.7-18.9-42.8-15.6-56.7-15.2c-15.3,1.6-51.1,3.5-56.4,23
	C1180.9,245.4,1217.9,242.9,1232.3,242.5z M1231.9,193.7c15.2-1.7,50.6-3.9,55.7-23.4c-5.9-18.2-42.5-14.8-56.2-14.4
	c-14.9,1.6-50.3,3.1-55.8,22C1181.2,196.8,1217.9,194.1,1231.9,193.7z M1230.9,111.2c-14.5,1.5-49.6,2.8-55.2,21
	c5.8,18.3,42,15.4,55.6,15c14.8-1.6,49.9-3.6,55.2-22.4C1280.4,107.3,1244.2,110.8,1230.9,111.2z M1230.3,68.6
	c-14.1,1.4-48.8,2.5-54.6,20.2c5.9,17.6,41.7,14.6,55.1,14.2c14.4-1.5,49.1-3.2,54.5-21.4C1279,64.5,1243.4,68.1,1230.3,68.6z
	 M1229.6,27.8c-13.8,1.3-48.1,2.2-54,19.3c6.1,17,41.4,13.9,54.5,13.5c14-1.4,48.4-2.9,53.9-20.6
	C1277.6,23.7,1242.5,27.4,1229.6,27.8z M1175.6,7.4c6.2,16.5,41.1,13.2,53.9,12.9c13.7-1.4,47.7-2.6,53.3-19.7
	c-0.1-0.2-0.2-0.3-0.3-0.5H1181C1178.6,2,1176.7,4.4,1175.6,7.4z M1406.3,1491.2c3.8-31-26-46.9-53.1-42.5
	c-29.6,5.3-59.4,31.1-60.7,62.7c-0.4,8.9,1.7,17.4,5.6,24.5h86.4C1396.5,1523.6,1404.8,1507.4,1406.3,1491.2z M1360.9,1323.9
	c-29,4.4-58.7,27.7-61.1,58.4c-1,29.4,27.7,47.6,55,41.9c29.3-4.6,58.8-31.4,61.2-61.8C1419.5,1331.5,1385.7,1319.9,1360.9,1323.9z
	 M1366.8,1208.4c-27.5,4-59.1,24.6-61.3,54.6c-0.7,29.4,31.1,43.3,56.6,38.2c27.1-5,60.1-27.3,61.4-57.8
	C1426.6,1213,1389.7,1204.9,1366.8,1208.4z M1371.4,1101.4c-25.9,3.7-59.3,21.8-61.4,51.1c-0.4,29.1,34.1,39.5,57.8,34.9
	c26.8-4.8,58.8-24.2,61.4-54.1C1430.8,1102.5,1393.3,1099.4,1371.4,1101.4z M1374.7,1001.9c-24.5,3.4-59.3,19.5-61.3,48
	c-0.8,30.2,37,33.9,58.7,32c25.3-4.4,58.9-21.6,61.3-50.7C1434.5,1001.3,1395.1,1000,1374.7,1001.9z M1377.1,909.1
	c-23.6,3.2-58.7,17.6-61.1,45.1c-0.4,29.3,39,31.3,59.3,29.5c24-4,59-19.4,61.1-47.7C1437,907.2,1396.1,907.4,1377.1,909.1z
	 M1378.7,822.4c-22.4,2.9-58.5,15.8-60.8,42.5c-0.1,28.3,40.6,28.9,59.6,27.3c22.9-3.7,58.6-17.5,60.8-44.9
	C1438.5,819.4,1396.5,820.8,1378.7,822.4z M1379.6,741.1c-21.2,2.7-58.2,14.3-60.5,40.1c0.2,27.4,41.9,26.8,59.8,25.2
	c21.8-3.3,58.4-15.8,60.4-42.4C1439.2,737.4,1396.4,739.6,1379.6,741.1z M1379.9,664.9c-20.1,2.5-57.8,12.9-60.1,37.9
	c0.5,26.4,43,24.9,59.8,23.4c20.7-3.1,58-14.3,60-40.1C1439.2,660.5,1395.8,663.5,1379.9,664.9z M1379.8,593.2
	c-19.1,2.3-57.4,11.8-59.6,35.9c0.8,25.4,43.8,23.2,59.7,21.8c19.7-2.8,57.7-13,59.5-38C1438.6,588.3,1394.8,591.9,1379.8,593.2z
	 M1379.3,525.7c-17.4,3-57.8,9.9-59.1,34c1.1,24.4,44.4,21.6,59.5,20.3c18.8-2.7,57.1-11.9,59-36
	C1435.7,520.3,1395.2,524.3,1379.3,525.7z M1378.4,461.9c-16.6,2.8-57.3,9.1-58.6,32.3c3.3,23.5,43.2,20.3,59.3,19
	c17.1-3,57.4-10.5,58.5-34.2C1435.6,456.4,1391.6,460.8,1378.4,461.9z M1377.3,401.6c-17.4,2.9-54.7,8.1-58,30.8
	c3.7,22.6,43.4,19.1,58.9,17.8c16.3-2.8,56.8-9.6,57.9-32.5C1433.9,395.9,1389.9,400.6,1377.3,401.6z M1375.9,344.5
	c-16.8,2.7-54,7.4-57.4,29.3c2.3,21.7,45.9,17.6,58.6,16.7c17.3-2.9,54.1-8.5,57.4-31C1431.8,338.6,1388,343.5,1375.9,344.5z
	 M1374.4,290.4c-16.3,2.5-53.3,6.8-56.9,27.9c2.5,20.9,46,16.6,58.1,15.7c16.7-2.7,53.5-7.8,56.8-29.5
	C1426.8,284.4,1388.7,289.3,1374.4,290.4z M1372.7,239c-15.7,2.4-52.6,6.2-56.3,26.7c5.7,20,43.2,15.8,57.6,14.7
	c16.1-2.6,52.8-7.2,56.2-28.2C1424.3,232.9,1386.7,237.9,1372.7,239z M1370.9,190.1c-15.2,2.3-51.8,5.7-55.7,25.5
	c5.9,19.3,43.1,14.9,57.1,13.9c15.6-2.4,52.1-6.6,55.6-26.9C1421.7,184,1384.6,189,1370.9,190.1z M1369,143.6
	c-14.9,2.2-50.1,5.3-55,24.4c6.2,18.6,42.9,14.1,56.6,13.1c15.1-2.3,51.4-6.1,55-25.8C1419,137.4,1382.4,142.5,1369,143.6z
	 M1367,99.2c-14.5,2.1-49.4,4.9-54.4,23.3c6.4,17.9,42.6,13.4,56.1,12.4c14.8-2.3,49.6-5.7,54.4-24.7
	C1416.2,93,1380.1,98.2,1367,99.2z M1364.9,56.9c-14.1,2-48.6,4.5-53.8,22.4c6.5,17.3,42.3,12.7,55.5,11.7
	c14.4-2.1,48.9-5.3,53.7-23.7C1413.4,50.7,1377.8,55.9,1364.9,56.9z M1362.8,16.4c-13.8,1.9-48,4.2-53.2,21.5
	c6.8,16.7,42,12,54.9,11.1c14-2,48.2-4.9,53.1-22.7C1410.5,10.3,1375.5,15.5,1362.8,16.4z M1362.4,8.9c9.1-1.3,27.2-2.9,39.7-8.9
	h-93.2C1317.4,14.2,1350.1,9.8,1362.4,8.9z M1483.6,1526.9c30.7-7.6,57.9-39.5,61.5-70.6c4.2-32.8-24.2-42.3-50.9-37.9
	c-29.6,7.7-59.1,35.1-61.4,67C1430.7,1514.1,1455.2,1535.7,1483.6,1526.9z M1504.6,1294.1c-28,6.9-59.7,31.4-61.4,62.5
	c-2.7,32.2,27.3,41.5,53.3,37.3c29.2-6.9,58.4-35.3,61.5-65.9C1561.5,1295.5,1529.1,1290,1504.6,1294.1z M1512.5,1179.3
	c-27.5,6.1-58.6,28.4-61.4,58.6c-2.1,31.8,31.2,37.5,55.2,33.7c27.7-6.3,58.8-31.7,61.4-61.7
	C1570.6,1178,1534.9,1175.6,1512.5,1179.3z M1518.4,1072.9c-26.1,5.6-58.8,25.6-61.3,54.9c-1.6,31.1,34.6,34,56.7,30.5
	c26.8-6.8,58.2-27.9,61.2-57.9C1577.2,1069.6,1539,1069.6,1518.4,1072.9z M1522.5,974.2c-24.6,5.1-58.8,23.2-61,51.7
	c-1.2,30.3,37.3,31,57.8,27.8c25.4-6.2,58.3-25.3,60.9-54.4C1581.8,969.3,1541.5,971.1,1522.5,974.2z M1525.2,882.1
	c-23.3,4.7-58.7,21-60.7,48.6c-0.7,29.3,39.5,28.3,58.6,25.4c24.1-5.6,58.3-23,60.6-51.3C1584.7,876.1,1542.9,879.4,1525.2,882.1z
	 M1526.8,796.2c-22.6,4.4-57.9,19.2-60.3,45.9c-0.2,28.3,41.3,25.9,59.1,23.2c22.7-5.2,58.2-21,60.2-48.4
	C1586.2,789.3,1543.4,793.7,1526.8,796.2z M1527.4,715.8c-21.4,4-57.6,17.6-59.9,43.4c0.2,27.3,42.7,23.8,59.4,21.3
	c21.9-4.7,57.8-19.1,59.7-45.7C1586.7,708.2,1543,713.4,1527.4,715.8z M1527.2,640.3c-20.3,3.7-57.3,16.1-59.4,41.1
	c0.6,26.3,43.8,21.9,59.6,19.6c20.8-4.4,57.4-17.5,59.3-43.3C1586.1,632.3,1542,638.1,1527.2,640.3z M1526.3,569.4
	c-19.3,3.4-56.8,14.8-58.9,39c1,25.3,44.6,20.3,59.6,18.1c19.8-4,57.1-16.1,58.8-41C1584.4,561,1539.8,567.5,1526.3,569.4z
	 M1524.9,502.6c-18.3,3.2-56.5,13.7-58.3,37c1.3,24.3,45.2,18.8,59.5,16.8c18.9-3.8,56.5-14.8,58.2-39
	C1582.4,494,1537.8,500.8,1524.9,502.6z M1523,439.5c-16.7,3.7-56.8,12-57.8,35.2c2.1,23.2,46.2,17.3,59.3,15.6
	c18.1-3.5,56-13.7,57.7-37C1580,430.8,1535.4,437.9,1523,439.5z M1520.8,379.9c-17.6,3.8-54.3,10.8-57.2,33.5
	c2.5,22.3,46.5,16.1,59.1,14.5c16.4-3.7,56.3-12.4,57.1-35.3C1577.1,371.2,1532.7,378.4,1520.8,379.9z M1518.2,323.5
	c-16.9,3.6-53.6,10-56.6,31.9c2.7,21.5,46.7,15,58.7,13.5c17.4-3.8,53.7-11.2,56.5-33.6C1571,314.9,1532.4,321.7,1518.2,323.5z
	 M1515.4,270c-16.3,3.4-52.9,9.2-56,30.5c5.9,20.5,44,14.4,58.3,12.6c16.7-3.6,53-10.4,55.9-32.1
	C1567.4,261.4,1529.3,268.3,1515.4,270z M1512.4,219.2c-15.8,3.2-52.2,8.6-55.4,29.1c6.3,19.7,43.9,13.5,57.9,11.8
	c16.1-3.3,52.4-9.6,55.3-30.6C1563.6,210.6,1526,217.5,1512.4,219.2z M1509.2,171c-15.2,3-51.5,8-54.8,27.9
	c6.5,18.9,43.7,12.7,57.4,11c15.6-3.2,51.7-9,54.7-29.3C1559.7,162.4,1522.6,169.3,1509.2,171z M1505.9,125
	c-14.8,2.8-50.9,7.4-54.2,26.7c6.8,18.2,43.4,12,56.9,10.3c15-3,51.1-8.4,54.1-28.1C1555.6,116.5,1519,123.4,1505.9,125z
	 M1502.5,81.2c-14.5,2.8-49.1,7-53.6,25.6c7,17.6,43.2,11.3,56.4,9.7c14.6-2.8,50.4-7.8,53.5-26.9
	C1551.4,72.8,1515.4,79.7,1502.5,81.2z M1499,39.4c-14.1,2.6-48.4,6.5-53,24.5c7.2,16.9,42.9,10.6,55.9,9.1
	c14.3-2.8,48.6-7.4,52.9-25.8C1547.1,31.1,1511.7,37.9,1499,39.4z M1443,23c7.4,16.3,42.5,10.1,55.3,8.6
	c13.9-2.6,47.9-6.9,52.3-24.8c-1.5-3.1-4.2-5.3-7.5-6.9h-50.7C1477.3,2.5,1447.4,6.8,1443,23z M1615.9,1511.9
	c-13.2,4.7-25.6,13.3-35.9,24.1h80.2C1656.9,1514.9,1641.6,1502.2,1615.9,1511.9z M1619.5,1485.3c30.4-10.2,57.3-43.2,62-74.8
	c5.3-32.7-22.9-39.6-48.4-33.2c-29.4,10.1-58.6,39-61.8,71.1C1567.5,1477.9,1592.4,1495.3,1619.5,1485.3z M1646.3,1253.7
	c-27.9,9.2-59,35.3-61.5,66.6c-3.5,32.2,26.5,38.7,51.1,32.7c29-9.3,57.7-39.1,61.7-70C1702.1,1250.5,1669.3,1248.1,1646.3,1253.7z
	 M1656.3,1139.8c-27.4,8.6-58,31.8-61.3,62.4c-2.9,31.9,30.9,34.5,53.5,29.1c27.6-8.5,58.1-35.4,61.3-65.6
	C1713.4,1133.8,1677,1134.8,1656.3,1139.8z M1663.5,1034.5c-26,7.5-58.1,29.2-60.9,58.6c-2.3,31.2,34.6,30.8,55.3,26
	c26.1-7.8,58.3-32.2,60.9-61.6C1721.6,1026.6,1682.5,1030,1663.5,1034.5z M1668.5,936.7c-24.7,6.9-58.1,26.7-60.5,55.2
	c-1.6,30.3,37.6,27.7,56.6,23.3c25.3-8,57.5-28.8,60.4-58C1727.2,927.4,1686,932.7,1668.5,936.7z M1669.2,918.9
	c24-7.3,57.5-26.4,60-54.7c1.3-28.7-41.3-22-57.5-18.4c-23.3,6.3-58,24.4-60.1,52.1C1610.6,927.2,1651.6,922.9,1669.2,918.9z
	 M1673.3,761c-22,5.7-57.8,22.5-59.6,49.2c-0.4,28.3,41.9,22.6,58.4,19c22.7-6.7,57.4-24.3,59.5-51.6
	C1732.2,750,1688.5,757.7,1673.3,761z M1673.7,681.6c-21.5,5.4-56.9,20.7-59.1,46.6c0.1,27.2,43.4,20.6,58.9,17.3
	c21.9-6.2,56.9-22.3,58.9-48.9C1732.2,670.2,1687.4,678.8,1673.7,681.6z M1673.1,607.3c-20.4,5-56.6,19.2-58.6,44.1
	c0.7,26.1,44.5,18.7,59.2,15.7c20.8-5.7,56.7-20.6,58.4-46.3C1731.1,595.5,1686.1,604.6,1673.1,607.3z M1671.6,537.4
	c-19.4,4.6-56.2,17.8-58,41.9c1.5,25.1,45.9,17,59.3,14.3c19.8-5.2,56.4-19.1,57.9-44C1729.2,525.5,1683.9,534.9,1671.6,537.4z
	 M1669.4,471.6c-18.4,4.2-55.8,16.5-57.5,39.8c2,24,46.6,15.6,59.3,13.1c19-4.9,55.8-17.7,57.3-41.8
	C1726.4,459.7,1681.2,469.3,1669.4,471.6z M1666.6,409.5c-17.6,3.9-55.3,15.4-56.9,37.9c2.4,23,47,14.3,59.2,12
	c18.1-4.5,55.3-16.5,56.7-39.8C1723,397.6,1678,407.4,1666.6,409.5z M1663.3,350.9c-17.6,4.8-53.7,13.4-56.3,36.1
	c2.8,22.1,47.2,13.2,59,11.1c16.4-4.6,55.7-15.2,56.1-37.9C1719,339.1,1674.3,348.8,1663.3,350.9z M1659.6,295.4
	c-16.9,4.4-53.1,12.5-55.7,34.5c3.2,21.2,47.4,12.3,58.7,10.2c17.3-4.7,53.1-13.7,55.5-36.2C1711.7,284,1673.1,293,1659.6,295.4z
	 M1655.5,242.8c-16.3,4.2-52.4,11.7-55.1,32.9c6.5,20.1,44.6,11.9,58.4,9.4c16.6-4.4,52.5-12.8,54.9-34.5
	C1707,231.5,1668.8,240.5,1655.5,242.8z M1651.2,192.9c-15.7,3.9-51.8,10.9-54.5,31.5c6.8,19.3,44.5,11,58,8.7
	c16.1-4.1,51.8-12,54.3-33C1701.9,181.7,1664.3,190.6,1651.2,192.9z M1646.7,145.5c-15.2,3.7-51.2,10.2-53.9,30.2
	c7.1,18.5,44.3,10.3,57.5,8.1c15.5-3.9,51.2-11.3,53.8-31.6C1696.7,134.4,1659.7,143.2,1646.7,145.5z M1642.1,100.3
	c-14.7,3.5-50.5,9.6-53.3,28.9c7.5,17.8,44,9.7,57.1,7.5c15-3.7,50.6-10.6,53.1-30.3C1691.3,89.4,1654.9,98.1,1642.1,100.3z
	 M1637.3,57.3c-14.4,3.4-48.8,9.1-52.7,27.7c7.7,17.1,43.7,9.1,56.6,7c14.5-3.5,49.9-10,52.5-29
	C1685.7,46.6,1649.9,55.2,1637.3,57.3z M1632.4,16.2c-14,3.2-48.1,8.5-52.1,26.6c7.9,16.5,43.4,8.5,56.1,6.5
	c14.2-3.4,48.2-9.4,52-27.9C1680.1,5.7,1644.9,14.1,1632.4,16.2z M1631.5,8.6c7.3-1.7,20.1-4.1,31.2-8.6h-85.9
	c-0.3,0.8-0.6,1.7-0.9,2.5C1584,18.4,1618.8,10.6,1631.5,8.6z M1789.3,1492.4c3.2-28.4-11.8-47.3-41.4-33.2
	c-29.4,13.3-55.2,44.7-61.8,76.8h84.8C1779.9,1522.3,1786.3,1507,1789.3,1492.4z M1752.4,1432.7c30-12.9,56.5-46.9,62.2-79
	c6.5-32.6-21.6-36.6-45.5-28.4c-29.1,12.6-57.7,42.8-61.9,75.2C1702.3,1429.8,1726.7,1444.8,1752.4,1432.7z M1772.5,1301.1
	c28.6-11.8,56.9-42.7,61.6-73.9c5.6-32.6-27.7-31.5-48.8-24.5c-27.6,11.4-58,39-61.4,70.4
	C1719.3,1305.3,1749.4,1308.8,1772.5,1301.1z M1797.4,1090c-27.1,10.8-57,35.4-60.9,66.1c-3.8,31.9,30.6,31.1,51.4,24.4
	c27.3-10.7,57.1-39,61-69.3C1853.7,1078.8,1815.8,1084.3,1797.4,1090z M1806.2,985.9c-25.7,9.8-57.1,32.5-60.4,62.2
	c-3,31.3,34.6,27.3,53.5,21.4c25.9-9.8,57.2-35.7,60.4-65.2C1863.5,973,1822.6,981,1806.2,985.9z M1807.5,967
	c24.6-8.9,57.3-32.9,59.8-61.4c2.7-30.1-40.2-20.4-55.1-16c-24.5,8.6-57.1,30.1-59.9,58.6C1750.2,978.6,1790.2,972.3,1807.5,967z
	 M1816,800.1c-23.2,7.9-57,27.7-59.3,55.4c-1.3,29.5,41,21.1,56.4,16.6c23.8-9,56.5-29.7,59.2-58
	C1874.1,785.3,1829.7,796.1,1816,800.1z M1817.9,716.7c-22,7.2-56.9,25.7-58.8,52.4c-0.4,28.3,43,18.7,57.4,14.7
	c22.6-8.2,56.4-27.5,58.6-54.8C1875.9,701.4,1830.7,713.1,1817.9,716.7z M1818.2,638.7c-21.4,6.8-56,23.8-58.2,49.6
	c0.3,27.1,44.5,16.8,58,13.1c21.4-7.5,56.2-25.5,58.1-51.9C1876,623.3,1830.3,635.4,1818.2,638.7z M1817.2,565.7
	c-20.3,6.2-55.7,22.1-57.6,47.1c1,25.9,45.8,15,58.5,11.7c20.7-7,55.8-23.6,57.5-49.2C1874.6,550.2,1828.8,562.6,1817.2,565.7z
	 M1815.2,497.2c-19.3,5.7-55.4,20.6-57,44.7c1.7,24.8,46.6,13.6,58.8,10.4c19.7-6.4,55.5-22,56.9-46.8
	C1872.2,481.7,1826.2,494.3,1815.2,497.2z M1812.2,432.7c-18.4,5.3-55,19.3-56.4,42.5c2.2,23.7,47.2,12.3,58.9,9.4
	c18.9-6,55-20.5,56.3-44.5C1868.6,417.4,1823,430,1812.2,432.7z M1808.6,371.9c-17.5,4.9-54.6,18.1-55.9,40.5
	c2.7,22.7,47.6,11.1,58.9,8.4c18.1-5.6,54.5-19.1,55.7-42.4C1864.4,356.8,1819,369.3,1808.6,371.9z M1804.3,314.5
	c-17.5,5.7-53,16-55.3,38.7c3.2,21.7,47.9,10.2,58.8,7.5c17.3-5.2,54.1-17.9,55.1-40.4C1856.5,300,1817.2,311.4,1804.3,314.5z
	 M1799.5,260.2c-16.8,5.3-52.4,15-54.7,36.9c6.6,20.5,45.2,10,58.5,6.8c17.2-5.6,52.4-16.2,54.5-38.6
	C1851,245.9,1812.4,257.2,1799.5,260.2z M1794.4,208.8c-16.2,5-51.8,14.1-54.1,35.3c7.1,19.6,45.1,9.2,58.3,6.1
	c16.6-5.3,51.8-15.3,53.9-36.9C1845.2,194.7,1807.1,205.9,1794.4,208.8z M1788.9,160c-15.7,4.7-51.2,13.2-53.5,33.8
	c7.4,18.8,44.9,8.5,58,5.5c16-4.9,51.2-14.3,53.3-35.3C1838.9,146.2,1801.5,157.1,1788.9,160z M1783.1,113.6
	c-15.1,4.4-50.6,12.5-52.9,32.4c7.7,18,44.7,7.9,57.6,5c15.4-4.6,50.6-13.5,52.7-33.8C1832.5,100.1,1795.7,110.8,1783.1,113.6z
	 M1777.2,69.4c-14.6,4.2-50,11.8-52.3,31c8.1,17.3,44.4,7.3,57.2,4.5c14.8-4.4,50.1-12.8,52.1-32.4
	C1825.8,56.2,1789.6,66.7,1777.2,69.4z M1771.1,27.3c-14.1,3.9-49.3,11.1-51.7,29.8c8.3,16.6,44.1,6.8,56.7,4.1
	c14.4-4.1,49.5-12.1,51.6-31.1C1818.9,14.4,1783.4,24.7,1771.1,27.3z M1713.7,15.8c8.6,16,43.7,6.3,56.2,3.7
	c11-3.1,35-8.4,45.7-19.5h-88.2C1720.4,4,1715,9.1,1713.7,15.8z M1857.5,1536h6.8C1862.3,1535.6,1860,1535.5,1857.5,1536z
	 M1850.4,1512.9c30.6-17.8,55.1-54.9,63.3-89c4.5-31.4-8.6-41.2-37.6-28.5c-30.4,16.9-55.7,50.7-62.8,84.8
	C1810,1510,1820.3,1526.2,1850.4,1512.9z M1901.4,1262.5c-28.6,15.1-56.6,46.4-61.9,79.2c-2,31.3,14.3,39.2,42,27.4
	c29.4-16.2,55.3-50.1,62.3-83C1946.7,1254,1927.6,1251.4,1901.4,1262.5z M1905.5,1238.5c28.1-14.3,55.6-46.2,61.3-77.8
	c7.3-33.4-27.5-27.3-46.1-19.6c-28,14.1-55.7,42.3-61.1,74.3C1853.7,1248.3,1884.7,1247.1,1905.5,1238.5z M1935.4,1029.8
	c-26.7,12.9-55.8,38.9-60.4,69.8c-5,32.7,30.7,26.9,49,19.6c26.8-13,55.9-42.4,60.5-73C1990.5,1013.6,1951.4,1023.5,1935.4,1029.8z
	 M1945.9,927.4c-25.4,11.8-55.9,35.8-59.7,65.7c-4,31.9,35.2,22.9,51.5,16.6c25.5-11.8,55.9-39.1,59.7-68.7
	C2002.2,909.6,1960,922,1945.9,927.4z M1947.5,908.8c24.2-10.8,56-36.1,59-64.7c3.5-30-40.7-16.1-53.4-11.4
	c-24.1,10.7-55.9,33.2-59.1,61.9C1891.2,925.4,1932.9,914.3,1947.5,908.8z M1957.7,744.9c-22.9,9.5-55.9,30.9-58.4,58.5
	c-1.8,29.5,41.6,16.9,55,12.1c23.5-10.7,55.2-32.9,58.3-61.2C2014.8,725.8,1969.3,740.7,1957.7,744.9z M1958.3,728.9
	c22.3-9.8,55.2-30.6,57.7-57.9c1.2-27.2-45.1-11.6-56-7.8c-21.8,8.7-55.7,28.7-57.8,55.4C1901.4,746.8,1945.8,733.3,1958.3,728.9z
	 M1960.4,587c-20.6,8-55.6,26.8-57.2,52.5c0.1,26.9,45.3,12.8,57,8.8c21.2-8.9,55-28.5,57-54.8
	C2017.3,567.6,1970.7,583.4,1960.4,587z M1959.2,515.7c-20.2,7.5-54.7,25-56.6,49.9c1,25.7,46.4,11.2,57.6,7.5
	c20.6-8.4,54.3-26.5,56.3-52C2015.8,496.5,1969.2,512.4,1959.2,515.7z M1958.8,502.6c19.5-7.7,54.4-24.8,55.8-49.5
	c-1.7-23.3-48.2-7.5-57.8-4.3c-19.2,6.9-54.4,23.4-56,47.4C1902.5,520.7,1948.1,506.1,1958.8,502.6z M1956.2,436.5
	c18.8-7.1,53.9-23.2,55.1-47.1c-2.5-22.2-48.6-6.5-58.1-3.5c-18.3,6.4-54.1,22-55.4,45.2C1900.2,454.4,1945.8,439.8,1956.2,436.5z
	 M1952.5,374.3c17.9-6.6,53.6-21.8,54.5-44.9c-6.2-20.7-46-6.5-58.2-2.8c-17.4,5.9-53.7,20.7-54.8,43.1
	C1897.1,392,1942.3,377.5,1952.5,374.3z M1947.9,315.8c17.2-6.1,53.2-20.5,54-42.8c-6.9-19.7-46.1-5.8-58.2-2.2
	c-16.6,5.5-53.3,19.5-54.2,41.1C1896.1,332.7,1935.2,319.6,1947.9,315.8z M1942.7,260.5c16.4-5.7,52.7-19.3,53.4-40.9
	c-7.5-18.7-45.9-5.2-58.1-1.6c-16.7,6.2-51.7,17.4-53.6,39.3C1891.5,277.1,1930.1,264.2,1942.7,260.5z M1936.8,208.2
	c16.4-6.1,51-17.6,52.8-39.1c-7.9-17.9-45.8-4.6-57.8-1.2c-16.1,5.8-51.1,16.4-53,37.6C1886.4,224.4,1924.3,211.8,1936.8,208.2z
	 M1930.5,158.6c15.8-5.7,50.5-16.6,52.2-37.5c-8.4-17.1-45.5-4.1-57.6-0.8c-15.5,5.4-50.5,15.5-52.4,36
	C1880.8,174.5,1918,162.1,1930.5,158.6z M1923.9,111.6c15.2-5.4,49.9-15.7,51.6-35.9c-8.7-16.4-45.2-3.7-57.2-0.4
	c-15,5.1-50,14.6-51.9,34.5C1874.7,127.1,1911.5,115,1923.9,111.6z M1911.1,32.3c-14.5,4.8-49.4,13.9-51.3,33.1
	c8.8,16.6,44.8,4.8,57.1,1.5c14.7-5,49.4-14.9,51.1-34.4C1958.8,16.8,1923.2,29.1,1911.1,32.3z M1853,23.2c9,16,44.4,4.4,56.7,1.2
	c11.8-4,37.9-11.1,47.2-24.4h-78.4C1865.9,5.2,1854.1,12.6,1853,23.2z M1989,1496.7c6.7-27.7,3.6-47.7-27.1-30
	c-23.3,16.4-42.5,42.2-54.8,69.3h65.5C1979.5,1523,1985,1509.5,1989,1496.7z M1969.8,1437.7c29.7-20.8,53.9-58.6,63.5-93.2
	c5.9-30.9-6.2-38.8-33.5-23.7c-29.6,19.8-54.4,54.3-62.9,88.9C1932.5,1438.6,1941.3,1453.7,1969.8,1437.7z M2048,1182
	c-6.1,1.2-12.7,3.7-18.4,6.8c-28.4,18-54.6,49.8-61.7,83.1c-3.3,31.1,12.5,36.5,38.3,22.6c15.7-10.4,30.4-25.5,41.8-42.6V1182z
	 M2034.4,1165.1c4.6-2.8,9.1-6.1,13.6-9.7v-83.7c-25.8,16.9-50.2,44.7-56.3,75.2C1984.4,1180.1,2015.8,1174.8,2034.4,1165.1z
	 M2048,1050.8v-76.4c-18.4,15.3-34.3,35.7-38.2,58.2C2004.5,1060.8,2030.4,1057.3,2048,1050.8z M2048,947.4v-63.3
	c-12.5,12.4-22.4,27.4-24.8,43.6C2020.1,947.2,2033.7,949.8,2048,947.4z M2048,849.6v-50.3c-8,9.6-13.9,20.3-15.3,31.9
	C2031,844.7,2038.3,849.2,2048,849.6z M2048,757.7V719c-4.9,7.1-8.3,14.8-9.1,22.9C2038.1,751.1,2042,755.8,2048,757.7z M2048,671.7
	v-29.6c-3.1,5.3-5.1,11-5.6,16.9C2042.1,665.4,2044.3,669.4,2048,671.7z M2048,592.4v-24.9c-2.4,4.5-3.9,9.3-4.3,14.2
	C2043.7,586.8,2045.3,590.2,2048,592.4z M2048,494.8c-2.8,4.7-4.5,9.6-4.8,14.8c0.2,4.8,1.9,8,4.8,10.1V494.8z M2048,452.6V425
	c-3.9,5.3-6.5,11-6.9,17.2C2041.5,447.5,2044.1,450.8,2048,452.6z M2048,389.6v-31.3c-5.8,6.1-9.8,13-10.2,20.6
	C2038.5,385.1,2042.4,388.3,2048,389.6z M2033.4,319.3c2.1,6.9,7.6,9.8,14.6,10.5v-34.4C2039.8,302.2,2033.8,310.2,2033.4,319.3z
	 M2028.1,263.1c2.8,8,10.7,10.3,19.9,10v-36.8C2037.2,243.5,2028.5,252.6,2028.1,263.1z M2048,218.8v-38.1
	c-13,7.2-24.9,16.7-25.9,29.3C2025.8,219.2,2036.5,220.5,2048,218.8z M2048,166.9v-38.6c-15.2,7.1-31.4,17.2-32.5,31.5
	C2020.2,170.2,2034.4,169.9,2048,166.9z M2008.5,112.3c5.8,11.7,24.4,9,39.5,4.8V78.9C2031.4,85.6,2009.7,96.2,2008.5,112.3z
	 M2001,67.1c7.1,13.2,31.3,7.1,47,2.1V32C2031.9,38.1,2002.4,48.8,2001,67.1z M1993.3,24.1c8.9,15.1,41.1,3.6,54.7-0.9V0h-31.5
	C2004.7,5.9,1994.1,13.7,1993.3,24.1z M2027.4,1536h10.6C2036.4,1532.6,2033.1,1531.8,2027.4,1536z M2048,1408.4
	c-16.9,21.6-30.1,47-38,71.9c-5.9,22.9-8.8,52.3,20.9,30.4c6-5.3,11.7-11.3,17.1-17.7V1408.4z"/>
</svg>
