<?xml version="1.0" encoding="utf-8"?>
<!-- Generator: Adobe Illustrator 19.2.1, SVG Export Plug-In . SVG Version: 6.00 Build 0)  -->
<svg version="1.1" id="Layer_1" xmlns="http://www.w3.org/2000/svg" xmlns:xlink="http://www.w3.org/1999/xlink" x="0px" y="0px"
	 viewBox="0 0 635 240" style="enable-background:new 0 0 635 240;" xml:space="preserve">
<style type="text/css">
	.st0{fill:#FBB041;}
	.st1{fill:#2957A6;}
</style>
<g>
	<g>
		<path class="st0" d="M530.4,228c-39.4,0-60.6-2-77.3-4.9v-33.5c17.2,3,35,5.4,75.8,5.4c36.4,0,53.2-6.4,53.2-27.1
			c0-23.1-10.3-26.6-54.2-26.6c-50.7,0-81.2-14.3-81.2-61.6c0-45.3,37.4-58.1,92.1-58.1c33,0,52.2,2,66.5,4.4v33
			c-17.7-2.5-33.5-4.9-64-4.9c-44.8,0-57.1,5.9-57.1,26.1c0,21.2,11.3,26.1,56.1,26.1c53.7,0,79.8,15.8,79.8,62
			C620,215.2,592.9,228,530.4,228z"/>
	</g>
	<g>
		<path class="st1" d="M12,117.1V79.9h22.9v-0.3C34.9,30.8,52.9,12,95.6,12h39.6v38.6h-20.5c-15,0-19.8,5.5-19.8,28v1.4h36.2v37.2
			H94.9V228h-60V117.1H12z"/>
		<path class="st1" d="M155.6,12h61.1v216h-61.1V12z"/>
		<path class="st1" d="M295.3,151.6l-53.9-71.6h68.2l18.4,25.9c3.1,4.8,7.2,11.3,7.2,11.3s3.8-6.5,6.8-11.3l18.1-25.9h57.7
			l-52.2,69.3l57,78.8h-67.9l-22.2-30.7c-3.8-5.5-7.2-11.3-7.2-11.3s-3.1,5.8-6.8,11.3L296.7,228h-58L295.3,151.6z"/>
	</g>
</g>
</svg>
